<svg xmlns="http://www.w3.org/2000/svg" xmlns:xlink="http://www.w3.org/1999/xlink" width="103" height="103" viewBox="0 0 103 103">
  <defs>
    <filter id="Trazado_978624" x="0" y="0" width="103" height="103" filterUnits="userSpaceOnUse">
      <feOffset dy="3" input="SourceAlpha"/>
      <feGaussianBlur stdDeviation="3" result="blur"/>
      <feFlood flood-opacity="0.161"/>
      <feComposite operator="in" in2="blur"/>
      <feComposite in="SourceGraphic"/>
    </filter>
  </defs>
  <g id="Grupo_1231368" data-name="Grupo 1231368" transform="translate(-616 -4888.554)">
    <g id="Grupo_1229722" data-name="Grupo 1229722" transform="translate(625 4894.554)">
      <g id="Grupo_1229382" data-name="Grupo 1229382" transform="translate(0 0)">
        <g id="Grupo_1226922" data-name="Grupo 1226922">
          <g id="Grupo_1224934" data-name="Grupo 1224934">
            <g id="Grupo_1222589" data-name="Grupo 1222589">
              <g id="Grupo_1203109" data-name="Grupo 1203109">
                <g id="Grupo_1176881" data-name="Grupo 1176881">
                  <g id="Grupo_1175148" data-name="Grupo 1175148">
                    <g id="Grupo_1173798" data-name="Grupo 1173798">
                      <g id="Grupo_1171925" data-name="Grupo 1171925">
                        <g id="Grupo_1164524" data-name="Grupo 1164524">
                          <g id="Grupo_1144123" data-name="Grupo 1144123">
                            <g transform="matrix(1, 0, 0, 1, -9, -6)" filter="url(#Trazado_978624)">
                              <g id="Trazado_978624-2" data-name="Trazado 978624" transform="translate(9 6)" fill="#e7f2f8">
                                <path d="M 42.5 83.49997711181641 C 36.96437835693359 83.49997711181641 31.59512901306152 82.41616058349609 26.54141235351562 80.27861785888672 C 21.65934181213379 78.21367645263672 17.27447128295898 75.25721740722656 13.50862312316895 71.49137115478516 C 9.742764472961426 67.72550964355469 6.786305904388428 63.34065246582031 4.721364498138428 58.45858001708984 C 2.583823442459106 53.40486145019531 1.5 48.03561401367188 1.5 42.49999237060547 C 1.5 36.96437072753906 2.583823442459106 31.59512138366699 4.721364498138428 26.54140472412109 C 6.786305904388428 21.65933418273926 9.742764472961426 17.27447509765625 13.50862312316895 13.50862789154053 C 17.27447128295898 9.742769241333008 21.65934181213379 6.786310195922852 26.54141235351562 4.721368789672852 C 31.59512901306152 2.58382773399353 36.96437835693359 1.500004172325134 42.5 1.500004172325134 C 48.03562164306641 1.500004172325134 53.40486907958984 2.58382773399353 58.45858764648438 4.721368789672852 C 63.34066009521484 6.786310195922852 67.72553253173828 9.742769241333008 71.49137878417969 13.50862789154053 C 75.25723266601562 17.27447509765625 78.21369171142578 21.65933418273926 80.27863311767578 26.54140472412109 C 82.41617584228516 31.59512138366699 83.5 36.96437072753906 83.5 42.49999237060547 C 83.5 48.03561401367188 82.41617584228516 53.40486145019531 80.27863311767578 58.45858001708984 C 78.21369171142578 63.34065246582031 75.25723266601562 67.72550964355469 71.49137878417969 71.49137115478516 C 67.72553253173828 75.25721740722656 63.34066009521484 78.21367645263672 58.45858764648438 80.27861785888672 C 53.40486907958984 82.41616058349609 48.03562164306641 83.49997711181641 42.5 83.49997711181641 Z" stroke="none"/>
                                <path d="M 42.5 2.999992370605469 C 37.16621398925781 2.999992370605469 31.99356079101562 4.043952941894531 27.125732421875 6.102874755859375 C 22.42246627807617 8.092178344726562 18.19785308837891 10.94069671630859 14.56928253173828 14.56927490234375 C 10.94070434570312 18.19784545898438 8.092185974121094 22.42245864868164 6.102882385253906 27.12572479248047 C 4.043960571289062 31.99355316162109 3 37.16620635986328 3 42.49999237060547 C 3 47.83377838134766 4.043960571289062 53.00641632080078 6.102867126464844 57.87424468994141 C 8.092185974121094 62.5775260925293 10.94070434570312 66.8021240234375 14.56928253173828 70.43070220947266 C 18.19785308837891 74.05927276611328 22.42246627807617 76.90779113769531 27.125732421875 78.89710998535156 C 31.99356079101562 80.95601654052734 37.16621398925781 81.99997711181641 42.5 81.99997711181641 C 47.83378601074219 81.99997711181641 53.00643920898438 80.95601654052734 57.87425231933594 78.89710998535156 C 62.57753372192383 76.90779113769531 66.80213165283203 74.05927276611328 70.43071746826172 70.43070220947266 C 74.05929565429688 66.8021240234375 76.90781402587891 62.5775260925293 78.89711761474609 57.87424468994141 C 80.95603942871094 53.00641632080078 82 47.83377838134766 82 42.49999237060547 C 82 37.16620635986328 80.95603942871094 31.99355316162109 78.89711761474609 27.12572479248047 C 76.90781402587891 22.42245864868164 74.05929565429688 18.19786071777344 70.43071746826172 14.56927490234375 C 66.80213165283203 10.94069671630859 62.57753372192383 8.092178344726562 57.87425231933594 6.102874755859375 C 53.00643920898438 4.043952941894531 47.83378601074219 2.999992370605469 42.5 2.999992370605469 M 42.5 -7.62939453125e-06 C 65.97209167480469 -7.62939453125e-06 85 19.02788543701172 85 42.49999237060547 C 85 65.97208404541016 65.97209167480469 84.99997711181641 42.5 84.99997711181641 C 19.02789306640625 84.99997711181641 0 65.97208404541016 0 42.49999237060547 C 0 19.02788543701172 19.02789306640625 -7.62939453125e-06 42.5 -7.62939453125e-06 Z" stroke="none" fill="#248abf"/>
                              </g>
                            </g>
                          </g>
                        </g>
                      </g>
                    </g>
                  </g>
                </g>
              </g>
            </g>
          </g>
        </g>
      </g>
    </g>
    <g id="detener-la-violencia" transform="translate(636.403 4905.905)">
      <g id="Grupo_1231366" data-name="Grupo 1231366" transform="translate(0.926 0.971)">
        <path id="Trazado_1193316" data-name="Trazado 1193316" d="M37.8,7.562q-1.044,0-2.071.07a30.188,30.188,0,1,0,2.071-.07ZM17.976,49.133A22.867,22.867,0,0,1,49.194,17.915a1.824,1.824,0,0,1,.386,2.872L20.848,49.519a1.825,1.825,0,0,1-2.872-.386ZM37.8,60.6l-.3,0a22.722,22.722,0,0,1-11.093-3.035,1.824,1.824,0,0,1-.386-2.872L54.754,25.961a1.825,1.825,0,0,1,2.872.386A22.867,22.867,0,0,1,37.8,60.6Z" transform="translate(-7.623 -7.562)" fill="#ff899f"/>
        <path id="Trazado_1193317" data-name="Trazado 1193317" d="M43.824,67.827A30.181,30.181,0,1,1,35.73,8.143,44.785,44.785,0,0,0,30.8,16.479,22.876,22.876,0,0,0,17.976,49.643a1.825,1.825,0,0,0,2.872.386L28,42.877a40.962,40.962,0,0,0,2.719,7.629l-4.7,4.7a1.824,1.824,0,0,0,.386,2.872A22.722,22.722,0,0,0,37.5,61.111a69.09,69.09,0,0,0,6.323,6.716Z" transform="translate(-7.623 -8.072)" fill="#ff5f7f"/>
        <path id="Trazado_1193318" data-name="Trazado 1193318" d="M170.587,122.119v11.888a13.717,13.717,0,0,1-22.63,10.427l-1.221-5.125-2.921-1.08a13.665,13.665,0,0,1-.663-4.222V126.69a2.744,2.744,0,0,1,5.487,0v-9.144a2.743,2.743,0,0,1,2.744-2.744,2.743,2.743,0,0,1,2.742,2.744v-1.829a2.744,2.744,0,0,1,5.487,0v2.744a2.744,2.744,0,1,1,5.487,0v3.658a2.743,2.743,0,1,1,5.486,0Z" transform="translate(-126.692 -100.17)" fill="#ffd4bd"/>
        <path id="Trazado_1193319" data-name="Trazado 1193319" d="M158.922,160.8a13.725,13.725,0,0,1-15.769-13.564V139.92a2.744,2.744,0,0,1,5.487,0v-9.144a2.743,2.743,0,0,1,2.744-2.744,2.711,2.711,0,0,1,1.267.311c-.468.486-1.055,1.557-1.055,3.873v17.9S151.736,157.83,158.922,160.8Z" transform="translate(-126.692 -113.4)" fill="#ffbf9d"/>
      </g>
      <g id="Grupo_1231367" data-name="Grupo 1231367" transform="translate(0 0.06)">
        <path id="Trazado_1193320" data-name="Trazado 1193320" d="M53.087,9.166a31.1,31.1,0,0,0-51.114,11.1A.911.911,0,0,0,3.68,20.9,29.278,29.278,0,1,1,2.514,24.86a.911.911,0,1,0-1.779-.39,31.092,31.092,0,1,0,52.353-15.3Z" transform="translate(0 -0.06)"/>
        <path id="Trazado_1193321" data-name="Trazado 1193321" d="M95.974,63.451A23.778,23.778,0,0,0,63.512,95.913a2.735,2.735,0,0,0,4.306.576l2.906-2.906A14.689,14.689,0,0,0,73.9,98.175l-2.2,2.2a2.734,2.734,0,0,0,.576,4.306,23.633,23.633,0,0,0,2.186,1.112.911.911,0,0,0,.74-1.665,21.8,21.8,0,0,1-2.017-1.026.913.913,0,0,1-.2-1.439l2.293-2.293a14.62,14.62,0,0,0,23.47-11.645v-.457a.911.911,0,1,0-1.822,0v.457a12.806,12.806,0,0,1-25.613,0V80.407a1.833,1.833,0,1,1,3.666,0v5.468A2.735,2.735,0,0,0,77.5,88.6c2.577.188,3.883,1.432,3.883,3.7a.911.911,0,0,0,1.822,0c0-3.246-2.031-5.255-5.572-5.514a.906.906,0,0,1-.829-.907V71.263a1.832,1.832,0,1,1,3.664,0V81.322a.911.911,0,0,0,1.822,0V69.434a1.833,1.833,0,0,1,3.666,0V81.322a.911.911,0,1,0,1.822,0V72.178a1.833,1.833,0,0,1,3.665,0V82.237a.911.911,0,1,0,1.822,0v-6.4a1.832,1.832,0,1,1,3.664,0v7.18a.911.911,0,1,0,1.822,0V75.9l2.968-2.968a.914.914,0,0,1,1.44.2A21.958,21.958,0,0,1,79.08,105.434a.911.911,0,1,0-.419,1.773,23.78,23.78,0,0,0,26.081-34.988,2.735,2.735,0,0,0-4.306-.576L98.19,73.888a3.65,3.65,0,0,0-4.921-1.213,4.718,4.718,0,0,0-.14-1.5l3.421-3.421a2.735,2.735,0,0,0-.576-4.306Zm-.713,3.018-3.1,3.1a3.647,3.647,0,0,0-4.406-.535,3.655,3.655,0,0,0-7.083-.8,3.653,3.653,0,0,0-5.69,3.033v5.983A3.659,3.659,0,0,0,69.5,80.408v7.316a14.591,14.591,0,0,0,.546,3.962L66.53,95.2a.914.914,0,0,1-1.439-.2A21.956,21.956,0,0,1,95.065,65.03a.913.913,0,0,1,.2,1.439Z" transform="translate(-53.023 -52.977)"/>
      </g>
    </g>
  </g>
</svg>
