<svg xmlns="http://www.w3.org/2000/svg" xmlns:xlink="http://www.w3.org/1999/xlink" width="190" height="233" viewBox="0 0 190 233">
  <defs>
    <clipPath id="clip-path">
      <rect id="Rectángulo_423060" data-name="Rectángulo 423060" width="190" height="233" transform="translate(180 6944)" fill="#fff" stroke="#707070" stroke-width="1"/>
    </clipPath>
  </defs>
  <g id="Enmascarar_grupo_1225075" data-name="Enmascarar grupo 1225075" transform="translate(-180 -6944)" clip-path="url(#clip-path)">
    <g id="Grupo_1231451" data-name="Grupo 1231451" transform="translate(-157.792 6872.371)">
      <path id="Trazado_1193455" data-name="Trazado 1193455" d="M477.154,236.228l-.155.107a7.485,7.485,0,0,1-10.39-1.863l-49.764-71.519a7.485,7.485,0,0,1,1.863-10.39l.155-.107a7.485,7.485,0,0,1,10.39,1.863l49.765,71.519A7.487,7.487,0,0,1,477.154,236.228Z" transform="translate(24.901 19.19)" fill="#fbdb71"/>
      <g id="Grupo_1231446" data-name="Grupo 1231446" transform="translate(375.249 246.843)">
        <path id="Trazado_1193456" data-name="Trazado 1193456" d="M447.177,214.42H375.828a5.231,5.231,0,0,1-5.216-5.216v-.132a5.231,5.231,0,0,1,5.216-5.216h71.349a5.231,5.231,0,0,1,5.216,5.216v.132A5.231,5.231,0,0,1,447.177,214.42Z" transform="translate(-370.612 -203.856)" fill="#fbbc42"/>
      </g>
      <g id="Grupo_1231448" data-name="Grupo 1231448" transform="translate(387.243 236.434)">
        <g id="Grupo_1231447" data-name="Grupo 1231447">
          <path id="Trazado_1193457" data-name="Trazado 1193457" d="M431,207.248H384.092a5.231,5.231,0,0,1-5.216-5.216V201.9a5.231,5.231,0,0,1,5.216-5.216H431a5.231,5.231,0,0,1,5.216,5.216v.132A5.233,5.233,0,0,1,431,207.248Z" transform="translate(-378.876 -196.684)" fill="#fbdb71"/>
        </g>
      </g>
      <g id="Grupo_1231450" data-name="Grupo 1231450" transform="translate(360.336 257.065)">
        <g id="Grupo_1231449" data-name="Grupo 1231449">
          <path id="Trazado_1193458" data-name="Trazado 1193458" d="M466.73,221.464H365.552a5.231,5.231,0,0,1-5.216-5.216v-.132a5.231,5.231,0,0,1,5.216-5.216H466.73a5.231,5.231,0,0,1,5.216,5.216v.132A5.231,5.231,0,0,1,466.73,221.464Z" transform="translate(-360.336 -210.9)" fill="#dd9544"/>
        </g>
      </g>
      <path id="Trazado_1193459" data-name="Trazado 1193459" d="M454.677,158.564,419.26,183.206a17.467,17.467,0,0,1-24.242-4.348l-1.247-1.792a17.467,17.467,0,0,1,4.348-24.242l35.417-24.643a17.467,17.467,0,0,1,24.242,4.348l1.247,1.792A17.465,17.465,0,0,1,454.677,158.564Z" transform="translate(13.688 7.435)" fill="#97573e"/>
      <path id="Trazado_1193460" data-name="Trazado 1193460" d="M411.433,189.346l-.126.089a6.109,6.109,0,0,1-8.48-1.521L381.316,157a6.109,6.109,0,0,1,1.521-8.48l.126-.089a6.109,6.109,0,0,1,8.48,1.521l21.511,30.915A6.11,6.11,0,0,1,411.433,189.346Z" transform="translate(8.978 17.484)" fill="#fbdb71"/>
      <path id="Trazado_1193461" data-name="Trazado 1193461" d="M408.614,200.179l-.126.089a6.109,6.109,0,0,1-8.48-1.521l-27.857-40.035a6.109,6.109,0,0,1,1.521-8.48l.126-.089a6.109,6.109,0,0,1,8.48,1.521L410.135,191.7A6.11,6.11,0,0,1,408.614,200.179Z" transform="translate(4.842 18.257)" fill="#dd9544"/>
      <path id="Trazado_1193462" data-name="Trazado 1193462" d="M455.49,158.69l.126-.089a6.109,6.109,0,0,0,1.521-8.48l-21.511-30.915a6.109,6.109,0,0,0-8.48-1.521l-.126.089a6.109,6.109,0,0,0-1.521,8.48l21.511,30.915A6.11,6.11,0,0,0,455.49,158.69Z" transform="translate(28.917 3.609)" fill="#fbdb71"/>
      <path id="Trazado_1193463" data-name="Trazado 1193463" d="M466.629,159.812l.126-.089a6.109,6.109,0,0,0,1.521-8.48l-27.857-40.035a6.109,6.109,0,0,0-8.48-1.521l-.126.089a6.109,6.109,0,0,0-1.521,8.48l27.857,40.035A6.109,6.109,0,0,0,466.629,159.812Z" transform="translate(31.08 0)" fill="#dd9544"/>
      <rect id="Rectángulo_423056" data-name="Rectángulo 423056" width="4.606" height="37.015" transform="matrix(0.821, -0.571, 0.571, 0.821, 408.283, 162.667)" fill="#dd9544"/>
      <rect id="Rectángulo_423057" data-name="Rectángulo 423057" width="4.606" height="37.015" transform="matrix(0.821, -0.571, 0.571, 0.821, 443.587, 137.75)" fill="#dd9544"/>
      <path id="Trazado_1193464" data-name="Trazado 1193464" d="M433.122,164.861,425.88,169.9a5.366,5.366,0,0,1-7.448-1.337l-.077-.112A5.366,5.366,0,0,1,419.692,161l7.242-5.039a5.366,5.366,0,0,1,7.448,1.337l.077.112A5.367,5.367,0,0,1,433.122,164.861Z" transform="translate(25.753 20.944)" fill="#fbbc42"/>
      <path id="Trazado_1193465" data-name="Trazado 1193465" d="M421.426,169.244l4.438,6.259,12.392-8.657-4.31-6.315Z" transform="translate(27.569 23.435)" fill="#dd9544"/>
    </g>
  </g>
</svg>
