<svg xmlns="http://www.w3.org/2000/svg" xmlns:xlink="http://www.w3.org/1999/xlink" width="103" height="103" viewBox="0 0 103 103">
  <defs>
    <filter id="Trazado_978624" x="0" y="0" width="103" height="103" filterUnits="userSpaceOnUse">
      <feOffset dy="3" input="SourceAlpha"/>
      <feGaussianBlur stdDeviation="3" result="blur"/>
      <feFlood flood-opacity="0.161"/>
      <feComposite operator="in" in2="blur"/>
      <feComposite in="SourceGraphic"/>
    </filter>
  </defs>
  <g id="Grupo_1231497" data-name="Grupo 1231497" transform="translate(-623 -8629)">
    <g id="Grupo_1230211" data-name="Grupo 1230211" transform="translate(632 8635)">
      <g id="Grupo_1229456" data-name="Grupo 1229456" transform="translate(0)">
        <g id="Grupo_1226902" data-name="Grupo 1226902">
          <g id="Grupo_1226078" data-name="Grupo 1226078">
            <g id="Grupo_1224953" data-name="Grupo 1224953">
              <g id="Grupo_1222589" data-name="Grupo 1222589">
                <g id="Grupo_1203109" data-name="Grupo 1203109">
                  <g id="Grupo_1176881" data-name="Grupo 1176881">
                    <g id="Grupo_1175148" data-name="Grupo 1175148">
                      <g id="Grupo_1173798" data-name="Grupo 1173798">
                        <g id="Grupo_1171925" data-name="Grupo 1171925">
                          <g id="Grupo_1164524" data-name="Grupo 1164524">
                            <g id="Grupo_1144123" data-name="Grupo 1144123">
                              <g transform="matrix(1, 0, 0, 1, -9, -6)" filter="url(#Trazado_978624)">
                                <g id="Trazado_978624-2" data-name="Trazado 978624" transform="translate(9 6)" fill="#f7f5f3">
                                  <path d="M 42.5 83.50002288818359 C 36.96437835693359 83.50002288818359 31.59512901306152 82.41619873046875 26.54141235351562 80.27865600585938 C 21.65934181213379 78.21371459960938 17.27447128295898 75.25724792480469 13.50862312316895 71.49140167236328 C 9.742764472961426 67.72554016113281 6.786305904388428 63.34068298339844 4.721364498138428 58.45859909057617 C 2.583823442459106 53.40488052368164 1.5 48.0356330871582 1.5 42.5000114440918 C 1.5 36.96438980102539 2.583823442459106 31.59514045715332 4.721364498138428 26.54142379760742 C 6.786305904388428 21.65933990478516 9.742764472961426 17.27448272705078 13.50862312316895 13.50862312316895 C 17.27447128295898 9.742775917053223 21.65934181213379 6.78630542755127 26.54141235351562 4.721364498138428 C 31.59512901306152 2.583823204040527 36.96437835693359 1.499999642372131 42.5 1.499999642372131 C 48.03562164306641 1.499999642372131 53.40486907958984 2.583823204040527 58.45858764648438 4.721364498138428 C 63.34066009521484 6.78630542755127 67.72553253173828 9.742775917053223 71.49137878417969 13.50862312316895 C 75.25723266601562 17.27448272705078 78.21369171142578 21.65933990478516 80.27863311767578 26.54142379760742 C 82.41617584228516 31.59514045715332 83.5 36.96438980102539 83.5 42.5000114440918 C 83.5 48.0356330871582 82.41617584228516 53.40488052368164 80.27863311767578 58.45859909057617 C 78.21369171142578 63.34068298339844 75.25723266601562 67.72554016113281 71.49137878417969 71.49140167236328 C 67.72553253173828 75.25724792480469 63.34066009521484 78.21371459960938 58.45858764648438 80.27865600585938 C 53.40486907958984 82.41619873046875 48.03562164306641 83.50002288818359 42.5 83.50002288818359 Z" stroke="none"/>
                                  <path d="M 42.5 3 C 37.16621398925781 3 31.99356079101562 4.043960571289062 27.125732421875 6.102874755859375 C 22.42246627807617 8.092185974121094 18.19786834716797 10.94070434570312 14.56928253173828 14.56927490234375 C 10.94070434570312 18.19786834716797 8.092185974121094 22.42246627807617 6.102882385253906 27.1257438659668 C 4.043960571289062 31.99357223510742 3 37.16622543334961 3 42.5000114440918 C 3 47.83379745483398 4.043960571289062 53.00645065307617 6.102882385253906 57.8742790222168 C 8.092185974121094 62.57756042480469 10.94070434570312 66.80215454101562 14.56928253173828 70.43074798583984 C 18.19786834716797 74.05931854248047 22.42246627807617 76.9078369140625 27.125732421875 78.89714813232422 C 31.99356079101562 80.95606231689453 37.16621398925781 82.00002288818359 42.5 82.00002288818359 C 47.83378601074219 82.00002288818359 53.00642395019531 80.95606231689453 57.87425231933594 78.89714813232422 C 62.57753372192383 76.90782165527344 66.80213165283203 74.05931854248047 70.43071746826172 70.43073272705078 C 74.05929565429688 66.80215454101562 76.90781402587891 62.57756042480469 78.89711761474609 57.8742790222168 C 80.95603942871094 53.00645065307617 82 47.83379745483398 82 42.5000114440918 C 82 37.16622543334961 80.95603942871094 31.99357223510742 78.89711761474609 27.1257438659668 C 76.90781402587891 22.42246627807617 74.05929565429688 18.19786834716797 70.43071746826172 14.56929016113281 C 66.80213165283203 10.94070434570312 62.57753372192383 8.092201232910156 57.87425231933594 6.102874755859375 C 53.00642395019531 4.043960571289062 47.83378601074219 3 42.5 3 M 42.5 0 C 65.97209167480469 0 85 19.02790832519531 85 42.5000114440918 C 85 65.97212219238281 65.97209167480469 85.00002288818359 42.5 85.00002288818359 C 19.02789306640625 85.00002288818359 0 65.97212219238281 0 42.5000114440918 C 0 19.02790832519531 19.02789306640625 0 42.5 0 Z" stroke="none" fill="#665b4e"/>
                                </g>
                              </g>
                            </g>
                          </g>
                        </g>
                      </g>
                    </g>
                  </g>
                </g>
              </g>
            </g>
          </g>
        </g>
      </g>
    </g>
    <g id="abogado_7_" data-name="abogado (7)" transform="translate(642.985 8647.046)">
      <g id="Grupo_1231495" data-name="Grupo 1231495" transform="translate(7.534 0.832)">
        <path id="Trazado_1193608" data-name="Trazado 1193608" d="M141.858,11.046h-3.542l-4.992,4.823-2.089,4.049V43.992h16.144l.389-3.153,3.639-5.888v-11.6a12.7,12.7,0,0,0-9.549-12.3Z" transform="translate(-118.251 -10.653)" fill="#e79380"/>
        <path id="Trazado_1193609" data-name="Trazado 1193609" d="M90.473,20.355a12.862,12.862,0,0,1,9.573-12.46A12.7,12.7,0,0,0,84.2,20.355V40.2l.41.639h6.268l-.41-.639Z" transform="translate(-76.439 -7.501)" fill="#df7e66"/>
        <path id="Trazado_1193610" data-name="Trazado 1193610" d="M57.2,308.4c.085-.287-2.726-14.68-2.726-14.68l.086-4.688L49.6,290.95l-2.43,2.386-.574,2.154v16.252l.482.915.235.275H57.2l.409-.441v-4.02C57.336,308.453,57.187,308.428,57.2,308.4Z" transform="translate(-43.004 -257.797)" fill="#7b6c79"/>
        <path id="Trazado_1193611" data-name="Trazado 1193611" d="M18.122,325.289V310.505a7.624,7.624,0,0,1,3.268-6.223l-2.857,1.108a7.416,7.416,0,0,0-4.331,6.718v12.943a1.443,1.443,0,0,0,1.443,1.443h3.1A1.473,1.473,0,0,1,18.122,325.289Z" transform="translate(-14.202 -271.358)" fill="#665e68"/>
        <path id="Trazado_1193612" data-name="Trazado 1193612" d="M262.041,317.481a1.035,1.035,0,0,1-1.035-1.035v-1.756a1.035,1.035,0,0,1,1.035-1.035h1a3.194,3.194,0,0,1,1.62-3.369,6.863,6.863,0,0,0-2.841-2.276l-1.022-.4a2.419,2.419,0,0,1-.942.19h-3.932a2.417,2.417,0,0,1-1.567-.574v.088l1.571,3.439-3.97,13.821-.4.009v3.782l.4.746h12.749a1.443,1.443,0,0,0,1.443-1.443V317.481Z" transform="translate(-225.234 -273.979)" fill="#7b6c79"/>
        <path id="Trazado_1193613" data-name="Trazado 1193613" d="M199.634,320.69h-4.567v20.392h6.664V323.114Z" transform="translate(-175.002 -285.945)" fill="#b5dcff"/>
        <path id="Trazado_1193614" data-name="Trazado 1193614" d="M148.4,320.69h-4.333l-1.934,2.424v17.968H148.4Z" transform="translate(-127.942 -285.945)" fill="#8bcaff"/>
        <path id="Trazado_1193615" data-name="Trazado 1193615" d="M201.32,245.32l-.917-.355a.8.8,0,0,1-.512-.745l0-2.683-.543-.346h-4.278v9.614h1.9l.911-.37,3.7-4.265Z" transform="translate(-175.002 -215.266)" fill="#ffcebe"/>
        <path id="Trazado_1193616" data-name="Trazado 1193616" d="M151.679,241.19H147.8l-.55.362v2.662c0,.613-.547.76-.78.851l-.647.251.12,1.459L149.4,250.6l.778.2h1.5V241.19Z" transform="translate(-131.219 -215.265)" fill="#ffb1a0"/>
        <path id="Trazado_1193617" data-name="Trazado 1193617" d="M103.681,279.8l-2.64,1.023L99.32,284.4a4.407,4.407,0,0,0-.168,3.429l4.53,12.367V279.8Z" transform="translate(-89.488 -249.595)" fill="#938493"/>
        <path id="Trazado_1193618" data-name="Trazado 1193618" d="M259.5,284.43l-.472-.98-2.35-3.015-1.539-.6v20.387l4.53-12.367A4.406,4.406,0,0,0,259.5,284.43Z" transform="translate(-228.405 -249.626)" fill="#938493"/>
        <path id="Trazado_1193619" data-name="Trazado 1193619" d="M97.375,136.509v.538l1.353,1.294h2.4v-2.705l-.4-.5h0a3.842,3.842,0,0,0-2.976.872h0A3.049,3.049,0,0,0,97.375,136.509Z" transform="translate(-88.148 -120.941)" fill="#ffcebe"/>
        <path id="Trazado_1193620" data-name="Trazado 1193620" d="M268.356,138.312l1-.732.167-1.1a3.063,3.063,0,0,0-.38-.506,3.643,3.643,0,0,0-2.975-.871h0v.005l-.431.555v2.65h2.621Z" transform="translate(-237.83 -120.911)" fill="#ffcebe"/>
        <path id="Trazado_1193621" data-name="Trazado 1193621" d="M94.063,147.836a2.866,2.866,0,0,0-.413,1.48,3.176,3.176,0,0,0,3.777,2.987l.393-.287v-2.96l-.393.287A3.3,3.3,0,0,1,94.063,147.836Z" transform="translate(-84.836 -132.267)" fill="#ffb1a0"/>
        <path id="Trazado_1193622" data-name="Trazado 1193622" d="M266.158,149.342l-.424-.317v2.96l.424.317a3.177,3.177,0,0,0,3.779-2.987,2.866,2.866,0,0,0-.413-1.48A3.3,3.3,0,0,1,266.158,149.342Z" transform="translate(-237.829 -132.267)" fill="#ffb1a0"/>
        <path id="Trazado_1193623" data-name="Trazado 1193623" d="M357.785,331.285a3.195,3.195,0,0,0-3.147,3.756l.419.25h5.325l.549-.25a3.194,3.194,0,0,0-3.147-3.756Z" transform="translate(-316.826 -295.365)" fill="#eab900"/>
        <path id="Trazado_1193624" data-name="Trazado 1193624" d="M378.44,365.146H373.97l-.292.088-.425.361-.1.268v2.37l.277.5.561.243h4.45a1.035,1.035,0,0,0,1.035-1.035v-1.756A1.035,1.035,0,0,0,378.44,365.146Z" transform="translate(-333.33 -325.469)" fill="#ffe02f"/>
        <path id="Trazado_1193625" data-name="Trazado 1193625" d="M340.828,367.936v-1.756a1.035,1.035,0,0,1,1.035-1.035h-4.174a1.035,1.035,0,0,0-1.035,1.035v1.756a1.035,1.035,0,0,0,1.035,1.035h4.174A1.035,1.035,0,0,1,340.828,367.936Z" transform="translate(-300.882 -325.469)" fill="#fbc700"/>
        <path id="Trazado_1193626" data-name="Trazado 1193626" d="M461.022,279.6h-3.977c-.113.1-.227.2-.227.2v1.932l.55.851.661.435.755.218h.153a2.427,2.427,0,0,0,2.427-2.427v-.871A.342.342,0,0,0,461.022,279.6Z" transform="translate(-407.715 -249.412)" fill="#ffe02f"/>
        <path id="Trazado_1193627" data-name="Trazado 1193627" d="M422.934,280.812v-.871a.342.342,0,0,1,.342-.342h-4.334a.342.342,0,0,0-.342.342v.871a2.427,2.427,0,0,0,2.427,2.427h3.932c.068,0,.135,0,.2-.009A2.427,2.427,0,0,1,422.934,280.812Z" transform="translate(-373.737 -249.413)" fill="#fbc700"/>
        <g id="Grupo_1231494" data-name="Grupo 1231494" transform="translate(28.268 30.186)">
          <path id="Trazado_1193628" data-name="Trazado 1193628" d="M311.428,279.6h-3.977c-.113.1-.227.2-.227.2v1.932l.55.851.661.435.755.218h.153a2.427,2.427,0,0,0,2.427-2.427v-.871A.342.342,0,0,0,311.428,279.6Z" transform="translate(-302.984 -279.598)" fill="#ffe02f"/>
          <path id="Trazado_1193629" data-name="Trazado 1193629" d="M273.341,280.812v-.871a.342.342,0,0,1,.342-.342h-4.334a.342.342,0,0,0-.342.342v.871a2.427,2.427,0,0,0,2.427,2.427h3.932c.068,0,.135,0,.2-.009a2.427,2.427,0,0,1-2.226-2.418Z" transform="translate(-269.007 -279.599)" fill="#fbc700"/>
        </g>
        <path id="Trazado_1193630" data-name="Trazado 1193630" d="M383.7,188.823h-.314l-.915,1.243-.277.937a8.014,8.014,0,0,0,.134,1.282,5.4,5.4,0,0,1,.448.582l.925.315a2.575,2.575,0,0,0,0-4.359Z" transform="translate(-341.369 -168.707)" fill="#ffe02f"/>
        <path id="Trazado_1193631" data-name="Trazado 1193631" d="M362.927,187.823a2.574,2.574,0,0,1,1.2-2.179,2.576,2.576,0,1,0,0,4.359A2.574,2.574,0,0,1,362.927,187.823Z" transform="translate(-321.799 -165.528)" fill="#fbc700"/>
        <path id="Trazado_1193632" data-name="Trazado 1193632" d="M142.134,285.493a5.739,5.739,0,0,0,4.481-1.062.907.907,0,0,0-.055-1.376,15.792,15.792,0,0,1-4.017-4.68l-.409.159v6.959Z" transform="translate(-127.941 -248.325)" fill="#dbedff"/>
        <path id="Trazado_1193633" data-name="Trazado 1193633" d="M216.9,278.564l-.411-.159a15.792,15.792,0,0,1-4.015,4.676.907.907,0,0,0-.055,1.376,5.739,5.739,0,0,0,4.481,1.062v-6.955Z" transform="translate(-190.17 -248.351)" fill="#dbedff"/>
        <path id="Trazado_1193634" data-name="Trazado 1193634" d="M177.031,105.9c-.247,0-.265-.006-1.633-.122a4.571,4.571,0,0,1-3.976-3.459.132.132,0,0,0-.258,0,4.619,4.619,0,0,1-2.8,3.188l-.482.607v7.359l1.481,3.106,1.479,1.627,2.573.84a7.884,7.884,0,0,0,5.753-7.566V105.9Z" transform="translate(-150.833 -91.712)" fill="#ffdecf"/>
        <path id="Trazado_1193635" data-name="Trazado 1193635" d="M132.6,137.933v-6.05a4.28,4.28,0,0,1-1.218.278c.111-.009-1.4.115-1.668.115h-2.059v5.658a7.769,7.769,0,0,0,7.956,7.762,7.592,7.592,0,0,0,2.407-.384,7.712,7.712,0,0,1-5.418-7.379Z" transform="translate(-115.066 -118.084)" fill="#ffcebe"/>
      </g>
      <g id="Grupo_1231496" data-name="Grupo 1231496" transform="translate(6.702)">
        <path id="Trazado_1193636" data-name="Trazado 1193636" d="M191.958,352.021a.832.832,0,0,0-.832.832v12.055a.832.832,0,0,0,1.664,0V352.853A.832.832,0,0,0,191.958,352.021Z" transform="translate(-170.666 -312.968)"/>
        <path id="Trazado_1193637" data-name="Trazado 1193637" d="M60.841,30.186h-.017l-2.336-4.143a.832.832,0,0,0-.5-1.555,11.07,11.07,0,0,1-1.429.093,11.688,11.688,0,0,1-4.684-1,3.408,3.408,0,1,0-6.755,0,11.919,11.919,0,0,1-3.593.95v-11A13.518,13.518,0,0,0,28,0h-.1A13.643,13.643,0,0,0,14.468,13.686V32.963l-2.9,1.126-.016.006A8.2,8.2,0,0,0,6.7,41.582V54.525A2.278,2.278,0,0,0,8.977,56.8H26.053a.832.832,0,1,0,0-1.664H22.559V38.924c2,.052,3.965-.88,4.5-1.721h1.873c.518.817,2.464,1.775,4.5,1.721V55.136H29.936a.832.832,0,0,0,0,1.664H47.012a2.278,2.278,0,0,0,2.275-2.275V51.432a.832.832,0,0,0-1.664,0v3.093a.612.612,0,0,1-.611.611h-4.2V46.652a.832.832,0,0,0-1.664,0v8.484H35.095V51.58l4.479-12.229a5.269,5.269,0,0,0-.1-3.861h2.69a3.368,3.368,0,0,0,.929-.134,6.223,6.223,0,0,1,2.665,1.637,4.032,4.032,0,0,0-1.282,2.684,1.875,1.875,0,0,0-2,1.867V43.3a1.869,1.869,0,0,0,1.867,1.867h3.282v2.383a.832.832,0,1,0,1.664,0V45.166h3.357A1.869,1.869,0,0,0,54.511,43.3V41.543a1.869,1.869,0,0,0-1.867-1.867h-.133a4.036,4.036,0,0,0-3.186-3.67V26.432a3.418,3.418,0,0,0,1.929-1.31,13.612,13.612,0,0,0,3.778,1.031l-2.274,4.033h-.017a1.175,1.175,0,0,0-1.174,1.174v.871a3.263,3.263,0,0,0,3.259,3.259h3.932a3.263,3.263,0,0,0,3.259-3.259V31.36a1.175,1.175,0,0,0-1.174-1.174Zm-18.523,0H38.071l2.124-3.765Zm-26.186-16.5A11.974,11.974,0,0,1,27.906,1.664H28A11.856,11.856,0,0,1,39.858,13.527v2.311a4.221,4.221,0,0,0-4.04-1.646,23.991,23.991,0,0,1-3.648-.119,3.721,3.721,0,0,1-3.237-2.825.964.964,0,0,0-1.875,0,3.721,3.721,0,0,1-3.3,2.835,32.724,32.724,0,0,1-3.681.1,4.312,4.312,0,0,0-3.948,1.655Zm22.677,4.2A2.28,2.28,0,0,1,36.7,20.063V15.829A2.112,2.112,0,0,1,38.81,17.881ZM27.719,27.6a6.966,6.966,0,0,1-6.767-6.92V15.856c2.774,0,5.362.044,7.044-2.618a5.39,5.39,0,0,0,3.724,2.457,22.383,22.383,0,0,0,3.317.161V20.6a7.008,7.008,0,0,1-7.318,7ZM19.288,15.836v4.227C16.608,19.728,16.343,16.178,19.288,15.836Zm1.607,39.3H14.84V42.615a.832.832,0,1,0-1.664,0V55.136h-4.2a.612.612,0,0,1-.611-.611V41.582a6.6,6.6,0,0,1,3.808-5.945L17.422,33.6l-.806,1.672a5.267,5.267,0,0,0-.2,4.077L20.894,51.58v3.557Zm0-8.4-2.916-7.962A3.594,3.594,0,0,1,18.115,36l1.579-3.275,1.2-.465ZM16.132,32.318V19.924a4.1,4.1,0,0,0,3.222,1.814,8.511,8.511,0,0,0,3.375,5.814v2.205C22.691,29.777,16.173,32.3,16.132,32.318Zm9.51,4.011a4.919,4.919,0,0,1-3.083.932v-4.2a17.185,17.185,0,0,0,3.068,3.148.077.077,0,0,1,.015.122Zm3.677-1.418a1.82,1.82,0,0,0-.5.629H27.168a1.8,1.8,0,0,0-.5-.629A15.251,15.251,0,0,1,23.357,31.3a1.6,1.6,0,0,0,1.037-1.516V28.516a8.921,8.921,0,0,0,7.2.006v1.266A1.626,1.626,0,0,0,32.628,31.3a15.318,15.318,0,0,1-3.309,3.606Zm4.111,2.351a4.925,4.925,0,0,1-3.083-.932.077.077,0,0,1,.006-.115,17.2,17.2,0,0,0,3.077-3.155Zm-.176-7.5,0-2.234a8.712,8.712,0,0,0,3.373-5.79,4.1,4.1,0,0,0,3.232-1.815v4.642c-.287-.015-.574-.04-.858-.077a.832.832,0,0,0-.5,1.556l-2.336,4.142a1.176,1.176,0,0,0-.868.366l-2.038-.79Zm4.756,9.016-2.916,7.962V33.135a3.244,3.244,0,0,0,2.506,2.3l.274.567A3.593,3.593,0,0,1,38.011,38.779Zm5.745-6.548a1.6,1.6,0,0,1-1.595,1.595H38.229a1.6,1.6,0,0,1-1.595-1.595V31.85h7.122Zm.98,1.994a3.242,3.242,0,0,0,.684-1.994V31.36a1.175,1.175,0,0,0-1.174-1.174h-.017l-2.275-4.033a13.618,13.618,0,0,0,3.778-1.031,3.418,3.418,0,0,0,1.929,1.31v9.575a3.991,3.991,0,0,0-.443.121,7.565,7.565,0,0,0-2.482-1.9Zm7.908,7.115a.2.2,0,0,1,.2.2V43.3a.2.2,0,0,1-.2.2h-8.3a.2.2,0,0,1-.2-.2V41.543a.2.2,0,0,1,.2-.2Zm-1.8-1.664h-4.7a2.364,2.364,0,0,1,4.7,0ZM48.493,24.871a1.744,1.744,0,1,1,1.744-1.744A1.746,1.746,0,0,1,48.493,24.871Zm8.3,1.549,2.123,3.765H54.667Zm3.561,5.81a1.6,1.6,0,0,1-1.595,1.595H54.824a1.6,1.6,0,0,1-1.595-1.595V31.85h7.122Z" transform="translate(-6.702 0)"/>
      </g>
    </g>
  </g>
</svg>
