<svg xmlns="http://www.w3.org/2000/svg" xmlns:xlink="http://www.w3.org/1999/xlink" width="103" height="103" viewBox="0 0 103 103">
  <defs>
    <filter id="Trazado_978624" x="0" y="0" width="103" height="103" filterUnits="userSpaceOnUse">
      <feOffset dy="3" input="SourceAlpha"/>
      <feGaussianBlur stdDeviation="3" result="blur"/>
      <feFlood flood-opacity="0.161"/>
      <feComposite operator="in" in2="blur"/>
      <feComposite in="SourceGraphic"/>
    </filter>
  </defs>
  <g id="Grupo_1231365" data-name="Grupo 1231365" transform="translate(-171 -2350)">
    <g id="Grupo_1229694" data-name="Grupo 1229694" transform="translate(-37 -2869.468)">
      <g id="Grupo_1227108" data-name="Grupo 1227108" transform="translate(217 5225.468)">
        <g id="Grupo_1225980" data-name="Grupo 1225980">
          <g id="Grupo_1222970" data-name="Grupo 1222970">
            <g id="Grupo_1222589" data-name="Grupo 1222589">
              <g id="Grupo_1203109" data-name="Grupo 1203109">
                <g id="Grupo_1176881" data-name="Grupo 1176881">
                  <g id="Grupo_1175148" data-name="Grupo 1175148">
                    <g id="Grupo_1173798" data-name="Grupo 1173798">
                      <g id="Grupo_1171925" data-name="Grupo 1171925">
                        <g id="Grupo_1164524" data-name="Grupo 1164524">
                          <g id="Grupo_1144123" data-name="Grupo 1144123">
                            <g transform="matrix(1, 0, 0, 1, -9, -6)" filter="url(#Trazado_978624)">
                              <g id="Trazado_978624-2" data-name="Trazado 978624" transform="translate(9 6)" fill="#e7f2f8">
                                <path d="M 42.5 83.5 C 36.96437835693359 83.5 31.59512901306152 82.41617584228516 26.54141235351562 80.27863311767578 C 21.65934181213379 78.21369171142578 17.27447128295898 75.25723266601562 13.50862312316895 71.49137878417969 C 9.742764472961426 67.72553253173828 6.786305904388428 63.34066009521484 4.721364498138428 58.45858764648438 C 2.583823442459106 53.40486907958984 1.5 48.03562164306641 1.5 42.5 C 1.5 36.96437835693359 2.583823442459106 31.59512901306152 4.721364498138428 26.54141235351562 C 6.786305904388428 21.65934181213379 9.742764472961426 17.27447128295898 13.50862312316895 13.50862312316895 C 17.27447128295898 9.742764472961426 21.65934181213379 6.786305904388428 26.54141235351562 4.721364498138428 C 31.59512901306152 2.583823442459106 36.96437835693359 1.5 42.5 1.5 C 48.03562164306641 1.5 53.40486907958984 2.583823442459106 58.45858764648438 4.721364498138428 C 63.34066009521484 6.786305904388428 67.72553253173828 9.742764472961426 71.49137878417969 13.50862312316895 C 75.25723266601562 17.27447128295898 78.21369171142578 21.65934181213379 80.27863311767578 26.54141235351562 C 82.41617584228516 31.59512901306152 83.5 36.96437835693359 83.5 42.5 C 83.5 48.03562164306641 82.41617584228516 53.40486907958984 80.27863311767578 58.45858764648438 C 78.21369171142578 63.34066009521484 75.25723266601562 67.72553253173828 71.49137878417969 71.49137878417969 C 67.72553253173828 75.25723266601562 63.34066009521484 78.21369171142578 58.45858764648438 80.27863311767578 C 53.40486907958984 82.41617584228516 48.03562164306641 83.5 42.5 83.5 Z" stroke="none"/>
                                <path d="M 42.5 3 C 37.16621398925781 3 31.99356079101562 4.043960571289062 27.125732421875 6.102882385253906 C 22.42246627807617 8.092185974121094 18.19785308837891 10.94070434570312 14.56928253173828 14.56928253173828 C 10.94070434570312 18.19785308837891 8.092185974121094 22.42246627807617 6.102882385253906 27.125732421875 C 4.043960571289062 31.99356079101562 3 37.16621398925781 3 42.5 C 3 47.83378601074219 4.043960571289062 53.00643920898438 6.102882385253906 57.87425231933594 C 8.092185974121094 62.57753372192383 10.94070434570312 66.80213165283203 14.56928253173828 70.43071746826172 C 18.19786834716797 74.05929565429688 22.42246627807617 76.90781402587891 27.125732421875 78.89711761474609 C 31.99356079101562 80.95603942871094 37.16621398925781 82 42.5 82 C 47.83378601074219 82 53.00642395019531 80.95603942871094 57.87425231933594 78.89711761474609 C 62.57753372192383 76.90781402587891 66.80213165283203 74.05929565429688 70.43071746826172 70.43071746826172 C 74.05929565429688 66.80213165283203 76.90781402587891 62.57753372192383 78.89711761474609 57.87425231933594 C 80.95603942871094 53.00642395019531 82 47.83378601074219 82 42.5 C 82 37.16621398925781 80.95603942871094 31.99356079101562 78.89711761474609 27.125732421875 C 76.90781402587891 22.42246627807617 74.05929565429688 18.19786834716797 70.43071746826172 14.56928253173828 C 66.80213165283203 10.94070434570312 62.57753372192383 8.092185974121094 57.87425231933594 6.102882385253906 C 53.00643920898438 4.043960571289062 47.83378601074219 3 42.5 3 M 42.5 0 C 65.97209167480469 0 85 19.02789306640625 85 42.5 C 85 65.97209167480469 65.97209167480469 85 42.5 85 C 19.02789306640625 85 0 65.97209167480469 0 42.5 C 0 19.02789306640625 19.02789306640625 0 42.5 0 Z" stroke="none" fill="#248abf"/>
                              </g>
                            </g>
                          </g>
                        </g>
                      </g>
                    </g>
                  </g>
                </g>
              </g>
            </g>
          </g>
        </g>
      </g>
    </g>
    <g id="obediente_10_" data-name="obediente (10)" transform="translate(189.813 2371.342)">
      <g id="Grupo_1231355" data-name="Grupo 1231355" transform="translate(9.614 0.798)">
        <g id="Grupo_1231353" data-name="Grupo 1231353" transform="translate(0)">
          <g id="Grupo_1231350" data-name="Grupo 1231350" transform="translate(0 20.849)">
            <g id="Grupo_1231343" data-name="Grupo 1231343" transform="translate(0 0)">
              <path id="Trazado_1193295" data-name="Trazado 1193295" d="M39.2,203.919l1.917,3.32a.319.319,0,0,0,.276.16H54.529a.319.319,0,0,0,.276-.16l1.917-3.32a.319.319,0,0,0-.276-.479H39.48A.319.319,0,0,0,39.2,203.919Z" transform="translate(-39.16 -203.44)" fill="#fed402"/>
            </g>
            <g id="Grupo_1231349" data-name="Grupo 1231349">
              <g id="Grupo_1231344" data-name="Grupo 1231344" transform="translate(28.54 0)">
                <path id="Trazado_1193296" data-name="Trazado 1193296" d="M307.425,203.919l1.917,3.32a.319.319,0,0,0,.276.16h13.133a.319.319,0,0,0,.276-.16l1.917-3.32a.319.319,0,0,0-.276-.479H307.7A.319.319,0,0,0,307.425,203.919Z" transform="translate(-307.382 -203.44)" fill="#fed402"/>
              </g>
              <g id="Grupo_1231345" data-name="Grupo 1231345" transform="translate(0 0)">
                <path id="Trazado_1193297" data-name="Trazado 1193297" d="M39.2,203.919l1.917,3.32a.319.319,0,0,0,.276.16H54.529a.319.319,0,0,0,.276-.16l1.917-3.32a.319.319,0,0,0-.276-.479H39.48A.319.319,0,0,0,39.2,203.919Z" transform="translate(-39.16 -203.44)" fill="#ca6e59"/>
              </g>
              <g id="Grupo_1231346" data-name="Grupo 1231346" transform="translate(0)">
                <path id="Trazado_1193298" data-name="Trazado 1193298" d="M45.63,207.238l-1.917-3.32a.319.319,0,0,1,.276-.479H39.48a.319.319,0,0,0-.276.479l1.917,3.32a.319.319,0,0,0,.276.16h4.51A.319.319,0,0,1,45.63,207.238Z" transform="translate(-39.161 -203.439)" fill="#bb5d4c"/>
              </g>
              <g id="Grupo_1231347" data-name="Grupo 1231347" transform="translate(28.54 0)">
                <path id="Trazado_1193299" data-name="Trazado 1193299" d="M307.425,203.919l1.917,3.32a.319.319,0,0,0,.276.16h13.133a.319.319,0,0,0,.276-.16l1.917-3.32a.319.319,0,0,0-.276-.479H307.7A.319.319,0,0,0,307.425,203.919Z" transform="translate(-307.382 -203.44)" fill="#ca6e59"/>
              </g>
              <g id="Grupo_1231348" data-name="Grupo 1231348" transform="translate(28.54)">
                <path id="Trazado_1193300" data-name="Trazado 1193300" d="M314.409,207.238l-1.917-3.32a.319.319,0,0,1,.276-.479H307.7a.319.319,0,0,0-.276.479l1.917,3.32a.319.319,0,0,0,.276.16h5.067A.319.319,0,0,1,314.409,207.238Z" transform="translate(-307.383 -203.439)" fill="#bb5d4c"/>
              </g>
            </g>
          </g>
          <path id="Trazado_1193301" data-name="Trazado 1193301" d="M240.229,123.166v-19.51a.532.532,0,0,0-.532-.532h-3.2a.532.532,0,0,0-.532.532v19.511h4.263Z" transform="translate(-215.025 -92.948)" fill="#bb5d4c"/>
          <path id="Trazado_1193302" data-name="Trazado 1193302" d="M237.771,123.166v-19.51a.532.532,0,0,1,.532-.532H236.5a.532.532,0,0,0-.532.532v19.511h1.805Z" transform="translate(-215.025 -92.948)" fill="#a44f3e"/>
          <g id="Grupo_1231351" data-name="Grupo 1231351" transform="translate(20.094 0)">
            <circle id="Elipse_14903" data-name="Elipse 14903" cx="2.979" cy="2.979" r="2.979" fill="#883f2e"/>
          </g>
          <g id="Grupo_1231352" data-name="Grupo 1231352" transform="translate(20.094)">
            <path id="Trazado_1193303" data-name="Trazado 1193303" d="M230.666,10.479a2.978,2.978,0,0,1,1.649-2.665,2.979,2.979,0,1,0,0,5.33A2.978,2.978,0,0,1,230.666,10.479Z" transform="translate(-228.005 -7.5)" fill="#6d3326"/>
          </g>
        </g>
        <g id="Grupo_1231354" data-name="Grupo 1231354" transform="translate(4.101 30.217)">
          <path id="Trazado_1193304" data-name="Trazado 1193304" d="M219.2,296.057v-2.444a2.128,2.128,0,0,0-2.128-2.128h-5.691a2.128,2.128,0,0,0-2.128,2.128v2.444Z" transform="translate(-195.258 -291.485)" fill="#883f2e"/>
          <path id="Trazado_1193305" data-name="Trazado 1193305" d="M212.846,296.057v-2.444a2.128,2.128,0,0,1,2.128-2.128h-3.591a2.128,2.128,0,0,0-2.128,2.128v2.444Z" transform="translate(-195.257 -291.485)" fill="#6d3326"/>
          <path id="Trazado_1193306" data-name="Trazado 1193306" d="M189.224,339.3v-3.023a1.824,1.824,0,0,0-1.824-1.824H173a1.824,1.824,0,0,0-1.824,1.824V339.3Z" transform="translate(-161.226 -329.885)" fill="#bb5d4c"/>
          <path id="Trazado_1193307" data-name="Trazado 1193307" d="M175.66,339.3v-3.023a1.824,1.824,0,0,1,1.824-1.824H173a1.824,1.824,0,0,0-1.824,1.824V339.3Z" transform="translate(-161.227 -329.885)" fill="#a44f3e"/>
          <path id="Trazado_1193308" data-name="Trazado 1193308" d="M80.545,379.006a2.842,2.842,0,0,0-2.842,2.842v5.4a2.842,2.842,0,0,0,2.842,2.842H81.7v-7.532h5.812v7.532h32.543V379.006Z" transform="translate(-77.703 -369.693)" fill="#fff3de"/>
        </g>
      </g>
      <g id="Grupo_1231364" data-name="Grupo 1231364" transform="translate(6.894 40.328)">
        <g id="Grupo_1231359" data-name="Grupo 1231359" transform="translate(0)">
          <g id="Grupo_1231356" data-name="Grupo 1231356">
            <path id="Trazado_1193309" data-name="Trazado 1193309" d="M23.259,390.091a2.842,2.842,0,0,1-2.842-2.842v-5.4a2.842,2.842,0,0,1,2.842-2.842H19.138a5.542,5.542,0,1,0,0,11.085h4.121Z" transform="translate(-13.596 -379.006)" fill="#3675bb"/>
          </g>
          <g id="Grupo_1231357" data-name="Grupo 1231357">
            <path id="Trazado_1193310" data-name="Trazado 1193310" d="M16.288,384.548a5.542,5.542,0,0,1,5.542-5.542H19.138a5.542,5.542,0,1,0,0,11.085H21.83A5.542,5.542,0,0,1,16.288,384.548Z" transform="translate(-13.596 -379.006)" fill="#2b68b6"/>
          </g>
          <g id="Grupo_1231358" data-name="Grupo 1231358" transform="translate(6.821 0.004)">
            <path id="Trazado_1193311" data-name="Trazado 1193311" d="M81.7,387.007a2.839,2.839,0,0,1-1.3-2.388v-5.4c0-.06,0-.119.006-.178a2.842,2.842,0,0,0-2.7,2.839v5.4a2.842,2.842,0,0,0,2.842,2.842H81.7Z" transform="translate(-77.703 -379.041)" fill="#ffe5c2"/>
            <path id="Trazado_1193312" data-name="Trazado 1193312" d="M169.857,458.174H202.4v2.661H169.857Z" transform="translate(-160.051 -449.754)" fill="#ffe5c2"/>
          </g>
        </g>
        <g id="Grupo_1231363" data-name="Grupo 1231363" transform="translate(10.815 3.553)">
          <g id="Grupo_1231360" data-name="Grupo 1231360">
            <path id="Trazado_1193313" data-name="Trazado 1193313" d="M121.052,421.876V412.4H115.24v9.481a.319.319,0,0,0,.5.263l2.4-1.664,2.4,1.664A.319.319,0,0,0,121.052,421.876Z" transform="translate(-115.24 -412.395)" fill="#fb2b3a"/>
          </g>
          <g id="Grupo_1231362" data-name="Grupo 1231362" transform="translate(0)">
            <g id="Grupo_1231361" data-name="Grupo 1231361">
              <path id="Trazado_1193314" data-name="Trazado 1193314" d="M117.915,412.4H115.24v9.481a.319.319,0,0,0,.5.263l2.174-1.5Z" transform="translate(-115.24 -412.395)" fill="#e41f2d"/>
            </g>
          </g>
        </g>
      </g>
      <path id="Trazado_1193315" data-name="Trazado 1193315" d="M58.48,50.614H56.862V41.126H58.48a.8.8,0,1,0,0-1.6H42.511V37.412a2.625,2.625,0,0,0-2.622-2.622h-1.43V33.143a2.929,2.929,0,0,0-2.842-2.924V17.344a.8.8,0,0,0-1.6,0V30.217H31.353V11.771h2.667V13.62a.8.8,0,1,0,1.6,0V11.5a1.331,1.331,0,0,0-1.33-1.33h-.8V7.468a3.788,3.788,0,0,0,2.893-2.893h9.781V6.03l-7.8,14.826a1.115,1.115,0,0,0-.85,1.668l1.917,3.32a1.12,1.12,0,0,0,.968.559H47.9a.8.8,0,0,0,0-1.6H40.667L39.3,22.445H54.611l-1.364,2.362h-1.62a.8.8,0,0,0,0,1.6h1.9a1.12,1.12,0,0,0,.968-.559l1.917-3.32a1.115,1.115,0,0,0-.85-1.668L47.755,6.03V4.575h2.987a.8.8,0,0,0,0-1.6H36.378a3.776,3.776,0,0,0-7.382,0H14.632a.8.8,0,1,0,0,1.6h2.987V6.03l-7.8,14.826a1.115,1.115,0,0,0-.85,1.668h0l1.917,3.32a1.12,1.12,0,0,0,.968.559H24.983a1.12,1.12,0,0,0,.968-.559l1.917-3.32a1.115,1.115,0,0,0-.85-1.668L19.215,6.03V4.575H29a3.788,3.788,0,0,0,2.893,2.893v2.707h-.8a1.331,1.331,0,0,0-1.33,1.33V30.219a2.929,2.929,0,0,0-2.842,2.924V34.79h-1.43a2.625,2.625,0,0,0-2.622,2.622V39.53H12.436a6.34,6.34,0,1,0,0,12.681h4.475v1.151a1.117,1.117,0,0,0,1.753.919l1.951-1.35,1.951,1.35a1.117,1.117,0,0,0,1.753-.919V52.21H58.48a.8.8,0,1,0,0-1.6ZM46.159,20.849h-6l6-11.391Zm1.6-11.391,6,11.391h-6Zm-30.136,0V20.849h-6Zm7.088,15.35H12.127l-1.364-2.362H26.071Zm.5-3.958h-6V9.457Zm5.3-17.072a2.181,2.181,0,1,1,2.181,2.181A2.183,2.183,0,0,1,30.506,3.777Zm-2,29.367a1.332,1.332,0,0,1,1.33-1.33h5.691a1.332,1.332,0,0,1,1.33,1.33V34.79H28.511ZM12.436,50.614a4.744,4.744,0,1,1,0-9.488h1.111a3.619,3.619,0,0,0-.63,2.044v5.4a3.618,3.618,0,0,0,.63,2.044Zm10.286,1.833L21.069,51.3a.8.8,0,0,0-.908,0l-1.654,1.144V44.679h4.215Zm32.543-9.365H38.016a.8.8,0,0,0,0,1.6h17.25v2.383H38.016a.8.8,0,0,0,0,1.6h17.25v1.957H24.319V44.679h6.734a.8.8,0,1,0,0-1.6h-14.5a.8.8,0,1,0,0,1.6h.354v5.936h-.354a2.046,2.046,0,0,1-2.044-2.044v-5.4a2.046,2.046,0,0,1,2.044-2.044H29.388a.8.8,0,0,0,0-1.6h-4.93V37.412a1.027,1.027,0,0,1,1.026-1.026h14.4a1.027,1.027,0,0,1,1.026,1.026V39.53h-7.8a.8.8,0,0,0,0,1.6H55.266Z" transform="translate(0 0)"/>
    </g>
  </g>
</svg>
