<svg xmlns="http://www.w3.org/2000/svg" xmlns:xlink="http://www.w3.org/1999/xlink" width="108" height="108" viewBox="0 0 108 108">
  <defs>
    <filter id="Trazado_904820" x="0" y="0" width="108" height="108" filterUnits="userSpaceOnUse">
      <feOffset dy="3" input="SourceAlpha"/>
      <feGaussianBlur stdDeviation="3" result="blur"/>
      <feFlood flood-opacity="0.161"/>
      <feComposite operator="in" in2="blur"/>
      <feComposite in="SourceGraphic"/>
    </filter>
  </defs>
  <g id="Grupo_1230283" data-name="Grupo 1230283" transform="translate(-619.97 -324)">
    <g id="Grupo_1229250" data-name="Grupo 1229250" transform="translate(0 2)">
      <g id="Grupo_1223797" data-name="Grupo 1223797" transform="translate(0 -329)">
        <g id="Grupo_1223164" data-name="Grupo 1223164" transform="translate(-0.03 -230)">
          <g id="Grupo_1203639" data-name="Grupo 1203639" transform="translate(0 81)">
            <g id="Grupo_1202437" data-name="Grupo 1202437" transform="translate(0.523 386.813)">
              <g id="Grupo_1177315" data-name="Grupo 1177315" transform="translate(-0.523 -112.813)">
                <g id="Grupo_1173585" data-name="Grupo 1173585" transform="translate(629 532)">
                  <g id="Grupo_1173428" data-name="Grupo 1173428" transform="translate(0 0)">
                    <g id="Grupo_1171958" data-name="Grupo 1171958">
                      <g id="Grupo_1167341" data-name="Grupo 1167341">
                        <g id="Grupo_1166792" data-name="Grupo 1166792">
                          <g transform="matrix(1, 0, 0, 1, -9, -6)" filter="url(#Trazado_904820)">
                            <g id="Trazado_904820-2" data-name="Trazado 904820" transform="translate(9 6)" fill="#fcf5f0">
                              <path d="M 44.99999618530273 88.49999237060547 C 39.12687301635742 88.49999237060547 33.43022155761719 87.35006713867188 28.06829643249512 85.08216857910156 C 22.88852119445801 82.89130401611328 18.23629570007324 79.75457763671875 14.24084663391113 75.75914001464844 C 10.24540901184082 71.76369476318359 7.108683586120605 67.11146545410156 4.917821407318115 61.93169403076172 C 2.649921178817749 56.56976699829102 1.499996185302734 50.87311553955078 1.499996185302734 44.99999237060547 C 1.499996185302734 39.12686920166016 2.649921178817749 33.43021774291992 4.917821407318115 28.06829261779785 C 7.108683586120605 22.88851737976074 10.24540901184082 18.23630523681641 14.24084663391113 14.24085521697998 C 18.23629570007324 10.24540519714355 22.88852119445801 7.108692169189453 28.06829643249512 4.917829990386963 C 33.43022155761719 2.649929761886597 39.12687301635742 1.500004887580872 44.99999618530273 1.500004887580872 C 50.87311935424805 1.500004887580872 56.56977081298828 2.649929761886597 61.93169784545898 4.917829990386963 C 67.11147308349609 7.108692169189453 71.76369476318359 10.24540519714355 75.75914764404297 14.24085521697998 C 79.75458526611328 18.23630523681641 82.89131164550781 22.88851737976074 85.08216857910156 28.06829261779785 C 87.35007476806641 33.43021774291992 88.5 39.12686920166016 88.5 44.99999237060547 C 88.5 50.87311553955078 87.35007476806641 56.56976699829102 85.08216857910156 61.93169403076172 C 82.89131164550781 67.11146545410156 79.75458526611328 71.76369476318359 75.75914764404297 75.75914001464844 C 71.76369476318359 79.75457763671875 67.11147308349609 82.89130401611328 61.93169784545898 85.08216857910156 C 56.56977081298828 87.35006713867188 50.87311935424805 88.49999237060547 44.99999618530273 88.49999237060547 Z" stroke="none"/>
                              <path d="M 44.99999618530273 2.999992370605469 C 39.32870864868164 2.999992370605469 33.82865142822266 4.11004638671875 28.65262603759766 6.299331665039062 C 23.65165710449219 8.414566040039062 19.15968322753906 11.44333648681641 15.301513671875 15.30150604248047 C 11.44333648681641 19.15967559814453 8.414566040039062 23.65164947509766 6.299339294433594 28.65262222290039 C 4.110054016113281 33.82864761352539 2.999992370605469 39.32870483398438 2.999992370605469 44.99999237060547 C 2.999992370605469 50.67127990722656 4.110054016113281 56.17132186889648 6.299339294433594 61.34736633300781 C 8.414566040039062 66.34833526611328 11.44333648681641 70.84029388427734 15.301513671875 74.69846343994141 C 19.15968322753906 78.55663299560547 23.65165710449219 81.58540344238281 28.65262603759766 83.70063781738281 C 33.82865142822266 85.88992309570312 39.32870864868164 86.99997711181641 44.99999618530273 86.99997711181641 C 50.67128372192383 86.99997711181641 56.17134094238281 85.88992309570312 61.34736633300781 83.70063781738281 C 66.34834289550781 81.58540344238281 70.84030914306641 78.55663299560547 74.69847869873047 74.69846343994141 C 78.55665588378906 70.84029388427734 81.58542633056641 66.34833526611328 83.70065307617188 61.34736633300781 C 85.88993835449219 56.17132186889648 87 50.67127990722656 87 44.99999237060547 C 87 39.32870483398438 85.88993835449219 33.82864761352539 83.70065307617188 28.65262222290039 C 81.58542633056641 23.65164947509766 78.55665588378906 19.15967559814453 74.69847869873047 15.30150604248047 C 70.84030914306641 11.44333648681641 66.34834289550781 8.414566040039062 61.34736633300781 6.299331665039062 C 56.17134094238281 4.11004638671875 50.67128372192383 2.999992370605469 44.99999618530273 2.999992370605469 M 44.99999618530273 -7.62939453125e-06 C 69.85281372070312 -7.62939453125e-06 90 20.14717864990234 90 44.99999237060547 C 90 69.85279083251953 69.85281372070312 89.99997711181641 44.99999618530273 89.99997711181641 C 20.14717864990234 89.99997711181641 -7.62939453125e-06 69.85279083251953 -7.62939453125e-06 44.99999237060547 C -7.62939453125e-06 20.14717864990234 20.14717864990234 -7.62939453125e-06 44.99999618530273 -7.62939453125e-06 Z" stroke="none" fill="#665b4e"/>
                            </g>
                          </g>
                        </g>
                      </g>
                    </g>
                  </g>
                </g>
              </g>
            </g>
          </g>
        </g>
      </g>
    </g>
    <g id="economia_6_" data-name="economia (6)" transform="translate(641.985 343.016)">
      <g id="Grupo_1230281" data-name="Grupo 1230281" transform="translate(0.937 0.936)">
        <g id="Grupo_1230280" data-name="Grupo 1230280">
          <path id="Trazado_1192459" data-name="Trazado 1192459" d="M48.752,10.012,42.276,7.578a1.178,1.178,0,0,0-1.577,1.3l.272,1.639A29.762,29.762,0,0,0,21.366,33.9,1.839,1.839,0,1,0,25,34.474,26.071,26.071,0,0,1,41.581,14.2l.249,1.5a1.178,1.178,0,0,0,1.91.718l5.345-4.392a1.178,1.178,0,0,0-.334-2.013Z" transform="translate(-19.614 -7.501)" fill="#0ed2b3"/>
          <path id="Trazado_1192460" data-name="Trazado 1192460" d="M303.342,40.7l-1.639.272a29.762,29.762,0,0,0-23.389-19.6A1.839,1.839,0,0,0,277.742,25a26.072,26.072,0,0,1,20.275,16.583l-1.5.249a1.178,1.178,0,0,0-.718,1.91l4.392,5.345a1.178,1.178,0,0,0,2.013-.333l2.434-6.476A1.178,1.178,0,0,0,303.342,40.7Z" transform="translate(-242.618 -19.616)" fill="#0ed2b3"/>
          <path id="Trazado_1192461" data-name="Trazado 1192461" d="M291.791,276.212a1.839,1.839,0,0,0-2.1,1.53,26.071,26.071,0,0,1-16.583,20.275l-.249-1.5a1.178,1.178,0,0,0-1.91-.718l-5.345,4.392a1.178,1.178,0,0,0,.333,2.013l6.476,2.434a1.178,1.178,0,0,0,1.577-1.3l-.272-1.639a29.762,29.762,0,0,0,19.6-23.389A1.838,1.838,0,0,0,291.791,276.212Z" transform="translate(-232.977 -242.619)" fill="#0ed2b3"/>
          <path id="Trazado_1192462" data-name="Trazado 1192462" d="M34.473,289.69A26.071,26.071,0,0,1,14.2,273.107l1.5-.249a1.178,1.178,0,0,0,.718-1.91L12.024,265.6a1.178,1.178,0,0,0-2.013.333l-2.434,6.476a1.178,1.178,0,0,0,1.3,1.577l1.639-.272a29.762,29.762,0,0,0,23.389,19.6,1.839,1.839,0,1,0,.572-3.632Z" transform="translate(-7.5 -232.978)" fill="#0ed2b3"/>
        </g>
        <circle id="Elipse_14830" data-name="Elipse 14830" cx="18.195" cy="18.195" r="18.195" transform="translate(12.853 12.853)" fill="#fef48b"/>
        <path id="Trazado_1192463" data-name="Trazado 1192463" d="M130.17,146.691q-.791.069-1.6.07a18.2,18.2,0,1,1,0-36.391q.81,0,1.6.07a18.2,18.2,0,0,0,0,36.251Z" transform="translate(-97.52 -97.517)" fill="#fee45a"/>
        <circle id="Elipse_14831" data-name="Elipse 14831" cx="13.579" cy="13.579" r="13.579" transform="translate(17.469 17.469)" fill="#fee45a"/>
        <path id="Trazado_1192464" data-name="Trazado 1192464" d="M251.985,160.9a13.583,13.583,0,0,1-16.091,13.345,13.58,13.58,0,0,0,0-26.69A13.583,13.583,0,0,1,251.985,160.9Z" transform="translate(-207.358 -129.851)" fill="#ffd15b"/>
      </g>
      <g id="Grupo_1230282" data-name="Grupo 1230282" transform="translate(0 -0.002)">
        <path id="Trazado_1192465" data-name="Trazado 1192465" d="M16.193,30.365a2.8,2.8,0,0,0,.434.034,2.761,2.761,0,0,0,2.739-2.344A25.062,25.062,0,0,1,34.289,8.937l.058.352a2.115,2.115,0,0,0,3.43,1.288l5.345-4.392a2.115,2.115,0,0,0-.6-3.614L36.047.136a2.115,2.115,0,0,0-2.831,2.326l.144.869A30.7,30.7,0,0,0,13.883,27.191a2.775,2.775,0,0,0,2.31,3.174Zm-.459-2.882A28.824,28.824,0,0,1,34.719,4.834.937.937,0,0,0,35.337,3.8l-.272-1.639a.23.23,0,0,1,.085-.226.235.235,0,0,1,.149-.056.25.25,0,0,1,.089.017l6.476,2.434a.241.241,0,0,1,.068.412L36.587,9.129a.241.241,0,0,1-.391-.147l-.249-1.5A.937.937,0,0,0,34.7,6.757a26.939,26.939,0,0,0-17.18,21.006.9.9,0,0,1-1.031.75.9.9,0,0,1-.75-1.031Z" transform="translate(-12.118 0.002)"/>
        <path id="Trazado_1192466" data-name="Trazado 1192466" d="M298.606,33.963a2.091,2.091,0,0,0-1.98-.744l-.869.144A30.7,30.7,0,0,0,271.9,13.886a2.775,2.775,0,1,0-.864,5.483,24.667,24.667,0,0,1,3.022.673.937.937,0,1,0,.521-1.8,26.535,26.535,0,0,0-3.251-.724.9.9,0,0,1-.391-1.62.894.894,0,0,1,.671-.161,28.823,28.823,0,0,1,22.649,18.984.937.937,0,0,0,1.039.618l1.64-.271a.24.24,0,0,1,.264.323l-2.434,6.476a.24.24,0,0,1-.411.068L289.96,36.59a.241.241,0,0,1,.146-.391l1.5-.249a.937.937,0,0,0,.725-1.252A27.047,27.047,0,0,0,278.793,19.86a.937.937,0,1,0-.816,1.687,25.191,25.191,0,0,1,12.175,12.744l-.352.058a2.115,2.115,0,0,0-1.288,3.43l4.392,5.345a2.091,2.091,0,0,0,1.625.774,2.179,2.179,0,0,0,.356-.029,2.093,2.093,0,0,0,1.633-1.343l2.434-6.475A2.093,2.093,0,0,0,298.606,33.963Z" transform="translate(-235.119 -12.121)"/>
        <path id="Trazado_1192467" data-name="Trazado 1192467" d="M285.367,268.722a2.776,2.776,0,0,0-3.174,2.31,25.061,25.061,0,0,1-14.922,19.117l-.058-.352a2.115,2.115,0,0,0-3.43-1.288l-5.345,4.392a2.115,2.115,0,0,0,.6,3.614l6.475,2.434a2.13,2.13,0,0,0,.753.138,2.119,2.119,0,0,0,2.079-2.463l-.144-.87a30.16,30.16,0,0,0,2.827-1.229.937.937,0,0,0-.835-1.678,28.386,28.386,0,0,1-3.35,1.405.937.937,0,0,0-.618,1.038l.271,1.64a.24.24,0,0,1-.323.264l-6.476-2.434a.24.24,0,0,1-.068-.411l5.345-4.392a.241.241,0,0,1,.391.146l.249,1.5a.937.937,0,0,0,1.252.725,26.939,26.939,0,0,0,17.18-21.006.9.9,0,1,1,1.781.281,28.869,28.869,0,0,1-12.073,19.143.937.937,0,1,0,1.066,1.541A30.752,30.752,0,0,0,287.676,271.9a2.775,2.775,0,0,0-2.309-3.175Z" transform="translate(-225.471 -235.117)"/>
        <path id="Trazado_1192468" data-name="Trazado 1192468" d="M28.056,282.2A25.062,25.062,0,0,1,8.938,267.274l.352-.058a2.115,2.115,0,0,0,1.289-3.43l-4.392-5.345a2.115,2.115,0,0,0-3.614.6L.138,265.516a2.115,2.115,0,0,0,2.326,2.831l.869-.144a30.7,30.7,0,0,0,23.86,19.477,2.794,2.794,0,0,0,.434.034,2.776,2.776,0,0,0,.429-5.518Zm.459,2.882a.9.9,0,0,1-1.031.75A28.824,28.824,0,0,1,4.835,266.844a.936.936,0,0,0-1.039-.618l-1.639.272a.241.241,0,0,1-.265-.323L4.326,259.7a.241.241,0,0,1,.412-.068l4.392,5.345a.241.241,0,0,1-.147.391l-1.5.249a.937.937,0,0,0-.725,1.252,26.94,26.94,0,0,0,21.006,17.18.9.9,0,0,1,.75,1.031Z" transform="translate(0 -225.474)"/>
        <path id="Trazado_1192469" data-name="Trazado 1192469" d="M141.141,122.009a19.131,19.131,0,1,0-19.131,19.132,19.153,19.153,0,0,0,19.131-19.132Zm-19.131,17.257a17.257,17.257,0,1,1,17.257-17.257A17.277,17.277,0,0,1,122.009,139.267Z" transform="translate(-90.024 -90.024)"/>
        <path id="Trazado_1192470" data-name="Trazado 1192470" d="M154.339,139.824a14.524,14.524,0,0,0-14.026,18.261.937.937,0,0,0,1.81-.484,12.648,12.648,0,1,1,1.66,3.7.937.937,0,0,0-1.564,1.033,14.516,14.516,0,1,0,12.12-22.5Z" transform="translate(-122.354 -122.354)"/>
        <path id="Trazado_1192471" data-name="Trazado 1192471" d="M221.29,194.716a.937.937,0,1,0-1.026,1.568,5.629,5.629,0,0,0,3.073,1.077v1.013a.937.937,0,1,0,1.874,0v-1.088a4.59,4.59,0,0,0,3.6-3.765,4.03,4.03,0,0,0-2.774-4.612c-.272-.1-.55-.2-.828-.3v-4.434a2.889,2.889,0,0,1,1.141.547.937.937,0,1,0,1.2-1.441,4.926,4.926,0,0,0-2.339-1.01v-.906a.937.937,0,1,0-1.874,0v.976c-.139.031-.28.066-.424.11a3.816,3.816,0,0,0-2.614,2.994,3.36,3.36,0,0,0,1.1,3.311,9.05,9.05,0,0,0,1.938,1.11v5.618A3.848,3.848,0,0,1,221.29,194.716Zm1.265-7.436a1.511,1.511,0,0,1-.415-1.489,1.983,1.983,0,0,1,1.2-1.506v3.495A5.627,5.627,0,0,1,222.555,187.28Zm2.859,3.4a2.186,2.186,0,0,1,1.551,2.534,2.755,2.755,0,0,1-1.754,2.129V190.6Z" transform="translate(-192.373 -157.884)"/>
      </g>
    </g>
  </g>
</svg>
