<svg xmlns="http://www.w3.org/2000/svg" xmlns:xlink="http://www.w3.org/1999/xlink" width="108" height="108" viewBox="0 0 108 108">
  <defs>
    <filter id="Trazado_904820" x="0" y="0" width="108" height="108" filterUnits="userSpaceOnUse">
      <feOffset dy="3" input="SourceAlpha"/>
      <feGaussianBlur stdDeviation="3" result="blur"/>
      <feFlood flood-opacity="0.161"/>
      <feComposite operator="in" in2="blur"/>
      <feComposite in="SourceGraphic"/>
    </filter>
  </defs>
  <g id="Grupo_1229583" data-name="Grupo 1229583" transform="translate(-619.827 -319)">
    <g id="Grupo_1229249" data-name="Grupo 1229249" transform="translate(628.827 325)">
      <g id="Grupo_1220471" data-name="Grupo 1220471">
        <g id="Grupo_1219977" data-name="Grupo 1219977" transform="translate(0 0)">
          <g id="Grupo_1219603" data-name="Grupo 1219603">
            <g id="Grupo_1202655" data-name="Grupo 1202655">
              <g id="Grupo_1173585" data-name="Grupo 1173585">
                <g id="Grupo_1173428" data-name="Grupo 1173428">
                  <g id="Grupo_1171958" data-name="Grupo 1171958">
                    <g id="Grupo_1167341" data-name="Grupo 1167341">
                      <g id="Grupo_1166792" data-name="Grupo 1166792">
                        <g transform="matrix(1, 0, 0, 1, -9, -6)" filter="url(#Trazado_904820)">
                          <g id="Trazado_904820-2" data-name="Trazado 904820" transform="translate(9 6)" fill="#f7f5f3">
                            <path d="M 44.99999618530273 88.49999237060547 C 39.12687301635742 88.49999237060547 33.43022155761719 87.35006713867188 28.06829643249512 85.08216857910156 C 22.88852119445801 82.89130401611328 18.23629570007324 79.75457763671875 14.24084663391113 75.75914001464844 C 10.24540901184082 71.76369476318359 7.108683586120605 67.11146545410156 4.917821407318115 61.93169403076172 C 2.649921178817749 56.56976699829102 1.499996185302734 50.87311553955078 1.499996185302734 44.99999237060547 C 1.499996185302734 39.12686920166016 2.649921178817749 33.43021774291992 4.917821407318115 28.06829261779785 C 7.108683586120605 22.88851737976074 10.24540901184082 18.23630523681641 14.24084663391113 14.24085521697998 C 18.23629570007324 10.24540519714355 22.88852119445801 7.108692169189453 28.06829643249512 4.917829990386963 C 33.43022155761719 2.649929761886597 39.12687301635742 1.500004887580872 44.99999618530273 1.500004887580872 C 50.87311935424805 1.500004887580872 56.56977081298828 2.649929761886597 61.93169784545898 4.917829990386963 C 67.11147308349609 7.108692169189453 71.76369476318359 10.24540519714355 75.75914764404297 14.24085521697998 C 79.75458526611328 18.23630523681641 82.89131164550781 22.88851737976074 85.08216857910156 28.06829261779785 C 87.35007476806641 33.43021774291992 88.5 39.12686920166016 88.5 44.99999237060547 C 88.5 50.87311553955078 87.35007476806641 56.56976699829102 85.08216857910156 61.93169403076172 C 82.89131164550781 67.11146545410156 79.75458526611328 71.76369476318359 75.75914764404297 75.75914001464844 C 71.76369476318359 79.75457763671875 67.11147308349609 82.89130401611328 61.93169784545898 85.08216857910156 C 56.56977081298828 87.35006713867188 50.87311935424805 88.49999237060547 44.99999618530273 88.49999237060547 Z" stroke="none"/>
                            <path d="M 44.99999618530273 2.999992370605469 C 39.32870864868164 2.999992370605469 33.82865142822266 4.11004638671875 28.65262603759766 6.299331665039062 C 23.65165710449219 8.414566040039062 19.15968322753906 11.44333648681641 15.301513671875 15.30150604248047 C 11.44333648681641 19.15967559814453 8.414566040039062 23.65164947509766 6.299339294433594 28.65262222290039 C 4.110054016113281 33.82864761352539 2.999992370605469 39.32870483398438 2.999992370605469 44.99999237060547 C 2.999992370605469 50.67127990722656 4.110054016113281 56.17132186889648 6.299339294433594 61.34736633300781 C 8.414566040039062 66.34833526611328 11.44333648681641 70.84029388427734 15.301513671875 74.69846343994141 C 19.15968322753906 78.55663299560547 23.65165710449219 81.58540344238281 28.65262603759766 83.70063781738281 C 33.82865142822266 85.88992309570312 39.32870864868164 86.99997711181641 44.99999618530273 86.99997711181641 C 50.67128372192383 86.99997711181641 56.17134094238281 85.88992309570312 61.34736633300781 83.70063781738281 C 66.34834289550781 81.58540344238281 70.84030914306641 78.55663299560547 74.69847869873047 74.69846343994141 C 78.55665588378906 70.84029388427734 81.58542633056641 66.34833526611328 83.70065307617188 61.34736633300781 C 85.88993835449219 56.17132186889648 87 50.67127990722656 87 44.99999237060547 C 87 39.32870483398438 85.88993835449219 33.82864761352539 83.70065307617188 28.65262222290039 C 81.58542633056641 23.65164947509766 78.55665588378906 19.15967559814453 74.69847869873047 15.30150604248047 C 70.84030914306641 11.44333648681641 66.34834289550781 8.414566040039062 61.34736633300781 6.299331665039062 C 56.17134094238281 4.11004638671875 50.67128372192383 2.999992370605469 44.99999618530273 2.999992370605469 M 44.99999618530273 -7.62939453125e-06 C 69.85281372070312 -7.62939453125e-06 90 20.14717864990234 90 44.99999237060547 C 90 69.85279083251953 69.85281372070312 89.99997711181641 44.99999618530273 89.99997711181641 C 20.14717864990234 89.99997711181641 -7.62939453125e-06 69.85279083251953 -7.62939453125e-06 44.99999237060547 C -7.62939453125e-06 20.14717864990234 20.14717864990234 -7.62939453125e-06 44.99999618530273 -7.62939453125e-06 Z" stroke="none" fill="#bca78f"/>
                          </g>
                        </g>
                      </g>
                    </g>
                  </g>
                </g>
              </g>
            </g>
          </g>
        </g>
      </g>
    </g>
    <g id="palacio-de-justicia_1_" data-name="palacio-de-justicia (1)" transform="translate(646.571 340)">
      <g id="Grupo_1229581" data-name="Grupo 1229581" transform="translate(1.307 0.782)">
        <g id="Grupo_1229577" data-name="Grupo 1229577" transform="translate(0.187 17.607)">
          <g id="Grupo_1229575" data-name="Grupo 1229575" transform="translate(4.19)">
            <g id="Grupo_1229570" data-name="Grupo 1229570">
              <g id="Grupo_1229569" data-name="Grupo 1229569" transform="translate(1.273 4.03)">
                <path id="Trazado_1192289" data-name="Trazado 1192289" d="M70.954,235.394H62.011l.884-21.165H70.07Z" transform="translate(-62.011 -214.229)" fill="#ffd597"/>
                <path id="Trazado_1192290" data-name="Trazado 1192290" d="M77.6,235.392l-.883-21.165H69.539l-.107,2.571h3.336a1.465,1.465,0,0,1,1.464,1.4l.717,17.19Z" transform="translate(-68.655 -214.227)" fill="#fcc16d"/>
              </g>
              <path id="Trazado_1192291" data-name="Trazado 1192291" d="M71.55,179.961H65.058a1.013,1.013,0,0,1-1.013-1.013v-2.214a1.013,1.013,0,0,1,1.013-1.013H71.55a1.013,1.013,0,0,1,1.013,1.013v2.214A1.013,1.013,0,0,1,71.55,179.961Z" transform="translate(-62.559 -175.721)" fill="#fb9927"/>
              <path id="Trazado_1192292" data-name="Trazado 1192292" d="M72.562,178.124v-1.39a1.013,1.013,0,0,0-1.013-1.013H65.057a1.013,1.013,0,0,0-1.013,1.013v1.39Z" transform="translate(-62.558 -175.721)" fill="#f98824"/>
              <path id="Trazado_1192293" data-name="Trazado 1192293" d="M60.322,408.872H50.859a1.013,1.013,0,0,1-1.013-1.013v-2.214a1.013,1.013,0,0,1,1.013-1.013h9.463a1.013,1.013,0,0,1,1.013,1.013v2.214A1.013,1.013,0,0,1,60.322,408.872Z" transform="translate(-49.846 -380.677)" fill="#fee7c9"/>
              <path id="Trazado_1192294" data-name="Trazado 1192294" d="M128.471,405.641v2.213a1.012,1.012,0,0,1-1.013,1.013h-2.63a1.012,1.012,0,0,0,1.013-1.013v-2.213a1.013,1.013,0,0,0-1.013-1.014h2.63A1.013,1.013,0,0,1,128.471,405.641Z" transform="translate(-116.981 -380.673)" fill="#ffd597"/>
            </g>
            <g id="Grupo_1229572" data-name="Grupo 1229572" transform="translate(15.826)">
              <g id="Grupo_1229571" data-name="Grupo 1229571" transform="translate(1.273 4.03)">
                <path id="Trazado_1192295" data-name="Trazado 1192295" d="M222.19,235.394h-8.943l.884-21.165h7.175Z" transform="translate(-213.247 -214.229)" fill="#ffd597"/>
                <path id="Trazado_1192296" data-name="Trazado 1192296" d="M228.835,235.392l-.884-21.165h-7.175l-.107,2.571H224a1.465,1.465,0,0,1,1.464,1.4l.718,17.19Z" transform="translate(-219.891 -214.227)" fill="#fcc16d"/>
              </g>
              <path id="Trazado_1192297" data-name="Trazado 1192297" d="M222.786,179.961h-6.492a1.013,1.013,0,0,1-1.013-1.013v-2.214a1.013,1.013,0,0,1,1.013-1.013h6.492a1.013,1.013,0,0,1,1.013,1.013v2.214A1.013,1.013,0,0,1,222.786,179.961Z" transform="translate(-213.795 -175.721)" fill="#fb9927"/>
              <path id="Trazado_1192298" data-name="Trazado 1192298" d="M223.8,178.124v-1.39a1.013,1.013,0,0,0-1.013-1.013h-6.492a1.013,1.013,0,0,0-1.013,1.013v1.39Z" transform="translate(-213.794 -175.721)" fill="#f98824"/>
              <path id="Trazado_1192299" data-name="Trazado 1192299" d="M211.558,408.872h-9.463a1.013,1.013,0,0,1-1.013-1.013v-2.214a1.013,1.013,0,0,1,1.013-1.013h9.463a1.013,1.013,0,0,1,1.013,1.013v2.214A1.013,1.013,0,0,1,211.558,408.872Z" transform="translate(-201.082 -380.677)" fill="#fee7c9"/>
              <path id="Trazado_1192300" data-name="Trazado 1192300" d="M279.711,405.641v2.213a1.013,1.013,0,0,1-1.013,1.013h-2.63a1.013,1.013,0,0,0,1.013-1.013v-2.213a1.014,1.014,0,0,0-1.013-1.014h2.63A1.014,1.014,0,0,1,279.711,405.641Z" transform="translate(-268.221 -380.673)" fill="#ffd597"/>
            </g>
            <g id="Grupo_1229574" data-name="Grupo 1229574" transform="translate(31.653)">
              <g id="Grupo_1229573" data-name="Grupo 1229573" transform="translate(1.273 4.03)">
                <path id="Trazado_1192301" data-name="Trazado 1192301" d="M373.426,235.394h-8.943l.884-21.165h7.176Z" transform="translate(-364.483 -214.229)" fill="#ffd597"/>
                <path id="Trazado_1192302" data-name="Trazado 1192302" d="M380.071,235.392l-.884-21.165h-7.175L371.9,216.8h3.336a1.465,1.465,0,0,1,1.464,1.4l.717,17.19Z" transform="translate(-371.127 -214.227)" fill="#fcc16d"/>
              </g>
              <path id="Trazado_1192303" data-name="Trazado 1192303" d="M374.022,179.961H367.53a1.013,1.013,0,0,1-1.013-1.013v-2.214a1.013,1.013,0,0,1,1.013-1.013h6.492a1.013,1.013,0,0,1,1.013,1.013v2.214A1.013,1.013,0,0,1,374.022,179.961Z" transform="translate(-365.031 -175.721)" fill="#fb9927"/>
              <path id="Trazado_1192304" data-name="Trazado 1192304" d="M375.035,178.124v-1.39a1.013,1.013,0,0,0-1.013-1.013H367.53a1.013,1.013,0,0,0-1.013,1.013v1.39Z" transform="translate(-365.031 -175.721)" fill="#f98824"/>
              <path id="Trazado_1192305" data-name="Trazado 1192305" d="M362.794,408.872h-9.463a1.013,1.013,0,0,1-1.013-1.013v-2.214a1.013,1.013,0,0,1,1.013-1.013h9.463a1.013,1.013,0,0,1,1.013,1.013v2.214A1.013,1.013,0,0,1,362.794,408.872Z" transform="translate(-352.318 -380.677)" fill="#fee7c9"/>
              <path id="Trazado_1192306" data-name="Trazado 1192306" d="M430.941,405.641v2.213a1.012,1.012,0,0,1-1.013,1.013H427.3a1.012,1.012,0,0,0,1.013-1.013v-2.213a1.013,1.013,0,0,0-1.013-1.014h2.63A1.013,1.013,0,0,1,430.941,405.641Z" transform="translate(-419.452 -380.673)" fill="#ffd597"/>
            </g>
          </g>
          <path id="Trazado_1192307" data-name="Trazado 1192307" d="M76.217,436.6H28.636V434.29a1.013,1.013,0,0,1,1.013-1.013H75.2a1.013,1.013,0,0,1,1.013,1.013V436.6Z" transform="translate(-26.665 -406.324)" fill="#fb9927"/>
          <path id="Trazado_1192308" data-name="Trazado 1192308" d="M450.853,434.29V436.6h-2.782V434.29a1.012,1.012,0,0,0-1.013-1.013h2.782A1.012,1.012,0,0,1,450.853,434.29Z" transform="translate(-401.301 -406.324)" fill="#f98824"/>
          <g id="Grupo_1229576" data-name="Grupo 1229576" transform="translate(0 29.734)">
            <path id="Trazado_1192309" data-name="Trazado 1192309" d="M60.313,464.523h-49.5A1.013,1.013,0,0,1,9.8,463.51v-2.643a1.013,1.013,0,0,1,1.013-1.013h49.5a1.013,1.013,0,0,1,1.013,1.013v2.643A1.013,1.013,0,0,1,60.313,464.523Z" transform="translate(-9.803 -459.854)" fill="#ffd597"/>
            <path id="Trazado_1192310" data-name="Trazado 1192310" d="M469.693,460.87v2.642a1.013,1.013,0,0,1-1.014,1.013H465.9a1.013,1.013,0,0,0,1.013-1.013V460.87a1.013,1.013,0,0,0-1.013-1.013h2.781A1.013,1.013,0,0,1,469.693,460.87Z" transform="translate(-418.169 -459.857)" fill="#fcc16d"/>
          </g>
        </g>
        <g id="Grupo_1229578" data-name="Grupo 1229578" transform="translate(2.478 2.073)">
          <path id="Trazado_1192311" data-name="Trazado 1192311" d="M55.169,27.28,31.7,43.423h46.94Z" transform="translate(-31.699 -27.28)" fill="#ffd597"/>
          <path id="Trazado_1192312" data-name="Trazado 1192312" d="M78.639,43.421H70.564l-15.4-10.589-15.4,10.589H31.7l23.47-16.144Z" transform="translate(-31.698 -27.277)" fill="#fcc16d"/>
        </g>
        <g id="Grupo_1229579" data-name="Grupo 1229579" transform="translate(0)">
          <path id="Trazado_1192313" data-name="Trazado 1192313" d="M57.113,27.98,33.964,12.057,10.815,27.98a1.037,1.037,0,0,1-1.442-.267L8.2,26a1.037,1.037,0,0,1,.267-1.442L32.789,7.832a2.073,2.073,0,0,1,2.35,0L59.463,24.563A1.037,1.037,0,0,1,59.73,26l-1.175,1.708a1.037,1.037,0,0,1-1.442.267Z" transform="translate(-8.015 -7.467)" fill="#fee7c9"/>
        </g>
        <g id="Grupo_1229580" data-name="Grupo 1229580" transform="translate(46.833 15.581)">
          <path id="Trazado_1192314" data-name="Trazado 1192314" d="M460.43,159.313l-1.175,1.709a1.037,1.037,0,0,1-1.442.267l-2.265-1.557a1.05,1.05,0,0,0,1.285-.368l1.192-1.732a1.053,1.053,0,0,0-.064-1.275l2.2,1.515A1.036,1.036,0,0,1,460.43,159.313Z" transform="translate(-455.548 -156.357)" fill="#ffd597"/>
        </g>
      </g>
      <g id="Grupo_1229582" data-name="Grupo 1229582" transform="translate(0.522 0)">
        <path id="Trazado_1192315" data-name="Trazado 1192315" d="M52,47.338h-.173v-.983a1.8,1.8,0,0,0-1.8-1.8h-.422v-1.2a1.8,1.8,0,0,0-1.355-1.74L47.479,23a1.794,1.794,0,0,0,.646-1.379v-.937l1.834,1.262a1.824,1.824,0,0,0,2.533-.469l1.175-1.708a1.821,1.821,0,0,0-.469-2.533L28.875.5a2.874,2.874,0,0,0-3.24,0L1.311,17.231a1.824,1.824,0,0,0-.469,2.533l1.175,1.708a1.809,1.809,0,0,0,1.17.759,1.837,1.837,0,0,0,.335.031,1.809,1.809,0,0,0,1.028-.321l1.834-1.262v.937A1.8,1.8,0,0,0,7.032,23L6.254,41.617A1.8,1.8,0,0,0,4.9,43.357v1.2H4.478a1.8,1.8,0,0,0-1.8,1.8v.983H2.507a1.8,1.8,0,0,0-1.8,1.8v2.643a1.8,1.8,0,0,0,1.8,1.8H52a1.8,1.8,0,0,0,1.8-1.8V49.136a1.8,1.8,0,0,0-1.8-1.8ZM38.122,44.556v-1.2a.228.228,0,0,1,.228-.228h9.463a.228.228,0,0,1,.228.228v1.2ZM14.9,21.616a.228.228,0,0,1-.228.228H8.183a.228.228,0,0,1-.228-.228V19.783H14.9Zm-.63,1.8.757,18.145h-7.2l.758-18.145Zm2.331,18.2L15.826,23a1.794,1.794,0,0,0,.646-1.379V19.783h5.739v1.833A1.794,1.794,0,0,0,22.858,23L22.08,41.617a1.8,1.8,0,0,0-1.355,1.74v1.2H17.958v-1.2a1.8,1.8,0,0,0-1.355-1.74Zm7.808-18.2H30.1l.758,18.145h-7.2Zm6.318-1.8a.228.228,0,0,1-.228.228H24.009a.228.228,0,0,1-.228-.228V19.783h6.948ZM22.3,43.357a.228.228,0,0,1,.228-.228h9.463a.228.228,0,0,1,.228.228v1.2H22.3v-1.2Zm10.135-1.74L31.652,23a1.794,1.794,0,0,0,.646-1.379V19.783h5.739v1.833a1.794,1.794,0,0,0,.646,1.379l-.118,2.825a.785.785,0,0,0,.751.817h.033a.785.785,0,0,0,.783-.752l.1-2.471h5.688l.758,18.145h-7.2l.5-11.97a.785.785,0,1,0-1.568-.066l-.5,12.093a1.8,1.8,0,0,0-1.355,1.74v1.2H33.785v-1.2a1.8,1.8,0,0,0-1.355-1.74Zm14.125-20a.228.228,0,0,1-.228.228H39.836a.228.228,0,0,1-.228-.228V19.783h6.948ZM3.661,20.648a.252.252,0,0,1-.35-.065L2.136,18.875a.252.252,0,0,1,.065-.35L26.525,1.793a1.3,1.3,0,0,1,1.46,0L52.31,18.524a.252.252,0,0,1,.065.35L51.2,20.583a.253.253,0,0,1-.35.065L41.708,14.36a.785.785,0,1,0-.889,1.293l3.723,2.561H9.969L27.255,6.324l10.526,7.24a.785.785,0,1,0,.889-1.293L27.7,4.725a.785.785,0,0,0-.89,0ZM6.469,43.357a.228.228,0,0,1,.228-.228H16.16a.228.228,0,0,1,.228.228v1.2H6.469Zm45.763,8.421a.228.228,0,0,1-.228.228H2.507a.229.229,0,0,1-.228-.228V49.136a.229.229,0,0,1,.228-.228H7.566a.785.785,0,0,0,0-1.57H4.249v-.983a.229.229,0,0,1,.228-.228H50.033a.229.229,0,0,1,.228.228v.983H11.27a.785.785,0,0,0,0,1.57H52a.228.228,0,0,1,.228.228Z" transform="translate(-0.522 0)"/>
        <path id="Trazado_1192316" data-name="Trazado 1192316" d="M220.542,91.17h-.011V89.194a.784.784,0,0,0-.455-1.424h-2.551a.784.784,0,0,0-1.568,0h-2.551a.784.784,0,0,0-.455,1.424V91.17h-.011a.785.785,0,0,0,0,1.57h1.591a.785.785,0,1,0,0-1.57h-.011V89.34h1.436V93.2h-.877a.785.785,0,0,0,0,1.57H218.4a.785.785,0,1,0,0-1.57h-.877V89.34h1.436v1.83h-.011a.785.785,0,1,0,0,1.57h1.591a.785.785,0,0,0,0-1.57Z" transform="translate(-190.008 -77.894)"/>
      </g>
    </g>
  </g>
</svg>
