<svg xmlns="http://www.w3.org/2000/svg" xmlns:xlink="http://www.w3.org/1999/xlink" width="315" height="282" viewBox="0 0 315 282">
  <defs>
    <clipPath id="clip-path">
      <rect id="Rectángulo_422906" data-name="Rectángulo 422906" width="315" height="282" transform="translate(1125 782.898)" fill="#fff" stroke="#707070" stroke-width="1"/>
    </clipPath>
    <clipPath id="clip-path-2">
      <rect id="Rectángulo_422910" data-name="Rectángulo 422910" width="307.497" height="281.898" fill="none"/>
    </clipPath>
  </defs>
  <g id="Enmascarar_grupo_1225073" data-name="Enmascarar grupo 1225073" transform="translate(-1125 -782.898)" clip-path="url(#clip-path)">
    <g id="Grupo_1229585" data-name="Grupo 1229585" transform="translate(1128.751 783)">
      <g id="Grupo_1229584" data-name="Grupo 1229584" clip-path="url(#clip-path-2)">
        <path id="Trazado_1192317" data-name="Trazado 1192317" d="M260.913,128.919c-.954-3.327.287-6.9,2.021-9.89,1.771-3.062,4.229-5.935,7.554-7.145s7.6-.266,9.339,2.812c1.239,2.187,1,4.878.731,7.373a31.694,31.694,0,0,1,26.331-26.163c4.858-.785,10.708,0,13.2,4.242a10.735,10.735,0,0,1,1.261,5.588,18.331,18.331,0,0,1-6.522,13.68c2.1-5.322,7.634-7.625,13.175-9.044,2.088-.534,4.452-.849,6.272.307,1.955,1.246,2.632,3.82,2.531,6.139a13.376,13.376,0,0,1-1.795,6.145c1.156-2.645,3.933-3.787,6.677-4.664,3.514-1.122,7.349-1.925,10.852-.773s6.4,7.824,5.436,11.393Z" transform="translate(-61.082 -22.418)" fill="#e2cbaf"/>
        <path id="Trazado_1192318" data-name="Trazado 1192318" d="M13.929,291.971c-.954-3.328.287-6.9,2.02-9.891,1.772-3.062,4.23-5.934,7.554-7.145s7.6-.267,9.339,2.812c1.239,2.188,1,4.878.731,7.373A31.693,31.693,0,0,1,59.9,258.958c4.858-.785,10.709,0,13.2,4.241a10.732,10.732,0,0,1,1.262,5.59,18.332,18.332,0,0,1-6.522,13.678c2.1-5.322,7.634-7.625,13.174-9.045,2.089-.533,4.453-.847,6.273.309,1.955,1.246,2.633,3.82,2.531,6.138a13.371,13.371,0,0,1-1.794,6.144c1.156-2.644,3.932-3.786,6.678-4.663,3.514-1.123,7.348-1.924,10.852-.773s6.4,7.824,5.435,11.393Z" transform="translate(-3.187 -60.638)" fill="#e2cbaf"/>
        <path id="Trazado_1192319" data-name="Trazado 1192319" d="M130.2,33.283c-.953-3.327.288-6.9,2.021-9.89,1.772-3.062,4.23-5.934,7.553-7.145s7.6-.266,9.34,2.811c1.239,2.188,1,4.878.73,7.374A31.7,31.7,0,0,1,176.173.271c4.858-.785,10.709,0,13.2,4.241a10.736,10.736,0,0,1,1.261,5.59,18.324,18.324,0,0,1-6.522,13.678c2.1-5.322,7.634-7.625,13.176-9.044,2.087-.533,4.451-.848,6.272.308,1.955,1.246,2.632,3.821,2.531,6.139a13.362,13.362,0,0,1-1.794,6.144c1.156-2.645,3.932-3.785,6.678-4.664,3.514-1.122,7.349-1.923,10.853-.772s6.4,7.823,5.434,11.392Z" transform="translate(-30.441 0)" fill="#e2cbaf"/>
        <path id="Trazado_1192320" data-name="Trazado 1192320" d="M262.005,148.138a93.425,93.425,0,1,1-93.073-93.777,93.429,93.429,0,0,1,93.073,93.777" transform="translate(-17.617 -12.742)" fill="#1e72d5"/>
        <path id="Trazado_1192321" data-name="Trazado 1192321" d="M202.411,154.044c-13.184,7.392-4.013,14.227-19.635,19.336s-19.737,6.194-21.963-5.887,2.625-26.1-11.584-26.076c-14.226.005-29.792-3.074-13.074-14.439s24.674-27.832,41.634-16.161C194.767,122.477,215.6,146.648,202.411,154.044Z" transform="translate(-30.218 -25.038)" fill="none" stroke="#10579e" stroke-linecap="round" stroke-linejoin="round" stroke-width="2"/>
        <path id="Trazado_1192322" data-name="Trazado 1192322" d="M149.9,61.511s-.13,11.122,7.837,11.291c5,.106,9.48-3.363,16.715-3.363S181.208,85.4,191.818,79.91c12.25-6.346,13.952.552,27.835-3.893,5.624-1.8,3.751-13.94,3.751-13.94-16.972-7.281-42.046-12.952-73.5-.566" transform="translate(-35.138 -12.714)" fill="#fff"/>
        <path id="Trazado_1192323" data-name="Trazado 1192323" d="M185.58,292.5a93.2,93.2,0,0,0,35.658-6.909,6.875,6.875,0,0,0-6.24-4.133c-5-.108-9.481,3.365-16.715,3.365s-6.753-15.97-17.36-10.476c-12.252,6.346-13.955-.552-27.836,3.894-2.556.818-3.565,3.773-3.9,6.759a93.266,93.266,0,0,0,36.395,7.5" transform="translate(-34.97 -64.04)" fill="#fff"/>
        <path id="Trazado_1192324" data-name="Trazado 1192324" d="M205.7,225.688c3.994,7.85-4.958,8.491,2.614,14.984s14.641,7.53,18.726,6.08c4.735-1.685,8.059-11.916,3.825-14.531s-.465-5.5-2.248-10.457c-.988-2.748-11.288-9.539-17.687-8.466-5.144.861-7.01,8.894-5.23,12.39" transform="translate(-48.063 -49.972)" fill="#6e8b21"/>
        <path id="Trazado_1192325" data-name="Trazado 1192325" d="M261.628,223.2A93.41,93.41,0,0,0,253.8,76.629c.076,2.239.477,18.555-4.078,19.456-4.906.962-15.144-1.162-18.32,9.444s-8.441,5.681-13.825,12.037-14.229,13.18-3,26.453,19.1,2.035,22.526,6.458-3.483,13.459,4.819,23.422,16.048,4.943,20.479,13.118,8.843,8.693,4.885,18.963c-2.545,6.626-4.939,12.228-5.649,17.218" transform="translate(-49.026 -17.962)" fill="#6e8b21"/>
        <path id="Trazado_1192326" data-name="Trazado 1192326" d="M75.157,155.55a91.4,91.4,0,0,0,12.849,47.186c-6.329-21.9-5.123-36,1.223-41.812s11.134,13.654,21.867,3.318c10.737-10.353-7.236-15.415,5.932-27.045s19.941,2.027,26.792-9.2-11.106-20.408-25.683-24.19c-7.9-2.042-12.031-9.761-14.059-15.682A93.171,93.171,0,0,0,75.157,155.55" transform="translate(-17.617 -20.658)" fill="#6e8b21"/>
        <path id="Trazado_1192327" data-name="Trazado 1192327" d="M160.832,164.993c8.341,8.612,11.724.2,18.805,11.139s8.748,13.874-.065,18.034-20.54,3.275-17.646,14.165c2.886,10.908,3.679,23.469-8.42,12.95S127.164,208,132.676,192.632s19.812-36.252,28.156-27.639" transform="translate(-30.814 -38.204)" fill="#6e8b21"/>
        <path id="Trazado_1192328" data-name="Trazado 1192328" d="M235.624,224.016a93.441,93.441,0,0,1-146.886.76" transform="translate(-20.801 -52.511)" fill="none" stroke="#10579e" stroke-linecap="round" stroke-linejoin="round" stroke-width="2"/>
        <path id="Trazado_1192329" data-name="Trazado 1192329" d="M296.685,111.02a93.59,93.59,0,0,1-11.626,81.831" transform="translate(-66.82 -26.024)" fill="none" stroke="#566d18" stroke-linecap="round" stroke-linejoin="round" stroke-width="2"/>
        <path id="Trazado_1192330" data-name="Trazado 1192330" d="M110.7,96.774s-15.777,18.751-20.144,39.209" transform="translate(-21.228 -22.684)" fill="none" stroke="#566d18" stroke-linecap="round" stroke-linejoin="round" stroke-width="2"/>
        <path id="Trazado_1192331" data-name="Trazado 1192331" d="M207.421,61.668a101.216,101.216,0,0,1,29.764,7.725" transform="translate(-48.621 -14.455)" fill="none" stroke="#dcebfa" stroke-linecap="round" stroke-linejoin="round" stroke-width="2"/>
        <path id="Trazado_1192332" data-name="Trazado 1192332" d="M210.586,78.632c3.9-3.062,5.737-1.977,7.229-.034s2.08,4.009-1.823,7.071-12.31,4.022-12.31,4.022,3-8,6.9-11.059" transform="translate(-47.744 -17.983)" fill="#6e8b21"/>
        <path id="Trazado_1192333" data-name="Trazado 1192333" d="M230.792,75.395c2.614-4.216,4.708-3.827,6.777-2.516s3.33,3.051.717,7.268-10.179,8.006-10.179,8.006.072-8.542,2.685-12.758" transform="translate(-53.47 -16.873)" fill="#6e8b21"/>
        <path id="Trazado_1192334" data-name="Trazado 1192334" d="M216.828,57.17c3.358,3.572,2.451,5.472.671,7.112s-3.761,2.4-7.12-1.171-5.044-11.76-5.044-11.76,8.134,2.249,11.492,5.819" transform="translate(-48.132 -12.037)" fill="#6e8b21"/>
        <path id="Trazado_1192335" data-name="Trazado 1192335" d="M234.8,53.3c3.358,3.572,2.451,5.472.671,7.112s-3.761,2.4-7.12-1.171-5.044-11.76-5.044-11.76,8.134,2.249,11.492,5.819" transform="translate(-52.344 -11.13)" fill="#6e8b21"/>
        <path id="Trazado_1192336" data-name="Trazado 1192336" d="M240.1,56.657a38.419,38.419,0,0,1-22.536,12.285,33.8,33.8,0,0,1-24.8-5.982" transform="translate(-45.186 -13.281)" fill="none" stroke="#566d18" stroke-linecap="round" stroke-linejoin="round" stroke-width="2"/>
        <path id="Trazado_1192337" data-name="Trazado 1192337" d="M213.657,59.875c2.739,3.873,5.441,7.845,9.813,9.679-2.767,3.786-5.672,7.675-9.431,10.483" transform="translate(-50.083 -14.035)" fill="none" stroke="#566d18" stroke-linecap="round" stroke-linejoin="round" stroke-width="2"/>
        <path id="Trazado_1192338" data-name="Trazado 1192338" d="M232.287,56.657a17.279,17.279,0,0,0,7.538,7.7,26.891,26.891,0,0,1-5.851,12.119" transform="translate(-54.45 -13.281)" fill="none" stroke="#566d18" stroke-linecap="round" stroke-linejoin="round" stroke-width="2"/>
        <path id="Trazado_1192339" data-name="Trazado 1192339" d="M173.516,63.192c13.206,3.829,15.8,2.487,14.464,7.111s-6.112,13.456-19.319,9.629-22.827-10.681-21.486-15.3,13.135-5.266,26.341-1.435" transform="translate(-34.47 -14.227)" fill="#c42644"/>
        <path id="Trazado_1192340" data-name="Trazado 1192340" d="M173.343,63.789c13.206,3.83,14.685,6.354,16.026,1.731S191.4,50.88,178.2,47.051s-25-3.186-26.341,1.437,8.277,11.472,21.486,15.3" transform="translate(-35.567 -10.443)" fill="#c42644"/>
        <path id="Trazado_1192341" data-name="Trazado 1192341" d="M176.951,55.723c13.2,3.83,14.245,7.869,12.9,12.492s-4.55,8.077-17.758,4.248-22.826-10.683-21.487-15.3,13.134-5.265,26.34-1.435" transform="translate(-35.275 -12.476)" fill="#c42644"/>
        <path id="Trazado_1192342" data-name="Trazado 1192342" d="M163.278,53.224a58.287,58.287,0,0,1,15.96,2.5c13.206,3.83,14.245,7.869,12.9,12.492s-4.55,8.077-17.758,4.248a59.682,59.682,0,0,1-14.144-6" transform="translate(-37.562 -12.476)" fill="none" stroke="#991437" stroke-linecap="round" stroke-linejoin="round" stroke-width="2"/>
        <line id="Línea_1038" data-name="Línea 1038" x2="19.704" y2="5.085" transform="translate(134.877 50.654)" fill="none" stroke="#991437" stroke-linecap="round" stroke-linejoin="round" stroke-width="2"/>
        <path id="Trazado_1192343" data-name="Trazado 1192343" d="M224.485,158.708s2.191,9.485,0,18.374-8.595,20.983-8.595,20.983-11.418,2.488-17.8,1.067L174.459,166.3l.937-19.95h43.872Z" transform="translate(-40.894 -34.305)" fill="#e5ab81"/>
        <rect id="Rectángulo_422907" data-name="Rectángulo 422907" width="215.339" height="7.062" transform="translate(46.079 112.045)" fill="#2e333b"/>
        <path id="Trazado_1192344" data-name="Trazado 1192344" d="M370.14,208.27l-41.175-57.308L287.676,210.1" transform="translate(-67.433 -35.387)" fill="none" stroke="#fff" stroke-linecap="round" stroke-linejoin="round" stroke-width="2.235"/>
        <line id="Línea_1039" data-name="Línea 1039" y1="59.684" transform="translate(261.532 115.576)" fill="none" stroke="#fff" stroke-linecap="round" stroke-linejoin="round" stroke-width="2.235"/>
        <path id="Trazado_1192345" data-name="Trazado 1192345" d="M328.174,267.717a42.9,42.9,0,0,1-42.9-42.9h85.8a42.9,42.9,0,0,1-42.9,42.9" transform="translate(-66.87 -52.698)" fill="#c42644"/>
        <path id="Trazado_1192346" data-name="Trazado 1192346" d="M331.356,260.523a32.508,32.508,0,0,1-32.508-32.507" transform="translate(-70.052 -53.449)" fill="none" stroke="#991437" stroke-linecap="round" stroke-linejoin="round" stroke-width="2"/>
        <line id="Línea_1040" data-name="Línea 1040" x1="57.733" transform="translate(244.754 184.166)" fill="none" stroke="#991437" stroke-linecap="round" stroke-linejoin="round" stroke-width="2"/>
        <rect id="Rectángulo_422908" data-name="Rectángulo 422908" width="92.386" height="10.858" transform="translate(215.111 166.623)" fill="#eaaa28"/>
        <line id="Línea_1041" data-name="Línea 1041" x2="55.854" transform="translate(215.111 172.052)" fill="none" stroke="#e88d2a" stroke-linecap="round" stroke-linejoin="round" stroke-width="2"/>
        <path id="Trazado_1192347" data-name="Trazado 1192347" d="M329.286,148.075a9.433,9.433,0,1,0,9.433-9.432,9.433,9.433,0,0,0-9.433,9.432" transform="translate(-77.187 -32.499)" fill="#2e333b"/>
        <path id="Trazado_1192348" data-name="Trazado 1192348" d="M331.17,143.573a9.437,9.437,0,0,0-.379,10.771" transform="translate(-77.187 -33.654)" fill="none" stroke="#252a30" stroke-linecap="round" stroke-linejoin="round" stroke-width="2"/>
        <path id="Trazado_1192349" data-name="Trazado 1192349" d="M6.256,208.27l41.175-57.308L88.719,210.1" transform="translate(-1.467 -35.387)" fill="none" stroke="#fff" stroke-linecap="round" stroke-linejoin="round" stroke-width="2.235"/>
        <line id="Línea_1042" data-name="Línea 1042" y1="59.684" transform="translate(45.965 115.576)" fill="none" stroke="#fff" stroke-linecap="round" stroke-linejoin="round" stroke-width="2.235"/>
        <path id="Trazado_1192350" data-name="Trazado 1192350" d="M47.2,267.717a42.9,42.9,0,0,0,42.9-42.9H4.3a42.9,42.9,0,0,0,42.9,42.9" transform="translate(-1.008 -52.698)" fill="#c42644"/>
        <path id="Trazado_1192351" data-name="Trazado 1192351" d="M60.336,260.523a32.507,32.507,0,0,0,32.507-32.507" transform="translate(-14.143 -53.449)" fill="none" stroke="#991437" stroke-linecap="round" stroke-linejoin="round" stroke-width="2"/>
        <line id="Línea_1043" data-name="Línea 1043" x2="57.733" transform="translate(5.009 184.166)" fill="none" stroke="#991437" stroke-linecap="round" stroke-linejoin="round" stroke-width="2"/>
        <rect id="Rectángulo_422909" data-name="Rectángulo 422909" width="92.386" height="10.858" transform="translate(0 166.623)" fill="#eaaa28"/>
        <line id="Línea_1044" data-name="Línea 1044" x1="55.854" transform="translate(36.532 172.052)" fill="none" stroke="#e88d2a" stroke-linecap="round" stroke-linejoin="round" stroke-width="2"/>
        <path id="Trazado_1192352" data-name="Trazado 1192352" d="M66.583,148.075a9.433,9.433,0,1,1-9.433-9.432,9.433,9.433,0,0,1,9.433,9.432" transform="translate(-11.185 -32.499)" fill="#2e333b"/>
        <path id="Trazado_1192353" data-name="Trazado 1192353" d="M69.9,143.573a9.436,9.436,0,0,1,.38,10.771" transform="translate(-16.384 -33.654)" fill="none" stroke="#252a30" stroke-linecap="round" stroke-linejoin="round" stroke-width="2"/>
        <path id="Trazado_1192354" data-name="Trazado 1192354" d="M180.563,144.463a7.03,7.03,0,0,1-6.944,7.112h-.175a7.03,7.03,0,0,1-6.942-7.112V125.854a7.03,7.03,0,0,1,6.942-7.113h.175a7.03,7.03,0,0,1,6.944,7.113Z" transform="translate(-39.029 -27.834)" fill="#e5ab81"/>
        <path id="Trazado_1192355" data-name="Trazado 1192355" d="M198.927,147.136a7.03,7.03,0,0,1-6.943,7.111h-.174a7.03,7.03,0,0,1-6.942-7.111V128.525a7.03,7.03,0,0,1,6.942-7.113h.174a7.031,7.031,0,0,1,6.943,7.113Z" transform="translate(-43.334 -28.46)" fill="#e5ab81"/>
        <path id="Trazado_1192356" data-name="Trazado 1192356" d="M217.132,150.628a7.029,7.029,0,0,1-6.943,7.115h-.175a7.03,7.03,0,0,1-6.944-7.115V132.02a7.031,7.031,0,0,1,6.944-7.113h.175a7.03,7.03,0,0,1,6.943,7.113Z" transform="translate(-47.601 -29.279)" fill="#e5ab81"/>
        <path id="Trazado_1192357" data-name="Trazado 1192357" d="M235.5,155.241a7.03,7.03,0,0,1-6.945,7.112h-.174a7.028,7.028,0,0,1-6.942-7.112v-18.61a7.029,7.029,0,0,1,6.942-7.113h.174a7.031,7.031,0,0,1,6.945,7.113Z" transform="translate(-51.906 -30.36)" fill="#e5ab81"/>
        <path id="Trazado_1192358" data-name="Trazado 1192358" d="M180.563,152.339a7.03,7.03,0,0,1-6.944,7.112h-.175a7.03,7.03,0,0,1-6.942-7.112" transform="translate(-39.029 -35.709)" fill="none" stroke="#dc8a6e" stroke-linecap="round" stroke-linejoin="round" stroke-width="1.791"/>
        <path id="Trazado_1192359" data-name="Trazado 1192359" d="M198.927,155.012a7.03,7.03,0,0,1-6.943,7.111h-.174a7.03,7.03,0,0,1-6.942-7.111" transform="translate(-43.334 -36.336)" fill="none" stroke="#dc8a6e" stroke-linecap="round" stroke-linejoin="round" stroke-width="2"/>
        <path id="Trazado_1192360" data-name="Trazado 1192360" d="M217.132,153.888A7.029,7.029,0,0,1,210.188,161h-.175a7.03,7.03,0,0,1-6.944-7.115V138.815" transform="translate(-47.601 -32.539)" fill="none" stroke="#dc8a6e" stroke-linecap="round" stroke-linejoin="round" stroke-width="2"/>
        <path id="Trazado_1192361" data-name="Trazado 1192361" d="M221.437,140.186v17.557a7.029,7.029,0,0,0,6.942,7.112h.174a7.031,7.031,0,0,0,6.945-7.112" transform="translate(-51.906 -32.861)" fill="none" stroke="#dc8a6e" stroke-linecap="round" stroke-linejoin="round" stroke-width="2"/>
        <path id="Trazado_1192362" data-name="Trazado 1192362" d="M171.437,209.485l-8.354,99.4H217.81l-4.586-96.02Z" transform="translate(-38.228 -49.105)" fill="#e5ab81"/>
        <path id="Trazado_1192363" data-name="Trazado 1192363" d="M169.871,192.792s-11.379-10.845-12.981-21.513c-1.715-11.436,1.245-31.474,6.49-32.186s29.252-1.424,29.785,0,4.446,11.558-14.4,13.69c0,0,30.905,18.315,15.1,44.455,0,0-17.052.177-23.987-4.447" transform="translate(-36.662 -32.412)" fill="#e5ab81"/>
        <path id="Trazado_1192364" data-name="Trazado 1192364" d="M165.517,139.094c5.246-.712,29.252-1.424,29.785,0s4.446,11.558-14.4,13.69c0,0,30.905,18.315,15.1,44.454" transform="translate(-38.798 -32.412)" fill="none" stroke="#dc8a6e" stroke-linecap="round" stroke-linejoin="round" stroke-width="2"/>
        <line id="Línea_1045" data-name="Línea 1045" x1="9.468" y1="0.834" transform="translate(134.06 160.38)" fill="none" stroke="#dc8a6e" stroke-linecap="round" stroke-linejoin="round" stroke-width="2"/>
        <path id="Trazado_1192365" data-name="Trazado 1192365" d="M216.689,233.869l-.805-14.259H170.551l-.945,14.259Z" transform="translate(-39.757 -51.478)" fill="#fff"/>
        <path id="Trazado_1192366" data-name="Trazado 1192366" d="M182.977,227.224a3.2,3.2,0,1,1-3.2-3.2,3.2,3.2,0,0,1,3.2,3.2" transform="translate(-41.392 -52.513)" fill="#2e333b"/>
        <path id="Trazado_1192367" data-name="Trazado 1192367" d="M222.135,336.513H157.7l6.978-100.257H216.2Z" transform="translate(-36.965 -55.38)" fill="#eaaa28"/>
        <line id="Línea_1046" data-name="Línea 1046" x1="5.336" y2="100.257" transform="translate(129.852 180.876)" fill="none" stroke="#e88d2a" stroke-linecap="round" stroke-linejoin="round" stroke-width="2"/>
        <line id="Línea_1047" data-name="Línea 1047" x1="3.493" y2="100.257" transform="translate(140.719 180.876)" fill="none" stroke="#e88d2a" stroke-linecap="round" stroke-linejoin="round" stroke-width="2"/>
        <line id="Línea_1048" data-name="Línea 1048" y2="100.257" transform="translate(153.238 180.876)" fill="none" stroke="#e88d2a" stroke-linecap="round" stroke-linejoin="round" stroke-width="2"/>
        <line id="Línea_1049" data-name="Línea 1049" x2="3.119" y2="100.257" transform="translate(162.263 180.876)" fill="none" stroke="#e88d2a" stroke-linecap="round" stroke-linejoin="round" stroke-width="2"/>
        <line id="Línea_1050" data-name="Línea 1050" x2="3.875" y2="100.257" transform="translate(171.287 180.876)" fill="none" stroke="#e88d2a" stroke-linecap="round" stroke-linejoin="round" stroke-width="2"/>
      </g>
    </g>
  </g>
</svg>
