<svg xmlns="http://www.w3.org/2000/svg" xmlns:xlink="http://www.w3.org/1999/xlink" width="103" height="103" viewBox="0 0 103 103">
  <defs>
    <filter id="Trazado_978624" x="0" y="0" width="103" height="103" filterUnits="userSpaceOnUse">
      <feOffset dy="3" input="SourceAlpha"/>
      <feGaussianBlur stdDeviation="3" result="blur"/>
      <feFlood flood-opacity="0.161"/>
      <feComposite operator="in" in2="blur"/>
      <feComposite in="SourceGraphic"/>
    </filter>
  </defs>
  <g id="Grupo_1229568" data-name="Grupo 1229568" transform="translate(-171 -1577)">
    <g id="Grupo_1229250" data-name="Grupo 1229250" transform="translate(0 -4285.629)">
      <g id="Grupo_1226966" data-name="Grupo 1226966" transform="translate(180 5868.629)">
        <g id="Grupo_1222970" data-name="Grupo 1222970">
          <g id="Grupo_1222589" data-name="Grupo 1222589">
            <g id="Grupo_1203109" data-name="Grupo 1203109">
              <g id="Grupo_1176881" data-name="Grupo 1176881">
                <g id="Grupo_1175148" data-name="Grupo 1175148">
                  <g id="Grupo_1173798" data-name="Grupo 1173798">
                    <g id="Grupo_1171925" data-name="Grupo 1171925">
                      <g id="Grupo_1164524" data-name="Grupo 1164524">
                        <g id="Grupo_1144123" data-name="Grupo 1144123">
                          <g transform="matrix(1, 0, 0, 1, -9, -6)" filter="url(#Trazado_978624)">
                            <g id="Trazado_978624-2" data-name="Trazado 978624" transform="translate(9 6)" fill="#e7f2f8">
                              <path d="M 42.5 83.5 C 36.96437835693359 83.5 31.59512901306152 82.41617584228516 26.54141235351562 80.27863311767578 C 21.65934181213379 78.21369171142578 17.27447128295898 75.25723266601562 13.50862312316895 71.49137878417969 C 9.742764472961426 67.72553253173828 6.786305904388428 63.34066009521484 4.721364498138428 58.45858764648438 C 2.583823442459106 53.40486907958984 1.5 48.03562164306641 1.5 42.5 C 1.5 36.96437835693359 2.583823442459106 31.59512901306152 4.721364498138428 26.54141235351562 C 6.786305904388428 21.65934181213379 9.742764472961426 17.27447128295898 13.50862312316895 13.50862312316895 C 17.27447128295898 9.742764472961426 21.65934181213379 6.786305904388428 26.54141235351562 4.721364498138428 C 31.59512901306152 2.583823442459106 36.96437835693359 1.5 42.5 1.5 C 48.03562164306641 1.5 53.40486907958984 2.583823442459106 58.45858764648438 4.721364498138428 C 63.34066009521484 6.786305904388428 67.72553253173828 9.742764472961426 71.49137878417969 13.50862312316895 C 75.25723266601562 17.27447128295898 78.21369171142578 21.65934181213379 80.27863311767578 26.54141235351562 C 82.41617584228516 31.59512901306152 83.5 36.96437835693359 83.5 42.5 C 83.5 48.03562164306641 82.41617584228516 53.40486907958984 80.27863311767578 58.45858764648438 C 78.21369171142578 63.34066009521484 75.25723266601562 67.72553253173828 71.49137878417969 71.49137878417969 C 67.72553253173828 75.25723266601562 63.34066009521484 78.21369171142578 58.45858764648438 80.27863311767578 C 53.40486907958984 82.41617584228516 48.03562164306641 83.5 42.5 83.5 Z" stroke="none"/>
                              <path d="M 42.5 3 C 37.16621398925781 3 31.99356079101562 4.043960571289062 27.125732421875 6.102882385253906 C 22.42246627807617 8.092185974121094 18.19785308837891 10.94070434570312 14.56928253173828 14.56928253173828 C 10.94070434570312 18.19785308837891 8.092185974121094 22.42246627807617 6.102882385253906 27.125732421875 C 4.043960571289062 31.99356079101562 3 37.16621398925781 3 42.5 C 3 47.83378601074219 4.043960571289062 53.00643920898438 6.102882385253906 57.87425231933594 C 8.092185974121094 62.57753372192383 10.94070434570312 66.80213165283203 14.56928253173828 70.43071746826172 C 18.19786834716797 74.05929565429688 22.42246627807617 76.90781402587891 27.125732421875 78.89711761474609 C 31.99356079101562 80.95603942871094 37.16621398925781 82 42.5 82 C 47.83378601074219 82 53.00642395019531 80.95603942871094 57.87425231933594 78.89711761474609 C 62.57753372192383 76.90781402587891 66.80213165283203 74.05929565429688 70.43071746826172 70.43071746826172 C 74.05929565429688 66.80213165283203 76.90781402587891 62.57753372192383 78.89711761474609 57.87425231933594 C 80.95603942871094 53.00642395019531 82 47.83378601074219 82 42.5 C 82 37.16621398925781 80.95603942871094 31.99356079101562 78.89711761474609 27.125732421875 C 76.90781402587891 22.42246627807617 74.05929565429688 18.19786834716797 70.43071746826172 14.56928253173828 C 66.80213165283203 10.94070434570312 62.57753372192383 8.092185974121094 57.87425231933594 6.102882385253906 C 53.00643920898438 4.043960571289062 47.83378601074219 3 42.5 3 M 42.5 0 C 65.97209167480469 0 85 19.02789306640625 85 42.5 C 85 65.97209167480469 65.97209167480469 85 42.5 85 C 19.02789306640625 85 0 65.97209167480469 0 42.5 C 0 19.02789306640625 19.02789306640625 0 42.5 0 Z" stroke="none" fill="#248abf"/>
                            </g>
                          </g>
                        </g>
                      </g>
                    </g>
                  </g>
                </g>
              </g>
            </g>
          </g>
        </g>
      </g>
    </g>
    <g id="juez_5_" data-name="juez (5)" transform="translate(169.245 1597.331)">
      <g id="Grupo_1229567" data-name="Grupo 1229567" transform="translate(28.993 0.798)">
        <path id="Trazado_1192260" data-name="Trazado 1192260" d="M220.526,25.145a1.1,1.1,0,0,1-.375-1.267,3.724,3.724,0,0,0-.559-3.584,1.1,1.1,0,0,1,0-1.36,3.718,3.718,0,0,0-.738-5.3,8.064,8.064,0,0,1-2.069-2.3c-1.5-2.5-4.375-5.186-9.479-3.218a2.122,2.122,0,0,1-1.525,0l-.038-.014h-.678L202,10.55l-2.065,2.709-1.877,2.28,1.6,4.757v4.013L196.8,26.239l-.563,3.245.483,2.092,1.723.92a5.018,5.018,0,0,0,1.423-2.014l13.3-.144a4.963,4.963,0,0,0,4.324,3.331,4.738,4.738,0,0,0,3.032-8.523Z" transform="translate(-179.014 -7.439)" fill="#ccc6ce"/>
        <path id="Trazado_1192261" data-name="Trazado 1192261" d="M194.363,293.259l-6.449-2.5-1.4.457-4.564,2.988h-6.6l-4.333-3.464h-1.405l-1.006.393-1.293.7-1.806,2.555-.179.877v7.313l-.149.008.425,3.176,5.017,7.9h21.3l.724-1.073V299.881l3.65-4.143v-1.2A6.3,6.3,0,0,0,194.363,293.259Z" transform="translate(-151.291 -260.351)" fill="#7b6c79"/>
        <path id="Trazado_1192262" data-name="Trazado 1192262" d="M135.824,294.4l-5.439,2.124a6.441,6.441,0,0,0-1.927,1.292v.959l3.57,4.318.3,2.245.4-.117v-5.967C132.726,297.171,134.448,295.448,135.824,294.4Z" transform="translate(-118.506 -263.62)" fill="#665e68"/>
        <g id="Grupo_1229566" data-name="Grupo 1229566" transform="translate(11.927 0)">
          <path id="Trazado_1192263" data-name="Trazado 1192263" d="M152.762,28.937a4.73,4.73,0,0,1,1.893-3.789,1.1,1.1,0,0,0,.375-1.267,3.724,3.724,0,0,1,.559-3.584,1.1,1.1,0,0,0,0-1.36,3.718,3.718,0,0,1,.738-5.3,8.065,8.065,0,0,0,2.069-2.3,8.273,8.273,0,0,1,3.28-3.232c-5.08-1.94-7.95.739-9.441,3.232a8.069,8.069,0,0,1-2.069,2.3,3.718,3.718,0,0,0-.738,5.3,1.1,1.1,0,0,1,0,1.36,3.724,3.724,0,0,0-.558,3.586,1.1,1.1,0,0,1-.376,1.265,4.748,4.748,0,0,0-1.62,2.206l.441.47h2.333v4.961l.681.781a4.769,4.769,0,0,0,1.2.1,4.693,4.693,0,0,0,2.849-1.173A4.726,4.726,0,0,1,152.762,28.937Z" transform="translate(-146.874 -7.443)" fill="#b7aeb8"/>
        </g>
        <path id="Trazado_1192264" data-name="Trazado 1192264" d="M294.068,242.747a.774.774,0,0,1-.495-.72l0-3.173A7.589,7.589,0,0,1,289.4,240.1c-.14,0-.277,0-.414-.011v6.25h3.156l1.931-2.289.091-1.263Z" transform="translate(-261.815 -214.029)" fill="#ffcebe"/>
        <path id="Trazado_1192265" data-name="Trazado 1192265" d="M251.126,240a7.991,7.991,0,0,1-4.279-1.253v3.179a.712.712,0,0,1-.33.627l-.272.106v.7L248,246.242h3.129V240Z" transform="translate(-223.658 -213.934)" fill="#ffb1a0"/>
        <path id="Trazado_1192266" data-name="Trazado 1192266" d="M112.393,329.041l-2.746-2.807c-.149.142-.3.293-.438.454l-.372.367V332.1l-1.45,1.517v3.83l.664.535h4.774l1.188-.535v-4.44A5.676,5.676,0,0,0,112.393,329.041Z" transform="translate(-99.696 -292.035)" fill="#544e55"/>
        <path id="Trazado_1192267" data-name="Trazado 1192267" d="M419.717,345.269a1.4,1.4,0,0,0,1.4-1.4V331.358a7.285,7.285,0,0,0-2.251-5.215l-2.755,2.816a5.675,5.675,0,0,0-1.618,3.969v12.341Z" transform="translate(-373.852 -291.954)" fill="#665e68"/>
        <path id="Trazado_1192268" data-name="Trazado 1192268" d="M94.044,267.7V254.437H90.4V267.7a1.822,1.822,0,1,0,3.645,0Z" transform="translate(-84.53 -227.94)" fill="#bd7b62"/>
        <path id="Trazado_1192269" data-name="Trazado 1192269" d="M124.208,430.784h-6.052l-.457.106-.873.688-.42,1.1v2.978h10.026v-2.648A2.223,2.223,0,0,0,124.208,430.784Z" transform="translate(-107.746 -385.37)" fill="#bd7b62"/>
        <path id="Trazado_1192270" data-name="Trazado 1192270" d="M64.277,430.784H57.591a2.223,2.223,0,0,0-2.223,2.223v2.648h6.685v-2.648A2.223,2.223,0,0,1,64.277,430.784Z" transform="translate(-53.257 -385.37)" fill="#ad6a50"/>
        <path id="Trazado_1192271" data-name="Trazado 1192271" d="M282.005,350.533,278.1,337.718l-2.4-.242L273.841,352.3a18.566,18.566,0,0,0,2.138.125,15.719,15.719,0,0,0,5.62-1.029A.69.69,0,0,0,282.005,350.533Z" transform="translate(-248.293 -302.071)" fill="#dbedff"/>
        <path id="Trazado_1192272" data-name="Trazado 1192272" d="M237.353,337.721l-3.9,12.8a.7.7,0,0,0,.426.866,16.844,16.844,0,0,0,2.9.774l1.59-1.38,1.39-12.6-.474-.7Z" transform="translate(-212.206 -302.077)" fill="#b5dcff"/>
        <path id="Trazado_1192273" data-name="Trazado 1192273" d="M294.987,302.749l-1.271-.7a7.48,7.48,0,0,1-3.059.649l-.107,0-.144.191v3.54l.144.125h.084a5.829,5.829,0,0,0,4.889-2.687Z" transform="translate(-263.081 -270.442)" fill="#b5dcff"/>
        <path id="Trazado_1192274" data-name="Trazado 1192274" d="M250.365,302.711a8.214,8.214,0,0,1-3.138-.644l-1.181.522-.654,1.309a5.881,5.881,0,0,0,4.973,2.668Z" transform="translate(-222.896 -270.461)" fill="#8bcaff"/>
        <path id="Trazado_1192275" data-name="Trazado 1192275" d="M206.5,276.884l2.885,2.885a1.059,1.059,0,0,0,1.5,0l1.468-1.468a1.058,1.058,0,0,0,0-1.5l-1.586-1.586Z" transform="translate(-188.174 -246.493)" fill="#938493"/>
        <path id="Trazado_1192276" data-name="Trazado 1192276" d="M321.628,280.015a1.059,1.059,0,0,0,1.5,0l2.866-2.866-4.274-1.655-1.556,1.556a1.058,1.058,0,0,0,0,1.5Z" transform="translate(-289.367 -246.738)" fill="#938493"/>
        <path id="Trazado_1192277" data-name="Trazado 1192277" d="M55.385,470.46h-18.6a1.1,1.1,0,0,0-1.1,1.1V473a1.1,1.1,0,0,0,1.1,1.1h18.6a1.1,1.1,0,0,0,1.1-1.1V471.56a1.1,1.1,0,0,0-1.1-1.1Z" transform="translate(-35.689 -420.789)" fill="#ffe559"/>
        <path id="Trazado_1192278" data-name="Trazado 1192278" d="M35.922,196.747l.483.308H39.8v-3.5l-.625-.5H36.782a1.093,1.093,0,0,0-1.093,1.093v2.076Z" transform="translate(-35.689 -173.147)" fill="#fbc700"/>
        <path id="Trazado_1192279" data-name="Trazado 1192279" d="M36.782,220.187a1.093,1.093,0,0,1-1.093-1.093v3.886a1.093,1.093,0,0,0,1.093,1.093h2.391l.625-.3v-3.886l-.625.3Z" transform="translate(-35.689 -196.389)" fill="#eab900"/>
        <path id="Trazado_1192280" data-name="Trazado 1192280" d="M144.78,197.054h2.946l.51-.353.225-.436v-2.114a1.093,1.093,0,0,0-1.093-1.093h-2.391l-.2.184v3.813Z" transform="translate(-133.077 -173.146)" fill="#fbc700"/>
        <path id="Trazado_1192281" data-name="Trazado 1192281" d="M147.368,220.187h-2.391l-.2-.275V223.8l.2.275h2.391a1.093,1.093,0,0,0,1.093-1.093v-3.886A1.093,1.093,0,0,1,147.368,220.187Z" transform="translate(-133.078 -196.389)" fill="#eab900"/>
        <path id="Trazado_1192282" data-name="Trazado 1192282" d="M68.163,193.058h8.415v4H68.163Z" transform="translate(-64.679 -173.146)" fill="#ffe559"/>
        <path id="Trazado_1192283" data-name="Trazado 1192283" d="M68.163,229.281h8.415v3.886H68.163Z" transform="translate(-64.679 -205.483)" fill="#ffd500"/>
        <path id="Trazado_1192284" data-name="Trazado 1192284" d="M275.487,102.468a11.289,11.289,0,0,1-5.682-1.505,3.4,3.4,0,0,0-3.319,0c-.286.16-.6.323-.949.48l-.3.581v10.137l1.85,2.977,2.783,1.522.4.118.431.03a7.742,7.742,0,0,0,5.132-7.26V102.8A.34.34,0,0,0,275.487,102.468Z" transform="translate(-240.613 -90.542)" fill="#ffdecf"/>
        <path id="Trazado_1192285" data-name="Trazado 1192285" d="M224.793,117.182v-8.163a10.883,10.883,0,0,1-4.842,1.026.34.34,0,0,0-.353.336v6.8a7.644,7.644,0,0,0,7.847,7.636,7.48,7.48,0,0,0,2.515-.433,7.585,7.585,0,0,1-5.167-7.2Z" transform="translate(-199.869 -98.122)" fill="#ffcebe"/>
        <path id="Trazado_1192286" data-name="Trazado 1192286" d="M110.019,470.46H97.79l-.266.058-.443.416-.192.416v1.931l.332.557.379.2.286.063h12.133a1.1,1.1,0,0,0,1.1-1.1V471.56A1.1,1.1,0,0,0,110.019,470.46Z" transform="translate(-90.324 -420.789)" fill="#ffe559"/>
        <path id="Trazado_1192287" data-name="Trazado 1192287" d="M42.374,473V471.56a1.1,1.1,0,0,1,1.1-1.1H36.789a1.1,1.1,0,0,0-1.1,1.1V473a1.1,1.1,0,0,0,1.1,1.1h6.685A1.1,1.1,0,0,1,42.374,473Z" transform="translate(-35.689 -420.789)" fill="#ffd500"/>
      </g>
      <path id="Trazado_1192288" data-name="Trazado 1192288" d="M30.093,54.918H54.782a.8.8,0,1,0,0-1.609H50.571c0-.022.005-.045.008-.068s0-.034.006-.051c.005-.058.009-.117.009-.176V51.569A1.9,1.9,0,0,0,50.508,51c-.012-.038-.027-.075-.041-.112a18.327,18.327,0,0,0,6.212,1.061H56.7a16.5,16.5,0,0,0,5.888-1.081,1.493,1.493,0,0,0,.889-1.85L59.768,36.866a6.693,6.693,0,0,0,1.975-1.7,1.847,1.847,0,0,0,1.578-.525l2.5-2.5,5.952,2.305a5.13,5.13,0,0,1,1.049.6l-2.144,2.192a6.444,6.444,0,0,0-1.848,4.531v2.563a.8.8,0,1,0,1.609,0V41.773a4.844,4.844,0,0,1,1.389-3.406l2.16-2.208A6.4,6.4,0,0,1,75.45,40.2V52.718a.592.592,0,0,1-.591.591H70.434V48.09a.8.8,0,1,0-1.609,0v5.219H58.537a.8.8,0,1,0,0,1.609H74.859a2.2,2.2,0,0,0,2.2-2.2V40.2a7.935,7.935,0,0,0-4.686-7.24l-.016-.006-10.8-4.183,0-2.124a8.619,8.619,0,0,0,1.477-1.395,5.745,5.745,0,0,0,4.411,2.577,5.543,5.543,0,0,0,3.547-9.97h0a.3.3,0,0,1-.1-.344,4.529,4.529,0,0,0-.68-4.359.294.294,0,0,1,0-.368A4.479,4.479,0,0,0,71.165,10a4.541,4.541,0,0,0-1.857-3.654,7.243,7.243,0,0,1-1.853-2.066C65.076.306,61.362-.956,57,.727a1.312,1.312,0,0,1-.946,0C51.685-.956,47.97.306,45.591,4.283a7.246,7.246,0,0,1-1.853,2.066A4.541,4.541,0,0,0,41.881,10a4.479,4.479,0,0,0,.961,2.788.294.294,0,0,1,0,.368,4.529,4.529,0,0,0-.679,4.362.293.293,0,0,1-.105.341,5.531,5.531,0,0,0-1.673,2.045h-10.3a1.9,1.9,0,0,0-1.9,1.9v5.586a1.9,1.9,0,0,0,1.9,1.9h3.972V40.56a2.631,2.631,0,0,0,1.822,2.5v2.348H33.328A3.031,3.031,0,0,0,30.3,48.436v1.228h-.207a1.907,1.907,0,0,0-1.9,1.9v1.445a1.907,1.907,0,0,0,1.9,1.9ZM49.471,49a1.489,1.489,0,0,0-.025.82,1.891,1.891,0,0,0-.757-.158h-.206V48.436a3.031,3.031,0,0,0-3.028-3.028H44.114V41.772a6.444,6.444,0,0,0-1.848-4.531l-2.138-2.185a5.069,5.069,0,0,1,1.044-.6L47.12,32.13l2.513,2.513a1.852,1.852,0,0,0,1.537.53,6.484,6.484,0,0,0,2,1.7Zm-6.965-7.23v3.636H37.489V43.061a2.635,2.635,0,0,0,1.822-2.5h0V36.522l1.8,1.845A4.843,4.843,0,0,1,42.505,41.772Zm6.251-10.281,2.627-1.026L52.6,31.679a.254.254,0,0,1,0,.359l-1.468,1.468a.256.256,0,0,1-.358,0ZM61.909,49.406a14.9,14.9,0,0,1-2.625.712l-.43-3.469a.8.8,0,0,0-1.6.2l.429,3.464q-.492.032-.989.033H56.68q-.717,0-1.418-.058l.426-3.438a.8.8,0,0,0-1.6-.2l-.425,3.432a16.043,16.043,0,0,1-2.63-.695l3.633-11.918a7.388,7.388,0,0,0,1.876.242h.013a6.553,6.553,0,0,0,1.716-.231ZM56.552,36.1h-.006a5.163,5.163,0,0,1-3.977-1.759l.986-.986a9.143,9.143,0,0,0,3.013.5h.01a8.238,8.238,0,0,0,2.825-.5l.958.958A5,5,0,0,1,56.552,36.1Zm-3.775-6.519a1.547,1.547,0,0,0,.211-.791V27.576a8.876,8.876,0,0,0,6.958.021v1.2a1.58,1.58,0,0,0,.217.8l-.945.945a1.856,1.856,0,0,0-.542,1.368,6.559,6.559,0,0,1-2.105.337,7.6,7.6,0,0,1-2.292-.346,1.856,1.856,0,0,0-.543-1.359Zm11.4,1.931-1.993,1.993a.254.254,0,0,1-.359,0h0l-1.467-1.467h0a.254.254,0,0,1,0-.359l1.186-1.186ZM63.412,19.8a6.943,6.943,0,0,1-13.885.057V13.53a12.2,12.2,0,0,0,5.733-1.612,2.574,2.574,0,0,1,2.426-.052,12.541,12.541,0,0,0,5.726,1.662Zm-20.387-.654a1.9,1.9,0,0,0,.646-2.188,2.92,2.92,0,0,1,.437-2.81,1.9,1.9,0,0,0,0-2.352A2.885,2.885,0,0,1,43.49,10a2.926,2.926,0,0,1,1.2-2.354,8.914,8.914,0,0,0,2.285-2.539c1.987-3.32,4.846-4.289,8.5-2.88a2.918,2.918,0,0,0,2.1,0c3.653-1.409,6.512-.44,8.5,2.88a8.911,8.911,0,0,0,2.285,2.539A2.926,2.926,0,0,1,69.556,10a2.884,2.884,0,0,1-.619,1.8,1.9,1.9,0,0,0,0,2.353,2.919,2.919,0,0,1,.438,2.808,1.9,1.9,0,0,0,.646,2.19A3.933,3.933,0,0,1,67.5,26.223a4.127,4.127,0,0,1-3.467-2.459,8.484,8.484,0,0,0,.984-3.964c0-7.438,0-6.691,0-6.778a1.137,1.137,0,0,0-1.164-1.1,10.505,10.505,0,0,1-5.278-1.4,4.174,4.174,0,0,0-4.1,0c-.129.072-.268.146-.412.219A10.282,10.282,0,0,1,49.1,11.917a1.141,1.141,0,0,0-1.177,1.145h0v6.794a8.443,8.443,0,0,0,1.028,4.04,4.155,4.155,0,0,1-3.4,2.326q-.181.007-.362,0V21.8a1.9,1.9,0,0,0-1.9-1.9H42.26A3.951,3.951,0,0,1,43.025,19.147ZM41.7,21.515h1.586a.289.289,0,0,1,.288.288v5.586a.289.289,0,0,1-.288.288H41.7Zm1.586,7.772a1.9,1.9,0,0,0,1.844-1.46c.159.007.318.011.477,0a5.693,5.693,0,0,0,4.348-2.48,8.08,8.08,0,0,0,1.426,1.311V28.74l-10.8,4.217-.014.005a6.544,6.544,0,0,0-1.255.7V29.287ZM31.672,27.677H30.086a.289.289,0,0,1-.288-.288V21.8a.289.289,0,0,1,.288-.288h1.586Zm1.609,0V21.515h6.806v6.162ZM35.667,40.56V29.287H37.7v6.164h0V40.56a1.018,1.018,0,0,1-2.035,0Zm-3.758,7.876a1.42,1.42,0,0,1,1.419-1.419H45.455a1.42,1.42,0,0,1,1.419,1.419v1.228H31.909ZM29.8,51.569a.3.3,0,0,1,.3-.3h18.6a.3.3,0,0,1,.3.3v1.445a.3.3,0,0,1-.3.3h-18.6a.3.3,0,0,1-.3-.3V51.569Z" transform="translate(0 0)"/>
    </g>
  </g>
</svg>
