<svg xmlns="http://www.w3.org/2000/svg" xmlns:xlink="http://www.w3.org/1999/xlink" width="103" height="103" viewBox="0 0 103 103">
  <defs>
    <filter id="Trazado_978624" x="0" y="0" width="103" height="103" filterUnits="userSpaceOnUse">
      <feOffset dy="3" input="SourceAlpha"/>
      <feGaussianBlur stdDeviation="3" result="blur"/>
      <feFlood flood-opacity="0.161"/>
      <feComposite operator="in" in2="blur"/>
      <feComposite in="SourceGraphic"/>
    </filter>
  </defs>
  <g id="Grupo_1230224" data-name="Grupo 1230224" transform="translate(-171 -4391)">
    <g id="Grupo_1229520" data-name="Grupo 1229520" transform="translate(0 -1471.629)">
      <g id="Grupo_1226966" data-name="Grupo 1226966" transform="translate(180 5868.629)">
        <g id="Grupo_1222970" data-name="Grupo 1222970">
          <g id="Grupo_1222589" data-name="Grupo 1222589">
            <g id="Grupo_1203109" data-name="Grupo 1203109">
              <g id="Grupo_1176881" data-name="Grupo 1176881">
                <g id="Grupo_1175148" data-name="Grupo 1175148">
                  <g id="Grupo_1173798" data-name="Grupo 1173798">
                    <g id="Grupo_1171925" data-name="Grupo 1171925">
                      <g id="Grupo_1164524" data-name="Grupo 1164524">
                        <g id="Grupo_1144123" data-name="Grupo 1144123">
                          <g transform="matrix(1, 0, 0, 1, -9, -6)" filter="url(#Trazado_978624)">
                            <g id="Trazado_978624-2" data-name="Trazado 978624" transform="translate(9 6)" fill="#e7f2f8">
                              <path d="M 42.5 83.5 C 36.96437835693359 83.5 31.59512901306152 82.41617584228516 26.54141235351562 80.27863311767578 C 21.65934181213379 78.21369171142578 17.27447128295898 75.25723266601562 13.50862312316895 71.49137878417969 C 9.742764472961426 67.72553253173828 6.786305904388428 63.34066009521484 4.721364498138428 58.45858764648438 C 2.583823442459106 53.40486907958984 1.5 48.03562164306641 1.5 42.5 C 1.5 36.96437835693359 2.583823442459106 31.59512901306152 4.721364498138428 26.54141235351562 C 6.786305904388428 21.65934181213379 9.742764472961426 17.27447128295898 13.50862312316895 13.50862312316895 C 17.27447128295898 9.742764472961426 21.65934181213379 6.786305904388428 26.54141235351562 4.721364498138428 C 31.59512901306152 2.583823442459106 36.96437835693359 1.5 42.5 1.5 C 48.03562164306641 1.5 53.40486907958984 2.583823442459106 58.45858764648438 4.721364498138428 C 63.34066009521484 6.786305904388428 67.72553253173828 9.742764472961426 71.49137878417969 13.50862312316895 C 75.25723266601562 17.27447128295898 78.21369171142578 21.65934181213379 80.27863311767578 26.54141235351562 C 82.41617584228516 31.59512901306152 83.5 36.96437835693359 83.5 42.5 C 83.5 48.03562164306641 82.41617584228516 53.40486907958984 80.27863311767578 58.45858764648438 C 78.21369171142578 63.34066009521484 75.25723266601562 67.72553253173828 71.49137878417969 71.49137878417969 C 67.72553253173828 75.25723266601562 63.34066009521484 78.21369171142578 58.45858764648438 80.27863311767578 C 53.40486907958984 82.41617584228516 48.03562164306641 83.5 42.5 83.5 Z" stroke="none"/>
                              <path d="M 42.5 3 C 37.16621398925781 3 31.99356079101562 4.043960571289062 27.125732421875 6.102882385253906 C 22.42246627807617 8.092185974121094 18.19785308837891 10.94070434570312 14.56928253173828 14.56928253173828 C 10.94070434570312 18.19785308837891 8.092185974121094 22.42246627807617 6.102882385253906 27.125732421875 C 4.043960571289062 31.99356079101562 3 37.16621398925781 3 42.5 C 3 47.83378601074219 4.043960571289062 53.00643920898438 6.102882385253906 57.87425231933594 C 8.092185974121094 62.57753372192383 10.94070434570312 66.80213165283203 14.56928253173828 70.43071746826172 C 18.19786834716797 74.05929565429688 22.42246627807617 76.90781402587891 27.125732421875 78.89711761474609 C 31.99356079101562 80.95603942871094 37.16621398925781 82 42.5 82 C 47.83378601074219 82 53.00642395019531 80.95603942871094 57.87425231933594 78.89711761474609 C 62.57753372192383 76.90781402587891 66.80213165283203 74.05929565429688 70.43071746826172 70.43071746826172 C 74.05929565429688 66.80213165283203 76.90781402587891 62.57753372192383 78.89711761474609 57.87425231933594 C 80.95603942871094 53.00642395019531 82 47.83378601074219 82 42.5 C 82 37.16621398925781 80.95603942871094 31.99356079101562 78.89711761474609 27.125732421875 C 76.90781402587891 22.42246627807617 74.05929565429688 18.19786834716797 70.43071746826172 14.56928253173828 C 66.80213165283203 10.94070434570312 62.57753372192383 8.092185974121094 57.87425231933594 6.102882385253906 C 53.00643920898438 4.043960571289062 47.83378601074219 3 42.5 3 M 42.5 0 C 65.97209167480469 0 85 19.02789306640625 85 42.5 C 85 65.97209167480469 65.97209167480469 85 42.5 85 C 19.02789306640625 85 0 65.97209167480469 0 42.5 C 0 19.02789306640625 19.02789306640625 0 42.5 0 Z" stroke="none" fill="#248abf"/>
                            </g>
                          </g>
                        </g>
                      </g>
                    </g>
                  </g>
                </g>
              </g>
            </g>
          </g>
        </g>
      </g>
    </g>
    <g id="libro-de-leyes_1_" data-name="libro-de-leyes (1)" transform="translate(195.505 4412.827)">
      <g id="Grupo_1230222" data-name="Grupo 1230222" transform="translate(1.14 0.781)">
        <g id="Grupo_1230215" data-name="Grupo 1230215">
          <path id="Trazado_1193362" data-name="Trazado 1193362" d="M322.708,320.711v13.46H313.64V321.632Z" transform="translate(-281.78 -288.077)" fill="gray"/>
          <path id="Trazado_1193363" data-name="Trazado 1193363" d="M77.714,359.939a5.176,5.176,0,0,1,0-5.547l-15.371-2.679H43.123v10.23h26.59Z" transform="translate(-39.448 -315.849)" fill="#f6f6f6"/>
          <path id="Trazado_1193364" data-name="Trazado 1193364" d="M48.783,9.5V44.04l-34.148.826-1.954.056L7.855,48.816V14.28a6.788,6.788,0,0,1,6.78-6.78H46.781a2,2,0,0,1,2,2Z" transform="translate(-7.855 -7.5)" fill="gray"/>
          <path id="Trazado_1193365" data-name="Trazado 1193365" d="M14.635,7.5V44.866l-1.954.056L7.855,48.816V14.28a6.788,6.788,0,0,1,6.78-6.78Z" transform="translate(-7.855 -7.5)" fill="#595959"/>
          <path id="Trazado_1193366" data-name="Trazado 1193366" d="M46.783,352.536H14.638a6.78,6.78,0,0,1,0-13.559H46.783a2,2,0,1,1,0,4.006H14.638a2.774,2.774,0,1,0,0,5.548H46.783a2,2,0,1,1,0,4.005Z" transform="translate(-7.858 -304.44)" fill="#595959"/>
          <path id="Trazado_1193367" data-name="Trazado 1193367" d="M88.058,377.426v11.96a1.277,1.277,0,0,1-2.066,1L84.4,389.14a1.28,1.28,0,0,0-1.577,0l-1.595,1.251a1.276,1.276,0,0,1-2.065-1v-11.96Z" transform="translate(-71.731 -338.883)" fill="#ffe07d"/>
          <path id="Trazado_1193368" data-name="Trazado 1193368" d="M79.159,377.426h8.9v4.929h-8.9Z" transform="translate(-71.73 -338.883)" fill="#ffd064"/>
        </g>
        <g id="Grupo_1230216" data-name="Grupo 1230216" transform="translate(12.621 4.003)">
          <path id="Trazado_1193369" data-name="Trazado 1193369" d="M227.182,67.931h-3.3V47.57a1.652,1.652,0,0,1,3.3,0Z" transform="translate(-213.99 -45.918)" fill="#ffd064"/>
          <path id="Trazado_1193370" data-name="Trazado 1193370" d="M160.208,86.223H144.237a2.193,2.193,0,1,0,0,4.386h3.6a4.386,4.386,0,0,0,8.772,0h3.6a2.193,2.193,0,1,0,0-4.386Z" transform="translate(-140.684 -82.024)" fill="#ffe07d"/>
          <path id="Trazado_1193371" data-name="Trazado 1193371" d="M128.988,184.481a3.553,3.553,0,1,0,7.107,0Z" transform="translate(-128.988 -170.044)" fill="#ffe07d"/>
          <circle id="Elipse_14833" data-name="Elipse 14833" cx="1.553" cy="1.553" r="1.553" transform="translate(9.986 7.01)" fill="#ffd064"/>
          <path id="Trazado_1193372" data-name="Trazado 1193372" d="M184.942,244.693h-10.7a1.645,1.645,0,1,1,0-3.289h10.7a1.645,1.645,0,1,1,0,3.289Z" transform="translate(-168.052 -221.036)" fill="#ffe07d"/>
        </g>
        <g id="Grupo_1230221" data-name="Grupo 1230221" transform="translate(19.063 15.187)">
          <g id="Grupo_1230217" data-name="Grupo 1230217" transform="translate(0 0.001)">
            <path id="Trazado_1193373" data-name="Trazado 1193373" d="M223.458,165.8v13.313a11.921,11.921,0,0,1-1.92,6.489h0a7.375,7.375,0,0,0-1.189,4.016v.242H203.976v-.937a3.6,3.6,0,0,0-1.053-2.542l-11.1-11.1a3.445,3.445,0,1,1,4.871-4.872l3.119,3.119V159.08a3.1,3.1,0,1,1,6.2,0v-2.656a3.152,3.152,0,0,1,3.127-3.155,3.1,3.1,0,0,1,3.074,3.1v3.2a3.1,3.1,0,1,1,6.2,0V165.8a2.523,2.523,0,1,1,5.046,0Z" transform="translate(-190.812 -153.269)" fill="#ffddce"/>
          </g>
          <g id="Grupo_1230218" data-name="Grupo 1230218" transform="translate(27.601 10.012)">
            <path id="Trazado_1193374" data-name="Trazado 1193374" d="M455.717,259.19v-7.313a2.522,2.522,0,0,1,3.113-2.453,2.523,2.523,0,0,0-1.932,2.453v6.132A1.181,1.181,0,0,1,455.717,259.19Z" transform="translate(-455.717 -249.353)" fill="#ffcbbe"/>
          </g>
          <g id="Grupo_1230219" data-name="Grupo 1230219" transform="translate(9)">
            <path id="Trazado_1193375" data-name="Trazado 1193375" d="M281.03,179.373a3.1,3.1,0,0,0-2.362,3.011v15.171h-.758l-.718-.718V182.385a3.1,3.1,0,0,1,3.838-3.011Z" transform="translate(-277.192 -176.573)" fill="#ffcbbe"/>
            <path id="Trazado_1193376" data-name="Trazado 1193376" d="M336.7,170.042V156.365a3.1,3.1,0,0,1,3.838-3.011,3.1,3.1,0,0,0-2.362,3.011v12.2A1.476,1.476,0,0,1,336.7,170.042Z" transform="translate(-330.5 -153.264)" fill="#ffcbbe"/>
            <path id="Trazado_1193377" data-name="Trazado 1193377" d="M396.208,197.676V187.1a3.1,3.1,0,0,1,3.838-3.011,3.1,3.1,0,0,0-2.362,3.011v9.1A1.476,1.476,0,0,1,396.208,197.676Z" transform="translate(-383.808 -180.801)" fill="#ffcbbe"/>
          </g>
          <g id="Grupo_1230220" data-name="Grupo 1230220" transform="translate(0.001 16.449)">
            <path id="Trazado_1193378" data-name="Trazado 1193378" d="M208.11,328.652v2.634h-4.126v-.937a3.59,3.59,0,0,0-1.053-2.541l-11.1-11.1a3.446,3.446,0,0,1,1-5.568,3.447,3.447,0,0,0,.7,3.87l13.528,11.1A3.6,3.6,0,0,1,208.11,328.652Z" transform="translate(-190.822 -311.14)" fill="#ffcbbe"/>
          </g>
        </g>
      </g>
      <g id="Grupo_1230223" data-name="Grupo 1230223" transform="translate(0.359 0)">
        <path id="Trazado_1193379" data-name="Trazado 1193379" d="M222,108.034a2.334,2.334,0,1,0-2.334,2.334A2.337,2.337,0,0,0,222,108.034Zm-3.105,0a.771.771,0,1,1,.771.771A.772.772,0,0,1,218.9,108.034Z" transform="translate(-194.729 -94.687)"/>
        <path id="Trazado_1193380" data-name="Trazado 1193380" d="M50.326,25.2a3.283,3.283,0,0,0-1.742.495V22.272a3.879,3.879,0,0,0-5.734-3.409V2.784A2.787,2.787,0,0,0,40.066,0H14.581a.781.781,0,0,0,0,1.563H40.066a1.223,1.223,0,0,1,1.221,1.221V16.365l-.039-.041a3.865,3.865,0,0,0-2.712-1.136h-.03A3.826,3.826,0,0,0,35.8,16.316q-.116.115-.221.239L34.4,13.935A2.974,2.974,0,0,0,33.286,8.2H27.734V6.437a2.433,2.433,0,1,0-4.867,0V8.2H17.314A2.974,2.974,0,0,0,16.2,13.935L14.176,18.44h-.415a.781.781,0,0,0-.781.781,4.335,4.335,0,1,0,8.67,0,.781.781,0,0,0-.781-.781h-.415l-1.93-4.289h1.669a5.18,5.18,0,0,0,2.675,3.776v6.444H19.949a2.426,2.426,0,1,0,0,4.851h8.472v5.124l-1.785-1.785a4.228,4.228,0,0,0-7.093,1.976H8.7V1.563h2.754a.781.781,0,1,0,0-1.563H7.92A7.57,7.57,0,0,0,.359,7.561V42.1a7.568,7.568,0,0,0,7.429,7.557v1.63a2.059,2.059,0,0,0,3.329,1.62l1.6-1.251a.5.5,0,0,1,.612,0l1.6,1.251a2.059,2.059,0,0,0,3.329-1.62V49.659H31.78a2.833,2.833,0,0,1,.8,1.969v.937a.781.781,0,0,0,1.563,0v-.937a4.407,4.407,0,0,0-1.282-3.095l-11.1-11.1a2.663,2.663,0,0,1,3.766-3.767l3.119,3.119a.781.781,0,0,0,1.334-.553V21.78a2.319,2.319,0,1,1,4.637,0h0V32.747a.781.781,0,1,0,1.563,0V19.124a2.412,2.412,0,0,1,.714-1.7,2.274,2.274,0,0,1,1.607-.675h.018a2.317,2.317,0,0,1,2.3,2.318V25.7a.781.781,0,1,0,1.563,0V22.28s0-.005,0-.008a2.318,2.318,0,1,1,4.637,0V35.817a.781.781,0,1,0,1.563,0V28.5s0,0,0,0a1.741,1.741,0,0,1,3.483,0V41.817a11.115,11.115,0,0,1-1.794,6.064l-.016.026a8.139,8.139,0,0,0-1.3,4.416v.242a.781.781,0,0,0,1.563,0v-.242a6.58,6.58,0,0,1,1.063-3.59l.016-.026a12.674,12.674,0,0,0,2.03-6.889V28.5a3.308,3.308,0,0,0-3.3-3.3ZM1.922,7.561A6.006,6.006,0,0,1,7.139,1.615V5A7.559,7.559,0,0,0,1.922,7.927Zm0,4.946a6.006,6.006,0,0,1,5.217-5.93V10.21a7.559,7.559,0,0,0-5.217,2.925Zm0,5.207a6.006,6.006,0,0,1,5.217-5.93V22.59a7.559,7.559,0,0,0-5.217,2.925Zm0,12.381a6.006,6.006,0,0,1,5.217-5.93V27.8a7.559,7.559,0,0,0-5.217,2.925Zm0,5.207a6.006,6.006,0,0,1,5.217-5.93v5.205A7.559,7.559,0,0,0,1.922,37.5Zm0,6.8a6.005,6.005,0,0,1,6-6H19.458a4.2,4.2,0,0,0,1.2,2.438l0,0H7.92a3.555,3.555,0,0,0-.133,7.108v2.442A6,6,0,0,1,1.922,42.1Zm16.327-1.993h3.978l3.986,3.985H18.249V40.105ZM7.788,44.084a1.99,1.99,0,0,1,0-3.972Zm8.619,7.647a.483.483,0,0,1-.523-.056l-1.6-1.251a2.054,2.054,0,0,0-2.541,0l-1.6,1.251a.5.5,0,0,1-.8-.39V40.105h7.335v11.18A.482.482,0,0,1,16.407,51.731Zm1.842-6.077h9.527L30.218,48.1H18.249ZM24.43,6.437a.871.871,0,1,1,1.741,0V8.2H24.43ZM17.314,21.993A2.777,2.777,0,0,1,14.655,20h5.32a2.777,2.777,0,0,1-2.66,1.991ZM15.89,18.44l1.425-3.166,1.425,3.166ZM21.7,13.37a.781.781,0,0,0-.781-.781h-3.6a1.412,1.412,0,0,1,0-2.823H33.286a1.412,1.412,0,0,1,0,2.823h-3.6a.781.781,0,0,0-.781.781,3.6,3.6,0,1,1-7.209,0Zm2.734,5.093a5.123,5.123,0,0,0,1.741,0v5.909H24.43V18.463Zm-4.48,9.2a.864.864,0,0,1-.864-.863.864.864,0,0,1,.864-.863h8.472V27.66Zm9.609-8.624a3.86,3.86,0,0,0-1.137,2.744v2.591h-.688V17.927a5.181,5.181,0,0,0,2.675-3.776h1.669l-2,4.45A3.906,3.906,0,0,0,29.558,19.036ZM32.3,17.9c-.067,0-.134,0-.2.005l1.183-2.629L34.691,18.4c-.018.1-.034.193-.045.29A3.859,3.859,0,0,0,32.3,17.9Z" transform="translate(-0.359 0)"/>
        <path id="Trazado_1193381" data-name="Trazado 1193381" d="M389.489,269.17a.781.781,0,0,0-.781.781v4.017a.781.781,0,0,0,1.563,0v-4.017A.781.781,0,0,0,389.489,269.17Z" transform="translate(-348.245 -241.125)"/>
      </g>
    </g>
  </g>
</svg>
