<svg xmlns="http://www.w3.org/2000/svg" xmlns:xlink="http://www.w3.org/1999/xlink" width="108" height="108" viewBox="0 0 108 108">
  <defs>
    <filter id="Trazado_904820" x="0" y="0" width="108" height="108" filterUnits="userSpaceOnUse">
      <feOffset dy="3" input="SourceAlpha"/>
      <feGaussianBlur stdDeviation="3" result="blur"/>
      <feFlood flood-opacity="0.161"/>
      <feComposite operator="in" in2="blur"/>
      <feComposite in="SourceGraphic"/>
    </filter>
  </defs>
  <g id="Grupo_1230214" data-name="Grupo 1230214" transform="translate(9 6)">
    <g id="Grupo_1229457" data-name="Grupo 1229457" transform="translate(0 0)">
      <g id="Grupo_1220471" data-name="Grupo 1220471">
        <g id="Grupo_1219977" data-name="Grupo 1219977">
          <g id="Grupo_1219603" data-name="Grupo 1219603">
            <g id="Grupo_1202655" data-name="Grupo 1202655">
              <g id="Grupo_1173585" data-name="Grupo 1173585">
                <g id="Grupo_1173428" data-name="Grupo 1173428">
                  <g id="Grupo_1171958" data-name="Grupo 1171958">
                    <g id="Grupo_1167341" data-name="Grupo 1167341">
                      <g id="Grupo_1166792" data-name="Grupo 1166792">
                        <g transform="matrix(1, 0, 0, 1, -9, -6)" filter="url(#Trazado_904820)">
                          <g id="Trazado_904820-2" data-name="Trazado 904820" transform="translate(9 6)" fill="#e7f2f8">
                            <path d="M 44.99999618530273 88.49999237060547 C 39.12687301635742 88.49999237060547 33.43022155761719 87.35006713867188 28.06829643249512 85.08216857910156 C 22.88852119445801 82.89130401611328 18.23629570007324 79.75457763671875 14.24084663391113 75.75914001464844 C 10.24540901184082 71.76369476318359 7.108683586120605 67.11146545410156 4.917821407318115 61.93169403076172 C 2.649921178817749 56.56976699829102 1.499996185302734 50.87311553955078 1.499996185302734 44.99999237060547 C 1.499996185302734 39.12686920166016 2.649921178817749 33.43021774291992 4.917821407318115 28.06829261779785 C 7.108683586120605 22.88851737976074 10.24540901184082 18.23630523681641 14.24084663391113 14.24085521697998 C 18.23629570007324 10.24540519714355 22.88852119445801 7.108692169189453 28.06829643249512 4.917829990386963 C 33.43022155761719 2.649929761886597 39.12687301635742 1.500004887580872 44.99999618530273 1.500004887580872 C 50.87311935424805 1.500004887580872 56.56977081298828 2.649929761886597 61.93169784545898 4.917829990386963 C 67.11147308349609 7.108692169189453 71.76369476318359 10.24540519714355 75.75914764404297 14.24085521697998 C 79.75458526611328 18.23630523681641 82.89131164550781 22.88851737976074 85.08216857910156 28.06829261779785 C 87.35007476806641 33.43021774291992 88.5 39.12686920166016 88.5 44.99999237060547 C 88.5 50.87311553955078 87.35007476806641 56.56976699829102 85.08216857910156 61.93169403076172 C 82.89131164550781 67.11146545410156 79.75458526611328 71.76369476318359 75.75914764404297 75.75914001464844 C 71.76369476318359 79.75457763671875 67.11147308349609 82.89130401611328 61.93169784545898 85.08216857910156 C 56.56977081298828 87.35006713867188 50.87311935424805 88.49999237060547 44.99999618530273 88.49999237060547 Z" stroke="none"/>
                            <path d="M 44.99999618530273 2.999992370605469 C 39.32870864868164 2.999992370605469 33.82865142822266 4.11004638671875 28.65262603759766 6.299331665039062 C 23.65165710449219 8.414566040039062 19.15968322753906 11.44333648681641 15.301513671875 15.30150604248047 C 11.44333648681641 19.15967559814453 8.414566040039062 23.65164947509766 6.299339294433594 28.65262222290039 C 4.110054016113281 33.82864761352539 2.999992370605469 39.32870483398438 2.999992370605469 44.99999237060547 C 2.999992370605469 50.67127990722656 4.110054016113281 56.17132186889648 6.299339294433594 61.34736633300781 C 8.414566040039062 66.34833526611328 11.44333648681641 70.84029388427734 15.301513671875 74.69846343994141 C 19.15968322753906 78.55663299560547 23.65165710449219 81.58540344238281 28.65262603759766 83.70063781738281 C 33.82865142822266 85.88992309570312 39.32870864868164 86.99997711181641 44.99999618530273 86.99997711181641 C 50.67128372192383 86.99997711181641 56.17134094238281 85.88992309570312 61.34736633300781 83.70063781738281 C 66.34834289550781 81.58540344238281 70.84030914306641 78.55663299560547 74.69847869873047 74.69846343994141 C 78.55665588378906 70.84029388427734 81.58542633056641 66.34833526611328 83.70065307617188 61.34736633300781 C 85.88993835449219 56.17132186889648 87 50.67127990722656 87 44.99999237060547 C 87 39.32870483398438 85.88993835449219 33.82864761352539 83.70065307617188 28.65262222290039 C 81.58542633056641 23.65164947509766 78.55665588378906 19.15967559814453 74.69847869873047 15.30150604248047 C 70.84030914306641 11.44333648681641 66.34834289550781 8.414566040039062 61.34736633300781 6.299331665039062 C 56.17134094238281 4.11004638671875 50.67128372192383 2.999992370605469 44.99999618530273 2.999992370605469 M 44.99999618530273 -7.62939453125e-06 C 69.85281372070312 -7.62939453125e-06 90 20.14717864990234 90 44.99999237060547 C 90 69.85279083251953 69.85281372070312 89.99997711181641 44.99999618530273 89.99997711181641 C 20.14717864990234 89.99997711181641 -7.62939453125e-06 69.85279083251953 -7.62939453125e-06 44.99999237060547 C -7.62939453125e-06 20.14717864990234 20.14717864990234 -7.62939453125e-06 44.99999618530273 -7.62939453125e-06 Z" stroke="none" fill="#248abf"/>
                          </g>
                        </g>
                      </g>
                    </g>
                  </g>
                </g>
              </g>
            </g>
          </g>
        </g>
      </g>
    </g>
    <g id="soldado" transform="translate(21.99 11.605)">
      <g id="Grupo_1230212" data-name="Grupo 1230212" transform="translate(0.909 0.908)">
        <path id="Trazado_1193344" data-name="Trazado 1193344" d="M343.541,156.035l-3.914-1.223-.86,3.425.86,3.425h.979a2.936,2.936,0,0,0,2.936-2.936Z" transform="translate(-306.643 -136.973)" fill="#f6a96c"/>
        <path id="Trazado_1193345" data-name="Trazado 1193345" d="M133.808,156.035l3.914-1.223,1.411,3.425-1.411,3.425h-.979a2.936,2.936,0,0,1-2.936-2.936Z" transform="translate(-126.504 -136.973)" fill="#f6a96c"/>
        <path id="Trazado_1193346" data-name="Trazado 1193346" d="M107.587,332.772h-24a5.872,5.872,0,0,0-5.633,4.215l-4.42,15.028a1.211,1.211,0,0,0,1.162,1.553h41.779a1.211,1.211,0,0,0,1.162-1.553l-4.42-15.028A5.872,5.872,0,0,0,107.587,332.772Z" transform="translate(-73.488 -293.384)" fill="#8bc727"/>
        <path id="Trazado_1193347" data-name="Trazado 1193347" d="M337.009,352.015l-4.42-15.028a5.871,5.871,0,0,0-5.633-4.215h-3.875a5.872,5.872,0,0,1,5.633,4.215l4.42,15.028a1.211,1.211,0,0,1-1.162,1.553h3.875A1.211,1.211,0,0,0,337.009,352.015Z" transform="translate(-292.857 -293.384)" fill="#81b823"/>
        <path id="Trazado_1193348" data-name="Trazado 1193348" d="M99.023,377.853h2.76a.979.979,0,0,1,.979.979v1.957a.979.979,0,0,1-.979.979H97.872Z" transform="translate(-94.919 -333.006)" fill="#ffe177"/>
        <path id="Trazado_1193349" data-name="Trazado 1193349" d="M377.489,377.853h-2.76a.979.979,0,0,0-.979.979v1.957a.979.979,0,0,0,.979.979h3.911Z" transform="translate(-337.391 -333.006)" fill="#ffd15b"/>
        <path id="Trazado_1193350" data-name="Trazado 1193350" d="M215.594,264.827l4.893,4.893,4.893-4.893v-9.361h-9.786Z" transform="translate(-198.386 -225.439)" fill="#f6a96c"/>
        <path id="Trazado_1193351" data-name="Trazado 1193351" d="M166.133,62.847v8.771a10.882,10.882,0,1,0,21.765,0V62.847a10.882,10.882,0,1,0-21.765,0Z" transform="translate(-154.914 -46.581)" fill="#fed2a4"/>
        <path id="Trazado_1193352" data-name="Trazado 1193352" d="M244.458,51.965a10.965,10.965,0,0,0-1.59.116,10.884,10.884,0,0,1,9.292,10.766v8.771a10.884,10.884,0,0,1-9.292,10.766,10.887,10.887,0,0,0,12.473-10.766V62.847A10.882,10.882,0,0,0,244.458,51.965Z" transform="translate(-222.357 -46.581)" fill="#ffbd86"/>
        <path id="Trazado_1193353" data-name="Trazado 1193353" d="M158.338,7.5a13.471,13.471,0,0,1,13.456,13.456v3.9h-2.021l-2.232-3.093h-18.4L146.9,24.856h-2.021v-3.9A13.471,13.471,0,0,1,158.338,7.5Z" transform="translate(-136.237 -7.5)" fill="#8bc727"/>
        <path id="Trazado_1193354" data-name="Trazado 1193354" d="M244.458,7.5a13.52,13.52,0,0,0-1.59.094,13.475,13.475,0,0,1,11.866,13.361V23.25l1.159,1.606h2.021v-3.9A13.471,13.471,0,0,0,244.458,7.5Z" transform="translate(-222.357 -7.5)" fill="#81b823"/>
        <path id="Trazado_1193355" data-name="Trazado 1193355" d="M157.754,112.386h-18.3a1.468,1.468,0,0,0-1.194.615l-1.788,2.5a.734.734,0,0,1-.6.307h-1.09a.979.979,0,0,0-.979.979v1.957a.979.979,0,0,0,.979.979h2.936l2.154-3.015a.978.978,0,0,1,.8-.41h15.864a.978.978,0,0,1,.8.41l2.154,3.015h2.936a.979.979,0,0,0,.979-.979V116.79a.979.979,0,0,0-.979-.979h-1.09a.734.734,0,0,1-.6-.307l-1.788-2.5A1.469,1.469,0,0,0,157.754,112.386Z" transform="translate(-126.505 -99.685)" fill="#918291"/>
        <path id="Trazado_1193356" data-name="Trazado 1193356" d="M349.69,136.941H348.6a.734.734,0,0,1-.6-.307l-.147-.206v3.45a.979.979,0,0,1-.979.979h2.813a.979.979,0,0,0,.979-.979v-1.957A.979.979,0,0,0,349.69,136.941Z" transform="translate(-313.771 -120.815)" fill="#7a6d79"/>
        <g id="Grupo_1230211" data-name="Grupo 1230211" transform="translate(14.799 38.165)">
          <path id="Trazado_1193357" data-name="Trazado 1193357" d="M256,328.787l3.621,3.621a.727.727,0,0,0,1.21-.3l2.471-8.21-2.409-1.223Z" transform="translate(-248.698 -322.671)" fill="#78a91f"/>
          <path id="Trazado_1193358" data-name="Trazado 1193358" d="M203,328.787l-3.621,3.621a.727.727,0,0,1-1.209-.3l-2.471-8.21,2.409-1.223Z" transform="translate(-195.702 -322.671)" fill="#78a91f"/>
        </g>
      </g>
      <g id="Grupo_1230213" data-name="Grupo 1230213">
        <path id="Trazado_1193359" data-name="Trazado 1193359" d="M111.913,59.283l-.66-2.245a.908.908,0,0,0-1.743.512l.66,2.245a.3.3,0,0,1-.29.388h-5.722V53.508a.908.908,0,1,0-1.816,0v6.676H89.9v-12.8l2.071,2.071a1.62,1.62,0,0,0,1.15.48,1.659,1.659,0,0,0,.4-.05,1.621,1.621,0,0,0,1.166-1.114L96.968,41.2h4.021a4.991,4.991,0,0,1,4.762,3.563l.023.08h-1.546a1.889,1.889,0,0,0-1.887,1.887v1.957a1.889,1.889,0,0,0,1.887,1.887h3.231l.855,2.907a.908.908,0,0,0,1.743-.512l-2.564-8.718a6.817,6.817,0,0,0-6.5-4.867h-4.48l-1.717-.872V36.207a11.8,11.8,0,0,0,5.976-9.7h.084a3.848,3.848,0,0,0,3.844-3.844V18.013a1.89,1.89,0,0,0-1.341-1.806V14.364a14.359,14.359,0,0,0-3.409-9.281.908.908,0,1,0-1.385,1.175,12.541,12.541,0,0,1,2.977,8.106v1.384L100.073,13.7a2.381,2.381,0,0,0-1.933-1h-18.3a2.381,2.381,0,0,0-1.934,1l-1.466,2.052V14.364A12.542,12.542,0,0,1,95.572,3.686a.908.908,0,1,0,.956-1.544,14.358,14.358,0,0,0-21.9,12.223v1.843a1.89,1.89,0,0,0-1.341,1.806v4.648a3.848,3.848,0,0,0,3.844,3.844h.084a11.8,11.8,0,0,0,5.976,9.7v2.309l-1.717.872h-4.48a6.817,6.817,0,0,0-6.5,4.867l-2.564,8.718a.908.908,0,1,0,1.743.512l.855-2.907h3.231a1.889,1.889,0,0,0,1.887-1.887V46.734a1.889,1.889,0,0,0-1.887-1.887H72.207l.023-.08A4.991,4.991,0,0,1,76.993,41.2h4.021l2.277,7.564a1.621,1.621,0,0,0,1.166,1.114,1.658,1.658,0,0,0,.4.05,1.62,1.62,0,0,0,1.15-.48l2.071-2.071v12.8H75.64V53.508a.908.908,0,0,0-1.816,0v6.676H68.1a.3.3,0,0,1-.29-.388l.66-2.245a.908.908,0,0,0-1.743-.512l-.66,2.245A2.119,2.119,0,0,0,68.1,62H109.88a2.119,2.119,0,0,0,2.033-2.717Zm-7.685-10.521a.071.071,0,0,1-.07-.07V46.734a.07.07,0,0,1,.07-.07h2.08l.617,2.1h-2.7Zm-30.475-2.1a.07.07,0,0,1,.07.07v1.957a.071.071,0,0,1-.07.07h-2.7l.617-2.1h2.08Zm19.286,1.29-2.832-2.832,3.924-4.9,1.072.545Zm7.812-23.265h-.07V21.857h2.028c.024,0,.047,0,.07,0v.808a2.03,2.03,0,0,1-2.027,2.027ZM77.6,17.255l1.788-2.5a.561.561,0,0,1,.456-.234h18.3a.561.561,0,0,1,.455.234l1.788,2.5a1.645,1.645,0,0,0,1.336.688h1.09a.071.071,0,0,1,.07.07V19.97h0a.07.07,0,0,1-.07.07h-2.468l-1.882-2.635a1.89,1.89,0,0,0-1.535-.79H81.059a1.891,1.891,0,0,0-1.535.79l-1.882,2.635H75.173a.07.07,0,0,1-.07-.07h0V18.013a.071.071,0,0,1,.07-.07h1.09A1.646,1.646,0,0,0,77.6,17.255Zm-2.5,5.406v-.808c.023,0,.047,0,.07,0H77.2v2.832h-.07A2.03,2.03,0,0,1,75.1,22.661Zm3.914,3.284V21.239L81,18.461a.071.071,0,0,1,.058-.03H96.923a.071.071,0,0,1,.057.03l1.985,2.778v4.706a9.974,9.974,0,0,1-19.948,0Zm9.974,11.791a11.736,11.736,0,0,0,3.985-.694v1.712l-3.985,4.981-3.985-4.981V37.043a11.736,11.736,0,0,0,3.985.694ZM84.942,47.954l-2.165-7.191,1.072-.545,3.924,4.9Z" transform="translate(-65.981 0)"/>
        <path id="Trazado_1193360" data-name="Trazado 1193360" d="M285.535,434.37a.908.908,0,0,0,0,1.816h5.509a.908.908,0,0,0,0-1.816Z" transform="translate(-258.15 -381.771)"/>
        <path id="Trazado_1193361" data-name="Trazado 1193361" d="M173.294,436.186a.908.908,0,1,0,0-1.816h-5.509a.908.908,0,0,0,0,1.816Z" transform="translate(-154.658 -381.771)"/>
      </g>
    </g>
  </g>
</svg>
