<svg xmlns="http://www.w3.org/2000/svg" xmlns:xlink="http://www.w3.org/1999/xlink" width="400" height="302" viewBox="0 0 400 302">
  <defs>
    <clipPath id="clip-path">
      <rect id="Rectángulo_421169" data-name="Rectángulo 421169" width="400" height="302" fill="#fff" stroke="#707070" stroke-width="1"/>
    </clipPath>
    <clipPath id="clip-path-2">
      <rect id="Rectángulo_421165" data-name="Rectángulo 421165" width="356.098" height="356.105"/>
    </clipPath>
    <clipPath id="clip-path-3">
      <rect id="Rectángulo_421166" data-name="Rectángulo 421166" width="396.784" height="356.105"/>
    </clipPath>
    <clipPath id="clip-path-4">
      <rect id="Rectángulo_421167" data-name="Rectángulo 421167" width="411.203" height="356.105"/>
    </clipPath>
    <linearGradient id="linear-gradient" x1="0.519" y1="0.206" x2="0.496" y2="0.935" gradientUnits="objectBoundingBox">
      <stop offset="0.047" stop-color="#f28d67" stop-opacity="0"/>
      <stop offset="0.682" stop-color="#f28d67"/>
      <stop offset="1" stop-color="#f26f3d"/>
    </linearGradient>
  </defs>
  <g id="Enmascarar_grupo_1153334" data-name="Enmascarar grupo 1153334" clip-path="url(#clip-path)">
    <g id="Grupo_1221416" data-name="Grupo 1221416" transform="translate(-25.944 -53.906)">
      <g id="OBJECTS" transform="translate(0 0)">
        <g id="Grupo_1221394" data-name="Grupo 1221394" transform="translate(0 0)">
          <g id="Grupo_1221383" data-name="Grupo 1221383" transform="translate(55.105)" clip-path="url(#clip-path-2)">
            <g id="Grupo_1221368" data-name="Grupo 1221368" transform="translate(33.913 182.013)">
              <path id="Trazado_1170514" data-name="Trazado 1170514" d="M52.145,257.107H75.5c2.491,0,4.527,3.739,4.527,8.311v.006c0,4.572-2.036,8.311-4.527,8.311H52.145c-2.49,0-4.527-3.74-4.527-8.311v-.006C47.617,260.846,49.655,257.107,52.145,257.107Z" transform="translate(-47.618 -256.005)" fill="#c08329" fill-rule="evenodd"/>
              <rect id="Rectángulo_421154" data-name="Rectángulo 421154" width="15.592" height="123.716" transform="translate(8.407)" fill="#c08329"/>
              <g id="Grupo_1221367" data-name="Grupo 1221367" transform="translate(8.407 17.73)">
                <g id="Grupo_1221366" data-name="Grupo 1221366">
                  <rect id="Rectángulo_421155" data-name="Rectángulo 421155" width="15.592" height="1.872" fill="#a16733"/>
                </g>
              </g>
              <path id="Trazado_1170515" data-name="Trazado 1170515" d="M47.618,426.849H80.024v-.126a6.069,6.069,0,0,0-6.252-5.866H53.87a6.068,6.068,0,0,0-6.252,5.866Z" transform="translate(-47.618 -303.133)" fill="#c08329" fill-rule="evenodd"/>
              <line id="Línea_707" data-name="Línea 707" y2="96.45" transform="translate(10.75 21.274)" fill="none" stroke="#2a1510" stroke-linecap="round" stroke-linejoin="round" stroke-miterlimit="10" stroke-width="1"/>
              <line id="Línea_708" data-name="Línea 708" y2="96.45" transform="translate(14.232 21.274)" fill="none" stroke="#2a1510" stroke-linecap="round" stroke-linejoin="round" stroke-miterlimit="10" stroke-width="1"/>
              <line id="Línea_709" data-name="Línea 709" y2="96.45" transform="translate(17.713 21.274)" fill="none" stroke="#2a1510" stroke-linecap="round" stroke-linejoin="round" stroke-miterlimit="10" stroke-width="1"/>
              <line id="Línea_710" data-name="Línea 710" y2="96.45" transform="translate(21.194 21.274)" fill="none" stroke="#2a1510" stroke-linecap="round" stroke-linejoin="round" stroke-miterlimit="10" stroke-width="1"/>
            </g>
            <g id="Grupo_1221371" data-name="Grupo 1221371" transform="translate(96.945 182.013)">
              <path id="Trazado_1170516" data-name="Trazado 1170516" d="M140.648,257.107H164c2.491,0,4.527,3.739,4.527,8.311v.006c0,4.572-2.036,8.311-4.527,8.311H140.648c-2.49,0-4.527-3.74-4.527-8.311v-.006C136.121,260.846,138.159,257.107,140.648,257.107Z" transform="translate(-136.121 -256.005)" fill="#c08329" fill-rule="evenodd"/>
              <rect id="Rectángulo_421156" data-name="Rectángulo 421156" width="15.592" height="123.716" transform="translate(8.407)" fill="#c08329"/>
              <g id="Grupo_1221370" data-name="Grupo 1221370" transform="translate(8.407 17.73)">
                <g id="Grupo_1221369" data-name="Grupo 1221369">
                  <rect id="Rectángulo_421157" data-name="Rectángulo 421157" width="15.592" height="1.872" fill="#a16733"/>
                </g>
              </g>
              <path id="Trazado_1170517" data-name="Trazado 1170517" d="M136.122,426.849h32.406v-.126a6.069,6.069,0,0,0-6.252-5.866h-19.9a6.068,6.068,0,0,0-6.252,5.866v.126Z" transform="translate(-136.121 -303.133)" fill="#c08329" fill-rule="evenodd"/>
              <line id="Línea_711" data-name="Línea 711" y2="96.45" transform="translate(10.751 21.274)" fill="none" stroke="#2a1510" stroke-linecap="round" stroke-linejoin="round" stroke-miterlimit="10" stroke-width="1"/>
              <line id="Línea_712" data-name="Línea 712" y2="96.45" transform="translate(14.232 21.274)" fill="none" stroke="#2a1510" stroke-linecap="round" stroke-linejoin="round" stroke-miterlimit="10" stroke-width="1"/>
              <line id="Línea_713" data-name="Línea 713" y2="96.45" transform="translate(17.713 21.274)" fill="none" stroke="#2a1510" stroke-linecap="round" stroke-linejoin="round" stroke-miterlimit="10" stroke-width="1"/>
              <line id="Línea_714" data-name="Línea 714" y2="96.45" transform="translate(21.195 21.274)" fill="none" stroke="#2a1510" stroke-linecap="round" stroke-linejoin="round" stroke-miterlimit="10" stroke-width="1"/>
            </g>
            <g id="Grupo_1221374" data-name="Grupo 1221374" transform="translate(159.977 182.013)">
              <path id="Trazado_1170518" data-name="Trazado 1170518" d="M229.152,257.107H252.5c2.491,0,4.527,3.739,4.527,8.311v.006c0,4.572-2.036,8.311-4.527,8.311H229.152c-2.49,0-4.527-3.74-4.527-8.311v-.006C224.625,260.846,226.662,257.107,229.152,257.107Z" transform="translate(-224.625 -256.005)" fill="#c08329" fill-rule="evenodd"/>
              <rect id="Rectángulo_421158" data-name="Rectángulo 421158" width="15.592" height="123.716" transform="translate(8.407)" fill="#c08329"/>
              <g id="Grupo_1221373" data-name="Grupo 1221373" transform="translate(8.407 17.73)">
                <g id="Grupo_1221372" data-name="Grupo 1221372">
                  <rect id="Rectángulo_421159" data-name="Rectángulo 421159" width="15.592" height="1.872" fill="#a16733"/>
                </g>
              </g>
              <path id="Trazado_1170519" data-name="Trazado 1170519" d="M224.625,426.849h32.406v-.126a6.069,6.069,0,0,0-6.252-5.866h-19.9a6.068,6.068,0,0,0-6.252,5.866v.126Z" transform="translate(-224.625 -303.133)" fill="#c08329" fill-rule="evenodd"/>
              <line id="Línea_715" data-name="Línea 715" y2="96.45" transform="translate(10.751 21.274)" fill="none" stroke="#2a1510" stroke-linecap="round" stroke-linejoin="round" stroke-miterlimit="10" stroke-width="1"/>
              <line id="Línea_716" data-name="Línea 716" y2="96.45" transform="translate(14.232 21.274)" fill="none" stroke="#2a1510" stroke-linecap="round" stroke-linejoin="round" stroke-miterlimit="10" stroke-width="1"/>
              <line id="Línea_717" data-name="Línea 717" y2="96.45" transform="translate(17.713 21.274)" fill="none" stroke="#2a1510" stroke-linecap="round" stroke-linejoin="round" stroke-miterlimit="10" stroke-width="1"/>
              <line id="Línea_718" data-name="Línea 718" y2="96.45" transform="translate(21.194 21.274)" fill="none" stroke="#2a1510" stroke-linecap="round" stroke-linejoin="round" stroke-miterlimit="10" stroke-width="1"/>
            </g>
            <g id="Grupo_1221377" data-name="Grupo 1221377" transform="translate(223.009 182.013)">
              <path id="Trazado_1170520" data-name="Trazado 1170520" d="M317.656,257.107h23.352c2.491,0,4.527,3.739,4.527,8.311v.006c0,4.572-2.036,8.311-4.527,8.311H317.656c-2.49,0-4.527-3.74-4.527-8.311v-.006C313.128,260.846,315.166,257.107,317.656,257.107Z" transform="translate(-313.129 -256.005)" fill="#c08329" fill-rule="evenodd"/>
              <rect id="Rectángulo_421160" data-name="Rectángulo 421160" width="15.592" height="123.716" transform="translate(8.407)" fill="#c08329"/>
              <g id="Grupo_1221376" data-name="Grupo 1221376" transform="translate(8.407 17.73)">
                <g id="Grupo_1221375" data-name="Grupo 1221375">
                  <rect id="Rectángulo_421161" data-name="Rectángulo 421161" width="15.592" height="1.872" fill="#a16733"/>
                </g>
              </g>
              <path id="Trazado_1170521" data-name="Trazado 1170521" d="M313.129,426.849h32.406v-.126a6.069,6.069,0,0,0-6.252-5.866h-19.9a6.068,6.068,0,0,0-6.252,5.866v.126Z" transform="translate(-313.129 -303.133)" fill="#c08329" fill-rule="evenodd"/>
              <line id="Línea_719" data-name="Línea 719" y2="96.45" transform="translate(10.75 21.274)" fill="none" stroke="#2a1510" stroke-linecap="round" stroke-linejoin="round" stroke-miterlimit="10" stroke-width="1"/>
              <line id="Línea_720" data-name="Línea 720" y2="96.45" transform="translate(14.231 21.274)" fill="none" stroke="#2a1510" stroke-linecap="round" stroke-linejoin="round" stroke-miterlimit="10" stroke-width="1"/>
              <line id="Línea_721" data-name="Línea 721" y2="96.45" transform="translate(17.713 21.274)" fill="none" stroke="#2a1510" stroke-linecap="round" stroke-linejoin="round" stroke-miterlimit="10" stroke-width="1"/>
              <line id="Línea_722" data-name="Línea 722" y2="96.45" transform="translate(21.194 21.274)" fill="none" stroke="#2a1510" stroke-linecap="round" stroke-linejoin="round" stroke-miterlimit="10" stroke-width="1"/>
            </g>
            <g id="Grupo_1221380" data-name="Grupo 1221380" transform="translate(286.041 182.013)">
              <path id="Trazado_1170522" data-name="Trazado 1170522" d="M406.159,257.107h23.352c2.491,0,4.527,3.739,4.527,8.311v.006c0,4.572-2.037,8.311-4.527,8.311H406.159c-2.49,0-4.527-3.74-4.527-8.311v-.006C401.632,260.846,403.67,257.107,406.159,257.107Z" transform="translate(-401.632 -256.005)" fill="#c08329" fill-rule="evenodd"/>
              <rect id="Rectángulo_421162" data-name="Rectángulo 421162" width="15.592" height="123.716" transform="translate(8.407)" fill="#c08329"/>
              <g id="Grupo_1221379" data-name="Grupo 1221379" transform="translate(8.407 17.73)">
                <g id="Grupo_1221378" data-name="Grupo 1221378">
                  <rect id="Rectángulo_421163" data-name="Rectángulo 421163" width="15.592" height="1.872" fill="#a16733"/>
                </g>
              </g>
              <path id="Trazado_1170523" data-name="Trazado 1170523" d="M401.632,426.849h32.406v-.126a6.069,6.069,0,0,0-6.252-5.866h-19.9a6.068,6.068,0,0,0-6.252,5.866v.126Z" transform="translate(-401.632 -303.133)" fill="#c08329" fill-rule="evenodd"/>
              <line id="Línea_723" data-name="Línea 723" y2="96.45" transform="translate(10.751 21.274)" fill="none" stroke="#2a1510" stroke-linecap="round" stroke-linejoin="round" stroke-miterlimit="10" stroke-width="1"/>
              <line id="Línea_724" data-name="Línea 724" y2="96.45" transform="translate(14.232 21.274)" fill="none" stroke="#2a1510" stroke-linecap="round" stroke-linejoin="round" stroke-miterlimit="10" stroke-width="1"/>
              <line id="Línea_725" data-name="Línea 725" y2="96.45" transform="translate(17.713 21.274)" fill="none" stroke="#2a1510" stroke-linecap="round" stroke-linejoin="round" stroke-miterlimit="10" stroke-width="1"/>
              <line id="Línea_726" data-name="Línea 726" y2="96.45" transform="translate(21.194 21.274)" fill="none" stroke="#2a1510" stroke-linecap="round" stroke-linejoin="round" stroke-miterlimit="10" stroke-width="1"/>
            </g>
            <path id="Trazado_1170524" data-name="Trazado 1170524" d="M46.255,261.062H336V242.6H40.8V255.6A5.458,5.458,0,0,0,46.255,261.062Z" transform="translate(-11.742 -69.817)" fill="#a16733" fill-rule="evenodd"/>
            <path id="Trazado_1170525" data-name="Trazado 1170525" d="M40.8,240.151H341.03v-29.7H35.508v24.4A5.3,5.3,0,0,0,40.8,240.151Z" transform="translate(-10.219 -60.566)" fill="#c08329" fill-rule="evenodd"/>
            <path id="Trazado_1170526" data-name="Trazado 1170526" d="M30.53,458.789H333.042V429.271H39.45a8.919,8.919,0,0,0-8.92,8.919Z" transform="translate(-8.787 -123.542)" fill="#a16733" fill-rule="evenodd"/>
            <path id="Trazado_1170527" data-name="Trazado 1170527" d="M16.755,482.889H348.99V455.195H26.141a9.386,9.386,0,0,0-9.386,9.386Z" transform="translate(-4.822 -131.003)" fill="#c08329" fill-rule="evenodd"/>
            <rect id="Rectángulo_421164" data-name="Rectángulo 421164" width="369.67" height="18.463" transform="translate(-6.786 342.654)" fill="#a16733"/>
            <path id="Trazado_1170528" data-name="Trazado 1170528" d="M341.031,175.717,198.672,91.091H177.865L35.508,175.717v12.367H341.031Z" transform="translate(-10.219 -26.213)" fill="#a16733" fill-rule="evenodd"/>
            <g id="Grupo_1221381" data-name="Grupo 1221381" transform="translate(18.819 56.004)">
              <path id="Trazado_1170529" data-name="Trazado 1170529" d="M185.655,78.63,29.133,171.674a5.539,5.539,0,0,0-2.709,4.762h0A5.54,5.54,0,0,0,34.8,181.2L185.655,91.521l159.232,94.654V173.284Z" transform="translate(-26.424 -78.63)" fill="#c08329" fill-rule="evenodd"/>
            </g>
            <g id="Grupo_1221382" data-name="Grupo 1221382" transform="translate(50.867 78.446)">
              <path id="Trazado_1170530" data-name="Trazado 1170530" d="M325.8,187.552,71.422,185.744l127.19-75.6.564.343Zm-212.069-13.7,169.73,1.207L198.6,123.4Z" transform="translate(-71.422 -110.141)" fill="#c08329"/>
            </g>
          </g>
        </g>
        <g id="Grupo_1221415" data-name="Grupo 1221415" transform="translate(153.708 60.724)">
          <g id="Grupo_1221414" data-name="Grupo 1221414">
            <g id="Grupo_1221396" data-name="Grupo 1221396" transform="translate(0 61.721)">
              <path id="Trazado_1170577" data-name="Trazado 1170577" d="M276.1,357.2a431.388,431.388,0,0,1,3.427,103.61H171.282a262.822,262.822,0,0,1,33.359-92.858C226.874,359.139,251.853,356.341,276.1,357.2Z" transform="translate(-156.835 -227.153)" fill="#f4e6d0"/>
              <path id="Trazado_1170578" data-name="Trazado 1170578" d="M275,261.856c2.589,13.989,2.485,29.667-.981,43.466,1.789,5.246.09,11.227-3.293,15.617s-8.242,7.406-13.24,9.8c-19.753,9.466-43.212,8.578-63.582.526-9.057,1.672-18.342,3.347-27.419,1.789a20.138,20.138,0,0,1-9.146-3.628c-4.722-3.714-6.446-10.274-5.844-16.251s3.206-11.979,5.74-17.427A4.372,4.372,0,0,1,155.8,292a10.967,10.967,0,0,1,1.278-3.953c1.963-4.014,5.845-7.682,8.843-11a11.814,11.814,0,0,1-2.391-11.427,12.907,12.907,0,0,1,9.221-8.047c1.831-9.248,5.745-18.163,10.415-26.352l41.953-15.3c7.967-2.906,14.88-5.815,23.36-5.862,6.29-6.092,15.485-7.772,23.911-5.389a19.828,19.828,0,0,1,15.419-9.351,21,21,0,0,1,17.145,7.183c4.585,5.363,6.14,12.849,5.4,19.866s-3.556,13.654-6.884,19.875a122.335,122.335,0,0,1-42.842,45.81" transform="translate(-151.378 -182.8)" fill="#f4e6d0"/>
              <path id="Trazado_1170579" data-name="Trazado 1170579" d="M332.743,244.391a53.022,53.022,0,0,0,14.983-26.439,22.9,22.9,0,0,1-2.784.947,22.744,22.744,0,0,0-2.792,1.4,23.431,23.431,0,0,0-4.9,3.862,22.918,22.918,0,0,0-3.7,5.021c-1.1,2.024-.7,3.728-.724,5.979Q332.786,239.777,332.743,244.391Z" transform="translate(-201.101 -189.018)" fill="#d9c29e"/>
              <path id="Trazado_1170580" data-name="Trazado 1170580" d="M369.329,180.46c-2.366-1.238-7.036-2.808-9.789-2.259-3.809.759-8.281,5.45-11.4,7.658l-11.651,8.246c-3.161,8.939-2.261,17.708-3.08,28.1.875-.268,10.991-5.964,14.533-9l20.868-17.863c2.473-2.117,5.135-4.6,5.28-7.812C374.222,184.563,372.015,181.866,369.329,180.46Z" transform="translate(-201.283 -178.089)" fill="#f2ad93"/>
              <path id="Trazado_1170581" data-name="Trazado 1170581" d="M276.723,207.081" transform="translate(-185.742 -186.037)" fill="none" stroke="#2a1510" stroke-linecap="round" stroke-linejoin="round" stroke-miterlimit="10" stroke-width="1"/>
              <path id="Trazado_1170582" data-name="Trazado 1170582" d="M312.539,208.867a334.576,334.576,0,0,0-10.091,66.718" transform="translate(-192.795 -186.527)" fill="none" stroke="#2a1510" stroke-linecap="round" stroke-linejoin="round" stroke-miterlimit="10" stroke-width="1"/>
              <path id="Trazado_1170583" data-name="Trazado 1170583" d="M278.608,217.842c-6.71,39.82-16.426,76-33.6,110.608" transform="translate(-177.046 -188.987)" fill="none" stroke="#2a1510" stroke-linecap="round" stroke-linejoin="round" stroke-miterlimit="10" stroke-width="1"/>
              <path id="Trazado_1170584" data-name="Trazado 1170584" d="M163.535,353.8a14.786,14.786,0,0,0,5.87,11.173,12.585,12.585,0,0,0,12.379,1.36,12.42,12.42,0,0,0,6.873-11.662,13.974,13.974,0,0,0-7.57-11.436c-3.568-1.828-9.222-2.455-13.006-.745C164.349,344.174,163.356,350.174,163.535,353.8Z" transform="translate(-154.705 -222.885)" fill="#d9c29e"/>
              <path id="Trazado_1170585" data-name="Trazado 1170585" d="M209.579,246.028a88.613,88.613,0,0,1,44.141,42.354" transform="translate(-167.334 -196.715)" fill="none" stroke="#2a1510" stroke-linecap="round" stroke-linejoin="round" stroke-miterlimit="10" stroke-width="1"/>
              <path id="Trazado_1170586" data-name="Trazado 1170586" d="M207.263,269.786a49.345,49.345,0,0,1,7.2,42.494" transform="translate(-166.699 -203.228)" fill="none" stroke="#2a1510" stroke-linecap="round" stroke-linejoin="round" stroke-miterlimit="10" stroke-width="1"/>
              <path id="Trazado_1170587" data-name="Trazado 1170587" d="M183.385,301.229a37.217,37.217,0,0,1,24.046,33.21" transform="translate(-160.153 -211.849)" fill="none" stroke="#2a1510" stroke-linecap="round" stroke-linejoin="round" stroke-miterlimit="10" stroke-width="1"/>
              <path id="Trazado_1170588" data-name="Trazado 1170588" d="M159.589,337.453A19.464,19.464,0,0,1,191.7,348.861" transform="translate(-153.629 -220.451)" fill="none" stroke="#2a1510" stroke-linecap="round" stroke-linejoin="round" stroke-miterlimit="10" stroke-width="1"/>
              <path id="Trazado_1170589" data-name="Trazado 1170589" d="M213.829,354.942a46.865,46.865,0,0,1-1.285,11.689c-1.078,3.78-3.25,7.4-6.628,9.412" transform="translate(-166.33 -226.574)" fill="none" stroke="#2a1510" stroke-linecap="round" stroke-linejoin="round" stroke-miterlimit="10" stroke-width="1"/>
              <path id="Trazado_1170590" data-name="Trazado 1170590" d="M302.72,340.779a68.587,68.587,0,0,1-47.928,30.63" transform="translate(-179.73 -222.692)" fill="none" stroke="#2a1510" stroke-linecap="round" stroke-linejoin="round" stroke-miterlimit="10" stroke-width="1"/>
              <path id="Trazado_1170591" data-name="Trazado 1170591" d="M336.134,197.656a243.627,243.627,0,0,0-2.4,62.9" transform="translate(-201.093 -183.453)" fill="none" stroke="#2a1510" stroke-linecap="round" stroke-linejoin="round" stroke-miterlimit="10" stroke-width="1"/>
              <path id="Trazado_1170592" data-name="Trazado 1170592" d="M288.638,363.564a135.085,135.085,0,0,1-74.726,16.223" transform="translate(-168.522 -228.938)" fill="none" stroke="#2a1510" stroke-linecap="round" stroke-linejoin="round" stroke-miterlimit="10" stroke-width="1"/>
              <g id="Grupo_1221395" data-name="Grupo 1221395" transform="translate(10.412 18.354)">
                <path id="Trazado_1170593" data-name="Trazado 1170593" d="M262.961,204.658l-18.569,76.019c-5.03,20.591-10.2,41.522-20.974,59.773-10.52,17.811-27.356,33.014-47.624,36.791a3.684,3.684,0,0,0-2.419,1.576c-3.694,5.609-6.7,13.528-6.759,19.969-.037,4.071.546,8.541-.719,12.238a3.166,3.166,0,0,0,2.31,4.138,57.637,57.637,0,0,0,42.56-7.409c13.913-8.687,24.5-22,32.009-36.588s12.122-30.47,16.014-46.4A579.325,579.325,0,0,0,275.1,203.375C270.893,203.456,267.171,204.578,262.961,204.658Z" transform="translate(-165.723 -203.375)" fill="#4b4bbd"/>
                <path id="Trazado_1170594" data-name="Trazado 1170594" d="M293.654,204.912A493.006,493.006,0,0,1,267.763,314.37" transform="translate(-193.698 -203.796)" fill="none" stroke="#2a1510" stroke-linecap="round" stroke-linejoin="round" stroke-miterlimit="10" stroke-width="1"/>
                <path id="Trazado_1170595" data-name="Trazado 1170595" d="M282.875,217.768a510,510,0,0,1-32.27,132.968c-4.431,11.329-9.325,22.6-16.417,32.484S217.6,401.6,206.144,405.692" transform="translate(-176.804 -207.321)" fill="none" stroke="#2a1510" stroke-linecap="round" stroke-linejoin="round" stroke-miterlimit="10" stroke-width="1"/>
                <path id="Trazado_1170596" data-name="Trazado 1170596" d="M177.453,439.884a58.824,58.824,0,0,0,52.192-26.244" transform="translate(-168.939 -261.021)" fill="none" stroke="#2a1510" stroke-linecap="round" stroke-linejoin="round" stroke-miterlimit="10" stroke-width="1"/>
                <path id="Trazado_1170597" data-name="Trazado 1170597" d="M170.7,484.942a34.021,34.021,0,0,0,21.513-1.347" transform="translate(-167.087 -280.2)" fill="none" stroke="#2a1510" stroke-linecap="round" stroke-linejoin="round" stroke-miterlimit="10" stroke-width="1"/>
              </g>
              <path id="Trazado_1170598" data-name="Trazado 1170598" d="M300.888,374.591a365.292,365.292,0,0,1-13.524,89.61" transform="translate(-188.66 -231.962)" fill="none" stroke="#2a1510" stroke-linecap="round" stroke-linejoin="round" stroke-miterlimit="10" stroke-width="1"/>
              <path id="Trazado_1170599" data-name="Trazado 1170599" d="M267.963,441.72a179.23,179.23,0,0,1-27.012,41.962" transform="translate(-175.935 -250.365)" fill="none" stroke="#2a1510" stroke-linecap="round" stroke-linejoin="round" stroke-miterlimit="10" stroke-width="1"/>
              <path id="Trazado_1170600" data-name="Trazado 1170600" d="M166.616,398.785c-.037,4.071.546,8.541-.719,12.238a3.166,3.166,0,0,0,2.31,4.138,57.637,57.637,0,0,0,42.56-7.409c13.913-8.687,24.5-22,32.009-36.588s12.122-30.47,16.014-46.4A579.325,579.325,0,0,0,275.1,203.375" transform="translate(-155.31 -185.021)" fill="none" stroke="#2a1510" stroke-linecap="round" stroke-linejoin="round" stroke-miterlimit="10" stroke-width="1"/>
            </g>
            <g id="Grupo_1221403" data-name="Grupo 1221403" transform="translate(54.718 25.464)">
              <path id="Trazado_1170601" data-name="Trazado 1170601" d="M249.427,224.674l-12.4,5.506c9.779,14.007,17.889,26.464,27.668,40.471,4.715-16.334,7.248-30.27,10.17-46.353C266.948,223.616,256.69,221.449,249.427,224.674Z" transform="translate(-229.577 -154.131)" fill="#f2ad93"/>
              <path id="Trazado_1170602" data-name="Trazado 1170602" d="M259.061,183.794a76.925,76.925,0,0,0-13.169-.475,15.982,15.982,0,0,1-8.848-2.173c-4.877-2.882-8.1-8.087-9.433-13.593s-.945-11.3.15-16.861c1.3-6.594,3.75-13.257,8.683-17.821s12.819-6.418,18.545-2.9c4.852-3.107,12.177-1.258,16.135,2.927s5.657,9.985,6.855,15.62c1.255,5.9,2.107,12.009,1.079,17.954s-4.18,11.758-9.387,14.8A17.7,17.7,0,0,1,259.061,183.794Z" transform="translate(-226.763 -128.137)" fill="#e64a19"/>
              <path id="Trazado_1170603" data-name="Trazado 1170603" d="M259.357,184.681a69.059,69.059,0,0,0-12.209-.455,14.436,14.436,0,0,1-8.2-2.082c-4.521-2.761-7.507-7.748-8.745-13.023a39.027,39.027,0,0,1,.139-16.154c1.2-6.317,3.476-12.7,8.05-17.073s11.884-6.149,17.193-2.779c4.5-2.976,11.29-1.206,14.959,2.8s5.243,9.567,6.355,14.965c1.164,5.654,1.953,11.506,1,17.2s-3.875,11.265-8.7,14.184A16,16,0,0,1,259.357,184.681Z" transform="translate(-227.49 -129.02)" fill="#bf360c"/>
              <g id="Grupo_1221397" data-name="Grupo 1221397" transform="translate(16.628 36.601)">
                <path id="Trazado_1170604" data-name="Trazado 1170604" d="M250.053,205.13q.119,8.233.238,16.466c-.461.494,7.806,13.331,12.942,17.671,4.081-4.648,8.526-17.47,7.561-17.822-.123-.831-.234-1.669-.34-2.509C262.969,221.967,255.633,213.971,250.053,205.13Z" transform="translate(-249.776 -185.846)" fill="#f2ad93"/>
                <path id="Trazado_1170605" data-name="Trazado 1170605" d="M249.672,178.713q.138,9.567.277,19.133c5.579,8.841,12.916,16.837,20.4,13.806a217.755,217.755,0,0,1-1.381-22.735C264.252,181.25,256.2,177.77,249.672,178.713Z" transform="translate(-249.672 -178.562)" fill="#f77f54"/>
              </g>
              <g id="Grupo_1221402" data-name="Grupo 1221402" transform="translate(3.99 7.98)">
                <g id="Grupo_1221400" data-name="Grupo 1221400">
                  <g id="Grupo_1221399" data-name="Grupo 1221399">
                    <path id="Trazado_1170606" data-name="Trazado 1170606" d="M238.419,173.85a7.97,7.97,0,0,0-2.074-2.681,2.724,2.724,0,0,0-3.178-.167,2.6,2.6,0,0,0-.894,1.856,6.256,6.256,0,0,0,.281,2.091,21.94,21.94,0,0,0,1.3,3.568,5.526,5.526,0,0,0,1.956,2.529,3.13,3.13,0,0,0,4.582-1.688" transform="translate(-232.261 -147.748)" fill="#f77f54"/>
                    <path id="Trazado_1170607" data-name="Trazado 1170607" d="M287.673,173.85a7.971,7.971,0,0,1,2.074-2.681,2.724,2.724,0,0,1,3.178-.167,2.6,2.6,0,0,1,.894,1.856,6.258,6.258,0,0,1-.281,2.091,21.943,21.943,0,0,1-1.3,3.568,5.526,5.526,0,0,1-1.956,2.529,3.13,3.13,0,0,1-4.582-1.688" transform="translate(-246.911 -147.748)" fill="#f77f54"/>
                    <g id="Grupo_1221398" data-name="Grupo 1221398" transform="translate(4.88)">
                      <path id="Trazado_1170608" data-name="Trazado 1170608" d="M259.81,139.131l-1.974.009c-2.655,6.879-11.764,14.2-18.637,18.081a36.865,36.865,0,0,0,.217,9.461c1.08,6.987.309,8.932,5.254,14.165,2.559,2.708,9.133,4.455,13.531,4.646,4.057.176,11.229-4.189,13.532-6.74,4.685-5.19,3.616-6.178,4.168-11.345,0-2.765.244-6.532.4-9.924a29.173,29.173,0,0,1-2.748-1.743C268.6,152.441,261.749,145.286,259.81,139.131Z" transform="translate(-238.984 -139.131)" fill="#f2ad93"/>
                    </g>
                    <path id="Trazado_1170609" data-name="Trazado 1170609" d="M258.38,169.111a1.734,1.734,0,1,1-1.734-1.734A1.734,1.734,0,0,1,258.38,169.111Z" transform="translate(-238.471 -146.875)" fill="#2a1510"/>
                    <path id="Trazado_1170610" data-name="Trazado 1170610" d="M273.75,169.111a1.734,1.734,0,1,1-1.734-1.734A1.734,1.734,0,0,1,273.75,169.111Z" transform="translate(-242.684 -146.875)" fill="#2a1510"/>
                    <path id="Trazado_1170611" data-name="Trazado 1170611" d="M263.885,169.089c-1.32.951-3.5,6.668-2.705,8,.827,1.392,4.624,1.16,5.488-.054C267.407,176,264.9,169.3,263.885,169.089Z" transform="translate(-240.143 -147.344)" fill="url(#linear-gradient)"/>
                  </g>
                  <path id="Trazado_1170612" data-name="Trazado 1170612" d="M250.579,161.7a4.911,4.911,0,0,1,7.4-1.833" transform="translate(-237.283 -144.546)" fill="none" stroke="#2a1510" stroke-linecap="round" stroke-linejoin="round" stroke-miterlimit="10" stroke-width="1"/>
                  <path id="Trazado_1170613" data-name="Trazado 1170613" d="M268.99,159.795a4.394,4.394,0,0,1,7.139,1.08" transform="translate(-242.33 -144.419)" fill="none" stroke="#2a1510" stroke-linecap="round" stroke-linejoin="round" stroke-miterlimit="10" stroke-width="1"/>
                  <path id="Trazado_1170614" data-name="Trazado 1170614" d="M263.9,189.314a5.08,5.08,0,0,0,3.107-.67,5.482,5.482,0,0,0,2.108-2.551,8.788,8.788,0,0,0-2.678-1.714,2.983,2.983,0,0,0-3,.487h-.261a2.983,2.983,0,0,0-3-.487,8.763,8.763,0,0,0-2.678,1.714,5.491,5.491,0,0,0,2.108,2.551,5.07,5.07,0,0,0,3.107.67Z" transform="translate(-239.179 -151.484)" fill="#d13a3a"/>
                  <path id="Trazado_1170615" data-name="Trazado 1170615" d="M255.9,186.312a15.318,15.318,0,0,0,13.145-.179" transform="translate(-238.742 -152.017)" fill="none" stroke="#2a1510" stroke-linecap="round" stroke-linejoin="round" stroke-miterlimit="10" stroke-width="1"/>
                </g>
                <g id="Grupo_1221401" data-name="Grupo 1221401" transform="translate(3.173 10.358)">
                  <path id="Trazado_1170616" data-name="Trazado 1170616" d="M276.735,165.667c-2.56,2.792-6.615,3.694-10.4,3.679s-7.549-.791-11.337-.7c-3.133.074-6.241.74-9.374.668s-6.472-1.041-8.373-3.533c-.046-1.439-.571-3.006-.616-4.445a30.87,30.87,0,0,1,41.3-.019C277.757,162.409,276.909,164.573,276.735,165.667Z" transform="translate(-236.632 -153.401)" fill="#f4e6d0"/>
                  <path id="Trazado_1170617" data-name="Trazado 1170617" d="M238.43,165.016a57.691,57.691,0,0,1,20.554-4.031" transform="translate(-237.125 -155.48)" fill="none" stroke="#2a1510" stroke-linecap="round" stroke-linejoin="round" stroke-miterlimit="10" stroke-width="1"/>
                  <path id="Trazado_1170618" data-name="Trazado 1170618" d="M240.9,169.887c3.8,1.072,7.817-.04,11.65-.969s8.051-1.638,11.578.127" transform="translate(-237.802 -157.392)" fill="none" stroke="#2a1510" stroke-linecap="round" stroke-linejoin="round" stroke-miterlimit="10" stroke-width="1"/>
                  <path id="Trazado_1170619" data-name="Trazado 1170619" d="M261.065,156.163A26.951,26.951,0,0,1,282.218,161" transform="translate(-243.331 -154.024)" fill="none" stroke="#2a1510" stroke-linecap="round" stroke-linejoin="round" stroke-miterlimit="10" stroke-width="1"/>
                  <path id="Trazado_1170620" data-name="Trazado 1170620" d="M275.811,168.859a11.36,11.36,0,0,0,9.064-1.889" transform="translate(-247.373 -157.121)" fill="none" stroke="#2a1510" stroke-linecap="round" stroke-linejoin="round" stroke-miterlimit="10" stroke-width="1"/>
                </g>
              </g>
            </g>
            <g id="Grupo_1221407" data-name="Grupo 1221407" transform="translate(7.998)">
              <g id="Grupo_1221405" data-name="Grupo 1221405" transform="translate(29.214)">
                <path id="Trazado_1170621" data-name="Trazado 1170621" d="M240.03,297.54a1.881,1.881,0,0,0-2.1-1.636l-4.343.538a1.881,1.881,0,0,0-1.636,2.1l3.369,27.228,8.078-1Z" transform="translate(-210.676 -148.663)" fill="#c08329"/>
                <path id="Trazado_1170622" data-name="Trazado 1170622" d="M236.6,336.675l.028.229a4.07,4.07,0,1,0,8.078-1l-.028-.229Z" transform="translate(-211.955 -159.571)" fill="#6c301e"/>
                <g id="Grupo_1221404" data-name="Grupo 1221404">
                  <path id="Trazado_1170623" data-name="Trazado 1170623" d="M207.044,94.892l-4.1,18.457a12.454,12.454,0,0,0-.123,4.775l21,124.271,3.409-.422-18.42-148.84A2.271,2.271,0,0,0,207.044,94.892Z" transform="translate(-202.645 -93.076)" fill="#efebe9"/>
                  <path id="Trazado_1170624" data-name="Trazado 1170624" d="M223.605,115.814a12.457,12.457,0,0,0-1.306-4.587L213.71,94.321a2.288,2.288,0,0,0-2.577-1.21l18.42,148.84,4.7-.582Z" transform="translate(-204.972 -93.055)" fill="#d7ccc8"/>
                </g>
                <path id="Trazado_1170625" data-name="Trazado 1170625" d="M245.061,292.383a4.578,4.578,0,0,0-3.848-.277c-1.757.567-3.4,1.8-5.236,1.593a9.554,9.554,0,0,1-2.913-1.157,4.978,4.978,0,0,0-5.333.66,9.55,9.55,0,0,1-2.543,1.832c-1.726.65-3.624-.147-5.466-.269a4.576,4.576,0,0,0-3.665,1.207,2.461,2.461,0,0,0,.032,3.482,2.837,2.837,0,0,0,2.9.155,8.208,8.208,0,0,0,2.348-1.914c.677-.709,1.838-.39,2.764-.053s1.718.947,2.606,1.37a9.72,9.72,0,0,0,8.759-1.084c.759-.626,1.378-1.411,2.193-1.964s1.864-1.145,2.694-.623a8.2,8.2,0,0,0,2.744,1.284,2.835,2.835,0,0,0,2.778-.858A2.464,2.464,0,0,0,245.061,292.383Z" transform="translate(-206.13 -147.547)" fill="#6c301e"/>
                <path id="Trazado_1170626" data-name="Trazado 1170626" d="M240.163,305.192l-2.389,1.365a1.561,1.561,0,0,1-1.153.143l-2.649-.742a.673.673,0,0,1-.162-1.309l2.389-1.365a1.561,1.561,0,0,1,1.153-.143l2.649.742A.673.673,0,0,1,240.163,305.192Z" transform="translate(-211.064 -150.637)" fill="#6c301e"/>
                <path id="Trazado_1170627" data-name="Trazado 1170627" d="M240.989,311.86l-2.389,1.365a1.561,1.561,0,0,1-1.153.143l-2.649-.742a.673.673,0,0,1-.162-1.309l2.389-1.365a1.561,1.561,0,0,1,1.153-.143l2.649.742A.673.673,0,0,1,240.989,311.86Z" transform="translate(-211.29 -152.465)" fill="#6c301e"/>
                <path id="Trazado_1170628" data-name="Trazado 1170628" d="M241.814,318.529l-2.389,1.365a1.565,1.565,0,0,1-1.153.143l-2.649-.742a.673.673,0,0,1-.162-1.309l2.389-1.365a1.561,1.561,0,0,1,1.153-.143l2.649.742A.673.673,0,0,1,241.814,318.529Z" transform="translate(-211.517 -154.293)" fill="#6c301e"/>
                <path id="Trazado_1170629" data-name="Trazado 1170629" d="M242.639,325.2l-2.389,1.365a1.561,1.561,0,0,1-1.153.143l-2.649-.742a.673.673,0,0,1-.162-1.31l2.389-1.365a1.561,1.561,0,0,1,1.153-.143l2.649.742A.673.673,0,0,1,242.639,325.2Z" transform="translate(-211.743 -156.122)" fill="#6c301e"/>
                <path id="Trazado_1170630" data-name="Trazado 1170630" d="M243.464,331.865l-2.389,1.365a1.562,1.562,0,0,1-1.153.143l-2.649-.742a.673.673,0,0,1-.162-1.309l2.389-1.365a1.565,1.565,0,0,1,1.153-.143l2.649.742A.673.673,0,0,1,243.464,331.865Z" transform="translate(-211.969 -157.95)" fill="#6c301e"/>
              </g>
              <g id="Grupo_1221406" data-name="Grupo 1221406" transform="translate(0 155.672)">
                <path id="Trazado_1170631" data-name="Trazado 1170631" d="M226.651,312.593a2.084,2.084,0,0,0-1.515-1.441,4.254,4.254,0,0,0,.953-1.33,1.444,1.444,0,0,0-.242-1.536,2.164,2.164,0,0,0-1.941-.229,97.414,97.414,0,0,0-9.9,2.191l-.4-2.722a25.486,25.486,0,0,0-6.692,1.027,2.754,2.754,0,0,0-1.527,1.279c-2.008,3.663-4.513,10.637-6.671,14l-29.332,8.023a9.43,9.43,0,0,0-6.475,12.159h0a9.43,9.43,0,0,0,13.011,5.445l30.059-14.465c6.9-3,14.92-10.028,20.956-14.52a1.77,1.77,0,0,0,.687-1.59,1.732,1.732,0,0,0-.98-1.4,2.074,2.074,0,0,0-.486-3.026A1.783,1.783,0,0,0,226.651,312.593Z" transform="translate(-162.397 -307.525)" fill="#f2ad93"/>
                <line id="Línea_727" data-name="Línea 727" x1="9.702" y2="3.431" transform="translate(53.038 3.626)" fill="none" stroke="#2a1510" stroke-linecap="round" stroke-linejoin="round" stroke-miterlimit="10" stroke-width="1"/>
                <line id="Línea_728" data-name="Línea 728" x1="9.702" y2="3.431" transform="translate(53.877 7.164)" fill="none" stroke="#2a1510" stroke-linecap="round" stroke-linejoin="round" stroke-miterlimit="10" stroke-width="1"/>
                <line id="Línea_729" data-name="Línea 729" x1="9.702" y2="3.431" transform="translate(54.422 9.935)" fill="none" stroke="#2a1510" stroke-linecap="round" stroke-linejoin="round" stroke-miterlimit="10" stroke-width="1"/>
              </g>
            </g>
            <g id="Grupo_1221413" data-name="Grupo 1221413" transform="translate(102.682 0.111)">
              <path id="Trazado_1170632" data-name="Trazado 1170632" d="M346.32,196.959l-41.172-13.991a.531.531,0,0,1-.332-.674h0a.532.532,0,0,1,.674-.332l41.172,13.991a.532.532,0,0,1,.332.674h0A.532.532,0,0,1,346.32,196.959Z" transform="translate(-296.118 -117.532)" fill="#6c301e"/>
              <path id="Trazado_1170633" data-name="Trazado 1170633" d="M343.179,110.509a53.568,53.568,0,0,0-7.7,6.971.987.987,0,0,1-1.717-.6,6.377,6.377,0,0,1,.735-3.534c1.772-3.26,5.339-5.049,8.7-6.612" transform="translate(-304.057 -96.917)" fill="#f77f54"/>
              <g id="Grupo_1221408" data-name="Grupo 1221408" transform="translate(26.258 10.47)">
                <path id="Trazado_1170634" data-name="Trazado 1170634" d="M333.426,132.248v-5.482c1.037-2.139,1.944-4.518,1.132-6.709-.288-.778-.784-1.489-1.132-2.238v-3.133a9.641,9.641,0,0,1,.863-1.44,8.452,8.452,0,0,0,1.179-2.016,2.494,2.494,0,0,0-.2-2.246,1.542,1.542,0,0,0-1.847-.522.837.837,0,0,0-1.674.005,1.541,1.541,0,0,0-1.855.518,2.5,2.5,0,0,0-.2,2.246,8.452,8.452,0,0,0,1.179,2.016,9.56,9.56,0,0,1,.872,1.459V117.8c-.348.756-.849,1.474-1.14,2.26-.815,2.2.1,4.584,1.14,6.728v5.445c-.079.166-.16.332-.248.5-.923,1.693-.55,8.184.248,9.549v5.507a11.036,11.036,0,0,0-1.344,3.9c-.081,1.6.7,3.138,1.344,4.658v14.289a.838.838,0,0,0,1.676,0V156.316a10.873,10.873,0,0,0,1.334-4.637,10.943,10.943,0,0,0-1.334-3.878V142.26c.8-1.359,1.163-7.841.239-9.534C333.58,132.569,333.5,132.409,333.426,132.248Z" transform="translate(-329.159 -107.632)" fill="#6c301e"/>
                <path id="Trazado_1170635" data-name="Trazado 1170635" d="M335.879,191.129a3.43,3.43,0,1,1-3.43-3.43A3.43,3.43,0,0,1,335.879,191.129Z" transform="translate(-329.02 -129.583)" fill="#6c301e"/>
                <path id="Trazado_1170636" data-name="Trazado 1170636" d="M335.641,174.209c0,.59-1.369,1.069-3.058,1.069s-3.058-.478-3.058-1.069,1.369-1.069,3.058-1.069S335.641,173.618,335.641,174.209Z" transform="translate(-329.158 -125.592)" fill="#6c301e"/>
                <path id="Trazado_1170637" data-name="Trazado 1170637" d="M335.641,161.926c0,.59-1.369,1.069-3.058,1.069s-3.058-.478-3.058-1.069,1.369-1.069,3.058-1.069S335.641,161.336,335.641,161.926Z" transform="translate(-329.158 -122.224)" fill="#6c301e"/>
              </g>
              <g id="Grupo_1221410" data-name="Grupo 1221410" transform="translate(17.392)">
                <path id="Trazado_1170638" data-name="Trazado 1170638" d="M341.846,108.218l8.453,2.588a12.086,12.086,0,0,0,3.168.667,8.107,8.107,0,0,0,4.478-1.389,24.19,24.19,0,0,0,3.649-3.041c-1.8-1.7-4.3-2.4-6.689-3.042a19.022,19.022,0,0,0-5.6-.921,9.635,9.635,0,0,0-7.391,4" transform="translate(-323.67 -95.912)" fill="#f77f54"/>
                <g id="Grupo_1221409" data-name="Grupo 1221409">
                  <path id="Trazado_1170639" data-name="Trazado 1170639" d="M330.066,93.207,317.78,95.718a1.218,1.218,0,0,0-.946,1.454l2.148,9.845a1.691,1.691,0,0,0,1.109,1.241l7.8,2.644a1.042,1.042,0,0,0,1.3-1.384h0a4.976,4.976,0,0,0-2.457-2.6l-3.771-1.8-.908-5.364,6.408-.2,4.817,9.173a1.571,1.571,0,0,0,1.994.72l9.508-3.954v-2.253h4.99a9.254,9.254,0,0,0,6-2.209l3.663-1.725-.121-.745a4.694,4.694,0,0,0-4.365-3.932Z" transform="translate(-316.805 -93.207)" fill="#f2ad93"/>
                  <line id="Línea_730" data-name="Línea 730" x1="4.203" y1="10.455" transform="translate(16.307 4.939)" fill="none" stroke="#2a1510" stroke-linecap="round" stroke-linejoin="round" stroke-miterlimit="10" stroke-width="1"/>
                  <line id="Línea_731" data-name="Línea 731" x1="2.781" y1="8.526" transform="translate(21.613 5.252)" fill="none" stroke="#2a1510" stroke-linecap="round" stroke-linejoin="round" stroke-miterlimit="10" stroke-width="1"/>
                  <path id="Trazado_1170640" data-name="Trazado 1170640" d="M354.892,107.579a12.671,12.671,0,0,0-1.222-6.766" transform="translate(-326.912 -95.292)" fill="none" stroke="#2a1510" stroke-linecap="round" stroke-linejoin="round" stroke-miterlimit="10" stroke-width="1"/>
                  <path id="Trazado_1170641" data-name="Trazado 1170641" d="M355.45,105.194l.992-1.533" transform="translate(-327.4 -96.073)" fill="none" stroke="#2a1510" stroke-linecap="round" stroke-linejoin="round" stroke-miterlimit="10" stroke-width="1"/>
                </g>
              </g>
              <path id="Trazado_1170642" data-name="Trazado 1170642" d="M361.521,94.719l.28,67.832a10,10,0,0,0,11.932,9.81h0a10,10,0,0,0,7.936-11.418L371.575,98.977a4.694,4.694,0,0,0-4.365-3.932Z" transform="translate(-311.672 -93.622)" fill="#f2ad93"/>
              <path id="Trazado_1170643" data-name="Trazado 1170643" d="M335.08,191.614a2.145,2.145,0,1,1-2.145-2.145A2.145,2.145,0,0,1,335.08,191.614Z" transform="translate(-303.247 -119.598)" fill="#c08329"/>
              <g id="Grupo_1221411" data-name="Grupo 1221411" transform="translate(0 65.069)">
                <path id="Trazado_1170644" data-name="Trazado 1170644" d="M302.516,182.853l-8.268,20.076h16.537Z" transform="translate(-293.229 -182.853)" fill="none" stroke="#2a1510" stroke-linecap="round" stroke-linejoin="round" stroke-miterlimit="10" stroke-width="1"/>
                <path id="Trazado_1170645" data-name="Trazado 1170645" d="M292.844,209.514c.377,3.425,4.387,6.122,9.287,6.122s8.91-2.7,9.287-6.122Z" transform="translate(-292.844 -190.162)" fill="#fbcc34"/>
              </g>
              <g id="Grupo_1221412" data-name="Grupo 1221412" transform="translate(41.036 78.932)">
                <path id="Trazado_1170646" data-name="Trazado 1170646" d="M359.052,201.953l-8.269,20.077H367.32Z" transform="translate(-349.765 -201.953)" fill="none" stroke="#2a1510" stroke-linecap="round" stroke-linejoin="round" stroke-miterlimit="10" stroke-width="1"/>
                <path id="Trazado_1170647" data-name="Trazado 1170647" d="M349.38,228.615c.377,3.425,4.387,6.122,9.287,6.122s8.91-2.7,9.287-6.122Z" transform="translate(-349.38 -209.263)" fill="#fbcc34"/>
              </g>
              <path id="Trazado_1170648" data-name="Trazado 1170648" d="M292.844,209.514c.377,3.425,4.387,6.122,9.287,6.122" transform="translate(-292.844 -125.093)" fill="none" stroke="#2a1510" stroke-linecap="round" stroke-linejoin="round" stroke-miterlimit="10" stroke-width="1"/>
              <path id="Trazado_1170649" data-name="Trazado 1170649" d="M349.38,228.615c.377,3.425,4.387,6.122,9.287,6.122" transform="translate(-308.344 -130.33)" fill="none" stroke="#2a1510" stroke-linecap="round" stroke-linejoin="round" stroke-miterlimit="10" stroke-width="1"/>
            </g>
          </g>
        </g>
      </g>
    </g>
  </g>
</svg>
