<svg xmlns="http://www.w3.org/2000/svg" xmlns:xlink="http://www.w3.org/1999/xlink" width="103" height="103" viewBox="0 0 103 103">
  <defs>
    <filter id="Trazado_978624" x="0" y="0" width="103" height="103" filterUnits="userSpaceOnUse">
      <feOffset dy="3" input="SourceAlpha"/>
      <feGaussianBlur stdDeviation="3" result="blur"/>
      <feFlood flood-opacity="0.161"/>
      <feComposite operator="in" in2="blur"/>
      <feComposite in="SourceGraphic"/>
    </filter>
  </defs>
  <g id="Grupo_1229673" data-name="Grupo 1229673" transform="translate(-198 -4487)">
    <g id="Grupo_1229317" data-name="Grupo 1229317" transform="translate(207 4493)">
      <g id="Grupo_1226902" data-name="Grupo 1226902" transform="translate(0)">
        <g id="Grupo_1226078" data-name="Grupo 1226078">
          <g id="Grupo_1224953" data-name="Grupo 1224953">
            <g id="Grupo_1222589" data-name="Grupo 1222589">
              <g id="Grupo_1203109" data-name="Grupo 1203109">
                <g id="Grupo_1176881" data-name="Grupo 1176881">
                  <g id="Grupo_1175148" data-name="Grupo 1175148">
                    <g id="Grupo_1173798" data-name="Grupo 1173798">
                      <g id="Grupo_1171925" data-name="Grupo 1171925">
                        <g id="Grupo_1164524" data-name="Grupo 1164524">
                          <g id="Grupo_1144123" data-name="Grupo 1144123">
                            <g transform="matrix(1, 0, 0, 1, -9, -6)" filter="url(#Trazado_978624)">
                              <g id="Trazado_978624-2" data-name="Trazado 978624" transform="translate(9 6)" fill="#fcf5f0">
                                <path d="M 42.49999618530273 83.50006866455078 C 36.96437454223633 83.50006866455078 31.59512519836426 82.41624450683594 26.54140853881836 80.27870178222656 C 21.65933799743652 78.2137451171875 17.27446746826172 75.25728607177734 13.50861930847168 71.49143218994141 C 9.74276065826416 67.72557067871094 6.786302089691162 63.34071350097656 4.721360683441162 58.4586296081543 C 2.583819627761841 53.40491104125977 1.499996185302734 48.03566741943359 1.499996185302734 42.50003051757812 C 1.499996185302734 36.96439361572266 2.583819627761841 31.59514808654785 4.721360683441162 26.54143142700195 C 6.786302089691162 21.65935897827148 9.74276065826416 17.27448844909668 13.50861930847168 13.50863075256348 C 17.27446746826172 9.742783546447754 21.65933799743652 6.786324501037598 26.54140853881836 4.721371650695801 C 31.59512519836426 2.583830595016479 36.96437454223633 1.500007033348083 42.49999618530273 1.500007033348083 C 48.03561782836914 1.500007033348083 53.40486526489258 2.583830595016479 58.45858383178711 4.721371650695801 C 63.34065628051758 6.786324501037598 67.72551727294922 9.742783546447754 71.49137115478516 13.50863075256348 C 75.25721740722656 17.27448844909668 78.21369171142578 21.65935897827148 80.27863311767578 26.54143142700195 C 82.41617584228516 31.59514808654785 83.5 36.96439361572266 83.5 42.50003051757812 C 83.5 48.03566741943359 82.41617584228516 53.40491104125977 80.27863311767578 58.4586296081543 C 78.21369171142578 63.34071350097656 75.25721740722656 67.72557067871094 71.49137115478516 71.49143218994141 C 67.72551727294922 75.25728607177734 63.34065628051758 78.2137451171875 58.45858383178711 80.27870178222656 C 53.40486526489258 82.41624450683594 48.03561782836914 83.50006866455078 42.49999618530273 83.50006866455078 Z" stroke="none"/>
                                <path d="M 42.49999618530273 3.000007629394531 C 37.16621017456055 3.000007629394531 31.99355697631836 4.043960571289062 27.12572860717773 6.102882385253906 C 22.42246246337891 8.092201232910156 18.19786071777344 10.94071197509766 14.56927490234375 14.56929779052734 C 10.94070434570312 18.19786834716797 8.092185974121094 22.4224853515625 6.102874755859375 27.12575149536133 C 4.043952941894531 31.99359130859375 2.999992370605469 37.16624450683594 2.999992370605469 42.50003051757812 C 2.999992370605469 47.83381652832031 4.043952941894531 53.0064697265625 6.102874755859375 57.87431335449219 C 8.092185974121094 62.57757568359375 10.94070434570312 66.80219268798828 14.56927490234375 70.43076324462891 C 18.19786071777344 74.05934906005859 22.42246246337891 76.90785980224609 27.12572860717773 78.89717864990234 C 31.99355697631836 80.95610046386719 37.16621017456055 82.00006103515625 42.49999618530273 82.00006103515625 C 47.83378219604492 82.00006103515625 53.00642395019531 80.95610046386719 57.87425231933594 78.89717864990234 C 62.57752990722656 76.90785980224609 66.80213165283203 74.05934906005859 70.43071746826172 70.43076324462891 C 74.05928802490234 66.80219268798828 76.90780639648438 62.57757568359375 78.89711761474609 57.87431335449219 C 80.95603942871094 53.0064697265625 82 47.83381652832031 82 42.50003051757812 C 82 37.16624450683594 80.95603942871094 31.99359130859375 78.89711761474609 27.12575149536133 C 76.90780639648438 22.4224853515625 74.05928802490234 18.19786834716797 70.43071746826172 14.56929779052734 C 66.80213165283203 10.94071197509766 62.57752990722656 8.092201232910156 57.87425231933594 6.102882385253906 C 53.00642395019531 4.043960571289062 47.83378219604492 3.000007629394531 42.49999618530273 3.000007629394531 M 42.49999618530273 7.62939453125e-06 C 65.97209167480469 7.62939453125e-06 85 19.02790832519531 85 42.50003051757812 C 85 65.97215270996094 65.97209167480469 85.00005340576172 42.49999618530273 85.00005340576172 C 19.02789306640625 85.00005340576172 -7.62939453125e-06 65.97215270996094 -7.62939453125e-06 42.50003051757812 C -7.62939453125e-06 19.02790832519531 19.02789306640625 7.62939453125e-06 42.49999618530273 7.62939453125e-06 Z" stroke="none" fill="#eca675"/>
                              </g>
                            </g>
                          </g>
                        </g>
                      </g>
                    </g>
                  </g>
                </g>
              </g>
            </g>
          </g>
        </g>
      </g>
    </g>
    <g id="obediente_8_" data-name="obediente (8)" transform="translate(216.244 4507.677)">
      <g id="Grupo_1229663" data-name="Grupo 1229663" transform="translate(9.69 0.815)">
        <g id="Grupo_1229661" data-name="Grupo 1229661">
          <g id="Grupo_1229658" data-name="Grupo 1229658" transform="translate(0 21.295)">
            <g id="Grupo_1229651" data-name="Grupo 1229651" transform="translate(0 0)">
              <path id="Trazado_1192542" data-name="Trazado 1192542" d="M39.2,203.929l1.958,3.391a.326.326,0,0,0,.282.163H54.859a.326.326,0,0,0,.282-.163l1.958-3.391a.326.326,0,0,0-.282-.489H39.487A.326.326,0,0,0,39.2,203.929Z" transform="translate(-39.16 -203.44)" fill="#fed402"/>
            </g>
            <g id="Grupo_1229657" data-name="Grupo 1229657">
              <g id="Grupo_1229652" data-name="Grupo 1229652" transform="translate(29.151 0)">
                <path id="Trazado_1192543" data-name="Trazado 1192543" d="M307.426,203.929l1.958,3.391a.326.326,0,0,0,.282.163H323.08a.326.326,0,0,0,.282-.163l1.958-3.391a.326.326,0,0,0-.282-.489H307.708A.326.326,0,0,0,307.426,203.929Z" transform="translate(-307.382 -203.44)" fill="#fed402"/>
              </g>
              <g id="Grupo_1229653" data-name="Grupo 1229653" transform="translate(0 0)">
                <path id="Trazado_1192544" data-name="Trazado 1192544" d="M39.2,203.929l1.958,3.391a.326.326,0,0,0,.282.163H54.859a.326.326,0,0,0,.282-.163l1.958-3.391a.326.326,0,0,0-.282-.489H39.487A.326.326,0,0,0,39.2,203.929Z" transform="translate(-39.16 -203.44)" fill="#ca6e59"/>
              </g>
              <g id="Grupo_1229654" data-name="Grupo 1229654" transform="translate(0)">
                <path id="Trazado_1192545" data-name="Trazado 1192545" d="M45.769,207.319l-1.958-3.391a.326.326,0,0,1,.282-.489H39.487a.326.326,0,0,0-.282.489l1.958,3.391a.326.326,0,0,0,.282.163h4.606A.326.326,0,0,1,45.769,207.319Z" transform="translate(-39.161 -203.439)" fill="#bb5d4c"/>
              </g>
              <g id="Grupo_1229655" data-name="Grupo 1229655" transform="translate(29.151 0)">
                <path id="Trazado_1192546" data-name="Trazado 1192546" d="M307.426,203.929l1.958,3.391a.326.326,0,0,0,.282.163H323.08a.326.326,0,0,0,.282-.163l1.958-3.391a.326.326,0,0,0-.282-.489H307.708A.326.326,0,0,0,307.426,203.929Z" transform="translate(-307.382 -203.44)" fill="#ca6e59"/>
              </g>
              <g id="Grupo_1229656" data-name="Grupo 1229656" transform="translate(29.151)">
                <path id="Trazado_1192547" data-name="Trazado 1192547" d="M314.56,207.319l-1.958-3.391a.326.326,0,0,1,.282-.489h-5.175a.326.326,0,0,0-.282.489l1.958,3.391a.326.326,0,0,0,.282.163h5.175A.326.326,0,0,1,314.56,207.319Z" transform="translate(-307.383 -203.439)" fill="#bb5d4c"/>
              </g>
            </g>
          </g>
          <path id="Trazado_1192548" data-name="Trazado 1192548" d="M240.321,123.595V103.666a.543.543,0,0,0-.543-.543h-3.268a.544.544,0,0,0-.543.543v19.928h4.355Z" transform="translate(-214.576 -92.73)" fill="#bb5d4c"/>
          <path id="Trazado_1192549" data-name="Trazado 1192549" d="M237.81,123.595V103.666a.543.543,0,0,1,.543-.543h-1.844a.544.544,0,0,0-.543.543v19.928h1.844Z" transform="translate(-214.576 -92.73)" fill="#a44f3e"/>
          <g id="Grupo_1229659" data-name="Grupo 1229659" transform="translate(20.524 0)">
            <circle id="Elipse_14824" data-name="Elipse 14824" cx="3.043" cy="3.043" r="3.043" fill="#883f2e"/>
          </g>
          <g id="Grupo_1229660" data-name="Grupo 1229660" transform="translate(20.524)">
            <path id="Trazado_1192550" data-name="Trazado 1192550" d="M230.723,10.543a3.042,3.042,0,0,1,1.684-2.722,3.043,3.043,0,1,0,0,5.444A3.042,3.042,0,0,1,230.723,10.543Z" transform="translate(-228.005 -7.5)" fill="#6d3326"/>
          </g>
        </g>
        <g id="Grupo_1229662" data-name="Grupo 1229662" transform="translate(4.189 30.865)">
          <path id="Trazado_1192551" data-name="Trazado 1192551" d="M219.417,296.155v-2.5a2.174,2.174,0,0,0-2.174-2.174H211.43a2.174,2.174,0,0,0-2.174,2.174v2.5Z" transform="translate(-194.958 -291.485)" fill="#883f2e"/>
          <path id="Trazado_1192552" data-name="Trazado 1192552" d="M212.923,296.155v-2.5a2.174,2.174,0,0,1,2.174-2.174h-3.668a2.174,2.174,0,0,0-2.174,2.174v2.5Z" transform="translate(-194.957 -291.485)" fill="#6d3326"/>
          <path id="Trazado_1192553" data-name="Trazado 1192553" d="M189.611,339.408V336.32a1.863,1.863,0,0,0-1.863-1.863H173.035a1.863,1.863,0,0,0-1.863,1.863v3.088Z" transform="translate(-161.013 -329.787)" fill="#bb5d4c"/>
          <path id="Trazado_1192554" data-name="Trazado 1192554" d="M175.756,339.408V336.32a1.863,1.863,0,0,1,1.863-1.863h-4.583a1.863,1.863,0,0,0-1.863,1.863v3.088Z" transform="translate(-161.014 -329.787)" fill="#a44f3e"/>
          <path id="Trazado_1192555" data-name="Trazado 1192555" d="M80.606,379.006a2.9,2.9,0,0,0-2.9,2.9v5.516a2.9,2.9,0,0,0,2.9,2.9h1.177v-7.693h5.936v7.693h33.24V379.006Z" transform="translate(-77.703 -369.494)" fill="#fff3de"/>
        </g>
      </g>
      <g id="Grupo_1229672" data-name="Grupo 1229672" transform="translate(6.911 41.192)">
        <g id="Grupo_1229667" data-name="Grupo 1229667" transform="translate(0)">
          <g id="Grupo_1229664" data-name="Grupo 1229664">
            <path id="Trazado_1192556" data-name="Trazado 1192556" d="M23.466,390.328a2.9,2.9,0,0,1-2.9-2.9v-5.516a2.9,2.9,0,0,1,2.9-2.9H19.257a5.661,5.661,0,0,0,0,11.322h4.209Z" transform="translate(-13.596 -379.006)" fill="#3675bb"/>
          </g>
          <g id="Grupo_1229665" data-name="Grupo 1229665">
            <path id="Trazado_1192557" data-name="Trazado 1192557" d="M16.346,384.667a5.661,5.661,0,0,1,5.661-5.661h-2.75a5.661,5.661,0,0,0,0,11.322h2.75A5.661,5.661,0,0,1,16.346,384.667Z" transform="translate(-13.596 -379.006)" fill="#2b68b6"/>
          </g>
          <g id="Grupo_1229666" data-name="Grupo 1229666" transform="translate(6.967 0.004)">
            <path id="Trazado_1192558" data-name="Trazado 1192558" d="M81.783,387.178a2.9,2.9,0,0,1-1.33-2.44v-5.516c0-.061,0-.122.006-.182a2.9,2.9,0,0,0-2.756,2.9v5.516a2.9,2.9,0,0,0,2.9,2.9h1.177Z" transform="translate(-77.703 -379.041)" fill="#ffe5c2"/>
            <path id="Trazado_1192559" data-name="Trazado 1192559" d="M169.857,458.174H203.1v2.718h-33.24Z" transform="translate(-159.841 -449.574)" fill="#ffe5c2"/>
          </g>
        </g>
        <g id="Grupo_1229671" data-name="Grupo 1229671" transform="translate(11.047 3.629)">
          <g id="Grupo_1229668" data-name="Grupo 1229668">
            <path id="Trazado_1192560" data-name="Trazado 1192560" d="M121.176,422.079V412.4H115.24v9.684a.326.326,0,0,0,.512.268l2.456-1.7,2.456,1.7A.326.326,0,0,0,121.176,422.079Z" transform="translate(-115.24 -412.395)" fill="#fb2b3a"/>
          </g>
          <g id="Grupo_1229670" data-name="Grupo 1229670" transform="translate(0)">
            <g id="Grupo_1229669" data-name="Grupo 1229669">
              <path id="Trazado_1192561" data-name="Trazado 1192561" d="M117.973,412.4H115.24v9.684a.326.326,0,0,0,.512.268l2.221-1.537Z" transform="translate(-115.24 -412.395)" fill="#e41f2d"/>
            </g>
          </g>
        </g>
      </g>
      <path id="Trazado_1192562" data-name="Trazado 1192562" d="M59.6,51.7H57.949V42.007H59.6a.815.815,0,0,0,0-1.63H43.291V38.213a2.681,2.681,0,0,0-2.678-2.678H39.152V33.853a2.992,2.992,0,0,0-2.9-2.987V17.715a.815.815,0,0,0-1.63,0V30.864H31.894V12.023h2.724v1.889a.815.815,0,0,0,1.63,0v-2.16a1.36,1.36,0,0,0-1.359-1.359h-.819V7.628a3.869,3.869,0,0,0,2.955-2.955h9.99V6.16L39.047,21.3a1.139,1.139,0,0,0-.868,1.7L40.137,26.4a1.144,1.144,0,0,0,.988.571H48.8a.815.815,0,1,0,0-1.63H41.408l-1.393-2.413H55.65l-1.393,2.413H52.6a.815.815,0,1,0,0,1.63h1.937a1.144,1.144,0,0,0,.988-.571l1.958-3.391a1.139,1.139,0,0,0-.868-1.7L48.647,6.16V4.673H51.7a.815.815,0,0,0,0-1.63H37.027a3.857,3.857,0,0,0-7.541,0H14.814a.815.815,0,1,0,0,1.63h3.051V6.16L9.9,21.3a1.139,1.139,0,0,0-.868,1.7h0L10.986,26.4a1.144,1.144,0,0,0,.988.57H25.388a1.144,1.144,0,0,0,.988-.571l1.958-3.391a1.139,1.139,0,0,0-.868-1.7L19.5,6.16V4.673h9.99a3.869,3.869,0,0,0,2.955,2.955v2.765h-.819a1.36,1.36,0,0,0-1.359,1.359V30.867a2.992,2.992,0,0,0-2.9,2.987v1.682H25.9a2.681,2.681,0,0,0-2.678,2.678v2.164H12.572a6.476,6.476,0,1,0,0,12.952h4.571V54.5a1.141,1.141,0,0,0,1.791.938l1.993-1.379,1.993,1.379a1.141,1.141,0,0,0,1.791-.938V53.329H59.6a.815.815,0,1,0,0-1.63ZM47.017,21.3H40.893L47.017,9.66ZM48.647,9.66,54.771,21.3H48.647Zm-30.782,0V21.3H11.742Zm7.24,15.679H12.256l-1.393-2.413H26.5ZM25.62,21.3H19.5V9.66ZM31.029,3.858a2.227,2.227,0,1,1,2.227,2.227A2.23,2.23,0,0,1,31.029,3.858Zm-2.038,30a1.36,1.36,0,0,1,1.359-1.359h5.813a1.36,1.36,0,0,1,1.359,1.359v1.682h-8.53ZM12.572,51.7a4.846,4.846,0,1,1,0-9.692h1.135a3.7,3.7,0,0,0-.643,2.088v5.516a3.7,3.7,0,0,0,.643,2.088Zm10.507,1.873L21.39,52.4a.815.815,0,0,0-.928,0l-1.689,1.169V45.636h4.306Zm33.24-9.566H38.7a.815.815,0,0,0,0,1.63H56.319V48.07H38.7a.815.815,0,0,0,0,1.63H56.319v2H24.709V45.636h6.878a.815.815,0,0,0,0-1.63H16.782a.815.815,0,0,0,0,1.63h.361V51.7h-.361a2.09,2.09,0,0,1-2.088-2.088V44.095a2.09,2.09,0,0,1,2.088-2.088H29.887a.815.815,0,1,0,0-1.63H24.852V38.213A1.049,1.049,0,0,1,25.9,37.165H40.613a1.049,1.049,0,0,1,1.048,1.048v2.164h-7.97a.815.815,0,0,0,0,1.63H56.319Z" transform="translate(0 0)"/>
    </g>
  </g>
</svg>
