<svg xmlns="http://www.w3.org/2000/svg" xmlns:xlink="http://www.w3.org/1999/xlink" width="103" height="103" viewBox="0 0 103 103">
  <defs>
    <filter id="Trazado_978624" x="0" y="0" width="103" height="103" filterUnits="userSpaceOnUse">
      <feOffset dy="3" input="SourceAlpha"/>
      <feGaussianBlur stdDeviation="3" result="blur"/>
      <feFlood flood-opacity="0.161"/>
      <feComposite operator="in" in2="blur"/>
      <feComposite in="SourceGraphic"/>
    </filter>
  </defs>
  <g id="Grupo_1229689" data-name="Grupo 1229689" transform="translate(9 6)">
    <g id="Grupo_1229382" data-name="Grupo 1229382" transform="translate(0 0)">
      <g id="Grupo_1226922" data-name="Grupo 1226922">
        <g id="Grupo_1224934" data-name="Grupo 1224934">
          <g id="Grupo_1222589" data-name="Grupo 1222589">
            <g id="Grupo_1203109" data-name="Grupo 1203109">
              <g id="Grupo_1176881" data-name="Grupo 1176881">
                <g id="Grupo_1175148" data-name="Grupo 1175148">
                  <g id="Grupo_1173798" data-name="Grupo 1173798">
                    <g id="Grupo_1171925" data-name="Grupo 1171925">
                      <g id="Grupo_1164524" data-name="Grupo 1164524">
                        <g id="Grupo_1144123" data-name="Grupo 1144123">
                          <g transform="matrix(1, 0, 0, 1, -9, -6)" filter="url(#Trazado_978624)">
                            <g id="Trazado_978624-2" data-name="Trazado 978624" transform="translate(9 6)" fill="#e7f2f8">
                              <path d="M 42.5 83.49997711181641 C 36.96437835693359 83.49997711181641 31.59512901306152 82.41616058349609 26.54141235351562 80.27861785888672 C 21.65934181213379 78.21367645263672 17.27447128295898 75.25721740722656 13.50862312316895 71.49137115478516 C 9.742764472961426 67.72550964355469 6.786305904388428 63.34065246582031 4.721364498138428 58.45858001708984 C 2.583823442459106 53.40486145019531 1.5 48.03561401367188 1.5 42.49999237060547 C 1.5 36.96437072753906 2.583823442459106 31.59512138366699 4.721364498138428 26.54140472412109 C 6.786305904388428 21.65933418273926 9.742764472961426 17.27447509765625 13.50862312316895 13.50862789154053 C 17.27447128295898 9.742769241333008 21.65934181213379 6.786310195922852 26.54141235351562 4.721368789672852 C 31.59512901306152 2.58382773399353 36.96437835693359 1.500004172325134 42.5 1.500004172325134 C 48.03562164306641 1.500004172325134 53.40486907958984 2.58382773399353 58.45858764648438 4.721368789672852 C 63.34066009521484 6.786310195922852 67.72553253173828 9.742769241333008 71.49137878417969 13.50862789154053 C 75.25723266601562 17.27447509765625 78.21369171142578 21.65933418273926 80.27863311767578 26.54140472412109 C 82.41617584228516 31.59512138366699 83.5 36.96437072753906 83.5 42.49999237060547 C 83.5 48.03561401367188 82.41617584228516 53.40486145019531 80.27863311767578 58.45858001708984 C 78.21369171142578 63.34065246582031 75.25723266601562 67.72550964355469 71.49137878417969 71.49137115478516 C 67.72553253173828 75.25721740722656 63.34066009521484 78.21367645263672 58.45858764648438 80.27861785888672 C 53.40486907958984 82.41616058349609 48.03562164306641 83.49997711181641 42.5 83.49997711181641 Z" stroke="none"/>
                              <path d="M 42.5 2.999992370605469 C 37.16621398925781 2.999992370605469 31.99356079101562 4.043952941894531 27.125732421875 6.102874755859375 C 22.42246627807617 8.092178344726562 18.19785308837891 10.94069671630859 14.56928253173828 14.56927490234375 C 10.94070434570312 18.19784545898438 8.092185974121094 22.42245864868164 6.102882385253906 27.12572479248047 C 4.043960571289062 31.99355316162109 3 37.16620635986328 3 42.49999237060547 C 3 47.83377838134766 4.043960571289062 53.00641632080078 6.102867126464844 57.87424468994141 C 8.092185974121094 62.5775260925293 10.94070434570312 66.8021240234375 14.56928253173828 70.43070220947266 C 18.19785308837891 74.05927276611328 22.42246627807617 76.90779113769531 27.125732421875 78.89710998535156 C 31.99356079101562 80.95601654052734 37.16621398925781 81.99997711181641 42.5 81.99997711181641 C 47.83378601074219 81.99997711181641 53.00643920898438 80.95601654052734 57.87425231933594 78.89710998535156 C 62.57753372192383 76.90779113769531 66.80213165283203 74.05927276611328 70.43071746826172 70.43070220947266 C 74.05929565429688 66.8021240234375 76.90781402587891 62.5775260925293 78.89711761474609 57.87424468994141 C 80.95603942871094 53.00641632080078 82 47.83377838134766 82 42.49999237060547 C 82 37.16620635986328 80.95603942871094 31.99355316162109 78.89711761474609 27.12572479248047 C 76.90781402587891 22.42245864868164 74.05929565429688 18.19786071777344 70.43071746826172 14.56927490234375 C 66.80213165283203 10.94069671630859 62.57753372192383 8.092178344726562 57.87425231933594 6.102874755859375 C 53.00643920898438 4.043952941894531 47.83378601074219 2.999992370605469 42.5 2.999992370605469 M 42.5 -7.62939453125e-06 C 65.97209167480469 -7.62939453125e-06 85 19.02788543701172 85 42.49999237060547 C 85 65.97208404541016 65.97209167480469 84.99997711181641 42.5 84.99997711181641 C 19.02789306640625 84.99997711181641 0 65.97208404541016 0 42.49999237060547 C 0 19.02788543701172 19.02789306640625 -7.62939453125e-06 42.5 -7.62939453125e-06 Z" stroke="none" fill="#248abf"/>
                            </g>
                          </g>
                        </g>
                      </g>
                    </g>
                  </g>
                </g>
              </g>
            </g>
          </g>
        </g>
      </g>
    </g>
    <g id="ley_7_" data-name="ley (7)" transform="translate(11 10)">
      <g id="Grupo_1229680" data-name="Grupo 1229680" transform="translate(13.034 36.46)">
        <g id="Grupo_1229675" data-name="Grupo 1229675" transform="translate(0 3.195)">
          <path id="Trazado_1192563" data-name="Trazado 1192563" d="M148.3,357.284a10.173,10.173,0,0,0,2.442,6.7H113.934a1.165,1.165,0,0,1-.951-.486,11.859,11.859,0,0,1,0-12.426,1.165,1.165,0,0,1,.951-.486h36.811A10.174,10.174,0,0,0,148.3,357.284Z" transform="translate(-111.226 -350.585)" fill="#fb3a82"/>
          <path id="Trazado_1192564" data-name="Trazado 1192564" d="M122.46,350.587,112.08,361.831a11.763,11.763,0,0,1-.85-4.545,10.632,10.632,0,0,1,1.758-6.213,1.163,1.163,0,0,1,.95-.486Z" transform="translate(-111.23 -350.587)" fill="#fb1466"/>
          <path id="Trazado_1192565" data-name="Trazado 1192565" d="M182.869,357.284a10.173,10.173,0,0,0,2.442,6.7H147.939s-2.148-2.175-2.148-6.7,2.148-6.7,2.148-6.7h37.372A10.174,10.174,0,0,0,182.869,357.284Z" transform="translate(-141.74 -350.585)" fill="#e0d3ce"/>
          <g id="Grupo_1229674" data-name="Grupo 1229674" transform="translate(4.05 0)">
            <path id="Trazado_1192566" data-name="Trazado 1192566" d="M152.97,350.587l-7.141,7.736c-.025-.33-.039-.676-.039-1.036,0-4.525,2.148-6.7,2.148-6.7Z" transform="translate(-145.79 -350.587)" fill="#cdbfbb"/>
            <path id="Trazado_1192567" data-name="Trazado 1192567" d="M428.827,357.291a10.171,10.171,0,0,0,2.442,6.7h-4.428a10.409,10.409,0,0,1,0-13.4h4.428A10.169,10.169,0,0,0,428.827,357.291Z" transform="translate(-391.749 -350.591)" fill="#cdbfbb"/>
          </g>
        </g>
        <g id="Grupo_1229679" data-name="Grupo 1229679" transform="translate(5.043)">
          <g id="Grupo_1229677" data-name="Grupo 1229677" transform="translate(0)">
            <path id="Trazado_1192568" data-name="Trazado 1192568" d="M195.3,325.262a1.945,1.945,0,0,1-1.944,1.944H156.2a1.945,1.945,0,0,1,0-3.889h37.155A1.945,1.945,0,0,1,195.3,325.262Z" transform="translate(-154.26 -323.317)" fill="#fb3a82"/>
            <g id="Grupo_1229676" data-name="Grupo 1229676">
              <path id="Trazado_1192569" data-name="Trazado 1192569" d="M163.4,323.317l-3.589,3.889h-3.6a1.945,1.945,0,0,1,0-3.889Z" transform="translate(-154.26 -323.317)" fill="#fb1466"/>
              <path id="Trazado_1192570" data-name="Trazado 1192570" d="M461.43,325.265a1.947,1.947,0,0,1-1.946,1.946h-3.772a1.945,1.945,0,0,0,0-3.89h3.772A1.945,1.945,0,0,1,461.43,325.265Z" transform="translate(-420.386 -323.321)" fill="#fb1466"/>
            </g>
          </g>
          <g id="Grupo_1229678" data-name="Grupo 1229678" transform="translate(0 15.9)">
            <path id="Trazado_1192571" data-name="Trazado 1192571" d="M193.356,462.885H156.2a1.945,1.945,0,1,1,0-3.889h37.154a1.945,1.945,0,0,1,0,3.889Z" transform="translate(-154.257 -458.996)" fill="#fb3a82"/>
            <path id="Trazado_1192572" data-name="Trazado 1192572" d="M461.43,460.944a1.944,1.944,0,0,1-1.946,1.944h-3.772a1.944,1.944,0,0,0,0-3.888h3.772A1.945,1.945,0,0,1,461.43,460.944Z" transform="translate(-420.386 -459)" fill="#fb1466"/>
          </g>
        </g>
      </g>
      <g id="Grupo_1229688" data-name="Grupo 1229688" transform="translate(0 0)">
        <g id="Grupo_1229683" data-name="Grupo 1229683" transform="translate(0.879 23.225)">
          <g id="Grupo_1229681" data-name="Grupo 1229681" transform="translate(0 7.439)">
            <path id="Trazado_1192573" data-name="Trazado 1192573" d="M33.1,277l-3.139-3.139L8.589,293.585a3.384,3.384,0,1,0,4.782,4.782Z" transform="translate(-7.5 -273.857)" fill="#873f30"/>
            <path id="Trazado_1192574" data-name="Trazado 1192574" d="M14.528,305.739a3.385,3.385,0,0,1-4.785,0,3.351,3.351,0,0,1-.825-1.348,3.379,3.379,0,0,0,3.434-.822c.032-.032.065-.067.1-.1L32.177,282.1l2.174,2.174L14.622,305.641C14.591,305.675,14.559,305.708,14.528,305.739Z" transform="translate(-8.752 -281.13)" fill="#6c3328"/>
          </g>
          <path id="Trazado_1192575" data-name="Trazado 1192575" d="M197.865,210.382l-7.229,8.623,2.953,2.953,8.623-7.229Z" transform="translate(-169.175 -210.382)" fill="#873f30"/>
          <path id="Trazado_1192576" data-name="Trazado 1192576" d="M206.628,210.382l-2.336,2.786.7.7a1.321,1.321,0,0,1,0,1.868l-4.431,4.431,1.79,1.79,8.623-7.229Z" transform="translate(-177.937 -210.382)" fill="#6c3328"/>
          <g id="Grupo_1229682" data-name="Grupo 1229682" transform="translate(19.069 6.858)">
            <path id="Trazado_1192577" data-name="Trazado 1192577" d="M173.71,275.388l-2.867-2.867a2.122,2.122,0,0,1,3-3l2.867,2.867a2.122,2.122,0,1,1-3,3Z" transform="translate(-170.222 -268.899)" fill="#ba5d4f"/>
            <path id="Trazado_1192578" data-name="Trazado 1192578" d="M186.615,285.3a2.122,2.122,0,0,1-3,0l-2.173-2.173a2.122,2.122,0,0,0,3-3l2.173,2.173A2.121,2.121,0,0,1,186.615,285.3Z" transform="translate(-180.126 -278.808)" fill="#a34f41"/>
          </g>
        </g>
        <g id="Grupo_1229684" data-name="Grupo 1229684" transform="translate(23.322 3.517)">
          <path id="Trazado_1192579" data-name="Trazado 1192579" d="M0,0H9V14.132H0Z" transform="translate(9.993 0) rotate(45)" fill="#ba5d4f"/>
          <path id="Trazado_1192580" data-name="Trazado 1192580" d="M0,0H9V14.132H0Z" transform="translate(20.308 30.309) rotate(-135)" fill="#a34f41"/>
        </g>
        <g id="Grupo_1229687" data-name="Grupo 1229687">
          <path id="Trazado_1192581" data-name="Trazado 1192581" d="M177.33,34.518l-.221-.221a2.147,2.147,0,0,1,0-3.036l10.938-10.938a2.147,2.147,0,0,1,3.036,0l.221.221a2.147,2.147,0,0,1,0,3.036L180.366,34.518a2.147,2.147,0,0,1-3.036,0Z" transform="translate(-155.798 -18.815)" fill="#873f30"/>
          <path id="Trazado_1192582" data-name="Trazado 1192582" d="M348.872,206.06l.221.221a2.147,2.147,0,0,0,3.036,0l10.938-10.938a2.147,2.147,0,0,0,0-3.036l-.221-.221a2.147,2.147,0,0,0-3.036,0l-10.938,10.938A2.147,2.147,0,0,0,348.872,206.06Z" transform="translate(-307.433 -170.449)" fill="#6c3328"/>
          <g id="Grupo_1229686" data-name="Grupo 1229686">
            <path id="Trazado_1192583" data-name="Trazado 1192583" d="M0,0H10.109V21.344H0Z" transform="translate(42.442 7.543) rotate(45)" fill="#fcc16d"/>
            <path id="Trazado_1192584" data-name="Trazado 1192584" d="M0,0H21.344V5.116H0Z" transform="translate(30.876 26.174) rotate(-45)" fill="#fca62f"/>
            <path id="Trazado_1192585" data-name="Trazado 1192585" d="M239.92,67.7l-1.751-.716a1.61,1.61,0,0,0-1.748.352l-12.3,12.3a1.61,1.61,0,0,0-.352,1.748l.716,1.751a1.073,1.073,0,0,0,1.753.353l14.032-14.032A1.074,1.074,0,0,0,239.92,67.7Z" transform="translate(-197.443 -60.459)" fill="#873f30"/>
            <path id="Trazado_1192586" data-name="Trazado 1192586" d="M304.52,132.3l.716,1.751a1.61,1.61,0,0,1-.352,1.748l-12.3,12.3a1.61,1.61,0,0,1-1.748.352l-1.751-.716a1.073,1.073,0,0,1-.353-1.753l14.032-14.032a1.074,1.074,0,0,1,1.753.353Z" transform="translate(-254.621 -117.638)" fill="#6c3328"/>
            <g id="Grupo_1229685" data-name="Grupo 1229685">
              <path id="Trazado_1192587" data-name="Trazado 1192587" d="M57.176,63.674h-.654a9.089,9.089,0,0,1-.757-1.443.879.879,0,1,0-1.624.672c.109.263.23.519.358.771H20.021a2.812,2.812,0,0,0-.766.107,10.217,10.217,0,0,1-1.292-5.233c0-.383.017-.761.05-1.131H34.853a.879.879,0,0,0,0-1.758h-16.1l2.065-2.237H54.494a10.972,10.972,0,0,0-.846,2.237H42.1a.879.879,0,0,0,0,1.758H53.34c-.034.357-.054.718-.056,1.082a.879.879,0,0,0,.875.883h0a.879.879,0,0,0,.879-.875,9.4,9.4,0,0,1,1.478-5.084h.656a2.824,2.824,0,0,0,0-5.647H46.189L56.255,37.708a3.026,3.026,0,0,0,0-4.279l-.221-.221a3.024,3.024,0,0,0-4.124-.144l-1.556-1.556.53-.53a2.483,2.483,0,0,0,.544-2.7l-.716-1.751A1.948,1.948,0,0,0,49.3,25.352l-1.222-1.222a.879.879,0,0,0-1.243,1.243l.6.6L33.583,39.825l-4.074-4.073L43.361,21.9l.539.539A.879.879,0,1,0,45.143,21.2l-1.16-1.16a1.948,1.948,0,0,0-1.173-1.414h0l-1.751-.716a2.484,2.484,0,0,0-2.7.544l-.53.53L36.27,17.424a3.024,3.024,0,0,0-.144-4.123l-.221-.221a3.026,3.026,0,0,0-4.279,0L20.688,24.017a3.026,3.026,0,0,0,0,4.279l.221.221a3.024,3.024,0,0,0,4.124.144l1.556,1.556-.53.53a2.484,2.484,0,0,0-.544,2.7l.716,1.751a1.947,1.947,0,0,0,1.394,1.169l-4.407,5.257a3,3,0,0,0-3.966,3.807l-2,1.845a.879.879,0,0,0,1.192,1.292l1.847-1.7,2.177,2.177L6.1,66.771a2.505,2.505,0,1,1-3.54-3.54L15.4,51.38a.879.879,0,0,0-1.192-1.292L1.371,61.94a4.263,4.263,0,0,0,2.889,7.4h.088a4.227,4.227,0,0,0,3.047-1.371l5.268-5.706a10.13,10.13,0,0,0,1.413,3.013,2.047,2.047,0,0,0,1.667.856h1.481a2.819,2.819,0,0,0,2.8,3.2H57.176a2.824,2.824,0,0,0,0-5.647ZM58.241,50.6a1.067,1.067,0,0,1-1.066,1.066H22.442L23.9,50.081a3,3,0,0,0,3-.549H57.176A1.067,1.067,0,0,1,58.241,50.6ZM31.726,40.455l-5.089,4.266L24.613,42.7l4.266-5.089Zm-3.834,7.32a3.018,3.018,0,0,0-.183-1.658l5.257-4.407A1.948,1.948,0,0,0,34.134,43.1l1.751.716a2.484,2.484,0,0,0,2.7-.544l.53-.53L40.673,44.3a3.031,3.031,0,0,0-.35,3.473H27.892Zm26-13.7a1.26,1.26,0,0,1,.9.371l.221.221a1.268,1.268,0,0,1,0,1.793L44.074,47.4a1.268,1.268,0,0,1-1.793,0l-.221-.221a1.269,1.269,0,0,1,0-1.793L53,34.451A1.259,1.259,0,0,1,53.894,34.08Zm-3.233.222L41.91,43.053,40.36,41.5l8.751-8.752ZM34.735,41.159,48.768,27.126a.185.185,0,0,1,.134-.057.214.214,0,0,1,.042,0,.187.187,0,0,1,.142.117l.716,1.751a.729.729,0,0,1-.16.794l-12.3,12.3a.73.73,0,0,1-.794.16L34.8,41.476a.195.195,0,0,1-.064-.318ZM23.049,27.646a1.259,1.259,0,0,1-.9-.371l-.221-.221a1.268,1.268,0,0,1,0-1.793L32.869,14.323a1.268,1.268,0,0,1,1.793,0l.221.221a1.268,1.268,0,0,1,0,1.793L23.946,27.275A1.261,1.261,0,0,1,23.049,27.646Zm3.233-.222,8.752-8.752,1.55,1.55-8.752,8.752ZM27.3,31.99l12.3-12.3a.729.729,0,0,1,.794-.16l1.751.716a.194.194,0,0,1,.064.318L28.176,34.6a.194.194,0,0,1-.318-.064l-.716-1.751A.73.73,0,0,1,27.3,31.99ZM20.826,44.4a1.243,1.243,0,0,1,2.122-.879l2.867,2.867a1.243,1.243,0,0,1-1.758,1.758l-2.866-2.867a1.235,1.235,0,0,1-.364-.879ZM15.508,64.252A8.867,8.867,0,0,1,14.1,60.7l2.107-2.282c0,.043,0,.087,0,.13a12.2,12.2,0,0,0,1.363,5.82H15.742A.286.286,0,0,1,15.508,64.252Zm41.668,3.312H20.021a1.066,1.066,0,1,1,0-2.131H57.176a1.066,1.066,0,0,1,0,2.131Z" transform="translate(0.001 -12.193)"/>
              <path id="Trazado_1192588" data-name="Trazado 1192588" d="M203.206,417.166a.879.879,0,0,0,0,1.758h20.476a.879.879,0,0,0,0-1.758Z" transform="translate(-178.617 -369.708)"/>
            </g>
          </g>
        </g>
      </g>
    </g>
  </g>
</svg>
