<svg xmlns="http://www.w3.org/2000/svg" xmlns:xlink="http://www.w3.org/1999/xlink" width="295" height="363" viewBox="0 0 295 363">
  <defs>
    <clipPath id="clip-path">
      <rect id="Rectángulo_422957" data-name="Rectángulo 422957" width="295" height="363" transform="translate(180 5894)" fill="#fff" stroke="#707070" stroke-width="1"/>
    </clipPath>
    <clipPath id="clip-path-2">
      <rect id="Rectángulo_422958" data-name="Rectángulo 422958" width="100.739" height="98.246" fill="none"/>
    </clipPath>
    <clipPath id="clip-path-3">
      <rect id="Rectángulo_422960" data-name="Rectángulo 422960" width="220.127" height="228.41" fill="none"/>
    </clipPath>
    <clipPath id="clip-path-4">
      <rect id="Rectángulo_422959" data-name="Rectángulo 422959" width="122.053" height="292.094" fill="none"/>
    </clipPath>
    <clipPath id="clip-path-5">
      <rect id="Rectángulo_422961" data-name="Rectángulo 422961" width="6.298" height="40.393" fill="none"/>
    </clipPath>
    <clipPath id="clip-path-6">
      <rect id="Rectángulo_422962" data-name="Rectángulo 422962" width="35.718" height="83.779" fill="none"/>
    </clipPath>
    <clipPath id="clip-path-7">
      <rect id="Rectángulo_422963" data-name="Rectángulo 422963" width="31.225" height="74.262" fill="none"/>
    </clipPath>
    <clipPath id="clip-path-8">
      <rect id="Rectángulo_422964" data-name="Rectángulo 422964" width="21.552" height="10.2" fill="none"/>
    </clipPath>
    <clipPath id="clip-path-10">
      <rect id="Rectángulo_422966" data-name="Rectángulo 422966" width="5.433" height="5.309" fill="none"/>
    </clipPath>
    <clipPath id="clip-path-11">
      <rect id="Rectángulo_422967" data-name="Rectángulo 422967" width="73.854" height="58.749" fill="none"/>
    </clipPath>
    <clipPath id="clip-path-12">
      <rect id="Rectángulo_422968" data-name="Rectángulo 422968" width="4.323" height="2.163" fill="none"/>
    </clipPath>
    <clipPath id="clip-path-13">
      <rect id="Rectángulo_422969" data-name="Rectángulo 422969" width="15.503" height="7.604" fill="none"/>
    </clipPath>
    <clipPath id="clip-path-14">
      <rect id="Rectángulo_422970" data-name="Rectángulo 422970" width="10.049" height="4.128" fill="none"/>
    </clipPath>
    <clipPath id="clip-path-15">
      <rect id="Rectángulo_422971" data-name="Rectángulo 422971" width="34.971" height="7.835" fill="none"/>
    </clipPath>
    <clipPath id="clip-path-16">
      <rect id="Rectángulo_422972" data-name="Rectángulo 422972" width="26.841" height="4.24" fill="none"/>
    </clipPath>
    <clipPath id="clip-path-17">
      <rect id="Rectángulo_422973" data-name="Rectángulo 422973" width="19.875" height="12.908" fill="none"/>
    </clipPath>
    <clipPath id="clip-path-18">
      <rect id="Rectángulo_422974" data-name="Rectángulo 422974" width="58.667" height="74.591" fill="none"/>
    </clipPath>
    <clipPath id="clip-path-19">
      <rect id="Rectángulo_422975" data-name="Rectángulo 422975" width="48.781" height="27.083" fill="none"/>
    </clipPath>
    <clipPath id="clip-path-20">
      <rect id="Rectángulo_422976" data-name="Rectángulo 422976" width="23.008" height="11.023" fill="none"/>
    </clipPath>
    <clipPath id="clip-path-22">
      <rect id="Rectángulo_422978" data-name="Rectángulo 422978" width="66.824" height="62.889" fill="none"/>
    </clipPath>
    <clipPath id="clip-path-23">
      <rect id="Rectángulo_422979" data-name="Rectángulo 422979" width="76.494" height="12.82" fill="none"/>
    </clipPath>
    <clipPath id="clip-path-24">
      <rect id="Rectángulo_422980" data-name="Rectángulo 422980" width="76.334" height="12.568" fill="none"/>
    </clipPath>
    <clipPath id="clip-path-25">
      <rect id="Rectángulo_422981" data-name="Rectángulo 422981" width="8.547" height="2.791" fill="none"/>
    </clipPath>
    <clipPath id="clip-path-26">
      <rect id="Rectángulo_422982" data-name="Rectángulo 422982" width="3.202" height="2.704" fill="none"/>
    </clipPath>
    <clipPath id="clip-path-27">
      <rect id="Rectángulo_422983" data-name="Rectángulo 422983" width="9.852" height="5.336" fill="none"/>
    </clipPath>
    <clipPath id="clip-path-28">
      <rect id="Rectángulo_422984" data-name="Rectángulo 422984" width="93.992" height="108.949" fill="none"/>
    </clipPath>
    <clipPath id="clip-path-29">
      <rect id="Rectángulo_422985" data-name="Rectángulo 422985" width="71.001" height="110.019" fill="none"/>
    </clipPath>
    <clipPath id="clip-path-30">
      <rect id="Rectángulo_422986" data-name="Rectángulo 422986" width="3.851" height="3.866" fill="none"/>
    </clipPath>
    <clipPath id="clip-path-31">
      <rect id="Rectángulo_422987" data-name="Rectángulo 422987" width="45.334" height="53.971" fill="none"/>
    </clipPath>
    <clipPath id="clip-path-32">
      <rect id="Rectángulo_422988" data-name="Rectángulo 422988" width="53.008" height="40.271" fill="none"/>
    </clipPath>
    <clipPath id="clip-path-33">
      <rect id="Rectángulo_422989" data-name="Rectángulo 422989" width="14.29" height="11.005" fill="none"/>
    </clipPath>
    <clipPath id="clip-path-34">
      <rect id="Rectángulo_422990" data-name="Rectángulo 422990" width="4.946" height="3.557" fill="none"/>
    </clipPath>
    <clipPath id="clip-path-35">
      <rect id="Rectángulo_422991" data-name="Rectángulo 422991" width="3.016" height="1.614" fill="none"/>
    </clipPath>
    <clipPath id="clip-path-36">
      <rect id="Rectángulo_422992" data-name="Rectángulo 422992" width="7.876" height="5.115" fill="none"/>
    </clipPath>
    <clipPath id="clip-path-37">
      <rect id="Rectángulo_422993" data-name="Rectángulo 422993" width="8.819" height="4.391" fill="none"/>
    </clipPath>
    <clipPath id="clip-path-38">
      <rect id="Rectángulo_422994" data-name="Rectángulo 422994" width="10.794" height="5.743" fill="none"/>
    </clipPath>
    <clipPath id="clip-path-39">
      <rect id="Rectángulo_422995" data-name="Rectángulo 422995" width="8.431" height="3.758" fill="none"/>
    </clipPath>
    <clipPath id="clip-path-40">
      <rect id="Rectángulo_422996" data-name="Rectángulo 422996" width="10.415" height="8.588" fill="none"/>
    </clipPath>
    <clipPath id="clip-path-41">
      <rect id="Rectángulo_422997" data-name="Rectángulo 422997" width="11.18" height="8.896" fill="none"/>
    </clipPath>
    <clipPath id="clip-path-42">
      <rect id="Rectángulo_422998" data-name="Rectángulo 422998" width="76.498" height="34.503" fill="none"/>
    </clipPath>
    <clipPath id="clip-path-43">
      <rect id="Rectángulo_422999" data-name="Rectángulo 422999" width="105.646" height="62.68" fill="none"/>
    </clipPath>
    <clipPath id="clip-path-44">
      <rect id="Rectángulo_423000" data-name="Rectángulo 423000" width="8.128" height="5.542" fill="none"/>
    </clipPath>
  </defs>
  <g id="Grupo_1229865" data-name="Grupo 1229865" transform="translate(-180 -5894)">
    <rect id="Rectángulo_423005" data-name="Rectángulo 423005" width="221" height="284" transform="translate(180 5894)" fill="#899e78"/>
    <g id="Enmascarar_grupo_1225075" data-name="Enmascarar grupo 1225075" clip-path="url(#clip-path)">
      <g id="Grupo_1229864" data-name="Grupo 1229864" transform="translate(1631.219)">
        <g id="Grupo_1229863" data-name="Grupo 1229863" transform="translate(47.569 31.049)">
          <path id="Trazado_1192589" data-name="Trazado 1192589" d="M292.724,300.659s36.808,4.4,45.829,17.658-64.685,5.438-72.578,27.089" transform="translate(-1584.973 5797.887)" fill="none" stroke="#595755" stroke-miterlimit="10" stroke-width="2"/>
          <path id="Trazado_1192590" data-name="Trazado 1192590" d="M27.33,20.766s28.4-14.445,52.991,11.857" transform="translate(-1507.947 5889.503)" fill="none" stroke="#595755" stroke-linecap="round" stroke-miterlimit="10" stroke-width="2"/>
          <path id="Trazado_1192591" data-name="Trazado 1192591" d="M31.011,233.624H78.085s-1.985-2.265-6.856-3.348c0,0,5.773-22.193-4.15-23.1S50.3,224.815,50.3,224.815s-1.082-9.876-5.954-9.876S39.111,231,39.111,231s-5.755-1.785-8.1,2.626" transform="translate(-1509.135 5828.068)" fill="#efefef"/>
          <path id="Trazado_1192592" data-name="Trazado 1192592" d="M347.615,83.938h47.074s-1.985-2.265-6.856-3.348c0,0,5.773-22.193-4.15-23.1S366.9,75.129,366.9,75.129s-1.082-9.876-5.954-9.876-5.232,16.059-5.232,16.059-5.755-1.785-8.1,2.626" transform="translate(-1611.323 5876.381)" fill="#efefef"/>
          <path id="Trazado_1192593" data-name="Trazado 1192593" d="M78.085,60.148H31.011S33,57.883,37.867,56.8c0,0-1.044-22.225,8.879-23.127S58.8,51.341,58.8,51.341s1.082-9.877,5.954-9.877,5.232,16.059,5.232,16.059S75.739,55.738,78.085,60.148Z" transform="translate(-1509.135 5884.069)" fill="none" stroke="#e2dfde" stroke-linecap="round" stroke-linejoin="round" stroke-width="1"/>
          <path id="Trazado_1192594" data-name="Trazado 1192594" d="M277.435,116.891A116.89,116.89,0,1,1,160.545,0a116.89,116.89,0,0,1,116.89,116.89" transform="translate(-1513.216 5894.928)" fill="#e8ddd4"/>
          <path id="Trazado_1192595" data-name="Trazado 1192595" d="M324,123.223a116.871,116.871,0,0,0-62.731-103.6,14.438,14.438,0,0,0-7.418,8.369c-1.69,5.753,1.273,11.707,3.7,17.192a5.577,5.577,0,0,1,.657,3.828,5.5,5.5,0,0,1-2.6,2.691,68.019,68.019,0,0,1-12.787,6.262l-6.8-12.045a5.034,5.034,0,0,0-1.872-2.185,4.115,4.115,0,0,0-2.609-.194c-6.617,1.224-10.89,9.418-8.106,15.545-4-.4-7.452,4.475-5.746,8.114s7.662,4.105,9.913.775c1.536-2.271,1.265-5.3,2.28-7.853s4.92-4.31,6.307-1.944c.692,1.18.263,2.673.416,4.032.5,4.458,6.359,5.641,10.845,5.671-1.565,6.066-4.271,13.244-10.444,14.312-2.315.4-4.811-.188-6.972.735-2.925,1.249-4.128,4.808-4.168,7.988s.74,6.368.312,9.519c-3.168,1.972-7.429.157-10.032-2.517s-4.341-6.143-7.186-8.558-7.6-3.36-10.083-.577c-2.659,2.976-1.277,8.477-4.51,10.816-1.736,1.256-4.364,1.154-5.669,2.854a4.516,4.516,0,0,0-.75,3.008c.255,4.738,4.416,8.391,8.78,10.254s9.18,2.527,13.482,4.529,8.256,5.989,8.052,10.73c-.092,2.127-.942,4.528.37,6.2,1.564,1.994,5.07.973,6.311-1.237s.914-4.931.551-7.439q-.92-6.352-1.84-12.705a3.525,3.525,0,0,1,.3-2.609c.809-1.1,2.47-.885,3.825-.709,2.708.351,5.733-.046,7.639-2s1.9-5.763-.515-7.044c3.536.339,6.527-4.065,4.909-7.227-.5-.975-1.341-1.859-1.338-2.955.007-2.617,3.954-2.637,6.406-1.723,3.914,1.459,7.994,3.029,10.764,6.157s3.69,8.321.866,11.4a7.9,7.9,0,0,0-1.883,2.265c-.629,1.658.662,3.4,2.007,4.559,8,6.873,21.494,8.153,25.136,18.052a12.861,12.861,0,0,1-5.831,15.272c-11.116,5.912-25.676-6.6-36.807-.718-8.074,4.269-9.024,15.334-14.18,22.873a37.854,37.854,0,0,0-16.328-7.024c3.358,8.3,11.68,13.83,20.4,15.876,3.8.891,7.767,1.236,11.321,2.838s6.73,4.91,6.649,8.808c-.047,2.3-1.194,4.4-1.953,6.573a20.594,20.594,0,0,0,6.619,22.448c2.7,2.1,6.258,4.08,8.071,6.722A116.883,116.883,0,0,0,324,123.223" transform="translate(-1559.786 5888.596)" fill="#e0c8b6"/>
          <path id="Trazado_1192596" data-name="Trazado 1192596" d="M141.468,239.013a18.006,18.006,0,0,0-1.312-4.6,10.722,10.722,0,0,0-3.016-3.013l-24.387-18.577c-5.488-4.18-11.47-9.252-11.829-16.141-.349-6.682,4.829-12.337,10.215-16.308S122.7,173,126.1,167.232l-12.046-13.625c-1.467-1.659-3.141-3.43-5.342-3.676-4.636-.519-7.089,5.612-11.4,7.4-5.422,2.257-10.973-3-16.8-3.728a3.262,3.262,0,0,0-3.058.853,4.729,4.729,0,0,0-.537,2.718,9.2,9.2,0,0,1-18.34.6,5.023,5.023,0,0,1,.4-2.869,6.438,6.438,0,0,1,3.262-2.555c8.554-3.914,19.609-6.555,22.356-15.552,1.008-3.3.6-6.892,1.436-10.241.876-3.495,3.09-6.632,3.4-10.222C90.05,109,82.668,101.39,86.445,95.06c2.919-4.893,10.016-4.491,15.621-3.464l14.091,2.582c3.844.7,8.249,1.277,11.274-1.2,4.257-3.482,2.478-10.949-2.036-14.09s-10.44-3.148-15.93-2.835c-1.9.108-3.936.211-5.57-.767-3.812-2.281-3.164-8.868-7.117-10.895-2.584-1.325-5.66.077-8.559.238-5.954.33-10.993-4.945-12.528-10.731a116.486,116.486,0,0,0-32.035,80.388c0,1.185.023,2.364.058,3.541a10.269,10.269,0,0,0,7.6,2.34c-.425,4.8-3.157,8.722-6.2,12.576a116.4,116.4,0,0,0,25.6,56.324c4.88-.63,10.395.38,12.6,4.637,2.026,3.907.9,9.836,4.809,11.854a7.417,7.417,0,0,0,3.279.651c6.535.129,14.064-2.234,18.966,2.09,1.742,1.537,2.8,3.7,4.334,5.439,2.739,3.1,6.787,4.638,10.677,6.036q11.628,4.179,23.382,7.991a13.429,13.429,0,0,1-7.288-8.752" transform="translate(-1513.216 5877.531)" fill="#e0c8b6"/>
          <path id="Trazado_1192597" data-name="Trazado 1192597" d="M190.839,0a116.391,116.391,0,0,0-53.323,12.845,13.3,13.3,0,0,0,5.259,2.8c2.752.818,6.327.381,7.85-2.376.263-.476.5-1.05,1.011-1.23a1.835,1.835,0,0,1,1.3.216l5.955,2.612c1.8.788,3.747,1.723,4.546,3.515.74,1.659.328,3.752,1.407,5.213,1.146,1.552,3.388,1.656,5.317,1.615,3.979-.085,8.644-.542,10.714-3.942a13.087,13.087,0,0,1,1.234-2.052c2.488-2.771,7.629.388,10.653-1.786,2.118-1.522,1.957-4.74,3.382-6.924a5.5,5.5,0,0,1,6.988-1.754c1.942,1.063,3.1,3.26,5.1,4.2a5.041,5.041,0,0,0,6.6-2.691c.814-2.191.226-5.2,2.213-6.431a4.013,4.013,0,0,1,1.619-.5A117.152,117.152,0,0,0,190.839,0" transform="translate(-1543.511 5894.928)" fill="#f9f2ed"/>
          <path id="Trazado_1192598" data-name="Trazado 1192598" d="M158.965,44.815Z" transform="translate(-1550.434 5880.463)" fill="#f7cc9f"/>
          <g id="Grupo_1229692" data-name="Grupo 1229692" transform="translate(-1369.368 5907.519)" style="mix-blend-mode: soft-light;isolation: isolate">
            <g id="Grupo_1229691" data-name="Grupo 1229691">
              <g id="Grupo_1229690" data-name="Grupo 1229690" clip-path="url(#clip-path-2)">
                <path id="Trazado_1192599" data-name="Trazado 1192599" d="M284.437,107.36c-14.952,16.017-46.087,11.252-69.541-10.643S184.55,44.086,199.5,28.07s46.087-11.252,69.541,10.644,30.346,52.629,15.394,68.646" transform="translate(-191.599 -18.592)" fill="#e8ddd4"/>
              </g>
            </g>
          </g>
          <g id="Grupo_1229698" data-name="Grupo 1229698" transform="translate(-1469.562 5900.298)" opacity="0.33" style="mix-blend-mode: multiply;isolation: isolate">
            <g id="Grupo_1229697" data-name="Grupo 1229697">
              <g id="Grupo_1229696" data-name="Grupo 1229696" clip-path="url(#clip-path-3)">
                <path id="Trazado_1192601" data-name="Trazado 1192601" d="M189.035,204.186A108.434,108.434,0,0,1,125.43,7.931,116.905,116.905,0,1,0,263.781,174.306a108.064,108.064,0,0,1-74.746,29.88" transform="translate(-43.654 -7.93)" fill="#f7d1a9"/>
              </g>
            </g>
          </g>
          <path id="Trazado_1192603" data-name="Trazado 1192603" d="M10.279,325.568H85.433a75.756,75.756,0,0,0-19.943-3.789s4.15-9.649.361-10.237-9.743,8.433-9.743,8.433-7.217-24-20.027-23.456-14.254,25.26-14.254,25.26-2.165-3.789-3.789-3.789.541,4.33.541,4.33-6.676,0-8.3,3.248" transform="translate(-1502.444 5799.226)" fill="#efefef"/>
          <path id="Trazado_1192604" data-name="Trazado 1192604" d="M301.289,266.142h91.294a92.024,92.024,0,0,0-24.226-4.6s5.041-11.721.439-12.436-11.836,10.244-11.836,10.244-8.767-29.15-24.328-28.493-17.315,30.685-17.315,30.685-2.63-4.6-4.6-4.6.658,5.26.658,5.26-8.109,0-10.082,3.946" transform="translate(-1596.371 5820.42)" fill="#efefef"/>
          <path id="Trazado_1192605" data-name="Trazado 1192605" d="M227.5,32.687s22.18-20.573,34.9-14.588c15.895,7.481-23.442,45.7-114.2,51.413S27.1,65.9,19.916,83.883c-6.091,15.248,17.053,20.975,17.053,20.975" transform="translate(-1505.225 5889.438)" fill="none" stroke="#595755" stroke-miterlimit="10" stroke-width="2"/>
          <path id="Trazado_1192606" data-name="Trazado 1192606" d="M264.9,145.6s24.934-2.609,30.827,8.363c11.548,21.5-30.174,56.552-161.415,35.6S3.8,204.7,12.456,215.229c10.75,13.073,35.051,5.842,35.051,5.842" transform="translate(-1502.095 5848.02)" fill="none" stroke="#595755" stroke-miterlimit="10" stroke-width="2"/>
          <path id="Trazado_1192640" data-name="Trazado 1192640" d="M194.984,53.212Z" transform="translate(-1562.06 5877.753)" fill="#443018"/>
          <path id="Trazado_1192723" data-name="Trazado 1192723" d="M26.991,247.2l1.271,9.982.726-4.991,1.089,4.991.908-4.991,1.452,10.255" transform="translate(-1507.838 5815.142)" fill="none" stroke="#595755" stroke-linecap="round" stroke-linejoin="round" stroke-width="2"/>
          <path id="Trazado_1192724" data-name="Trazado 1192724" d="M39.634,89.633,40.9,99.616l.726-4.991,1.089,4.991.908-4.991,1.452,10.255" transform="translate(-1511.919 5865.998)" fill="none" stroke="#595755" stroke-linecap="round" stroke-linejoin="round" stroke-width="2"/>
          <path id="Trazado_1192725" data-name="Trazado 1192725" d="M18.93,203.261l5.033,8.714L22.7,207.092l2.935,4.182-1.094-4.954,5.305,8.9" transform="translate(-1505.236 5829.323)" fill="none" stroke="#595755" stroke-linecap="round" stroke-linejoin="round" stroke-width="2"/>
          <path id="Trazado_1192726" data-name="Trazado 1192726" d="M287.027,340.159l5.033,8.714-1.261-4.884,2.935,4.182-1.094-4.954,5.3,8.9" transform="translate(-1591.767 5785.138)" fill="none" stroke="#595755" stroke-linecap="round" stroke-linejoin="round" stroke-width="2"/>
          <path id="Trazado_1192727" data-name="Trazado 1192727" d="M92.416,189.666l-.837,10.029,1.75-4.731.025,5.108,1.927-4.693-.717,10.333" transform="translate(-1528.685 5833.711)" fill="none" stroke="#595755" stroke-linecap="round" stroke-linejoin="round" stroke-width="2"/>
          <path id="Trazado_1192728" data-name="Trazado 1192728" d="M270.211,207.149l-.837,10.029,1.75-4.731.025,5.108,1.927-4.693-.717,10.332" transform="translate(-1586.07 5828.068)" fill="none" stroke="#595755" stroke-linecap="round" stroke-linejoin="round" stroke-width="2"/>
          <path id="Trazado_1192729" data-name="Trazado 1192729" d="M347.9,300.659l-.837,10.029,1.75-4.731.025,5.108,1.927-4.693L350.05,316.7" transform="translate(-1611.145 5797.887)" fill="none" stroke="#595755" stroke-linecap="round" stroke-linejoin="round" stroke-width="2"/>
          <path id="Trazado_1192730" data-name="Trazado 1192730" d="M30.261,128.912,26.908,138.4l2.892-4.132-1.271,4.948,3.054-4.051-3.313,9.813" transform="translate(-1507.811 5853.32)" fill="none" stroke="#595755" stroke-linecap="round" stroke-linejoin="round" stroke-width="2"/>
          <path id="Trazado_1192731" data-name="Trazado 1192731" d="M129.983,84.7l-.837,10.029L130.9,90l.025,5.108,1.927-4.693-.717,10.332" transform="translate(-1540.809 5867.589)" fill="none" stroke="#595755" stroke-linecap="round" stroke-linejoin="round" stroke-width="2"/>
          <path id="Trazado_1192732" data-name="Trazado 1192732" d="M348.4,206.183l4.476,9.013-.952-4.953,2.666,4.357-.78-5.013,4.737,9.211" transform="translate(-1611.577 5828.38)" fill="none" stroke="#595755" stroke-linecap="round" stroke-linejoin="round" stroke-width="2"/>
          <path id="Trazado_1192733" data-name="Trazado 1192733" d="M290.025,69.729l4.476,9.013-.952-4.953,2.666,4.357-.78-5.012,4.737,9.21" transform="translate(-1592.735 5872.422)" fill="none" stroke="#595755" stroke-linecap="round" stroke-linejoin="round" stroke-width="2"/>
          <path id="Trazado_1192734" data-name="Trazado 1192734" d="M413.978,183.933l7.76,6.407L418.85,186.2l4.211,2.893-2.756-4.26,8.079,6.481" transform="translate(-1632.742 5835.561)" fill="none" stroke="#595755" stroke-linecap="round" stroke-linejoin="round" stroke-width="2"/>
          <path id="Trazado_1192735" data-name="Trazado 1192735" d="M349.8,48.447l7.76,6.407-2.888-4.136,4.211,2.893-2.756-4.26,8.079,6.481" transform="translate(-1612.027 5879.292)" fill="none" stroke="#595755" stroke-linecap="round" stroke-linejoin="round" stroke-width="2"/>
          <path id="Trazado_1192736" data-name="Trazado 1192736" d="M401.856,133.4l-1.537,9.945,2.077-4.6-.333,5.1,2.252-4.546-1.438,10.257" transform="translate(-1628.333 5851.87)" fill="none" stroke="#595755" stroke-linecap="round" stroke-linejoin="round" stroke-width="2"/>
          <path id="Trazado_1192737" data-name="Trazado 1192737" d="M361.971,5.079l-1.537,9.945,2.077-4.6-.333,5.1,2.252-4.546-1.438,10.257" transform="translate(-1615.46 5893.288)" fill="none" stroke="#595755" stroke-linecap="round" stroke-linejoin="round" stroke-width="2"/>
          <path id="Trazado_1192738" data-name="Trazado 1192738" d="M73.182,7.689l-1.537,9.945,2.077-4.6-.333,5.1,2.252-4.546L74.2,23.847" transform="translate(-1522.25 5892.446)" fill="none" stroke="#595755" stroke-linecap="round" stroke-linejoin="round" stroke-width="2"/>
          <path id="Trazado_1192739" data-name="Trazado 1192739" d="M373.352,333.565s8.966-6.1.622-12.394" transform="translate(-1619.63 5791.267)" fill="none" stroke="#595755" stroke-linecap="round" stroke-linejoin="round" stroke-width="1"/>
          <path id="Trazado_1192740" data-name="Trazado 1192740" d="M4.327,220.644s-9.855,9.922,2.064,22.126" transform="translate(-1499.288 5823.713)" fill="none" stroke="#595755" stroke-linecap="round" stroke-linejoin="round" stroke-width="1"/>
          <path id="Trazado_1192741" data-name="Trazado 1192741" d="M378.561,9.672s8.136-.215,9.407,8.791" transform="translate(-1621.311 5891.806)" fill="none" stroke="#595755" stroke-linecap="round" stroke-linejoin="round" stroke-width="1"/>
          <path id="Trazado_1192742" data-name="Trazado 1192742" d="M38.061,9.148s5.18-3.158,15-.677" transform="translate(-1511.411 5892.5)" fill="none" stroke="#595755" stroke-linecap="round" stroke-linejoin="round" stroke-width="1"/>
          <path id="Trazado_1192743" data-name="Trazado 1192743" d="M398.552,210.1s9.152-3.312,14.873-7.376" transform="translate(-1627.763 5829.497)" fill="none" stroke="#595755" stroke-linecap="round" stroke-linejoin="round" stroke-width="1"/>
        </g>
        <g id="Grupo_1229862" data-name="Grupo 1229862" transform="translate(683)">
          <path id="Trazado_1192749" data-name="Trazado 1192749" d="M158.965,44.815Z" transform="translate(-2182.254 5891.543)" fill="#f7cc9f"/>
          <g id="Grupo_1229820" data-name="Grupo 1229820" transform="translate(-2031.436 5921.932)" opacity="0.59" style="mix-blend-mode: multiply;isolation: isolate">
            <g id="Grupo_1229694" data-name="Grupo 1229694">
              <g id="Grupo_1229693" data-name="Grupo 1229693" clip-path="url(#clip-path-4)">
                <path id="Trazado_1192600" data-name="Trazado 1192600" d="M270.1,136.751c.238-2.045.392-4.063.456-6.043.252-7.921-.938-15.238-3.859-21.273a29.8,29.8,0,0,0-2.518-4.276,26.523,26.523,0,0,0-7.092-6.854,29.219,29.219,0,0,0-6.7-3.214c-.087-.029-.171-.061-.254-.093s-.177-.069-.27-.1q-.689-.221-1.382-.423l-.111-.032q-.691-.2-1.386-.385l-.074-.02a41,41,0,0,0-9.087-1.418,31.38,31.38,0,0,0-3.809-.378c-.26-.009-.52-.014-.777-.016q-.777,0-1.542.037c-.255.015-.509.032-.763.055l-.034,0c.05-.092.1-.186.144-.279.1-.19.2-.38.3-.572.034-.069.072-.137.105-.206.067-.137.124-.276.187-.412.089-.193.179-.386.263-.581.046-.108.09-.217.134-.326.067-.164.131-.329.194-.495.05-.131.1-.262.151-.394.057-.159.105-.321.158-.481.061-.181.124-.361.179-.544.083-.275.156-.552.228-.829.023-.086.047-.172.068-.258.03-.116.064-.232.091-.349.049-.212.087-.426.129-.64.036-.182.075-.364.107-.548.015-.085.033-.169.047-.255.019-.118.03-.238.047-.356,0-.035.008-.07.013-.105.026-.182.052-.365.072-.548.018-.155.037-.311.052-.467.011-.128.019-.255.029-.384s.018-.281.026-.422c.013-.23.024-.461.03-.692,0-.2,0-.4,0-.6,0-.087,0-.173,0-.26.2,0,.4,0,.609-.014,2.775-.139,4.978-1.169,4.922-2.3s-2.352-1.937-5.126-1.8c-.109.006-.215.015-.322.023,4.46-3.817,5.152-11.284.435-14.879q-.348-.265-.691-.488c-.038-.025-.075-.044-.113-.068-.19-.122-.381-.239-.57-.342l-.033-.018a7.769,7.769,0,0,0-3.393-.989c-.036-5.651-.666-13.87-3.494-20.427h0q-.284-.66-.6-1.3l-.052-.1q-.284-.566-.594-1.11c-.039-.069-.078-.14-.117-.209-.191-.328-.392-.647-.6-.961-.055-.084-.107-.172-.164-.254-.259-.381-.527-.752-.81-1.108-.231-.291-.475-.565-.725-.83-.071-.075-.142-.147-.214-.22q-.3-.306-.622-.59c-.061-.055-.121-.112-.183-.165q-.4-.338-.814-.643c-.08-.058-.164-.113-.245-.169q-.315-.219-.64-.421c-.1-.063-.205-.127-.309-.187-.256-.15-.517-.293-.781-.427-.116-.058-.234-.114-.351-.169q-.327-.157-.661-.3-.219-.092-.441-.178c-.173-.067-.347-.131-.522-.193q-.343-.122-.692-.23c-.2-.063-.4-.125-.607-.181s-.413-.107-.62-.157c-.112-.028-.224-.054-.337-.08-.225-.051-.448-.1-.675-.143l-.067-.012c-.53-.1-1.065-.183-1.6-.25l-.049-.006c-.28-.034-.559-.064-.84-.089h0c-8.27-.748-16.777,2.128-16.777,2.128-.991.053-1.954.121-2.906.2l-.569.045q-1.372.118-2.69.267l-.471.057q-1.256.15-2.465.326c-.084.012-.17.023-.253.036-.851.128-1.678.269-2.491.418-.165.031-.331.06-.5.092-.8.153-1.591.312-2.359.484l-.28.066q-1.09.248-2.132.522l-.313.081q-1.094.293-2.134.615l-.386.12c-.7.223-1.4.451-2.065.691l-.035.013c-.668.24-1.315.491-1.948.748l-.288.116q-.933.386-1.818.8l-.256.121q-1.807.853-3.407,1.8l-.229.136q-.786.471-1.525.963l-.121.083q-.735.5-1.424,1.011l-.063.047q-.695.523-1.338,1.068l-.162.137c-.43.366-.847.738-1.244,1.116-8.249,7.85-9.59,18.152-6.875,26.936-.106-.226-.163-.353-.163-.353v0a29.715,29.715,0,0,0,2.087,5.2c8.375,16.211,8.21,21.226,5.418,25.824s3.512,5.09,3.512,5.09c-5.325,7.67,0,13.568,0,13.568l.048-.01.01.01h0c-.009.018-.018.037-.026.056l-.036-.056a20.889,20.889,0,0,0-8.086,8.864c-.044.1-.089.189-.132.285a17.828,17.828,0,0,0-.655,1.681c-3.361,10.324-1.6,27.32,11.888,40.529-2.467,24.386-6.465,63.869-8.828,86.981q-.28,2.744-.528,5.154-.187,1.824-.353,3.436l-.08.78c-.082.792-.158,1.53-.231,2.232-.058.566-.115,1.113-.167,1.616-.266,2.565-.448,4.3-.524,4.959-.784,6.857,3.134,8.816,3.134,8.816a32.914,32.914,0,0,0,8.472,4.312l-.062,5.625-.214,19.611a158.459,158.459,0,0,0,17.724,4.159c1.786-8.654,3.439-16.962,4.951-24.822l0-.013q.337-1.75.665-3.471,3.234.222,6.2.264c-.02.385-.041.772-.062,1.157-.553,10.213-1.176,19.895-1.763,28.3q7.481.824,15.159.943,4.271-17.922,7.292-32.387c9.395-2.159,13.784-5.29,13.784-5.29q.781-6.074,1.355-11.919h0q.632-6.355,1.051-12.438h0a381.927,381.927,0,0,0-.5-60.563c.432-.192.863-.387,1.291-.594.244-.117.486-.243.729-.365q.808-.4,1.609-.839c.23-.125.46-.246.689-.375q1.029-.58,2.04-1.214c.218-.136.434-.277.651-.417q.915-.592,1.816-1.225c.119-.084.24-.163.359-.249.69-.495,1.367-1.016,2.039-1.55.186-.149.372-.3.556-.448.676-.552,1.343-1.119,2-1.711.092-.082.181-.17.272-.254q.9-.825,1.771-1.7c.145-.147.292-.291.436-.44q.947-.973,1.857-2.011c.123-.14.242-.284.363-.425q.65-.757,1.279-1.547a43.5,43.5,0,0,0,5.484-2.838l.01-.04c0-.01,0-.018.008-.034l.029-.123.007-.032c.016-.07.034-.153.055-.252l.006-.031c.018-.088.039-.188.061-.3.006-.029.011-.057.018-.088.023-.118.048-.246.074-.386l.006-.037c.019-.105.04-.218.059-.335,7.912-3.664,8.969-9.268,8.969-9.268s2.32-5.234,2.075-7.881a15.171,15.171,0,0,0-1.095-3.869c2.484-2.053,4.912-4.756,4.912-7.482a27.051,27.051,0,0,0-2.587-10.2c.183-1.139.346-2.273.477-3.4" transform="translate(-150.153 -29.21)" fill="#f7d1a9"/>
              </g>
            </g>
          </g>
          <path id="Trazado_1192750" data-name="Trazado 1192750" d="M77.95,388.079H342.97s-154.184,7.422-265.02,0" transform="translate(-2176.136 5865.622)" fill="#e8ddd4"/>
          <path id="Trazado_1192754" data-name="Trazado 1192754" d="M285.826,140.774s3.366,6.225,3.366,11.808-10.181,11.072-10.181,11.072" transform="translate(-2191.319 5884.297)" fill="#d88d48"/>
          <path id="Trazado_1192755" data-name="Trazado 1192755" d="M239.186,297.146s-15.909,11.377-52.116,5.711,41.178-21.891,52.116-5.711" transform="translate(-2183.654 5873.017)" fill="#7f4109"/>
          <path id="Trazado_1192756" data-name="Trazado 1192756" d="M237.826,236.267s-3.638,39.886-24.773,121.746H202.606s7.679-86.58,5.215-131.318" transform="translate(-2185.55 5877.809)" fill="#443018"/>
          <g id="Grupo_1229822" data-name="Grupo 1229822" transform="translate(-1977.728 6104.504)" style="mix-blend-mode: multiply;isolation: isolate">
            <g id="Grupo_1229700" data-name="Grupo 1229700">
              <g id="Grupo_1229699" data-name="Grupo 1229699" clip-path="url(#clip-path-5)">
                <path id="Trazado_1192610" data-name="Trazado 1192610" d="M214.546,228.7c-.945,6.6-2.949,20.033-6.1,38.384.4-14.769.434-28.95-.2-40.393Z" transform="translate(-208.248 -226.695)" fill="#f7cc9f"/>
              </g>
            </g>
          </g>
          <path id="Trazado_1192757" data-name="Trazado 1192757" d="M210.951,223.649s-7.654,57.777-24.738,133.905H174.642l1.5-136.912" transform="translate(-2183.438 5878.266)" fill="#443018"/>
          <g id="Grupo_1229823" data-name="Grupo 1229823" transform="translate(-2008.204 6098.909)" style="mix-blend-mode: multiply;isolation: isolate">
            <g id="Grupo_1229703" data-name="Grupo 1229703">
              <g id="Grupo_1229702" data-name="Grupo 1229702" clip-path="url(#clip-path-6)">
                <path id="Trazado_1192612" data-name="Trazado 1192612" d="M197.743,302.394C206.819,255.2,211,223.65,211,223.65l-34.813-3.006-.905,82.8c7.493,1.859,15.042.816,22.461-1.052" transform="translate(-175.282 -220.643)" fill="#f7cc9f"/>
              </g>
            </g>
          </g>
          <g id="Grupo_1229824" data-name="Grupo 1229824" transform="translate(-1978.948 6104.504)" style="mix-blend-mode: multiply;isolation: isolate">
            <g id="Grupo_1229706" data-name="Grupo 1229706">
              <g id="Grupo_1229705" data-name="Grupo 1229705" clip-path="url(#clip-path-7)">
                <path id="Trazado_1192613" data-name="Trazado 1192613" d="M227.976,295.975c8.383-40.045,10.177-59.708,10.177-59.708l-30-9.572c1.11,20.171.159,48.849-1.221,74.262,7.262-2.16,14.339-4.5,21.049-4.982" transform="translate(-206.928 -226.695)" fill="#f7cc9f"/>
              </g>
            </g>
          </g>
          <path id="Trazado_1192758" data-name="Trazado 1192758" d="M175.657,149.872c.277-4.18-7.926-25.077-5.091-30.04s30.195-8.972,30.195-8.972,18.713,2.965,23.829,5.838,6.462,16.848,11.294,21.159.638,13.322-2.881,18.807c0,0,14.917,50.225,5.065,126.942-21.037-7.581-47.416,18.934-72.148,1.611,0,0-3.918-1.959-3.135-8.816s12.872-126.529,12.872-126.529" transform="translate(-2182.535 5886.556)" fill="#a35f1a"/>
          <path id="Trazado_1192759" data-name="Trazado 1192759" d="M193.944,101.984l1.063,11.107s4.223,11.124,12.711,11.07,7.131-11.453,7.131-11.453.068-5.025,1.2-7.559" transform="translate(-2184.896 5887.227)" fill="#d88d48"/>
          <g id="Grupo_1229825" data-name="Grupo 1229825" transform="translate(-1990.94 5989.323)" style="mix-blend-mode: multiply;isolation: isolate">
            <g id="Grupo_1229709" data-name="Grupo 1229709">
              <g id="Grupo_1229708" data-name="Grupo 1229708" clip-path="url(#clip-path-8)">
                <path id="Trazado_1192616" data-name="Trazado 1192616" d="M214.881,111.833a29.653,29.653,0,0,1,.627-4.991,28.738,28.738,0,0,0-4.909-2.465l-3.375-.484-13.267-1.789.489,5.114c2.883,1.409,14.334,6.675,20.436,4.614" transform="translate(-193.956 -102.106)" fill="#f7e1e5"/>
              </g>
            </g>
          </g>
          <g id="Grupo_1229826" data-name="Grupo 1229826" transform="translate(-1990.94 5989.323)" style="mix-blend-mode: multiply;isolation: isolate">
            <g id="Grupo_1229712" data-name="Grupo 1229712">
              <g id="Grupo_1229711" data-name="Grupo 1229711" clip-path="url(#clip-path-8)">
                <path id="Trazado_1192617" data-name="Trazado 1192617" d="M214.881,111.833a29.653,29.653,0,0,1,.627-4.991,28.738,28.738,0,0,0-4.909-2.465l-3.375-.484-13.267-1.789.489,5.114c2.883,1.409,14.334,6.675,20.436,4.614" transform="translate(-193.956 -102.106)" fill="#f7e1e5"/>
              </g>
            </g>
          </g>
          <path id="Trazado_1192760" data-name="Trazado 1192760" d="M234.725,61.1s5.67-8.511,13.045-2.892c7.816,5.956.8,22.556-13.635,15.542" transform="translate(-2187.931 5890.677)" fill="#ffc59d"/>
          <path id="Trazado_1192761" data-name="Trazado 1192761" d="M234.725,61.1s5.67-8.511,13.045-2.892c7.816,5.956.8,22.556-13.635,15.542" transform="translate(-2187.931 5890.677)" fill="#d88d48"/>
          <path id="Trazado_1192762" data-name="Trazado 1192762" d="M246.248,57.525a11.225,11.225,0,0,0-1.177-.782,9.868,9.868,0,0,1,2.7,1.5c7.816,5.956.8,22.557-13.634,15.542l0-.051c13.393,5.169,19.645-10.463,12.11-16.2" transform="translate(-2187.931 5890.643)" fill="#efa467"/>
          <g id="Grupo_1229827" data-name="Grupo 1229827" transform="translate(-1947.909 5955.779)" style="mix-blend-mode: multiply;isolation: isolate">
            <g id="Grupo_1229715" data-name="Grupo 1229715">
              <g id="Grupo_1229714" data-name="Grupo 1229714" clip-path="url(#clip-path-10)">
                <path id="Trazado_1192621" data-name="Trazado 1192621" d="M245.833,65.937s1.284,6.653-5.248,4.9c0,0,1.224-2.236-.082-3.676a7.194,7.194,0,0,1,5.331-1.224" transform="translate(-240.502 -65.822)" fill="#f7e1e5"/>
              </g>
            </g>
          </g>
          <path id="Trazado_1192763" data-name="Trazado 1192763" d="M236.891,70a.32.32,0,0,0,.21-.1c4.3-4.471,9.053-3.6,9.1-3.585a.329.329,0,0,0,.383-.257.326.326,0,0,0-.255-.383c-.208-.041-5.148-.964-9.7,3.773a.326.326,0,0,0,.26.551" transform="translate(-2188.112 5889.976)" fill="#a3522f"/>
          <path id="Trazado_1192764" data-name="Trazado 1192764" d="M240,72.261a.976.976,0,0,0,.454-.153c2.33-1.494,1.9-4.3,1.353-5.581a.978.978,0,0,0-1.8.771c.04.093.9,2.2-.612,3.165a.978.978,0,0,0,.6,1.8" transform="translate(-2188.294 5889.949)" fill="#393330"/>
          <path id="Trazado_1192765" data-name="Trazado 1192765" d="M236.782,59.473c12.041,17.03,4.264,36.692-22.194,42.769-19.816,4.552-37.99,3.373-44.359-28.672-7.131-30.878,8.1-38.343,27.92-42.894s33.654-3.236,38.632,28.8" transform="translate(-2182.97 5892.757)" fill="#d88d48"/>
          <path id="Trazado_1192766" data-name="Trazado 1192766" d="M236.782,59.473c12.041,17.03,4.264,36.692-22.194,42.769-19.816,4.552-37.99,3.373-44.359-28.672-7.131-30.878,8.1-38.343,27.92-42.894s33.654-3.236,38.632,28.8" transform="translate(-2182.97 5892.757)" fill="#d88d48"/>
          <g id="Grupo_1229828" data-name="Grupo 1229828" transform="translate(-2014.527 5938.197)" style="mix-blend-mode: multiply;isolation: isolate">
            <g id="Grupo_1229718" data-name="Grupo 1229718">
              <g id="Grupo_1229717" data-name="Grupo 1229717" clip-path="url(#clip-path-11)">
                <path id="Trazado_1192626" data-name="Trazado 1192626" d="M215.327,101.468c-19.261,4.424-36.969,3.081-43.443-29.291-2.587-11.206-2.34-19.341-.067-25.373-3.624,6.233-4.6,15.1-1.589,28.13,6.369,32.045,24.543,33.223,44.36,28.671,20.081-4.612,29.4-17.049,27.458-30.222.761,12.471-8.265,23.846-26.719,28.085" transform="translate(-168.443 -46.804)" fill="#f7e1e5"/>
              </g>
            </g>
          </g>
          <path id="Trazado_1192767" data-name="Trazado 1192767" d="M237.97,59.473c-4.978-32.033-18.815-33.349-38.632-28.8a70.62,70.62,0,0,0-15.165,4.953A75.273,75.273,0,0,1,198.1,31.258c19.816-4.551,33.652-3.236,38.632,28.8,10.124,14.32,6.236,30.5-10.988,38.9,18.274-8.218,22.593-24.823,12.229-39.482" transform="translate(-2184.158 5892.757)" fill="#efa467"/>
          <g id="Grupo_1229829" data-name="Grupo 1229829" transform="translate(-1965.804 5967.722)" style="mix-blend-mode: multiply;isolation: isolate">
            <g id="Grupo_1229721" data-name="Grupo 1229721">
              <g id="Grupo_1229720" data-name="Grupo 1229720" clip-path="url(#clip-path-12)">
                <path id="Trazado_1192628" data-name="Trazado 1192628" d="M221.146,79.57s3.417,3.494,4.322-.83" transform="translate(-221.146 -78.74)" fill="#f7e1e5"/>
              </g>
            </g>
          </g>
          <path id="Trazado_1192768" data-name="Trazado 1192768" d="M221.358,74.319s1.485-4.231,4.764-3c3.146,1.182,2.49,8.25-5.281,7.656" transform="translate(-2186.927 5889.559)" fill="#d88d48"/>
          <path id="Trazado_1192769" data-name="Trazado 1192769" d="M225.913,72.416a3.061,3.061,0,0,1,1.746,3.259c.657-1.8.031-3.779-1.5-4.356-3.279-1.231-4.764,3-4.764,3l-.078.7c.47-1.023,1.947-3.6,4.6-2.6" transform="translate(-2186.962 5889.559)" fill="#efa467"/>
          <path id="Trazado_1192770" data-name="Trazado 1192770" d="M222.492,79.578c3.651-.275,5.447-2.411,5.879-4.361a3.817,3.817,0,0,0-2.073-4.561,3.551,3.551,0,0,0-2.849.059,6.323,6.323,0,0,0-2.759,3.335.652.652,0,0,0,1.23.433A5.077,5.077,0,0,1,224,71.895a2.268,2.268,0,0,1,1.836-.018,2.541,2.541,0,0,1,1.258,3.059c-.4,1.814-2.259,3.641-6.26,3.336a.651.651,0,1,0-.1,1.3,11.585,11.585,0,0,0,1.753.007" transform="translate(-2186.874 5889.612)" fill="#a3522f"/>
          <path id="Trazado_1192771" data-name="Trazado 1192771" d="M236.038,63.453a.315.315,0,0,0,.152-.051.326.326,0,0,0,.1-.45,4.652,4.652,0,0,0-2.766-2.032,2.4,2.4,0,0,0-1.985.759.326.326,0,1,0,.452.469,1.758,1.758,0,0,1,1.455-.581c1.252.144,2.285,1.721,2.3,1.738a.328.328,0,0,0,.3.148" transform="translate(-2187.727 5890.329)" fill="#a3522f"/>
          <path id="Trazado_1192772" data-name="Trazado 1192772" d="M202.571,69.251a.326.326,0,0,0,.294-.256c.6-2.783,2.521-2.407,2.6-2.39a.326.326,0,0,0,.141-.636,2.632,2.632,0,0,0-1.867.373,3.764,3.764,0,0,0-1.513,2.516.325.325,0,0,0,.25.387.292.292,0,0,0,.093.006" transform="translate(-2185.521 5889.949)" fill="#a3522f"/>
          <g id="Grupo_1229830" data-name="Grupo 1229830" transform="translate(-1999.626 5969.785)" style="mix-blend-mode: multiply;isolation: isolate">
            <g id="Grupo_1229724" data-name="Grupo 1229724">
              <g id="Grupo_1229723" data-name="Grupo 1229723" clip-path="url(#clip-path-13)">
                <path id="Trazado_1192634" data-name="Trazado 1192634" d="M191.439,81.634c-4.254,1.183-7.31,3.548-6.827,5.283s4.321,2.182,8.575,1,7.31-3.548,6.827-5.283-4.321-2.182-8.575-1" transform="translate(-184.561 -80.972)" fill="#f9cfcf"/>
              </g>
            </g>
          </g>
          <g id="Grupo_1229831" data-name="Grupo 1229831" transform="translate(-1945.195 5963.723)" style="mix-blend-mode: multiply;isolation: isolate">
            <g id="Grupo_1229727" data-name="Grupo 1229727">
              <g id="Grupo_1229726" data-name="Grupo 1229726" clip-path="url(#clip-path-14)">
                <path id="Trazado_1192635" data-name="Trazado 1192635" d="M248.36,74.429c-2.774.139-4.978,1.169-4.921,2.3s2.351,1.937,5.125,1.8,4.978-1.169,4.922-2.3-2.352-1.936-5.126-1.8" transform="translate(-243.438 -74.414)" fill="#f9cfcf"/>
              </g>
            </g>
          </g>
          <g id="Grupo_1229832" data-name="Grupo 1229832" transform="translate(-1990.264 6044.198)" style="mix-blend-mode: multiply;isolation: isolate">
            <g id="Grupo_1229730" data-name="Grupo 1229730">
              <g id="Grupo_1229729" data-name="Grupo 1229729" clip-path="url(#clip-path-15)">
                <path id="Trazado_1192636" data-name="Trazado 1192636" d="M229.659,162.147s-11.951-1.763-34.971,7.151c0,0,23.412-10.579,34.971-7.151" transform="translate(-194.688 -161.463)" fill="#f7cc9f"/>
              </g>
            </g>
          </g>
          <g id="Grupo_1229833" data-name="Grupo 1229833" transform="translate(-1979.57 6043.711)" style="mix-blend-mode: soft-light;isolation: isolate">
            <g id="Grupo_1229733" data-name="Grupo 1229733">
              <g id="Grupo_1229732" data-name="Grupo 1229732" clip-path="url(#clip-path-16)">
                <path id="Trazado_1192637" data-name="Trazado 1192637" d="M233.1,162.8s-8.819-4.123-26.842,2.379c0,0,17.372-7.669,26.842-2.379" transform="translate(-206.255 -160.936)" fill="#ffebb8"/>
              </g>
            </g>
          </g>
          <path id="Trazado_1192773" data-name="Trazado 1192773" d="M170.677,76.208a5.813,5.813,0,0,1,4.911,4.085c1.372,3.918,5.78-1.8,3.919-6.974s1.469-2.248,2.351-7.58-2.253-6.9,0-9.739,7.89,4.085,10.018-2.219,3.168-5.618,8.477-5.716,7.584-.784,10.757-3.135,7.09,2.645,13.947,2.449,6.269,3.714,9.306,1.367c0,0,1.516,5.662,2.276,10.621,0,0-.883-19.923-10.1-27.27s-21.374-4.7-32.487-1.763S168.927,40.4,166.968,50.4s3.709,25.8,3.709,25.8" transform="translate(-2182.827 5892.862)" fill="#443018"/>
          <path id="Trazado_1192774" data-name="Trazado 1192774" d="M241.03,52.269a65.9,65.9,0,0,1,1.185,8.98c-.5-3.241-1.315-6.774-1.823-8.838.21-.049.422-.1.638-.142" transform="translate(-2188.403 5890.98)" fill="#443018"/>
          <path id="Trazado_1192775" data-name="Trazado 1192775" d="M194.984,53.212Z" transform="translate(-2184.974 5890.91)" fill="#443018"/>
          <path id="Trazado_1192776" data-name="Trazado 1192776" d="M181.858,57.024c-2.253,2.841.882,4.408,0,9.739s-4.212,2.407-2.351,7.58-2.547,10.892-3.918,6.973a5.815,5.815,0,0,0-4.912-4.085s-5.668-15.8-3.708-25.8c.781-3.99,3.483-7.521,7.149-10.511.075,1.718.423,3.21,1.83,3.961,3.919,2.095,14.628-7.706,10.318-1.959s-1.7,12.016,1.959,12.629a3.771,3.771,0,0,0,4.144-2.12c-.159.419-.322.874-.493,1.378-2.128,6.3-7.765-.623-10.018,2.218" transform="translate(-2182.827 5891.838)" fill="#3a2611"/>
          <path id="Trazado_1192777" data-name="Trazado 1192777" d="M205.268,51.4c-3.228,0-6.749-1.391-10.506-4.16l.412-.559c4.75,3.5,9.072,4.725,12.843,3.642,5.553-1.593,8.047-7.739,8.071-7.8l.647.255c-.1.266-2.637,6.522-8.521,8.212a10.617,10.617,0,0,1-2.946.41" transform="translate(-2184.957 5891.717)" fill="#443018"/>
          <path id="Trazado_1192778" data-name="Trazado 1192778" d="M186.213,368.739l-1.1,6.126H174.642v-6.126Z" transform="translate(-2183.438 5867.083)" fill="#d88d48"/>
          <path id="Trazado_1192779" data-name="Trazado 1192779" d="M213.024,368.739l-1.47,6.126h-9.338l.361-6.126Z" transform="translate(-2185.52 5867.083)" fill="#d88d48"/>
          <path id="Trazado_1192780" data-name="Trazado 1192780" d="M185,375.364a21.011,21.011,0,0,0,6.531,8.882l-1.176,2.873h-17.24a100.429,100.429,0,0,1,1.414-11.755Z" transform="translate(-2183.323 5866.583)" fill="#ffcb39"/>
          <path id="Trazado_1192781" data-name="Trazado 1192781" d="M177.659,374.517s-.522,5.062-1.829,5.062-.784-5.062-.784-5.062" transform="translate(-2183.461 5866.646)" fill="#d88d48"/>
          <path id="Trazado_1192782" data-name="Trazado 1192782" d="M191.047,387.3l-.392.718H172.8v-.457Z" transform="translate(-2183.298 5865.681)" fill="#3f3d3a"/>
          <path id="Trazado_1192783" data-name="Trazado 1192783" d="M211.445,375.364s1.991,5.42,14,8.882l-1.175,2.873h-23.5a100.54,100.54,0,0,1,1.414-11.755Z" transform="translate(-2185.411 5866.583)" fill="#ffcb39"/>
          <path id="Trazado_1192784" data-name="Trazado 1192784" d="M224.964,387.3l-.392.718H200.45v-.457Z" transform="translate(-2185.387 5865.681)" fill="#3f3d3a"/>
          <path id="Trazado_1192785" data-name="Trazado 1192785" d="M207.716,374.835s-4.506,10.237-4.212,0" transform="translate(-2185.616 5866.623)" fill="#d88d48"/>
          <g id="Grupo_1229834" data-name="Grupo 1229834" transform="translate(-2000.201 6036.631)" style="mix-blend-mode: multiply;isolation: isolate">
            <g id="Grupo_1229736" data-name="Grupo 1229736">
              <g id="Grupo_1229735" data-name="Grupo 1229735" clip-path="url(#clip-path-17)">
                <path id="Trazado_1192651" data-name="Trazado 1192651" d="M203.814,162.478s-16.979,2.425-18.938-9.2c0,0-7.315,21.272,18.938,9.2" transform="translate(-183.939 -153.278)" fill="#f7cc9f"/>
              </g>
            </g>
          </g>
          <path id="Trazado_1192786" data-name="Trazado 1192786" d="M204.191,76.669s7,6.3,6.939-4.158" transform="translate(-2185.669 5889.452)" fill="none" stroke="#282321" stroke-linecap="round" stroke-miterlimit="10" stroke-width="1"/>
          <path id="Trazado_1192787" data-name="Trazado 1192787" d="M230.813,68.314s1.17,5.1,3.448,4.861,1.847-4.861,1.847-4.861" transform="translate(-2187.68 5889.769)" fill="none" stroke="#282321" stroke-linecap="round" stroke-miterlimit="10" stroke-width="1"/>
          <path id="Trazado_1192788" data-name="Trazado 1192788" d="M222.823,87.1s-1.231,2.525-.616,4.125.751-.184.222-1.415" transform="translate(-2187.017 5888.351)" fill="none" stroke="#a3522f" stroke-linecap="round" stroke-miterlimit="10" stroke-width="1"/>
          <path id="Trazado_1192789" data-name="Trazado 1192789" d="M226.537,32.1c-9.219-7.347-21.374-4.7-32.487-1.763S168.927,40.4,166.968,50.4s3.709,25.8,3.709,25.8a5.813,5.813,0,0,1,4.911,4.085c1.372,3.918,5.78-1.8,3.919-6.974s1.469-2.248,2.351-7.58-2.253-6.9,0-9.739c1.292-1.63,3.7-.047,5.917.41,1.414-18.71,14.12-26.133,25.985-26.133,1.452,0,2.417-.016,2.99-.043a19.09,19.09,0,0,1,13.266,5.726,17.284,17.284,0,0,0-3.479-3.861" transform="translate(-2182.827 5892.862)" fill="#3a2611"/>
          <g id="Grupo_1229835" data-name="Grupo 1229835" transform="translate(-2014.527 5922.355)" style="mix-blend-mode: multiply;isolation: isolate">
            <g id="Grupo_1229739" data-name="Grupo 1229739">
              <g id="Grupo_1229738" data-name="Grupo 1229738" clip-path="url(#clip-path-18)">
                <path id="Trazado_1192656" data-name="Trazado 1192656" d="M214.588,102.311a50.747,50.747,0,0,0,12.522-4.548,66.386,66.386,0,0,1-21.173,4.939c-.851-.7-15.727-13.2-18.64-38.612-2.3-20.023,5.939-30.577,16.117-34.422-1.7.3-3.458.662-5.264,1.077C178.333,35.3,163.1,42.761,170.229,73.639c6.369,32.045,24.542,33.224,44.359,28.672" transform="translate(-168.443 -29.668)" fill="#f7e1e5"/>
              </g>
            </g>
          </g>
          <g id="Grupo_1229836" data-name="Grupo 1229836" transform="translate(-2012.078 5997.416)" style="mix-blend-mode: multiply;isolation: isolate">
            <g id="Grupo_1229742" data-name="Grupo 1229742">
              <g id="Grupo_1229741" data-name="Grupo 1229741" clip-path="url(#clip-path-19)">
                <path id="Trazado_1192657" data-name="Trazado 1192657" d="M206.784,137.72c13.054-2.163,11.664-21.654,11.664-21.654s.6-.635,1.426-1.341c-7.438-2.114-18.479-3.864-18.479-3.864s-27.358,4.009-30.194,8.973c-.042.072-.073.159-.109.239a10.456,10.456,0,0,1,7.08,2.131c4.269,3.448,15.558,17.681,28.612,15.517" transform="translate(-171.092 -110.86)" fill="#f7d1a9"/>
              </g>
            </g>
          </g>
          <path id="Trazado_1192790" data-name="Trazado 1192790" d="M230.794,28.279c-8.293-10.448-28.777-3.509-28.777-3.509-43.309,2.3-49.135,27.749-40.761,43.961s8.21,21.226,5.418,25.824,3.511,5.09,3.511,5.09c-5.324,7.67,0,13.568,0,13.568l1.053-.235c1.84-.323,5.751-.606,8.9,1.938,4.269,3.448,14.451,13.357,27.5,11.195s12.772-17.332,12.772-17.332a28.1,28.1,0,0,1,4.475,1.793,38.585,38.585,0,0,0,.932-13.163s-8.982,4.754-22.9,5.74c-.851-.7-15.726-13.2-18.64-38.612-3-26.138,11.945-36.154,25.739-36.154,1.452,0,2.417-.016,2.99-.043C224.452,29,232.458,36.255,235.993,59c.335.473.649.95.953,1.427l.043-.055s2.1-21.649-6.195-32.1" transform="translate(-2182.181 5893.228)" fill="#f19500"/>
          <path id="Trazado_1192791" data-name="Trazado 1192791" d="M204.99,104.175c-.851-.7-15.726-13.2-18.64-38.612-1.643-14.328,2.111-23.8,8.1-29.447-6.357,5.566-10.429,15.2-8.73,30.022,2.914,25.408,18.983,37.82,19.834,38.517,13.913-.986,21.7-5.645,21.7-5.645a40.469,40.469,0,0,1-.729,12.361c.148.076.291.151.422.227a38.581,38.581,0,0,0,.932-13.163s-8.982,4.754-22.9,5.74" transform="translate(-2184.246 5892.201)" fill="#fcae3d"/>
          <path id="Trazado_1192792" data-name="Trazado 1192792" d="M231.46,28.279c-8.293-10.448-28.777-3.509-28.777-3.509-17.668.937-29.1,5.729-35.868,12.174,6.841-6.153,18.981-10.69,36.118-11.6,0,0,19.61-6.937,27.9,3.51,7.1,8.947,6.583,26.1,6.287,30.843.164.244.334.488.49.733l.043-.055s2.1-21.649-6.195-32.1" transform="translate(-2182.847 5893.228)" fill="#fcae3d"/>
          <g id="Grupo_1229837" data-name="Grupo 1229837" transform="translate(-1979.256 5990.635)" style="mix-blend-mode: multiply;isolation: isolate">
            <g id="Grupo_1229745" data-name="Grupo 1229745">
              <g id="Grupo_1229744" data-name="Grupo 1229744" clip-path="url(#clip-path-20)">
                <path id="Trazado_1192661" data-name="Trazado 1192661" d="M229.49,103.525s-8.982,4.754-22.9,5.74c0,0,3.445,3.312,10.875,5.283a16.435,16.435,0,0,1-3.161-3.654s9.459-2.1,15.295-5.719c-.028-.538-.062-1.086-.113-1.65" transform="translate(-206.595 -103.525)" fill="#f7d1a9"/>
              </g>
            </g>
          </g>
          <g id="Grupo_1229838" data-name="Grupo 1229838" transform="translate(-1979.256 5990.635)" style="mix-blend-mode: multiply;isolation: isolate">
            <g id="Grupo_1229748" data-name="Grupo 1229748">
              <g id="Grupo_1229747" data-name="Grupo 1229747" clip-path="url(#clip-path-20)">
                <path id="Trazado_1192662" data-name="Trazado 1192662" d="M229.49,103.525s-8.982,4.754-22.9,5.74c0,0,3.445,3.312,10.875,5.283a16.435,16.435,0,0,1-3.161-3.654s9.459-2.1,15.295-5.719c-.028-.538-.062-1.086-.113-1.65" transform="translate(-206.595 -103.525)" fill="#f7d1a9"/>
              </g>
            </g>
          </g>
          <g id="Grupo_1229839" data-name="Grupo 1229839" transform="translate(-2023.072 5956.754)" style="mix-blend-mode: multiply;isolation: isolate">
            <g id="Grupo_1229751" data-name="Grupo 1229751">
              <g id="Grupo_1229750" data-name="Grupo 1229750" clip-path="url(#clip-path-22)">
                <path id="Trazado_1192663" data-name="Trazado 1192663" d="M170.218,116.564l1.053-.235c1.84-.324,5.751-.606,8.9,1.938,4.269,3.448,14.451,13.357,27.5,11.194s12.772-17.331,12.772-17.331a28.127,28.127,0,0,1,4.474,1.792,38.553,38.553,0,0,0,.932-13.163,46.7,46.7,0,0,1-7.3,2.842c0,.08,0,.153,0,.234.926,15.554-4.719,25.434-15.909,23.793s-15.411-12.315-21.487-13.894-10.509-1.213-10.345-6.193,18.063-2.737,15.039-3.887-13.068-.164-15.531-2.895,6.9-9.749,0-17.048A68.178,68.178,0,0,1,159.2,66.877v0a29.682,29.682,0,0,0,2.088,5.2c8.374,16.212,8.209,21.227,5.418,25.825s3.511,5.09,3.511,5.09c-5.324,7.67,0,13.568,0,13.568" transform="translate(-159.2 -66.876)" fill="#f7d1a9"/>
              </g>
            </g>
          </g>
          <g id="Grupo_1229840" data-name="Grupo 1229840" transform="translate(-2019.224 6152.822)" style="mix-blend-mode: soft-light;isolation: isolate">
            <g id="Grupo_1229754" data-name="Grupo 1229754">
              <g id="Grupo_1229753" data-name="Grupo 1229753" clip-path="url(#clip-path-23)">
                <path id="Trazado_1192664" data-name="Trazado 1192664" d="M239.474,284.38q.2-2.033.382-4.037c-3.826-1.026-10.261-1.608-19.74,1.061-16.309,4.592-37.5,13.143-56.22-2.444-.2,1.974-.383,3.714-.535,5.176,4.07,2.915,13.394,8.087,27.856,7.613,18.135-.6,34.788-11.415,48.257-7.369" transform="translate(-163.362 -278.96)" fill="#ffebb8"/>
              </g>
            </g>
          </g>
          <g id="Grupo_1229841" data-name="Grupo 1229841" transform="translate(-2018.394 6144.781)" style="mix-blend-mode: soft-light;isolation: isolate">
            <g id="Grupo_1229757" data-name="Grupo 1229757">
              <g id="Grupo_1229756" data-name="Grupo 1229756" clip-path="url(#clip-path-24)">
                <path id="Trazado_1192665" data-name="Trazado 1192665" d="M240.293,275.337q.161-2.041.3-4.053c-3.9-.953-10.251-1.4-19.455,1.171-16.346,4.566-37.56,13.037-56.35-2.194q-.282,2.744-.528,5.154c4.257,2.946,13.533,7.847,27.747,7.385,18.119-.59,34.771-11.217,48.284-7.463" transform="translate(-164.26 -270.262)" fill="#ffebb8"/>
              </g>
            </g>
          </g>
          <path id="Trazado_1192793" data-name="Trazado 1192793" d="M168.21,59.2c0,4.162-1.537,7.535-3.433,7.535s-3.434-3.373-3.434-7.535,1.537-7.535,3.434-7.535,3.433,3.373,3.433,7.535" transform="translate(-2182.434 5891.026)" fill="#fcae3d"/>
          <path id="Trazado_1192794" data-name="Trazado 1192794" d="M170.708,71.859c0,.814-1.052,1.473-2.351,1.473s-2.35-.659-2.35-1.473,1.052-1.471,2.35-1.471,2.351.658,2.351,1.471" transform="translate(-2182.786 5889.612)" fill="#fcae3d"/>
          <path id="Trazado_1192795" data-name="Trazado 1192795" d="M235.76,28.29c-2.948-3.715-7.438-5.225-12-5.638.777,2.393,3.154,5.236,6.54,7.5a17.73,17.73,0,0,0,8.4,3.183,22.3,22.3,0,0,0-2.935-5.042" transform="translate(-2187.147 5893.217)" fill="#fcae3d"/>
          <g id="Grupo_1229842" data-name="Grupo 1229842" transform="translate(-2003.365 5995.665)" style="mix-blend-mode: multiply;isolation: isolate">
            <g id="Grupo_1229760" data-name="Grupo 1229760">
              <g id="Grupo_1229759" data-name="Grupo 1229759" clip-path="url(#clip-path-25)">
                <path id="Trazado_1192669" data-name="Trazado 1192669" d="M189.064,110.361c0,.771-1.914,1.4-4.273,1.4s-4.274-.625-4.274-1.4,1.914-1.4,4.274-1.4,4.273.625,4.273,1.4" transform="translate(-180.517 -108.965)" fill="#f7d1a9"/>
              </g>
            </g>
          </g>
          <g id="Grupo_1229843" data-name="Grupo 1229843" transform="translate(-2009.678 5988.198)" style="mix-blend-mode: multiply;isolation: isolate">
            <g id="Grupo_1229763" data-name="Grupo 1229763">
              <g id="Grupo_1229762" data-name="Grupo 1229762" clip-path="url(#clip-path-26)">
                <path id="Trazado_1192670" data-name="Trazado 1192670" d="M176.89,102.242a1.624,1.624,0,1,1-1.6-1.352,1.492,1.492,0,0,1,1.6,1.352" transform="translate(-173.688 -100.889)" fill="#f7d1a9"/>
              </g>
            </g>
          </g>
          <g id="Grupo_1229844" data-name="Grupo 1229844" transform="translate(-1981.599 6009.621)" style="mix-blend-mode: multiply;isolation: isolate">
            <g id="Grupo_1229766" data-name="Grupo 1229766">
              <g id="Grupo_1229765" data-name="Grupo 1229765" clip-path="url(#clip-path-27)">
                <path id="Trazado_1192671" data-name="Trazado 1192671" d="M213.912,126.73c0,1.474-2.206,2.668-4.926,2.668s-4.927-1.194-4.927-2.668,2.206-2.668,4.927-2.668,4.926,1.194,4.926,2.668" transform="translate(-204.06 -124.062)" fill="#f7d1a9"/>
              </g>
            </g>
          </g>
          <g id="Grupo_1229845" data-name="Grupo 1229845" transform="translate(-2002.01 5978.759)" style="mix-blend-mode: multiply;isolation: isolate">
            <g id="Grupo_1229769" data-name="Grupo 1229769">
              <g id="Grupo_1229768" data-name="Grupo 1229768" clip-path="url(#clip-path-28)">
                <path id="Trazado_1192672" data-name="Trazado 1192672" d="M275.887,122.143a40.653,40.653,0,0,0-2.3-11.664,29.33,29.33,0,0,0-4.111-7.618q-.742-.979-1.574-1.891a27.9,27.9,0,0,0-10.709-7.18q-.675-.262-1.354-.5l-.109-.04q-.678-.243-1.359-.466l-.074-.025a38.837,38.837,0,0,0-10.62-2.061q-.391-.012-.778-.016-.777,0-1.542.038c-.255.014-.509.031-.763.055a20.44,20.44,0,0,0-4.432.871q-.358.114-.711.242-.735.268-1.45.6c-.362-.745-.949-1.723-1.547-1.759-.969-.057-.253,2.469-.253,2.469s-8.08-1.279-9.873,1.277.888,5.827.888,5.827c-1.305,3.751-2.516,8.41-2.749,9.322a5.2,5.2,0,0,0-3.938.053l-.026.009c-.137.055-.276.118-.417.185-.033.016-.066.027-.1.043-.174.085-.349.178-.528.282a6.463,6.463,0,0,0-2.679,7.384c-.894.109-1.522.42-1.642.911-.223.907,1.353,2.072,3.541,2.653-.047.16-.094.319-.137.48-.036.134-.067.269-.1.4-.052.218-.1.435-.144.654q-.039.2-.072.4c-.006.037-.014.075-.02.113-.031.187-.055.373-.08.56-.018.141-.036.283-.051.424-.019.193-.033.386-.045.58,0,.055-.008.111-.011.166-.006.1-.013.208-.016.312-.009.267-.008.534,0,.8,0,.085,0,.169,0,.254s.009.145.013.218c0,.047.007.1.01.143.013.226.026.452.049.678.011.107.029.214.043.322.03.241.062.483.1.722.023.137.053.273.079.409.043.211.087.422.138.631.034.142.072.284.111.425.014.05.025.1.039.148.043.155.092.309.141.463s.092.287.141.429c.068.2.143.393.22.589.023.058.043.116.066.175.034.085.068.169.1.253.1.229.2.456.312.682.05.105.1.213.149.318.039.078.082.153.123.231s.074.137.111.205c.1.177.187.354.289.529.058.1.125.2.186.3.124.2.247.407.38.608.014.021.03.042.043.063.086.128.178.254.267.381.133.19.268.378.41.565.1.135.209.269.315.4l.024.031c.042.052.08.1.123.156.1.116.2.231.293.346.114.133.229.266.348.4.082.092.164.184.248.276-.048.068-.1.139-.15.208-.122.17-.247.341-.376.516l-.214.286c-.128.167-.258.337-.392.508l-.232.295c-.147.185-.3.371-.455.558-.07.086-.139.17-.212.256q-.34.4-.7.817a39.43,39.43,0,0,1-12.487,9.448c-5.073,2.429-10.395,4.842-14.5,8.031a24.306,24.306,0,0,0-2.823,2.549,17.453,17.453,0,0,0-2.228,2.914q-.315.52-.586,1.065a14.329,14.329,0,0,0-.908,2.288c-.137.455-.247.926-.341,1.408A15.511,15.511,0,0,0,182,170.89c0,.032-.006.063-.007.1-.126,3.686.946,8.068,3.648,13.38l0,0c.3.59.632,1.157.978,1.715.1.155.2.307.294.459q.445.682.936,1.331c.076.1.146.2.224.3.392.5.806.986,1.236,1.456.131.143.268.281.4.422q.5.519,1.026,1.011c.15.14.3.282.451.419q.688.613,1.422,1.182c.179.139.366.268.549.4q.519.381,1.058.742c.232.154.463.308.7.456.393.247.8.482,1.2.712.355.2.716.392,1.082.58.339.174.679.347,1.028.509.312.147.629.288.948.427s.613.255.923.379q.824.327,1.672.617c.312.106.622.214.939.313.379.117.765.227,1.151.334.277.077.557.149.837.22.4.1.792.2,1.2.29.948.208,1.915.377,2.894.52.164.024.329.044.494.067q1.24.166,2.505.263c.17.013.339.028.51.039q.71.046,1.426.07c.172.006.345.006.518.01q1.219.025,2.455-.012.383-.011.766-.029c.451-.021.9-.043,1.355-.078q.857-.064,1.72-.16c.42-.046.839-.1,1.261-.161q.516-.071,1.035-.153.821-.13,1.642-.288c.471-.091.943-.185,1.414-.289q.556-.123,1.111-.262c.485-.119.971-.248,1.456-.382q.659-.182,1.316-.383.759-.232,1.516-.488c.312-.105.623-.212.935-.324.687-.248,1.372-.508,2.054-.788.251-.1.5-.214.75-.321q.831-.355,1.655-.741c.238-.112.475-.219.712-.335.707-.345,1.409-.71,2.108-1.09.226-.123.45-.251.675-.378q.949-.535,1.885-1.114c.124-.077.25-.149.373-.227.717-.454,1.426-.935,2.128-1.428q.291-.2.581-.412c.706-.511,1.407-1.037,2.1-1.589.1-.079.192-.162.289-.24q.946-.768,1.865-1.592c.155-.139.311-.275.464-.415q1-.917,1.974-1.9c.13-.132.258-.269.388-.4q.879-.908,1.729-1.87c.1-.112.2-.219.3-.332.621-.716,1.227-1.46,1.82-2.222.135-.172.267-.348.4-.522.6-.789,1.193-1.594,1.762-2.43l0,0q1.915-2.816,3.665-5.757.874-1.469,1.7-2.961,1.243-2.238,2.378-4.522a105.228,105.228,0,0,0,6.732-17.011q.458-1.553.855-3.1a78.884,78.884,0,0,0,2-10.657q.171-1.491.272-2.959.151-2.2.141-4.338-.005-1.424-.086-2.814m-54.1-15.98c-.018.045-.037.092-.056.137l.052-.137h0" transform="translate(-181.982 -90.679)" fill="#f7cc9f"/>
              </g>
            </g>
          </g>
          <path id="Trazado_1192796" data-name="Trazado 1192796" d="M227.336,133.467a39.255,39.255,0,0,1-17.317,19.484c-13.119,7.269-28.012,14.538-15.956,35.1s53.364,18.792,71.98-12.41,22.755-73.09-5.945-82.263c-17.17-5.486-36.216-3.622-35.7,33.913" transform="translate(-2184.569 5888.049)" fill="#ffcb39"/>
          <path id="Trazado_1192797" data-name="Trazado 1192797" d="M262.3,93.385a45.265,45.265,0,0,0-11.672-2.259,49.8,49.8,0,0,1,8.693,2c28.7,9.172,24.561,51.059,5.945,82.262-11.087,18.586-30.226,26.726-46.439,25.927,16.789,2.022,37.641-5.927,49.418-25.666,18.615-31.2,22.756-73.091-5.945-82.263" transform="translate(-2186.775 5888.046)" fill="#fcdb88"/>
          <g id="Grupo_1229846" data-name="Grupo 1229846" transform="translate(-1994.948 5979.137)" opacity="0.23" style="mix-blend-mode: multiply;isolation: isolate">
            <g id="Grupo_1229772" data-name="Grupo 1229772">
              <g id="Grupo_1229771" data-name="Grupo 1229771" clip-path="url(#clip-path-29)">
                <path id="Trazado_1192675" data-name="Trazado 1192675" d="M201.3,189.944c-12.055-20.565,2.836-27.834,15.956-35.1a39.255,39.255,0,0,0,17.317-19.484l-2.939-6.172c-.447-32.676,13.928-38.314,28.985-35.608-.178-.06-.343-.135-.524-.192-17.17-5.487-36.216-3.623-35.7,33.912l2.939,6.172a39.255,39.255,0,0,1-17.317,19.484c-13.119,7.269-28.011,14.538-15.956,35.1,4.2,7.168,11.96,11.612,21.069,13.053A26.476,26.476,0,0,1,201.3,189.944" transform="translate(-189.621 -91.088)" fill="#f7d1a9"/>
              </g>
            </g>
          </g>
          <path id="Trazado_1192798" data-name="Trazado 1192798" d="M230.717,116.523s-3.612-6.276-9.084-2.648c-5.8,3.847-1.61,15.9,8.915,11.613" transform="translate(-2186.789 5886.414)" fill="#ffc59d"/>
          <path id="Trazado_1192799" data-name="Trazado 1192799" d="M230.717,116.523s-3.612-6.276-9.084-2.648c-5.8,3.847-1.61,15.9,8.915,11.613" transform="translate(-2186.789 5886.414)" fill="#d88d48"/>
          <path id="Trazado_1192800" data-name="Trazado 1192800" d="M222.742,113.458a8,8,0,0,1,.868-.5,6.984,6.984,0,0,0-1.977.932c-5.8,3.847-1.61,15.9,8.915,11.613v-.036c-9.7,3.032-13.4-8.3-7.806-12.011" transform="translate(-2186.789 5886.397)" fill="#efa467"/>
          <g id="Grupo_1229847" data-name="Grupo 1229847" transform="translate(-1963.912 6005.321)" style="mix-blend-mode: multiply;isolation: isolate">
            <g id="Grupo_1229775" data-name="Grupo 1229775">
              <g id="Grupo_1229774" data-name="Grupo 1229774" clip-path="url(#clip-path-30)">
                <path id="Trazado_1192679" data-name="Trazado 1192679" d="M223.333,119.446s-1.215,4.641,3.482,3.705c0,0-.762-1.637.228-2.593a5.093,5.093,0,0,0-3.71-1.112" transform="translate(-223.192 -119.41)" fill="#f7e1e5"/>
              </g>
            </g>
          </g>
          <path id="Trazado_1192801" data-name="Trazado 1192801" d="M229.2,122.713a.231.231,0,0,1-.144-.08,7.547,7.547,0,0,0-6.264-2.955.234.234,0,0,1-.259-.2.23.23,0,0,1,.2-.258,7.865,7.865,0,0,1,6.678,3.115.231.231,0,0,1-.209.377" transform="translate(-2187.054 5885.927)" fill="#a3522f"/>
          <path id="Trazado_1192802" data-name="Trazado 1192802" d="M227.282,124.194a.693.693,0,0,1-.313-.129,3.168,3.168,0,0,1-.7-4.007.692.692,0,0,1,1.234.628c-.031.065-.736,1.511.286,2.265a.692.692,0,0,1-.508,1.243" transform="translate(-2187.305 5885.89)" fill="#393330"/>
          <path id="Trazado_1192803" data-name="Trazado 1192803" d="M225.905,115.146c-9.3,11.476-4.712,25.728,13.7,31.248,13.791,4.134,26.688,4.143,32.671-18.2,6.47-21.489-3.951-27.469-17.743-31.6s-23.629-3.844-28.63,18.56" transform="translate(-2186.956 5887.789)" fill="#d88d48"/>
          <g id="Grupo_1229848" data-name="Grupo 1229848" transform="translate(-1962.656 5984.187)" style="mix-blend-mode: multiply;isolation: isolate">
            <g id="Grupo_1229778" data-name="Grupo 1229778">
              <g id="Grupo_1229777" data-name="Grupo 1229777" clip-path="url(#clip-path-31)">
                <path id="Trazado_1192683" data-name="Trazado 1192683" d="M250.176,98.6c-5.581-1.673-10.514-2.62-14.743-1.671-5.256,5.221-8.617,14.733-8.4,30.781l2.939,6.172a35.555,35.555,0,0,1-5.424,9.322,33.675,33.675,0,0,0,10.7,5.2c13.791,4.133,26.687,4.143,32.671-18.2,6.469-21.489-3.951-27.469-17.743-31.6" transform="translate(-224.551 -96.55)" fill="#f7d1a9"/>
              </g>
            </g>
          </g>
          <path id="Trazado_1192804" data-name="Trazado 1192804" d="M225.905,115.146c-9.3,11.476-4.712,25.728,13.7,31.248,13.791,4.134,26.688,4.143,32.671-18.2,6.47-21.489-3.951-27.469-17.743-31.6s-23.629-3.844-28.63,18.56" transform="translate(-2186.956 5887.789)" fill="#d88d48"/>
          <g id="Grupo_1229849" data-name="Grupo 1229849" transform="translate(-1965.719 5996.027)" style="mix-blend-mode: multiply;isolation: isolate">
            <g id="Grupo_1229781" data-name="Grupo 1229781">
              <g id="Grupo_1229780" data-name="Grupo 1229780" clip-path="url(#clip-path-32)">
                <path id="Trazado_1192685" data-name="Trazado 1192685" d="M239.184,145.969c13.405,4.018,25.98,3.889,32.053-18.686,2.346-7.8,2.549-13.559,1.223-17.925,2.271,4.572,2.55,10.879-.18,19.949-5.984,22.349-18.88,22.339-32.672,18.206-13.975-4.189-19.982-13.409-18-22.627-1.115,8.777,4.736,17.232,17.579,21.082" transform="translate(-221.237 -109.357)" fill="#f7e1e5"/>
              </g>
            </g>
          </g>
          <path id="Trazado_1192805" data-name="Trazado 1192805" d="M225.905,115.146c5-22.4,14.839-22.693,28.63-18.56a50.025,50.025,0,0,1,10.487,4.2,53.356,53.356,0,0,0-9.637-3.734c-13.791-4.133-23.629-3.844-28.63,18.56-7.817,9.65-5.818,21.262,5.963,28-12.532-6.653-14.815-18.587-6.813-28.464" transform="translate(-2186.956 5887.789)" fill="#efa467"/>
          <path id="Trazado_1192806" data-name="Trazado 1192806" d="M272.807,133.755s6.47-3.255,9.042,2.785c2.727,6.4-7.4,14.165-13.833,4.794" transform="translate(-2190.489 5884.894)" fill="#d88d48"/>
          <g id="Grupo_1229850" data-name="Grupo 1229850" transform="translate(-1922.473 6019.569)" style="mix-blend-mode: multiply;isolation: isolate">
            <g id="Grupo_1229784" data-name="Grupo 1229784">
              <g id="Grupo_1229783" data-name="Grupo 1229783" clip-path="url(#clip-path-33)">
                <path id="Trazado_1192688" data-name="Trazado 1192688" d="M281.162,135.716a7.809,7.809,0,0,0-.451-.893,6.957,6.957,0,0,1,1.139,1.866c2.727,6.4-7.4,14.165-13.833,4.794l.375-.16c6.789,7.927,15.4.565,12.77-5.607" transform="translate(-268.016 -134.822)" fill="#f7e1e5"/>
              </g>
            </g>
          </g>
          <g id="Grupo_1229851" data-name="Grupo 1229851" transform="translate(-1917.529 6023.768)" style="mix-blend-mode: multiply;isolation: isolate">
            <g id="Grupo_1229787" data-name="Grupo 1229787">
              <g id="Grupo_1229786" data-name="Grupo 1229786" clip-path="url(#clip-path-34)">
                <path id="Trazado_1192689" data-name="Trazado 1192689" d="M278.311,140.5s-1.538,4.545-4.946,1.18c0,0,1.536-.949,1.236-2.291a5.1,5.1,0,0,1,3.71,1.111" transform="translate(-273.364 -139.364)" fill="#f7e1e5"/>
              </g>
            </g>
          </g>
          <g id="Grupo_1229852" data-name="Grupo 1229852" transform="translate(-1950.962 6014.589)" style="mix-blend-mode: multiply;isolation: isolate">
            <g id="Grupo_1229790" data-name="Grupo 1229790">
              <g id="Grupo_1229789" data-name="Grupo 1229789" clip-path="url(#clip-path-35)">
                <path id="Trazado_1192690" data-name="Trazado 1192690" d="M240.216,130.223s-2.577,2.31-3.016-.787" transform="translate(-237.2 -129.436)" fill="#f7e1e5"/>
              </g>
            </g>
          </g>
          <path id="Trazado_1192807" data-name="Trazado 1192807" d="M249.432,129.156a1.381,1.381,0,1,0,1.971-.979,1.586,1.586,0,0,0-1.971.979" transform="translate(-2189.068 5885.257)" fill="#282321"/>
          <path id="Trazado_1192808" data-name="Trazado 1192808" d="M250.455,128.755a.409.409,0,1,0,.643.1.469.469,0,0,0-.643-.1" transform="translate(-2189.14 5885.211)" fill="#f7f0eb"/>
          <path id="Trazado_1192809" data-name="Trazado 1192809" d="M229.814,122.134a1.353,1.353,0,1,0,1.93-.96,1.555,1.555,0,0,0-1.93.96" transform="translate(-2187.587 5885.785)" fill="#282321"/>
          <path id="Trazado_1192810" data-name="Trazado 1192810" d="M250.48,113.716c-.333,1.812,1,1.989,2.991,3.213s2.826,2.432,4.216,1.223c1.534-1.335-.027-3.57-2.017-4.8s-4.828-1.606-5.189.36" transform="translate(-2189.161 5886.444)" fill="#443018"/>
          <path id="Trazado_1192811" data-name="Trazado 1192811" d="M255.67,113.356c1.611.992,2.94,2.646,2.575,3.948a5.3,5.3,0,0,0-2.619-3.249c-1.984-1.221-4.809-1.6-5.185.341a2.5,2.5,0,0,1,.041-.681c.361-1.965,3.2-1.585,5.189-.36" transform="translate(-2189.161 5886.444)" fill="#684723"/>
          <g id="Grupo_1229853" data-name="Grupo 1229853" transform="translate(-1938.732 5999.982)" style="mix-blend-mode: multiply;isolation: isolate">
            <g id="Grupo_1229793" data-name="Grupo 1229793">
              <g id="Grupo_1229792" data-name="Grupo 1229792" clip-path="url(#clip-path-36)">
                <path id="Trazado_1192696" data-name="Trazado 1192696" d="M253.434,115.686c1.989,1.225,2.825,2.432,4.216,1.222a1.781,1.781,0,0,0,.514-.718,1.758,1.758,0,0,1-.476,2.06c-1.39,1.209-2.226,0-4.216-1.223s-3.324-1.4-2.991-3.213c.011-.062.025-.121.041-.178.361.819,1.46,1.157,2.912,2.051" transform="translate(-250.429 -113.635)" fill="#f0b5bf"/>
              </g>
            </g>
          </g>
          <path id="Trazado_1192812" data-name="Trazado 1192812" d="M240.139,126.5s-.853-3.059-3.227-2.34c-2.278.69-2.141,5.714,3.377,5.654" transform="translate(-2188.035 5885.56)" fill="#d88d48"/>
          <path id="Trazado_1192813" data-name="Trazado 1192813" d="M237.034,124.949a2.167,2.167,0,0,0-1.385,2.222,2.348,2.348,0,0,1,1.264-3.008c2.373-.718,3.226,2.341,3.226,2.341l.023.5c-.285-.744-1.209-2.632-3.128-2.051" transform="translate(-2188.036 5885.56)" fill="#efa467"/>
          <path id="Trazado_1192814" data-name="Trazado 1192814" d="M239.018,130.164c-2.568-.363-3.739-1.955-3.953-3.353a2.7,2.7,0,0,1,1.677-3.128,2.516,2.516,0,0,1,2.011.174,4.477,4.477,0,0,1,1.793,2.484.462.462,0,0,1-.889.249,3.59,3.59,0,0,0-1.353-1.925,1.6,1.6,0,0,0-1.3-.1,1.8,1.8,0,0,0-1.032,2.1c.2,1.3,1.426,2.677,4.269,2.647a.461.461,0,1,1,.01.923,8.038,8.038,0,0,1-1.239-.076" transform="translate(-2187.998 5885.598)" fill="#a3522f"/>
          <path id="Trazado_1192815" data-name="Trazado 1192815" d="M278.413,141.614a.462.462,0,0,1-.365-.288c-1.031-2.616-3.91-1.856-4.032-1.823a.462.462,0,0,1-.249-.889,4.171,4.171,0,0,1,5.139,2.373.462.462,0,0,1-.261.6.452.452,0,0,1-.233.028" transform="translate(-2190.898 5884.473)" fill="#a3522f"/>
          <path id="Trazado_1192816" data-name="Trazado 1192816" d="M230.846,121.651a.409.409,0,1,0,.643.1.469.469,0,0,0-.643-.1" transform="translate(-2187.659 5885.747)" fill="#f7f0eb"/>
          <path id="Trazado_1192817" data-name="Trazado 1192817" d="M228.431,113.964c.975,1.656,2.146.884,4.55.489s3.887-.014,4.156-1.917c.3-2.1-2.459-2.793-4.864-2.4s-4.9,2.032-3.843,3.827" transform="translate(-2187.481 5886.619)" fill="#443018"/>
          <path id="Trazado_1192818" data-name="Trazado 1192818" d="M232.274,110.135c1.947-.319,4.123.077,4.724,1.353a5.521,5.521,0,0,0-4.281-.771c-2.4.393-4.883,2.022-3.852,3.81a2.582,2.582,0,0,1-.434-.564c-1.058-1.8,1.438-3.434,3.843-3.827" transform="translate(-2187.481 5886.619)" fill="#684723"/>
          <g id="Grupo_1229854" data-name="Grupo 1229854" transform="translate(-1959.14 5997.208)" style="mix-blend-mode: multiply;isolation: isolate">
            <g id="Grupo_1229796" data-name="Grupo 1229796">
              <g id="Grupo_1229795" data-name="Grupo 1229795" clip-path="url(#clip-path-37)">
                <path id="Trazado_1192704" data-name="Trazado 1192704" d="M232.048,113.467c2.4-.394,3.887-.014,4.156-1.916a1.845,1.845,0,0,0-.085-.916,1.832,1.832,0,0,1,1.032,1.947c-.269,1.9-1.752,1.523-4.156,1.916s-3.575,1.167-4.55-.489c-.033-.056-.063-.113-.09-.168.844.4,1.94-.086,3.694-.373" transform="translate(-228.354 -110.634)" fill="#f0b5bf"/>
              </g>
            </g>
          </g>
          <path id="Trazado_1192819" data-name="Trazado 1192819" d="M230.4,118.153a.233.233,0,0,1-.105-.043.229.229,0,0,1-.047-.323,3.292,3.292,0,0,1,2.049-1.307,1.7,1.7,0,0,1,1.367.629.231.231,0,0,1-.342.31,1.25,1.25,0,0,0-1-.478c-.891.044-1.695,1.111-1.7,1.122a.231.231,0,0,1-.217.091" transform="translate(-2187.633 5886.132)" fill="#a3522f"/>
          <path id="Trazado_1192820" data-name="Trazado 1192820" d="M253.856,123.8a.231.231,0,0,1-.2-.2c-.3-1.994-1.67-1.818-1.728-1.808a.231.231,0,0,1-.071-.457,1.87,1.87,0,0,1,1.3.35,2.665,2.665,0,0,1,.953,1.847.231.231,0,0,1-.2.263.223.223,0,0,1-.066,0" transform="translate(-2189.254 5885.766)" fill="#a3522f"/>
          <g id="Grupo_1229855" data-name="Grupo 1229855" transform="translate(-1935.155 6017.27)" style="mix-blend-mode: multiply;isolation: isolate">
            <g id="Grupo_1229799" data-name="Grupo 1229799">
              <g id="Grupo_1229798" data-name="Grupo 1229798" clip-path="url(#clip-path-38)">
                <path id="Trazado_1192707" data-name="Trazado 1192707" d="M260.458,133.027c2.951,1.033,5,2.846,4.58,4.049s-3.154,1.341-6.105.308-5-2.846-4.58-4.048,3.154-1.341,6.105-.309" transform="translate(-254.298 -132.335)" fill="#f9cfcf"/>
              </g>
            </g>
          </g>
          <g id="Grupo_1229856" data-name="Grupo 1229856" transform="translate(-1968.988 6007.715)" style="mix-blend-mode: multiply;isolation: isolate">
            <g id="Grupo_1229802" data-name="Grupo 1229802">
              <g id="Grupo_1229801" data-name="Grupo 1229801" clip-path="url(#clip-path-39)">
                <path id="Trazado_1192708" data-name="Trazado 1192708" d="M222.231,122.166c2.321.424,4.063,1.536,3.89,2.482s-2.2,1.371-4.517.946-4.063-1.536-3.89-2.482,2.2-1.37,4.517-.946" transform="translate(-217.702 -122)" fill="#f9cfcf"/>
              </g>
            </g>
          </g>
          <path id="Trazado_1192821" data-name="Trazado 1192821" d="M239.459,133.944a8.712,8.712,0,0,0,4-.7.246.246,0,1,0-.213-.445,7.857,7.857,0,0,1-7.142-.468.247.247,0,1,0-.269.413,7.458,7.458,0,0,0,3.623,1.2" transform="translate(-2188.051 5884.938)" fill="#a3522f"/>
          <path id="Trazado_1192822" data-name="Trazado 1192822" d="M272.078,129.918s-1.58.067-3.8,2.232a96.618,96.618,0,0,1-1.772-21.357s-5.407-.324-8.067-7.592a10.679,10.679,0,0,1-6.825,2.659c-3.9-.089-6.383-4.343-6.383-4.343s-1.683,2.659-3.812,2.659-2.4-3.812-2.4-3.812-4.188,7-10.687,7.535l-1.148,3.7s1.022-5.387,2.223-9.642c0,0-2.871-3.106-1.233-5.764s9.779-1.861,9.779-1.861-.864-2.48.106-2.48,2.063,2.48,2.063,2.48,10.088-3.348,25.351,6.251,8.806,21.157,6.605,29.332" transform="translate(-2187.405 5887.992)" fill="#443018"/>
          <path id="Trazado_1192823" data-name="Trazado 1192823" d="M198.789,67.944c-.9-2.442.919-3.006,3.4-5.185s3.353-4.059,5.577-2.708c2.453,1.492.814,4.976-1.664,7.156s-6.336,3.386-7.309.738" transform="translate(-2185.244 5890.427)" fill="#443018"/>
          <path id="Trazado_1192824" data-name="Trazado 1192824" d="M206.1,67.329c2.006-1.765,3.461-4.384,2.641-6.11.071,1.641-1.209,3.686-2.87,5.147-2.47,2.173-6.311,3.378-7.3.763a3.561,3.561,0,0,0,.218.938c.973,2.649,4.831,1.442,7.309-.738" transform="translate(-2185.245 5890.305)" fill="#684723"/>
          <g id="Grupo_1229857" data-name="Grupo 1229857" transform="translate(-1986.687 5950.022)" style="mix-blend-mode: multiply;isolation: isolate">
            <g id="Grupo_1229805" data-name="Grupo 1229805">
              <g id="Grupo_1229804" data-name="Grupo 1229804" clip-path="url(#clip-path-40)">
                <path id="Trazado_1192713" data-name="Trazado 1192713" d="M202.454,64.633c2.477-2.18,3.353-4.059,5.576-2.706a2.516,2.516,0,0,1,.888.875,2.482,2.482,0,0,0-1.154-2.752c-2.223-1.353-3.1.528-5.576,2.708s-4.292,2.743-3.4,5.185c.031.083.064.162.1.239.309-1.227,1.757-1.959,3.565-3.549" transform="translate(-198.557 -59.595)" fill="#f0b5bf"/>
              </g>
            </g>
          </g>
          <path id="Trazado_1192825" data-name="Trazado 1192825" d="M228.6,55.984c2.085-1.736,3.274-.153,6.282,1.517s5.161,1.871,4.613,4.529c-.606,2.931-4.6,2.542-7.609.873s-5.547-5.036-3.286-6.919" transform="translate(-2187.447 5890.757)" fill="#443018"/>
          <path id="Trazado_1192826" data-name="Trazado 1192826" d="M231.881,62.92c2.436,1.352,5.518,1.863,6.925.453-1.585.644-4.044.1-6.06-1.015-3-1.664-5.528-5.014-3.306-6.9A3.688,3.688,0,0,0,228.6,56c-2.261,1.883.276,5.249,3.286,6.919" transform="translate(-2187.447 5890.74)" fill="#684723"/>
          <g id="Grupo_1229858" data-name="Grupo 1229858" transform="translate(-1959.051 5945.987)" style="mix-blend-mode: multiply;isolation: isolate">
            <g id="Grupo_1229808" data-name="Grupo 1229808">
              <g id="Grupo_1229807" data-name="Grupo 1229807" clip-path="url(#clip-path-41)">
                <path id="Trazado_1192716" data-name="Trazado 1192716" d="M233.183,58.421c3.009,1.67,5.161,1.871,4.612,4.527a2.62,2.62,0,0,1-.55,1.179,2.589,2.589,0,0,0,2.3-2.1c.549-2.658-1.6-2.859-4.612-4.528s-4.2-3.254-6.282-1.518c-.072.06-.138.12-.2.181,1.311-.127,2.539,1.039,4.733,2.256" transform="translate(-228.45 -55.23)" fill="#f0b5bf"/>
              </g>
            </g>
          </g>
          <path id="Trazado_1192827" data-name="Trazado 1192827" d="M272.108,168.379s5.21-9.246,7.376-10.227-.111,8.5-.111,8.5,2.1-5.09,3.065-8.167c0,0,2.17,4.1,2.416,6.751s-2.074,7.881-2.074,7.881-1.128,6.1-9.995,9.729" transform="translate(-2190.798 5882.99)" fill="#d88d48"/>
          <g id="Grupo_1229859" data-name="Grupo 1229859" transform="translate(-1994.939 6045.846)" style="mix-blend-mode: multiply;isolation: isolate">
            <g id="Grupo_1229811" data-name="Grupo 1229811">
              <g id="Grupo_1229810" data-name="Grupo 1229810" clip-path="url(#clip-path-42)">
                <path id="Trazado_1192718" data-name="Trazado 1192718" d="M264.17,169.182s-41.707-1.636-54.1-1.406a42.014,42.014,0,0,1-8.5-4.531c-9.371,5.894-16.258,13.394-8.715,28.032a80.2,80.2,0,0,0,8.478,2.875c25.855,7.182,45.781,2.07,56.1-2.068a54.711,54.711,0,0,0,8.624-10.991c.025-.041.047-.083.072-.124a29.066,29.066,0,0,0-1.946-11.787" transform="translate(-189.631 -163.246)" fill="#f7d1a9"/>
              </g>
            </g>
          </g>
          <path id="Trazado_1192828" data-name="Trazado 1192828" d="M170.273,120.622a20.515,20.515,0,0,0-8.871,10.829c-4.954,15.218,1.181,44.95,39.7,55.65S265,181.214,265,181.214s2.61-10.278-1.06-19.082c0,0-41.707-1.635-54.1-1.406-19.387-7.367-36.309-35.07-36.309-35.07Z" transform="translate(-2182.327 5885.819)" fill="#a35f1a"/>
          <g id="Grupo_1229860" data-name="Grupo 1229860" transform="translate(-2022.402 6013.836)" style="mix-blend-mode: multiply;isolation: isolate">
            <g id="Grupo_1229814" data-name="Grupo 1229814">
              <g id="Grupo_1229813" data-name="Grupo 1229813" clip-path="url(#clip-path-43)">
                <path id="Trazado_1192720" data-name="Trazado 1192720" d="M202.758,183.875c-38.191-10.609-44.539-39.923-39.814-55.254a18.07,18.07,0,0,0-1.544,3.434c-4.954,15.219,1.181,44.951,39.7,55.651S265,181.818,265,181.818a30.162,30.162,0,0,0,.566-3.18c-5.229,2.957-28.942,14.647-62.811,5.237" transform="translate(-159.924 -128.621)" fill="#f7d1a9"/>
              </g>
            </g>
          </g>
          <g id="Grupo_1229861" data-name="Grupo 1229861" transform="translate(-1982.052 6047.059)" style="mix-blend-mode: soft-light;isolation: isolate">
            <g id="Grupo_1229817" data-name="Grupo 1229817">
              <g id="Grupo_1229816" data-name="Grupo 1229816" clip-path="url(#clip-path-44)">
                <path id="Trazado_1192721" data-name="Trazado 1192721" d="M211.7,164.558s-3.2.123-8.128,5.542" transform="translate(-203.571 -164.557)" fill="#ffebb8"/>
              </g>
            </g>
          </g>
          <path id="Trazado_1192829" data-name="Trazado 1192829" d="M286.468,150.591s-6.034,1.89-6.774,3.614,4.454,3.717,4.454,3.717" transform="translate(-2191.365 5883.556)" fill="#d88d48"/>
          <rect id="Rectángulo_423004" data-name="Rectángulo 423004" width="403.307" height="362.072" transform="translate(-2287.25 5894.928)" fill="none"/>
        </g>
      </g>
    </g>
  </g>
</svg>
