<svg xmlns="http://www.w3.org/2000/svg" xmlns:xlink="http://www.w3.org/1999/xlink" width="103" height="103" viewBox="0 0 103 103">
  <defs>
    <filter id="Trazado_978624" x="0" y="0" width="103" height="103" filterUnits="userSpaceOnUse">
      <feOffset dy="3" input="SourceAlpha"/>
      <feGaussianBlur stdDeviation="3" result="blur"/>
      <feFlood flood-opacity="0.161"/>
      <feComposite operator="in" in2="blur"/>
      <feComposite in="SourceGraphic"/>
    </filter>
  </defs>
  <g id="Grupo_1229890" data-name="Grupo 1229890" transform="translate(-171 -6973.781)">
    <g id="Grupo_1229383" data-name="Grupo 1229383" transform="translate(0 1111.151)">
      <g id="Grupo_1226966" data-name="Grupo 1226966" transform="translate(180 5868.629)">
        <g id="Grupo_1222970" data-name="Grupo 1222970">
          <g id="Grupo_1222589" data-name="Grupo 1222589">
            <g id="Grupo_1203109" data-name="Grupo 1203109">
              <g id="Grupo_1176881" data-name="Grupo 1176881">
                <g id="Grupo_1175148" data-name="Grupo 1175148">
                  <g id="Grupo_1173798" data-name="Grupo 1173798">
                    <g id="Grupo_1171925" data-name="Grupo 1171925">
                      <g id="Grupo_1164524" data-name="Grupo 1164524">
                        <g id="Grupo_1144123" data-name="Grupo 1144123">
                          <g transform="matrix(1, 0, 0, 1, -9, -6)" filter="url(#Trazado_978624)">
                            <g id="Trazado_978624-2" data-name="Trazado 978624" transform="translate(9 6)" fill="#e7f2f8">
                              <path d="M 42.5 83.5 C 36.96437835693359 83.5 31.59512901306152 82.41617584228516 26.54141235351562 80.27863311767578 C 21.65934181213379 78.21369171142578 17.27447128295898 75.25723266601562 13.50862312316895 71.49137878417969 C 9.742764472961426 67.72553253173828 6.786305904388428 63.34066009521484 4.721364498138428 58.45858764648438 C 2.583823442459106 53.40486907958984 1.5 48.03562164306641 1.5 42.5 C 1.5 36.96437835693359 2.583823442459106 31.59512901306152 4.721364498138428 26.54141235351562 C 6.786305904388428 21.65934181213379 9.742764472961426 17.27447128295898 13.50862312316895 13.50862312316895 C 17.27447128295898 9.742764472961426 21.65934181213379 6.786305904388428 26.54141235351562 4.721364498138428 C 31.59512901306152 2.583823442459106 36.96437835693359 1.5 42.5 1.5 C 48.03562164306641 1.5 53.40486907958984 2.583823442459106 58.45858764648438 4.721364498138428 C 63.34066009521484 6.786305904388428 67.72553253173828 9.742764472961426 71.49137878417969 13.50862312316895 C 75.25723266601562 17.27447128295898 78.21369171142578 21.65934181213379 80.27863311767578 26.54141235351562 C 82.41617584228516 31.59512901306152 83.5 36.96437835693359 83.5 42.5 C 83.5 48.03562164306641 82.41617584228516 53.40486907958984 80.27863311767578 58.45858764648438 C 78.21369171142578 63.34066009521484 75.25723266601562 67.72553253173828 71.49137878417969 71.49137878417969 C 67.72553253173828 75.25723266601562 63.34066009521484 78.21369171142578 58.45858764648438 80.27863311767578 C 53.40486907958984 82.41617584228516 48.03562164306641 83.5 42.5 83.5 Z" stroke="none"/>
                              <path d="M 42.5 3 C 37.16621398925781 3 31.99356079101562 4.043960571289062 27.125732421875 6.102882385253906 C 22.42246627807617 8.092185974121094 18.19785308837891 10.94070434570312 14.56928253173828 14.56928253173828 C 10.94070434570312 18.19785308837891 8.092185974121094 22.42246627807617 6.102882385253906 27.125732421875 C 4.043960571289062 31.99356079101562 3 37.16621398925781 3 42.5 C 3 47.83378601074219 4.043960571289062 53.00643920898438 6.102882385253906 57.87425231933594 C 8.092185974121094 62.57753372192383 10.94070434570312 66.80213165283203 14.56928253173828 70.43071746826172 C 18.19786834716797 74.05929565429688 22.42246627807617 76.90781402587891 27.125732421875 78.89711761474609 C 31.99356079101562 80.95603942871094 37.16621398925781 82 42.5 82 C 47.83378601074219 82 53.00642395019531 80.95603942871094 57.87425231933594 78.89711761474609 C 62.57753372192383 76.90781402587891 66.80213165283203 74.05929565429688 70.43071746826172 70.43071746826172 C 74.05929565429688 66.80213165283203 76.90781402587891 62.57753372192383 78.89711761474609 57.87425231933594 C 80.95603942871094 53.00642395019531 82 47.83378601074219 82 42.5 C 82 37.16621398925781 80.95603942871094 31.99356079101562 78.89711761474609 27.125732421875 C 76.90781402587891 22.42246627807617 74.05929565429688 18.19786834716797 70.43071746826172 14.56928253173828 C 66.80213165283203 10.94070434570312 62.57753372192383 8.092185974121094 57.87425231933594 6.102882385253906 C 53.00643920898438 4.043960571289062 47.83378601074219 3 42.5 3 M 42.5 0 C 65.97209167480469 0 85 19.02789306640625 85 42.5 C 85 65.97209167480469 65.97209167480469 85 42.5 85 C 19.02789306640625 85 0 65.97209167480469 0 42.5 C 0 19.02789306640625 19.02789306640625 0 42.5 0 Z" stroke="none" fill="#248abf"/>
                            </g>
                          </g>
                        </g>
                      </g>
                    </g>
                  </g>
                </g>
              </g>
            </g>
          </g>
        </g>
      </g>
    </g>
    <g id="obediente_9_" data-name="obediente (9)" transform="translate(184.729 6998.167)">
      <g id="Grupo_1229866" data-name="Grupo 1229866" transform="translate(24.614 0.706)">
        <path id="Trazado_1192830" data-name="Trazado 1192830" d="M146.782,7.5h-30a.471.471,0,0,0-.471.471V21.029H119.4a2.308,2.308,0,0,1,.161,4.611V28.5h0a.941.941,0,0,1,.8.93V35.28a.941.941,0,0,1-.8.93h0v2.864a2.308,2.308,0,0,1-.161,4.611h-3.089v3.865h6.5a.942.942,0,0,1,.942.942v1.877h.718a.942.942,0,0,1,.942.942v3h21.836V7.971A.471.471,0,0,0,146.782,7.5Z" transform="translate(-116.315 -7.5)" fill="#fff3de"/>
      </g>
      <g id="Grupo_1229867" data-name="Grupo 1229867" transform="translate(24.614 0.706)">
        <path id="Trazado_1192831" data-name="Trazado 1192831" d="M119.4,21.029l.084,0V7.971a.471.471,0,0,1,.471-.471h-3.173a.471.471,0,0,0-.471.471V21.029Z" transform="translate(-116.315 -7.5)" fill="#ffe5c2"/>
        <path id="Trazado_1192832" data-name="Trazado 1192832" d="M119.4,391.629h-3.089v3.865h3.173v-3.867Z" transform="translate(-116.315 -355.445)" fill="#ffe5c2"/>
      </g>
      <g id="Grupo_1229885" data-name="Grupo 1229885" transform="translate(15.784 14.235)">
        <g id="Grupo_1229868" data-name="Grupo 1229868" transform="translate(12.878 9.717)">
          <path id="Trazado_1192833" data-name="Trazado 1192833" d="M159.3,254.29h4.36v3.221H159.3Z" transform="translate(-159.296 -254.29)" fill="#883f2e"/>
          <path id="Trazado_1192834" data-name="Trazado 1192834" d="M237.5,254.29h6.228v3.221H237.5Z" transform="translate(-230.136 -254.29)" fill="#883f2e"/>
        </g>
        <g id="Grupo_1229869" data-name="Grupo 1229869" transform="translate(12.878 11.385)">
          <path id="Trazado_1192835" data-name="Trazado 1192835" d="M159.3,272h4.36v1.553H159.3Z" transform="translate(-159.296 -272)" fill="#6d3326"/>
          <path id="Trazado_1192836" data-name="Trazado 1192836" d="M237.5,272h6.228v1.553H237.5Z" transform="translate(-230.136 -272)" fill="#6d3326"/>
        </g>
        <g id="Grupo_1229870" data-name="Grupo 1229870" transform="translate(26.472 8.965)">
          <path id="Trazado_1192837" data-name="Trazado 1192837" d="M321.117,248.672a2.362,2.362,0,0,1-2.362,2.362h-14.6a.537.537,0,0,1-.537-.537v-3.651a.537.537,0,0,1,.537-.537h14.6A2.362,2.362,0,0,1,321.117,248.672Z" transform="translate(-303.616 -246.31)" fill="#ca6e59"/>
        </g>
        <g id="Grupo_1229871" data-name="Grupo 1229871" transform="translate(26.472 8.965)">
          <path id="Trazado_1192838" data-name="Trazado 1192838" d="M306.826,249.012a.537.537,0,0,1-.537-.537V246.31h-2.137a.537.537,0,0,0-.537.537V250.5a.537.537,0,0,0,.537.537h14.6a2.362,2.362,0,0,0,2.337-2.022Z" transform="translate(-303.616 -246.31)" fill="#bb5d4c"/>
        </g>
        <g id="Grupo_1229872" data-name="Grupo 1229872" transform="translate(17.238 8.966)">
          <path id="Trazado_1192839" data-name="Trazado 1192839" d="M208.591,246.782v3.782a.471.471,0,0,1-.471.471h-2.064a.471.471,0,0,1-.471-.471v-3.782a.471.471,0,0,1,.471-.471h2.064A.471.471,0,0,1,208.591,246.782Z" transform="translate(-205.585 -246.311)" fill="#ca6e59"/>
        </g>
        <g id="Grupo_1229873" data-name="Grupo 1229873" transform="translate(17.238 8.966)">
          <path id="Trazado_1192840" data-name="Trazado 1192840" d="M206.951,250.564v-3.782a.471.471,0,0,1,.471-.471h-1.366a.471.471,0,0,0-.471.471v3.782a.471.471,0,0,0,.471.471h1.366A.471.471,0,0,1,206.951,250.564Z" transform="translate(-205.585 -246.311)" fill="#bb5d4c"/>
        </g>
        <g id="Grupo_1229874" data-name="Grupo 1229874" transform="translate(5.852 4.611)">
          <path id="Trazado_1192841" data-name="Trazado 1192841" d="M90.787,312.309H84.846a.949.949,0,0,1-.143-.012v2.864c.053,0,.107-.006.161-.006h5.905c.054,0,.108,0,.161.006V312.3A.937.937,0,0,1,90.787,312.309Z" transform="translate(-84.703 -301.727)" fill="#883f2e"/>
          <path id="Trazado_1192842" data-name="Trazado 1192842" d="M84.846,312.309a.949.949,0,0,1-.143-.012v2.864c.053,0,.107-.006.161-.006h2.211v-2.845H84.846Z" transform="translate(-84.703 -301.727)" fill="#6d3326"/>
          <path id="Trazado_1192843" data-name="Trazado 1192843" d="M84.846,202.93h5.941a.947.947,0,0,1,.143.012v-2.864c-.053,0-.107.006-.161.006H84.864c-.054,0-.108,0-.161-.006v2.864a.947.947,0,0,1,.143-.012Z" transform="translate(-84.703 -200.079)" fill="#883f2e"/>
          <path id="Trazado_1192844" data-name="Trazado 1192844" d="M84.846,202.93h2.229v-2.845H84.864c-.054,0-.108,0-.161-.006v2.864a.959.959,0,0,1,.143-.012Z" transform="translate(-84.703 -200.078)" fill="#6d3326"/>
        </g>
        <g id="Grupo_1229875" data-name="Grupo 1229875" transform="translate(5.053 7.462)">
          <path id="Trazado_1192845" data-name="Trazado 1192845" d="M84.05,231.294v5.847a.942.942,0,0,1-.942.942H77.167a.942.942,0,0,1-.942-.942v-5.847a.942.942,0,0,1,.942-.942h5.941A.942.942,0,0,1,84.05,231.294Z" transform="translate(-76.225 -230.352)" fill="#ca6e59"/>
        </g>
        <g id="Grupo_1229876" data-name="Grupo 1229876" transform="translate(5.053 7.462)">
          <path id="Trazado_1192846" data-name="Trazado 1192846" d="M79.406,237.141v-5.847a.942.942,0,0,1,.942-.942H77.167a.942.942,0,0,0-.942.942v5.847a.942.942,0,0,0,.942.942h3.181A.942.942,0,0,1,79.406,237.141Z" transform="translate(-76.225 -230.352)" fill="#bb5d4c"/>
        </g>
        <g id="Grupo_1229879" data-name="Grupo 1229879" transform="translate(0 26.521)">
          <path id="Trazado_1192847" data-name="Trazado 1192847" d="M54.8,435.6a.964.964,0,0,0,0-.1v-1.874a.942.942,0,0,0-.942-.942H41.137a.942.942,0,0,0-.942.942V435.5a.964.964,0,0,0,0,.1Z" transform="translate(-38.536 -432.685)" fill="#ca6e59"/>
          <path id="Trazado_1192848" data-name="Trazado 1192848" d="M43.384,435.6a.963.963,0,0,1,0-.1v-1.874a.942.942,0,0,1,.942-.942H41.137a.942.942,0,0,0-.942.942V435.5a.964.964,0,0,0,0,.1Z" transform="translate(-38.536 -432.685)" fill="#bb5d4c"/>
          <g id="Grupo_1229877" data-name="Grupo 1229877" transform="translate(0 2.819)">
            <path id="Trazado_1192849" data-name="Trazado 1192849" d="M40.509,466.554H23.049a.471.471,0,0,1-.471-.471V463.55a.942.942,0,0,1,.942-.942H39.567a.942.942,0,0,1,.942.942Z" transform="translate(-22.578 -462.608)" fill="#883f2e"/>
          </g>
          <g id="Grupo_1229878" data-name="Grupo 1229878" transform="translate(0 2.819)">
            <path id="Trazado_1192850" data-name="Trazado 1192850" d="M25.726,466.083V463.55a.942.942,0,0,1,.942-.942H23.52a.942.942,0,0,0-.942.942v2.533a.471.471,0,0,0,.471.471H26.2A.471.471,0,0,1,25.726,466.083Z" transform="translate(-22.578 -462.608)" fill="#6d3326"/>
          </g>
        </g>
        <g id="Grupo_1229884" data-name="Grupo 1229884" transform="translate(3.704)">
          <g id="Grupo_1229880" data-name="Grupo 1229880" transform="translate(0 18.038)">
            <path id="Trazado_1192851" data-name="Trazado 1192851" d="M72.427,344.941a2.309,2.309,0,0,1-2.308,2.308H64.213a2.308,2.308,0,1,1,0-4.617h5.905A2.309,2.309,0,0,1,72.427,344.941Z" transform="translate(-61.905 -342.633)" fill="#ca6e59"/>
          </g>
          <g id="Grupo_1229881" data-name="Grupo 1229881" transform="translate(0 18.038)">
            <path id="Trazado_1192852" data-name="Trazado 1192852" d="M65.05,344.941a2.309,2.309,0,0,1,2.308-2.308H64.213a2.308,2.308,0,1,0,0,4.617h3.145A2.309,2.309,0,0,1,65.05,344.941Z" transform="translate(-61.905 -342.633)" fill="#bb5d4c"/>
          </g>
          <g id="Grupo_1229882" data-name="Grupo 1229882" transform="translate(0)">
            <path id="Trazado_1192853" data-name="Trazado 1192853" d="M72.427,153.436a2.309,2.309,0,0,1-2.308,2.308H64.213a2.308,2.308,0,1,1,0-4.617h5.905A2.309,2.309,0,0,1,72.427,153.436Z" transform="translate(-61.905 -151.128)" fill="#ca6e59"/>
          </g>
          <g id="Grupo_1229883" data-name="Grupo 1229883">
            <path id="Trazado_1192854" data-name="Trazado 1192854" d="M65.05,153.436a2.309,2.309,0,0,1,2.308-2.308H64.213a2.308,2.308,0,1,0,0,4.617h3.145A2.308,2.308,0,0,1,65.05,153.436Z" transform="translate(-61.905 -151.128)" fill="#bb5d4c"/>
          </g>
        </g>
      </g>
      <g id="Grupo_1229888" data-name="Grupo 1229888" transform="translate(33.473 5.096)">
        <g id="Grupo_1229886" data-name="Grupo 1229886" transform="translate(0)">
          <circle id="Elipse_14825" data-name="Elipse 14825" cx="6.609" cy="6.609" r="6.609" fill="#4fc123"/>
        </g>
        <g id="Grupo_1229887" data-name="Grupo 1229887" transform="translate(0)">
          <path id="Trazado_1192855" data-name="Trazado 1192855" d="M213.54,60.716a6.611,6.611,0,0,1,5.026-6.417,6.609,6.609,0,1,0,0,12.834A6.611,6.611,0,0,1,213.54,60.716Z" transform="translate(-210.372 -54.107)" fill="#47a920"/>
        </g>
      </g>
      <g id="Grupo_1229889" data-name="Grupo 1229889" transform="translate(15.078 0)">
        <path id="Trazado_1192856" data-name="Trazado 1192856" d="M57.4,22.494H56.258V10.267a.707.707,0,0,0-.728-.706.726.726,0,0,0-.685.736v12.2H50.11a.706.706,0,0,0,0,1.413H57.4a1.656,1.656,0,0,1,0,3.311H42.963V23.907h3.851a.706.706,0,0,0,0-1.413H42.793a1.245,1.245,0,0,0-1.141.752h-5a1.178,1.178,0,0,0-1.1-.752H33.493a1.178,1.178,0,0,0-1.1.752H29.369v-.606a1.647,1.647,0,0,0-.8-1.41v-1.8a3.015,3.015,0,0,0-.867-5.9H25.32V1.413H54.845V6.97a.707.707,0,0,0,.728.706.726.726,0,0,0,.685-.736V1.177A1.177,1.177,0,0,0,55.081,0h-30a1.177,1.177,0,0,0-1.177,1.177V13.529H21.8a3.015,3.015,0,0,0-.868,5.9v1.8a1.647,1.647,0,0,0-.8,1.41v5.847a1.647,1.647,0,0,0,.8,1.41v1.8a3.015,3.015,0,0,0,.868,5.9h2.11v2.452H18.386A1.65,1.65,0,0,0,16.737,41.7v1.17h-.011a1.65,1.65,0,0,0-1.648,1.648v2.533a1.179,1.179,0,0,0,1.177,1.177H55.081a1.177,1.177,0,0,0,1.177-1.177V28.631H57.4a3.069,3.069,0,0,0,0-6.137Zm-20.66,2.164H41.55v1.808H36.735Zm-3.006-.752h1.593v3.311H33.729Zm-4.36.752h2.947v1.808H29.369ZM20.2,16.544a1.6,1.6,0,0,1,1.6-1.6H27.7a1.6,1.6,0,0,1,0,3.2H21.8a1.6,1.6,0,0,1-1.6-1.6ZM21.78,28.722a.236.236,0,0,1-.235-.235V22.639a.236.236,0,0,1,.235-.235H27.72a.236.236,0,0,1,.235.235v5.847a.236.236,0,0,1-.235.235Zm5.378,1.413v1.432H22.343V30.135Zm-4.815-9.144V19.559h4.815v1.432ZM21.8,36.184a1.6,1.6,0,0,1,0-3.2H27.7a1.6,1.6,0,1,1,0,3.2Zm11.212,10.63H16.491v-2.3a.236.236,0,0,1,.235-.235H21.1a.706.706,0,0,0,0-1.413H18.15V41.7a.236.236,0,0,1,.235-.235H31.114a.236.236,0,0,1,.235.235v1.17H24.4a.706.706,0,1,0,0,1.413h8.378a.236.236,0,0,1,.235.235Zm21.836,0H34.422v-2.3a1.65,1.65,0,0,0-1.648-1.648h-.011V41.7a1.65,1.65,0,0,0-1.648-1.648H25.32V37.6H27.7a3.015,3.015,0,0,0,.867-5.9V29.9a1.647,1.647,0,0,0,.8-1.41V27.88H32.4a1.178,1.178,0,0,0,1.1.752h2.064a1.178,1.178,0,0,0,1.1-.752h5a1.245,1.245,0,0,0,1.141.752H54.845V46.814Z" transform="translate(-15.078 0)"/>
        <path id="Trazado_1192857" data-name="Trazado 1192857" d="M202.872,53.923a7.316,7.316,0,1,0,7.316-7.316,7.324,7.324,0,0,0-7.316,7.316Zm13.219,0a5.9,5.9,0,1,1-5.9-5.9A5.91,5.91,0,0,1,216.091,53.923Z" transform="translate(-185.183 -42.217)"/>
        <path id="Trazado_1192858" data-name="Trazado 1192858" d="M247.549,102.561a.706.706,0,0,0-1,1l2.173,2.173a.707.707,0,0,0,1,0l3.368-3.368a.706.706,0,0,0-1-1l-2.869,2.869Z" transform="translate(-224.56 -91.631)"/>
        <path id="Trazado_1192859" data-name="Trazado 1192859" d="M243.681,327.775a.706.706,0,0,0,.706.706h12.992a.706.706,0,0,0,0-1.413H244.387A.706.706,0,0,0,243.681,327.775Z" transform="translate(-222.148 -296.262)"/>
        <path id="Trazado_1192860" data-name="Trazado 1192860" d="M317.9,363.546h-6.7a.706.706,0,1,0,0,1.413h6.7a.706.706,0,1,0,0-1.413Z" transform="translate(-282.673 -329.303)"/>
        <path id="Trazado_1192861" data-name="Trazado 1192861" d="M244.387,364.959h3.845a.706.706,0,1,0,0-1.413h-3.845a.706.706,0,1,0,0,1.413Z" transform="translate(-222.148 -329.303)"/>
        <path id="Trazado_1192862" data-name="Trazado 1192862" d="M257.378,400.023H244.386a.706.706,0,1,0,0,1.413h12.992a.706.706,0,0,0,0-1.413Z" transform="translate(-222.147 -362.344)"/>
        <path id="Trazado_1192863" data-name="Trazado 1192863" d="M349.608,436.5h-3.4a.706.706,0,1,0,0,1.413h3.4a.706.706,0,1,0,0-1.413Z" transform="translate(-314.377 -395.385)"/>
        <path id="Trazado_1192864" data-name="Trazado 1192864" d="M251.812,436.5h-7.424a.706.706,0,1,0,0,1.413h7.424a.706.706,0,1,0,0-1.413Z" transform="translate(-222.148 -395.385)"/>
      </g>
    </g>
  </g>
</svg>
