<svg xmlns="http://www.w3.org/2000/svg" xmlns:xlink="http://www.w3.org/1999/xlink" width="103" height="103" viewBox="0 0 103 103">
  <defs>
    <filter id="Trazado_978624" x="0" y="0" width="103" height="103" filterUnits="userSpaceOnUse">
      <feOffset dy="3" input="SourceAlpha"/>
      <feGaussianBlur stdDeviation="3" result="blur"/>
      <feFlood flood-opacity="0.161"/>
      <feComposite operator="in" in2="blur"/>
      <feComposite in="SourceGraphic"/>
    </filter>
  </defs>
  <g id="Grupo_1230167" data-name="Grupo 1230167" transform="translate(-196 -9013)">
    <g id="Grupo_1229385" data-name="Grupo 1229385" transform="translate(205 9019)">
      <g id="Grupo_1226922" data-name="Grupo 1226922" transform="translate(0 0)">
        <g id="Grupo_1224934" data-name="Grupo 1224934">
          <g id="Grupo_1222589" data-name="Grupo 1222589">
            <g id="Grupo_1203109" data-name="Grupo 1203109">
              <g id="Grupo_1176881" data-name="Grupo 1176881">
                <g id="Grupo_1175148" data-name="Grupo 1175148">
                  <g id="Grupo_1173798" data-name="Grupo 1173798">
                    <g id="Grupo_1171925" data-name="Grupo 1171925">
                      <g id="Grupo_1164524" data-name="Grupo 1164524">
                        <g id="Grupo_1144123" data-name="Grupo 1144123">
                          <g transform="matrix(1, 0, 0, 1, -9, -6)" filter="url(#Trazado_978624)">
                            <g id="Trazado_978624-2" data-name="Trazado 978624" transform="translate(9 6)" fill="#fcf5f0">
                              <path d="M 42.5 83.49997711181641 C 36.96437835693359 83.49997711181641 31.59512901306152 82.41616058349609 26.54141235351562 80.27861785888672 C 21.65934181213379 78.21367645263672 17.27447128295898 75.25721740722656 13.50862312316895 71.49137115478516 C 9.742764472961426 67.72550964355469 6.786305904388428 63.34065246582031 4.721364498138428 58.45858001708984 C 2.583823442459106 53.40486145019531 1.5 48.03561401367188 1.5 42.49999237060547 C 1.5 36.96437072753906 2.583823442459106 31.59512138366699 4.721364498138428 26.54140472412109 C 6.786305904388428 21.65933418273926 9.742764472961426 17.27447509765625 13.50862312316895 13.50862789154053 C 17.27447128295898 9.742769241333008 21.65934181213379 6.786310195922852 26.54141235351562 4.721368789672852 C 31.59512901306152 2.58382773399353 36.96437835693359 1.500004172325134 42.5 1.500004172325134 C 48.03562164306641 1.500004172325134 53.40486907958984 2.58382773399353 58.45858764648438 4.721368789672852 C 63.34066009521484 6.786310195922852 67.72553253173828 9.742769241333008 71.49137878417969 13.50862789154053 C 75.25723266601562 17.27447509765625 78.21369171142578 21.65933418273926 80.27863311767578 26.54140472412109 C 82.41617584228516 31.59512138366699 83.5 36.96437072753906 83.5 42.49999237060547 C 83.5 48.03561401367188 82.41617584228516 53.40486145019531 80.27863311767578 58.45858001708984 C 78.21369171142578 63.34065246582031 75.25723266601562 67.72550964355469 71.49137878417969 71.49137115478516 C 67.72553253173828 75.25721740722656 63.34066009521484 78.21367645263672 58.45858764648438 80.27861785888672 C 53.40486907958984 82.41616058349609 48.03562164306641 83.49997711181641 42.5 83.49997711181641 Z" stroke="none"/>
                              <path d="M 42.5 2.999992370605469 C 37.16621398925781 2.999992370605469 31.99356079101562 4.043952941894531 27.125732421875 6.102874755859375 C 22.42246627807617 8.092178344726562 18.19785308837891 10.94069671630859 14.56928253173828 14.56927490234375 C 10.94070434570312 18.19784545898438 8.092185974121094 22.42245864868164 6.102882385253906 27.12572479248047 C 4.043960571289062 31.99355316162109 3 37.16620635986328 3 42.49999237060547 C 3 47.83377838134766 4.043960571289062 53.00641632080078 6.102867126464844 57.87424468994141 C 8.092185974121094 62.5775260925293 10.94070434570312 66.8021240234375 14.56928253173828 70.43070220947266 C 18.19785308837891 74.05927276611328 22.42246627807617 76.90779113769531 27.125732421875 78.89710998535156 C 31.99356079101562 80.95601654052734 37.16621398925781 81.99997711181641 42.5 81.99997711181641 C 47.83378601074219 81.99997711181641 53.00643920898438 80.95601654052734 57.87425231933594 78.89710998535156 C 62.57753372192383 76.90779113769531 66.80213165283203 74.05927276611328 70.43071746826172 70.43070220947266 C 74.05929565429688 66.8021240234375 76.90781402587891 62.5775260925293 78.89711761474609 57.87424468994141 C 80.95603942871094 53.00641632080078 82 47.83377838134766 82 42.49999237060547 C 82 37.16620635986328 80.95603942871094 31.99355316162109 78.89711761474609 27.12572479248047 C 76.90781402587891 22.42245864868164 74.05929565429688 18.19786071777344 70.43071746826172 14.56927490234375 C 66.80213165283203 10.94069671630859 62.57753372192383 8.092178344726562 57.87425231933594 6.102874755859375 C 53.00643920898438 4.043952941894531 47.83378601074219 2.999992370605469 42.5 2.999992370605469 M 42.5 -7.62939453125e-06 C 65.97209167480469 -7.62939453125e-06 85 19.02788543701172 85 42.49999237060547 C 85 65.97208404541016 65.97209167480469 84.99997711181641 42.5 84.99997711181641 C 19.02789306640625 84.99997711181641 0 65.97208404541016 0 42.49999237060547 C 0 19.02788543701172 19.02789306640625 -7.62939453125e-06 42.5 -7.62939453125e-06 Z" stroke="none" fill="#eca675"/>
                            </g>
                          </g>
                        </g>
                      </g>
                    </g>
                  </g>
                </g>
              </g>
            </g>
          </g>
        </g>
      </g>
    </g>
    <g id="derechos-civiles_2_" data-name="derechos-civiles (2)" transform="translate(219.977 9031.231)">
      <path id="Trazado_1193144" data-name="Trazado 1193144" d="M196,85.582V92.83l1.344,3.568V130.62h6.988l1.613-32.028,4.085-7.644V85.582Z" transform="translate(-174.928 -76.381)" fill="#fdbba8"/>
      <path id="Trazado_1193145" data-name="Trazado 1193145" d="M264.2,85.582v5.367a5.964,5.964,0,0,1-2.654,4.963,3.225,3.225,0,0,0-1.431,2.68l-1.613.678,1.613.678V130.62h3.225V98.592a9.182,9.182,0,0,0,4.085-7.643V85.582Z" transform="translate(-230.708 -76.381)" fill="#fc9e8d"/>
      <path id="Trazado_1193146" data-name="Trazado 1193146" d="M292.155,37.5a2.043,2.043,0,0,0-2.043,2.043L288.5,41.155l1.613,1.613a2.043,2.043,0,0,0,4.085,0V39.543A2.043,2.043,0,0,0,292.155,37.5Z" transform="translate(-257.483 -33.468)" fill="#fc8071"/>
      <path id="Trazado_1193147" data-name="Trazado 1193147" d="M254.155,22.5a2.043,2.043,0,0,0-2.043,2.043L250.5,26.962l1.613,2.419a2.043,2.043,0,1,0,4.085,0V24.543A2.043,2.043,0,0,0,254.155,22.5Z" transform="translate(-223.569 -20.081)" fill="#fc9e8d"/>
      <path id="Trazado_1193148" data-name="Trazado 1193148" d="M216.155,7.5a2.043,2.043,0,0,0-2.043,2.043L212.5,15.993h5.7V9.543A2.043,2.043,0,0,0,216.155,7.5Z" transform="translate(-189.654 -6.694)" fill="#fc8071"/>
      <path id="Trazado_1193149" data-name="Trazado 1193149" d="M191.543,7.5A2.043,2.043,0,0,0,189.5,9.543v6.451h4.085V9.543A2.043,2.043,0,0,0,191.543,7.5Z" transform="translate(-169.127 -6.694)" fill="#fc9e8d"/>
      <path id="Trazado_1193150" data-name="Trazado 1193150" d="M174.585,74.811V71.585h4.085a2.043,2.043,0,0,0,2.04-2.141,2.081,2.081,0,0,0-2.1-1.944h-4.028a4.085,4.085,0,0,0-4.085,4.085v3.225a9.2,9.2,0,0,0,11.074,9V81.8A6.988,6.988,0,0,0,174.585,74.811Z" transform="translate(-152.169 -60.243)" fill="#fdd9c4"/>
      <path id="Trazado_1193151" data-name="Trazado 1193151" d="M33,269.082v7.248l1.344,3.568v14.494h6.988l1.613-12.3,4.085-7.644v-5.367Z" transform="translate(-29.452 -240.153)" fill="#f6d76f"/>
      <path id="Trazado_1193152" data-name="Trazado 1193152" d="M101.2,269.082v5.367a5.964,5.964,0,0,1-2.654,4.963,3.225,3.225,0,0,0-1.431,2.68l-1.613.678,1.613.678v10.944h3.225v-12.3a9.182,9.182,0,0,0,4.085-7.643v-5.367Z" transform="translate(-85.232 -240.153)" fill="#f9bb69"/>
      <path id="Trazado_1193153" data-name="Trazado 1193153" d="M129.155,221a2.043,2.043,0,0,0-2.043,2.043l-1.613,1.613,1.613,1.613a2.043,2.043,0,0,0,4.085,0v-3.225A2.043,2.043,0,0,0,129.155,221Z" transform="translate(-112.007 -197.24)" fill="#fc9f63"/>
      <path id="Trazado_1193154" data-name="Trazado 1193154" d="M91.155,206a2.043,2.043,0,0,0-2.043,2.043L87.5,210.462l1.613,2.419a2.043,2.043,0,0,0,4.085,0v-4.838A2.043,2.043,0,0,0,91.155,206Z" transform="translate(-78.093 -183.853)" fill="#f9bb69"/>
      <path id="Trazado_1193155" data-name="Trazado 1193155" d="M53.155,191a2.043,2.043,0,0,0-2.043,2.043L49.5,199.493h5.7v-6.451A2.043,2.043,0,0,0,53.155,191Z" transform="translate(-44.178 -170.465)" fill="#fc9f63"/>
      <path id="Trazado_1193156" data-name="Trazado 1193156" d="M28.543,191a2.043,2.043,0,0,0-2.043,2.043v6.451h4.085v-6.451A2.043,2.043,0,0,0,28.543,191Z" transform="translate(-23.651 -170.465)" fill="#f9bb69"/>
      <path id="Trazado_1193157" data-name="Trazado 1193157" d="M11.585,258.311v-3.225h4.085a2.043,2.043,0,0,0,2.04-2.141,2.081,2.081,0,0,0-2.1-1.944H11.585A4.085,4.085,0,0,0,7.5,255.085v3.225a9.2,9.2,0,0,0,11.074,9V265.3A6.988,6.988,0,0,0,11.585,258.311Z" transform="translate(-6.694 -224.015)" fill="#fae8ac"/>
      <path id="Trazado_1193158" data-name="Trazado 1193158" d="M359,269.082v7.248l1.344,3.568v14.494h6.988l1.613-12.3,4.085-7.644v-5.367Z" transform="translate(-320.404 -240.153)" fill="#ae6e5a"/>
      <path id="Trazado_1193159" data-name="Trazado 1193159" d="M427.2,269.082v5.367a5.964,5.964,0,0,1-2.654,4.963,3.225,3.225,0,0,0-1.431,2.68l-1.613.678,1.613.678v10.944h3.225v-12.3a9.182,9.182,0,0,0,4.085-7.643v-5.367Z" transform="translate(-376.183 -240.153)" fill="#8d5d4d"/>
      <path id="Trazado_1193160" data-name="Trazado 1193160" d="M455.155,221a2.043,2.043,0,0,0-2.043,2.043l-1.613,1.613,1.613,1.613a2.043,2.043,0,0,0,4.085,0v-3.225A2.043,2.043,0,0,0,455.155,221Z" transform="translate(-402.959 -197.24)" fill="#6c4b41"/>
      <path id="Trazado_1193161" data-name="Trazado 1193161" d="M417.155,206a2.043,2.043,0,0,0-2.043,2.043l-1.613,2.419,1.613,2.419a2.043,2.043,0,1,0,4.085,0v-4.838A2.043,2.043,0,0,0,417.155,206Z" transform="translate(-369.044 -183.853)" fill="#8d5d4d"/>
      <path id="Trazado_1193162" data-name="Trazado 1193162" d="M379.155,191a2.043,2.043,0,0,0-2.043,2.043l-1.613,6.451h5.7v-6.451A2.043,2.043,0,0,0,379.155,191Z" transform="translate(-335.13 -170.465)" fill="#6c4b41"/>
      <path id="Trazado_1193163" data-name="Trazado 1193163" d="M354.543,191a2.043,2.043,0,0,0-2.043,2.043v6.451h4.085v-6.451A2.043,2.043,0,0,0,354.543,191Z" transform="translate(-314.602 -170.465)" fill="#8d5d4d"/>
      <path id="Trazado_1193164" data-name="Trazado 1193164" d="M337.585,258.311v-3.225h4.085a2.043,2.043,0,0,0,2.04-2.141,2.081,2.081,0,0,0-2.1-1.944h-4.028a4.085,4.085,0,0,0-4.085,4.085v3.225a9.2,9.2,0,0,0,11.074,9V265.3A6.988,6.988,0,0,0,337.585,258.311Z" transform="translate(-297.645 -224.015)" fill="#d7795c"/>
      <path id="Trazado_1193165" data-name="Trazado 1193165" d="M183,6.074a2.848,2.848,0,0,0-4.225-2.493,2.847,2.847,0,0,0-4.085-1.613,2.846,2.846,0,0,0-4.752-1.1,2.847,2.847,0,0,0-4.892,1.983V7.37A4.888,4.888,0,0,0,163,11.342v3.225a9.986,9.986,0,0,0,4.085,8.062V54.239a.806.806,0,0,0,.806.806h10.214a.806.806,0,0,0,.806-.806V22.63A9.986,9.986,0,0,0,183,14.568Zm-2.849-1.236a1.238,1.238,0,0,1,1.236,1.236V9.3a1.236,1.236,0,1,1-2.473,0V6.074A1.238,1.238,0,0,1,180.148,4.838Zm-4.085-1.613A1.238,1.238,0,0,1,177.3,4.462V9.3a1.236,1.236,0,1,1-2.473,0V4.462A1.238,1.238,0,0,1,176.063,3.225Zm-4.085-1.613a1.238,1.238,0,0,1,1.236,1.236v3.9a2.954,2.954,0,0,0-1.294-.3h-1.179v-3.6A1.238,1.238,0,0,1,171.977,1.613Zm-5.322,1.236a1.236,1.236,0,1,1,2.473,0v3.6h-1.236a4.885,4.885,0,0,0-1.236.159Zm11,18.692a.806.806,0,0,0-.358.67V53.433h-8.6V22.211a.806.806,0,0,0-.358-.67,8.379,8.379,0,0,1-3.728-6.973V11.342a3.283,3.283,0,0,1,3.279-3.279h4.028a1.28,1.28,0,0,1,1.293,1.176,1.236,1.236,0,0,1-1.235,1.3h-4.085a.806.806,0,0,0-.806.806v3.225a.806.806,0,0,0,.806.806,6.187,6.187,0,0,1,5.421,3.21.806.806,0,0,0,1.413-.777,7.8,7.8,0,0,0-6.028-4V12.149h3.279a2.862,2.862,0,0,0,2.044-.865,2.842,2.842,0,0,0,4.084,0,2.844,2.844,0,0,0,3.279.583v2.7A8.378,8.378,0,0,1,177.657,21.541Z" transform="translate(-145.476)"/>
      <path id="Trazado_1193166" data-name="Trazado 1193166" d="M17.148,186.725a2.832,2.832,0,0,0-1.376.356,2.847,2.847,0,0,0-4.085-1.613,2.846,2.846,0,0,0-4.752-1.1,2.847,2.847,0,0,0-4.892,1.983v4.521A4.887,4.887,0,0,0,0,194.842v3.225a9.986,9.986,0,0,0,4.085,8.062v1.13a.806.806,0,1,0,1.613,0v-1.549a.806.806,0,0,0-.358-.67,8.379,8.379,0,0,1-3.728-6.973v-3.225a3.283,3.283,0,0,1,3.279-3.279H8.919a1.28,1.28,0,0,1,1.292,1.176,1.236,1.236,0,0,1-1.235,1.3H4.892a.806.806,0,0,0-.806.806v3.225a.806.806,0,0,0,.806.806,6.187,6.187,0,0,1,5.421,3.21.806.806,0,0,0,1.413-.777,7.8,7.8,0,0,0-6.029-4v-1.654H8.977a2.862,2.862,0,0,0,2.044-.865,2.842,2.842,0,0,0,4.084,0,2.844,2.844,0,0,0,3.279.583v2.7a8.378,8.378,0,0,1-3.728,6.973.806.806,0,0,0-.358.67V217.2H5.7v-6.719a.806.806,0,0,0-1.613,0v7.526a.806.806,0,0,0,.806.806H15.105a.806.806,0,0,0,.806-.806V206.13A9.986,9.986,0,0,0,20,198.068v-8.493A2.852,2.852,0,0,0,17.148,186.725ZM3.655,190.109v-3.76a1.236,1.236,0,1,1,2.473,0v3.6H4.892A4.885,4.885,0,0,0,3.655,190.109Zm5.264-.159H7.741v-3.6a1.236,1.236,0,1,1,2.473,0v3.9A2.953,2.953,0,0,0,8.919,189.951Zm4.143,4.085a1.238,1.238,0,0,1-1.236-1.236v-4.838a1.236,1.236,0,1,1,2.473,0V192.8A1.238,1.238,0,0,1,13.063,194.036Zm4.085,0a1.238,1.238,0,0,1-1.236-1.236v-3.225a1.236,1.236,0,1,1,2.473,0V192.8A1.238,1.238,0,0,1,17.148,194.036Z" transform="translate(0 -163.772)"/>
      <path id="Trazado_1193167" data-name="Trazado 1193167" d="M343.148,186.725a2.832,2.832,0,0,0-1.376.356,2.847,2.847,0,0,0-4.085-1.613,2.846,2.846,0,0,0-4.752-1.1,2.847,2.847,0,0,0-4.892,1.983v4.521A4.888,4.888,0,0,0,326,194.842v3.225a9.986,9.986,0,0,0,4.085,8.062v11.881a.806.806,0,0,0,.806.806h10.214a.806.806,0,0,0,.806-.806V206.13A9.986,9.986,0,0,0,346,198.068v-8.493A2.852,2.852,0,0,0,343.148,186.725Zm-4.085,0a1.238,1.238,0,0,1,1.236,1.236V192.8a1.236,1.236,0,0,1-2.473,0v-4.838A1.238,1.238,0,0,1,339.063,186.725Zm-4.085-1.613a1.238,1.238,0,0,1,1.236,1.236v3.9a2.953,2.953,0,0,0-1.294-.3h-1.179v-3.6A1.238,1.238,0,0,1,334.977,185.113Zm-5.322,1.236a1.236,1.236,0,1,1,2.473,0v3.6h-1.236a4.885,4.885,0,0,0-1.236.159Zm11,18.692a.806.806,0,0,0-.358.67V217.2h-8.6V205.711a.806.806,0,0,0-.358-.67,8.379,8.379,0,0,1-3.728-6.973v-3.225a3.283,3.283,0,0,1,3.279-3.279h4.028a1.28,1.28,0,0,1,1.293,1.176,1.236,1.236,0,0,1-1.235,1.3h-4.085a.806.806,0,0,0-.806.806v3.225a.806.806,0,0,0,.806.806,6.187,6.187,0,0,1,5.421,3.21.806.806,0,0,0,1.413-.777,7.8,7.8,0,0,0-6.028-4v-1.654h3.279a2.862,2.862,0,0,0,2.044-.865,2.843,2.843,0,0,0,4.084,0,2.844,2.844,0,0,0,3.279.583v2.7A8.379,8.379,0,0,1,340.657,205.041Zm2.491-11.005a1.238,1.238,0,0,1-1.236-1.236v-3.225a1.236,1.236,0,1,1,2.473,0V192.8A1.238,1.238,0,0,1,343.148,194.036Z" transform="translate(-290.952 -163.772)"/>
    </g>
  </g>
</svg>
