<svg xmlns="http://www.w3.org/2000/svg" xmlns:xlink="http://www.w3.org/1999/xlink" width="295" height="286" viewBox="0 0 295 286">
  <defs>
    <clipPath id="clip-path">
      <rect id="Rectángulo_422911" data-name="Rectángulo 422911" width="295" height="286" transform="translate(1125 1781)" fill="#fff" stroke="#707070" stroke-width="1"/>
    </clipPath>
  </defs>
  <g id="Enmascarar_grupo_1225074" data-name="Enmascarar grupo 1225074" transform="translate(-1125 -1781)" clip-path="url(#clip-path)">
    <g id="_8775494_3988418" data-name="8775494_3988418" transform="translate(1087.409 1744.122)">
      <g id="Background_Complete" transform="translate(0 54.952)">
        <g id="Grupo_1229586" data-name="Grupo 1229586" transform="translate(0.251 0.168)">
          <rect id="Rectángulo_422912" data-name="Rectángulo 422912" width="359.09" height="0.18" transform="translate(0 235.701)" fill="#ebebeb" stroke="#e0e0e0" stroke-width="1"/>
          <rect id="Rectángulo_422913" data-name="Rectángulo 422913" width="23.821" height="0.18" transform="translate(299.239 247.277)" fill="#ebebeb"/>
          <rect id="Rectángulo_422914" data-name="Rectángulo 422914" width="6.252" height="0.18" transform="translate(231.627 249.229)" fill="#ebebeb"/>
          <rect id="Rectángulo_422915" data-name="Rectángulo 422915" width="13.803" height="0.18" transform="translate(284.804 240.599)" fill="#ebebeb"/>
          <rect id="Rectángulo_422916" data-name="Rectángulo 422916" width="31.064" height="0.18" transform="translate(37.728 241.807)" fill="#ebebeb"/>
          <rect id="Rectángulo_422917" data-name="Rectángulo 422917" width="4.555" height="0.18" transform="translate(75.089 241.807)" fill="#ebebeb"/>
          <rect id="Rectángulo_422918" data-name="Rectángulo 422918" width="67.37" height="0.18" transform="translate(94.389 244.844)" fill="#ebebeb"/>
          <path id="Trazado_1192368" data-name="Trazado 1192368" d="M161.795,258.371H41.755a3.862,3.862,0,0,1-3.548-4.105V59.057a3.862,3.862,0,0,1,3.548-4.105h120.04a3.862,3.862,0,0,1,3.548,4.105V254.266A3.862,3.862,0,0,1,161.795,258.371ZM41.755,55.133a3.692,3.692,0,0,0-3.393,3.925V254.267a3.692,3.692,0,0,0,3.393,3.925h120.04a3.692,3.692,0,0,0,3.392-3.925V59.057a3.693,3.693,0,0,0-3.392-3.925H41.755Z" transform="translate(9.218 -54.952)" fill="#ebebeb" stroke="#e0e0e0" stroke-width="1"/>
          <path id="Trazado_1192369" data-name="Trazado 1192369" d="M397.482,258.371H258.609a4.11,4.11,0,0,1-4.1-4.105V59.057a4.11,4.11,0,0,1,4.1-4.105H397.482a4.11,4.11,0,0,1,4.105,4.105V254.266A4.109,4.109,0,0,1,397.482,258.371ZM258.609,55.133a3.929,3.929,0,0,0-3.925,3.925V254.267a3.929,3.929,0,0,0,3.925,3.925H397.482a3.929,3.929,0,0,0,3.925-3.925V59.057a3.93,3.93,0,0,0-3.925-3.925H258.609Z" transform="translate(-71.971 -54.952)" fill="#ebebeb" stroke="#e0e0e0" stroke-width="1"/>
        </g>
        <g id="Grupo_1229593" data-name="Grupo 1229593" transform="translate(60.251 -16.832)">
          <g id="Grupo_1229589" data-name="Grupo 1229589" transform="translate(192.122)">
            <g id="Grupo_1229587" data-name="Grupo 1229587">
              <rect id="Rectángulo_422919" data-name="Rectángulo 422919" width="46.968" height="9.133" fill="#f0f0f0"/>
              <rect id="Rectángulo_422920" data-name="Rectángulo 422920" width="40.156" height="4.685" transform="translate(3.406 9.133)" fill="#e0e0e0"/>
            </g>
            <rect id="Rectángulo_422921" data-name="Rectángulo 422921" width="31.811" height="233.772" transform="translate(7.578 13.818)" fill="#f0f0f0"/>
            <rect id="Rectángulo_422922" data-name="Rectángulo 422922" width="24.026" height="233.772" transform="translate(11.471 13.818)" fill="#e0e0e0"/>
            <rect id="Rectángulo_422923" data-name="Rectángulo 422923" width="9.802" height="233.772" transform="translate(18.583 13.818)" fill="#f0f0f0"/>
            <g id="Grupo_1229588" data-name="Grupo 1229588" transform="translate(0 247.59)">
              <rect id="Rectángulo_422924" data-name="Rectángulo 422924" width="46.968" height="9.133" transform="translate(46.968 13.819) rotate(180)" fill="#f0f0f0"/>
              <rect id="Rectángulo_422925" data-name="Rectángulo 422925" width="40.156" height="4.685" transform="translate(43.562 4.685) rotate(180)" fill="#e0e0e0"/>
            </g>
          </g>
          <g id="Grupo_1229592" data-name="Grupo 1229592">
            <g id="Grupo_1229590" data-name="Grupo 1229590" transform="translate(0)">
              <rect id="Rectángulo_422926" data-name="Rectángulo 422926" width="46.968" height="9.133" fill="#f0f0f0"/>
              <rect id="Rectángulo_422927" data-name="Rectángulo 422927" width="40.156" height="4.685" transform="translate(3.406 9.133)" fill="#e0e0e0"/>
            </g>
            <rect id="Rectángulo_422928" data-name="Rectángulo 422928" width="31.811" height="233.772" transform="translate(7.578 13.818)" fill="#f0f0f0"/>
            <rect id="Rectángulo_422929" data-name="Rectángulo 422929" width="24.026" height="233.772" transform="translate(11.47 13.818)" fill="#e0e0e0"/>
            <rect id="Rectángulo_422930" data-name="Rectángulo 422930" width="9.802" height="233.772" transform="translate(18.583 13.818)" fill="#f0f0f0"/>
            <g id="Grupo_1229591" data-name="Grupo 1229591" transform="translate(0 247.59)">
              <rect id="Rectángulo_422931" data-name="Rectángulo 422931" width="46.968" height="9.133" transform="translate(46.968 13.819) rotate(180)" fill="#f0f0f0"/>
              <rect id="Rectángulo_422932" data-name="Rectángulo 422932" width="40.156" height="4.685" transform="translate(43.562 4.685) rotate(180)" fill="#e0e0e0"/>
            </g>
          </g>
        </g>
      </g>
      <g id="Shadow_1_" transform="translate(40.354 306.639)">
        <ellipse id="_x3C_Path_x3E__359_" cx="139.442" cy="8.143" rx="139.442" ry="8.143" fill="#f5f5f5"/>
      </g>
      <g id="Character_2" transform="translate(187.858 87.173)">
        <g id="Grupo_1229603" data-name="Grupo 1229603">
          <g id="Grupo_1229602" data-name="Grupo 1229602">
            <g id="Grupo_1229601" data-name="Grupo 1229601">
              <g id="Grupo_1229596" data-name="Grupo 1229596" transform="translate(0 11.797)">
                <g id="Grupo_1229594" data-name="Grupo 1229594" transform="translate(3.248)">
                  <path id="Trazado_1192370" data-name="Trazado 1192370" d="M284.54,125.371s-4.233-1.194-15.612.456c0,0,.316,18.418,2.237,27.67a44.406,44.406,0,0,0,12.9-.7S281.87,132.031,284.54,125.371Z" transform="translate(-268.928 -124.954)" fill="#fff"/>
                  <path id="Trazado_1192371" data-name="Trazado 1192371" d="M284.54,125.371s-4.233-1.194-15.612.456c0,0,.316,18.418,2.237,27.67a44.406,44.406,0,0,0,12.9-.7S281.87,132.031,284.54,125.371Z" transform="translate(-268.928 -124.954)" opacity="0.1"/>
                </g>
                <path id="Trazado_1192372" data-name="Trazado 1192372" d="M270.731,174.1l-2.816-11.307s-3.1-1.86-3.357-3.92,3.028-7.828,3.668-7.82,4.793,3.114,4.783,4.029-.831,5.824-.831,5.824l5.653,10.961Z" transform="translate(-264.544 -131.713)" fill="#e2877b"/>
                <g id="Grupo_1229595" data-name="Grupo 1229595" transform="translate(2.806 29.727)">
                  <path id="Trazado_1192373" data-name="Trazado 1192373" d="M269.953,173.514l-1.622-3.794,8-4.649,2.485,4.221Z" transform="translate(-268.331 -165.071)" fill="#407bff"/>
                  <path id="Trazado_1192374" data-name="Trazado 1192374" d="M269.953,173.514l-1.622-3.794,8-4.649,2.485,4.221Z" transform="translate(-268.331 -165.071)" fill="#fff" opacity="0.8"/>
                </g>
                <path id="Trazado_1192375" data-name="Trazado 1192375" d="M306.587,158.254c-4.8,3.188-15.466,18.7-18.1,18.478-3.414-.292-9.066-11.728-9.066-11.728l-10.492,6.324s12.286,24.811,19.138,23.249,19.845-20.592,20.728-23.4S312.542,154.3,306.587,158.254Z" transform="translate(-265.68 -133.399)" fill="#263238"/>
                <path id="Trazado_1192376" data-name="Trazado 1192376" d="M306.587,158.254c-4.8,3.188-15.466,18.7-18.1,18.478-3.414-.292-9.066-11.728-9.066-11.728l-10.492,6.324s12.286,24.811,19.138,23.249,19.845-20.592,20.728-23.4S312.542,154.3,306.587,158.254Z" transform="translate(-265.68 -133.399)" opacity="0.3"/>
              </g>
              <g id="Grupo_1229599" data-name="Grupo 1229599" transform="translate(21.8 88.954)">
                <path id="Trazado_1192377" data-name="Trazado 1192377" d="M315.036,403.077l-6.012.635L307.9,390.747l6.012-.635Z" transform="translate(-297.573 -270.79)" fill="#e2877b"/>
                <path id="Trazado_1192378" data-name="Trazado 1192378" d="M355.807,402.3h-5.824l-.482-13.493h5.832Z" transform="translate(-308.349 -270.452)" fill="#e2877b"/>
                <path id="Trazado_1192379" data-name="Trazado 1192379" d="M345.28,406.108h7.076a.512.512,0,0,1,.5.4L354,411.7a.859.859,0,0,1-.852,1.037c-2.29-.037-3.957-.178-6.832-.178-1.771,0-7.113.185-9.559.185s-2.764-2.416-1.764-2.638c4.49-.978,7.869-2.334,9.307-3.623A1.407,1.407,0,0,1,345.28,406.108Z" transform="translate(-304.454 -274.933)" fill="#263238"/>
                <path id="Trazado_1192380" data-name="Trazado 1192380" d="M345.966,406.97a1.739,1.739,0,0,1-1.119-.3.814.814,0,0,1-.289-.741.415.415,0,0,1,.237-.385c.645-.333,2.527.822,2.734.956a.126.126,0,0,1,.067.133.141.141,0,0,1-.1.119A6.944,6.944,0,0,1,345.966,406.97Zm-.867-1.208a.315.315,0,0,0-.178.037c-.037,0-.082.052-.089.163a.571.571,0,0,0,.185.5,2.83,2.83,0,0,0,2.075.1A5.656,5.656,0,0,0,345.1,405.762Z" transform="translate(-307.066 -274.772)" fill="#407bff"/>
                <path id="Trazado_1192381" data-name="Trazado 1192381" d="M347.87,406.3H347.8c-.6-.326-1.764-1.608-1.645-2.223a.452.452,0,0,1,.445-.363.74.74,0,0,1,.585.178c.674.548.815,2.223.822,2.3a.148.148,0,0,1-.067.126A.124.124,0,0,1,347.87,406.3Zm-1.171-2.364h-.067c-.178,0-.193.1-.2.141-.074.378.667,1.349,1.267,1.8a3.268,3.268,0,0,0-.689-1.823A.476.476,0,0,0,346.7,403.938Z" transform="translate(-307.481 -274.311)" fill="#407bff"/>
                <path id="Trazado_1192382" data-name="Trazado 1192382" d="M304.78,405.858h7.076a.512.512,0,0,1,.5.4l1.149,5.187a.86.86,0,0,1-.852,1.037c-2.29-.037-3.957-.178-6.832-.178-1.771,0-7.113.185-9.559.185s-2.764-2.416-1.764-2.638c4.49-.978,7.869-2.334,9.307-3.623A1.407,1.407,0,0,1,304.78,405.858Z" transform="translate(-293.964 -274.868)" fill="#263238"/>
                <path id="Trazado_1192383" data-name="Trazado 1192383" d="M305.466,406.72a1.739,1.739,0,0,1-1.119-.3.814.814,0,0,1-.289-.741.415.415,0,0,1,.237-.385c.645-.333,2.527.823,2.734.956a.126.126,0,0,1,.067.133.141.141,0,0,1-.1.119A6.942,6.942,0,0,1,305.466,406.72Zm-.867-1.208a.316.316,0,0,0-.178.037c-.037,0-.081.052-.089.163a.57.57,0,0,0,.185.5,2.83,2.83,0,0,0,2.075.1A5.657,5.657,0,0,0,304.6,405.512Z" transform="translate(-296.577 -274.707)" fill="#407bff"/>
                <path id="Trazado_1192384" data-name="Trazado 1192384" d="M307.37,406.052H307.3c-.6-.326-1.764-1.608-1.645-2.223a.452.452,0,0,1,.445-.363.74.74,0,0,1,.585.178c.674.548.815,2.223.822,2.3a.148.148,0,0,1-.067.126A.124.124,0,0,1,307.37,406.052Zm-1.171-2.364h-.067c-.178,0-.193.1-.2.141-.074.378.667,1.349,1.267,1.8a3.269,3.269,0,0,0-.689-1.823A.476.476,0,0,0,306.2,403.688Z" transform="translate(-296.991 -274.247)" fill="#407bff"/>
                <path id="Trazado_1192385" data-name="Trazado 1192385" d="M355.333,388.818H349.5l.252,6.958h5.832Z" transform="translate(-308.349 -270.454)" opacity="0.2"/>
                <g id="Grupo_1229597" data-name="Grupo 1229597" transform="translate(6.127)">
                  <path id="Trazado_1192386" data-name="Trazado 1192386" d="M340.684,229.081H309.767c-2.94,16.052-11.736,77.742-5.134,128.356l10.466-1.3s-1.374-72.077,7.867-96.917c1.063,13.294,2.325,27.439,3.421,34.965,2.69,18.525,8.7,62.4,8.7,62.4h10.655s-2.427-42.145-3.434-60.351C341.2,276.474,340.727,233.14,340.684,229.081Z" transform="translate(-302.233 -229.081)" fill="#263238"/>
                </g>
                <g id="Grupo_1229598" data-name="Grupo 1229598" transform="translate(6.127)" opacity="0.3">
                  <path id="Trazado_1192387" data-name="Trazado 1192387" d="M340.684,229.081H309.767c-2.94,16.052-11.736,77.742-5.134,128.356l10.466-1.3s-1.374-72.077,7.867-96.917c1.063,13.294,2.325,27.439,3.421,34.965,2.69,18.525,8.7,62.4,8.7,62.4h10.655s-2.427-42.145-3.434-60.351C341.2,276.474,340.727,233.14,340.684,229.081Z" transform="translate(-302.233 -229.081)"/>
                </g>
                <path id="Trazado_1192388" data-name="Trazado 1192388" d="M310.72,237.431s9.111,2.11,15.464,0l-.571-4.939-14.784.027Z" transform="translate(-298.304 -229.964)" opacity="0.4"/>
                <path id="Trazado_1192389" data-name="Trazado 1192389" d="M316.914,238.153a36.72,36.72,0,0,0,5.866.166V232.5l-5.866.011Z" transform="translate(-299.908 -229.968)" fill="#fff" opacity="0.1"/>
                <path id="Trazado_1192390" data-name="Trazado 1192390" d="M328.955,265.915A82.855,82.855,0,0,0,325.5,279.29c-.865-11.83,2.594-24.376,2.594-24.376Z" transform="translate(-302.097 -235.772)" opacity="0.2"/>
              </g>
              <path id="Trazado_1192391" data-name="Trazado 1192391" d="M346.406,133.855s-.23,5.677-4.652,4.339S342.5,131.829,346.406,133.855Z" transform="translate(-284.103 -115.34)" fill="#263238"/>
              <path id="Trazado_1192392" data-name="Trazado 1192392" d="M330.747,148.725a5.889,5.889,0,0,0,2.036-6.232l8-6.457s-1.038,7.928.9,12.12c0,0-4.828,4.894-8.511,3.778S330.747,148.725,330.747,148.725Z" transform="translate(-281.637 -116.027)" fill="#e2877b"/>
              <path id="Trazado_1192393" data-name="Trazado 1192393" d="M339.758,141.263l-3.166.132-3.039,2.452a6.4,6.4,0,0,1-.037,3.286C338.362,146.349,339.758,141.263,339.758,141.263Z" transform="translate(-282.409 -117.381)" opacity="0.2"/>
              <path id="Trazado_1192394" data-name="Trazado 1192394" d="M333.8,160l-6.63-2.509-5.562.411a127.423,127.423,0,0,0-8.064,27.263,221.825,221.825,0,0,0-2.23,29.091c.2-.045,8.158,1.7,15.522-.805,0,0-4.906-20.754-2.257-30.253s9.147-23.2,9.147-23.2" transform="translate(-276.659 -121.585)" fill="#407bff"/>
              <path id="Trazado_1192395" data-name="Trazado 1192395" d="M333.8,160l-6.63-2.509-5.562.411a127.423,127.423,0,0,0-8.064,27.263,221.825,221.825,0,0,0-2.23,29.091c.2-.045,8.158,1.7,15.522-.805,0,0-4.906-20.754-2.257-30.253s9.147-23.2,9.147-23.2" transform="translate(-276.659 -121.585)" fill="#fff" opacity="0.8"/>
              <path id="Trazado_1192396" data-name="Trazado 1192396" d="M325.913,157.682l.4,3.648s-4.922,9.582-6.681,15.988-3.177,25.849-3.177,25.849l3.082,5.3,2.831-5.3s-.72-15.584,1.526-26.056,3.519-15.207,3.519-15.207l3.411-2.465-2.317-1.949Z" transform="translate(-277.989 -121.585)" opacity="0.4"/>
              <path id="Trazado_1192397" data-name="Trazado 1192397" d="M329.452,152.962l2.281,2.263,8.653-2.832-6.45,9.539-3.2-5.122-5.2,1.475Z" transform="translate(-280.342 -120.264)" fill="#fff"/>
              <path id="Trazado_1192398" data-name="Trazado 1192398" d="M324.224,153.161s-11.907,2.6-14.451,13.325-4.037,57.625-4.407,61.4,7.09,4.246,7.09,4.246-.4-24.255.211-30.692c.222-2.329.558-10.183,1.614-16.31C316.143,174.327,319.374,160.395,324.224,153.161Z" transform="translate(-275.114 -120.463)" fill="#263238"/>
              <path id="Trazado_1192399" data-name="Trazado 1192399" d="M324.511,154.024c-1.618,1.426-5.477,4.461-7.423,7.646l3.007,1.588-4.113,2.619s.343,11.55,1.345,17.607c1.9-10.54,5.043-23.451,9.65-30.323C326.977,153.161,325.995,153.432,324.511,154.024Z" transform="translate(-277.867 -120.463)" fill="#263238"/>
              <path id="Trazado_1192400" data-name="Trazado 1192400" d="M324.511,154.024c-1.618,1.426-5.477,4.461-7.423,7.646l3.007,1.588-4.113,2.619s.343,11.55,1.345,17.607c1.9-10.54,5.043-23.451,9.65-30.323C326.977,153.161,325.995,153.432,324.511,154.024Z" transform="translate(-277.867 -120.463)" fill="#fff" opacity="0.1"/>
              <path id="Trazado_1192401" data-name="Trazado 1192401" d="M318.507,119.53s-.419,4.357,2.986,5.327c0,0,1.935-4.866-.415-5.327S318.507,119.53,318.507,119.53Z" transform="translate(-278.517 -111.699)" fill="#263238"/>
              <path id="Trazado_1192402" data-name="Trazado 1192402" d="M322.216,130.709c.536,3.083,2.85,9.545,9.39,7.573s6.821-7.131,6.93-8.621-1.277-13.056-5.462-14.154-9.262.259-10.858,2.649S322.216,130.709,322.216,130.709Z" transform="translate(-279.298 -110.61)" fill="#e2877b"/>
              <path id="Trazado_1192403" data-name="Trazado 1192403" d="M336.882,124.353c.106.138-4.329,2.785-4.189-6.381a2.758,2.758,0,0,1-3.946-2.274s-13.413,4.629-12.078-.588c1.784-6.97,12.633-7.494,17.306-3.849,0,0,2.323-2.6,4.51.2,2.612,3.346,2.571,12.422,2.571,12.422Z" transform="translate(-278.021 -109.034)" fill="#263238"/>
              <path id="Trazado_1192404" data-name="Trazado 1192404" d="M341.385,127.754c-1.569-2.467-8.591.122-9.95.653l-.047-.348a.927.927,0,0,0-1.115-.781l-2.879.625a.925.925,0,0,0-.719,1.05c.015.091.033.2.05.3a1.472,1.472,0,0,0-1.4.2l-.035-.24a.926.926,0,0,0-1.054-.783l-2.425.362a.926.926,0,0,0-.786.991c.044.532.1,1,.151,1.375a.91.91,0,0,0,.365.606.92.92,0,0,0,.548.18.965.965,0,0,0,.138-.01l2.47-.362a.928.928,0,0,0,.783-1.049l-.092-.638a1.139,1.139,0,0,1,1.413-.179c.036.2.073.406.11.6a.925.925,0,0,0,.905.745.963.963,0,0,0,.189-.019l2.831-.582a.929.929,0,0,0,.731-1.031l-.085-.633c1.051-.411,8.157-3.08,9.587-.832a.185.185,0,1,0,.312-.2ZM324.647,131.2l-2.47.362a.561.561,0,0,1-.413-.1.539.539,0,0,1-.217-.361c-.054-.373-.1-.827-.149-1.352a.556.556,0,0,1,.472-.594l2.425-.362a.63.63,0,0,1,.083-.006.556.556,0,0,1,.548.476l.19,1.309A.556.556,0,0,1,324.647,131.2Zm6.118-1.117-2.831.582a.555.555,0,0,1-.657-.433c-.087-.448-.172-.949-.235-1.341a.554.554,0,0,1,.431-.629l2.879-.625a.552.552,0,0,1,.12-.013.556.556,0,0,1,.548.482l.184,1.358A.557.557,0,0,1,330.766,130.085Z" transform="translate(-279.173 -113.611)"/>
              <path id="Trazado_1192405" data-name="Trazado 1192405" d="M332.261,129.516c.111.453-.1.878-.406.93s-.611-.286-.693-.746.106-.88.406-.93S332.178,129.048,332.261,129.516Z" transform="translate(-281.794 -114.144)" fill="#263238"/>
              <path id="Trazado_1192406" data-name="Trazado 1192406" d="M324.5,130.723c.11.453-.106.88-.407.93s-.611-.286-.693-.746.106-.88.406-.93S324.423,130.283,324.5,130.723Z" transform="translate(-279.783 -114.457)" fill="#263238"/>
              <path id="Trazado_1192407" data-name="Trazado 1192407" d="M327.347,130.909a16.735,16.735,0,0,1-1.536,4.34,2.72,2.72,0,0,0,2.3.036Z" transform="translate(-280.413 -114.7)" fill="#dc5753"/>
              <path id="Trazado_1192408" data-name="Trazado 1192408" d="M333.08,125.893a.289.289,0,0,1-.269.1,2.221,2.221,0,0,0-1.921.528.274.274,0,1,1-.4-.373h0a2.733,2.733,0,0,1,2.413-.7.274.274,0,0,1,.232.31s0,0,0,.007A.441.441,0,0,1,333.08,125.893Z" transform="translate(-281.605 -113.273)" fill="#263238"/>
              <path id="Trazado_1192409" data-name="Trazado 1192409" d="M330.424,139.146h0a4.231,4.231,0,0,0,3.431-1.867.148.148,0,0,0-.052-.2.14.14,0,0,0-.194.042l-.006.01a4.051,4.051,0,0,1-3.194,1.719.141.141,0,0,0-.142.14.11.11,0,0,0,0,.016.141.141,0,0,0,.14.142A.054.054,0,0,0,330.424,139.146Z" transform="translate(-281.567 -116.292)" fill="#263238"/>
              <path id="Trazado_1192410" data-name="Trazado 1192410" d="M322.165,126.947a.263.263,0,0,1-.127-.1.274.274,0,0,1,.147-.359l.006,0a2.735,2.735,0,0,1,2.512.193.274.274,0,0,1,.066.382h0a.282.282,0,0,1-.383.066h0a2.223,2.223,0,0,0-1.993-.122A.284.284,0,0,1,322.165,126.947Z" transform="translate(-279.43 -113.497)" fill="#263238"/>
              <path id="Trazado_1192411" data-name="Trazado 1192411" d="M340.2,152.393s7.927,4.622,12.018,6.357-2.118,29.957-2.268,34.812,4.265,38.305,4.265,38.305-12.628,3.284-22.917.836c0,0-7.292-27.817-6.392-42.4C325.773,176.285,329.98,162.47,340.2,152.393Z" transform="translate(-280.159 -120.264)" fill="#263238"/>
              <path id="Trazado_1192412" data-name="Trazado 1192412" d="M343.509,154.254c-1.876-1.053-3.243-1.861-3.243-1.861-9.887,9.746-14.137,22.99-15.19,36.536,4.287-10.457,14.263-20.037,14.263-20.037l-3.079-4.511,5.651-.445A37.974,37.974,0,0,1,343.509,154.254Z" transform="translate(-280.223 -120.264)" fill="#263238"/>
              <path id="Trazado_1192413" data-name="Trazado 1192413" d="M343.509,154.254c-1.876-1.053-3.243-1.861-3.243-1.861-9.887,9.746-14.137,22.99-15.19,36.536,4.287-10.457,14.263-20.037,14.263-20.037l-3.079-4.511,5.651-.445A37.974,37.974,0,0,1,343.509,154.254Z" transform="translate(-280.223 -120.264)" fill="#fff" opacity="0.1"/>
              <g id="XMLID_1_" transform="translate(38.465 50.371)">
                <g id="XMLID_2_">
                  <path id="Trazado_1192414" data-name="Trazado 1192414" d="M338.408,177.232a.246.246,0,0,0-.27-.22l-17.81,1.5v1.249h-1.873l2.387,28.768c.011.133.093.134.1.234l.194-.016.156-.222.591-.05.195.193,18.557-1.563a.247.247,0,0,0,.23-.262Z" transform="translate(-316.972 -177.011)" fill="#407bff"/>
                  <path id="XMLID_25_" d="M318.649,207.144a2.415,2.415,0,0,0,1.773,2.2c-.128-1.519-.3-2.969-.3-2.969s-1.621-22.067-2.043-27.132a2.021,2.021,0,0,0-1.617,1.894l.176,2.083S318.186,201.646,318.649,207.144Z" transform="translate(-316.454 -177.588)" fill="#407bff"/>
                  <path id="XMLID_24_" d="M318.649,207.144a2.415,2.415,0,0,0,1.773,2.2c-.128-1.519-.3-2.969-.3-2.969s-1.621-22.067-2.043-27.132a2.021,2.021,0,0,0-1.617,1.894l.176,2.083S318.186,201.646,318.649,207.144Z" transform="translate(-316.454 -177.588)" opacity="0.2"/>
                  <path id="XMLID_23_" d="M321.441,217.31l19.177-1.555-1.111-3.289-18.345,1.545a1.557,1.557,0,0,0-.794,1.729A1.854,1.854,0,0,0,321.441,217.31Z" transform="translate(-317.465 -186.194)" fill="#407bff"/>
                  <path id="XMLID_22_" d="M321.441,217.31l19.177-1.555-1.111-3.289-18.345,1.545a1.557,1.557,0,0,0-.794,1.729A1.854,1.854,0,0,0,321.441,217.31Z" transform="translate(-317.465 -186.194)" fill="#fff" opacity="0.6"/>
                  <path id="XMLID_21_" d="M339.751,203.339l-18.114,1.526-.139-.092-.559.047-.123.114-.238.02a.048.048,0,0,1-.052-.044l-2.2-26.161a.048.048,0,0,1,.044-.052l.27-.023.116.2.559-.046.137-.223,18.089-1.523a.048.048,0,0,1,.052.044l2.2,26.161A.048.048,0,0,1,339.751,203.339Z" transform="translate(-316.938 -177.029)" fill="#407bff"/>
                  <path id="XMLID_18_" d="M336.877,193.379l-12.721,1.071-.9-10.718,12.721-1.071Zm-12.12.273,11.4-.96-.777-9.234-11.4.96Z" transform="translate(-318.215 -178.474)" opacity="0.3"/>
                  <path id="XMLID_17_" d="M316.907,186.523a2.435,2.435,0,0,1,1.393-1.678c.017.2.036.288.07.831A3.314,3.314,0,0,0,317,187.607Z" transform="translate(-316.571 -179.04)" opacity="0.3"/>
                  <path id="XMLID_16_" d="M318.762,208.551a2.435,2.435,0,0,1,1.393-1.678c.017.2.036.288.07.831a3.313,3.313,0,0,0-1.372,1.931Z" transform="translate(-317.052 -184.745)" opacity="0.3"/>
                  <rect id="XMLID_15_" width="0.562" height="26.036" transform="matrix(0.997, -0.084, 0.084, 0.997, 1.819, 1.857)" opacity="0.3"/>
                  <rect id="XMLID_14_" width="8.956" height="1.235" transform="matrix(0.997, -0.084, 0.084, 0.997, 8.136, 18.874)" fill="#407bff"/>
                  <rect id="XMLID_13_" width="5.008" height="1.235" transform="matrix(0.997, -0.084, 0.084, 0.997, 10.328, 21.401)" fill="#407bff"/>
                  <path id="XMLID_12_" d="M321.779,215.987l17.146-1.444s-5.22.339-11.682.883C324.5,215.657,321.779,215.987,321.779,215.987Z" transform="translate(-317.833 -186.732)" opacity="0.3"/>
                  <path id="XMLID_11_" d="M321.855,216.833l17.186-1.6-11.726.988C324.571,216.448,321.855,216.833,321.855,216.833Z" transform="translate(-317.853 -186.91)" opacity="0.3"/>
                  <path id="XMLID_10_" d="M321.923,217.632l17.273-1.61-11.814,1C324.639,217.248,321.923,217.632,321.923,217.632Z" transform="translate(-317.871 -187.115)" opacity="0.3"/>
                  <path id="XMLID_9_" d="M325.741,215.22c.15,1.776.284,3.37.284,3.37l-1.209-1.13-1,1.317s-.07-.832-.287-3.411C324.193,215.3,325.2,215.265,325.741,215.22Z" transform="translate(-318.286 -186.907)" fill="#407bff"/>
                  <path id="XMLID_8_" d="M325.741,215.22c.15,1.776.284,3.37.284,3.37l-1.209-1.13-1,1.317s-.07-.832-.287-3.411C324.193,215.3,325.2,215.265,325.741,215.22Z" transform="translate(-318.286 -186.907)" opacity="0.3"/>
                  <path id="XMLID_7_" d="M321.706,215.149l17.347-1.36s-5.422.256-11.884.8C324.427,214.82,321.706,215.149,321.706,215.149Z" transform="translate(-317.814 -186.537)" opacity="0.3"/>
                  <path id="XMLID_6_" d="M346.89,212.511l-1.011.085a2.153,2.153,0,0,0-.061,1.615c.4,1.352,1.342,1.5,1.342,1.5Z" transform="translate(-324.029 -186.206)" fill="#407bff"/>
                </g>
              </g>
              <g id="Grupo_1229600" data-name="Grupo 1229600" transform="translate(36.669 37.521)">
                <path id="Trazado_1192415" data-name="Trazado 1192415" d="M333.612,209.96l-10.578-4.886s-3.393,1.254-5.158.162-4.206-7.263-3.8-7.757,5.43-1.787,6.136-1.206,4.021,4.295,4.021,4.295l12.085,2.458Z" transform="translate(-314.031 -169.112)" fill="#e2877b"/>
                <path id="Trazado_1192416" data-name="Trazado 1192416" d="M334.991,200.82l-4.239-.253.447,9.535,4.505.761Z" transform="translate(-318.362 -170.262)" fill="#fff"/>
                <path id="Trazado_1192417" data-name="Trazado 1192417" d="M334.991,200.82l-4.239-.253.447,9.535,4.505.761Z" transform="translate(-318.362 -170.262)" fill="#407bff"/>
                <path id="Trazado_1192418" data-name="Trazado 1192418" d="M334.991,200.82l-4.239-.253.447,9.535,4.505.761Z" transform="translate(-318.362 -170.262)" fill="#fff" opacity="0.8"/>
                <path id="Trazado_1192419" data-name="Trazado 1192419" d="M351.816,159.679c7.074.756,9.92,11.418,10.907,16.753.961,5.2,3.584,21.4-2.38,25.787s-24.874-.425-24.874-.425l-1.008-13s10.157,2.293,14.548.587c3.675-1.429,1.973-14.646,1.589-17.014C350.049,168.986,348.49,159.324,351.816,159.679Z" transform="translate(-319.322 -159.669)" fill="#263238"/>
                <path id="Trazado_1192420" data-name="Trazado 1192420" d="M351.816,159.679c7.074.756,9.92,11.418,10.907,16.753.961,5.2,3.584,21.4-2.38,25.787s-24.874-.425-24.874-.425l-1.008-13s10.157,2.293,14.548.587c3.675-1.429,1.973-14.646,1.589-17.014C350.049,168.986,348.49,159.324,351.816,159.679Z" transform="translate(-319.322 -159.669)" opacity="0.3"/>
              </g>
              <path id="Trazado_1192421" data-name="Trazado 1192421" d="M341.949,129.53s1.168-3.234,4.158-3.248c2.4-.011,2.751,3,1.656,5.075-.84,1.593-3.585,3.585-5.335,1.5S341.949,129.53,341.949,129.53Z" transform="translate(-284.477 -113.501)" fill="#e2877b"/>
            </g>
          </g>
        </g>
      </g>
      <g id="Character_1_1_" transform="translate(64.195 109.775)">
        <g id="Grupo_1229615" data-name="Grupo 1229615" transform="translate(0 0)">
          <g id="Grupo_1229614" data-name="Grupo 1229614">
            <g id="Grupo_1229608" data-name="Grupo 1229608" transform="translate(0 130.725)">
              <path id="Trazado_1192422" data-name="Trazado 1192422" d="M143.348,329.058l-.282,12.207L141.78,396.48h-4.241l-1.278-55.216-.282-12.207Z" transform="translate(-110.916 -323.047)" fill="#457bfb"/>
              <path id="Trazado_1192423" data-name="Trazado 1192423" d="M143.348,329.058l-.282,12.207L141.78,396.48h-4.241l-1.278-55.216-.282-12.207Z" transform="translate(-110.916 -323.047)" fill="#fff" opacity="0.4"/>
              <path id="Trazado_1192424" data-name="Trazado 1192424" d="M143.348,329.058l-.282,12.544h-6.8l-.282-12.544Z" transform="translate(-110.916 -323.047)" opacity="0.2"/>
              <g id="Grupo_1229606" data-name="Grupo 1229606" transform="translate(2.027 6.795)">
                <g id="Grupo_1229604" data-name="Grupo 1229604" transform="translate(43.114)">
                  <path id="Trazado_1192425" data-name="Trazado 1192425" d="M171.913,396.522,168,330.158H161.59l5.486,66.364Z" transform="translate(-161.59 -330.08)" fill="#457bfb"/>
                  <path id="Trazado_1192426" data-name="Trazado 1192426" d="M167.064,396.5h4.842l-3.555-60.406L168,330.058h-6.405l.494,6.037Z" transform="translate(-161.591 -330.058)" fill="#fff" opacity="0.5"/>
                  <path id="Trazado_1192427" data-name="Trazado 1192427" d="M161.593,330.058l.494,6.272h6.264L168,330.058Z" transform="translate(-161.591 -330.058)" opacity="0.2"/>
                </g>
                <g id="Grupo_1229605" data-name="Grupo 1229605">
                  <path id="Trazado_1192428" data-name="Trazado 1192428" d="M111.433,396.522l5.486-66.364h-6.405L106.6,396.522Z" transform="translate(-106.596 -330.08)" fill="#457bfb"/>
                  <path id="Trazado_1192429" data-name="Trazado 1192429" d="M111.447,396.5l4.977-60.406.494-6.037h-6.405l-.353,6.037L106.6,396.5Z" transform="translate(-106.598 -330.058)" fill="#fff" opacity="0.5"/>
                  <path id="Trazado_1192430" data-name="Trazado 1192430" d="M117.9,330.058l-.494,6.272H111.14l.353-6.272Z" transform="translate(-107.578 -330.058)" opacity="0.2"/>
                </g>
              </g>
              <path id="Trazado_1192431" data-name="Trazado 1192431" d="M155.761,321.391H111.136a3.92,3.92,0,0,0-3.92,3.92v5.244h52.465v-5.244A3.92,3.92,0,0,0,155.761,321.391Z" transform="translate(-104.703 -321.391)"/>
              <g id="Grupo_1229607" data-name="Grupo 1229607" transform="translate(0 4.582)">
                <path id="Trazado_1192432" data-name="Trazado 1192432" d="M159.925,327.236H105.587a1.577,1.577,0,0,0-1.577,1.577v1.428a1.576,1.576,0,0,0,1.577,1.577h54.339a1.577,1.577,0,0,0,1.577-1.577v-1.428A1.576,1.576,0,0,0,159.925,327.236Z" transform="translate(-104.01 -327.236)" fill="#457bfb"/>
                <path id="Trazado_1192433" data-name="Trazado 1192433" d="M159.925,327.236H105.587a1.577,1.577,0,0,0-1.577,1.577v1.428a1.576,1.576,0,0,0,1.577,1.577h54.339a1.577,1.577,0,0,0,1.577-1.577v-1.428A1.576,1.576,0,0,0,159.925,327.236Z" transform="translate(-104.01 -327.236)" fill="#fff" opacity="0.6"/>
              </g>
            </g>
            <g id="_x3C_Group_x3E__1_" transform="translate(9.273)">
              <path id="Trazado_1192434" data-name="Trazado 1192434" d="M175.436,245.661s15.792,16.381,16.747,17.232,6.847,2.757,7.714,3.511-.592,6.28-1.174,7.333-8.9-3.493-9.412-4.232a16.32,16.32,0,0,1-1.181-2.891l-17.918-15.051Z" transform="translate(-127.584 -174.307)" fill="#e9b076"/>
              <path id="Trazado_1192435" data-name="Trazado 1192435" d="M159.905,221.759s.052.633.174,1.684c.119,1.091.316,2.635.6,4.391.684,4.267,1.871,9.766,3.784,13.09a7.379,7.379,0,0,0,1.887,2.284c2.509,1.863,13.59,14.056,13.59,14.056l5.89-7.492-7.808-9.892s-5.155-29.138-13.017-31.41C161.587,207.481,159.905,221.759,159.905,221.759Z" transform="translate(-125.358 -166.262)" fill="#407bff"/>
              <path id="Trazado_1192436" data-name="Trazado 1192436" d="M159.905,221.759s.052.633.174,1.684c.119,1.091.316,2.635.6,4.391.684,4.267,1.871,9.766,3.784,13.09a7.379,7.379,0,0,0,1.887,2.284c2.509,1.863,13.59,14.056,13.59,14.056l5.89-7.492-7.808-9.892s-5.155-29.138-13.017-31.41C161.587,207.481,159.905,221.759,159.905,221.759Z" transform="translate(-125.358 -166.262)" opacity="0.6"/>
              <path id="Trazado_1192437" data-name="Trazado 1192437" d="M169.022,403.51l6.245-.857.865-14.845-6.236.864Z" transform="translate(-127.327 -205.013)" fill="#e9b076"/>
              <path id="Trazado_1192438" data-name="Trazado 1192438" d="M170,388.674l6.237-.856-.5,8.486-6.229.546Z" transform="translate(-127.434 -205.015)" opacity="0.2"/>
              <path id="Trazado_1192439" data-name="Trazado 1192439" d="M158.739,293.311l-1.524-9.546L122.2,281.671s-3.723,19.864-.862,25.156c5.107,9.448,32.628,4.68,40.681,5.609-4.814,19.686-4.343,58.156-4.343,58.156l11.5.878s8.85-41.454,10.639-61.151C181.025,297.028,170.012,297.358,158.739,293.311Z" transform="translate(-116.793 -182.085)" fill="#407bff"/>
              <path id="Trazado_1192440" data-name="Trazado 1192440" d="M166.218,394.208l13.822.909,1.184-5.919-15.186-.706Z" transform="translate(-126.682 -205.161)" fill="#457bfb"/>
              <path id="Trazado_1192441" data-name="Trazado 1192441" d="M187.4,396.817l6.287.463,3.939-14.34-6.279-.454Z" transform="translate(-131.297 -203.863)" fill="#e9b076"/>
              <g id="Grupo_1229609" data-name="Grupo 1229609" transform="translate(63.241 191.244)">
                <path id="Trazado_1192442" data-name="Trazado 1192442" d="M196.527,401.037c.008.016,0,.036.017.049a.089.089,0,0,0,.053.007,7.779,7.779,0,0,0,1.538.66,1.688,1.688,0,0,0,1.223.02.783.783,0,0,0,.394-.741.555.555,0,0,0-.212-.493,2.548,2.548,0,0,0-1.762-.048,2.3,2.3,0,0,0,.928-1.276.552.552,0,0,0-.38-.571.72.72,0,0,0-.631.027c-.764.419-1.06,2.179-1.083,2.273l.111,0v0l-.113.006c0,.006-.106.011-.106.018A.1.1,0,0,0,196.527,401.037Zm.469-.35-.141.043c.147-.579.464-1.529.921-1.773a.424.424,0,0,1,.337-.045l.068.024c.2.08.22.194.21.279C198.337,399.641,197.615,400.347,197,400.688Zm.023.324c.829-.251,1.98-.477,2.334-.212a.267.267,0,0,1,.1.242.541.541,0,0,1-.241.475C198.851,401.716,198.045,401.528,197.019,401.011Z" transform="translate(-196.505 -398.585)" fill="#407bff"/>
              </g>
              <path id="Trazado_1192443" data-name="Trazado 1192443" d="M191.832,382.486l6.278.462-2.252,8.2-6.207-.762Z" transform="translate(-131.783 -203.863)" opacity="0.2"/>
              <path id="Trazado_1192444" data-name="Trazado 1192444" d="M188.223,369.512l-11.07-3.254s6.609-37.3,13.312-50.237c-.5-.165-1.168-.376-1.991-.619-1.482-.447-3.45-1-5.762-1.646-16.087-4.461-48.693-12.826-48.693-12.826l14.9-13.9s59.332,9.047,60.563,24.68C210.064,319.227,188.223,369.512,188.223,369.512Z" transform="translate(-119.766 -183.243)" fill="#407bff"/>
              <path id="Trazado_1192445" data-name="Trazado 1192445" d="M187.217,386.851l13.328,3.769,2.391-5.543-14.706-3.853Z" transform="translate(-131.258 -203.591)" fill="#457bfb"/>
              <path id="Trazado_1192446" data-name="Trazado 1192446" d="M191.14,316.993c-1.482-.447-3.45-1-5.762-1.646.463-3.794.47-8.146-1.356-10.364-3.63-4.422-12.967-7.017-18.282-7.957-4.445-.784-19.38-2.344-19.38-2.344s19.38-1.858,39.191,3.92C195.342,301.462,193.437,311.034,191.14,316.993Z" transform="translate(-122.431 -184.834)" opacity="0.2"/>
              <g id="Grupo_1229610" data-name="Grupo 1229610" transform="translate(1.701 39.719)">
                <path id="Trazado_1192447" data-name="Trazado 1192447" d="M119.774,275.151c-2.333-1.791-.092-18.491-1.293-34.92-1.826-25.005,2.1-33.152,3.943-33.931a44.941,44.941,0,0,1,8.192-.906,131.173,131.173,0,0,1,15.142.327,66.569,66.569,0,0,1,10.2,2.076s8.251,26.258,2.98,64.087Z" transform="translate(-118.008 -205.309)" fill="#407bff"/>
              </g>
              <g id="Grupo_1229611" data-name="Grupo 1229611" transform="translate(1.701 39.719)" opacity="0.5">
                <path id="Trazado_1192448" data-name="Trazado 1192448" d="M119.774,275.151c-2.333-1.791-.092-18.491-1.293-34.92-1.826-25.005,2.1-33.152,3.943-33.931a44.941,44.941,0,0,1,8.192-.906,131.173,131.173,0,0,1,15.142.327,66.569,66.569,0,0,1,10.2,2.076s8.251,26.258,2.98,64.087Z" transform="translate(-118.008 -205.309)"/>
              </g>
              <path id="Trazado_1192449" data-name="Trazado 1192449" d="M135.953,183.766c.852,4.89,1.613,13.833-1.864,17.012a15.624,15.624,0,0,0,10.982,4.985c6.244.275,4.16-4.658,4.16-4.658-5.407-1.414-5.179-5.446-4.153-9.209Z" transform="translate(-119.781 -160.936)" fill="#e2877b"/>
              <path id="Trazado_1192450" data-name="Trazado 1192450" d="M141.149,187.995l5.4,4.814a15.947,15.947,0,0,0-.524,2.677c-2.069-.342-4.867-2.684-5.042-4.86A7.151,7.151,0,0,1,141.149,187.995Z" transform="translate(-121.258 -161.85)" opacity="0.2"/>
              <g id="Grupo_1229612" data-name="Grupo 1229612" transform="translate(9.644)">
                <path id="Trazado_1192451" data-name="Trazado 1192451" d="M152.183,170.967s4.962,1.046,5.646-2.052-.546-3.628.923-5.119.528-6.578-3.272-5.576-5.8-4.221-8.945-3.508-3.639,2.905-5.626,3.424-5.915-2.047-8.44-.526-.577,4.784-1.432,6.027-2.945,4.424,0,9.08c2.7,4.263-.657,6.41-2.4,6.011a.389.389,0,0,0-.49.4c.045.493.338,1.192,1.516,1.633,1.98.742,2.39-.338,2.811.227s1.446,2.426,4.662.521S142.024,167.553,152.183,170.967Z" transform="translate(-128.14 -154.645)" fill="#263238"/>
                <path id="Trazado_1192452" data-name="Trazado 1192452" d="M154.141,179.9c-.567,3.262-3.015,10.1-9.934,8.012s-7.217-7.545-7.333-9.122,1.352-13.813,5.779-14.975,9.8.274,11.488,2.8S154.141,179.9,154.141,179.9Z" transform="translate(-130.025 -156.538)" fill="#e2877b"/>
                <path id="Trazado_1192453" data-name="Trazado 1192453" d="M148.7,177.844c-.117.48.1.929.43.984s.647-.3.733-.789-.112-.931-.43-.984S148.792,177.348,148.7,177.844Z" transform="translate(-132.575 -159.485)" fill="#263238"/>
                <path id="Trazado_1192454" data-name="Trazado 1192454" d="M155.679,179.05c-.117.48.112.931.43.984s.647-.3.733-.789-.112-.931-.43-.984S155.76,178.585,155.679,179.05Z" transform="translate(-134.082 -159.746)" fill="#263238"/>
                <path id="Trazado_1192455" data-name="Trazado 1192455" d="M153.258,179.193a17.706,17.706,0,0,0,1.625,4.592,2.878,2.878,0,0,1-2.43.038Z" transform="translate(-133.392 -159.948)" fill="#dc5753"/>
                <path id="Trazado_1192456" data-name="Trazado 1192456" d="M150.638,174.146a.305.305,0,0,0-.3.014,2.353,2.353,0,0,1-2.085.31.29.29,0,1,0-.229.532h0a2.893,2.893,0,0,0,2.634-.357.291.291,0,0,0,.093-.4l0-.006A.5.5,0,0,0,150.638,174.146Z" transform="translate(-132.396 -158.85)" fill="#263238"/>
                <path id="Trazado_1192457" data-name="Trazado 1192457" d="M147.868,187.717h0a4.475,4.475,0,0,1,4.088.61.157.157,0,0,1,.021.218.149.149,0,0,1-.209.028l-.009-.007a4.29,4.29,0,0,0-3.8-.549.149.149,0,0,1-.191-.088.122.122,0,0,1,0-.016.149.149,0,0,1,.088-.191A.028.028,0,0,1,147.868,187.717Z" transform="translate(-132.378 -161.737)" fill="#263238"/>
                <path id="Trazado_1192458" data-name="Trazado 1192458" d="M156.521,174.584a.28.28,0,0,0-.171-.024.29.29,0,0,0-.168.374l0,.006a2.894,2.894,0,0,0,1.977,1.788.29.29,0,0,0,.341-.227h0a.3.3,0,0,0-.228-.342h0a2.353,2.353,0,0,1-1.544-1.441A.3.3,0,0,0,156.521,174.584Z" transform="translate(-134.194 -158.946)" fill="#263238"/>
                <path id="Trazado_1192459" data-name="Trazado 1192459" d="M157.2,165.939c1.445,1.7-3.247,4.1-5.076,2.8-1.592-1.132-3.273-2.435-5.346-1.192s-2.263.151-3.688.151.564,3.065-1.408,4.408c-1.126.767-2.747,1.169-2.237,2.537s-.255,3.286-2.216,2.936c0,0,1.841-.517.69-2.391s-2.131-.821-2.131-.821.549-10.328,5.446-12.228S154.815,163.133,157.2,165.939Z" transform="translate(-129.792 -156.132)" fill="#263238"/>
                <path id="Trazado_1192460" data-name="Trazado 1192460" d="M137.392,178s-1.236-3.422-4.4-3.436c-2.544-.012-2.911,3.171-1.752,5.37.887,1.686,3.639,3.654,5.644,1.586C138.069,180.3,137.392,178,137.392,178Z" transform="translate(-128.674 -158.949)" fill="#e2877b"/>
              </g>
              <path id="Trazado_1192461" data-name="Trazado 1192461" d="M150.225,256.292s21.7,6.84,22.946,7.131,7.333-.851,8.454-.6,2.481,5.8,2.474,7-9.491,1.188-10.29.782a16.346,16.346,0,0,1-2.419-1.975l-22.932-4.655Z" transform="translate(-122.885 -176.603)" fill="#e9b076"/>
              <path id="Trazado_1192462" data-name="Trazado 1192462" d="M121.955,206.574c-12.216,1.122-3.185,36.6,1.769,41.716s21.944,6.944,21.944,6.944l2.156-9.541s-12.78-3.412-15.052-4.886-3.851-16.189-5.206-23.345A20.274,20.274,0,0,0,121.955,206.574Z" transform="translate(-115.838 -165.863)" fill="#407bff"/>
              <path id="Trazado_1192463" data-name="Trazado 1192463" d="M121.955,206.574c-12.216,1.122-3.185,36.6,1.769,41.716s21.944,6.944,21.944,6.944l2.156-9.541s-12.78-3.412-15.052-4.886-3.851-16.189-5.206-23.345A20.274,20.274,0,0,0,121.955,206.574Z" transform="translate(-115.838 -165.863)" opacity="0.6"/>
              <path id="Trazado_1192464" data-name="Trazado 1192464" d="M166.218,394.208l13.822.909,1.184-5.919-15.186-.706Z" transform="translate(-126.682 -205.161)" fill="#fff" opacity="0.2"/>
              <path id="Trazado_1192465" data-name="Trazado 1192465" d="M187.217,386.851l13.328,3.769,2.391-5.543-14.706-3.853Z" transform="translate(-131.258 -203.591)" fill="#fff" opacity="0.2"/>
              <path id="Trazado_1192466" data-name="Trazado 1192466" d="M193.656,400.012l-6.809-1.9a.447.447,0,0,0-.564.285l0,.007-1.837,5.3a1.113,1.113,0,0,0,.76,1.368c2.386.624,3.558.8,6.56,1.616a58.517,58.517,0,0,0,8.055,1.986c2.626.3,2.85-2.3,1.766-2.662a17.339,17.339,0,0,1-6.982-5.359A1.774,1.774,0,0,0,193.656,400.012Z" transform="translate(-130.65 -207.234)" fill="#263238"/>
              <g id="Grupo_1229613" data-name="Grupo 1229613" transform="translate(48.563 195.01)">
                <path id="Trazado_1192467" data-name="Trazado 1192467" d="M177.782,406.036c0,.006.13.009.132.016.007.023.14.044.158.06s.012.034.027.044a.083.083,0,0,0,.053,0,7.751,7.751,0,0,0,1.641.325,1.679,1.679,0,0,0,1.2-.236.783.783,0,0,0,.229-.807A.561.561,0,0,0,180.9,405a2.579,2.579,0,0,0-1.745.321,2.245,2.245,0,0,0,.62-1.439.6.6,0,0,0-.535-.477.925.925,0,0,0-.7.165c-.656.567-.762,2.347-.762,2.457v.013Zm.677-.365-.129.072a3.185,3.185,0,0,1,.532-1.926.425.425,0,0,1,.321-.114l.071.009c.208.038.256.143.263.23A2.968,2.968,0,0,1,178.459,405.671Zm.09.312c.76-.419,1.838-.88,2.238-.693a.266.266,0,0,1,.152.216.541.541,0,0,1-.137.515C180.487,406.291,179.66,406.275,178.549,405.983Z" transform="translate(-177.782 -403.389)" fill="#407bff"/>
              </g>
              <path id="Trazado_1192468" data-name="Trazado 1192468" d="M175.318,405.662l-7.056-.44a.447.447,0,0,0-.492.4s0,0,0,.007l-.692,5.566a1.113,1.113,0,0,0,1.029,1.179c2.464.114,3.646.045,6.753.214a58.455,58.455,0,0,0,8.291.264c2.63-.255,2.307-2.847,1.172-2.971a17.337,17.337,0,0,1-7.946-3.787A1.77,1.77,0,0,0,175.318,405.662Z" transform="translate(-126.906 -208.774)" fill="#263238"/>
            </g>
          </g>
          <path id="Trazado_1192469" data-name="Trazado 1192469" d="M155.058,221.482l9.746-.912.5,2.531-9.645,1.35Z" transform="translate(-115.037 -168.886)" fill="#fff" opacity="0.3"/>
        </g>
      </g>
      <g id="Table" transform="translate(43.149 188.177)">
        <g id="Grupo_1229623" data-name="Grupo 1229623" transform="translate(0)">
          <g id="Grupo_1229617" data-name="Grupo 1229617">
            <g id="Grupo_1229616" data-name="Grupo 1229616">
              <path id="Trazado_1192470" data-name="Trazado 1192470" d="M184.194,263.991H84.819a1.7,1.7,0,0,1-1.695-1.7v-4.323H185.889V262.3A1.7,1.7,0,0,1,184.194,263.991Z" transform="translate(-78.452 -255.368)" fill="#263238"/>
              <path id="Trazado_1192471" data-name="Trazado 1192471" d="M184.194,263.991H84.819a1.7,1.7,0,0,1-1.695-1.7v-4.323H185.889V262.3A1.7,1.7,0,0,1,184.194,263.991Z" transform="translate(-78.452 -255.368)" fill="#fff" opacity="0.3"/>
              <rect id="Rectángulo_422933" data-name="Rectángulo 422933" width="102.765" height="3.009" transform="translate(4.672 2.605)" opacity="0.2"/>
              <path id="Trazado_1192472" data-name="Trazado 1192472" d="M187.579,258.04H78.86a1.7,1.7,0,0,1-1.695-1.695h0a1.7,1.7,0,0,1,1.695-1.695H187.579a1.7,1.7,0,0,1,1.695,1.695h0A1.7,1.7,0,0,1,187.579,258.04Z" transform="translate(-77.165 -254.65)" fill="#263238"/>
              <path id="Trazado_1192473" data-name="Trazado 1192473" d="M187.579,258.04H78.86a1.7,1.7,0,0,1-1.695-1.695h0a1.7,1.7,0,0,1,1.695-1.695H187.579a1.7,1.7,0,0,1,1.695,1.695h0A1.7,1.7,0,0,1,187.579,258.04Z" transform="translate(-77.165 -254.65)" fill="#fff" opacity="0.3"/>
            </g>
            <rect id="Rectángulo_422934" data-name="Rectángulo 422934" width="44.442" height="117.134" transform="translate(51.644 125.757) rotate(180)" fill="#263238"/>
            <rect id="Rectángulo_422935" data-name="Rectángulo 422935" width="44.442" height="117.134" transform="translate(51.644 125.757) rotate(180)" fill="#fff" opacity="0.2"/>
          </g>
          <g id="Grupo_1229621" data-name="Grupo 1229621" transform="translate(45.106)">
            <rect id="Rectángulo_422936" data-name="Rectángulo 422936" width="91.364" height="117.134" transform="translate(6.538 8.623)" fill="#263238"/>
            <rect id="Rectángulo_422937" data-name="Rectángulo 422937" width="91.364" height="117.134" transform="translate(6.538 8.623)" fill="#fff" opacity="0.39"/>
            <g id="Grupo_1229620" data-name="Grupo 1229620">
              <g id="Grupo_1229618" data-name="Grupo 1229618" transform="translate(4.673 2.605)">
                <path id="Trazado_1192474" data-name="Trazado 1192474" d="M233.889,263.991H142.354a1.7,1.7,0,0,1-1.695-1.7v-4.323h94.925V262.3A1.7,1.7,0,0,1,233.889,263.991Z" transform="translate(-140.659 -257.973)" fill="#263238"/>
                <path id="Trazado_1192475" data-name="Trazado 1192475" d="M233.889,263.991H142.354a1.7,1.7,0,0,1-1.695-1.7v-4.323h94.925V262.3A1.7,1.7,0,0,1,233.889,263.991Z" transform="translate(-140.659 -257.973)" fill="#fff" opacity="0.6"/>
              </g>
              <rect id="Rectángulo_422938" data-name="Rectángulo 422938" width="94.925" height="3.009" transform="translate(4.672 2.605)" opacity="0.2"/>
              <g id="Grupo_1229619" data-name="Grupo 1229619">
                <path id="Trazado_1192476" data-name="Trazado 1192476" d="M237.273,258.04H136.394a1.7,1.7,0,0,1-1.695-1.695h0a1.7,1.7,0,0,1,1.695-1.695h100.88a1.7,1.7,0,0,1,1.695,1.695h0A1.7,1.7,0,0,1,237.273,258.04Z" transform="translate(-134.699 -254.65)" fill="#263238"/>
                <path id="Trazado_1192477" data-name="Trazado 1192477" d="M237.273,258.04H136.394a1.7,1.7,0,0,1-1.695-1.695h0a1.7,1.7,0,0,1,1.695-1.695h100.88a1.7,1.7,0,0,1,1.695,1.695h0A1.7,1.7,0,0,1,237.273,258.04Z" transform="translate(-134.699 -254.65)" fill="#fff" opacity="0.6"/>
              </g>
            </g>
          </g>
          <g id="Grupo_1229622" data-name="Grupo 1229622" transform="translate(68.592 18.101)" opacity="0.3">
            <path id="Trazado_1192478" data-name="Trazado 1192478" d="M221.953,372.317h-57.3V277.738h57.3Zm-52.24-5.056H216.9V282.793H169.713Z" transform="translate(-164.657 -277.738)" fill="#fff"/>
            <rect id="Rectángulo_422939" data-name="Rectángulo 422939" width="29.49" height="62.938" transform="translate(13.903 15.821)" fill="#fff"/>
          </g>
        </g>
      </g>
      <g id="_Police_badges" transform="translate(137.497 153.314)">
        <g id="Grupo_1229626" data-name="Grupo 1229626" transform="translate(0 0)">
          <g id="Grupo_1229624" data-name="Grupo 1229624">
            <path id="Trazado_1192479" data-name="Trazado 1192479" d="M240.215,233.2H206.84a2.94,2.94,0,0,1-2.94-2.94v-23.4a2.94,2.94,0,0,1,2.94-2.94h33.375a2.94,2.94,0,0,1,2.94,2.94v23.4A2.94,2.94,0,0,1,240.215,233.2Z" transform="translate(-203.9 -203.917)" fill="#407bff" fill-rule="evenodd"/>
            <path id="Trazado_1192480" data-name="Trazado 1192480" d="M247.2,218.341s10.93,7.866,24.43-2.724c0,0-12.253,17.475-28.524,9.1Z" transform="translate(-213.095 -206.661)" fill="#407bff" fill-rule="evenodd"/>
          </g>
          <rect id="Rectángulo_422940" data-name="Rectángulo 422940" width="23.16" height="33.131" transform="translate(36.193 3.062) rotate(90)" fill="#fff" opacity="0.39"/>
          <g id="Grupo_1229625" data-name="Grupo 1229625" transform="translate(11.399 4.846)">
            <path id="Trazado_1192481" data-name="Trazado 1192481" d="M226.486,229.622a9.783,9.783,0,0,0-2.8-1.723,7.264,7.264,0,0,1-4.868-6.289,5.971,5.971,0,0,1,.589-3.224c.233-.475.55-.888.816-1.34a2.717,2.717,0,0,0-.007-2.774c-.09-.152-.2-.292-.291-.444a1.065,1.065,0,0,1,.011-1.111,1.371,1.371,0,0,1,.224-.264l.891-.872a1.5,1.5,0,0,1,.313-.253,1.151,1.151,0,0,1,.935-.085c.111.038.211.1.322.139a3.9,3.9,0,0,0,4.015-.966.534.534,0,0,1,.759-.015,3.867,3.867,0,0,0,4.033.981c.11-.042.21-.1.322-.139a1.151,1.151,0,0,1,.935.085,1.48,1.48,0,0,1,.314.253l.891.872a1.372,1.372,0,0,1,.224.264,1.068,1.068,0,0,1,.011,1.111c-.09.152-.2.292-.291.444a2.719,2.719,0,0,0-.007,2.774c.266.452.583.865.816,1.34a5.971,5.971,0,0,1,.589,3.224,7.266,7.266,0,0,1-4.868,6.289,9.929,9.929,0,0,0-2.782,1.7.767.767,0,0,1-1.09.022Z" transform="translate(-218.792 -210.248)" fill="#407bff" fill-rule="evenodd"/>
            <path id="Trazado_1192482" data-name="Trazado 1192482" d="M226.486,229.622a9.783,9.783,0,0,0-2.8-1.723,7.264,7.264,0,0,1-4.868-6.289,5.971,5.971,0,0,1,.589-3.224c.233-.475.55-.888.816-1.34a2.717,2.717,0,0,0-.007-2.774c-.09-.152-.2-.292-.291-.444a1.065,1.065,0,0,1,.011-1.111,1.371,1.371,0,0,1,.224-.264l.891-.872a1.5,1.5,0,0,1,.313-.253,1.151,1.151,0,0,1,.935-.085c.111.038.211.1.322.139a3.9,3.9,0,0,0,4.015-.966.534.534,0,0,1,.759-.015,3.867,3.867,0,0,0,4.033.981c.11-.042.21-.1.322-.139a1.151,1.151,0,0,1,.935.085,1.48,1.48,0,0,1,.314.253l.891.872a1.372,1.372,0,0,1,.224.264,1.068,1.068,0,0,1,.011,1.111c-.09.152-.2.292-.291.444a2.719,2.719,0,0,0-.007,2.774c.266.452.583.865.816,1.34a5.971,5.971,0,0,1,.589,3.224,7.266,7.266,0,0,1-4.868,6.289,9.929,9.929,0,0,0-2.782,1.7.767.767,0,0,1-1.09.022Z" transform="translate(-218.792 -210.248)" fill-rule="evenodd" opacity="0.3"/>
            <path id="Trazado_1192483" data-name="Trazado 1192483" d="M227.777,227.823a12.7,12.7,0,0,1,1.113-.648c.623-.324,1.282-.568,1.9-.887a5.171,5.171,0,0,0,1.877-1.577,4.655,4.655,0,0,0,.635-1.274,4.583,4.583,0,0,0,.17-2.183,4.95,4.95,0,0,0-.748-1.646,6.043,6.043,0,0,1-.939-2.295,5.07,5.07,0,0,1,.262-2.521,6.186,6.186,0,0,1-.765.087,6.56,6.56,0,0,1-3.517-.833,6.608,6.608,0,0,1-1.134.5,6.5,6.5,0,0,1-3.125.245,5.111,5.111,0,0,1,.179,2.944,6.375,6.375,0,0,1-.836,1.8,4.875,4.875,0,0,0-.812,2.048,4.724,4.724,0,0,0,1.859,4.175,7.091,7.091,0,0,0,1.363.752c.462.213.93.429,1.409.677.381.2.752.409,1.106.639Z" transform="translate(-219.549 -211.139)" fill-rule="evenodd" opacity="0.3"/>
            <path id="Trazado_1192484" data-name="Trazado 1192484" d="M229.038,227.714c-.181.094-.359.194-.534.3a1.965,1.965,0,0,1-2.008,0c-.172-.1-.347-.2-.526-.291-.434-.225-.9-.442-1.37-.656a7.966,7.966,0,0,1-1.536-.855,5.634,5.634,0,0,1-1.559-1.821q-.109-.2-.205-.429a5.625,5.625,0,0,1-.439-2.692,5.737,5.737,0,0,1,.932-2.413,5.737,5.737,0,0,0,.737-1.562,4.259,4.259,0,0,0-.073-2.224,4.053,4.053,0,0,0-.342-.8v0l-.163-.287.543-.53.263.083a5.449,5.449,0,0,0,3.311-.06,5.281,5.281,0,0,0,.636-.259,1.913,1.913,0,0,1,1.636.021,5.5,5.5,0,0,0,2.624.53,6.09,6.09,0,0,0,1.547-.313l.541.53a5.982,5.982,0,0,0-.5,1.066,4.2,4.2,0,0,0-.148,1.9,5.153,5.153,0,0,0,.823,1.975,5.607,5.607,0,0,1,.86,1.944,5.437,5.437,0,0,1-.2,2.592,5.555,5.555,0,0,1-.753,1.508,6.1,6.1,0,0,1-2.2,1.859c-.624.319-1.28.56-1.9.883Z" transform="translate(-219.272 -210.904)" fill-rule="evenodd" opacity="0.5"/>
            <path id="Trazado_1192485" data-name="Trazado 1192485" d="M228.529,219.531a3.3,3.3,0,1,1-3.3,3.3,3.3,3.3,0,0,1,3.3-3.3Z" transform="translate(-220.3 -212.425)" fill="#407bff" fill-rule="evenodd"/>
            <path id="Trazado_1192486" data-name="Trazado 1192486" d="M228.529,219.531a3.3,3.3,0,1,1-3.3,3.3,3.3,3.3,0,0,1,3.3-3.3Z" transform="translate(-220.3 -212.425)" fill-rule="evenodd" opacity="0.5"/>
          </g>
        </g>
      </g>
      <g id="Hammer_of_law" transform="translate(270.039 139.367)">
        <g id="Grupo_1229633" data-name="Grupo 1229633" transform="translate(0 0)">
          <g id="Grupo_1229627" data-name="Grupo 1229627">
            <path id="Trazado_1192487" data-name="Trazado 1192487" d="M441.7,219.1H403.628a3.354,3.354,0,0,1-3.354-3.354V189.051a3.354,3.354,0,0,1,3.354-3.354H441.7a3.354,3.354,0,0,1,3.354,3.354v26.694A3.353,3.353,0,0,1,441.7,219.1Z" transform="translate(-382.497 -185.697)" fill="#407bff" fill-rule="evenodd"/>
            <path id="Trazado_1192488" data-name="Trazado 1192488" d="M400.9,201.589s-7.508,11.179-23.85,5.952c0,0,17.571,12.116,29.907-1.4Z" transform="translate(-377.051 -189.424)" fill="#407bff" fill-rule="evenodd"/>
            <path id="Trazado_1192489" data-name="Trazado 1192489" d="M404.566,216.975a.292.292,0,0,1-.292-.292V189.989a.292.292,0,0,1,.292-.292h38.068a.292.292,0,0,1,.292.292v26.694a.292.292,0,0,1-.292.292Z" transform="translate(-383.436 -186.635)" fill="#fff" fill-rule="evenodd" opacity="0.39"/>
          </g>
          <g id="Grupo_1229632" data-name="Grupo 1229632" transform="translate(25.77 5.081)">
            <g id="Grupo_1229631" data-name="Grupo 1229631">
              <g id="Grupo_1229630" data-name="Grupo 1229630">
                <path id="Trazado_1192490" data-name="Trazado 1192490" d="M412.645,216.332h0a2.611,2.611,0,0,1-1.9-1.816l-.032-.112L422.323,202.8l1.928,1.928Z" transform="translate(-410.717 -194.789)" fill="#407bff"/>
                <path id="Trazado_1192491" data-name="Trazado 1192491" d="M412.645,216.332h0a2.611,2.611,0,0,1-1.9-1.816l-.032-.112L422.323,202.8l1.928,1.928Z" transform="translate(-410.717 -194.789)" opacity="0.5"/>
                <rect id="Rectángulo_422941" data-name="Rectángulo 422941" width="3.446" height="3.311" transform="translate(12.487 6.626) rotate(45)" fill="#407bff"/>
                <rect id="Rectángulo_422942" data-name="Rectángulo 422942" width="3.446" height="3.311" transform="translate(12.487 6.626) rotate(45)" opacity="0.7"/>
                <rect id="Rectángulo_422943" data-name="Rectángulo 422943" width="10.366" height="5.471" transform="translate(12.931 1.282) rotate(45)" fill="#407bff"/>
                <rect id="Rectángulo_422944" data-name="Rectángulo 422944" width="10.366" height="5.471" transform="translate(12.931 1.282) rotate(45)" opacity="0.3"/>
                <g id="Grupo_1229628" data-name="Grupo 1229628" transform="translate(7.771)">
                  <path id="Trazado_1192492" data-name="Trazado 1192492" d="M422.241,198.491l-1.147-1.147a.764.764,0,0,1,0-1.082l3.7-3.7a.765.765,0,0,1,1.082,0l1.147,1.147a.765.765,0,0,1,0,1.082l-3.7,3.7A.764.764,0,0,1,422.241,198.491Z" transform="translate(-420.869 -192.335)" fill="#407bff"/>
                  <path id="Trazado_1192493" data-name="Trazado 1192493" d="M431.9,208.147,430.748,207a.765.765,0,0,1,0-1.082l3.7-3.7a.765.765,0,0,1,1.082,0l1.147,1.147a.766.766,0,0,1,0,1.082l-3.7,3.7A.765.765,0,0,1,431.9,208.147Z" transform="translate(-423.133 -194.599)" fill="#407bff"/>
                </g>
                <g id="Grupo_1229629" data-name="Grupo 1229629" transform="translate(7.771)" opacity="0.5">
                  <path id="Trazado_1192494" data-name="Trazado 1192494" d="M422.241,198.491l-1.147-1.147a.764.764,0,0,1,0-1.082l3.7-3.7a.765.765,0,0,1,1.082,0l1.147,1.147a.765.765,0,0,1,0,1.082l-3.7,3.7A.764.764,0,0,1,422.241,198.491Z" transform="translate(-420.869 -192.335)"/>
                  <path id="Trazado_1192495" data-name="Trazado 1192495" d="M431.9,208.147,430.748,207a.765.765,0,0,1,0-1.082l3.7-3.7a.765.765,0,0,1,1.082,0l1.147,1.147a.766.766,0,0,1,0,1.082l-3.7,3.7A.765.765,0,0,1,431.9,208.147Z" transform="translate(-423.133 -194.599)"/>
                </g>
              </g>
              <path id="Trazado_1192496" data-name="Trazado 1192496" d="M439.688,213.124h-9.8a.951.951,0,0,0-.951.951v2.8h11.7v-2.8A.951.951,0,0,0,439.688,213.124Z" transform="translate(-414.99 -197.21)" fill="#407bff"/>
              <path id="Trazado_1192497" data-name="Trazado 1192497" d="M439.688,213.124h-9.8a.951.951,0,0,0-.951.951v2.8h11.7v-2.8A.951.951,0,0,0,439.688,213.124Z" transform="translate(-414.99 -197.21)" opacity="0.3"/>
              <path id="Trazado_1192498" data-name="Trazado 1192498" d="M440.5,217.8H428.306A1.007,1.007,0,0,0,427.3,218.8h0a1.007,1.007,0,0,0,1.007,1.007H440.5a1.007,1.007,0,0,0,1.007-1.007h0A1.007,1.007,0,0,0,440.5,217.8Z" transform="translate(-414.606 -198.306)" fill="#407bff"/>
              <path id="Trazado_1192499" data-name="Trazado 1192499" d="M440.5,217.8H428.306A1.007,1.007,0,0,0,427.3,218.8h0a1.007,1.007,0,0,0,1.007,1.007H440.5a1.007,1.007,0,0,0,1.007-1.007h0A1.007,1.007,0,0,0,440.5,217.8Z" transform="translate(-414.606 -198.306)" opacity="0.5"/>
            </g>
          </g>
        </g>
      </g>
      <g id="Legal_balance" transform="translate(106.705 65.084)">
        <g id="Grupo_1229647" data-name="Grupo 1229647" transform="translate(0 0)">
          <g id="Grupo_1229634" data-name="Grupo 1229634">
            <path id="Trazado_1192500" data-name="Trazado 1192500" d="M219.65,133.793H168.206a4.532,4.532,0,0,1-4.532-4.532V93.187a4.532,4.532,0,0,1,4.532-4.532H219.65a4.532,4.532,0,0,1,4.532,4.532v36.074A4.532,4.532,0,0,1,219.65,133.793Z" transform="translate(-163.674 -88.655)" fill="#407bff" fill-rule="evenodd"/>
            <path id="Trazado_1192501" data-name="Trazado 1192501" d="M228.468,136.426s-1.257,13.408,14.706,19.7c0,0-21.273-1.731-22.277-20Z" transform="translate(-177.095 -99.787)" fill="#407bff" fill-rule="evenodd"/>
          </g>
          <path id="Trazado_1192502" data-name="Trazado 1192502" d="M169.144,131.669a1.472,1.472,0,0,1-1.47-1.47V94.125a1.472,1.472,0,0,1,1.47-1.47h51.444a1.472,1.472,0,0,1,1.47,1.47V130.2a1.471,1.471,0,0,1-1.47,1.47Z" transform="translate(-164.612 -89.593)" fill="#fff" fill-rule="evenodd" opacity="0.39"/>
          <g id="Grupo_1229646" data-name="Grupo 1229646" transform="translate(14.439 6.077)">
            <g id="Grupo_1229645" data-name="Grupo 1229645">
              <g id="Grupo_1229639" data-name="Grupo 1229639" transform="translate(0 8.147)">
                <path id="Trazado_1192503" data-name="Trazado 1192503" d="M192.041,119.283a4.659,4.659,0,0,1-8.694,0Z" transform="translate(-182.727 -110.062)" fill="#407bff"/>
                <path id="Trazado_1192504" data-name="Trazado 1192504" d="M192.041,119.283a4.659,4.659,0,0,1-8.694,0Z" transform="translate(-182.727 -110.062)" opacity="0.5"/>
                <g id="Grupo_1229635" data-name="Grupo 1229635" transform="translate(0.463 0.007)">
                  <path id="Trazado_1192505" data-name="Trazado 1192505" d="M191.993,115.845a.155.155,0,0,1-.139-.084l-4.209-8.027-4.208,8.027a.157.157,0,1,1-.279-.145l4.347-8.292a.164.164,0,0,1,.279,0l4.347,8.292a.157.157,0,0,1-.066.212A.16.16,0,0,1,191.993,115.845Z" transform="translate(-183.142 -107.246)" fill="#407bff"/>
                </g>
                <g id="Grupo_1229636" data-name="Grupo 1229636" transform="translate(0.463 0.007)" opacity="0.7">
                  <path id="Trazado_1192506" data-name="Trazado 1192506" d="M191.993,115.845a.155.155,0,0,1-.139-.084l-4.209-8.027-4.208,8.027a.157.157,0,1,1-.279-.145l4.347-8.292a.164.164,0,0,1,.279,0l4.347,8.292a.157.157,0,0,1-.066.212A.16.16,0,0,1,191.993,115.845Z" transform="translate(-183.142 -107.246)"/>
                </g>
                <g id="Grupo_1229637" data-name="Grupo 1229637" transform="translate(4.81)">
                  <path id="Trazado_1192507" data-name="Trazado 1192507" d="M188.978,116.229a.157.157,0,0,1-.157-.157v-8.678a.157.157,0,0,1,.315,0v8.678A.158.158,0,0,1,188.978,116.229Z" transform="translate(-188.821 -107.237)" fill="#407bff"/>
                </g>
                <g id="Grupo_1229638" data-name="Grupo 1229638" transform="translate(4.81)" opacity="0.7">
                  <path id="Trazado_1192508" data-name="Trazado 1192508" d="M188.978,116.229a.157.157,0,0,1-.157-.157v-8.678a.157.157,0,0,1,.315,0v8.678A.158.158,0,0,1,188.978,116.229Z" transform="translate(-188.821 -107.237)"/>
                </g>
                <rect id="Rectángulo_422945" data-name="Rectángulo 422945" width="9.934" height="0.772" transform="translate(0 8.449)" fill="#407bff"/>
                <rect id="Rectángulo_422946" data-name="Rectángulo 422946" width="9.934" height="0.772" transform="translate(0 8.449)" opacity="0.3"/>
              </g>
              <g id="Grupo_1229644" data-name="Grupo 1229644" transform="translate(21.504 8.147)">
                <path id="Trazado_1192509" data-name="Trazado 1192509" d="M220.134,119.283a4.659,4.659,0,0,1-8.694,0Z" transform="translate(-210.82 -110.062)" fill="#407bff"/>
                <path id="Trazado_1192510" data-name="Trazado 1192510" d="M220.134,119.283a4.659,4.659,0,0,1-8.694,0Z" transform="translate(-210.82 -110.062)" opacity="0.5"/>
                <g id="Grupo_1229640" data-name="Grupo 1229640" transform="translate(0.463 0.007)">
                  <path id="Trazado_1192511" data-name="Trazado 1192511" d="M220.086,115.845a.154.154,0,0,1-.139-.084l-4.209-8.027-4.209,8.027a.157.157,0,1,1-.278-.145l4.347-8.292a.163.163,0,0,1,.278,0l4.348,8.292a.157.157,0,0,1-.067.212A.152.152,0,0,1,220.086,115.845Z" transform="translate(-211.235 -107.246)" fill="#407bff"/>
                </g>
                <g id="Grupo_1229641" data-name="Grupo 1229641" transform="translate(0.463 0.007)" opacity="0.7">
                  <path id="Trazado_1192512" data-name="Trazado 1192512" d="M220.086,115.845a.154.154,0,0,1-.139-.084l-4.209-8.027-4.209,8.027a.157.157,0,1,1-.278-.145l4.347-8.292a.163.163,0,0,1,.278,0l4.348,8.292a.157.157,0,0,1-.067.212A.152.152,0,0,1,220.086,115.845Z" transform="translate(-211.235 -107.246)"/>
                </g>
                <g id="Grupo_1229642" data-name="Grupo 1229642" transform="translate(4.81)">
                  <path id="Trazado_1192513" data-name="Trazado 1192513" d="M217.071,116.229a.157.157,0,0,1-.157-.157v-8.678a.157.157,0,1,1,.314,0v8.678A.157.157,0,0,1,217.071,116.229Z" transform="translate(-216.914 -107.237)" fill="#407bff"/>
                </g>
                <g id="Grupo_1229643" data-name="Grupo 1229643" transform="translate(4.81)" opacity="0.7">
                  <path id="Trazado_1192514" data-name="Trazado 1192514" d="M217.071,116.229a.157.157,0,0,1-.157-.157v-8.678a.157.157,0,1,1,.314,0v8.678A.157.157,0,0,1,217.071,116.229Z" transform="translate(-216.914 -107.237)"/>
                </g>
                <rect id="Rectángulo_422947" data-name="Rectángulo 422947" width="9.935" height="0.772" transform="translate(0 8.449)" fill="#407bff"/>
                <rect id="Rectángulo_422948" data-name="Rectángulo 422948" width="9.935" height="0.772" transform="translate(0 8.449)" opacity="0.3"/>
              </g>
              <path id="Trazado_1192515" data-name="Trazado 1192515" d="M199.439,103.987v1.6a11.726,11.726,0,0,0-4.924,1.727,5.785,5.785,0,0,1-3.123.7,8.644,8.644,0,0,1-3.613-1.467v-.895a6.7,6.7,0,0,0,3.546,1.238,5.7,5.7,0,0,0,3.191-1.173A10.687,10.687,0,0,1,199.439,103.987Z" transform="translate(-183.766 -98.328)" fill="#407bff"/>
              <path id="Trazado_1192516" data-name="Trazado 1192516" d="M199.439,103.987v1.6a11.726,11.726,0,0,0-4.924,1.727,5.785,5.785,0,0,1-3.123.7,8.644,8.644,0,0,1-3.613-1.467v-.895a6.7,6.7,0,0,0,3.546,1.238,5.7,5.7,0,0,0,3.191-1.173A10.687,10.687,0,0,1,199.439,103.987Z" transform="translate(-183.766 -98.328)" opacity="0.3"/>
              <path id="Trazado_1192517" data-name="Trazado 1192517" d="M188.467,106.347a.913.913,0,1,1-.913-.913A.913.913,0,0,1,188.467,106.347Z" transform="translate(-183.5 -98.667)" fill="#407bff"/>
              <path id="Trazado_1192518" data-name="Trazado 1192518" d="M188.467,106.347a.913.913,0,1,1-.913-.913A.913.913,0,0,1,188.467,106.347Z" transform="translate(-183.5 -98.667)" opacity="0.5"/>
              <path id="Trazado_1192519" data-name="Trazado 1192519" d="M203.012,103.987v1.6a11.723,11.723,0,0,1,4.924,1.727,5.79,5.79,0,0,0,3.125.7,8.642,8.642,0,0,0,3.612-1.467v-.895a6.7,6.7,0,0,1-3.546,1.238,5.7,5.7,0,0,1-3.192-1.173A10.675,10.675,0,0,0,203.012,103.987Z" transform="translate(-187.339 -98.328)" fill="#407bff"/>
              <path id="Trazado_1192520" data-name="Trazado 1192520" d="M203.012,103.987v1.6a11.723,11.723,0,0,1,4.924,1.727,5.79,5.79,0,0,0,3.125.7,8.642,8.642,0,0,0,3.612-1.467v-.895a6.7,6.7,0,0,1-3.546,1.238,5.7,5.7,0,0,1-3.192-1.173A10.675,10.675,0,0,0,203.012,103.987Z" transform="translate(-187.339 -98.328)" opacity="0.3"/>
              <path id="Trazado_1192521" data-name="Trazado 1192521" d="M217.119,106.347a.913.913,0,1,0,.913-.913A.914.914,0,0,0,217.119,106.347Z" transform="translate(-190.647 -98.667)" fill="#407bff"/>
              <path id="Trazado_1192522" data-name="Trazado 1192522" d="M217.119,106.347a.913.913,0,1,0,.913-.913A.914.914,0,0,0,217.119,106.347Z" transform="translate(-190.647 -98.667)" opacity="0.5"/>
              <rect id="Rectángulo_422949" data-name="Rectángulo 422949" width="2.317" height="23.733" transform="translate(14.515 2.881)" fill="#407bff"/>
              <rect id="Rectángulo_422950" data-name="Rectángulo 422950" width="2.317" height="23.733" transform="translate(14.515 2.881)" opacity="0.7"/>
              <path id="Trazado_1192523" data-name="Trazado 1192523" d="M204.376,104.816a1.965,1.965,0,1,1-1.966-1.965A1.965,1.965,0,0,1,204.376,104.816Z" transform="translate(-186.737 -98.061)" fill="#407bff"/>
              <path id="Trazado_1192524" data-name="Trazado 1192524" d="M204.376,104.816a1.965,1.965,0,1,1-1.966-1.965A1.965,1.965,0,0,1,204.376,104.816Z" transform="translate(-186.737 -98.061)" opacity="0.5"/>
              <path id="Trazado_1192525" data-name="Trazado 1192525" d="M204.054,98.094a1.5,1.5,0,1,1-1.5-1.5A1.5,1.5,0,0,1,204.054,98.094Z" transform="translate(-186.88 -96.594)" fill="#407bff"/>
              <path id="Trazado_1192526" data-name="Trazado 1192526" d="M204.054,98.094a1.5,1.5,0,1,1-1.5-1.5A1.5,1.5,0,0,1,204.054,98.094Z" transform="translate(-186.88 -96.594)" opacity="0.5"/>
              <path id="Trazado_1192527" data-name="Trazado 1192527" d="M207.424,134.905H194.7v-2.779a.766.766,0,0,1,.765-.765h11.191a.766.766,0,0,1,.765.765Z" transform="translate(-185.39 -104.748)" fill="#407bff"/>
              <path id="Trazado_1192528" data-name="Trazado 1192528" d="M207.424,134.905H194.7v-2.779a.766.766,0,0,1,.765-.765h11.191a.766.766,0,0,1,.765.765Z" transform="translate(-185.39 -104.748)" opacity="0.3"/>
              <path id="Trazado_1192529" data-name="Trazado 1192529" d="M209.7,138.627H189.253a1.317,1.317,0,0,1-1.317-1.317h0a1.317,1.317,0,0,1,1.317-1.317H209.7a1.317,1.317,0,0,1,1.317,1.317h0A1.317,1.317,0,0,1,209.7,138.627Z" transform="translate(-183.803 -105.834)" fill="#407bff"/>
              <path id="Trazado_1192530" data-name="Trazado 1192530" d="M209.7,138.627H189.253a1.317,1.317,0,0,1-1.317-1.317h0a1.317,1.317,0,0,1,1.317-1.317H209.7a1.317,1.317,0,0,1,1.317,1.317h0A1.317,1.317,0,0,1,209.7,138.627Z" transform="translate(-183.803 -105.834)" opacity="0.5"/>
              <rect id="Rectángulo_422951" data-name="Rectángulo 422951" width="12.722" height="0.863" transform="translate(9.312 27.522)" fill="#407bff"/>
              <rect id="Rectángulo_422952" data-name="Rectángulo 422952" width="12.722" height="0.863" transform="translate(9.312 27.522)" opacity="0.5"/>
              <path id="Trazado_1192531" data-name="Trazado 1192531" d="M204.222,100.316a.638.638,0,0,1-.638.638h-2.211a.638.638,0,0,1-.638-.638h0a.639.639,0,0,1,.638-.638h2.211a.638.638,0,0,1,.638.638Z" transform="translate(-186.805 -97.317)" fill="#407bff"/>
              <path id="Trazado_1192532" data-name="Trazado 1192532" d="M204.222,100.316a.638.638,0,0,1-.638.638h-2.211a.638.638,0,0,1-.638-.638h0a.639.639,0,0,1,.638-.638h2.211a.638.638,0,0,1,.638.638Z" transform="translate(-186.805 -97.317)" opacity="0.3"/>
            </g>
          </g>
        </g>
      </g>
      <g id="Paper" transform="translate(265.539 65.083)">
        <g id="Grupo_1229650" data-name="Grupo 1229650" transform="translate(0 0)">
          <g id="Grupo_1229648" data-name="Grupo 1229648">
            <path id="Trazado_1192533" data-name="Trazado 1192533" d="M424.987,127.547H380.661a3.905,3.905,0,0,1-3.9-3.905V92.559a3.905,3.905,0,0,1,3.9-3.905h44.326a3.906,3.906,0,0,1,3.905,3.905v31.082A3.906,3.906,0,0,1,424.987,127.547Z" transform="translate(-372.482 -88.654)" fill="#407bff" fill-rule="evenodd"/>
            <path id="Trazado_1192534" data-name="Trazado 1192534" d="M385.878,131.889s1.257,13.408-14.706,19.7c0,0,21.273-1.731,22.277-20Z" transform="translate(-371.172 -98.722)" fill="#407bff" fill-rule="evenodd"/>
          </g>
          <path id="Trazado_1192535" data-name="Trazado 1192535" d="M381.6,125.423a.844.844,0,0,1-.843-.844V93.5a.845.845,0,0,1,.843-.844h44.326a.845.845,0,0,1,.844.844V124.58a.845.845,0,0,1-.844.844Z" transform="translate(-373.419 -89.592)" fill="#fff" fill-rule="evenodd" opacity="0.39"/>
          <g id="Grupo_1229649" data-name="Grupo 1229649" transform="translate(19.861 6.397)">
            <path id="Trazado_1192536" data-name="Trazado 1192536" d="M421.383,97.011h0a1.913,1.913,0,0,1,1.913,1.913v.918h-5.22Z" transform="translate(-402.033 -97.011)" fill="#407bff"/>
            <path id="Trazado_1192537" data-name="Trazado 1192537" d="M421.383,97.011h0a1.913,1.913,0,0,1,1.913,1.913v.918h-5.22Z" transform="translate(-402.033 -97.011)" opacity="0.7"/>
            <path id="Trazado_1192538" data-name="Trazado 1192538" d="M417.433,122.243c3.758-7.457-3.767-18.424-.837-25.232H400.621a2.924,2.924,0,0,0-2.9,2.678c-.624,6.942,5.065,16.494,1.208,23.058h17.659A.947.947,0,0,0,417.433,122.243Z" transform="translate(-397.247 -97.011)" fill="#407bff"/>
            <path id="Trazado_1192539" data-name="Trazado 1192539" d="M417.433,122.243c3.758-7.457-3.767-18.424-.837-25.232H400.621a2.924,2.924,0,0,0-2.9,2.678c-.624,6.942,5.065,16.494,1.208,23.058h17.659A.947.947,0,0,0,417.433,122.243Z" transform="translate(-397.247 -97.011)" opacity="0.3"/>
            <path id="Trazado_1192540" data-name="Trazado 1192540" d="M398.8,129.927h0a1.678,1.678,0,0,1-1.678-1.678v-.625H414.87v.625a1.678,1.678,0,0,0,1.678,1.678H398.8Z" transform="translate(-397.118 -104.191)" fill="#407bff"/>
            <path id="Trazado_1192541" data-name="Trazado 1192541" d="M398.8,129.927h0a1.678,1.678,0,0,1-1.678-1.678v-.625H414.87v.625a1.678,1.678,0,0,0,1.678,1.678H398.8Z" transform="translate(-397.118 -104.191)" opacity="0.5"/>
            <rect id="Rectángulo_422953" data-name="Rectángulo 422953" width="12.575" height="1.046" transform="translate(2.929 3.552)" opacity="0.3"/>
            <rect id="Rectángulo_422954" data-name="Rectángulo 422954" width="12.575" height="1.046" transform="translate(3.514 7.253)" opacity="0.3"/>
            <rect id="Rectángulo_422955" data-name="Rectángulo 422955" width="12.575" height="1.046" transform="translate(4.193 10.058)" opacity="0.3"/>
            <rect id="Rectángulo_422956" data-name="Rectángulo 422956" width="12.575" height="1.046" transform="translate(4.87 12.863)" opacity="0.3"/>
            <ellipse id="Elipse_14823" data-name="Elipse 14823" cx="1.94" cy="1.94" rx="1.94" ry="1.94" transform="translate(14.102 17.353)" opacity="0.3"/>
          </g>
        </g>
      </g>
    </g>
  </g>
</svg>
