<svg id="Grupo_1230193" data-name="Grupo 1230193" xmlns="http://www.w3.org/2000/svg" xmlns:xlink="http://www.w3.org/1999/xlink" width="400" height="365" viewBox="0 0 400 365">
  <defs>
    <clipPath id="clip-path">
      <rect id="Rectángulo_423083" data-name="Rectángulo 423083" width="400" height="365" fill="#fff" stroke="#707070" stroke-width="1"/>
    </clipPath>
    <clipPath id="clip-path-2">
      <rect id="Rectángulo_423086" data-name="Rectángulo 423086" width="428" height="428" fill="none"/>
    </clipPath>
    <clipPath id="clip-path-3">
      <rect id="Rectángulo_423085" data-name="Rectángulo 423085" width="334.836" height="344.075" fill="none"/>
    </clipPath>
  </defs>
  <path id="Trazado_1193271" data-name="Trazado 1193271" d="M12,0H242a12,12,0,0,1,12,12V353a12,12,0,0,1-12,12H12A12,12,0,0,1,0,353V12A12,12,0,0,1,12,0Z" transform="translate(146)" fill="#eca675"/>
  <g id="Enmascarar_grupo_1225077" data-name="Enmascarar grupo 1225077" clip-path="url(#clip-path)">
    <g id="Grupo_1230192" data-name="Grupo 1230192" transform="translate(-28 -72)">
      <g id="Grupo_1230191" data-name="Grupo 1230191" transform="translate(0 8)">
        <g id="Grupo_1230190" data-name="Grupo 1230190" transform="translate(0 0)" clip-path="url(#clip-path-2)">
          <path id="Trazado_1193232" data-name="Trazado 1193232" d="M213.055,402.964c-.275-1.952-.813-8.642-.349-9.82a6.5,6.5,0,0,1,3.327-3.547,21.089,21.089,0,0,1,11.24-1.485c6.058.973,11.161,10.695,15.3,16.478s11.026,14.9,11.549,23.543-8.443,11.769-15.087,12.861c-12.344,2.032-16.134-5.854-18.314-10.926s-2.462-13.762-3.128-16.034a23.7,23.7,0,0,0-1.611-4.72c-.992-1.765-2,.238-2.926-6.351" transform="translate(-8.109 -55.879)" fill="#342f68"/>
          <path id="Trazado_1193233" data-name="Trazado 1193233" d="M225.167,372.992c-.523-2.085-1.9-5.922-3.688-10.609l23.048-4.03a89.907,89.907,0,0,0,.182,11.586c.867,6.232,3.74,15.086,5.708,20.355,1.973,5.249,4.144,7.2,7.478,14.271,3.082,6.533,1.966,8.62-.356,11.826s-8.719,4.51-12.5,4.124-9.638-3.481-10.828-7.256-3.731-11.527-5.7-16.784-1.535-16.279-3.348-23.484" transform="translate(-21.415 -51.633)" fill="#f8aa9f"/>
          <path id="Trazado_1193234" data-name="Trazado 1193234" d="M263.9,413.451c-.017-1.972.328-8.674.942-9.781a6.5,6.5,0,0,1,3.763-3.081,21.092,21.092,0,0,1,11.338,0c5.879,1.759,9.662,12.068,13.007,18.342s8.977,16.222,8.362,24.856-9.913,10.559-16.644,10.771c-12.5.4-15.227-7.919-16.723-13.233s-.637-13.967-1-16.306a23.752,23.752,0,0,0-.98-4.892c-.752-1.879-2.018-.027-2.067-6.679" transform="translate(-99.311 -57.594)" fill="#342f68"/>
          <path id="Trazado_1193235" data-name="Trazado 1193235" d="M273.022,383.76c-.245-2.135-1.108-6.119-2.265-11l23.378-.973A89.783,89.783,0,0,0,292.8,383.3c.042,6.292,1.73,15.448,2.989,20.928,1.267,5.464,3.164,7.685,5.542,15.129,2.2,6.882.819,8.8-1.9,11.677s-9.234,3.328-12.929,2.45-9.1-4.715-9.782-8.612-2.188-11.916-3.452-17.387.615-16.337-.238-23.721" transform="translate(-106.244 -53.565)" fill="#f8aa9f"/>
          <path id="Trazado_1193236" data-name="Trazado 1193236" d="M263.568,153.163c6.295-3.152,10.2-3.152,10.2-3.152s-2.821-9.229.217-16.657,8.249-10.129,8.249-10.129-1.085-6.753,2.822-11.254a11.343,11.343,0,0,1,9.334-3.827s6.295-9.453,18.016-10.354,20.4,8.329,20.4,8.329a18.262,18.262,0,0,1,18.234,5.177c8.248,8.553,6.077,20.483,6.077,20.483a28.793,28.793,0,0,1,7.814,14.181c1.564,6.651-1.085,13.731-1.085,13.731s11.721,12.379,4.124,28.136-33.644,15.307-42.327,10.13-14.543-13.731-14.543-13.731-12.373,11.479-23.227,5.627-9.984-15.982-9.984-15.982-9.768,7.654-16.5,2.027-4.124-19.583,2.171-22.734" transform="translate(-162.961 -14.16)" fill="#333145"/>
          <path id="Trazado_1193237" data-name="Trazado 1193237" d="M254.052,254.824s-11.722-7.814-14.326-16.931-.569-21.232.217-29.737c.717-7.774,4.951-15.325,9.188-20.033,13.771-15.3,46.688-12.5,61.829-12.5s49.018,4.535,61.608,16.257c9.4,8.755,14.616,23.733,13.458,32.994-.842,6.732-15.138,5.393-18.667,14.109-4.388,10.835-.6,23.023-.738,26.323-.511,12.141-.326,52.16-6.546,55.571s-32.135,8.034-47.439,9.565c-12.926,1.292-52.941-5.326-60.064-14.92s1.479-60.694,1.479-60.694" transform="translate(-162.344 -25.33)" fill="#757fc0"/>
          <path id="Trazado_1193238" data-name="Trazado 1193238" d="M246.818,263.28c-3.473-1.736-6.565-4.783-11.1-3.579-1.118-3.232-3.776-10.751-5.265-13.548-1.918-3.6-4.741-15.546-4.741-15.546s4.343-11.2,11.753-13.3,13.483-1.044,15.368.039c3.395,1.947,7.238,15.694,10.785,24.078,4.9,11.592,7.977,21.831,4.471,29.665s-17.693-6.024-21.273-7.814" transform="translate(-34.857 -31.181)" fill="#f8aa9f"/>
          <path id="Trazado_1193239" data-name="Trazado 1193239" d="M319.127,175.05c16.179,3.049,24.489,5.509,28.987,12.393s-18.437,24.286-32.939,21.58c-17.182-3.207-28.1-19.472-27.4-26.157S302.947,172,319.127,175.05" transform="translate(-167.057 -25.131)" fill="#f8aa9f"/>
          <path id="Trazado_1193240" data-name="Trazado 1193240" d="M300.751,158.787l13.212,2.7,13.507.041s15.48,16.178,15.119,20.862S336.8,196,328.408,198.6s-14.11,4.124-26.482-1.519-10.853-21.923-10.853-21.923Z" transform="translate(-163.766 -22.939)" fill="#dc8575"/>
          <path id="Trazado_1193241" data-name="Trazado 1193241" d="M276.536,139.926c2.535-1.548,6.172,2.051,6.764,2.715a66.153,66.153,0,0,1,3.647-11.5c4.462-9.137,15.015-14.379,24.144-14.981,13.446-.883,23.2,4.934,28.316,17.634a44.536,44.536,0,0,1,2.926,20.756,5.769,5.769,0,0,1,4.157-.094c2.209.945,4.487,8.044.969,12.662-3.5,4.609-10.734,5.071-11.5,5.053-4.337,7.719-11.092,15.5-20.594,17.971-9.42,2.458-18.88-1.22-25.3-8.081-6.319-6.749-10.36-18.737-9.95-22.3-2.921-1.8-6.2-6.076-6.985-9.083-1.028-3.934-.308-8.479,3.4-10.757" transform="translate(-154.777 -16.798)" fill="#f8aa9f"/>
          <path id="Trazado_1193242" data-name="Trazado 1193242" d="M339.027,171.873c-1.881-1.014-3.183-5.5-5.5-4.631s-3.762,2.171-3.329,5.5,3.908,4.921,5.934,5.643a7.785,7.785,0,0,0,7.668-2.46c1.736-2.315-2.894-3.039-4.775-4.052" transform="translate(-198.842 -24.139)" fill="#bf7595"/>
          <path id="Trazado_1193243" data-name="Trazado 1193243" d="M278.767,138.354c1.086-3.256,3.473-19.536,16.714-23.877a38.718,38.718,0,0,1,24.745.434s11.288-.434,16.5,6.729,7.381,21.055,6.946,25.831-1.737,11.07-2.822,13.675-3.473,4.993-5.209,5.643-3-2.242-3.039-3.69.277-5.057.277-5.057a36.158,36.158,0,0,1-6.789-2.54c-6.294-3.473-8.031-12.155-8.031-12.155s-4.124,4.993-9.116,5.427a11,11,0,0,1-8.031-2.389s-2.171,3.908-8.466,4.993c-2.127.366-7.163-.434-7.163-.434s-2.171,4.341-3.689,4.775-3.69-2.6-3.907-4.993,0-9.116,1.085-12.372" transform="translate(-153.413 -16.306)" fill="#333145"/>
          <path id="Trazado_1193244" data-name="Trazado 1193244" d="M330.088,190.811s-1.158-2.6-6.078-3.763-7.234,2.027-7.234,2.027" transform="translate(-173.317 -26.966)" fill="none" stroke="#cb6163" stroke-miterlimit="10" stroke-width="2"/>
          <path id="Trazado_1193245" data-name="Trazado 1193245" d="M320.488,167.552a4.651,4.651,0,0,0-.7.605,9.161,9.161,0,0,0-1.43,1.825,9.665,9.665,0,0,0-.7,1.358,10.572,10.572,0,0,0-.551,1.639c-.068.307-.116.623-.164.944l-.037.241-.009.061,0,.015-.007.1v.027l0,.108a3.8,3.8,0,0,0,.033.5,3.885,3.885,0,0,0,.078.389,6.833,6.833,0,0,0,.979,2.016,9.14,9.14,0,0,1,.681,1.17,1.006,1.006,0,0,1,.122.65c0,.047-.058.164-.039.17l-.1.18a.482.482,0,0,0-.02.064,1.633,1.633,0,0,1-.268.381,3.015,3.015,0,0,1-.885.639,8.723,8.723,0,0,1-1.926.647c-.515.121-.832.171-.832.171a4.445,4.445,0,0,0,.773.414,5.8,5.8,0,0,0,2.343.481,4.368,4.368,0,0,0,1.769-.395,4.014,4.014,0,0,0,.93-.615l.244-.241.141-.149a4.375,4.375,0,0,0,.374-.542,3.724,3.724,0,0,0,.378-2.679,8.1,8.1,0,0,0-.816-2.016,6.444,6.444,0,0,1-.537-1.158.17.17,0,0,1,0-.039c0-.025.008.093,0,.073l0-.108v-.034c0-.021-.01.166,0,.084v-.011l.005-.046.021-.184c.028-.245.057-.486.064-.729.082-.5.1-.99.155-1.478s.064-.954.09-1.4a17.093,17.093,0,0,0-.044-2.231,7.236,7.236,0,0,0-.112-.91" transform="translate(-163.221 -24.199)" fill="#dc8575"/>
          <path id="Trazado_1193246" data-name="Trazado 1193246" d="M337.919,169.271s-.126.227-.372.584a7.886,7.886,0,0,1-1.114,1.307,4.274,4.274,0,0,1-1.886,1.031,5.266,5.266,0,0,1-2.427-.1c-.259-.058-.444-.12-.64-.181s-.408-.144-.6-.231a5.964,5.964,0,0,1-1.091-.6,6.868,6.868,0,0,1-.9-.765,8.277,8.277,0,0,1-.7-.849,9.439,9.439,0,0,1-.854-1.509c-.181-.395-.262-.64-.262-.64a3.608,3.608,0,0,0-.067.707,5.571,5.571,0,0,0,.315,1.876,5.667,5.667,0,0,0,1.522,2.337,6.35,6.35,0,0,0,1.319.933,7.585,7.585,0,0,0,.756.338c.272.1.558.187.782.241a6.389,6.389,0,0,0,1.668.2,4.8,4.8,0,0,0,1.648-.317,4.354,4.354,0,0,0,2.2-1.855,4.971,4.971,0,0,0,.66-1.8,3.478,3.478,0,0,0,.051-.71" transform="translate(-189.902 -24.165)" fill="#593143"/>
          <path id="Trazado_1193247" data-name="Trazado 1193247" d="M308,174.594s-.126.227-.372.584a7.923,7.923,0,0,1-1.114,1.307,4.291,4.291,0,0,1-1.886,1.031,5.294,5.294,0,0,1-2.428-.1c-.259-.059-.444-.12-.64-.182s-.408-.144-.6-.23a5.963,5.963,0,0,1-1.091-.6,6.88,6.88,0,0,1-.9-.765,8.173,8.173,0,0,1-.7-.849,9.436,9.436,0,0,1-.854-1.509c-.181-.395-.262-.64-.262-.64a3.524,3.524,0,0,0-.067.707,5.573,5.573,0,0,0,.315,1.876,5.663,5.663,0,0,0,1.522,2.337,6.334,6.334,0,0,0,1.319.934,7.946,7.946,0,0,0,.754.338c.273.1.559.186.783.241a6.463,6.463,0,0,0,1.668.2,4.794,4.794,0,0,0,1.647-.317,4.349,4.349,0,0,0,2.2-1.855,4.971,4.971,0,0,0,.66-1.8,3.482,3.482,0,0,0,.051-.71" transform="translate(-134.373 -24.931)" fill="#593143"/>
          <path id="Trazado_1193248" data-name="Trazado 1193248" d="M294.819,163.328l.058.014-.872.23.034-.037a1.2,1.2,0,0,1,1.435-.185c.274.16.561.3.841.451.35.188.68.425,1.014.64.52.337,1.009.7,1.5,1.074l-.289-.223a6.782,6.782,0,0,0,1.5.9l-.35-.148a7.219,7.219,0,0,0,1.81.472l-.4-.054a4.767,4.767,0,0,0,1.259.026l-.412.056a5.778,5.778,0,0,0,1.408-.408l-.375.158a6.865,6.865,0,0,0,1.442-.822l-.319.246.331-.254a1.166,1.166,0,0,1,.586-.187,1.19,1.19,0,0,1,.628.028,1.609,1.609,0,0,1,.941.724,1.588,1.588,0,0,1,.159,1.213l-.159.377a1.582,1.582,0,0,1-.565.565,6.28,6.28,0,0,1-1.163.687,7.3,7.3,0,0,1-1.523.568,5.282,5.282,0,0,1-1.726.135,9.252,9.252,0,0,1-3.164-.9,8.113,8.113,0,0,1-1.713-1.219c-.576-.517-1.188-.986-1.8-1.46.088.069.177.138.266.206-.263-.2-.507-.412-.753-.634-.133-.119-.262-.244-.4-.358l-.185-.24a.876.876,0,0,1-.14-.44,1.243,1.243,0,0,1,.14-.754l.01-.021v.905l-.031-.048a.872.872,0,0,1,.068-.97.886.886,0,0,1,.918-.313" transform="translate(-130.27 -23.573)" fill="#333145"/>
          <path id="Trazado_1193249" data-name="Trazado 1193249" d="M337.373,162.075l-.044.034.262-.634c0,.027.006.054.009.08-.015.105-.028.21-.043.315a.9.9,0,0,1-.211.4,1.279,1.279,0,0,1-.616.425l-.023.009.283-.12c-.6.252-1.184.509-1.8.718-.478.164-.962.317-1.427.514l.335-.142a12.188,12.188,0,0,1-1.709.642,7.53,7.53,0,0,1-2.343.223,10.12,10.12,0,0,1-1.659-.233,5.388,5.388,0,0,1-1.284-.508,6.741,6.741,0,0,1-1.111-.785,6.959,6.959,0,0,1-.643-.608,8.371,8.371,0,0,1-.874-1.093A1.575,1.575,0,0,1,326.256,159a1.727,1.727,0,0,1,.942.724c.066.1.138.2.211.291l-.246-.318a7.107,7.107,0,0,0,1.247,1.262l-.318-.245a5.1,5.1,0,0,0,1.1.664l-.368-.155a6.01,6.01,0,0,0,1.474.355l-.4-.054a6.546,6.546,0,0,0,1.717.014l-.388.052a9.394,9.394,0,0,0,1.649-.434c.661-.217,1.343-.368,2.018-.533.4-.1.807-.128,1.207-.209a1.251,1.251,0,0,1,.771.059,1.1,1.1,0,0,1,.567.485l.03.065-.774-.444.061.007a1.056,1.056,0,0,1,.441.119.871.871,0,0,1,.357.417.838.838,0,0,1,.059.453.788.788,0,0,1-.24.5" transform="translate(-187.263 -22.961)" fill="#333145"/>
          <path id="Trazado_1193250" data-name="Trazado 1193250" d="M302.9,181.514s5.861,11.938.652,13.024-4.993-2.6-4.342-4.993,3.69-8.031,3.69-8.031" transform="translate(-133.613 -26.207)" fill="#fff"/>
          <path id="Trazado_1193251" data-name="Trazado 1193251" d="M330.389,187.771a.076.076,0,0,0,0,.152.076.076,0,0,0,0-.152" transform="translate(-185.283 -27.106)" fill="#dc8c7a"/>
          <path id="Trazado_1193252" data-name="Trazado 1193252" d="M321.8,383.69c-3.814.65-11.2.65-13.8-1.086-1.391-.927-5.924-8.539-9.117-14.76-2.784-5.426-8.248-15.194-8.248-15.194s-22.512,20.489-42.406,5.952-17.165-45.62-15.767-50.233,9.332-19.36,19.97-32.124c13.024-15.629,25.993-21.878,32.125-22.575,16.833-1.913,25.18,14.76,25.18,14.76s3.259-19.25,21.273-19.536c24.1-.382,33.521,55.766,36.582,72.6s7.651,48.2,6.12,49.734c-.715.717-3.631,4.432-11.011,5.735s-13.6.819-14.621,0c-1.912-1.532-9.691-13.246-9.691-13.246s-.652,13.458-3.039,15.846-9.735,3.476-13.55,4.125" transform="translate(-144.232 -35.894)" fill="#342f68"/>
          <path id="Trazado_1193253" data-name="Trazado 1193253" d="M301.4,366.06s-.044-.381-.126-1.1-.194-1.765-.382-3.092c-.356-2.659-.9-6.452-1.689-10.978-.388-2.265-.818-4.716-1.327-7.3s-1.025-5.31-1.647-8.113-1.22-5.711-1.942-8.638-1.44-5.907-2.2-8.876c-.791-2.962-1.618-5.915-2.451-8.816-.814-2.908-1.749-5.733-2.624-8.475-.453-1.367-.891-2.714-1.355-4.02s-.94-2.578-1.393-3.82c-.479-1.234-.922-2.439-1.391-3.593l-1.406-3.318c-.482-1.053-.91-2.072-1.377-3.02s-.906-1.844-1.352-2.674-.859-1.606-1.28-2.3l-1.191-1.9a23.7,23.7,0,0,0-1.909-2.491l-.739-.819.581.937a30.744,30.744,0,0,1,1.474,2.71c.271.606.571,1.278.9,2.01q.452,1.112.974,2.4c.662,1.729,1.352,3.7,2.085,5.856.714,2.164,1.438,4.526,2.211,7.022.726,2.512,1.492,5.16,2.285,7.9l2.325,8.49c.791,2.891,1.569,5.839,2.324,8.792.8,2.943,1.565,5.893,2.308,8.8s1.5,5.767,2.222,8.536,1.426,5.446,2.09,7.985l1.9,7.153c1.178,4.431,2.208,8.116,2.938,10.695.745,2.577,1.171,4.05,1.171,4.05" transform="translate(-107.669 -39.321)" fill="#18204d"/>
          <path id="Trazado_1193254" data-name="Trazado 1193254" d="M227.524,297.057c.859-1.615,8.853-13.335,12.021-16.726,2.708-2.9,10.853-11.288,16.063-13.458a24.856,24.856,0,0,1,14.574-.969c7.043,1.486,13.374,4.91,17.437,10.71-2.681,5.81-10.477,13.07-17.961,18.564-7.683,5.64-26.562,13.66-32.562,15.5-6.828,2.107-11.455-10.093-9.572-13.626" transform="translate(-54.066 -38.247)" fill="#f8aa9f"/>
          <path id="Trazado_1193255" data-name="Trazado 1193255" d="M287.109,306.111c2.593-.5,3.059,2.566,3.059,2.566l2.252.188s-2.784-2.547-1.209-5.025c2.87-4.517,8.417-6.062,12.371-6.4s13.256,1.97,13.256,1.97,11.382,10.331,10.929,13.318-5.373,8.394-11.04,12.628-8.651,4.53-12.542,5.279a26.359,26.359,0,0,1-9.137.357,5.747,5.747,0,0,1-4.29-2.87,8.418,8.418,0,0,1-3.612-2.3,4,4,0,0,1-1.233-4.19s-2.911-.619-3.1-4.788c-.145-3.134,2.039-2.177,2.039-2.177s-2.09-2.529-1.87-4.484c.123-1.068,2.486-3.759,4.125-4.076" transform="translate(-141.925 -42.871)" fill="#f8aa9f"/>
          <path id="Trazado_1193256" data-name="Trazado 1193256" d="M323.545,328.2l-2.626,1.044-1.255.467c-.441.169-.924.289-1.4.472s-.995.261-1.5.422c-.508.134-1.03.205-1.545.322-.487.1-1.1.146-1.629.237-.549.075-1.085.184-1.606.27-1.029.147-1.986.3-2.813.479-1.662.29-2.782.6-2.782.6s.282.066.779.152,1.206.168,2.061.227c.429.022.895.044,1.387.044s1.017.022,1.55-.009,1.074-.059,1.624-.117c.566-.056,1.081-.091,1.7-.2.58-.136,1.176-.23,1.727-.417s1.087-.386,1.585-.614a15.926,15.926,0,0,0,2.577-1.481,11.65,11.65,0,0,0,2.161-1.905" transform="translate(-157.882 -47.298)" fill="#dc8575"/>
          <path id="Trazado_1193257" data-name="Trazado 1193257" d="M327.658,321.965a25.539,25.539,0,0,0-2.875.575c-.85.206-1.827.48-2.861.811-.515.17-1.053.33-1.588.523l-.4.142-.1.036-.025.009-.014,0,.088-.028-.007,0-.052.011-.21.05-.843.2c-.547.115-1.043.129-1.559.222l-1.617.148c-.53.027-1.045.069-1.536.112s-.956.062-1.388.1c-1.724.128-2.9.3-2.9.3s.28.1.777.236a19.631,19.631,0,0,0,2.082.446,24.142,24.142,0,0,0,3,.309c.556,0,1.128.027,1.719,0,.611-.058,1.275-.1,1.857-.221l.839-.213.209-.053.051-.015.119-.039.025-.01.1-.041.4-.163c.528-.212,1.035-.453,1.532-.668.991-.444,1.9-.889,2.671-1.3a25.656,25.656,0,0,0,2.522-1.486" transform="translate(-164.882 -46.401)" fill="#dc8575"/>
          <path id="Trazado_1193258" data-name="Trazado 1193258" d="M329.553,314.679l-.682.211c-.432.128-1.044.3-1.766.5-.357.108-.763.172-1.168.29s-.855.164-1.3.278-.917.155-1.387.234l-.711.117-.72.059-.72.071c-.11.011-.263.024-.334.038l-.377.019c-.5.017-.992.071-1.468.1-.952.077-1.841.185-2.6.309a20.2,20.2,0,0,0-2.538.539,20.137,20.137,0,0,0,2.542.445c.762.1,1.652.173,2.6.215.477.015.969.051,1.469.051l.376,0,.42-.027.8-.063.794-.082.773-.167a13.972,13.972,0,0,0,2.8-.94,11.222,11.222,0,0,0,1.129-.592,10.64,10.64,0,0,0,1.547-1.105,6.313,6.313,0,0,0,.517-.505" transform="translate(-170.22 -45.354)" fill="#dc8575"/>
          <path id="Trazado_1193259" data-name="Trazado 1193259" d="M313.481,310.051a8.081,8.081,0,0,0,1.626.145,10.157,10.157,0,0,0,1.631-.106,12.031,12.031,0,0,0,1.84-.408c.306-.113.611-.224.907-.35a6.232,6.232,0,0,0,.844-.428,7.019,7.019,0,0,0,1.36-.99,5.836,5.836,0,0,0,.8-.894c.173-.234.259-.378.259-.378s-.173.028-.453.1-.652.2-1.1.324c-.456.112-.94.3-1.483.452-.269.079-.531.186-.816.263s-.562.178-.843.274c-.576.17-1.137.379-1.682.569s-1.048.406-1.476.619a8.687,8.687,0,0,0-1.414.811" transform="translate(-163.154 -44.198)" fill="#dc8575"/>
          <path id="Trazado_1193260" data-name="Trazado 1193260" d="M368.719,207.861s-1.314,7.28,1,18.876,9.3,19.834,16.031,22.676,17.9,1.455,23.324-4.308,9.234-15.227,10.971-22.608-1.343-18.483-4.341-22.14-18.667-5.209-18.667-5.209Z" transform="translate(-307.929 -28.167)" fill="#dc8575"/>
          <path id="Trazado_1193261" data-name="Trazado 1193261" d="M377.246,212.4s.068.332.2.874.328,1.3.572,2.182.546,1.878.879,2.926.7,2.152,1.033,3.259c.2.545.346,1.1.536,1.643s.353,1.081.522,1.6c.191.518.326,1.028.5,1.51s.327.944.472,1.373c.16.433.307.831.438,1.182s.249.67.351.932c.209.522.368.83.368.83a7.929,7.929,0,0,0,.313-.849c.084-.272.193-.606.289-.992s.149-.824.216-1.3a10.77,10.77,0,0,0,.1-1.557,13.748,13.748,0,0,0-.075-1.737,14.756,14.756,0,0,0-.284-1.834,16.938,16.938,0,0,0-.491-1.85,16.149,16.149,0,0,0-.688-1.784,16.41,16.41,0,0,0-2.759-4.314,11.507,11.507,0,0,0-1.732-1.592,5.61,5.61,0,0,0-.765-.5" transform="translate(-279.044 -30.648)" fill="#d0675f"/>
          <path id="Trazado_1193262" data-name="Trazado 1193262" d="M446.556,150.7c-2.5-4.834-10.091-3.911-14.6-.218s-9.751,14.2-11.409,12.265c-2.228-2.589,10.2-34.881,9.756-48.2-.225-6.746-8.318-10.56-11.466-1.816-2.688,7.449-11.222,39.752-12.891,39.482s-.289-40.678-1.34-47.616c-1.135-7.492-9.684-6.738-11.267-1.309s-1.807,48.7-4.247,48.514-6.291-36.908-9.4-42.774-9.74-5.423-10.564,2.186,9.155,42.946,7.083,43.494-10.888-21.393-16.237-28.275c-2.162-2.785-9.392-1.087-7.8,5.358.91,3.683,8.835,20.807,13.473,34.537,3.742,11.085,5.493,17.367,8.419,24.224s11.554,15.67,22.485,14.314,23.612-2.367,28.265-9.69a74.291,74.291,0,0,0,8.025-18.356c2.581-8.544,16.206-21.29,13.712-26.124" transform="translate(-320.203 -14.356)" fill="#f8aa9f"/>
          <path id="Trazado_1193263" data-name="Trazado 1193263" d="M396.7,178.748a8.174,8.174,0,0,0-1.173.676,15.287,15.287,0,0,0-1.257.914c-.453.388-.991.813-1.505,1.344a18.942,18.942,0,0,0-1.6,1.787,21.764,21.764,0,0,0-1.551,2.2c-.261.39-.461.827-.691,1.253a11.338,11.338,0,0,0-.641,1.325,19.432,19.432,0,0,0-.986,2.852l-.361,1.478c-.076.5-.128,1.006-.188,1.5a14.879,14.879,0,0,0-.079,2.933,13.971,13.971,0,0,0,.36,2.707c.1.422.146.838.275,1.224l.4,1.105a14.026,14.026,0,0,0,.794,1.867c.293.53.579.974.807,1.338.46.726.754,1.111.754,1.111s-.021-.507-.114-1.343c-.049-.418-.1-.922-.19-1.48a5.234,5.234,0,0,1-.061-.905q-.022-.474-.047-.994t-.074-1.059c-.021-.364.017-.746.023-1.131a19.384,19.384,0,0,1,.113-2.4c.052-.412.086-.829.123-1.25a12.391,12.391,0,0,1,.21-1.266c.076-.426.162-.85.224-1.282l.342-1.271c.17-.862.514-1.681.764-2.515.289-.821.622-1.619.933-2.4.362-.758.657-1.528,1.027-2.217.333-.712.684-1.368,1.012-1.982s.644-1.172.915-1.682c.3-.481.533-.943.757-1.294l.685-1.146" transform="translate(-299.736 -25.809)" fill="#dc8575"/>
          <path id="Trazado_1193264" data-name="Trazado 1193264" d="M387.645,174.858s.694-.024,1.89-.106,2.9-.206,4.921-.4c4.055-.349,9.4-.987,14.713-1.486,1.328-.14,2.657-.239,3.963-.354l1.94-.146,1.892-.116c2.486-.136,4.8-.178,6.791-.133.993.037,1.9.1,2.715.159.8.1,1.516.164,2.093.279.587.086,1.039.2,1.354.266l.488.1-.408-.282a9.713,9.713,0,0,0-1.212-.73,15.92,15.92,0,0,0-2.016-.91,22.694,22.694,0,0,0-2.744-.832,36.08,36.08,0,0,0-7.072-.956,59.109,59.109,0,0,0-8.109.243,74.148,74.148,0,0,0-14.771,2.974c-1.968.6-3.576,1.208-4.691,1.664s-1.736.766-1.736.766" transform="translate(-334.313 -24.431)" fill="#dc8575"/>
          <path id="Trazado_1193265" data-name="Trazado 1193265" d="M350.119,363.189,345.285,352.8c-.714-1.555-1.488-3.238-2.307-5.019l-2.523-5.612c-.885-1.94-1.712-3.981-2.617-6.023-.877-2.055-1.75-4.148-2.567-6.262-.854-2.1-1.683-4.207-2.428-6.3s-1.506-4.153-2.152-6.171-1.255-3.972-1.784-5.84c-.5-1.874-.974-3.649-1.351-5.3-.215-.825-.327-1.627-.5-2.384s-.3-1.48-.407-2.163c-.247-1.363-.392-2.56-.525-3.552s-.174-1.776-.233-2.313-.085-.825-.085-.825-.039.286-.112.82c-.051.535-.208,1.324-.252,2.333s-.151,2.243-.1,3.654a46.776,46.776,0,0,0,.271,4.744c.1.863.184,1.771.319,2.7s.3,1.887.481,2.867c.374,1.958.807,4.019,1.383,6.115s1.164,4.265,1.924,6.412c.727,2.159,1.53,4.328,2.371,6.48.87,2.141,1.8,4.255,2.724,6.328s1.948,4.062,2.926,5.987,2,3.749,2.969,5.472,1.938,3.325,2.852,4.79c1.818,2.935,3.458,5.3,4.641,6.933s1.915,2.522,1.915,2.522" transform="translate(-200.672 -42.529)" fill="#18204d"/>
          <path id="Trazado_1193266" data-name="Trazado 1193266" d="M361.607,313.563s-.709-.68-1.78-1.591c-.527-.47-1.153-.989-1.807-1.555-.336-.272-.659-.58-1-.873s-.676-.6-1.015-.906-.654-.626-.992-.921l-.926-.919c-.27-.321-.572-.6-.828-.9-.236-.3-.487-.579-.712-.841-.193-.277-.389-.528-.565-.753s-.29-.442-.413-.612c-.229-.348-.38-.551-.38-.551s.01.24.059.668a4.163,4.163,0,0,0,.137.768c.084.288.181.616.307.969a11.145,11.145,0,0,0,1.235,2.213c.283.363.569.747.893,1.109.333.347.67.706,1.033,1.033a16.252,16.252,0,0,0,2.274,1.723,12.2,12.2,0,0,0,1.128.66c.36.2.722.363,1.051.514a10.982,10.982,0,0,0,2.3.763" transform="translate(-234.301 -43.695)" fill="#18204d"/>
          <path id="Trazado_1193267" data-name="Trazado 1193267" d="M260.158,284.549c2.879-2.064,6.872-1.542,10.114-.928,3.777.715,7.333,1.1,9.823,4.692.906,1.306-.24,3.5-1.7,2.465-5.279-3.743-12.267-2.236-18.046-4.59a.95.95,0,0,1-.191-1.639" transform="translate(-74.837 -40.81)" fill="#bf7595"/>
          <path id="Trazado_1193268" data-name="Trazado 1193268" d="M266.346,292.386c3.528-3.488,9.669-.1,13.628.487,1.7.253,1.828,3.108,0,3.075a52.391,52.391,0,0,1-6.946-.922c-2.231-.346-4.9-.014-6.682-1.779a.659.659,0,0,1,0-.861" transform="translate(-81.209 -41.925)" fill="#bf7595"/>
          <path id="Trazado_1193269" data-name="Trazado 1193269" d="M236.275,242.825a14.826,14.826,0,0,1,3.165-.784c-.844-.194-1.737-.377-2.77-.7-4.767-1.469-3.355-7.577,1.1-8.147,7.464-.954,16.766,1.441,21.581,7.456,1.068,1.334.607,4.155-1.611,3.891-.247-.029-.494-.07-.74-.109a20.353,20.353,0,0,1,1.846,1.933c2.977,3.622-.652,8.185-4.872,6.314-5.827-2.584-11.69-1.985-17.7-3.379-3.5-.813-2.884-5.389,0-6.479" transform="translate(-32.034 -33.609)" fill="#bf7595"/>
          <g id="Grupo_1230189" data-name="Grupo 1230189" transform="translate(88.483 83.925)" style="mix-blend-mode: multiply;isolation: isolate">
            <g id="Grupo_1230188" data-name="Grupo 1230188">
              <g id="Grupo_1230187" data-name="Grupo 1230187" clip-path="url(#clip-path-3)">
                <path id="Trazado_1193270" data-name="Trazado 1193270" d="M15.507,172.7c-6.244-5.738-8.136-17.267-6.654-34.217,2.311-26.4,11.368-24.054,11.368-24.054s1.577-5.79,6.214-8.266a5.743,5.743,0,0,1,7.494,1.472s1.463-4.982,6.328-6.285,7.644,1.387,7.644,1.387,3.859-4.965,8.023-4.569,9.6,6.42,16.667,12.981c5.017,4.657,4.76,8.516,3.622,10.965,4.477,2.283,8.32,6.458,5.266,14.872-4.022,11.094-21.3,34.5-21.3,34.5s1.859,26.6,1.859,37.083-2.176,23.523-1.484,32.884a3.221,3.221,0,0,1,2.722.316c6.007,4.35,21.321,26.857,27.92,35.558s23.138,8.769,30.405,7.306,17.177-2.222,31.21-3.892a134.771,134.771,0,0,1,20.143-.95l2.546-12.73s-7.905-3.677-14.545-13.639a22.045,22.045,0,0,1-2.2-4.418c10.082-6.07,20.113,1.44,24-2.181s.109-17.463-4.834-19.725c-2.511-1.149-7.055,4.1-11.408,5.368s-10.865-1.374-10.865-1.374l-.008-9.544a7.563,7.563,0,0,1-7.969-3.321c-3.32-4.648,8.632-13.281,9.3-23.9-4.122-4.757-9.413-16.606-5.7-24.548-2.676-4.562-4.681-11.419-1.458-15.959a17.535,17.535,0,0,1,1.931-2.256c3.261-4.063,8.488-5.761,14.165-6.161.338-.069.667-.142,1.007-.215,4.93-1.046,9.7-2.341,14.549-3.34,12.345-4.951,33.97-10.18,49.22-7.285,12.667,2.405,17.266,10.625,17.266,10.625s8.632,1.328,13.944,5.976,9.068,11.495,9.514,16.706-2.209,17.159-2.209,17.159,8.871,15.33,5.675,23.041c-2.028,4.892-3.855,7-5.815,8.632-.081,8.933-6.973,17.792-15.606,20.853-2.207,4.51-4.839,9.9-9.488,13.879a68.306,68.306,0,0,0-9.3,10.623l1.45,20.867c12.438-.228,43.968-4.473,58.864,3.907,17.556,9.873,26.849,35.771,33.047,51.246s16.1,47.642,10.736,67.772-27.512,26.84-27.512,26.84a93.855,93.855,0,0,0-2.244,9.537H85.735c-1.066-22.925-10.287-48.881-11.138-52.007-1.265-4.648-7.174-10-13.28-13.947S35.7,357.237,27.451,347.714s-7.906-23.621-5.333-33.913c.008-.029.018-.06.023-.09-7.315-15.776-15.576-43.853-16.6-60.292-1.035-16.556,9.831-79.93,9.969-80.721" transform="translate(-5.469 -98.145)" fill="#adadad"/>
              </g>
            </g>
          </g>
        </g>
      </g>
      <rect id="Rectángulo_423087" data-name="Rectángulo 423087" width="428" height="428" fill="none"/>
    </g>
  </g>
</svg>
