<svg xmlns="http://www.w3.org/2000/svg" xmlns:xlink="http://www.w3.org/1999/xlink" width="103" height="103" viewBox="0 0 103 103">
  <defs>
    <filter id="Trazado_978624" x="0" y="0" width="103" height="103" filterUnits="userSpaceOnUse">
      <feOffset dy="3" input="SourceAlpha"/>
      <feGaussianBlur stdDeviation="3" result="blur"/>
      <feFlood flood-opacity="0.161"/>
      <feComposite operator="in" in2="blur"/>
      <feComposite in="SourceGraphic"/>
    </filter>
  </defs>
  <g id="Grupo_1230197" data-name="Grupo 1230197" transform="translate(-171 -4960.017)">
    <g id="Grupo_1229453" data-name="Grupo 1229453" transform="translate(0 -902.613)">
      <g id="Grupo_1226966" data-name="Grupo 1226966" transform="translate(180 5868.629)">
        <g id="Grupo_1222970" data-name="Grupo 1222970">
          <g id="Grupo_1222589" data-name="Grupo 1222589">
            <g id="Grupo_1203109" data-name="Grupo 1203109">
              <g id="Grupo_1176881" data-name="Grupo 1176881">
                <g id="Grupo_1175148" data-name="Grupo 1175148">
                  <g id="Grupo_1173798" data-name="Grupo 1173798">
                    <g id="Grupo_1171925" data-name="Grupo 1171925">
                      <g id="Grupo_1164524" data-name="Grupo 1164524">
                        <g id="Grupo_1144123" data-name="Grupo 1144123">
                          <g transform="matrix(1, 0, 0, 1, -9, -6)" filter="url(#Trazado_978624)">
                            <g id="Trazado_978624-2" data-name="Trazado 978624" transform="translate(9 6)" fill="#e7f2f8">
                              <path d="M 42.5 83.5 C 36.96437835693359 83.5 31.59512901306152 82.41617584228516 26.54141235351562 80.27863311767578 C 21.65934181213379 78.21369171142578 17.27447128295898 75.25723266601562 13.50862312316895 71.49137878417969 C 9.742764472961426 67.72553253173828 6.786305904388428 63.34066009521484 4.721364498138428 58.45858764648438 C 2.583823442459106 53.40486907958984 1.5 48.03562164306641 1.5 42.5 C 1.5 36.96437835693359 2.583823442459106 31.59512901306152 4.721364498138428 26.54141235351562 C 6.786305904388428 21.65934181213379 9.742764472961426 17.27447128295898 13.50862312316895 13.50862312316895 C 17.27447128295898 9.742764472961426 21.65934181213379 6.786305904388428 26.54141235351562 4.721364498138428 C 31.59512901306152 2.583823442459106 36.96437835693359 1.5 42.5 1.5 C 48.03562164306641 1.5 53.40486907958984 2.583823442459106 58.45858764648438 4.721364498138428 C 63.34066009521484 6.786305904388428 67.72553253173828 9.742764472961426 71.49137878417969 13.50862312316895 C 75.25723266601562 17.27447128295898 78.21369171142578 21.65934181213379 80.27863311767578 26.54141235351562 C 82.41617584228516 31.59512901306152 83.5 36.96437835693359 83.5 42.5 C 83.5 48.03562164306641 82.41617584228516 53.40486907958984 80.27863311767578 58.45858764648438 C 78.21369171142578 63.34066009521484 75.25723266601562 67.72553253173828 71.49137878417969 71.49137878417969 C 67.72553253173828 75.25723266601562 63.34066009521484 78.21369171142578 58.45858764648438 80.27863311767578 C 53.40486907958984 82.41617584228516 48.03562164306641 83.5 42.5 83.5 Z" stroke="none"/>
                              <path d="M 42.5 3 C 37.16621398925781 3 31.99356079101562 4.043960571289062 27.125732421875 6.102882385253906 C 22.42246627807617 8.092185974121094 18.19785308837891 10.94070434570312 14.56928253173828 14.56928253173828 C 10.94070434570312 18.19785308837891 8.092185974121094 22.42246627807617 6.102882385253906 27.125732421875 C 4.043960571289062 31.99356079101562 3 37.16621398925781 3 42.5 C 3 47.83378601074219 4.043960571289062 53.00643920898438 6.102882385253906 57.87425231933594 C 8.092185974121094 62.57753372192383 10.94070434570312 66.80213165283203 14.56928253173828 70.43071746826172 C 18.19786834716797 74.05929565429688 22.42246627807617 76.90781402587891 27.125732421875 78.89711761474609 C 31.99356079101562 80.95603942871094 37.16621398925781 82 42.5 82 C 47.83378601074219 82 53.00642395019531 80.95603942871094 57.87425231933594 78.89711761474609 C 62.57753372192383 76.90781402587891 66.80213165283203 74.05929565429688 70.43071746826172 70.43071746826172 C 74.05929565429688 66.80213165283203 76.90781402587891 62.57753372192383 78.89711761474609 57.87425231933594 C 80.95603942871094 53.00642395019531 82 47.83378601074219 82 42.5 C 82 37.16621398925781 80.95603942871094 31.99356079101562 78.89711761474609 27.125732421875 C 76.90781402587891 22.42246627807617 74.05929565429688 18.19786834716797 70.43071746826172 14.56928253173828 C 66.80213165283203 10.94070434570312 62.57753372192383 8.092185974121094 57.87425231933594 6.102882385253906 C 53.00643920898438 4.043960571289062 47.83378601074219 3 42.5 3 M 42.5 0 C 65.97209167480469 0 85 19.02789306640625 85 42.5 C 85 65.97209167480469 65.97209167480469 85 42.5 85 C 19.02789306640625 85 0 65.97209167480469 0 42.5 C 0 19.02789306640625 19.02789306640625 0 42.5 0 Z" stroke="none" fill="#248abf"/>
                            </g>
                          </g>
                        </g>
                      </g>
                    </g>
                  </g>
                </g>
              </g>
            </g>
          </g>
        </g>
      </g>
    </g>
    <g id="igualdad-social_1_" data-name="igualdad-social (1)" transform="translate(192.544 4978.062)">
      <g id="Grupo_1230194" data-name="Grupo 1230194" transform="translate(0.731 0.878)">
        <path id="Trazado_1193272" data-name="Trazado 1193272" d="M243.479,46.221h-.73a1.408,1.408,0,0,1-1.4-1.4V9.49a1.409,1.409,0,0,1,.888-1.3c.16-.064.374.034.556.034l.467.264c.772,0,1.413.212,1.413.984l.089,35.416A1.25,1.25,0,0,1,243.479,46.221Z" transform="translate(-213.835 -8.086)" fill="#ffd15b"/>
        <path id="Trazado_1193273" data-name="Trazado 1193273" d="M251.584,8.9V44.231a1.408,1.408,0,0,1-1.4,1.4h-.73a1.383,1.383,0,0,1-.516-.1,1.407,1.407,0,0,0,.889-1.3V8.9a1.408,1.408,0,0,0-.889-1.3,1.383,1.383,0,0,1,.516-.1h.73a1.408,1.408,0,0,1,1.4,1.4Z" transform="translate(-220.536 -7.5)" fill="#ffc143"/>
        <path id="Trazado_1193274" data-name="Trazado 1193274" d="M216.468,284.53l-3.394-.112h-5.145a1.408,1.408,0,0,0-1.4,1.4v1.64a1.407,1.407,0,0,0,1.4,1.4l4.682.94,3.87-1.108a1.272,1.272,0,0,0,1.4-1.233v-1.64A1.328,1.328,0,0,0,216.468,284.53Z" transform="translate(-183.089 -252.016)" fill="#ffe177"/>
        <path id="Trazado_1193275" data-name="Trazado 1193275" d="M265.037,285.821v1.64a1.405,1.405,0,0,1-1.4,1.4l-2,.566-2.084-.566a1.406,1.406,0,0,0,1.4-1.4v-1.64a1.408,1.408,0,0,0-1.4-1.4h4.078A1.408,1.408,0,0,1,265.037,285.821Z" transform="translate(-229.914 -252.015)" fill="#ffd15b"/>
        <path id="Trazado_1193276" data-name="Trazado 1193276" d="M166.123,328.046v-4.02a1.608,1.608,0,0,1,1.608-1.608h8.876l8.747.155a1.466,1.466,0,0,1,1.587,1.453l-.09,5.145c0,.888-.307,1.608-1.2,1.608H171.262Z" transform="translate(-147.415 -285.569)" fill="#ffd15b"/>
        <path id="Trazado_1193277" data-name="Trazado 1193277" d="M263.883,324.028v5.145a1.608,1.608,0,0,1-1.608,1.609H252.9a1.608,1.608,0,0,0,1.608-1.609v-5.145a1.607,1.607,0,0,0-1.608-1.608h9.381A1.607,1.607,0,0,1,263.883,324.028Z" transform="translate(-224.033 -285.571)" fill="#ffc143"/>
        <path id="Trazado_1193278" data-name="Trazado 1193278" d="M395.966,356.544l4.78-1.211a2.343,2.343,0,0,1,3.059,2.189,2.464,2.464,0,0,1-1.664,2.331l-4.451,1.872Z" transform="translate(-350.364 -314.559)" fill="#c46255"/>
        <path id="Trazado_1193279" data-name="Trazado 1193279" d="M54.257,358.407l2.116.985c.668.007,3.575-1.859,4.222-2.024l5.752-1.469a2.737,2.737,0,0,1,1.723,5.18l-10.922,4.516a9.146,9.146,0,0,1-3.494.694H42.976a6.1,6.1,0,0,0-5.483,3.434l-.99,1.9a.817.817,0,0,1-.726.44L23,372.06a.335.335,0,0,1-.275-.527l5.59-8.014a6.067,6.067,0,0,0,1.091-3.394,5.667,5.667,0,0,1,2.286-4.476h0a5.732,5.732,0,0,1,3.43-1.132Z" transform="translate(-20.744 -313.913)" fill="#ce7165"/>
        <path id="Trazado_1193280" data-name="Trazado 1193280" d="M187.271,384.418l-12.534.46a1.281,1.281,0,0,1-1.382-1.169c0-.036,0-.071,0-.108a1.281,1.281,0,0,1,1.174-1.274l10.329-1.114,2.025-1.3h1.652a7.7,7.7,0,0,0,1.982-.238l3.134-.8C193.754,381.314,191.617,384.418,187.271,384.418Z" transform="translate(-153.796 -335.422)" fill="#c46255"/>
        <path id="Trazado_1193281" data-name="Trazado 1193281" d="M129.131,354.518h17.95a2.557,2.557,0,0,1,.194,5.106l-11.877.9Z" transform="translate(-114.751 -313.913)" fill="#ce7165"/>
        <path id="Trazado_1193282" data-name="Trazado 1193282" d="M79.153,63.384h41.495v3.7H79.153Z" transform="translate(-70.621 -56.845)" fill="#ffc143"/>
        <path id="Trazado_1193283" data-name="Trazado 1193283" d="M9.127,177.487a10.1,10.1,0,0,1-1.412-1.455c-.033-.051-.135-.129-.167-.181a8.948,8.948,0,0,1,12.3-12.3c.072.044.154.193.225.239a9.417,9.417,0,0,1,1.292,1.359,8.12,8.12,0,0,1-.1,11.942c-3.489,3.489-8.651,3.89-12.142.4Z" transform="translate(-6.236 -144.13)" fill="#f2fbff"/>
        <path id="Trazado_1193284" data-name="Trazado 1193284" d="M31.415,187.415a8.954,8.954,0,0,1-1.359,1.116,32.868,32.868,0,0,1-4.9.734,29.231,29.231,0,0,1-5.043-.742,8.992,8.992,0,0,1-2.66-2.77,8.947,8.947,0,0,0,12.3-12.3,8.959,8.959,0,0,1,1.661,13.966Z" transform="translate(-16.138 -154.031)" fill="#dff6fd"/>
        <path id="Trazado_1193285" data-name="Trazado 1193285" d="M39.3,250.021v-.568a2.27,2.27,0,0,1,1.666-2.188L42.21,247c.033-.009.1-.183.13-.2a.628.628,0,0,0,.368-.571v-2.515h3.337v2.515a.629.629,0,0,0,.37.573.721.721,0,0,0,.09.052l1.291.41a2.271,2.271,0,0,1,1.666,2.188v.568H39.3Z" transform="translate(-35.431 -216.075)" fill="#c46255"/>
        <path id="Trazado_1193286" data-name="Trazado 1193286" d="M57.853,198.914l.388.22a2.023,2.023,0,0,0,2,0l.388-.22a3.4,3.4,0,0,0,1.721-2.955V195.1a3.107,3.107,0,0,0-6.215,0v.863a3.4,3.4,0,0,0,1.721,2.955Z" transform="translate(-50.294 -170.407)" fill="#ce7165"/>
        <path id="Trazado_1193287" data-name="Trazado 1193287" d="M357.5,178.388c-.439-.439-1.124-.741-1.45-1.241-.048-.073-.227-.22-.273-.294a8.818,8.818,0,0,1,12.125-12.126c.07.043.138.138.206.183a7.45,7.45,0,0,1,1.173,1.18,8.187,8.187,0,0,1-.049,11.93C365.8,181.457,360.944,181.828,357.5,178.388Z" transform="translate(-313.739 -145.188)" fill="#f2fbff"/>
        <path id="Trazado_1193288" data-name="Trazado 1193288" d="M379.3,188.248a8.82,8.82,0,0,1-1.323,1.088l-4.922-.152-4.89.159a8.865,8.865,0,0,1-2.627-2.733,8.818,8.818,0,0,0,12.125-12.126,8.829,8.829,0,0,1,1.637,13.764Z" transform="translate(-323.499 -154.945)" fill="#dff6fd"/>
        <path id="Trazado_1193289" data-name="Trazado 1193289" d="M386.536,250.021v-.568a2.27,2.27,0,0,1,1.666-2.188l1.293-.384c.036-.01.048-.064.081-.081a.659.659,0,0,0,.368-.571v-2.515h3.337v2.515a.629.629,0,0,0,.371.573c.029.013.054.092.086.1l1.294.362a2.271,2.271,0,0,1,1.666,2.188v.568H386.536Z" transform="translate(-342.037 -216.075)" fill="#ffcebe"/>
        <path id="Trazado_1193290" data-name="Trazado 1193290" d="M405.089,198.914l.388.22a2.023,2.023,0,0,0,2,0l.388-.22a3.4,3.4,0,0,0,1.721-2.955V195.1a3.108,3.108,0,0,0-6.215,0v.863a3.4,3.4,0,0,0,1.721,2.955Z" transform="translate(-356.9 -170.407)" fill="#ffdfcf"/>
        <path id="Trazado_1193291" data-name="Trazado 1193291" d="M392.779,270.423a8.213,8.213,0,0,1-5.262,4.513h0a7.636,7.636,0,0,1-3.021-1.592l-.271-.731a2.112,2.112,0,0,1,.67-1.486,2.272,2.272,0,0,1,.992-.575l1.555-.429a.534.534,0,0,0,.094-.035l.083.188a2.212,2.212,0,0,0,3.907,0l.085-.186a.612.612,0,0,0,.091.033Z" transform="translate(-339.994 -239.364)" fill="#b3dafe"/>
        <path id="Trazado_1193292" data-name="Trazado 1193292" d="M408.468,54.275a2.887,2.887,0,0,1-2.924,3.1,3.175,3.175,0,0,1-3.05-1.877c0-.009-.026-.026-.029-.035a3.208,3.208,0,0,1,2.993-4.36,3,3,0,0,1,1.153.215A3.046,3.046,0,0,1,408.468,54.275Z" transform="translate(-355.912 -46)" fill="#ffe177"/>
        <path id="Trazado_1193293" data-name="Trazado 1193293" d="M409.338,58.2a3.206,3.206,0,0,1-4.534,0,3.17,3.17,0,0,1-.726-1.113,3.206,3.206,0,0,0,4.145-4.145,3.169,3.169,0,0,1,1.115.724A3.206,3.206,0,0,1,409.338,58.2Z" transform="translate(-357.527 -47.622)" fill="#ffd15b"/>
        <path id="Trazado_1193294" data-name="Trazado 1193294" d="M211.219,55.263l-3.275.241H202.9a2.415,2.415,0,0,1-2.415-2.415V50.683a2.415,2.415,0,0,1,2.415-2.415h5l3.287.126a2.178,2.178,0,0,1,2.254,2.29v2.361A2.092,2.092,0,0,1,211.219,55.263Z" transform="translate(-177.756 -43.498)" fill="#ffe177"/>
        <path id="Trazado_1193295" data-name="Trazado 1193295" d="M267.5,50.684v2.407a2.415,2.415,0,0,1-2.415,2.415h-3.541a2.415,2.415,0,0,0,2.414-2.415V50.684a2.414,2.414,0,0,0-2.414-2.414h3.541A2.415,2.415,0,0,1,267.5,50.684Z" transform="translate(-231.671 -43.5)" fill="#ffd15b"/>
        <path id="Trazado_1193296" data-name="Trazado 1193296" d="M45.543,270.425a8.22,8.22,0,0,1-5.267,4.512h0a7.959,7.959,0,0,1-3.117-1.558l-.175-.771a2.108,2.108,0,0,1,.671-1.48,2.272,2.272,0,0,1,.992-.575l1.555-.429a.534.534,0,0,0,.094-.035l.083.188a2.212,2.212,0,0,0,3.907,0l.085-.186a.61.61,0,0,0,.091.033Z" transform="translate(-33.383 -239.364)" fill="#b3dafe"/>
        <path id="Trazado_1193297" data-name="Trazado 1193297" d="M47.652,275.268v1.688a9.658,9.658,0,0,1-10.7-.009v-1.679q0-.067,0-.133a9.627,9.627,0,0,0,8.563-2.185l.47.13a2.272,2.272,0,0,1,1.666,2.188Z" transform="translate(-33.355 -241.89)" fill="#8ac9fe"/>
        <path id="Trazado_1193298" data-name="Trazado 1193298" d="M394.894,275.259v1.677a9.645,9.645,0,0,1-10.7.008v-1.685c0-.043,0-.084,0-.128a9.615,9.615,0,0,0,8.557-2.192l.476.131a2.271,2.271,0,0,1,1.666,2.188Z" transform="translate(-339.967 -241.881)" fill="#8ac9fe"/>
        <path id="Trazado_1193299" data-name="Trazado 1193299" d="M62.09,54.275a2.887,2.887,0,0,1-2.925,3.1,3.175,3.175,0,0,1-3.05-1.877c0-.009-.026-.026-.029-.035a3.208,3.208,0,0,1,2.993-4.36,3,3,0,0,1,1.153.215A3.046,3.046,0,0,1,62.09,54.275Z" transform="translate(-50.064 -46)" fill="#ffe177"/>
        <path id="Trazado_1193300" data-name="Trazado 1193300" d="M62.961,58.2a3.206,3.206,0,0,1-4.534,0,3.17,3.17,0,0,1-.726-1.113,3.206,3.206,0,0,0,4.145-4.145,3.168,3.168,0,0,1,1.115.724A3.206,3.206,0,0,1,62.961,58.2Z" transform="translate(-51.679 -47.622)" fill="#ffd15b"/>
      </g>
      <g id="Grupo_1230195" data-name="Grupo 1230195" transform="translate(0.731 0.878)">
        <path id="Trazado_1193301" data-name="Trazado 1193301" d="M243.479,46.221h-.73a1.408,1.408,0,0,1-1.4-1.4V9.49a1.409,1.409,0,0,1,.888-1.3c.16-.064.374.034.556.034l.467.264c.772,0,1.413.212,1.413.984l.089,35.416A1.25,1.25,0,0,1,243.479,46.221Z" transform="translate(-213.835 -8.086)" fill="#ffd15b"/>
        <path id="Trazado_1193302" data-name="Trazado 1193302" d="M251.584,8.9V44.231a1.408,1.408,0,0,1-1.4,1.4h-.73a1.383,1.383,0,0,1-.516-.1,1.407,1.407,0,0,0,.889-1.3V8.9a1.408,1.408,0,0,0-.889-1.3,1.383,1.383,0,0,1,.516-.1h.73a1.408,1.408,0,0,1,1.4,1.4Z" transform="translate(-220.536 -7.5)" fill="#ffc143"/>
        <path id="Trazado_1193303" data-name="Trazado 1193303" d="M216.468,284.53l-3.394-.112h-5.145a1.408,1.408,0,0,0-1.4,1.4v1.64a1.407,1.407,0,0,0,1.4,1.4l4.682.94,3.87-1.108a1.272,1.272,0,0,0,1.4-1.233v-1.64A1.328,1.328,0,0,0,216.468,284.53Z" transform="translate(-183.089 -252.016)" fill="#ffe177"/>
        <path id="Trazado_1193304" data-name="Trazado 1193304" d="M265.037,285.821v1.64a1.405,1.405,0,0,1-1.4,1.4l-2,.566-2.084-.566a1.406,1.406,0,0,0,1.4-1.4v-1.64a1.408,1.408,0,0,0-1.4-1.4h4.078A1.408,1.408,0,0,1,265.037,285.821Z" transform="translate(-229.914 -252.015)" fill="#ffd15b"/>
        <path id="Trazado_1193305" data-name="Trazado 1193305" d="M166.123,328.046v-4.02a1.608,1.608,0,0,1,1.608-1.608h8.876l8.747.155a1.466,1.466,0,0,1,1.587,1.453l-.09,5.145c0,.888-.307,1.608-1.2,1.608H171.262Z" transform="translate(-147.415 -285.569)" fill="#ffd15b"/>
        <path id="Trazado_1193306" data-name="Trazado 1193306" d="M263.883,324.028v5.145a1.608,1.608,0,0,1-1.608,1.609H252.9a1.608,1.608,0,0,0,1.608-1.609v-5.145a1.607,1.607,0,0,0-1.608-1.608h9.381A1.607,1.607,0,0,1,263.883,324.028Z" transform="translate(-224.033 -285.571)" fill="#ffc143"/>
        <path id="Trazado_1193307" data-name="Trazado 1193307" d="M395.966,356.544l4.78-1.211a2.343,2.343,0,0,1,3.059,2.189,2.464,2.464,0,0,1-1.664,2.331l-4.451,1.872Z" transform="translate(-350.364 -314.559)" fill="#c46255"/>
        <path id="Trazado_1193308" data-name="Trazado 1193308" d="M54.257,358.407l2.116.985c.668.007,3.575-1.859,4.222-2.024l5.752-1.469a2.737,2.737,0,0,1,1.723,5.18l-10.922,4.516a9.146,9.146,0,0,1-3.494.694H42.976a6.1,6.1,0,0,0-5.483,3.434l-.99,1.9a.817.817,0,0,1-.726.44L23,372.06a.335.335,0,0,1-.275-.527l5.59-8.014a6.067,6.067,0,0,0,1.091-3.394,5.667,5.667,0,0,1,2.286-4.476h0a5.732,5.732,0,0,1,3.43-1.132Z" transform="translate(-20.744 -313.913)" fill="#ce7165"/>
        <path id="Trazado_1193309" data-name="Trazado 1193309" d="M187.271,384.418l-12.534.46a1.281,1.281,0,0,1-1.382-1.169c0-.036,0-.071,0-.108a1.281,1.281,0,0,1,1.174-1.274l10.329-1.114,2.025-1.3h1.652a7.7,7.7,0,0,0,1.982-.238l3.134-.8C193.754,381.314,191.617,384.418,187.271,384.418Z" transform="translate(-153.796 -335.422)" fill="#c46255"/>
        <path id="Trazado_1193310" data-name="Trazado 1193310" d="M129.131,354.518h17.95a2.557,2.557,0,0,1,.194,5.106l-11.877.9Z" transform="translate(-114.751 -313.913)" fill="#ce7165"/>
        <path id="Trazado_1193311" data-name="Trazado 1193311" d="M79.153,63.384h41.495v3.7H79.153Z" transform="translate(-70.621 -56.845)" fill="#ffc143"/>
        <path id="Trazado_1193312" data-name="Trazado 1193312" d="M9.127,177.487a10.1,10.1,0,0,1-1.412-1.455c-.033-.051-.135-.129-.167-.181a8.948,8.948,0,0,1,12.3-12.3c.072.044.154.193.225.239a9.417,9.417,0,0,1,1.292,1.359,8.12,8.12,0,0,1-.1,11.942c-3.489,3.489-8.651,3.89-12.142.4Z" transform="translate(-6.236 -144.13)" fill="#f2fbff"/>
        <path id="Trazado_1193313" data-name="Trazado 1193313" d="M31.415,187.415a8.954,8.954,0,0,1-1.359,1.116,32.868,32.868,0,0,1-4.9.734,29.231,29.231,0,0,1-5.043-.742,8.992,8.992,0,0,1-2.66-2.77,8.947,8.947,0,0,0,12.3-12.3,8.959,8.959,0,0,1,1.661,13.966Z" transform="translate(-16.138 -154.031)" fill="#dff6fd"/>
        <path id="Trazado_1193314" data-name="Trazado 1193314" d="M39.3,250.021v-.568a2.27,2.27,0,0,1,1.666-2.188L42.21,247c.033-.009.1-.183.13-.2a.628.628,0,0,0,.368-.571v-2.515h3.337v2.515a.629.629,0,0,0,.37.573.721.721,0,0,0,.09.052l1.291.41a2.271,2.271,0,0,1,1.666,2.188v.568H39.3Z" transform="translate(-35.431 -216.075)" fill="#c46255"/>
        <path id="Trazado_1193315" data-name="Trazado 1193315" d="M57.853,198.914l.388.22a2.023,2.023,0,0,0,2,0l.388-.22a3.4,3.4,0,0,0,1.721-2.955V195.1a3.107,3.107,0,0,0-6.215,0v.863a3.4,3.4,0,0,0,1.721,2.955Z" transform="translate(-50.294 -170.407)" fill="#ce7165"/>
        <path id="Trazado_1193316" data-name="Trazado 1193316" d="M357.5,178.388c-.439-.439-1.124-.741-1.45-1.241-.048-.073-.227-.22-.273-.294a8.818,8.818,0,0,1,12.125-12.126c.07.043.138.138.206.183a7.45,7.45,0,0,1,1.173,1.18,8.187,8.187,0,0,1-.049,11.93C365.8,181.457,360.944,181.828,357.5,178.388Z" transform="translate(-313.739 -145.188)" fill="#f2fbff"/>
        <path id="Trazado_1193317" data-name="Trazado 1193317" d="M379.3,188.248a8.82,8.82,0,0,1-1.323,1.088l-4.922-.152-4.89.159a8.865,8.865,0,0,1-2.627-2.733,8.818,8.818,0,0,0,12.125-12.126,8.829,8.829,0,0,1,1.637,13.764Z" transform="translate(-323.499 -154.945)" fill="#dff6fd"/>
        <path id="Trazado_1193318" data-name="Trazado 1193318" d="M386.536,250.021v-.568a2.27,2.27,0,0,1,1.666-2.188l1.293-.384c.036-.01.048-.064.081-.081a.659.659,0,0,0,.368-.571v-2.515h3.337v2.515a.629.629,0,0,0,.371.573c.029.013.054.092.086.1l1.294.362a2.271,2.271,0,0,1,1.666,2.188v.568H386.536Z" transform="translate(-342.037 -216.075)" fill="#ffcebe"/>
        <path id="Trazado_1193319" data-name="Trazado 1193319" d="M405.089,198.914l.388.22a2.023,2.023,0,0,0,2,0l.388-.22a3.4,3.4,0,0,0,1.721-2.955V195.1a3.108,3.108,0,0,0-6.215,0v.863a3.4,3.4,0,0,0,1.721,2.955Z" transform="translate(-356.9 -170.407)" fill="#ffdfcf"/>
        <path id="Trazado_1193320" data-name="Trazado 1193320" d="M392.779,270.423a8.213,8.213,0,0,1-5.262,4.513h0a7.636,7.636,0,0,1-3.021-1.592l-.271-.731a2.112,2.112,0,0,1,.67-1.486,2.272,2.272,0,0,1,.992-.575l1.555-.429a.534.534,0,0,0,.094-.035l.083.188a2.212,2.212,0,0,0,3.907,0l.085-.186a.612.612,0,0,0,.091.033Z" transform="translate(-339.994 -239.364)" fill="#b3dafe"/>
        <path id="Trazado_1193321" data-name="Trazado 1193321" d="M408.468,54.275a2.887,2.887,0,0,1-2.924,3.1,3.175,3.175,0,0,1-3.05-1.877c0-.009-.026-.026-.029-.035a3.208,3.208,0,0,1,2.993-4.36,3,3,0,0,1,1.153.215A3.046,3.046,0,0,1,408.468,54.275Z" transform="translate(-355.912 -46)" fill="#ffe177"/>
        <path id="Trazado_1193322" data-name="Trazado 1193322" d="M409.338,58.2a3.206,3.206,0,0,1-4.534,0,3.17,3.17,0,0,1-.726-1.113,3.206,3.206,0,0,0,4.145-4.145,3.169,3.169,0,0,1,1.115.724A3.206,3.206,0,0,1,409.338,58.2Z" transform="translate(-357.527 -47.622)" fill="#ffd15b"/>
        <path id="Trazado_1193323" data-name="Trazado 1193323" d="M211.219,55.263l-3.275.241H202.9a2.415,2.415,0,0,1-2.415-2.415V50.683a2.415,2.415,0,0,1,2.415-2.415h5l3.287.126a2.178,2.178,0,0,1,2.254,2.29v2.361A2.092,2.092,0,0,1,211.219,55.263Z" transform="translate(-177.756 -43.498)" fill="#ffe177"/>
        <path id="Trazado_1193324" data-name="Trazado 1193324" d="M267.5,50.684v2.407a2.415,2.415,0,0,1-2.415,2.415h-3.541a2.415,2.415,0,0,0,2.414-2.415V50.684a2.414,2.414,0,0,0-2.414-2.414h3.541A2.415,2.415,0,0,1,267.5,50.684Z" transform="translate(-231.671 -43.5)" fill="#ffd15b"/>
        <path id="Trazado_1193325" data-name="Trazado 1193325" d="M45.543,270.425a8.22,8.22,0,0,1-5.267,4.512h0a7.959,7.959,0,0,1-3.117-1.558l-.175-.771a2.108,2.108,0,0,1,.671-1.48,2.272,2.272,0,0,1,.992-.575l1.555-.429a.534.534,0,0,0,.094-.035l.083.188a2.212,2.212,0,0,0,3.907,0l.085-.186a.61.61,0,0,0,.091.033Z" transform="translate(-33.383 -239.364)" fill="#b3dafe"/>
        <path id="Trazado_1193326" data-name="Trazado 1193326" d="M47.652,275.268v1.688a9.658,9.658,0,0,1-10.7-.009v-1.679q0-.067,0-.133a9.627,9.627,0,0,0,8.563-2.185l.47.13a2.272,2.272,0,0,1,1.666,2.188Z" transform="translate(-33.355 -241.89)" fill="#8ac9fe"/>
        <path id="Trazado_1193327" data-name="Trazado 1193327" d="M394.894,275.259v1.677a9.645,9.645,0,0,1-10.7.008v-1.685c0-.043,0-.084,0-.128a9.615,9.615,0,0,0,8.557-2.192l.476.131a2.271,2.271,0,0,1,1.666,2.188Z" transform="translate(-339.967 -241.881)" fill="#8ac9fe"/>
        <path id="Trazado_1193328" data-name="Trazado 1193328" d="M62.09,54.275a2.887,2.887,0,0,1-2.925,3.1,3.175,3.175,0,0,1-3.05-1.877c0-.009-.026-.026-.029-.035a3.208,3.208,0,0,1,2.993-4.36,3,3,0,0,1,1.153.215A3.046,3.046,0,0,1,62.09,54.275Z" transform="translate(-50.064 -46)" fill="#ffe177"/>
        <path id="Trazado_1193329" data-name="Trazado 1193329" d="M62.961,58.2a3.206,3.206,0,0,1-4.534,0,3.17,3.17,0,0,1-.726-1.113,3.206,3.206,0,0,0,4.145-4.145,3.168,3.168,0,0,1,1.115.724A3.206,3.206,0,0,1,62.961,58.2Z" transform="translate(-51.679 -47.622)" fill="#ffd15b"/>
      </g>
      <g id="Grupo_1230196" data-name="Grupo 1230196" transform="translate(0.001 0)">
        <path id="Trazado_1193330" data-name="Trazado 1193330" d="M16.558,461.828a.878.878,0,0,0-1.222.218l-2.878,4.126a.878.878,0,0,0,1.44,1l2.878-4.126a.878.878,0,0,0-.218-1.222Z" transform="translate(-10.86 -407.65)"/>
        <path id="Trazado_1193331" data-name="Trazado 1193331" d="M156.137,429.3l-3.524,1.457a8.225,8.225,0,0,1-3.158.627H138.776a7.012,7.012,0,0,0-6.267,3.917l-1.214,2.334a.878.878,0,1,0,1.557.81l1.22-2.344.011-.022a5.247,5.247,0,0,1,4.694-2.939h10.678a9.972,9.972,0,0,0,3.829-.76l3.524-1.457a.878.878,0,1,0-.671-1.622Z" transform="translate(-115.845 -379.008)"/>
        <path id="Trazado_1193332" data-name="Trazado 1193332" d="M41.52,23.863a9.647,9.647,0,1,0,17.486,0c0-.011-.009-.023-.014-.035l-5.57-12.081a4.081,4.081,0,0,0-6.284-5.208H37.033A3.3,3.3,0,0,0,34.116,4.77H32.628V2.282A2.284,2.284,0,0,0,30.346,0h-.73a2.284,2.284,0,0,0-2.282,2.282V4.77H25.845a3.3,3.3,0,0,0-2.917,1.769H20.52a.878.878,0,1,0,0,1.755h2.033v1.943H13.662A4.067,4.067,0,0,0,13.7,8.294h2.633a.878.878,0,1,0,0-1.755H12.823a4.081,4.081,0,0,0-6.316,5.167L.918,23.828a9.646,9.646,0,1,0,17.459,0L12.92,11.992H22.928a3.3,3.3,0,0,0,2.917,1.769h1.489V32.373H25.541a2.284,2.284,0,0,0-2.282,2.282v2.194H21.018a2.489,2.489,0,0,0-2.486,2.486V40.6h-3.46a6.652,6.652,0,0,0-3.943,1.305,6.584,6.584,0,0,0-2.64,5.169,5.17,5.17,0,0,1-.933,2.9l-.7,1.006a.878.878,0,0,0,1.44,1l.7-1.006A6.918,6.918,0,0,0,10.243,47.1a4.818,4.818,0,0,1,1.932-3.783,4.885,4.885,0,0,1,2.9-.959h17.96a1.679,1.679,0,0,1,.127,3.353l-11.877.9a.878.878,0,1,0,.133,1.75l11.877-.9a3.432,3.432,0,0,0,2.365-1.218,8.516,8.516,0,0,0,1.978-.264l8.886-2.267a1.859,1.859,0,0,1,2.319,1.8,1.878,1.878,0,0,1-1.278,1.771l-3.526,1.458a.878.878,0,1,0,.671,1.622c2-.82,6.078-2.527,8.086-3.375a3.342,3.342,0,0,0,2.227-3.15,3.046,3.046,0,0,0-1.177-2.453,3.44,3.44,0,0,0-2.975-.587c-2.374.6-7.068,1.793-9.439,2.4V39.334a2.489,2.489,0,0,0-2.486-2.486H36.7V34.655a2.284,2.284,0,0,0-2.282-2.282H32.628V28.437a.878.878,0,1,0-1.755,0v3.936H29.09V13.761h1.783V24.252a.878.878,0,0,0,1.755,0V13.761h1.489a3.3,3.3,0,0,0,2.917-1.769h9.958L41.534,23.828c-.005.011-.009.023-.014.035ZM9.716,6.857A2.328,2.328,0,1,1,7.387,9.185,2.331,2.331,0,0,1,9.716,6.857Zm4.405,27.564a7.872,7.872,0,0,1-8.948,0v-.165A1.393,1.393,0,0,1,6.2,32.914l1-.277a3.087,3.087,0,0,0,4.9,0l1,.277a1.392,1.392,0,0,1,1.022,1.342v.165ZM10.594,31.7a1.338,1.338,0,0,1-1.894,0,1.5,1.5,0,0,0,.156-.663v-.4a2.894,2.894,0,0,0,1.582,0v.4a1.5,1.5,0,0,0,.156.663Zm-.381-2.854a1.152,1.152,0,0,1-1.131,0l-.388-.22A2.524,2.524,0,0,1,7.417,26.43v-.863a2.23,2.23,0,0,1,4.46,0v.863A2.524,2.524,0,0,1,10.6,28.622Zm7.326-.912a7.847,7.847,0,0,1-1.9,5.126,3.137,3.137,0,0,0-2.07-1.834l-1.373-.379V29.627a4.282,4.282,0,0,0,1.439-3.2v-.863a3.985,3.985,0,0,0-7.97,0v.863a4.283,4.283,0,0,0,1.439,3.2v1.217l-1.373.379a3.138,3.138,0,0,0-2.07,1.834A7.887,7.887,0,1,1,17.539,27.93ZM14.494,19.6a9.617,9.617,0,0,0-9.694,0l3.113-6.751a4.072,4.072,0,0,0,3.493.053Zm36.8,22.9a1.719,1.719,0,0,1,1.466.267,1.3,1.3,0,0,1,.5,1.07,1.587,1.587,0,0,1-1.072,1.5c-.068.022-1.57.66-1.635.685a3.644,3.644,0,0,0,.037-.511,3.587,3.587,0,0,0-1.066-2.564ZM29.089,2.282a.534.534,0,0,1,.527-.527h.73a.534.534,0,0,1,.527.527V4.77H29.089ZM39.674,39.334v4.315L37.2,44.28a6.791,6.791,0,0,1-.757.147A3.426,3.426,0,0,0,33.031,40.6H20.288v-1.27a.731.731,0,0,1,.731-.73H38.944a.731.731,0,0,1,.731.73ZM34.42,34.128a.534.534,0,0,1,.527.527v2.194H25.015V34.655a.534.534,0,0,1,.527-.527Zm1.233-23.66a1.539,1.539,0,0,1-1.537,1.537H25.845a1.539,1.539,0,0,1-1.537-1.537V8.062a1.539,1.539,0,0,1,1.537-1.537h8.271a1.539,1.539,0,0,1,1.537,1.537Zm1.755-.232V8.294h8.852a4.067,4.067,0,0,0,.039,1.943H37.409ZM54.738,34.421a7.872,7.872,0,0,1-8.948,0v-.165a1.393,1.393,0,0,1,1.022-1.342l1-.277a3.087,3.087,0,0,0,4.9,0l1,.277a1.393,1.393,0,0,1,1.022,1.342ZM51.21,31.7a1.338,1.338,0,0,1-1.894,0,1.5,1.5,0,0,0,.156-.663v-.4a2.894,2.894,0,0,0,1.582,0v.4a1.5,1.5,0,0,0,.156.663Zm-.381-2.854a1.152,1.152,0,0,1-1.131,0l-.388-.22a2.524,2.524,0,0,1-1.277-2.191v-.863a2.23,2.23,0,0,1,4.46,0v.863a2.524,2.524,0,0,1-1.277,2.191ZM50.246,6.857a2.328,2.328,0,1,1-2.329,2.328,2.331,2.331,0,0,1,2.329-2.328Zm-1.732,6.025a4.077,4.077,0,0,0,3.494-.013l3.1,6.73a9.618,9.618,0,0,0-9.694,0Zm1.75,7.161a7.879,7.879,0,0,1,5.989,13.013,3.138,3.138,0,0,0-2.07-1.834l-1.373-.379V29.627a4.283,4.283,0,0,0,1.439-3.2v-.863a3.985,3.985,0,0,0-7.97,0v.863a4.282,4.282,0,0,0,1.439,3.2v1.217l-1.373.379a3.138,3.138,0,0,0-2.07,1.834,7.879,7.879,0,0,1,5.989-13.012Z" transform="translate(-0.001 0)"/>
      </g>
    </g>
  </g>
</svg>
