<svg xmlns="http://www.w3.org/2000/svg" xmlns:xlink="http://www.w3.org/1999/xlink" width="108" height="108" viewBox="0 0 108 108">
  <defs>
    <filter id="Trazado_904820" x="0" y="0" width="108" height="108" filterUnits="userSpaceOnUse">
      <feOffset dy="3" input="SourceAlpha"/>
      <feGaussianBlur stdDeviation="3" result="blur"/>
      <feFlood flood-opacity="0.161"/>
      <feComposite operator="in" in2="blur"/>
      <feComposite in="SourceGraphic"/>
    </filter>
  </defs>
  <g id="Grupo_1230168" data-name="Grupo 1230168" transform="translate(-619.827 -361)">
    <g id="Grupo_1229386" data-name="Grupo 1229386" transform="translate(628.827 367)">
      <g id="Grupo_1220471" data-name="Grupo 1220471">
        <g id="Grupo_1219977" data-name="Grupo 1219977" transform="translate(0 0)">
          <g id="Grupo_1219603" data-name="Grupo 1219603">
            <g id="Grupo_1202655" data-name="Grupo 1202655">
              <g id="Grupo_1173585" data-name="Grupo 1173585">
                <g id="Grupo_1173428" data-name="Grupo 1173428">
                  <g id="Grupo_1171958" data-name="Grupo 1171958">
                    <g id="Grupo_1167341" data-name="Grupo 1167341">
                      <g id="Grupo_1166792" data-name="Grupo 1166792">
                        <g transform="matrix(1, 0, 0, 1, -9, -6)" filter="url(#Trazado_904820)">
                          <g id="Trazado_904820-2" data-name="Trazado 904820" transform="translate(9 6)" fill="#f7f5f3">
                            <path d="M 44.99999618530273 88.49999237060547 C 39.12687301635742 88.49999237060547 33.43022155761719 87.35006713867188 28.06829643249512 85.08216857910156 C 22.88852119445801 82.89130401611328 18.23629570007324 79.75457763671875 14.24084663391113 75.75914001464844 C 10.24540901184082 71.76369476318359 7.108683586120605 67.11146545410156 4.917821407318115 61.93169403076172 C 2.649921178817749 56.56976699829102 1.499996185302734 50.87311553955078 1.499996185302734 44.99999237060547 C 1.499996185302734 39.12686920166016 2.649921178817749 33.43021774291992 4.917821407318115 28.06829261779785 C 7.108683586120605 22.88851737976074 10.24540901184082 18.23630523681641 14.24084663391113 14.24085521697998 C 18.23629570007324 10.24540519714355 22.88852119445801 7.108692169189453 28.06829643249512 4.917829990386963 C 33.43022155761719 2.649929761886597 39.12687301635742 1.500004887580872 44.99999618530273 1.500004887580872 C 50.87311935424805 1.500004887580872 56.56977081298828 2.649929761886597 61.93169784545898 4.917829990386963 C 67.11147308349609 7.108692169189453 71.76369476318359 10.24540519714355 75.75914764404297 14.24085521697998 C 79.75458526611328 18.23630523681641 82.89131164550781 22.88851737976074 85.08216857910156 28.06829261779785 C 87.35007476806641 33.43021774291992 88.5 39.12686920166016 88.5 44.99999237060547 C 88.5 50.87311553955078 87.35007476806641 56.56976699829102 85.08216857910156 61.93169403076172 C 82.89131164550781 67.11146545410156 79.75458526611328 71.76369476318359 75.75914764404297 75.75914001464844 C 71.76369476318359 79.75457763671875 67.11147308349609 82.89130401611328 61.93169784545898 85.08216857910156 C 56.56977081298828 87.35006713867188 50.87311935424805 88.49999237060547 44.99999618530273 88.49999237060547 Z" stroke="none"/>
                            <path d="M 44.99999618530273 2.999992370605469 C 39.32870864868164 2.999992370605469 33.82865142822266 4.11004638671875 28.65262603759766 6.299331665039062 C 23.65165710449219 8.414566040039062 19.15968322753906 11.44333648681641 15.301513671875 15.30150604248047 C 11.44333648681641 19.15967559814453 8.414566040039062 23.65164947509766 6.299339294433594 28.65262222290039 C 4.110054016113281 33.82864761352539 2.999992370605469 39.32870483398438 2.999992370605469 44.99999237060547 C 2.999992370605469 50.67127990722656 4.110054016113281 56.17132186889648 6.299339294433594 61.34736633300781 C 8.414566040039062 66.34833526611328 11.44333648681641 70.84029388427734 15.301513671875 74.69846343994141 C 19.15968322753906 78.55663299560547 23.65165710449219 81.58540344238281 28.65262603759766 83.70063781738281 C 33.82865142822266 85.88992309570312 39.32870864868164 86.99997711181641 44.99999618530273 86.99997711181641 C 50.67128372192383 86.99997711181641 56.17134094238281 85.88992309570312 61.34736633300781 83.70063781738281 C 66.34834289550781 81.58540344238281 70.84030914306641 78.55663299560547 74.69847869873047 74.69846343994141 C 78.55665588378906 70.84029388427734 81.58542633056641 66.34833526611328 83.70065307617188 61.34736633300781 C 85.88993835449219 56.17132186889648 87 50.67127990722656 87 44.99999237060547 C 87 39.32870483398438 85.88993835449219 33.82864761352539 83.70065307617188 28.65262222290039 C 81.58542633056641 23.65164947509766 78.55665588378906 19.15967559814453 74.69847869873047 15.30150604248047 C 70.84030914306641 11.44333648681641 66.34834289550781 8.414566040039062 61.34736633300781 6.299331665039062 C 56.17134094238281 4.11004638671875 50.67128372192383 2.999992370605469 44.99999618530273 2.999992370605469 M 44.99999618530273 -7.62939453125e-06 C 69.85281372070312 -7.62939453125e-06 90 20.14717864990234 90 44.99999237060547 C 90 69.85279083251953 69.85281372070312 89.99997711181641 44.99999618530273 89.99997711181641 C 20.14717864990234 89.99997711181641 -7.62939453125e-06 69.85279083251953 -7.62939453125e-06 44.99999237060547 C -7.62939453125e-06 20.14717864990234 20.14717864990234 -7.62939453125e-06 44.99999618530273 -7.62939453125e-06 Z" stroke="none" fill="#bca78f"/>
                          </g>
                        </g>
                      </g>
                    </g>
                  </g>
                </g>
              </g>
            </g>
          </g>
        </g>
      </g>
    </g>
    <g id="justicia_1_" data-name="justicia (1)" transform="translate(646.457 384.63)">
      <path id="Trazado_1193168" data-name="Trazado 1193168" d="M434.429,294.5l-4.929,4.93h3.286a4.929,4.929,0,0,0,4.93-4.93Z" transform="translate(-382.451 -262.239)" fill="#ffbb6e"/>
      <path id="Trazado_1193169" data-name="Trazado 1193169" d="M333.363,294.5H316a4.929,4.929,0,0,0,4.93,4.93h7.5A4.929,4.929,0,0,0,333.363,294.5Z" transform="translate(-281.384 -262.239)" fill="#ffd478"/>
      <path id="Trazado_1193170" data-name="Trazado 1193170" d="M125.929,294.5,121,299.43h3.286a4.929,4.929,0,0,0,4.929-4.93Z" transform="translate(-107.745 -262.239)" fill="#ffbb6e"/>
      <path id="Trazado_1193171" data-name="Trazado 1193171" d="M24.863,294.5H7.5a4.929,4.929,0,0,0,4.929,4.93h7.5A4.929,4.929,0,0,0,24.863,294.5Z" transform="translate(-6.678 -262.239)" fill="#ffd478"/>
      <path id="Trazado_1193172" data-name="Trazado 1193172" d="M301,384.5h4.93v8.216H301Z" transform="translate(-268.027 -342.38)" fill="#ff8053"/>
      <path id="Trazado_1193173" data-name="Trazado 1193173" d="M166,384.5h16.432v8.216H166Z" transform="translate(-147.816 -342.38)" fill="#ffa061"/>
      <path id="Trazado_1193174" data-name="Trazado 1193174" d="M91.524,429.5H61.679L59.3,433.062a3.07,3.07,0,0,1-2.555,1.367v1.643H98.429Z" transform="translate(-50.533 -382.451)" fill="#ffd478"/>
      <path id="Trazado_1193175" data-name="Trazado 1193175" d="M380.52,433.062l-2.375-3.562H374.2l2.375,3.562a3.07,3.07,0,0,0,2.555,1.367l1.975,1.643,1.975-1.643a3.07,3.07,0,0,1-2.555-1.367Z" transform="translate(-333.204 -382.451)" fill="#ffbb6e"/>
      <path id="Trazado_1193176" data-name="Trazado 1193176" d="M241,67.5h4.929v8.216H241Z" transform="translate(-214.6 -60.106)" fill="#ff8053"/>
      <path id="Trazado_1193177" data-name="Trazado 1193177" d="M226,67.5h3.286v8.216H226Z" transform="translate(-201.243 -60.106)" fill="#ffa061"/>
      <path id="Trazado_1193178" data-name="Trazado 1193178" d="M241,142.5h4.929v26.51H241Z" transform="translate(-214.6 -126.89)" fill="#ffe7ad"/>
      <path id="Trazado_1193179" data-name="Trazado 1193179" d="M226,142.5h3.286v26.51H226Z" transform="translate(-201.243 -126.89)" fill="#fff5de"/>
      <path id="Trazado_1193180" data-name="Trazado 1193180" d="M259.286,127.5H256v3.286h3.286a1.643,1.643,0,0,0,0-3.286Z" transform="translate(-227.957 -113.533)" fill="#ffbb6e"/>
      <path id="Trazado_1193181" data-name="Trazado 1193181" d="M217.573,129.143a1.643,1.643,0,0,0-1.643-1.643h-3.286a1.643,1.643,0,0,0,0,3.286h3.286A1.643,1.643,0,0,0,217.573,129.143Z" transform="translate(-187.886 -113.533)" fill="#ffd478"/>
      <path id="Trazado_1193182" data-name="Trazado 1193182" d="M319.286,369.5H316v3.286h3.286a1.643,1.643,0,0,0,0-3.286Z" transform="translate(-281.384 -329.023)" fill="#ffbb6e"/>
      <path id="Trazado_1193183" data-name="Trazado 1193183" d="M170.718,371.143a1.643,1.643,0,0,0-1.643-1.643H152.643a1.643,1.643,0,0,0,0,3.286h16.432A1.643,1.643,0,0,0,170.718,371.143Z" transform="translate(-134.459 -329.023)" fill="#ffd478"/>
      <path id="Trazado_1193184" data-name="Trazado 1193184" d="M383.536,37.5H380.25v3.286h3.286a1.643,1.643,0,0,0,0-3.286Z" transform="translate(-338.596 -33.392)" fill="#ffbb6e"/>
      <path id="Trazado_1193185" data-name="Trazado 1193185" d="M120.544,39.143A1.643,1.643,0,0,0,118.9,37.5H88.393a1.643,1.643,0,0,0,0,3.286H118.9A1.643,1.643,0,0,0,120.544,39.143Z" transform="translate(-77.247 -33.392)" fill="#ffd478"/>
      <path id="Trazado_1193186" data-name="Trazado 1193186" d="M428.536,474.5H425.25l3.286,3.286h3.286A3.286,3.286,0,0,0,428.536,474.5Z" transform="translate(-378.666 -422.521)" fill="#ffd478"/>
      <path id="Trazado_1193187" data-name="Trazado 1193187" d="M70.4,474.5H30.036a3.286,3.286,0,0,0-3.286,3.286H73.69A3.286,3.286,0,0,0,70.4,474.5Z" transform="translate(-23.82 -422.521)" fill="#ffe7ad"/>
      <circle id="Elipse_14826" data-name="Elipse 14826" cx="4.929" cy="4.929" r="4.929" transform="translate(23.114 0.822)" fill="#ffe7ad"/>
      <circle id="Elipse_14827" data-name="Elipse 14827" cx="1.643" cy="1.643" r="1.643" transform="translate(26.4 4.108)" fill="#ffd478"/>
      <circle id="Elipse_14828" data-name="Elipse 14828" cx="1.643" cy="1.643" r="1.643" transform="translate(9.503 7.394)" fill="#ffe7ad"/>
      <circle id="Elipse_14829" data-name="Elipse 14829" cx="1.643" cy="1.643" r="1.643" transform="translate(43.297 7.394)" fill="#ffe7ad"/>
      <path id="Trazado_1193188" data-name="Trazado 1193188" d="M34.606,33.036A5.9,5.9,0,0,0,40.5,38.925H51.544a5.9,5.9,0,0,0,5.889-5.889.842.842,0,0,0-.082-.363L47.212,11.479A2.521,2.521,0,0,0,47.9,7.572,2.522,2.522,0,0,0,46.02,3.365H34.037a5.887,5.887,0,0,0-10.64,0H11.414A2.522,2.522,0,0,0,9.535,7.572a2.521,2.521,0,0,0,.688,3.907L.082,32.672A.842.842,0,0,0,0,33.036a5.9,5.9,0,0,0,5.889,5.889H16.938a5.9,5.9,0,0,0,5.889-5.889.842.842,0,0,0-.082-.363L12.606,11.479a2.522,2.522,0,0,0,1.187-3.066h9.6A5.912,5.912,0,0,0,24.51,10v3.6a2.523,2.523,0,0,0,0,4.758V40.607H18.621a2.524,2.524,0,0,0-.841,4.9v1.827H11.414a.841.841,0,0,0-.7.375L8.282,51.36a2.3,2.3,0,0,1-1.916,1.025,4.211,4.211,0,0,0-4.207,4.207A.841.841,0,0,0,3,57.434H54.433a.841.841,0,0,0,.841-.841,4.211,4.211,0,0,0-4.207-4.207,2.3,2.3,0,0,1-1.916-1.025L46.72,47.713a.841.841,0,0,0-.7-.375H39.654V45.511a2.524,2.524,0,0,0-.841-4.9H32.923V18.364a2.523,2.523,0,0,0,0-4.758v-3.6a5.916,5.916,0,0,0,1.113-1.592h9.6a2.522,2.522,0,0,0,1.187,3.066L34.688,32.673a.842.842,0,0,0-.082.363Zm16.938,4.207H40.5a4.213,4.213,0,0,1-4.121-3.365H55.666A4.213,4.213,0,0,1,51.544,37.242ZM36.782,32.194,46.02,12.886l9.237,19.308ZM11.414,12.886l9.237,19.308H2.176Zm5.525,24.356H5.889a4.213,4.213,0,0,1-4.121-3.365H21.06A4.213,4.213,0,0,1,16.938,37.242ZM12.255,9.254a.841.841,0,1,1-.841-.841A.842.842,0,0,1,12.255,9.254ZM11.414,6.73a.841.841,0,0,1,0-1.683H22.889a5.83,5.83,0,0,0,0,1.683Zm14.779,6.731V11.209a5.879,5.879,0,0,0,5.048,0v2.252Zm27.255,42.29H3.986a2.528,2.528,0,0,1,2.38-1.683h44.7A2.528,2.528,0,0,1,53.447,55.751Zm-5.7-3.457c.021.032.044.061.066.092H9.616c.022-.031.045-.061.066-.092l2.182-3.273H45.57Zm-8.1-9.162a.842.842,0,0,1-.841.841H21.986a.841.841,0,1,0,0,1.683H37.971v1.683H19.462V44.814a.841.841,0,0,0-.841-.841.841.841,0,0,1,0-1.683H38.813A.842.842,0,0,1,39.654,43.131ZM26.193,40.607v-22.1h5.048v22.1Zm5.889-23.781H25.352a.841.841,0,0,1,0-1.683h6.731a.841.841,0,0,1,0,1.683ZM28.717,10.1a4.207,4.207,0,1,1,4.207-4.207A4.211,4.211,0,0,1,28.717,10.1Zm5.828-5.048H46.02a.841.841,0,1,1,0,1.683H34.545a5.83,5.83,0,0,0,0-1.683ZM46.861,9.254a.841.841,0,1,1-.841-.841A.842.842,0,0,1,46.861,9.254Z" transform="translate(-1.347 -1.347)"/>
      <path id="Trazado_1193189" data-name="Trazado 1193189" d="M235.965,30a2.465,2.465,0,1,0,2.465,2.465A2.467,2.467,0,0,0,235.965,30Zm0,3.286a.822.822,0,1,1,.822-.822A.822.822,0,0,1,235.965,33.286Z" transform="translate(-207.921 -26.714)"/>
    </g>
  </g>
</svg>
