<svg xmlns="http://www.w3.org/2000/svg" xmlns:xlink="http://www.w3.org/1999/xlink" width="584.61" height="512.893" viewBox="0 0 584.61 512.893">
  <defs>
    <clipPath id="clip-path">
      <rect id="Rectángulo_422896" data-name="Rectángulo 422896" width="584.61" height="512.893" fill="none"/>
    </clipPath>
    <clipPath id="clip-path-2">
      <rect id="Rectángulo_422895" data-name="Rectángulo 422895" width="584.611" height="512.892" fill="none"/>
    </clipPath>
    <clipPath id="clip-path-3">
      <rect id="Rectángulo_422889" data-name="Rectángulo 422889" width="516.302" height="8.383" fill="none"/>
    </clipPath>
    <clipPath id="clip-path-4">
      <rect id="Rectángulo_422891" data-name="Rectángulo 422891" width="584.61" height="8.383" fill="none"/>
    </clipPath>
    <clipPath id="clip-path-5">
      <rect id="Rectángulo_422892" data-name="Rectángulo 422892" width="78.616" height="79.596" fill="none"/>
    </clipPath>
    <clipPath id="clip-path-6">
      <rect id="Rectángulo_422893" data-name="Rectángulo 422893" width="78.609" height="79.596" fill="none"/>
    </clipPath>
    <clipPath id="clip-path-7">
      <rect id="Rectángulo_422894" data-name="Rectángulo 422894" width="78.618" height="79.596" fill="none"/>
    </clipPath>
  </defs>
  <g id="Grupo_1229563" data-name="Grupo 1229563" transform="translate(-508.195 -6793.554)">
    <g id="Grupo_1229540" data-name="Grupo 1229540" transform="translate(508.195 6793.554)">
      <g id="Grupo_1229539" data-name="Grupo 1229539" clip-path="url(#clip-path)">
        <g id="Grupo_1229538" data-name="Grupo 1229538" transform="translate(0 0.001)">
          <g id="Grupo_1229537" data-name="Grupo 1229537" clip-path="url(#clip-path-2)">
            <path id="Trazado_1192231" data-name="Trazado 1192231" d="M284.862,2.625,8.652,155.467c-7.529,4.166-4.571,15.623,4.034,15.623H577.353c8.605,0,11.563-11.456,4.034-15.623L305.177,2.625a20.979,20.979,0,0,0-20.315,0" transform="translate(-2.745 -0.003)" fill="#f2f2f2"/>
            <path id="Trazado_1192232" data-name="Trazado 1192232" d="M280.521,525.836h-91.5a6.586,6.586,0,0,1-6.586-6.585V504.981a6.586,6.586,0,0,1,6.586-6.585h91.5a6.585,6.585,0,0,1,6.585,6.585V519.25a6.585,6.585,0,0,1-6.585,6.585" transform="translate(-115.363 -315.162)" fill="#e6e6e6"/>
            <path id="Trazado_1192233" data-name="Trazado 1192233" d="M280.521,1131.478h-91.5a6.586,6.586,0,0,1-6.586-6.585v-14.269a6.586,6.586,0,0,1,6.586-6.585h91.5a6.585,6.585,0,0,1,6.585,6.585v14.269a6.585,6.585,0,0,1-6.585,6.585" transform="translate(-115.363 -698.14)" fill="#e6e6e6"/>
            <path id="Trazado_1192234" data-name="Trazado 1192234" d="M296.4,682.119c.023,18.651-.674,36.359-1.869,53.01-.965,13.458-2.252,26.234-3.753,38.266h-67.31c-1.517-12.025-2.819-24.793-3.784-38.266-1.21-16.643-1.915-34.352-1.9-53.01q.023-13.637.521-26.586c.865-22.771,2.742-43.873,5.163-63.075h67.31c2.4,19.225,4.251,40.326,5.109,63.075q.483,12.949.513,26.586" transform="translate(-137.715 -374.643)" fill="#e6e6e6"/>
            <path id="Trazado_1192235" data-name="Trazado 1192235" d="M750.8,525.836H659.3a6.586,6.586,0,0,1-6.586-6.585V504.981A6.586,6.586,0,0,1,659.3,498.4h91.5a6.585,6.585,0,0,1,6.585,6.585V519.25a6.585,6.585,0,0,1-6.585,6.585" transform="translate(-412.743 -315.162)" fill="#e6e6e6"/>
            <path id="Trazado_1192236" data-name="Trazado 1192236" d="M750.8,1131.478H659.3a6.586,6.586,0,0,1-6.586-6.585v-14.269a6.586,6.586,0,0,1,6.586-6.585h91.5a6.585,6.585,0,0,1,6.585,6.585v14.269a6.585,6.585,0,0,1-6.585,6.585" transform="translate(-412.743 -698.14)" fill="#e6e6e6"/>
            <path id="Trazado_1192237" data-name="Trazado 1192237" d="M766.683,682.119c.023,18.651-.674,36.359-1.869,53.01-.965,13.458-2.252,26.234-3.753,38.266h-67.3c-1.517-12.025-2.819-24.793-3.792-38.266-1.21-16.643-1.915-34.352-1.891-53.01q.023-13.637.521-26.586c.865-22.771,2.742-43.873,5.162-63.075h67.3c2.4,19.225,4.259,40.326,5.109,63.075q.482,12.949.513,26.586" transform="translate(-435.104 -374.643)" fill="#e6e6e6"/>
            <path id="Trazado_1192238" data-name="Trazado 1192238" d="M1221.074,525.836h-91.5a6.586,6.586,0,0,1-6.586-6.585V504.981a6.586,6.586,0,0,1,6.586-6.585h91.5a6.585,6.585,0,0,1,6.585,6.585V519.25a6.585,6.585,0,0,1-6.585,6.585" transform="translate(-710.122 -315.162)" fill="#e6e6e6"/>
            <path id="Trazado_1192239" data-name="Trazado 1192239" d="M1221.074,1131.478h-91.5a6.586,6.586,0,0,1-6.586-6.585v-14.269a6.586,6.586,0,0,1,6.586-6.585h91.5a6.585,6.585,0,0,1,6.585,6.585v14.269a6.585,6.585,0,0,1-6.585,6.585" transform="translate(-710.122 -698.14)" fill="#e6e6e6"/>
            <path id="Trazado_1192240" data-name="Trazado 1192240" d="M1236.96,682.119c.023,18.651-.674,36.351-1.869,53.01-.965,13.458-2.252,26.234-3.753,38.266h-67.311c-1.517-12.025-2.819-24.793-3.791-38.266-1.21-16.643-1.915-34.352-1.892-53.01q.011-13.637.521-26.586c.866-22.771,2.742-43.873,5.162-63.075h67.311c2.4,19.225,4.251,40.326,5.109,63.075q.483,12.949.513,26.586" transform="translate(-732.48 -374.643)" fill="#e6e6e6"/>
            <path id="Trazado_1192241" data-name="Trazado 1192241" d="M609.2,1249.976H92.9v-23.331a4.9,4.9,0,0,1,4.9-4.9H604.3a4.9,4.9,0,0,1,4.9,4.9Z" transform="translate(-58.743 -772.573)" fill="#f2f2f2"/>
            <path id="Trazado_1192242" data-name="Trazado 1192242" d="M584.611,1346.506H0v-23.281a4.948,4.948,0,0,1,4.948-4.948H579.663a4.948,4.948,0,0,1,4.948,4.948Z" transform="translate(0 -833.615)" fill="#f2f2f2"/>
            <path id="Trazado_1192243" data-name="Trazado 1192243" d="M752.82,147.444a58.676,58.676,0,1,1-58.676-58.676,58.676,58.676,0,0,1,58.676,58.676" transform="translate(-401.839 -56.134)" fill="#e6e6e6"/>
            <g id="Grupo_1229524" data-name="Grupo 1229524" transform="translate(34.153 469.019)" opacity="0.08">
              <g id="Grupo_1229523" data-name="Grupo 1229523">
                <g id="Grupo_1229522" data-name="Grupo 1229522" clip-path="url(#clip-path-3)">
                  <rect id="Rectángulo_422888" data-name="Rectángulo 422888" width="516.304" height="8.383" transform="translate(0)"/>
                </g>
              </g>
            </g>
            <g id="Grupo_1229527" data-name="Grupo 1229527" transform="translate(0 504.509)" opacity="0.08">
              <g id="Grupo_1229526" data-name="Grupo 1229526">
                <g id="Grupo_1229525" data-name="Grupo 1229525" clip-path="url(#clip-path-4)">
                  <rect id="Rectángulo_422890" data-name="Rectángulo 422890" width="584.611" height="8.383" transform="translate(0 0)"/>
                </g>
              </g>
            </g>
            <g id="Grupo_1229530" data-name="Grupo 1229530" transform="translate(80.068 280.891)" opacity="0.15">
              <g id="Grupo_1229529" data-name="Grupo 1229529">
                <g id="Grupo_1229528" data-name="Grupo 1229528" clip-path="url(#clip-path-5)">
                  <path id="Trazado_1192244" data-name="Trazado 1192244" d="M296.4,790.607c.023,18.651-.674,36.359-1.869,53.01H219.683c-1.21-16.643-1.915-34.352-1.9-53.01q.023-13.637.521-26.586h77.582q.483,12.949.513,26.586" transform="translate(-217.783 -764.021)"/>
                </g>
              </g>
            </g>
            <g id="Grupo_1229533" data-name="Grupo 1229533" transform="translate(252.97 280.891)" opacity="0.15">
              <g id="Grupo_1229532" data-name="Grupo 1229532">
                <g id="Grupo_1229531" data-name="Grupo 1229531" clip-path="url(#clip-path-6)">
                  <path id="Trazado_1192245" data-name="Trazado 1192245" d="M766.683,790.607c.023,18.651-.674,36.359-1.869,53.01H689.966c-1.21-16.643-1.915-34.352-1.891-53.01q.023-13.637.521-26.586H766.17q.482,12.949.513,26.586" transform="translate(-688.074 -764.021)"/>
                </g>
              </g>
            </g>
            <g id="Grupo_1229536" data-name="Grupo 1229536" transform="translate(425.863 280.891)" opacity="0.15">
              <g id="Grupo_1229535" data-name="Grupo 1229535">
                <g id="Grupo_1229534" data-name="Grupo 1229534" clip-path="url(#clip-path-7)">
                  <path id="Trazado_1192246" data-name="Trazado 1192246" d="M1236.96,790.607c.023,18.651-.674,36.351-1.869,53.01h-74.855c-1.21-16.643-1.915-34.352-1.892-53.01q.011-13.637.521-26.586h77.582q.483,12.949.513,26.586" transform="translate(-1158.343 -764.021)"/>
                </g>
              </g>
            </g>
            <path id="Trazado_1192247" data-name="Trazado 1192247" d="M260.989,824.473H132.053a10.088,10.088,0,0,1-10.059-10.059V757.052a10.088,10.088,0,0,1,10.059-10.059H260.989a10.088,10.088,0,0,1,10.059,10.059v57.363a10.088,10.088,0,0,1-10.059,10.059" transform="translate(-77.143 -472.363)" fill="#899e78"/>
            <path id="Trazado_1192248" data-name="Trazado 1192248" d="M731.349,824.473H602.413a10.089,10.089,0,0,1-10.059-10.059V757.052a10.089,10.089,0,0,1,10.059-10.059H731.349a10.088,10.088,0,0,1,10.059,10.059v57.363a10.088,10.088,0,0,1-10.059,10.059" transform="translate(-374.575 -472.363)" fill="#bca78f"/>
            <path id="Trazado_1192249" data-name="Trazado 1192249" d="M1201.708,824.473H1072.772a10.088,10.088,0,0,1-10.059-10.059V757.052a10.088,10.088,0,0,1,10.059-10.059h128.936a10.089,10.089,0,0,1,10.059,10.059v57.363a10.089,10.089,0,0,1-10.059,10.059" transform="translate(-672.007 -472.363)" fill="#eca675"/>
          </g>
        </g>
      </g>
    </g>
    <g id="Grupo_1229558" data-name="Grupo 1229558" transform="translate(-4863.047 135)">
      <g id="Grupo_1227163" data-name="Grupo 1227163" transform="translate(5481.688 6957.146)">
        <path id="Trazado_1189240" data-name="Trazado 1189240" d="M1331.437,2063.772v-24.866l-5.869,3.608v-6.521l5.869-3.521h6.043v31.3Z" transform="translate(-1325.568 -2032.473)" fill="#4a5641"/>
      </g>
      <g id="Grupo_1227211" data-name="Grupo 1227211" transform="translate(5481.688 6952.603)">
        <path id="Trazado_1189826" data-name="Trazado 1189826" d="M1331.437,2037.662V2012.8l-5.869,3.608v-6.521l5.869-3.521h6.043v31.3h-6.043Z" transform="translate(-1325.568 -2006.362)" fill="#fff"/>
      </g>
    </g>
    <g id="Grupo_1229559" data-name="Grupo 1229559" transform="translate(-4831.573 135)">
      <g id="Grupo_1227164" data-name="Grupo 1227164" transform="translate(5621.119 6956.494)">
        <path id="Trazado_1189241" data-name="Trazado 1189241" d="M2127,2060.632v-5.13l13.128-11.65a9.181,9.181,0,0,0,2.087-2.456,4.642,4.642,0,0,0,.609-2.152,5.421,5.421,0,0,0-.587-2.554,4.4,4.4,0,0,0-1.652-1.76,4.756,4.756,0,0,0-2.5-.641,5.033,5.033,0,0,0-2.641.685,4.862,4.862,0,0,0-1.771,1.8,4.536,4.536,0,0,0-.587,2.424H2127a10.584,10.584,0,0,1,1.413-5.564,9.525,9.525,0,0,1,3.934-3.63,12.78,12.78,0,0,1,5.869-1.282,11.171,11.171,0,0,1,5.488,1.337,9.825,9.825,0,0,1,3.815,3.728,10.823,10.823,0,0,1,1.391,5.543,9.9,9.9,0,0,1-.652,3.858,9.027,9.027,0,0,1-1.934,2.826q-1.283,1.294-3.152,2.923l-8.477,7.434-.478-1.3h14.694v5.564Z" transform="translate(-2127 -2028.724)" fill="#665b4e"/>
      </g>
      <g id="Grupo_1227212" data-name="Grupo 1227212" transform="translate(5621.119 6951.951)">
        <path id="Trazado_1189827" data-name="Trazado 1189827" d="M2127,2034.521v-5.13l13.128-11.651a9.181,9.181,0,0,0,2.087-2.456,4.642,4.642,0,0,0,.609-2.152,5.42,5.42,0,0,0-.587-2.554,4.4,4.4,0,0,0-1.652-1.76,4.756,4.756,0,0,0-2.5-.641,5.032,5.032,0,0,0-2.641.685,4.862,4.862,0,0,0-1.771,1.8,4.535,4.535,0,0,0-.587,2.423H2127a10.585,10.585,0,0,1,1.413-5.564,9.524,9.524,0,0,1,3.934-3.63,12.78,12.78,0,0,1,5.869-1.282,11.171,11.171,0,0,1,5.488,1.337,9.826,9.826,0,0,1,3.815,3.728,10.823,10.823,0,0,1,1.391,5.543,9.9,9.9,0,0,1-.652,3.858,9.026,9.026,0,0,1-1.934,2.826q-1.283,1.294-3.152,2.924l-8.477,7.434-.478-1.3h14.694v5.564H2127Z" transform="translate(-2127 -2002.613)" fill="#fff"/>
      </g>
    </g>
    <g id="Grupo_1229560" data-name="Grupo 1229560" transform="translate(-4801.166 135)">
      <g id="Grupo_1227165" data-name="Grupo 1227165" transform="translate(5764.091 6957.146)">
        <path id="Trazado_1189242" data-name="Trazado 1189242" d="M2959.223,2064.339a10.915,10.915,0,0,1-4.478-.945,11.077,11.077,0,0,1-3.706-2.663,10,10,0,0,1-2.25-4.043l5.738-1.522a4.58,4.58,0,0,0,1.793,2.663,4.923,4.923,0,0,0,2.9.946,4.812,4.812,0,0,0,2.467-.652,4.945,4.945,0,0,0,1.782-1.761,4.694,4.694,0,0,0,.663-2.456,4.844,4.844,0,0,0-1.38-3.467,4.671,4.671,0,0,0-3.532-1.445,4.321,4.321,0,0,0-1.261.185,5.6,5.6,0,0,0-1.174.511l-2.652-4.652,9.955-8.26.435,1.261h-14.52v-5.564h19.562v5.564l-7.738,7.477-.043-1.652a9.337,9.337,0,0,1,7.379,5.488,10.935,10.935,0,0,1,.968,4.554,9.692,9.692,0,0,1-1.5,5.314,11.059,11.059,0,0,1-9.412,5.119Z" transform="translate(-2948.79 -2032.474)" fill="#815a3f"/>
      </g>
      <g id="Grupo_1227213" data-name="Grupo 1227213" transform="translate(5764.091 6952.602)">
        <path id="Trazado_1189828" data-name="Trazado 1189828" d="M2959.223,2038.219a10.915,10.915,0,0,1-4.478-.945,11.079,11.079,0,0,1-3.706-2.662,10,10,0,0,1-2.25-4.043l5.738-1.522a4.58,4.58,0,0,0,1.793,2.663,4.923,4.923,0,0,0,2.9.945,4.812,4.812,0,0,0,2.467-.652,4.944,4.944,0,0,0,1.782-1.761,4.7,4.7,0,0,0,.663-2.456,4.843,4.843,0,0,0-1.38-3.467,4.67,4.67,0,0,0-3.532-1.445,4.325,4.325,0,0,0-1.261.185,5.6,5.6,0,0,0-1.174.511l-2.652-4.652,9.955-8.26.435,1.261h-14.52v-5.564h19.562v5.564l-7.738,7.477-.043-1.652a9.337,9.337,0,0,1,7.379,5.488,10.933,10.933,0,0,1,.968,4.554,9.692,9.692,0,0,1-1.5,5.314,11.058,11.058,0,0,1-9.412,5.119Z" transform="translate(-2948.79 -2006.355)" fill="#fff"/>
      </g>
    </g>
    <g id="surface1" transform="translate(605.375 7020.579)">
      <path id="Trazado_1192254" data-name="Trazado 1192254" d="M1.126,399.161H21.55a1.126,1.126,0,0,0,1.126-1.126v-1.2a2.252,2.252,0,0,0-2.253-2.253v-1.347A3.237,3.237,0,0,0,17.19,390H5.486a3.237,3.237,0,0,0-3.234,3.234v1.347A2.252,2.252,0,0,0,0,396.833v1.2A1.127,1.127,0,0,0,1.126,399.161Zm0,0" transform="translate(0 -360.716)" fill="#c2c2c2"/>
      <path id="Trazado_1192255" data-name="Trazado 1192255" d="M98.65,175.093a2.253,2.253,0,0,0,3.6-2.712l-6.778-8.995a2.253,2.253,0,1,0-3.6,2.711Zm0,0" transform="translate(-84.553 -150.289)" fill="#c2c2c2"/>
      <path id="Trazado_1192256" data-name="Trazado 1192256" d="M314.282,12.6a2.253,2.253,0,0,0,3.6-2.711L311.1.9a2.252,2.252,0,1,0-3.6,2.711Zm0,0" transform="translate(-283.995)" fill="#c2c2c2"/>
      <path id="Trazado_1192257" data-name="Trazado 1192257" d="M175.139,71.231a12.216,12.216,0,0,0,3.7-4.452l-7.887-10.466a12.577,12.577,0,0,0-9,6.778l7.887,10.467A12.218,12.218,0,0,0,175.139,71.231Zm0,0" transform="translate(-149.792 -52.084)" fill="#c2c2c2"/>
      <path id="Trazado_1192258" data-name="Trazado 1192258" d="M333.75,258.906a13.584,13.584,0,0,1-3.6,2.711l1.469,1.949,3.6-2.711Zm0,0" transform="translate(-305.362 -239.466)" fill="#c2c2c2"/>
      <path id="Trazado_1192259" data-name="Trazado 1192259" d="M371.364,308.824l-3.6,2.711,6.778,9a2.253,2.253,0,1,0,3.6-2.711Zm0,0" transform="translate(-340.151 -285.636)" fill="#c2c2c2"/>
    </g>
    <g id="surface1-2" data-name="surface1" transform="translate(777.375 7020.579)">
      <path id="Trazado_1192254-2" data-name="Trazado 1192254" d="M1.126,399.161H21.55a1.126,1.126,0,0,0,1.126-1.126v-1.2a2.252,2.252,0,0,0-2.253-2.253v-1.347A3.237,3.237,0,0,0,17.19,390H5.486a3.237,3.237,0,0,0-3.234,3.234v1.347A2.252,2.252,0,0,0,0,396.833v1.2A1.127,1.127,0,0,0,1.126,399.161Zm0,0" transform="translate(0 -360.716)" fill="#c2c2c2"/>
      <path id="Trazado_1192255-2" data-name="Trazado 1192255" d="M98.65,175.093a2.253,2.253,0,0,0,3.6-2.712l-6.778-8.995a2.253,2.253,0,1,0-3.6,2.711Zm0,0" transform="translate(-84.553 -150.289)" fill="#c2c2c2"/>
      <path id="Trazado_1192256-2" data-name="Trazado 1192256" d="M314.282,12.6a2.253,2.253,0,0,0,3.6-2.711L311.1.9a2.252,2.252,0,1,0-3.6,2.711Zm0,0" transform="translate(-283.995)" fill="#c2c2c2"/>
      <path id="Trazado_1192257-2" data-name="Trazado 1192257" d="M175.139,71.231a12.216,12.216,0,0,0,3.7-4.452l-7.887-10.466a12.577,12.577,0,0,0-9,6.778l7.887,10.467A12.218,12.218,0,0,0,175.139,71.231Zm0,0" transform="translate(-149.792 -52.084)" fill="#c2c2c2"/>
      <path id="Trazado_1192258-2" data-name="Trazado 1192258" d="M333.75,258.906a13.584,13.584,0,0,1-3.6,2.711l1.469,1.949,3.6-2.711Zm0,0" transform="translate(-305.362 -239.466)" fill="#c2c2c2"/>
      <path id="Trazado_1192259-2" data-name="Trazado 1192259" d="M371.364,308.824l-3.6,2.711,6.778,9a2.253,2.253,0,1,0,3.6-2.711Zm0,0" transform="translate(-340.151 -285.636)" fill="#c2c2c2"/>
    </g>
    <g id="surface1-3" data-name="surface1" transform="translate(954.375 7020.579)">
      <path id="Trazado_1192254-3" data-name="Trazado 1192254" d="M1.126,399.161H21.55a1.126,1.126,0,0,0,1.126-1.126v-1.2a2.252,2.252,0,0,0-2.253-2.253v-1.347A3.237,3.237,0,0,0,17.19,390H5.486a3.237,3.237,0,0,0-3.234,3.234v1.347A2.252,2.252,0,0,0,0,396.833v1.2A1.127,1.127,0,0,0,1.126,399.161Zm0,0" transform="translate(0 -360.716)" fill="#c2c2c2"/>
      <path id="Trazado_1192255-3" data-name="Trazado 1192255" d="M98.65,175.093a2.253,2.253,0,0,0,3.6-2.712l-6.778-8.995a2.253,2.253,0,1,0-3.6,2.711Zm0,0" transform="translate(-84.553 -150.289)" fill="#c2c2c2"/>
      <path id="Trazado_1192256-3" data-name="Trazado 1192256" d="M314.282,12.6a2.253,2.253,0,0,0,3.6-2.711L311.1.9a2.252,2.252,0,1,0-3.6,2.711Zm0,0" transform="translate(-283.995)" fill="#c2c2c2"/>
      <path id="Trazado_1192257-3" data-name="Trazado 1192257" d="M175.139,71.231a12.216,12.216,0,0,0,3.7-4.452l-7.887-10.466a12.577,12.577,0,0,0-9,6.778l7.887,10.467A12.218,12.218,0,0,0,175.139,71.231Zm0,0" transform="translate(-149.792 -52.084)" fill="#c2c2c2"/>
      <path id="Trazado_1192258-3" data-name="Trazado 1192258" d="M333.75,258.906a13.584,13.584,0,0,1-3.6,2.711l1.469,1.949,3.6-2.711Zm0,0" transform="translate(-305.362 -239.466)" fill="#c2c2c2"/>
      <path id="Trazado_1192259-3" data-name="Trazado 1192259" d="M371.364,308.824l-3.6,2.711,6.778,9a2.253,2.253,0,1,0,3.6-2.711Zm0,0" transform="translate(-340.151 -285.636)" fill="#c2c2c2"/>
    </g>
  </g>
</svg>
