<svg xmlns="http://www.w3.org/2000/svg" xmlns:xlink="http://www.w3.org/1999/xlink" width="103" height="103" viewBox="0 0 103 103">
  <defs>
    <filter id="Trazado_978624" x="0" y="0" width="103" height="103" filterUnits="userSpaceOnUse">
      <feOffset dy="3" input="SourceAlpha"/>
      <feGaussianBlur stdDeviation="3" result="blur"/>
      <feFlood flood-opacity="0.161"/>
      <feComposite operator="in" in2="blur"/>
      <feComposite in="SourceGraphic"/>
    </filter>
  </defs>
  <g id="Grupo_1230210" data-name="Grupo 1230210" transform="translate(-203 -8042.017)">
    <g id="Grupo_1229456" data-name="Grupo 1229456" transform="translate(212 8048.017)">
      <g id="Grupo_1226902" data-name="Grupo 1226902" transform="translate(0)">
        <g id="Grupo_1226078" data-name="Grupo 1226078">
          <g id="Grupo_1224953" data-name="Grupo 1224953">
            <g id="Grupo_1222589" data-name="Grupo 1222589">
              <g id="Grupo_1203109" data-name="Grupo 1203109">
                <g id="Grupo_1176881" data-name="Grupo 1176881">
                  <g id="Grupo_1175148" data-name="Grupo 1175148">
                    <g id="Grupo_1173798" data-name="Grupo 1173798">
                      <g id="Grupo_1171925" data-name="Grupo 1171925">
                        <g id="Grupo_1164524" data-name="Grupo 1164524">
                          <g id="Grupo_1144123" data-name="Grupo 1144123">
                            <g transform="matrix(1, 0, 0, 1, -9, -6)" filter="url(#Trazado_978624)">
                              <g id="Trazado_978624-2" data-name="Trazado 978624" transform="translate(9 6)" fill="#fcf5f0">
                                <path d="M 42.5 83.50006866455078 C 36.96437835693359 83.50006866455078 31.59512901306152 82.41624450683594 26.54141235351562 80.27870178222656 C 21.65934181213379 78.2137451171875 17.27447128295898 75.25728607177734 13.50862312316895 71.49143218994141 C 9.742764472961426 67.72557067871094 6.786305904388428 63.34071350097656 4.721364498138428 58.4586296081543 C 2.583823442459106 53.40491104125977 1.5 48.03566741943359 1.5 42.50003051757812 C 1.5 36.96439361572266 2.583823442459106 31.59514808654785 4.721364498138428 26.54143142700195 C 6.786305904388428 21.65935897827148 9.742764472961426 17.27448844909668 13.50862312316895 13.50863075256348 C 17.27447128295898 9.742783546447754 21.65934181213379 6.786324501037598 26.54141235351562 4.721371650695801 C 31.59512901306152 2.583830595016479 36.96437835693359 1.500007033348083 42.5 1.500007033348083 C 48.03562164306641 1.500007033348083 53.40486907958984 2.583830595016479 58.45858764648438 4.721371650695801 C 63.34066009521484 6.786324501037598 67.72553253173828 9.742783546447754 71.49137878417969 13.50863075256348 C 75.25723266601562 17.27448844909668 78.21369171142578 21.65935897827148 80.27863311767578 26.54143142700195 C 82.41617584228516 31.59514808654785 83.5 36.96439361572266 83.5 42.50003051757812 C 83.5 48.03566741943359 82.41617584228516 53.40491104125977 80.27863311767578 58.4586296081543 C 78.21369171142578 63.34071350097656 75.25723266601562 67.72557067871094 71.49137878417969 71.49143218994141 C 67.72553253173828 75.25728607177734 63.34066009521484 78.2137451171875 58.45858764648438 80.27870178222656 C 53.40486907958984 82.41624450683594 48.03562164306641 83.50006866455078 42.5 83.50006866455078 Z" stroke="none"/>
                                <path d="M 42.5 3.000007629394531 C 37.16621398925781 3.000007629394531 31.99356079101562 4.043960571289062 27.125732421875 6.102882385253906 C 22.42246627807617 8.092201232910156 18.19786834716797 10.94071197509766 14.56928253173828 14.56929779052734 C 10.94070434570312 18.19786834716797 8.092185974121094 22.4224853515625 6.102882385253906 27.12575149536133 C 4.043960571289062 31.99359130859375 3 37.16624450683594 3 42.50003051757812 C 3 47.83381652832031 4.043960571289062 53.0064697265625 6.102882385253906 57.87431335449219 C 8.092185974121094 62.57757568359375 10.94070434570312 66.80219268798828 14.56928253173828 70.43076324462891 C 18.19786834716797 74.05934906005859 22.42246627807617 76.90785980224609 27.125732421875 78.89717864990234 C 31.99356079101562 80.95610046386719 37.16621398925781 82.00006103515625 42.5 82.00006103515625 C 47.83378601074219 82.00006103515625 53.00642395019531 80.95610046386719 57.87425231933594 78.89717864990234 C 62.57753372192383 76.90785980224609 66.80213165283203 74.05934906005859 70.43071746826172 70.43076324462891 C 74.05929565429688 66.80219268798828 76.90781402587891 62.57757568359375 78.89711761474609 57.87431335449219 C 80.95603942871094 53.0064697265625 82 47.83381652832031 82 42.50003051757812 C 82 37.16624450683594 80.95603942871094 31.99359130859375 78.89711761474609 27.12575149536133 C 76.90781402587891 22.4224853515625 74.05929565429688 18.19786834716797 70.43071746826172 14.56929779052734 C 66.80213165283203 10.94071197509766 62.57753372192383 8.092201232910156 57.87425231933594 6.102882385253906 C 53.00642395019531 4.043960571289062 47.83378601074219 3.000007629394531 42.5 3.000007629394531 M 42.5 7.62939453125e-06 C 65.97209167480469 7.62939453125e-06 85 19.02790832519531 85 42.50003051757812 C 85 65.97215270996094 65.97209167480469 85.00005340576172 42.5 85.00005340576172 C 19.02789306640625 85.00005340576172 0 65.97215270996094 0 42.50003051757812 C 0 19.02790832519531 19.02789306640625 7.62939453125e-06 42.5 7.62939453125e-06 Z" stroke="none" fill="#eca675"/>
                              </g>
                            </g>
                          </g>
                        </g>
                      </g>
                    </g>
                  </g>
                </g>
              </g>
            </g>
          </g>
        </g>
      </g>
    </g>
    <g id="genetico" transform="translate(230.467 8066.483)">
      <g id="Grupo_1230209" data-name="Grupo 1230209" transform="translate(14.901 0.775)">
        <g id="Grupo_1230198" data-name="Grupo 1230198" transform="translate(9.133 10.854)">
          <path id="Trazado_1193333" data-name="Trazado 1193333" d="M54.258,31.73a2.647,2.647,0,0,1-2.651,2.651,2.438,2.438,0,0,1-.341-.023,2.671,2.671,0,0,1-1.682-.907l-4.636-5.4a1.314,1.314,0,0,0,.008-.178,4.1,4.1,0,0,0-.69-2.272l-.442-.667a1.432,1.432,0,0,0-1.178-.628,1.393,1.393,0,0,0-.729.2l-2.83-3.3-2.659-3.1H31V15h7.109a1.555,1.555,0,0,1,1.1.457l.318.318L44.955,21.2l7.753,7.753.69.69a2.951,2.951,0,0,1,.861,2.085Z" transform="translate(-31 -15)" fill="#aab2bd"/>
        </g>
        <g id="Grupo_1230199" data-name="Grupo 1230199" transform="translate(29.29 4.652)">
          <ellipse id="Elipse_14832" data-name="Elipse 14832" cx="1.5" cy="2" rx="1.5" ry="2" transform="translate(-0.124 -0.427)" fill="#ef7385"/>
        </g>
        <g id="Grupo_1230200" data-name="Grupo 1230200" transform="translate(15.335)">
          <path id="Trazado_1193334" data-name="Trazado 1193334" d="M40.551,1a1.551,1.551,0,0,1,1.24,2.481,1.572,1.572,0,0,1-1.24.62,1.551,1.551,0,0,1,0-3.1Z" transform="translate(-39 -1)" fill="#ef7385"/>
        </g>
        <g id="Grupo_1230201" data-name="Grupo 1230201" transform="translate(19.987 3.101)">
          <path id="Trazado_1193335" data-name="Trazado 1193335" d="M50.3,5.907A3.1,3.1,0,1,1,48.1,5,3.121,3.121,0,0,1,50.3,5.907Z" transform="translate(-45 -5)" fill="#ef7385"/>
        </g>
        <g id="Grupo_1230202" data-name="Grupo 1230202" transform="translate(9.133 24.809)">
          <path id="Trazado_1193336" data-name="Trazado 1193336" d="M32.551,33a1.551,1.551,0,0,1,0,3.1,1.484,1.484,0,0,1-.69-.163A1.55,1.55,0,0,1,32.551,33Z" transform="translate(-31 -33)" fill="#ef7385"/>
        </g>
        <g id="Grupo_1230203" data-name="Grupo 1230203" transform="translate(0 40.314)">
          <path id="Trazado_1193337" data-name="Trazado 1193337" d="M22.151,54.551A1.555,1.555,0,0,1,20.6,56.1a1.632,1.632,0,0,1-.434-.062,9.887,9.887,0,0,0-.946-2.21h.008A1.553,1.553,0,0,1,20.6,53a1.484,1.484,0,0,1,.69.163,1.552,1.552,0,0,1,.861,1.388Z" transform="translate(-19.22 -53)" fill="#ef7385"/>
        </g>
        <g id="Grupo_1230204" data-name="Grupo 1230204" transform="translate(2.931 31.011)">
          <path id="Trazado_1193338" data-name="Trazado 1193338" d="M27.737,41.465A3.108,3.108,0,1,1,26.1,41,3.1,3.1,0,0,1,27.737,41.465Z" transform="translate(-23 -41)" fill="#ef7385"/>
        </g>
        <g id="Grupo_1230205" data-name="Grupo 1230205" transform="translate(16.11 41.865)">
          <path id="Trazado_1193339" data-name="Trazado 1193339" d="M51.629,55.775v3.876H40V55H50.854A.778.778,0,0,1,51.629,55.775Z" transform="translate(-40 -55)" fill="#5cd6b3"/>
        </g>
        <g id="Grupo_1230206" data-name="Grupo 1230206" transform="translate(23.088 17.056)">
          <path id="Trazado_1193340" data-name="Trazado 1193340" d="M56.753,30.753,49,23h3.279a3.083,3.083,0,0,1,2.9,2.016l1.031,2.737a8.629,8.629,0,0,1,.543,3Z" transform="translate(-49 -23)" fill="#f5e0cd"/>
        </g>
        <g id="Grupo_1230207" data-name="Grupo 1230207" transform="translate(13.784 20.157)">
          <path id="Trazado_1193341" data-name="Trazado 1193341" d="M46.3,30.745l4.636,5.4a2.671,2.671,0,0,0,1.682.907L49.9,44.289a7.757,7.757,0,0,0-.5,2.721v1.7H39.326l-2.155-8.621A5.576,5.576,0,0,1,37,38.7a5.687,5.687,0,0,1,.853-3l3.5-5.706h.008l1.419-2.318a1.474,1.474,0,0,1,.481-.473,1.393,1.393,0,0,1,.729-.2,1.432,1.432,0,0,1,1.178.628l.442.667a4.1,4.1,0,0,1,.69,2.272,1.314,1.314,0,0,1-.008.178Z" transform="translate(-37 -27)" fill="#f5e0cd"/>
        </g>
        <g id="Grupo_1230208" data-name="Grupo 1230208" transform="translate(12.234 17.056)">
          <path id="Trazado_1193342" data-name="Trazado 1193342" d="M39.985,23l2.83,3.3a1.474,1.474,0,0,0-.481.473l-1.419,2.318h-.008l-4.473-1.682A2.2,2.2,0,0,1,35,25.349v-.054A2.288,2.288,0,0,1,37.287,23Z" transform="translate(-35 -23)" fill="#f5e0cd"/>
        </g>
      </g>
      <path id="Trazado_1193343" data-name="Trazado 1193343" d="M42.309,38.495l2.524-6.729a3.426,3.426,0,0,0,3.234-3.41,3.7,3.7,0,0,0-1.091-2.633l-.475-.475a9.3,9.3,0,0,0-.578-2.938L44.9,19.571a3.891,3.891,0,0,0-3.626-2.515h-2.96L33.658,12.4l2.2-2.2a3.85,3.85,0,0,0,4.269,0l1.969,1.969,1.1-1.1L41.219,9.112a3.846,3.846,0,0,0,.567-1.359h1.771a2.326,2.326,0,1,0,0-1.551H41.786a3.846,3.846,0,0,0-.567-1.359l1.969-1.969-1.1-1.1L40.123,3.747a3.827,3.827,0,0,0-4.693.342L34,3.014a2.3,2.3,0,0,0,.116-.688A2.331,2.331,0,1,0,33.074,4.26L34.5,5.326a3.8,3.8,0,0,0,.262,3.786l-2.219,2.219a2.3,2.3,0,0,0-1.4-.477H27.65a21.972,21.972,0,0,0,.26-3.344V3.1H20.157V4.652h6.2V7.51c0,.081,0,.162-.006.243h-6.2V9.3h6.119c-.046.519-.113,1.037-.2,1.551h-2.82V12.4h-3.1v1.551h3.1v1.551h1.468c-.226.528-.48,1.043-.75,1.551H20.157v1.551h2.911a20.422,20.422,0,0,1-2.684,3.328l1.1,1.1a22.1,22.1,0,0,0,4.912-7.526H29.1l1.329,1.551H29.421a3.082,3.082,0,0,0-3.062,3.123,3,3,0,0,0,1.935,2.793l3.6,1.349-3.018,4.9a6.5,6.5,0,0,0-.771,4.983l2.132,8.527v3.781H17.023a12.173,12.173,0,0,0-.2-1.622,2.308,2.308,0,0,0,1.169-3.814l1.6-2.57a3.785,3.785,0,0,0,3.475-.393l2.744,2.744,1.1-1.1-2.744-2.744a3.847,3.847,0,0,0-.572-4.942l1.651-2.655a2.271,2.271,0,0,0,.343.035,2.349,2.349,0,1,0-1.713-.767l-1.6,2.57a3.785,3.785,0,0,0-3.475.393L17.6,30.463l-1.1,1.1L17.7,32.753a3.847,3.847,0,0,0,.572,4.942l-1.651,2.655a2.271,2.271,0,0,0-.343-.035,2.322,2.322,0,0,0-1.24.359,22.861,22.861,0,0,0-5.225-5.011c3.689-2.794,7.24-5.856,7.24-11.629,0-6.2-4.1-9.276-8.063-12.249A31.8,31.8,0,0,1,4.28,7.753H9.3V6.2H3.091a9.833,9.833,0,0,1-.8-1.551H9.3V3.1H1.8a10.248,10.248,0,0,1-.226-1.551H9.3V0H0V.775C0,6.548,3.552,9.611,7.239,12.4,3.552,15.2,0,18.261,0,24.033s3.552,8.835,7.239,11.629C3.552,38.457,0,41.519,0,47.292v.775H48.067V46.516H43.415v-3.1a1.552,1.552,0,0,0-1.551-1.551v-.92a6.957,6.957,0,0,1,.444-2.45ZM25.584,26.359a.775.775,0,1,1-.775.775A.776.776,0,0,1,25.584,26.359Zm-4.652,6.2a2.326,2.326,0,1,1-2.326,2.326A2.329,2.329,0,0,1,20.932,32.561ZM41.269,18.607a2.332,2.332,0,0,1,2.174,1.509l1.027,2.738c.067.178.122.357.175.538L39.86,18.607ZM45.741,6.2a.775.775,0,1,1-.775.775A.777.777,0,0,1,45.741,6.2ZM37.988,4.652a2.326,2.326,0,1,1-2.326,2.326A2.329,2.329,0,0,1,37.988,4.652ZM31.786,3.1a.775.775,0,1,1,.775-.775A.777.777,0,0,1,31.786,3.1ZM24.809,13.955V12.4h6.335a.772.772,0,0,1,.549.227L45.88,26.819a2.159,2.159,0,0,1,.636,1.537,1.88,1.88,0,0,1-3.307,1.223l-4.454-5.2a4.849,4.849,0,0,0-.809-2.585l-.443-.664a2.19,2.19,0,0,0-1.825-.976,2.119,2.119,0,0,0-.491.064l-5.371-6.267Zm4.03,7.564a1.454,1.454,0,0,1-.929-1.389,1.518,1.518,0,0,1,1.51-1.523h2.341L33.9,21.1c-.026.036-.06.065-.085.1L32.72,22.974Zm-14.074,21.9H2.289a9.832,9.832,0,0,1,.8-1.551H13.957A9.857,9.857,0,0,1,14.765,43.415Zm1.516-1.551a.776.776,0,0,1,.775.775.8.8,0,0,1-.634.752,10.972,10.972,0,0,0-.588-1.379.771.771,0,0,1,.447-.148ZM2.291,27.91H14.765a9.8,9.8,0,0,1-.809,1.551H3.1a9.857,9.857,0,0,1-.808-1.551Zm12.474-7.753H2.291A9.8,9.8,0,0,1,3.1,18.607H13.957A9.857,9.857,0,0,1,14.765,20.157Zm.485,1.551a10.352,10.352,0,0,1,.223,1.551H1.583a10.253,10.253,0,0,1,.223-1.551Zm.223,3.1a10.253,10.253,0,0,1-.223,1.551H1.806a10.352,10.352,0,0,1-.223-1.551ZM8.528,13.374a28.93,28.93,0,0,1,4.25,3.682h-8.5A28.93,28.93,0,0,1,8.528,13.374ZM4.278,31.011h8.5a28.93,28.93,0,0,1-4.25,3.682,28.963,28.963,0,0,1-4.249-3.682Zm4.25,5.622a28.93,28.93,0,0,1,4.25,3.682H4.28A28.909,28.909,0,0,1,8.528,36.632ZM1.8,44.966H15.25a10.352,10.352,0,0,1,.223,1.551H1.576A10.248,10.248,0,0,1,1.8,44.966Zm29.984,1.551v-3.1H41.865v3.1Zm9.071-8.566a8.511,8.511,0,0,0-.543,2.994v.92h-8.7l-2.008-8.032a4.95,4.95,0,0,1,.586-3.8l4.938-8.024a.67.67,0,0,1,1.082-.02l.443.664a3.32,3.32,0,0,1,.12,3.486l-2.154,3.769a3.878,3.878,0,0,0-.511,1.923v1.5h1.551v-1.5a2.332,2.332,0,0,1,.306-1.154l2.154-3.769a4.8,4.8,0,0,0,.275-.564l3.634,4.24a3.421,3.421,0,0,0,1.245.91Z" transform="translate(0)"/>
    </g>
  </g>
</svg>
