<svg xmlns="http://www.w3.org/2000/svg" xmlns:xlink="http://www.w3.org/1999/xlink" width="295" height="233.555" viewBox="0 0 295 233.555">
  <defs>
    <clipPath id="clip-path">
      <rect id="Rect치ngulo_421170" data-name="Rect치ngulo 421170" width="295" height="233.555" transform="translate(0 -4.544)" fill="#fff" stroke="#707070" stroke-width="1"/>
    </clipPath>
  </defs>
  <g id="Grupo_1230169" data-name="Grupo 1230169" transform="translate(-180 -1362.809)">
    <rect id="Rect치ngulo_423082" data-name="Rect치ngulo 423082" width="126" height="212" rx="10" transform="translate(327 1384)" fill="#248abf"/>
    <g id="Grupo_1221420" data-name="Grupo 1221420" transform="translate(180 1341.364)">
      <g id="Enmascarar_grupo_1153335" data-name="Enmascarar grupo 1153335" transform="translate(0 25.989)" clip-path="url(#clip-path)">
        <g id="_415385108_40d08c30-ff12-45b4-ad64-cde0f12e662a" data-name="415385108_40d08c30-ff12-45b4-ad64-cde0f12e662a" transform="translate(32.994 12.015)">
          <g id="katman_1_00000111904205211117526010000014708471378912866982_" transform="translate(0 0)">
            <g id="Grupo_1221419" data-name="Grupo 1221419">
              <path id="Trazado_1170672" data-name="Trazado 1170672" d="M4289.8,2856.032a44.448,44.448,0,0,0,1.395,4.523c1.228,3.32,2.118,6.76,3.417,10.081.313,1.468.963,2.863,1.371,4.306.891,2.55,1.563,5.2,2.6,7.7h.746a17.291,17.291,0,0,0-.818-2.622c-2.6-8.18-5.485-16.264-7.963-24.468-.409.1-.793.169-1.2.24.12.072.361.193.481.265Z" transform="translate(-4273.771 -2731.251)" fill="#e9a22e"/>
              <path id="Trazado_1170673" data-name="Trazado 1170673" d="M1893.739,533.069a23.571,23.571,0,0,0-6.688-2.358,8.935,8.935,0,0,0-6.76,1.636,8.281,8.281,0,0,0-5.245-1.347,18.45,18.45,0,0,0-7.65,2.526,24.71,24.71,0,0,0-9.672,9.84,34.84,34.84,0,0,0-4.282,14.291c-.24,1.949-.168,3.946-.577,5.87a25.405,25.405,0,0,1-2.863,7,43.117,43.117,0,0,0-2.334,4.427,41.454,41.454,0,0,0-2.863,11.668,16.338,16.338,0,0,0,2.334,10.8A20.405,20.405,0,0,0,1857.362,605a21.168,21.168,0,0,0,7.338,1.323,38.716,38.716,0,0,0,4.4-.337v-5.654a22.647,22.647,0,0,1-5.148-5.966,53.324,53.324,0,0,1-3.224-9.118c-1.8.457-3.488-.77-4.667-2.021a15.831,15.831,0,0,1-4.355-8.156,9.271,9.271,0,0,1,.505-4.788,3.8,3.8,0,0,1,3.561-2.31,4.258,4.258,0,0,1,2.526,1.371,11.266,11.266,0,0,1,1.275.409c-.12-.1-.337-.289-.457-.361a5.586,5.586,0,0,1,.866-2.382,14.179,14.179,0,0,1,1.2-1.2,112.979,112.979,0,0,0,8.95-9.335c2.839-3.368,4.86-7.314,7.1-11.091a23.548,23.548,0,0,0,5.557,6.76c3.825,3.272,7.723,6.424,11.789,9.359,2.021,1.468,4.307,2.574,6.3,4.09,1.251.938,2.815,1.9,3.007,3.609-.073.1-.217.241-.289.337a3.41,3.41,0,0,0,1.4,0,3.365,3.365,0,0,1,4.379-1.131c1.732.866,2.382,2.911,2.382,4.739.12,3.777-1.925,7.242-4.379,9.96-1.2,1.3-2.839,2.55-4.715,2.165a61.851,61.851,0,0,1-3.128,8.733,18.43,18.43,0,0,1-5.1,5.967c0,.866,0,1.756-.024,2.646,0,1.131-.024,2.285-.024,3.416a29.182,29.182,0,0,0,8.565-.192,22.085,22.085,0,0,0,11.74-6.3,15.141,15.141,0,0,0,4.667-9.816c.313-5.148-1.371-10.177-3.488-14.82a41.279,41.279,0,0,0-3.8-7.025c-2-3.176-2.189-7-2.743-10.61a56.062,56.062,0,0,0-1.42-7.145,29.017,29.017,0,0,0-5.75-10.345,26.4,26.4,0,0,0-8.42-6.76Z" transform="translate(-1763.147 -530.602)" fill="#222121"/>
              <path id="Trazado_1170674" data-name="Trazado 1170674" d="M2156.794,814.357a24.636,24.636,0,0,1-5.557-6.76c-2.237,3.777-4.234,7.723-7.1,11.091a117.02,117.02,0,0,1-8.95,9.335c.168.12.505.361.674.457,3.512-2.959,8.613-3.055,12.8-1.636.553.216,1.251.505,1.4,1.155.1.553-.53.914-1.01.89a16.889,16.889,0,0,1-3.248-.818c-2.6-.649-5.413-1.034-7.988-.048a19.787,19.787,0,0,1-2.358.89h-.072a10.249,10.249,0,0,0,.842,1.4c.553.072,1.106.168,1.636.265,3.344-2.454,8.492-2.43,11.548.505a7.371,7.371,0,0,1,2.117,3.705,7.457,7.457,0,0,1,7.915.072,7.673,7.673,0,0,1,4.307-5.2,9.117,9.117,0,0,1,10.129,1.732,9.57,9.57,0,0,1,1.371,2.406c.77-.7,1.516-1.419,2.31-2.045.072-.1.217-.241.289-.337-.192-1.708-1.756-2.671-3.007-3.609-2.021-1.492-4.283-2.622-6.3-4.09-4.066-2.935-7.964-6.111-11.789-9.359m17.9,13.665c.289.289.866.505.818.986a14.884,14.884,0,0,0-3.1-1.227,15.24,15.24,0,0,0-6.833.241c-1.106.241-2.141.722-3.248.89-.6.1-1.443-.313-1.275-1.035.337-.7,1.131-.914,1.8-1.155a17.316,17.316,0,0,1,6.471-.722,11.975,11.975,0,0,1,5.414,2.021Z" transform="translate(-2037.125 -792.788)" fill="#eeaa8d"/>
              <path id="Trazado_1170675" data-name="Trazado 1170675" d="M2194.292,1152.7a11.975,11.975,0,0,0-5.413-2.021,17.374,17.374,0,0,0-6.472.722c-.674.241-1.468.457-1.8,1.155-.144.722.674,1.131,1.275,1.035,1.131-.168,2.166-.674,3.248-.89a15.992,15.992,0,0,1,6.833-.24,13.907,13.907,0,0,1,3.1,1.227c.048-.481-.53-.7-.818-.986Z" transform="translate(-2056.772 -1117.469)" fill="#1f1f1e"/>
              <path id="Trazado_1170676" data-name="Trazado 1170676" d="M2668.437,1151.85c-4.186-1.419-9.262-1.323-12.8,1.636-.12.12-.313.337-.433.433a21.475,21.475,0,0,0,2.357-.89c2.574-.962,5.389-.578,7.988.048a18.871,18.871,0,0,0,3.248.818c.481,0,1.107-.361,1.01-.89-.144-.65-.842-.938-1.4-1.155Z" transform="translate(-2556.9 -1117.794)" fill="#21201e"/>
              <path id="Trazado_1170677" data-name="Trazado 1170677" d="M2885.382,1190.107c-.168-.12-.505-.337-.673-.457a14.178,14.178,0,0,0-1.2,1.2,5.919,5.919,0,0,0-.866,2.382c.12.1.337.265.457.361a24.935,24.935,0,0,1,2.045,1.852,6.994,6.994,0,0,1,2.237-3.2c-.553-.1-1.082-.192-1.636-.265a10.25,10.25,0,0,1-.842-1.4h.072c.12-.12.313-.337.433-.433Z" transform="translate(-2786.62 -1154.415)" fill="#eeb093"/>
              <path id="Trazado_1170678" data-name="Trazado 1170678" d="M2156.513,1206.775a9.116,9.116,0,0,0-10.128-1.732,7.723,7.723,0,0,0-4.306,5.2,6.206,6.206,0,0,1-10.032-3.777c-3.055-2.935-8.2-2.959-11.548-.505a7.121,7.121,0,0,0-2.238,3.2,24.922,24.922,0,0,0-2.045-1.853,7.835,7.835,0,0,0-1.275-.409c.842,1.251,2.165,2.021,3.176,3.1a7.436,7.436,0,0,0,.7,4.379,8.333,8.333,0,0,0,8.468,4.523,7.916,7.916,0,0,0,6.905-6.5c.12-.505-.1-1.131.216-1.564a6.681,6.681,0,0,1,7.482.144c.24.842.168,1.78.433,2.622a8.151,8.151,0,0,0,6.833,5.293,8.3,8.3,0,0,0,7.434-3.176,7.7,7.7,0,0,0,1.54-5.8c.818-.77,1.612-1.54,2.454-2.261.072.625.168,1.275.264,1.9a7.079,7.079,0,0,1,.7-2.5,3.409,3.409,0,0,1-1.4,0c-.818.65-1.54,1.371-2.31,2.045a8.212,8.212,0,0,0-1.372-2.406m-1.66-.385a6.179,6.179,0,0,1,2.622,4.908,6.911,6.911,0,0,1-3.176,5.774,7.567,7.567,0,0,1-7.217.65,8.144,8.144,0,0,1-3.561-3.128c.794-.553.313-2.117-.722-1.973a6.3,6.3,0,0,1,1.3-4.812,8.041,8.041,0,0,1,10.73-1.443m-24.588-.313a6.672,6.672,0,0,1,3.393,6.231c.1.481-.481.337-.77.385a1.372,1.372,0,0,0,0,1.949,8.641,8.641,0,0,1-2.983,2.839,7.664,7.664,0,0,1-9.238-1.612,6.716,6.716,0,0,1-1.588-6.015,6.458,6.458,0,0,1,3.008-3.874,8.266,8.266,0,0,1,8.179.1Z" transform="translate(-2019.739 -1168.172)" fill="#0c0d0b"/>
              <path id="Trazado_1170679" data-name="Trazado 1170679" d="M2203.54,1218.863a8.041,8.041,0,0,0-10.73,1.444,6.2,6.2,0,0,0-1.3,4.812,1.114,1.114,0,0,1,.722,1.973,8.017,8.017,0,0,0,3.561,3.128,7.632,7.632,0,0,0,7.217-.65,6.943,6.943,0,0,0,3.176-5.774,6.179,6.179,0,0,0-2.622-4.908m-.1,3.464c-.072.12-.193.385-.265.505a15.394,15.394,0,0,0-3.536-1.083,1.978,1.978,0,0,1,0,2,1.633,1.633,0,0,1-2.454.217,2.459,2.459,0,0,1-.5-1.684,8.2,8.2,0,0,0-2.045,1.3.409.409,0,0,1-.7-.337,8.394,8.394,0,0,1,3.994-2.189,8.578,8.578,0,0,1,5.533,1.275Z" transform="translate(-2068.474 -1180.717)" fill="#eeaa8d"/>
              <path id="Trazado_1170680" data-name="Trazado 1170680" d="M2648.793,1217.932a8.328,8.328,0,0,0-8.18-.1,6.548,6.548,0,0,0-3.007,3.873,6.855,6.855,0,0,0,1.588,6.015,7.663,7.663,0,0,0,9.238,1.612,8.643,8.643,0,0,0,2.983-2.839,1.372,1.372,0,0,1,0-1.949c.289-.048.866.1.77-.385a6.694,6.694,0,0,0-3.392-6.231m.673,4.6c.361.289.024.7-.361.577a9.169,9.169,0,0,0-2.406-1.492,2.159,2.159,0,0,1-.265,1.588,1.611,1.611,0,0,1-2.767-.313c-.289-.553,0-1.179.072-1.756a22.253,22.253,0,0,0-2.935,1.01c-.312.289-.89-.193-.529-.529a8.518,8.518,0,0,1,5.293-1.107,7.772,7.772,0,0,1,3.9,2Z" transform="translate(-2538.338 -1180.123)" fill="#eeaa8d"/>
              <path id="Trazado_1170681" data-name="Trazado 1170681" d="M2044.276,1230.9a3.34,3.34,0,0,0-4.378,1.131,8.054,8.054,0,0,0-.7,2.5c-.12-.626-.193-1.251-.265-1.9-.842.722-1.66,1.492-2.454,2.262a7.7,7.7,0,0,1-1.54,5.8,8.219,8.219,0,0,1-7.434,3.176,8.111,8.111,0,0,1-6.832-5.293c-.289-.842-.193-1.78-.433-2.622a6.6,6.6,0,0,0-7.482-.144c-.312.433-.12,1.059-.216,1.564a7.968,7.968,0,0,1-6.9,6.5,8.333,8.333,0,0,1-8.469-4.523,7.627,7.627,0,0,1-.7-4.379c-1.034-1.059-2.357-1.852-3.176-3.1a4.528,4.528,0,0,0-2.526-1.371,3.8,3.8,0,0,0-3.56,2.31,9,9,0,0,0-.505,4.788,16.107,16.107,0,0,0,4.354,8.156c1.155,1.275,2.839,2.478,4.667,2.021a53.3,53.3,0,0,0,3.224,9.118,22.583,22.583,0,0,0,5.148,5.967v5.654c.1,2.863-.1,5.7-.265,8.565,1.66,1.468,3.513,2.695,5.245,4.066,2.382,1.9,4.86,3.681,7.29,5.533V1287a2.354,2.354,0,0,0,.265-.241c3.849-2.767,7.579-5.726,11.4-8.541.529-.409,1.035-.842,1.564-1.251-.168-2.791-.264-5.606-.264-8.421,0-1.131,0-2.286.024-3.416-1.2.962-2.141,2.165-3.344,3.152-2.382,1.973-5.028,3.8-8.108,4.379a11.59,11.59,0,0,1-8.324-1.468,17.345,17.345,0,0,1-5.365-4.788,13.169,13.169,0,0,1,0-3.368c1.01.577,1.828,1.419,2.791,2.045a39.494,39.494,0,0,0,3.537,2.021,13.176,13.176,0,0,0,7.891,1.3c2.646-.385,5-1.78,7.241-3.128,1.323-.794,2.454-1.9,3.705-2.791a18.688,18.688,0,0,0,5.1-5.966,66.251,66.251,0,0,0,3.128-8.733c1.876.385,3.512-.89,4.715-2.165,2.454-2.719,4.5-6.183,4.379-9.96,0-1.829-.65-3.874-2.382-4.74m-54.4,3.32a25.092,25.092,0,0,1,3.874,7.627c.048.505-.6.433-.674.024a36.142,36.142,0,0,0-1.684-3.825,13.55,13.55,0,0,0-.722,2.911c-.337.12-.842-.12-.674-.529a8.689,8.689,0,0,1,1.035-3.152,12.748,12.748,0,0,0-2.166-3.128c.049-.746.794-.361,1.011.072m53.866-.217v.385a14.584,14.584,0,0,0-2.117,3.392,8.535,8.535,0,0,1,1.131,3.464h-.722a4.66,4.66,0,0,0-.866-2.478c-.553,1.371-1.179,2.743-1.636,4.138a2.764,2.764,0,0,1-.625-.072,24.874,24.874,0,0,1,4.066-8.613c.144-.313.481-.241.77-.265m-25.237,2.165c.192,1.275.12,2.55.289,3.825a42.972,42.972,0,0,0,1.01,5.245,2.632,2.632,0,0,1-.192,2.093,4.891,4.891,0,0,1-3.464,1.853,4.613,4.613,0,0,1-2.646-1.01c0-.337.145-.481.481-.457a5.544,5.544,0,0,0,2.406.77,4.338,4.338,0,0,0,2.815-1.828,17.588,17.588,0,0,0-.6-3.513,29.85,29.85,0,0,1-.649-6.857,3.382,3.382,0,0,0,.529-.12m-2.069,17.875a4.329,4.329,0,0,1,2.382-.409,18.272,18.272,0,0,1,3.8,1.468,2.066,2.066,0,0,1,.77,0c.1.457-.217.673-.626.7a3.6,3.6,0,0,1-1.323,1.492,9.269,9.269,0,0,1-9.335.481,4.621,4.621,0,0,1-2-1.78,3.2,3.2,0,0,1-.77-.361c.1-.457.578-.433.938-.385a17.137,17.137,0,0,1,3.705-1.516,2.891,2.891,0,0,1,2.43.337m1.756,6.712c-.842.024-1.636-.529-2.478-.241-.409.048-.818.481-1.2.144,0-.938,1.251-.914,1.925-.986.674.072,1.949.024,1.756,1.059Z" transform="translate(-1898.047 -1193.066)" fill="#edaa8f"/>
              <path id="Trazado_1170682" data-name="Trazado 1170682" d="M2251.823,1286.191a8.577,8.577,0,0,0-5.533-1.275,8.288,8.288,0,0,0-3.994,2.19.411.411,0,0,0,.7.337,8.652,8.652,0,0,1,2.045-1.3,2.423,2.423,0,0,0,.505,1.684,1.648,1.648,0,0,0,2.454-.217,1.977,1.977,0,0,0,0-2,16.257,16.257,0,0,1,3.536,1.083c.073-.12.193-.385.265-.505Z" transform="translate(-2116.83 -1244.557)" fill="#171717"/>
              <path id="Trazado_1170683" data-name="Trazado 1170683" d="M2691.933,1288.4a7.589,7.589,0,0,0-3.9-2,5.014,5.014,0,0,0-1.829.625c-.072.578-.361,1.179-.072,1.756a1.612,1.612,0,0,0,2.767.313,2.155,2.155,0,0,0,.265-1.588,9.572,9.572,0,0,1,2.406,1.492c.385.12.7-.313.361-.577Z" transform="translate(-2580.804 -1245.993)" fill="#181718"/>
              <path id="Trazado_1170684" data-name="Trazado 1170684" d="M2767,1285.118a8.518,8.518,0,0,0-5.293,1.107c-.361.337.217.818.529.529a24.829,24.829,0,0,1,2.935-1.01A5.007,5.007,0,0,1,2767,1285.118Z" transform="translate(-2659.767 -1244.71)" fill="#10100a"/>
              <path id="Trazado_1170685" data-name="Trazado 1170685" d="M2977.2,1292.056c-.217-.433-.962-.818-1.01-.072a12.75,12.75,0,0,1,2.165,3.128,9.158,9.158,0,0,0-1.034,3.152c-.168.409.337.649.674.529a12,12,0,0,1,.721-2.911c.722,1.179,1.059,2.574,1.684,3.825.072.409.722.481.674-.024A25.364,25.364,0,0,0,2977.2,1292.056Z" transform="translate(-2885.322 -1250.878)" fill="#c47156"/>
              <path id="Trazado_1170686" data-name="Trazado 1170686" d="M2045.976,1296.7c-.265,0-.626-.048-.77.265a25.086,25.086,0,0,0-4.066,8.613,2.768,2.768,0,0,0,.625.072c.457-1.419,1.083-2.767,1.636-4.138a4.732,4.732,0,0,1,.866,2.478h.722a8.18,8.18,0,0,0-1.131-3.464,13.821,13.821,0,0,1,2.117-3.392v-.433Z" transform="translate(-1900.228 -1255.742)" fill="#c57156"/>
              <path id="Trazado_1170687" data-name="Trazado 1170687" d="M2491.162,1336.35a3.411,3.411,0,0,0-.529.12,31.243,31.243,0,0,0,.65,6.857,17.6,17.6,0,0,1,.6,3.512,4.338,4.338,0,0,1-2.814,1.828,5.349,5.349,0,0,1-2.406-.77c-.337-.024-.481.12-.481.457a4.454,4.454,0,0,0,2.646,1.01,4.806,4.806,0,0,0,3.464-1.852,2.633,2.633,0,0,0,.192-2.093,48.13,48.13,0,0,1-1.01-5.245c-.168-1.275-.12-2.55-.289-3.825Z" transform="translate(-2370.652 -1293.272)" fill="#bf7559"/>
              <path id="Trazado_1170688" data-name="Trazado 1170688" d="M1520.593,1362.943c-5.51-.77-10.971-2.045-16.48-2.743,2.093,4.643,3.8,9.672,3.489,14.82a15.2,15.2,0,0,1-4.667,9.816,22.25,22.25,0,0,1-11.74,6.3,29.2,29.2,0,0,1-8.565.193c0,2.815.1,5.606.265,8.42a16.046,16.046,0,0,1,1.852-1.3c.553,0,1.131.12,1.684.168a2.342,2.342,0,0,1,1.2-.289,14.572,14.572,0,0,1,3.392.24c5.028,1.54,10.08,3.031,15.085,4.667a26.13,26.13,0,0,0,3.32.938c4.186-.433,8.372-.77,12.51-1.4a4.946,4.946,0,0,0,3.464-3.441,23.02,23.02,0,0,0,.385-3.151c.89-8.4,1.564-16.841.938-25.285a10.077,10.077,0,0,0-.65-3.777,6.966,6.966,0,0,0-5.437-4.21Z" transform="translate(-1351.364 -1315.847)" fill="#663b2c"/>
              <path id="Trazado_1170689" data-name="Trazado 1170689" d="M2807.409,1360.65c-5.557.674-11.043,1.877-16.576,2.695a7.017,7.017,0,0,0-5.894,6.087c-1.035,9.864,0,19.8.938,29.64a5.182,5.182,0,0,0,3.585,4.162c3.055.433,6.135.746,9.215,1.083a18.926,18.926,0,0,0,4.354.265c4.932-1.588,9.912-3.08,14.868-4.6,1.443-.433,2.814-1.131,4.354-1.083a9.444,9.444,0,0,1,3.079.1c.553-.024,1.227-.385,1.684.072.529.385,1.035.77,1.54,1.179.168-2.863.361-5.7.264-8.565-1.467.12-2.911.361-4.4.337a21.373,21.373,0,0,1-7.338-1.323,20.406,20.406,0,0,1-10.225-7.578,16.2,16.2,0,0,1-2.333-10.8,42.288,42.288,0,0,1,2.863-11.668Z" transform="translate(-2722.842 -1316.273)" fill="#663a2c"/>
              <path id="Trazado_1170690" data-name="Trazado 1170690" d="M2443.275,1662.207a2.9,2.9,0,0,0-2.43-.337,18.455,18.455,0,0,0-3.705,1.516,12.752,12.752,0,0,0,3.128.553,20.743,20.743,0,0,0,6.568-.12,8.646,8.646,0,0,0,2.6-.553,20.732,20.732,0,0,0-3.8-1.468,4.332,4.332,0,0,0-2.382.409Z" transform="translate(-2324.857 -1601.254)" fill="#c76757"/>
              <path id="Trazado_1170691" data-name="Trazado 1170691" d="M2434.93,1689.861a2.066,2.066,0,0,0-.77,0,8.8,8.8,0,0,1-2.6.553,21.489,21.489,0,0,1-6.568.12,10.558,10.558,0,0,1-3.127-.553c-.361-.048-.842-.072-.938.385a2.824,2.824,0,0,0,.77.361,37.157,37.157,0,0,0,8.492.289c1.419,0,2.767-.385,4.162-.481.409,0,.746-.241.625-.7Z" transform="translate(-2309.56 -1627.849)" fill="#9f4234"/>
              <path id="Trazado_1170692" data-name="Trazado 1170692" d="M2446.645,1703.55c-1.4.12-2.767.481-4.162.481a37.147,37.147,0,0,1-8.493-.289,4.62,4.62,0,0,0,2,1.78,9.268,9.268,0,0,0,9.335-.481,3.6,3.6,0,0,0,1.323-1.491Z" transform="translate(-2321.9 -1640.841)" fill="#c96656"/>
              <path id="Trazado_1170693" data-name="Trazado 1170693" d="M2523.255,1777.958c.192-1.035-1.083-.986-1.756-1.058-.673.048-1.924.048-1.924.986.385.337.818-.1,1.2-.145.842-.289,1.636.265,2.478.241Z" transform="translate(-2403.105 -1710.269)" fill="#c87861"/>
              <path id="Trazado_1170694" data-name="Trazado 1170694" d="M2336.74,1829.1c-1.251.914-2.358,2-3.7,2.791-2.261,1.347-4.6,2.742-7.242,3.128a13.358,13.358,0,0,1-7.891-1.3,39.46,39.46,0,0,1-3.536-2.021c-.962-.625-1.781-1.492-2.791-2.045a13.137,13.137,0,0,0,0,3.368,17.337,17.337,0,0,0,5.365,4.787,11.589,11.589,0,0,0,8.324,1.468c3.079-.577,5.726-2.406,8.108-4.379,1.179-.962,2.141-2.189,3.344-3.152,0-.89.048-1.756.024-2.646Z" transform="translate(-2205.451 -1759.678)" fill="#d27e63"/>
              <path id="Trazado_1170695" data-name="Trazado 1170695" d="M1768.159,2073.187a14.56,14.56,0,0,0-3.392-.241,2.4,2.4,0,0,0-1.2.289,18.867,18.867,0,0,1,3.609.914c-1.732,3.344-3.368,6.736-5.124,10.081-1.4,2.983-2.911,5.918-4.355,8.877q-2.67,5.341-5.317,10.73c-1.107,2.478-2.43,4.86-3.561,7.338a23.088,23.088,0,0,1-1.828,3.3c-.938-1.612-1.78-3.272-2.574-4.932a48.7,48.7,0,0,0-2.719-5.918q-2.346-4.908-4.74-9.816c-1.2-2.454-2.43-4.884-3.585-7.362-2.093-4.042-4.018-8.156-6.039-12.222a24.824,24.824,0,0,1,3.7-1.01,9.424,9.424,0,0,0-3.079-.1c-1.516-.048-2.911.674-4.354,1.083-4.956,1.54-9.912,3.007-14.868,4.6a30.234,30.234,0,0,0-3.609,1.2,28.335,28.335,0,0,0-5.966,2.695c-1.347.914-2.671,1.876-3.97,2.839a30.654,30.654,0,0,0-5.63,6.809,62.062,62.062,0,0,0-5.461,11.4c-1.083,2.743-1.973,5.557-2.959,8.324a21.716,21.716,0,0,0,6.328,1.107c2.045-3.128,3.633-6.544,5.437-9.816.938-1.756,1.973-3.464,2.983-5.2a25.855,25.855,0,0,1,5.293-6.953c.818-.625.265-1.708.168-2.526a5.81,5.81,0,0,0-1.877,1.059c-5.076,4.09-8.926,9.479-12.053,15.157-1.107,1.877-1.78,3.969-2.767,5.894-.1.289-.433.337-.7.457.385-2.237,1.732-4.162,2.719-6.183a57.415,57.415,0,0,1,8.589-12.318,18.148,18.148,0,0,1,4.716-3.946,4.423,4.423,0,0,0,1.275-.914,11.06,11.06,0,0,0-.241-1.516,10.133,10.133,0,0,0-3.272,1.612c-.866.481-1.4,1.4-2.237,1.877a3.941,3.941,0,0,1-.505-.048c.192-.842,1.01-1.251,1.636-1.732a21.515,21.515,0,0,1,4.258-2.334,22.705,22.705,0,0,1-.529-3.56c.12-.048.361-.12.481-.169a24.5,24.5,0,0,1,.6,3.224c1.66,10.538,3.513,21.075,3.825,31.757a111.805,111.805,0,0,1,0,13.016c-.289,8.9-.673,17.8-.914,26.705q-.361,14.615-1.419,29.182c13.954.048,27.932,0,41.886,0,.168-.048.505-.144.7-.192a2.771,2.771,0,0,1-1.516-2.117c-.289-.048-.577-.1-.842-.169a3.21,3.21,0,0,1-2.622-2.189c-.409-1.419.024-2.887.168-4.33-.289.048-.6.1-.914.168-2,1.8-3.248,4.307-5.293,6.063a3.694,3.694,0,0,1-2.622,1.059,1.258,1.258,0,0,1-1.155-1.54c.433-1.973,1.636-3.633,2.55-5.389a2.473,2.473,0,0,1-1.251-2.285,2.122,2.122,0,0,1,1.564-1.66,17.477,17.477,0,0,1,2.887-.914,2.71,2.71,0,0,0,.89-.577,26.721,26.721,0,0,1,2.6-2.623c-5.533-7.169-11.163-14.291-16.745-21.436a2.613,2.613,0,0,1-.986-2.382c-.433-.649-.842-1.3-1.2-1.973a15.4,15.4,0,0,1,2.117,1.612c.6.433,1.564.577,1.732,1.419,1.059,1.2,2.021,2.478,2.983,3.753q6.243,7.939,12.438,15.927a8.908,8.908,0,0,1,1.371,2.165c1.443-.577,2.935-1.01,4.427-1.491a13.2,13.2,0,0,1,4.307-.866,15.321,15.321,0,0,1,3.464.746,4.421,4.421,0,0,1,1.756-1.636,22.987,22.987,0,0,1,7.073-1.66,92.986,92.986,0,0,1,13.689-.6c4.258.072,8.517-.073,12.775-.289a13.351,13.351,0,0,0-1.155-2.527,6.728,6.728,0,0,1-1.708-.12c-.866-.529-.217-1.949.7-1.949.938-.048,1.877.073,2.815,0-.193-5.2-.241-10.417-.457-15.614-.1-4.018-.289-8.012-.361-12.029a167.1,167.1,0,0,1,.914-25.959c.89-7.7,2.045-15.373,3.633-22.927a10.563,10.563,0,0,0-1.588-.746c-1.78-.505-3.464-1.3-5.269-1.78q-1.7-.4-3.32-.938c-5-1.636-10.056-3.128-15.084-4.667Z" transform="translate(-1628.546 -1990.485)" fill="#1d1d1d"/>
              <path id="Trazado_1170696" data-name="Trazado 1170696" d="M2191.744,2074.968c-.553-.048-1.106-.144-1.684-.168-.674.337-1.2.89-1.853,1.3-.529.409-1.034.842-1.564,1.251-3.825,2.815-7.53,5.774-11.4,8.541,2.261,2.237,4.6,4.378,6.808,6.616.625.65,1.251,1.3,1.925,1.877,1.853-2.55,3.681-5.124,5.461-7.747a4.093,4.093,0,0,1,.746-.7c1.757-3.344,3.368-6.736,5.125-10.08a18.459,18.459,0,0,0-3.609-.914Z" transform="translate(-2056.726 -1992.243)" fill="#fff"/>
              <path id="Trazado_1170697" data-name="Trazado 1170697" d="M2560.879,2075.226c-.458-.457-1.131-.1-1.685-.072a22.272,22.272,0,0,0-3.705,1.01c2.021,4.066,3.97,8.18,6.039,12.222a4.822,4.822,0,0,1,.914.938c1.251,1.8,2.406,3.681,3.753,5.413q1.046-.938,2.021-1.949c2.238-2.165,4.475-4.331,6.76-6.424v-.336c-2.43-1.853-4.908-3.633-7.29-5.534-1.732-1.372-3.608-2.574-5.245-4.066-.505-.409-1.034-.794-1.54-1.179Z" transform="translate(-2456.727 -1992.428)" fill="#fff"/>
              <path id="Trazado_1170698" data-name="Trazado 1170698" d="M1590.15,2155.824c-4.138.649-8.324.986-12.51,1.4,1.8.481,3.489,1.275,5.269,1.781a8.706,8.706,0,0,1,1.588.746c.216.12.433.216.65.313a26.641,26.641,0,0,1,4.98,2.791V2155.8Z" transform="translate(-1419.622 -2068.912)" fill="#46261b"/>
              <path id="Trazado_1170699" data-name="Trazado 1170699" d="M3277.515,2158.683c-3.08-.337-6.159-.65-9.214-1.083,0,2.694-.024,5.389,0,8.084,1.3-.987,2.646-1.925,3.969-2.839a28.341,28.341,0,0,1,5.967-2.694,33.363,33.363,0,0,1,3.609-1.2,18.859,18.859,0,0,1-4.354-.265Z" transform="translate(-3201.705 -2070.616)" fill="#46241a"/>
              <path id="Trazado_1170700" data-name="Trazado 1170700" d="M1343.159,2230.363c-.217-.1-.433-.216-.65-.313-1.612,7.578-2.767,15.253-3.633,22.927a164.2,164.2,0,0,0-.914,25.959c.048,4.018.265,8.011.361,12.029.217,5.2.265,10.417.457,15.614.217,0,.626,0,.818-.024a75.223,75.223,0,0,0,3.513-17.25,178.5,178.5,0,0,0,.842-18.284c-.168-5.293-.409-10.706-2.43-15.662a33.391,33.391,0,0,0-1.78-3.609c-.024-1.756.433-3.489.577-5.245,3.344,3.513,5.149,8.132,6.52,12.7,3.031,10.177,4.5,20.955,3.031,31.541-.193,1.708-.6,3.368-.842,5.052.6.217.65-.457.746-.866a63.071,63.071,0,0,0,1.107-17.394,87.979,87.979,0,0,0-2.574-15.229,47.535,47.535,0,0,0-4.114-11.307,21.087,21.087,0,0,0-3.729-5.221c.1-1.468.385-2.911.6-4.378a17.3,17.3,0,0,1,5.125,5.2,63.878,63.878,0,0,1,5.581,11.981q2.274,6.171,4.09,12.486a74.354,74.354,0,0,1,2.622,14.868,18.5,18.5,0,0,0,.241,1.973c.505-.1.385-.6.409-.987-.457-9.888-3.464-19.415-6.857-28.653-1.852-4.86-3.825-9.768-7-13.954a16.037,16.037,0,0,0-4.138-3.609,16.919,16.919,0,0,1,.409-2.694,14.029,14.029,0,0,1,2.646,1.587,37.034,37.034,0,0,1,5.533,4.355c2.887,2.959,4.331,6.9,5.967,10.609,1.323,3.368,2.646,6.737,3.825,10.153a20.029,20.029,0,0,0,.962,2.863c.12.024.361.1.481.12a24.877,24.877,0,0,0-1.371-4.5c-1.371-4.042-3.007-8.011-4.667-11.957a24.832,24.832,0,0,0-7.939-10.562,45.069,45.069,0,0,0-5.245-3.224,8.042,8.042,0,0,1,.289-1.852,11.038,11.038,0,0,1,3.031,1.468,28.756,28.756,0,0,1,5.028,3.849c.12-.073.385-.217.505-.289a2.734,2.734,0,0,0-.361-.553c-2.31-2.261-5.269-3.657-8.084-5.173.289-1.54.674-3.031.962-4.571m-.842,29.544a62.011,62.011,0,0,1,1.083,11.163,178.516,178.516,0,0,1-.866,18.284,71.378,71.378,0,0,1-2.983,15.422,1.986,1.986,0,0,1-.168-.746c-.193-3.368-.1-6.76-.313-10.128-.12-2-.072-4.018-.193-6.015-.144-6.712-.6-13.425-.361-20.137a138.721,138.721,0,0,1,1.131-14.82c1.492,2.045,2.069,4.571,2.719,6.977Z" transform="translate(-1177.611 -2139.192)"/>
              <path id="Trazado_1170701" data-name="Trazado 1170701" d="M955.683,2238.691a25.934,25.934,0,0,0-4.98-2.791c-.265,1.54-.674,3.032-.962,4.571,2.815,1.516,5.774,2.911,8.084,5.172a2.732,2.732,0,0,1,.361.554c-.12.072-.361.216-.505.289a31.287,31.287,0,0,0-5.028-3.85,10.388,10.388,0,0,0-3.031-1.467,6.916,6.916,0,0,0-.289,1.852,45.1,45.1,0,0,1,5.245,3.224,24.832,24.832,0,0,1,7.939,10.562c1.66,3.946,3.3,7.891,4.667,11.957a24.858,24.858,0,0,1,1.371,4.5c-.12-.024-.361-.1-.481-.12a28.573,28.573,0,0,1-.962-2.863c-1.2-3.417-2.526-6.784-3.825-10.153-1.66-3.7-3.08-7.674-5.967-10.61a37.4,37.4,0,0,0-5.533-4.354,14.847,14.847,0,0,0-2.646-1.588,20.228,20.228,0,0,0-.409,2.695,14.874,14.874,0,0,1,4.138,3.609c3.152,4.186,5.148,9.094,7,13.954,3.392,9.238,6.4,18.765,6.857,28.653,0,.385.1.89-.409.987a10.788,10.788,0,0,1-.241-1.973,76.123,76.123,0,0,0-2.622-14.868c-1.2-4.21-2.6-8.372-4.09-12.486a63.874,63.874,0,0,0-5.582-11.981,17.306,17.306,0,0,0-5.124-5.2c-.241,1.444-.505,2.911-.6,4.379a21.081,21.081,0,0,1,3.729,5.22,48.2,48.2,0,0,1,4.114,11.307,88.368,88.368,0,0,1,2.574,15.229,64.926,64.926,0,0,1-1.107,17.394c-.1.409-.144,1.083-.746.866.241-1.684.65-3.368.842-5.052,1.468-10.562,0-21.364-3.031-31.54-1.371-4.571-3.176-9.191-6.52-12.7-.144,1.756-.6,3.489-.577,5.245a38.662,38.662,0,0,1,1.78,3.609c2.021,4.956,2.261,10.393,2.43,15.662a178.176,178.176,0,0,1-.842,18.284,75.238,75.238,0,0,1-3.513,17.25c1.708-.048,3.392,0,5.076,0,.89-1.01,2.286-1.323,3.392-2.045,4.5-2.67,8.95-5.437,13.28-8.348.241-.217.433.12.625.241-4.162,2.935-8.541,5.509-12.823,8.228a31.758,31.758,0,0,0,3.657-.505,34.5,34.5,0,0,1,8.18-.24,33.435,33.435,0,0,1,6.159,1.347,5.513,5.513,0,0,1,2.334,1.106c-.986.289-1.925-.265-2.815-.577a28.7,28.7,0,0,0-14.339-.89c-2.286.481-4.715.409-6.76,1.66,3.392,0,6.76.048,10.153,0,2.719,0,5.461-.073,8.18.072,3.777-.168,7.53-.024,11.307-.072a52.85,52.85,0,0,0,6.472,0c.024-.1.12-.265.144-.361-2.165-7.7-5.7-14.892-8.661-22.278-3.946-9.672-6.977-19.7-11.091-29.327-1.708-3.849-3.561-7.626-5.485-11.379a35.728,35.728,0,0,0-2.959-4.98,21.014,21.014,0,0,0-5.461-5.052Z" transform="translate(-785.178 -2144.729)" fill="#1c1c1c"/>
              <path id="Trazado_1170702" data-name="Trazado 1170702" d="M3348.271,2246.324a23.82,23.82,0,0,0-.6-3.224c-.12.048-.361.121-.481.169a22.35,22.35,0,0,0,.529,3.561,20.322,20.322,0,0,0-4.258,2.334c-.625.481-1.444.89-1.636,1.732a3.943,3.943,0,0,1,.505.048c.842-.481,1.4-1.4,2.237-1.877a10.134,10.134,0,0,1,3.272-1.612,11.042,11.042,0,0,1,.241,1.516,4.427,4.427,0,0,1-1.275.914,18.148,18.148,0,0,0-4.716,3.946,56.579,56.579,0,0,0-8.589,12.318c-.986,2.021-2.333,3.946-2.719,6.183.265-.121.578-.168.7-.457.986-1.925,1.66-4.018,2.767-5.894a50.565,50.565,0,0,1,12.053-15.157,6.294,6.294,0,0,1,1.877-1.059c.12.818.649,1.9-.168,2.526a26.236,26.236,0,0,0-5.293,6.953c-1.01,1.732-2.045,3.416-2.983,5.2-1.8,3.272-3.368,6.688-5.437,9.816.337-.024.674-.048.986-.1a44.315,44.315,0,0,1,2.887-5.485c2.527-4.547,4.692-9.359,8.036-13.425a15.954,15.954,0,0,1,2.358-2.743,12.893,12.893,0,0,1,.457,2.694c.048.505-.385.866-.625,1.275a29.441,29.441,0,0,0-3.32,5.8,65.267,65.267,0,0,0-2.622,6.28,14.053,14.053,0,0,1-1.275,3.1,2.019,2.019,0,0,1-.77,2.574l-.192.192a5.449,5.449,0,0,1-.625,2.6c-.1.409-.433.6-.794.77.217.7.385,1.419.6,2.141.529-1.8.866-3.657,1.516-5.413.553-1.2.818-2.5,1.323-3.705a65.953,65.953,0,0,1,5.317-11.812,16.27,16.27,0,0,1,1.636-2.406c.168,1.058.409,2.117.505,3.176a1.047,1.047,0,0,1-.289.818c-2.646,3.561-3.128,8.156-3.537,12.438-.433,7.362.217,14.748.866,22.086.168,1.948.529,3.849.7,5.8a2.1,2.1,0,0,1-.289,1.251h.962a29.581,29.581,0,0,0-.433-3.825c-.554-5.148-1.01-10.321-1.227-15.493a69.536,69.536,0,0,1,.722-15.326,17.614,17.614,0,0,1,2.622-6.5c.577,2.695.722,5.437,1.059,8.18.433,4.619.722,9.239.745,13.882.024,9-.577,17.972-.818,26.946-.048,1.371-.048,2.767-.168,4.138a14.289,14.289,0,0,1-.746-2.863c-.506-2.333-1.035-4.691-1.323-7.049a11.844,11.844,0,0,0-.433-2.045,11.786,11.786,0,0,1-.361,1.227c.433,1.636.626,3.32.938,4.956.457,2.646,1.082,5.269,1.756,7.891a10.626,10.626,0,0,1,.072,2.622c-.217,5.149-.337,10.321-.65,15.47a26.772,26.772,0,0,1-1.01-3.055,30.2,30.2,0,0,0-7-11.307c-.986-.987-2.189-1.708-3.224-2.671-.168.265-.361.53-.529.794a8.182,8.182,0,0,1,2.791,1.925c4.715,4.282,7.53,10.3,8.757,16.48.048,3.464-.385,6.9-.529,10.369h.6q1.047-14.58,1.419-29.183c.264-8.9.625-17.8.914-26.705a123.7,123.7,0,0,0,0-13.015c-.313-10.682-2.165-21.22-3.826-31.757Z" transform="translate(-3275.419 -2151.544)"/>
              <path id="Trazado_1170703" data-name="Trazado 1170703" d="M2281.857,2284.05a3.415,3.415,0,0,0-.746.7c-1.78,2.622-3.609,5.173-5.461,7.747a20.281,20.281,0,0,1-1.925-1.876c-1.155,1.781-2.31,3.561-3.537,5.293.024.168.072.481.1.625l.072-.1c1.059-1.2,1.9-2.55,2.911-3.777.746.337,1.347,1.01,2.189,1.179.818.048,1.3-.818,2.069-.89,1.444-2.959,2.959-5.894,4.355-8.877Z" transform="translate(-2148.379 -2190.305)" fill="#d4d4d4"/>
              <path id="Trazado_1170704" data-name="Trazado 1170704" d="M2436.124,2289.316c-2.238-2.261-4.571-4.4-6.809-6.616a2.411,2.411,0,0,0-.264.241c-2.286,2.117-4.523,4.282-6.76,6.423,1.227,1.78,2.381,3.585,3.681,5.317a17.881,17.881,0,0,1,3.007-.072,26.184,26.184,0,0,1,3.633,0c1.251-1.708,2.382-3.513,3.536-5.293Z" transform="translate(-2310.777 -2189.027)" fill="#23264d"/>
              <path id="Trazado_1170705" data-name="Trazado 1170705" d="M2614.9,2325.938a5.626,5.626,0,0,0-.914-.938c1.155,2.478,2.382,4.908,3.585,7.362.361.072.746.144,1.106.193.891.144,1.42-1.035,2.286-.89,1.155,1.155,1.949,2.622,3.152,3.729,0-.048.048-.144.048-.193a3.589,3.589,0,0,0,.145-.481c-1.275-1.732-2.454-3.537-3.681-5.317-.65.674-1.323,1.347-2.021,1.948-1.347-1.732-2.5-3.609-3.753-5.413Z" transform="translate(-2509.19 -2229.066)" fill="#d0d0d0"/>
              <path id="Trazado_1170706" data-name="Trazado 1170706" d="M3403.821,2419.5a15.109,15.109,0,0,0-2.358,2.743c-3.32,4.042-5.486,8.854-8.036,13.425a47.668,47.668,0,0,0-2.887,5.485,13.453,13.453,0,0,0,3.079-.625,1.756,1.756,0,0,1-.24-1.371.994.994,0,0,1,.457-.65,1.83,1.83,0,0,1,2.574.168,14.538,14.538,0,0,0,1.275-3.1,59.623,59.623,0,0,1,2.622-6.279,31.428,31.428,0,0,1,3.32-5.8c.264-.409.7-.746.625-1.275a12.91,12.91,0,0,0-.457-2.695Z" transform="translate(-3330.657 -2318.513)" fill="#1c1c1c"/>
              <path id="Trazado_1170707" data-name="Trazado 1170707" d="M2359.26,2444.538c-.77.048-1.251.938-2.069.89-.842-.144-1.419-.842-2.189-1.179-1.01,1.227-1.876,2.6-2.911,3.777.554,2.43,1.3,4.812,1.829,7.242,1.78-3.585,3.537-7.17,5.317-10.73Z" transform="translate(-2230.136 -2341.94)" fill="#feffff"/>
              <path id="Trazado_1170708" data-name="Trazado 1170708" d="M2620.082,2449.223c-.867-.144-1.4,1.035-2.286.89-.361-.048-.746-.12-1.107-.192,1.588,3.272,3.176,6.544,4.74,9.815.577-2.261,1.227-4.523,1.829-6.808-1.2-1.107-2.021-2.574-3.152-3.729Z" transform="translate(-2508.28 -2346.625)" fill="#fefefe"/>
              <path id="Trazado_1170709" data-name="Trazado 1170709" d="M3386.691,2495.55a13.684,13.684,0,0,0-1.636,2.406,65.941,65.941,0,0,0-5.317,11.813c-.505,1.2-.77,2.526-1.323,3.705-.625,1.756-.987,3.609-1.516,5.413,2.261,7.193,4.427,14.411,6.64,21.628.1.24.192.457.289.7.216,0,.625-.048.842-.048a2.139,2.139,0,0,0,.289-1.251c-.168-1.949-.53-3.874-.7-5.8-.65-7.338-1.3-14.724-.867-22.086.409-4.282.867-8.877,3.537-12.438a1.049,1.049,0,0,0,.289-.818c-.1-1.083-.337-2.117-.505-3.176Z" transform="translate(-3312.901 -2390.498)" fill="#1c1c1c"/>
              <path id="Trazado_1170710" data-name="Trazado 1170710" d="M2493.874,2503.675a26.146,26.146,0,0,0-3.633,0,17.908,17.908,0,0,0-3.007.072,3.625,3.625,0,0,0-.144.481,21.083,21.083,0,0,0,5.076.12,5.47,5.47,0,0,1,1.66.1.408.408,0,0,1,.144-.144c-.024-.145-.073-.457-.1-.625Z" transform="translate(-2372.064 -2398.117)" fill="#141830"/>
              <path id="Trazado_1170711" data-name="Trazado 1170711" d="M2459.919,2515.35l-.073.1a.415.415,0,0,1-.144.145,4.3,4.3,0,0,0-1.66-.1,21.086,21.086,0,0,1-5.076-.12c0,.048-.048.145-.048.193-.6,2.261-1.227,4.523-1.828,6.808a50.417,50.417,0,0,1,2.719,5.918c.794,1.684,1.636,3.344,2.574,4.932a20.9,20.9,0,0,0,1.828-3.3c1.131-2.478,2.454-4.86,3.561-7.338-.529-2.43-1.275-4.812-1.829-7.242Z" transform="translate(-2337.94 -2409.239)" fill="#22264d"/>
              <path id="Trazado_1170712" data-name="Trazado 1170712" d="M4037.237,2572.95c-.1.048-.265.1-.361.145-.265,1.467-1.3,2.622-1.756,4.017a3.161,3.161,0,0,0,1.131,2.935c.5-.048,1.01-.072,1.516-.1a2.9,2.9,0,0,0,1.155-2.43C4038.584,2575.909,4037.357,2574.634,4037.237,2572.95Z" transform="translate(-3999.8 -2463.76)" fill="#cd8625"/>
              <path id="Trazado_1170713" data-name="Trazado 1170713" d="M3345.708,2587.429c-.337-2.719-.481-5.485-1.059-8.18a17.608,17.608,0,0,0-2.622,6.5,66.67,66.67,0,0,0-.722,15.325c.217,5.172.7,10.345,1.227,15.494a33.785,33.785,0,0,1,.433,3.825v.072a11.872,11.872,0,0,1,.433,2.045c.289,2.382.818,4.715,1.323,7.049a13.184,13.184,0,0,0,.746,2.863c.12-1.371.12-2.766.168-4.138.241-8.974.842-17.948.818-26.946,0-4.643-.289-9.262-.746-13.881Z" transform="translate(-3270.21 -2469.723)" fill="#1c1c1c"/>
              <path id="Trazado_1170714" data-name="Trazado 1170714" d="M1671.837,2664.527c-.625-2.406-1.227-4.932-2.719-6.977a145.17,145.17,0,0,0-1.131,14.82c-.241,6.712.217,13.424.361,20.137.12,2,.072,4.018.192,6.014.217,3.368.12,6.76.313,10.129a1.987,1.987,0,0,0,.168.746,70.218,70.218,0,0,0,2.983-15.422,171.965,171.965,0,0,0,.866-18.284,60.111,60.111,0,0,0-1.083-11.163Z" transform="translate(-1507.179 -2543.837)" fill="#1c1c1c"/>
              <path id="Trazado_1170715" data-name="Trazado 1170715" d="M3563.113,2703.9c-.505,0-1.01.048-1.516.1a2.513,2.513,0,0,1,.265.818c-.168.818-1.155.842-1.612,1.4a4.01,4.01,0,0,0-1.083,2.526c-.625.674-1.275-.241-1.973-.265a11.974,11.974,0,0,0-2.43-.433c-4.715-.264-9.046,2.141-13.713,2.43a21.515,21.515,0,0,1-4.427-.722c.024-.505.048-1.034.1-1.564a2,2,0,0,0-2.791-.577c-.625.433-.481,1.2-.481,1.852a3.614,3.614,0,0,0,1.347,1.059,23.187,23.187,0,0,0,7.217,1.323,46.372,46.372,0,0,0,7.458-1.227,11.614,11.614,0,0,1,7.939.987,5.311,5.311,0,0,1,2.478,2.887c-.288.072-.577.12-.866.193a2.741,2.741,0,0,0-1.059,1.925,2.886,2.886,0,0,0,1.8,2.815h5.149c.6-.385,1.323-.722,1.612-1.443a2.886,2.886,0,0,0-.866-3.224l-.77-.192a5.254,5.254,0,0,1,3.729-3.561,13.408,13.408,0,0,1,6.014-.505c3.056.529,6.087,1.66,9.238,1.347,2.166-.144,4.162-1.059,6.255-1.42a2.019,2.019,0,0,0,.77-2.574,1.828,1.828,0,0,0-2.574-.168c.289.337,0,1.155-.457.649a1.74,1.74,0,0,0,.24,1.371,13.464,13.464,0,0,1-3.079.626c-.337.024-.65.048-.986.1a22.542,22.542,0,0,1-6.327-1.106,22.5,22.5,0,0,0-3.994-.962,12.793,12.793,0,0,0-4.066-.24,10.98,10.98,0,0,0-3.9,1.2,10.3,10.3,0,0,0-.938-2.478,5.261,5.261,0,0,0-1.66-1.419,1.835,1.835,0,0,1-.121-1.468Z" transform="translate(-3525.147 -2587.708)" fill="#e7a031"/>
              <path id="Trazado_1170716" data-name="Trazado 1170716" d="M3583.457,2774.55a1.123,1.123,0,0,0-.457.65C3583.432,2775.681,3583.745,2774.887,3583.457,2774.55Z" transform="translate(-3520.253 -2654.582)" fill="#d4a45b"/>
              <path id="Trazado_1170717" data-name="Trazado 1170717" d="M3576.577,2824.227c-2.117.385-4.114,1.3-6.255,1.419-3.152.313-6.183-.818-9.239-1.347a12.763,12.763,0,0,0-6.014.505,5.167,5.167,0,0,0-3.729,3.561l.769.193a6.371,6.371,0,0,1,2.045-2.19,11.938,11.938,0,0,1,6.784-.986,14.468,14.468,0,0,0,2.478.433c1.01.168,2.021.337,3.031.433a8.943,8.943,0,0,0,3.392,0c.577-.072,1.178-.072,1.756-.1.073,0,.217-.024.289-.024a5.928,5.928,0,0,0,.938-.216c.169-.073.337-.169.481-.241.048.12.144.337.193.457a1.1,1.1,0,0,1,.409-.7,2.428,2.428,0,0,1,.313.385c.481-.7,1.516-.77,2.117-1.371l.193-.192Z" transform="translate(-3511.57 -2701.516)" fill="#99611c"/>
              <path id="Trazado_1170718" data-name="Trazado 1170718" d="M4139.6,2826.136a11.757,11.757,0,0,0-7.94-.986,43.442,43.442,0,0,1-7.458,1.227,22.393,22.393,0,0,1-7.217-1.323.794.794,0,0,0,.505.529c.6.289,1.2.625,1.829.914.409.1.794.168,1.2.241.337.048.65.12.962.168.6.1,1.2.192,1.829.265a31.229,31.229,0,0,0,8.156-.914,12.326,12.326,0,0,1,6.856.385,5.841,5.841,0,0,1,2.912,2.574c.288-.048.577-.12.866-.192a5.234,5.234,0,0,0-2.479-2.887Z" transform="translate(-4107.339 -2702.222)" fill="#9f6319"/>
              <path id="Trazado_1170719" data-name="Trazado 1170719" d="M3556.883,2829.45c-.6.6-1.612.674-2.117,1.372.24.65.481,1.323.7,2a1.16,1.16,0,0,0,.794-.77A5.751,5.751,0,0,0,3556.883,2829.45Z" transform="translate(-3492.068 -2706.546)" fill="#191a1e"/>
              <path id="Trazado_1170720" data-name="Trazado 1170720" d="M3446.762,2848.285c-.1-.12-.217-.264-.313-.385a1,1,0,0,0-.409.7q.252.686.433,1.372c.289.938.6,1.876.89,2.815.193.6.361,1.2.53,1.8,1.852,6.063,3.753,12.125,5.605,18.212.12.433.265.89.409,1.323.144.168.289.337.433.529.12-.217.24-.409.361-.625-2.213-7.218-4.378-14.435-6.64-21.628-.217-.7-.385-1.42-.6-2.141-.217-.674-.458-1.323-.7-2Z" transform="translate(-3384.063 -2724.011)" fill="#e19b2f"/>
              <path id="Trazado_1170721" data-name="Trazado 1170721" d="M3459.145,2851.974c-.168.072-.313.168-.481.24.1,4.643,0,9.311,0,13.954,0,4.09.024,8.18-.024,12.27,1.8.048,3.609.048,5.389-.072,1.107-.072,2.213.144,3.32,0a4.476,4.476,0,0,0-.145-.433c-.144-.433-.289-.89-.409-1.323.048.553.1,1.083.145,1.636-2.671-.217-5.317.192-7.988-.145-.24-3.488-.048-7.025-.1-10.513-.144-3.127,1.2-6.015,1.8-9.022a4.467,4.467,0,0,1,.481.241,2.11,2.11,0,0,1,.048-.385c-.168-.6-.361-1.2-.529-1.8a47.609,47.609,0,0,0-1.588,5.269c.048-2.719-.625-5.461.1-8.156.144,0,.457.048.6.048l-.433-1.371c-.048-.12-.145-.336-.192-.457Z" transform="translate(-3397.385 -2727.844)" fill="#020303"/>
              <path id="Trazado_1170722" data-name="Trazado 1170722" d="M3621.012,2856.9a6.536,6.536,0,0,1-.938.216c-.024,5.365,0,10.754,0,16.143.048,3.272-.1,6.544,0,9.816.313,0,.625.024.938.048.048-4.09.024-8.18.024-12.27,0-4.643.072-9.311,0-13.954Z" transform="translate(-3559.733 -2732.529)" fill="#d59133"/>
              <path id="Trazado_1170723" data-name="Trazado 1170723" d="M3375.383,2855.983c-1.01-.12-2.021-.288-3.031-.433-2.285,8.06-4.09,16.239-6.375,24.3-1.612,5.942-3.705,11.716-5.654,17.563a36.347,36.347,0,0,0-.168,5.124,11.849,11.849,0,0,0,.264,3.056,44.037,44.037,0,0,1,6.833-10.081c-1.01-.746-2.117.313-3.2.289.505-1.155,2.141-.914,2.983-1.708.433-2.069-.264-4.258.409-6.279a2,2,0,0,1,1.468-1.54,2.9,2.9,0,0,1,2.815,1.155,9.8,9.8,0,0,1,1.371,2.863,2.2,2.2,0,0,1,2.815.409,2.445,2.445,0,0,1,.433,2.454c.914.433,1.9.722,2.839,1.107a6.292,6.292,0,0,1,2.5-1.251,2.338,2.338,0,0,1,2.551,1.588,3.054,3.054,0,0,1-.433,2.526c1.011.963,2.238,1.66,3.224,2.671a30.018,30.018,0,0,1,7,11.308,19.734,19.734,0,0,0,1.01,3.055c.313-5.148.433-10.321.65-15.469a10.65,10.65,0,0,0-.072-2.622c-.674-2.6-1.3-5.221-1.756-7.891-.313-1.66-.505-3.344-.938-4.956a9.437,9.437,0,0,1-4.691,4.474,6.1,6.1,0,0,1,.818,2.6c.722,3.3,1.516,6.592,2.526,9.816.144.65.673,1.371.24,2.02a3.694,3.694,0,0,1-.842-1.9c-.7-2.526-1.443-5-2-7.554-.361-1.612-.866-3.176-1.082-4.812a17.477,17.477,0,0,1-11.236.746,10.578,10.578,0,0,1-6.76-4.884c-.77,0-.818-.914-.89-1.492a85.423,85.423,0,0,0,2.646-8.757,115.877,115.877,0,0,1,6.279-17.058,10.674,10.674,0,0,1-2.478-.433Z" transform="translate(-3320.503 -2731.251)" fill="#1c1c1c"/>
              <path id="Trazado_1170724" data-name="Trazado 1170724" d="M4530.174,2855.341c-.409-.072-.794-.144-1.2-.24-2.5,8.2-5.389,16.288-7.964,24.468a20.658,20.658,0,0,0-.818,2.622h.747c1.01-2.526,1.708-5.148,2.6-7.7.409-1.443,1.058-2.839,1.371-4.307,1.275-3.3,2.165-6.736,3.416-10.08.361-1.54,1.155-2.935,1.4-4.523.121-.072.361-.192.482-.264Z" transform="translate(-4516.987 -2730.825)" fill="#e9a22e"/>
              <path id="Trazado_1170725" data-name="Trazado 1170725" d="M3651,2861.4a1.176,1.176,0,0,0-.289.024c.193,4.643,0,9.286.048,13.954a19.951,19.951,0,0,1-.313,5.077c-.529,2.189-.818,4.45-1.275,6.664-2.983.048-5.942.1-8.926,0,.553-2.959,1.491-5.822,2.334-8.709a110.366,110.366,0,0,1,4.571-12.968,28.493,28.493,0,0,1,1.78-3.9,8.942,8.942,0,0,1-3.392,0,10.953,10.953,0,0,0,2.478.433,113.259,113.259,0,0,0-6.279,17.058c-.89,2.911-1.443,5.966-2.646,8.757.072.578.12,1.468.89,1.492-.24-.577-.457-1.179-.649-1.781a22.083,22.083,0,0,1,3.561-.144h8.083c-.072-3.272.048-6.544,0-9.816,0-5.389-.024-10.754,0-16.143m-.312,25.742c-.168,0-.53-.024-.722-.024.192-1.275.289-2.574.529-3.85.505,1.2.168,2.6.168,3.873Z" transform="translate(-3590.682 -2736.789)" fill="#010100"/>
              <path id="Trazado_1170726" data-name="Trazado 1170726" d="M3653.147,2861.424c-.577.024-1.179.048-1.756.1a28.491,28.491,0,0,0-1.78,3.9,113.63,113.63,0,0,0-4.571,12.968c-.842,2.887-1.78,5.75-2.333,8.709,2.983.1,5.942.072,8.926,0,.457-2.213.746-4.475,1.275-6.665a22.407,22.407,0,0,0,.313-5.076c-.072-4.643.121-9.311-.048-13.954Z" transform="translate(-3593.119 -2736.789)" fill="#1c1c1c"/>
              <path id="Trazado_1170727" data-name="Trazado 1170727" d="M4469.891,2863.014c-.6-.048-1.228-.168-1.829-.265-.144,8.926,0,17.851-.072,26.753h.986c0-8.4-.048-16.793,0-25.189a2.582,2.582,0,0,1,.217-1.347h.721Z" transform="translate(-4453.913 -2738.066)" fill="#d18f29"/>
              <path id="Trazado_1170728" data-name="Trazado 1170728" d="M3584.227,2885.748c-.144,0-.457-.048-.6-.048-.722,2.671-.048,5.438-.1,8.156a50.941,50.941,0,0,1,1.588-5.269c-.289-.938-.6-1.876-.891-2.814Z" transform="translate(-3521.818 -2759.789)" fill="#1e1e1b"/>
              <path id="Trazado_1170729" data-name="Trazado 1170729" d="M3473.817,2991.212c-1.829-6.063-3.753-12.125-5.605-18.212a2.1,2.1,0,0,1-.048.385c-.144-.073-.312-.145-.481-.241-.6,3.008-1.948,5.895-1.8,9.022.048,3.512-.169,7.025.1,10.513,2.646.337,5.317-.072,7.987.144-.048-.553-.1-1.106-.145-1.636Z" transform="translate(-3404.383 -2842.422)" fill="#1c1c1c"/>
              <path id="Trazado_1170730" data-name="Trazado 1170730" d="M4023.514,2994.15h-1.925a21.431,21.431,0,0,1,.192,3.729c0,7.867,0,15.71-.024,23.577.168,3.441-.073,6.9-.048,10.345,0,2.959.24,5.943,0,8.9-.145,4.234.168,8.468,0,12.678a12.138,12.138,0,0,1,1.636.145c.265-2.839,0-5.678.024-8.517-.072-1.756.192-3.488.192-5.245a4.767,4.767,0,0,1,.048-3.008,13.142,13.142,0,0,1-.265-3.055,36.463,36.463,0,0,1,.169-5.124,7.5,7.5,0,0,1-.073-2.069c.073-10.778.024-21.581.048-32.359Z" transform="translate(-3983.743 -2862.441)" fill="#562a1f"/>
              <path id="Trazado_1170731" data-name="Trazado 1170731" d="M4056.467,2994.6h-1.275c-.6.6-.481,1.492-.481,2.285q0,20.931-.048,41.862.108,7.542.024,15.084h1.925c.145-4.234-.145-8.468,0-12.678.217-2.959-.048-5.918,0-8.9-.024-3.44.217-6.9.048-10.345,0-7.867,0-15.71.024-23.577a19.277,19.277,0,0,0-.192-3.729Z" transform="translate(-4018.621 -2862.867)" fill="#703f30"/>
              <path id="Trazado_1170732" data-name="Trazado 1170732" d="M4085.284,2993.3h-1.949c.048,13.978,0,27.956,0,41.934-.048,2.189.1,4.4-.1,6.592.192,1.732,0,3.464.12,5.22.1,1.853-.1,3.705,0,5.558.481-.049.962-.1,1.419-.12.024-5.028.048-10.056-.024-15.085q.036-20.931.048-41.862a3.035,3.035,0,0,1,.481-2.285Z" transform="translate(-4048.714 -2861.589)" fill="#562b1e"/>
              <path id="Trazado_1170733" data-name="Trazado 1170733" d="M3644.219,3274.323c0-1.275.313-2.695-.168-3.874-.265,1.275-.361,2.574-.529,3.849.192,0,.529.024.721.024Z" transform="translate(-3584.239 -3123.969)" fill="#111619"/>
              <path id="Trazado_1170734" data-name="Trazado 1170734" d="M3428.67,3337.3c-.1-.24-.193-.457-.289-.7-.121.216-.241.409-.361.625-.145-.168-.289-.337-.433-.53a4.445,4.445,0,0,0,.144.433c-1.107.169-2.214-.072-3.32,0-1.8.121-3.609.121-5.389.073-.313,0-.625-.048-.938-.048-2.695,0-5.389-.024-8.084,0a19.606,19.606,0,0,0-3.561.145c.217.6.409,1.179.65,1.78a10.55,10.55,0,0,0,6.76,4.884,17.482,17.482,0,0,0,11.235-.746l.361-.192a9.439,9.439,0,0,0,4.691-4.475c.145-.409.241-.818.361-1.227v-.072h-.962c-.216,0-.625.048-.842.048Z" transform="translate(-3357.744 -3186.583)" fill="#c68028"/>
              <path id="Trazado_1170735" data-name="Trazado 1170735" d="M4286.138,3362.772h-.986c-3.368-.073-6.736.1-10.128-.073h-.745a4.355,4.355,0,0,0-.939.337,12.956,12.956,0,0,0,1.636,2.935,11.6,11.6,0,0,0,4.163,2.935,17.079,17.079,0,0,0,4.956,1.155,17.343,17.343,0,0,0,6.279-.577,14.1,14.1,0,0,0,5.485-3.248c.7-1.035,1.757-2.094,1.612-3.441-3.777,0-7.554-.024-11.355,0Z" transform="translate(-4271.075 -3211.287)" fill="#cb8527"/>
              <path id="Trazado_1170736" data-name="Trazado 1170736" d="M3001.757,3392.212a15.338,15.338,0,0,0-2.117-1.612,20.379,20.379,0,0,0,1.2,1.973C3001.156,3392.453,3001.444,3392.332,3001.757,3392.212Z" transform="translate(-2907.253 -3237.696)" fill="#fefefe"/>
              <path id="Trazado_1170737" data-name="Trazado 1170737" d="M2969.92,3422.619c-.168-.842-1.131-1.01-1.732-1.419-.312.12-.6.241-.914.361a2.613,2.613,0,0,0,.986,2.382,14.569,14.569,0,0,0,1.636-1.323Z" transform="translate(-2873.684 -3266.66)" fill="#f7e7ae"/>
              <path id="Trazado_1170738" data-name="Trazado 1170738" d="M3787.967,3430.118a2.866,2.866,0,0,0-2.815-1.155,1.933,1.933,0,0,0-1.468,1.54c-.12,2.454.048,4.908-.144,7.362a10.523,10.523,0,0,0,2.478-2.141,15.068,15.068,0,0,1,3.32-2.743,9.819,9.819,0,0,0-1.371-2.863Z" transform="translate(-3736.744 -3273.942)" fill="#d48165"/>
              <path id="Trazado_1170739" data-name="Trazado 1170739" d="M2658.209,3451.5c-.963-1.275-1.9-2.574-2.983-3.753a17.128,17.128,0,0,1-1.636,1.323c5.581,7.145,11.187,14.267,16.745,21.436a11.376,11.376,0,0,1,1.684-.914,8.47,8.47,0,0,0-1.372-2.165c-4.137-5.293-8.276-10.634-12.438-15.927Z" transform="translate(-2559.013 -3291.791)" fill="#31343c"/>
              <path id="Trazado_1170740" data-name="Trazado 1170740" d="M3432.845,3459.348a6,6,0,0,0-.818-2.6l-.361.193c.217,1.636.722,3.2,1.082,4.812.554,2.55,1.323,5.052,2,7.554a3.9,3.9,0,0,0,.842,1.9c.433-.65-.1-1.372-.24-2.021-1.01-3.223-1.8-6.519-2.526-9.816Z" transform="translate(-3364.349 -3300.309)" fill="#020001"/>
              <path id="Trazado_1170741" data-name="Trazado 1170741" d="M3892.682,3459c-.674,2.021,0,4.21-.409,6.279-.842.794-2.478.553-2.983,1.708,1.083.048,2.189-1.01,3.2-.289a1.416,1.416,0,0,1,.048-.313c.193-2.454,0-4.908.144-7.362Z" transform="translate(-3845.742 -3302.439)" fill="#040003"/>
              <path id="Trazado_1170742" data-name="Trazado 1170742" d="M1196.238,3466.534c-.168-.12-.385-.457-.625-.24-4.355,2.911-8.805,5.654-13.28,8.348-1.107.721-2.478,1.034-3.392,2.045h.866c2.045-1.227,4.5-1.178,6.76-1.66a28.433,28.433,0,0,1,14.339.89c.914.337,1.828.89,2.815.577a5.521,5.521,0,0,0-2.334-1.107,33.492,33.492,0,0,0-6.159-1.347,34.509,34.509,0,0,0-8.18.241c-1.227.144-2.43.481-3.657.505,4.282-2.719,8.685-5.293,12.823-8.228Z" transform="translate(-1011.876 -3309.275)"/>
              <path id="Trazado_1170743" data-name="Trazado 1170743" d="M3554.5,3499.781a2.17,2.17,0,0,0-2.814-.409,15.169,15.169,0,0,0-3.32,2.743,10.532,10.532,0,0,1-2.478,2.141,1.4,1.4,0,0,1-.048.313,43.56,43.56,0,0,0-6.833,10.081,4.76,4.76,0,0,0-.048,3.007,5.023,5.023,0,0,0,2.887,2.767,6.222,6.222,0,0,0,.577,3.224,3.979,3.979,0,0,0,3.127,1.9,5.975,5.975,0,0,0,1.661,2.67c.529.481,1.3.553,1.8,1.059a9.883,9.883,0,0,1,2.911-.168,7.273,7.273,0,0,0,4.667,1.3,4.181,4.181,0,0,0,2.935-2.141c.818-1.3,1.4-2.719,2.261-3.994.553-.794.986-1.636,1.468-2.478a12.7,12.7,0,0,0,1.323-3.127c.073-.409.145-.818.193-1.227a2.6,2.6,0,0,1-2.646-1.058c-2.045,2.55-4.09,5.1-6.087,7.674-.288.289-.722,1.155-1.106.553a16.4,16.4,0,0,1,1.829-2.478c1.876-2.382,3.7-4.836,5.677-7.146a8.181,8.181,0,0,0,1.66-2.55,2.681,2.681,0,0,0-1.732-3.464,3.422,3.422,0,0,0-1.636,0,41.784,41.784,0,0,1-4.09,4.667c-2.142,2.189-4.163,4.5-6.183,6.784-.168.481-.986.072-.553-.289,3.368-3.849,6.737-7.723,10.417-11.259.505-.6,1.035-1.2,1.516-1.8.193-.265.361-.529.529-.794a3.161,3.161,0,0,0,.433-2.526,2.307,2.307,0,0,0-2.55-1.588,6.142,6.142,0,0,0-2.5,1.251,8.668,8.668,0,0,0-.7.625c-1.516,1.371-2.887,2.887-4.307,4.354-.673.746-1.371,1.467-2.069,2.189-2,2-3.681,4.282-5.774,6.159-.264-.216-.409-.553-.12-.794,1.492-2.069,3.031-4.114,4.547-6.159a26.809,26.809,0,0,1,2.454-3.007,29.433,29.433,0,0,0,2.743-3.7c.144-.24.265-.505.385-.746a2.523,2.523,0,0,0-.433-2.454m-2.671-.1a5.545,5.545,0,0,0-.168,1.4,1.739,1.739,0,0,0,2.021.746,10.288,10.288,0,0,0,1.034-1.01,1.768,1.768,0,0,1-1.708,1.732,2.676,2.676,0,0,1-1.877-1.179,1.344,1.344,0,0,1,.674-1.684m7.988,2.935c-.12.457-.313.914-.385,1.372a1.608,1.608,0,0,0,1.588,1.347c.673,0,1.107-.6,1.684-.866a2.158,2.158,0,0,1-1.659,1.564,2.559,2.559,0,0,1-2.286-2.238,1.621,1.621,0,0,1,1.082-1.179m1.54,6.472c-.1.7-.145,1.564.553,1.973.6.505,1.347.193,1.973-.048a1.126,1.126,0,0,1-1.251.962c-.915-.265-1.973-.866-1.973-1.925A2.75,2.75,0,0,1,3561.334,3509.188Z" transform="translate(-3499.092 -3340.333)" fill="#efab8e"/>
              <path id="Trazado_1170744" data-name="Trazado 1170744" d="M3727.478,3513a1.354,1.354,0,0,0-.674,1.684,2.777,2.777,0,0,0,1.876,1.179c.866-.072,1.8-.818,1.708-1.732a10.188,10.188,0,0,1-1.035,1.01,1.738,1.738,0,0,1-2.021-.746,5.413,5.413,0,0,1,.168-1.4Z" transform="translate(-3674.763 -3353.552)" fill="#cd866a"/>
              <path id="Trazado_1170745" data-name="Trazado 1170745" d="M3673.363,3560.457c-.938-.409-1.925-.674-2.839-1.107-.12.24-.241.505-.385.746a3.735,3.735,0,0,1,2.526.987c.24-.217.481-.433.7-.625Z" transform="translate(-3614.707 -3397.424)" fill="#000005"/>
              <path id="Trazado_1170746" data-name="Trazado 1170746" d="M3579.872,3567.9a1.717,1.717,0,0,0-1.082,1.179,2.558,2.558,0,0,0,2.285,2.237,2.123,2.123,0,0,0,1.66-1.564c-.577.289-1.01.866-1.684.866a1.608,1.608,0,0,1-1.588-1.348,12.893,12.893,0,0,1,.385-1.371Z" transform="translate(-3519.195 -3405.517)" fill="#d08162"/>
              <path id="Trazado_1170747" data-name="Trazado 1170747" d="M3685.932,3572.85a27.831,27.831,0,0,1-2.742,3.7,18.318,18.318,0,0,1,.962,1.636c1.443-1.443,2.791-2.983,4.307-4.354a3.693,3.693,0,0,0-2.526-.986Z" transform="translate(-3630.499 -3410.202)" fill="#1d1c1b"/>
              <path id="Trazado_1170748" data-name="Trazado 1170748" d="M3766.194,3642.15a26.787,26.787,0,0,0-2.454,3.007c.458.265.89.553,1.348.818.7-.722,1.4-1.443,2.069-2.189a11.211,11.211,0,0,0-.962-1.636Z" transform="translate(-3713.503 -3475.797)" fill="#d47c5d"/>
              <path id="Trazado_1170749" data-name="Trazado 1170749" d="M3379.986,3647.172c-.481.625-.986,1.2-1.515,1.8a3.573,3.573,0,0,1,.433.1,4.155,4.155,0,0,1,1.636,0,2.681,2.681,0,0,1,1.732,3.464,8.041,8.041,0,0,1-1.66,2.55c.217.073.433.12.674.192a2.218,2.218,0,0,1,1.612,1.925c0,.1.048.265.048.337-.048.409-.12.818-.193,1.227.1-.313.217-.65.313-.962.842,1.708,2,3.272,2.743,5.028,1.8,4.065,2,8.661,1.492,13.039h3.657c.145-3.464.578-6.9.53-10.369a29.819,29.819,0,0,0-8.758-16.48,8.916,8.916,0,0,0-2.791-1.924Z" transform="translate(-3317.24 -3480.483)" fill="#1b1b1b"/>
              <path id="Trazado_1170750" data-name="Trazado 1170750" d="M726.084,3654.685c-.024-.1-.1-.289-.12-.385-.024.1-.12.265-.144.361a48.35,48.35,0,0,1-6.472,0c-3.777.048-7.554-.1-11.307.073-2.719-.145-5.461-.048-8.18-.073-3.392.048-6.76,0-10.153,0h-.866c-1.684,0-3.392-.048-5.076,0-.217,0-.626,0-.818.024-.938.048-1.877-.048-2.815,0-.914,0-1.564,1.4-.7,1.949a6.793,6.793,0,0,0,1.708.12H732.1a2.949,2.949,0,0,1,2.285.938,7.675,7.675,0,0,1,2.069,4.98,9.714,9.714,0,0,1-1.371,6.111,3.605,3.605,0,0,1-3.007,1.78h-51.2a4.446,4.446,0,0,0-1.588.216c-.529.433-.265,1.155-.12,1.708,1.347-.024,2.695.12,4.066.1,5.437-.12,10.9-.1,16.36-.1,6.255.289,12.534-.193,18.79.072,5.461-.216,10.922.048,16.384-.144a7.846,7.846,0,0,0,5-5.172,11.02,11.02,0,0,0-.818-9.046,6.645,6.645,0,0,0-5.413-3.512c-2.5-.024-4.98,0-7.482,0Z" transform="translate(-521.802 -3487.297)" fill="#542228"/>
              <path id="Trazado_1170751" data-name="Trazado 1170751" d="M3624.883,3682.2c-3.681,3.561-7.049,7.434-10.417,11.259-.433.361.385.77.553.289,2.021-2.31,4.042-4.6,6.183-6.784a41.782,41.782,0,0,0,4.09-4.667c-.1-.024-.313-.072-.433-.1Z" transform="translate(-3563.652 -3513.706)" fill="#c57a5e"/>
              <path id="Trazado_1170752" data-name="Trazado 1170752" d="M3556.538,3688.95a2.545,2.545,0,0,0-.7.962c0,1.058,1.083,1.684,1.973,1.925a1.126,1.126,0,0,0,1.251-.963c-.625.265-1.371.578-1.973.048C3556.394,3690.514,3556.417,3689.648,3556.538,3688.95Z" transform="translate(-3494.296 -3520.095)" fill="#c88068"/>
              <path id="Trazado_1170753" data-name="Trazado 1170753" d="M804.314,3700.992a2.947,2.947,0,0,0-2.286-.938H751.073a14.077,14.077,0,0,1,1.155,2.526c1.251,3.729.385,7.843-1.4,11.259h51.2a3.6,3.6,0,0,0,3.007-1.78,9.677,9.677,0,0,0,1.371-6.111,7.8,7.8,0,0,0-2.069-4.98m-6.063,2.719.1.337-.192.168c-13.232.024-26.464,0-39.7,0-.1-.048-.313-.12-.433-.168v-.385c13.425-.024,26.849,0,40.25,0m.072,3.079c.168.722-.746.457-1.179.529-11.332-.048-22.663.048-33.971-.048v-.53h24.155c3.681.048,7.362-.072,11.019.048m-.048,3.176v.529H755.86c-.289-.048-.361-.24-.241-.553q21.364,0,42.752.024Z" transform="translate(-591.708 -3530.597)" fill="#f2eadc"/>
              <path id="Trazado_1170754" data-name="Trazado 1170754" d="M3807.146,3697.974c-1.516,2.069-3.056,4.09-4.547,6.159-.289.264-.144.577.12.793,2.093-1.876,3.777-4.162,5.774-6.159-.433-.265-.89-.53-1.347-.818Z" transform="translate(-3756.909 -3528.614)" fill="#d1866b"/>
              <path id="Trazado_1170755" data-name="Trazado 1170755" d="M1789.994,3747.047c-4.258.217-8.516.361-12.775.289a92.84,92.84,0,0,0-13.689.6c-2.406.337-4.884.553-7.073,1.66a4.762,4.762,0,0,0-1.756,1.636c1.419.433,2.839.915,4.234,1.347.77.193,1.155.938,1.588,1.54a46.323,46.323,0,0,1,4.186,8.83,32.218,32.218,0,0,1,2,9.142c-2.526,0-4.739-1.4-6.833-2.694a9.85,9.85,0,0,0-2.093-1.01,4.406,4.406,0,0,1-.481.24c.385.529.794,1.035,1.2,1.54-.12.264-.265.529-.409.818a13.312,13.312,0,0,0,5.245,5.51,5.946,5.946,0,0,0,4.451.265,30.8,30.8,0,0,1,6.3-.674,11.73,11.73,0,0,1-1.131-9.5c.842-2.983,3.128-5.942,6.375-6.351,2.5-.12,5-.024,7.506-.048-.144-.553-.385-1.275.12-1.708a4.447,4.447,0,0,1,1.588-.217c1.78-3.416,2.646-7.53,1.4-11.259Z" transform="translate(-1629.474 -3575.041)"/>
              <path id="Trazado_1170756" data-name="Trazado 1170756" d="M942.419,3767.96c-13.4,0-26.8-.024-40.226,0v.385a3.6,3.6,0,0,0,.409.168h39.7l.192-.168-.1-.337Z" transform="translate(-735.851 -3594.871)" fill="#cac1b6"/>
              <path id="Trazado_1170757" data-name="Trazado 1170757" d="M3545.8,3796.95c-2,2.31-3.8,4.764-5.677,7.145a18.245,18.245,0,0,0-1.829,2.478c.409.6.818-.264,1.107-.553,2.021-2.574,4.066-5.1,6.087-7.675a2.517,2.517,0,0,0,2.646,1.058c0-.1-.048-.264-.048-.337a5.669,5.669,0,0,1-1.66-.577,7.187,7.187,0,0,1-.337-1.227c.1-.024.289-.1.385-.121a5.589,5.589,0,0,0-.674-.192Z" transform="translate(-3482.423 -3622.321)" fill="#ce7d60"/>
              <path id="Trazado_1170758" data-name="Trazado 1170758" d="M3541.637,3802.474a2.218,2.218,0,0,0-1.612-1.925c-.1.024-.289.1-.385.121a7.744,7.744,0,0,0,.337,1.227,5.666,5.666,0,0,0,1.66.577Z" transform="translate(-3476.003 -3625.729)" fill="#f1a991"/>
              <path id="Trazado_1170759" data-name="Trazado 1170759" d="M2224.486,3812.873a15.321,15.321,0,0,0-3.465-.746,12.6,12.6,0,0,0-4.306.866c-1.491.481-2.983.914-4.427,1.492a11.36,11.36,0,0,0-1.684.914,22.3,22.3,0,0,0-2.6,2.623,2.7,2.7,0,0,1-.89.577,3.338,3.338,0,0,1-.962,1.66c-.866.986-1.443,2.189-2.213,3.224-.914,1.756-2.117,3.416-2.55,5.389a1.271,1.271,0,0,0,1.155,1.54,3.613,3.613,0,0,0,2.622-1.058c2.045-1.757,3.3-4.235,5.293-6.063a7.665,7.665,0,0,1,1.516-3.224c1.4-1.612,3.392-2.478,5.245-3.392a10.233,10.233,0,0,1,2.141-.866,6.515,6.515,0,0,1-.1.673,28.258,28.258,0,0,0-5.75,2.959,7.063,7.063,0,0,0-2.189,3.681c-.144,1.444-.577,2.887-.168,4.331a3.136,3.136,0,0,0,2.623,2.189,2.9,2.9,0,0,0,.457-.024,5.942,5.942,0,0,1,1.3-5.245,26.853,26.853,0,0,1,4.956-3.44,10.958,10.958,0,0,1,2.43-1.227c0,.168-.048.481-.048.625a42.134,42.134,0,0,0-5.726,3.464,5.468,5.468,0,0,0-2.333,3.44c-.121.842-.121,1.708-.192,2.55a2.769,2.769,0,0,0,1.515,2.117,6.224,6.224,0,0,0,2.189.433,3.955,3.955,0,0,1,.216-3.488c.794-1.323,2.238-2,3.489-2.767,1.347-.77,2.743-1.444,4.138-2.117a.832.832,0,0,1,1.01.072,19.164,19.164,0,0,1-2.935,1.588,19.75,19.75,0,0,0-4.595,2.887,4.67,4.67,0,0,0-.914,3.85c.674,1.131,2.045,1.443,3.248,1.708,1.516.264,2.695-.938,3.777-1.8-.217-.265-.433-.529-.625-.818a2.014,2.014,0,0,1-1.275,1.588c-.505.12-.89-.241-1.251-.529a22.65,22.65,0,0,1,2.382-1.275c.674-.337,1.371-.65,2.045-1.011a4.433,4.433,0,0,1,.481-.24,9.859,9.859,0,0,1,2.094,1.01c2.093,1.275,4.306,2.67,6.832,2.694a33.963,33.963,0,0,0-2-9.142,45.678,45.678,0,0,0-4.186-8.83c-.433-.6-.818-1.371-1.588-1.54-1.42-.433-2.839-.89-4.234-1.347m-20.065,14.82a2.911,2.911,0,0,1-1.9,2.43c.385-.818,1.251-1.419,1.3-2.382,0-.65-.722-.722-1.179-.962.481-.842,1.925.048,1.781.914Z" transform="translate(-2099.259 -3636.68)" fill="#efaa8d"/>
              <path id="Trazado_1170760" data-name="Trazado 1170760" d="M936.916,3823.68c-3.681-.145-7.362,0-11.019-.049-8.06.024-16.1,0-24.155,0v.529c11.331.1,22.663,0,33.97.048.433-.072,1.347.192,1.179-.529Z" transform="translate(-730.253 -3647.559)" fill="#cbc2b6"/>
              <path id="Trazado_1170761" data-name="Trazado 1170761" d="M3477.633,3847.4c-.121.313-.217.626-.313.962a12.334,12.334,0,0,1-1.323,3.128,4.509,4.509,0,0,1,.457,4.138,11.069,11.069,0,0,1-6.544,6.664,6.075,6.075,0,0,1-4.932-.24,9.125,9.125,0,0,1-3.2-3.08c-.505-.505-1.3-.577-1.8-1.059a5.733,5.733,0,0,1-1.66-2.67,4,4,0,0,1-3.127-1.9,6.69,6.69,0,0,1-.578-3.224,4.959,4.959,0,0,1-2.887-2.767c0,1.756-.265,3.488-.192,5.244-.048,2.839.24,5.678-.024,8.517a16.9,16.9,0,0,1,6.544,2.117,5.939,5.939,0,0,1,2.261,2.238h21.6a25.363,25.363,0,0,0-1.491-13.04c-.746-1.756-1.9-3.32-2.743-5.028Z" transform="translate(-3411.806 -3670.026)"/>
              <path id="Trazado_1170762" data-name="Trazado 1170762" d="M945,3883.824c-14.243-.048-28.509,0-42.752-.024-.12.313-.048.505.241.554h42.487v-.53Z" transform="translate(-738.361 -3704.527)" fill="#c9c1b6"/>
              <path id="Trazado_1170763" data-name="Trazado 1170763" d="M2528.842,3881.55a9.733,9.733,0,0,0-2.141.866,15.518,15.518,0,0,0-5.245,3.392,7.258,7.258,0,0,0-1.515,3.224c.288-.072.6-.12.914-.168a7.057,7.057,0,0,1,2.189-3.681,26.01,26.01,0,0,1,5.75-2.959c.024-.168.073-.505.1-.673Z" transform="translate(-2408.74 -3702.398)" fill="#c9795b"/>
              <path id="Trazado_1170764" data-name="Trazado 1170764" d="M4120.861,3907.47c-.1-1.732.1-3.489-.12-5.221a36.158,36.158,0,0,0-2.262,11.163c.77-.168,1.563-.289,2.357-.385-.072-1.853.12-3.7,0-5.557Z" transform="translate(-4086.191 -3721.991)" fill="#1b1a1a"/>
              <path id="Trazado_1170765" data-name="Trazado 1170765" d="M3567.1,3924.75a25.873,25.873,0,0,1-1.468,2.478c-.866,1.275-1.444,2.694-2.261,3.994a4.3,4.3,0,0,1-2.935,2.141,7.055,7.055,0,0,1-4.667-1.3,9.881,9.881,0,0,0-2.911.168,9.329,9.329,0,0,0,3.2,3.08,6.172,6.172,0,0,0,4.932.24,11.066,11.066,0,0,0,6.544-6.664,4.51,4.51,0,0,0-.457-4.138Z" transform="translate(-3502.91 -3743.288)" fill="#d68166"/>
              <path id="Trazado_1170766" data-name="Trazado 1170766" d="M2754.81,3932.874a20.058,20.058,0,0,0-2.887.914,2.121,2.121,0,0,0-1.564,1.66,2.519,2.519,0,0,0,1.251,2.285c.793-1.034,1.371-2.237,2.213-3.224a3.528,3.528,0,0,0,.963-1.66Z" transform="translate(-2646.979 -3750.955)" fill="#d47e60"/>
              <path id="Trazado_1170767" data-name="Trazado 1170767" d="M2462.932,3954.449a12.137,12.137,0,0,0-2.43,1.227,25.3,25.3,0,0,0-4.956,3.44,5.922,5.922,0,0,0-1.3,5.244c-.12,0-.337.024-.457.024.289.048.577.1.842.169.073-.843.073-1.708.192-2.55a5.471,5.471,0,0,1,2.334-3.441,39.352,39.352,0,0,1,5.726-3.464c0-.168.048-.481.048-.626Z" transform="translate(-2339.245 -3771.4)" fill="#c6785e"/>
              <path id="Trazado_1170768" data-name="Trazado 1170768" d="M559.292,3993.15c-5.461.193-10.922-.072-16.384.145-6.255-.241-12.534.216-18.79-.072-5.461,0-10.9-.024-16.36.1-1.347.024-2.695-.12-4.066-.1-2.5,0-5-.072-7.506.048-3.272.409-5.534,3.368-6.376,6.352a11.742,11.742,0,0,0,1.131,9.5,7.737,7.737,0,0,0,2.695,1.973,8.611,8.611,0,0,0,3.753.577H508.7a22.637,22.637,0,0,1,3.128-.12c3.464.337,6.9-.337,10.369.1h46.914a6.521,6.521,0,0,0,4.355-3.175,9.423,9.423,0,0,0,1.564-5.221,10.6,10.6,0,0,0-3.007-7.843,6.291,6.291,0,0,0-4.138-2.189c-2.863-.1-5.75.121-8.613-.048m12.631,5.053a9.271,9.271,0,0,1,.77,8.18,6.651,6.651,0,0,1-2.959,3.561,8.708,8.708,0,0,1-2.5.192c-15.036,0-30.1.048-45.158-.024v.264l-.217.1.168.241c-1.2.168-2.406,0-3.609.048-2.887,0-5.8.048-8.685,0l.168-.289c-.048-.1-.168-.265-.217-.361H496.235c-1.973-.217-3.152-2.117-3.7-3.85a10.936,10.936,0,0,1,1.227-9.022,3.7,3.7,0,0,1,2.959-1.876H568.41c1.636.072,2.695,1.564,3.488,2.839Z" transform="translate(-346.325 -3808.031)" fill="#414261"/>
              <path id="Trazado_1170769" data-name="Trazado 1170769" d="M2381.944,4032.207a.831.831,0,0,0-1.01-.072c-1.4.673-2.791,1.347-4.138,2.117-1.251.77-2.719,1.443-3.489,2.767a3.957,3.957,0,0,0-.217,3.489,2.4,2.4,0,0,1,.433.048,4.588,4.588,0,0,1,.914-3.85,20.565,20.565,0,0,1,4.6-2.887,19.146,19.146,0,0,0,2.935-1.588Z" transform="translate(-2253.951 -3844.803)" fill="#c77658"/>
              <path id="Trazado_1170770" data-name="Trazado 1170770" d="M601.43,4037.771c-.794-1.275-1.852-2.767-3.488-2.838H526.248a3.626,3.626,0,0,0-2.959,1.876,10.936,10.936,0,0,0-1.227,9.022c.553,1.732,1.708,3.657,3.7,3.85,4.475.024,8.95,0,13.425,0a25.15,25.15,0,0,0,.144-4.042c4.042,0,8.108.024,12.149,0,.241,1.323,0,2.695.12,4.018,15.036.072,30.1,0,45.158.024a8.676,8.676,0,0,0,2.5-.192,6.759,6.759,0,0,0,2.959-3.561,9.272,9.272,0,0,0-.77-8.18Z" transform="translate(-375.857 -3847.576)" fill="#f2e8dc"/>
              <path id="Trazado_1170771" data-name="Trazado 1170771" d="M2802.9,4080.246c.144-.89-1.3-1.756-1.781-.914.457.24,1.155.313,1.179.962-.048.987-.938,1.564-1.3,2.382a2.942,2.942,0,0,0,1.9-2.43Z" transform="translate(-2697.788 -3889.282)" fill="#cd8165"/>
              <path id="Trazado_1170772" data-name="Trazado 1170772" d="M3866.688,4102.194c-.554-.072-1.083-.121-1.636-.145h-1.925a9.156,9.156,0,0,0-1.42.12c-.793.1-1.588.216-2.357.385a15.473,15.473,0,0,0-4.307,1.587,8.526,8.526,0,0,0-2.671,2.406c-.168.409-.288.843-.433,1.251a17.137,17.137,0,0,0,3.512.145c6.833,0,13.689,0,20.522-.024-.144-.457-.288-.915-.481-1.372a5.941,5.941,0,0,0-2.261-2.237,17.431,17.431,0,0,0-6.544-2.117Z" transform="translate(-3827.037 -3911.109)" fill="#e79f30"/>
              <path id="Trazado_1170773" data-name="Trazado 1170773" d="M2355.035,4152c-.674.361-1.372.65-2.045,1.011l.144.216c.192.265.409.553.625.818.313.361.626.746.938,1.107.385-.265.77-.505,1.155-.77.145-.265.264-.529.409-.818-.409-.506-.818-1.011-1.2-1.54Z" transform="translate(-2227.186 -3958.389)" fill="#313339"/>
              <path id="Trazado_1170774" data-name="Trazado 1170774" d="M2413.871,4170.9a17.4,17.4,0,0,0-2.382,1.275c.36.289.746.649,1.251.529a1.972,1.972,0,0,0,1.275-1.588Z" transform="translate(-2288.068 -3976.279)" fill="#cf6e55"/>
              <path id="Trazado_1170775" data-name="Trazado 1170775" d="M581.462,4181.274a9.824,9.824,0,0,1-1.564,5.22,6.518,6.518,0,0,1-4.355,3.176H528.63c-3.44-.433-6.9.241-10.369-.1a22.569,22.569,0,0,0-3.128.121H503.826a8.274,8.274,0,0,1-3.753-.577,7.323,7.323,0,0,1-2.694-1.973,32.391,32.391,0,0,0-6.3.674,6.065,6.065,0,0,1-4.451-.265,13.61,13.61,0,0,1-5.245-5.509,13.782,13.782,0,0,1-1.155.77c-.313-.36-.625-.722-.938-1.107-1.083.867-2.262,2.094-3.777,1.8-1.179-.265-2.574-.578-3.248-1.708a2.353,2.353,0,0,1-.433-.048,6.139,6.139,0,0,1-2.189-.433c-.168.048-.505.144-.7.192-13.954,0-27.932.024-41.886,0H401.193c.168.457.313.914.481,1.371a3.717,3.717,0,0,1,1.853,1.2,4.637,4.637,0,0,1,.217,1.731,2.807,2.807,0,0,1,2.213.65c.842.793.577,2.044.577,3.079-11.452,0-22.928-.048-34.379,0-.1-1.083-.216-2.43.7-3.224a2.5,2.5,0,0,0,3.152-2.887,8.146,8.146,0,0,1,1.636-.7c.144-.433.265-.842.433-1.251-7.627-.048-15.277,0-22.9-.024a2.281,2.281,0,0,0-1.877.7,2.755,2.755,0,0,0-.577,2.117v9.142a2.238,2.238,0,0,0,1.419,1.949c2.117-.1,4.234,0,6.327-.048.962-.048,1.925.12,2.887.168H575.52c3.7-.024,7.41,0,11.115,0a2.105,2.105,0,0,0,2.093-2.069v-9.888a2.106,2.106,0,0,0-2.093-2.069c-1.636-.048-3.272.048-4.908,0-.072-.048-.192-.169-.265-.217Z" transform="translate(-352.713 -3986.075)" fill="#7e4b36"/>
              <path id="Trazado_1170776" data-name="Trazado 1170776" d="M3815.671,4209.6a6.992,6.992,0,0,0-1.636.7,3.079,3.079,0,0,0-.794,2.358c9.5-.048,19.03-.024,28.533,0a5.192,5.192,0,0,0-.216-1.732,3.718,3.718,0,0,0-1.853-1.2c-6.832.048-13.665.024-20.522.024A17.065,17.065,0,0,1,3815.671,4209.6Z" transform="translate(-3790.768 -4012.909)" fill="#b87423"/>
              <path id="Trazado_1170777" data-name="Trazado 1170777" d="M1492.283,4235.7h-12.149a25.112,25.112,0,0,1-.144,4.041c.048.1.168.265.216.361h11.957l.24-.1v-.265a37.119,37.119,0,0,0-.12-4.018Z" transform="translate(-1316.655 -4037.614)" fill="#f4b52a"/>
              <path id="Trazado_1170778" data-name="Trazado 1170778" d="M3794.175,4267.08a2.78,2.78,0,0,0-2.213-.649c-9.5-.025-19.03-.025-28.533,0a3.128,3.128,0,0,0-2.358.529c-.938.77-.794,2.117-.7,3.224,11.452-.072,22.928-.024,34.379,0,0-1.034.265-2.285-.577-3.08Z" transform="translate(-3740.955 -4066.684)" fill="#e7a030"/>
              <path id="Trazado_1170779" data-name="Trazado 1170779" d="M1493.466,4317.6h-11.957l-.168.29c2.887.048,5.8,0,8.685,0a25.8,25.8,0,0,0,3.609-.048l-.168-.241Z" transform="translate(-1317.957 -4115.135)" fill="#463f40"/>
              <path id="Trazado_1170780" data-name="Trazado 1170780" d="M608.557,4445.256a19.348,19.348,0,0,0-2.887-.169c-2.117.072-4.234-.048-6.327.048,2.791.193,5.582,0,8.372.1.048,2.526.024,5.052.024,7.555H820.776c0-2.526-.072-5.028-.048-7.53q-106.1.036-212.171,0Z" transform="translate(-597.945 -4235.791)" fill="#51291e"/>
              <path id="Trazado_1170781" data-name="Trazado 1170781" d="M3663.474,2855.341c-.409-.072-.794-.144-1.2-.24-2.5,8.2-5.389,16.288-7.963,24.468a20.62,20.62,0,0,0-.818,2.622h.746c1.01-2.526,1.708-5.148,2.6-7.7.409-1.443,1.059-2.839,1.372-4.307,1.275-3.3,2.165-6.736,3.416-10.08.361-1.54,1.155-2.935,1.4-4.523.12-.072.361-.192.481-.264Z" transform="translate(-3603.951 -2730.825)" fill="#c68028"/>
            </g>
          </g>
        </g>
      </g>
    </g>
  </g>
</svg>
