<svg xmlns="http://www.w3.org/2000/svg" xmlns:xlink="http://www.w3.org/1999/xlink" width="93.934" height="93.934" viewBox="0 0 93.934 93.934">
  <defs>
    <filter id="Trazado_978624" x="0" y="0" width="93.934" height="93.934" filterUnits="userSpaceOnUse">
      <feOffset dy="3" input="SourceAlpha"/>
      <feGaussianBlur stdDeviation="3" result="blur"/>
      <feFlood flood-opacity="0.161"/>
      <feComposite operator="in" in2="blur"/>
      <feComposite in="SourceGraphic"/>
    </filter>
  </defs>
  <g id="Grupo_1230174" data-name="Grupo 1230174" transform="translate(-189 -2069.08)">
    <g id="Grupo_1229387" data-name="Grupo 1229387" transform="translate(-1 -1914.14)">
      <g id="Grupo_1226961" data-name="Grupo 1226961" transform="translate(0 -11.918)">
        <g id="Grupo_1225961" data-name="Grupo 1225961" transform="translate(0 2131.139)">
          <g id="Grupo_1224945" data-name="Grupo 1224945" transform="translate(0.001 -1279.381)">
            <g id="Grupo_1214679" data-name="Grupo 1214679" transform="translate(-631 2418.347)">
              <g id="Grupo_1212848" data-name="Grupo 1212848" transform="translate(212 -798.5)">
                <g id="Grupo_1210963" data-name="Grupo 1210963" transform="translate(0 -377.186)">
                  <g id="Grupo_1208068" data-name="Grupo 1208068" transform="translate(412 470.719)">
                    <g id="Grupo_1144123" data-name="Grupo 1144123" transform="translate(206 1436)">
                      <g transform="matrix(1, 0, 0, 1, -9, -6)" filter="url(#Trazado_978624)">
                        <g id="Trazado_978624-2" data-name="Trazado 978624" transform="translate(9 6)" fill="#e7f2f8">
                          <path d="M 37.966796875 74.43359375 C 33.04315185546875 74.43359375 28.26757431030273 73.46962738037109 23.77274131774902 71.56847381591797 C 19.43047523498535 69.73184967041016 15.53040790557861 67.10224914550781 12.18087482452393 63.75271987915039 C 8.831341743469238 60.4031867980957 6.201741218566895 56.50312042236328 4.365118980407715 52.16086196899414 C 2.463963508605957 47.66601943969727 1.499996900558472 42.89044189453125 1.499996900558472 37.966796875 C 1.499996900558472 33.04315185546875 2.463963508605957 28.26757431030273 4.365118980407715 23.77274131774902 C 6.201741218566895 19.43047523498535 8.831341743469238 15.53040790557861 12.18087482452393 12.18087482452393 C 15.53040790557861 8.831341743469238 19.43047523498535 6.201741218566895 23.77274131774902 4.365118980407715 C 28.26757431030273 2.463963508605957 33.04315185546875 1.499996900558472 37.966796875 1.499996900558472 C 42.89044189453125 1.499996900558472 47.66601943969727 2.463963508605957 52.16086196899414 4.365118980407715 C 56.50312042236328 6.201741218566895 60.4031867980957 8.831341743469238 63.75271987915039 12.18087482452393 C 67.10224914550781 15.53040790557861 69.73184967041016 19.43047523498535 71.56847381591797 23.77274131774902 C 73.46962738037109 28.26757431030273 74.43359375 33.04315185546875 74.43359375 37.966796875 C 74.43359375 42.89044189453125 73.46962738037109 47.66601943969727 71.56847381591797 52.16086196899414 C 69.73184967041016 56.50313186645508 67.10224914550781 60.4031867980957 63.75271987915039 63.75271987915039 C 60.4031867980957 67.10224914550781 56.50313186645508 69.73184967041016 52.16086196899414 71.56847381591797 C 47.66601943969727 73.46962738037109 42.89044189453125 74.43359375 37.966796875 74.43359375 Z" stroke="none"/>
                          <path d="M 37.966796875 3 C 33.2449836730957 3 28.66600799560547 3.924095153808594 24.35705947875977 5.746635437011719 C 20.19359588623047 7.507621765136719 16.45379638671875 10.02927398681641 13.24153518676758 13.24153518676758 C 10.02927398681641 16.45379638671875 7.507621765136719 20.19359588623047 5.746635437011719 24.35705947875977 C 3.924095153808594 28.66600799560547 3 33.2449836730957 3 37.966796875 C 3 42.6886100769043 3.924095153808594 47.26758575439453 5.746635437011719 51.57653427124023 C 7.507621765136719 55.73999786376953 10.02927398681641 59.47979736328125 13.24153518676758 62.69205856323242 C 16.45379638671875 65.90431976318359 20.19359588623047 68.42597198486328 24.35705947875977 70.18695831298828 C 28.66600799560547 72.00949859619141 33.2449836730957 72.93359375 37.966796875 72.93359375 C 42.6886100769043 72.93359375 47.26758575439453 72.00949859619141 51.57653427124023 70.18695831298828 C 55.73999786376953 68.42597198486328 59.47979736328125 65.90431976318359 62.69205856323242 62.69205856323242 C 65.90431976318359 59.47979736328125 68.42597198486328 55.73999786376953 70.18695831298828 51.57653427124023 C 72.00949859619141 47.26758575439453 72.93359375 42.6886100769043 72.93359375 37.966796875 C 72.93359375 33.2449836730957 72.00949859619141 28.66600799560547 70.18695831298828 24.35705947875977 C 68.42597198486328 20.19359588623047 65.90431976318359 16.45379638671875 62.69205856323242 13.24153518676758 C 59.47979736328125 10.02927398681641 55.73999786376953 7.507621765136719 51.57653427124023 5.746635437011719 C 47.26758575439453 3.924095153808594 42.6886100769043 3 37.966796875 3 M 37.966796875 0 C 58.93528366088867 0 75.93359375 16.99831008911133 75.93359375 37.966796875 C 75.93359375 58.93528366088867 58.93528366088867 75.93359375 37.966796875 75.93359375 C 16.99831008911133 75.93359375 0 58.93528366088867 0 37.966796875 C 0 16.99831008911133 16.99831008911133 0 37.966796875 0 Z" stroke="none" fill="#248abf"/>
                        </g>
                      </g>
                    </g>
                  </g>
                </g>
              </g>
            </g>
          </g>
        </g>
      </g>
    </g>
    <g id="choca-los-punos" transform="translate(212.825 2085.468)">
      <g id="Grupo_1230170" data-name="Grupo 1230170" transform="translate(23.107 20.753)">
        <path id="Trazado_1193190" data-name="Trazado 1193190" d="M277.571,204.588a4.858,4.858,0,0,1-1.73-2.362,5.23,5.23,0,0,1-.222-1.506v-6.814a3.109,3.109,0,0,0-.939-2.152l-1.028-1.028a3.069,3.069,0,0,0-2.577-.872l-1.57.21a3.067,3.067,0,0,0-.9.267l-1.154-1.154a2.151,2.151,0,0,0-3.056-.03,2.228,2.228,0,0,0,.007,3.158l-.783-.783a2.115,2.115,0,0,0-3.108.02,2.2,2.2,0,0,0,.04,3.088l.724.724,0,0-.064-.064a2.183,2.183,0,1,0-3.088,3.088l.068.068,1.151,1.151a2.183,2.183,0,0,0-3.087,3.088l.017.017c.017.018,2.533,2.536,2.533,2.536a13.9,13.9,0,0,0,5.4,3.347l3.8,1.277a5.276,5.276,0,0,1,2.046,1.269l4.291,5.369h3.55V204.879Z" transform="translate(-255.613 -188.525)" fill="#ffdad5"/>
      </g>
      <g id="Grupo_1230171" data-name="Grupo 1230171" transform="translate(0.904 20.898)">
        <path id="Trazado_1193191" data-name="Trazado 1193191" d="M27.371,192.967a2.116,2.116,0,0,0-3.108-.02l-.961.961a2.228,2.228,0,0,0,.007-3.158,2.151,2.151,0,0,0-3.056.03l-.841.841-2.6-.342a3.069,3.069,0,0,0-2.577.872L13.2,193.18a3.113,3.113,0,0,0-.942,2.152v7.37h0c-.042,1.7-.732,2.219-1.947,3.31l-.313.259v11.681h3.4l3.977-4.875.46-.528a5.278,5.278,0,0,1,2.046-1.269l3.8-1.277a13.9,13.9,0,0,0,5.4-3.347l2.482-2.482a2.184,2.184,0,0,0-3.088-3.09l1.219-1.219a2.184,2.184,0,0,0-3.088-3.088l.724-.724a2.2,2.2,0,0,0,.04-3.088Z" transform="translate(-10 -190.129)" fill="#f5ad8a"/>
      </g>
      <g id="Grupo_1230172" data-name="Grupo 1230172" transform="translate(2.941 4.983)">
        <path id="Trazado_1193192" data-name="Trazado 1193192" d="M67.961,27.014,67.9,22.621l-4.063,2.138-2.9-6.946L56,24.332,52.515,18.78l-3.107,3.935L42.046,14.08l.7,10.336-5.832-2.633.969,4.957-5.351.8,2.718,4.06a3.064,3.064,0,0,1,2.052-.452l2.6.343.841-.842a2.153,2.153,0,0,1,3.056-.03,2.227,2.227,0,0,1-.007,3.157l.961-.961a2.115,2.115,0,0,1,3.108.02,2.2,2.2,0,0,1-.04,3.088l-.724.724a2.184,2.184,0,0,1,3.088,3.088l-1.219,1.219a2.183,2.183,0,0,1,3.726,1.509h0a2.184,2.184,0,0,1,3.727-1.543L55.2,39.7a2.183,2.183,0,0,1,3.088-3.087l-.656-.657a2.2,2.2,0,0,1-.04-3.088,2.116,2.116,0,0,1,3.108-.02l.783.783a2.228,2.228,0,0,1-.007-3.158,2.151,2.151,0,0,1,3.056.031l1.154,1.153a3.093,3.093,0,0,1,.9-.267l1.57-.21a3.067,3.067,0,0,1,1.389.135L72.1,27.6Z" transform="translate(-32.529 -14.08)" fill="#ffea54"/>
      </g>
      <g id="Grupo_1230173" data-name="Grupo 1230173" transform="translate(0 4.079)">
        <path id="Trazado_1193193" data-name="Trazado 1193193" d="M45.994,36.443l-.315-.291-.009-.008a4.008,4.008,0,0,1-1.47-1.955,4.318,4.318,0,0,1-.182-1.24V26.129a4.027,4.027,0,0,0-1.2-2.786l-1.028-1.028a3.912,3.912,0,0,0-.5-.425l1.976-2.876a.9.9,0,0,0-.618-1.407l-3.375-.477-.054-3.62a.9.9,0,0,0-1.325-.786L34.7,14.4,32.181,8.368a.9.9,0,0,0-1.555-.2l-4.147,5.475L23.692,9.2a.9.9,0,0,0-1.475-.08l-2.424,3.07L13.146,4.4a.9.9,0,0,0-1.59.648l.6,8.831L7.695,11.863a.9.9,0,0,0-1.259,1l.788,4.029-4.416.658a.9.9,0,0,0-.618,1.4l2.263,3.38-.986.986A4.031,4.031,0,0,0,2.26,26.1v7.362c-.01,1.182-.4,1.533-1.453,2.472-.157.141-.318.275-.48.41a.9.9,0,1,0,1.154,1.392c.18-.149.357-.3.531-.454,1.139-1.018,2.039-1.822,2.056-3.812V26.107a2.21,2.21,0,0,1,.677-1.518L5.773,23.56a2.194,2.194,0,0,1,1.82-.615l.786.1L6.774,24.655a.9.9,0,0,0,1.278,1.279L11.8,22.189a1.272,1.272,0,0,1,1.858.055,1.339,1.339,0,0,1-.088,1.794.9.9,0,1,0,1.278,1.279l.961-.961a1.245,1.245,0,0,1,1.823.013,1.3,1.3,0,0,1-.033,1.816l-.724.724a.9.9,0,0,0-.029,1.248.958.958,0,0,0,1.372-.012,1.256,1.256,0,0,1,1.773.071A1.3,1.3,0,0,1,19.959,30L18.74,31.216a.9.9,0,0,0,1.215,1.336h0c.028-.023.055-.043.082-.065a1.211,1.211,0,0,1,1.8.023,1.342,1.342,0,0,1-.011,1.8l-2.482,2.482a13.007,13.007,0,0,1-2.585,2,.9.9,0,1,0,.919,1.557,14.815,14.815,0,0,0,2.944-2.281l2.482-2.482.018-.019.051.053L25.658,38.1a14.883,14.883,0,0,0,5.75,3.564l3.8,1.277a4.4,4.4,0,0,1,1.661,1.017l4.258,5.328a.9.9,0,1,0,1.412-1.129l-4.291-5.369a5.5,5.5,0,0,0-2.464-1.561l-3.8-1.277a13.069,13.069,0,0,1-3.812-2.044,3.071,3.071,0,0,0,1-.666,3.112,3.112,0,0,0,.756-3.131,3.113,3.113,0,0,0,2.371-2.968,4.756,4.756,0,0,0,3.716-.931,4.374,4.374,0,0,0,1.224,2.582.9.9,0,0,0,1.279-1.279c-1.2-1.2-.584-3.3-.578-3.322a.9.9,0,0,0-1.5-.91l-1.258,1.258a2.949,2.949,0,0,1-4.1.063l4.8-4.8a2.192,2.192,0,0,1,1.244-.615l1.57-.21a2.192,2.192,0,0,1,1.818.615l1.028,1.028a2.2,2.2,0,0,1,.674,1.513v6.819a6.129,6.129,0,0,0,.262,1.766,5.773,5.773,0,0,0,1.985,2.764l.311.287a.9.9,0,1,0,1.227-1.328ZM8.425,18.538a.914.914,0,0,0,.754-1.068l-.633-3.239,4.238,1.913a.914.914,0,0,0,1.274-.885L13.544,7.65,19.132,14.2a.913.913,0,0,0,1.4-.026l2.313-2.929,2.8,4.466a.913.913,0,0,0,1.486.066l3.989-5.265L33.41,16.01a.914.914,0,0,0,1.255.452l2.761-1.453.043,2.921a.9.9,0,0,0,.777.882l2.7.381-1.376,2a4.018,4.018,0,0,0-1.115-.009l-1.043.139a7.564,7.564,0,0,0-1.077.185l-.744-.744a3.1,3.1,0,0,0-4.323-.043,3.044,3.044,0,0,0-.865,1.571,3.1,3.1,0,0,0-3.818,3.733,3.087,3.087,0,0,0-2.2,4.385,3.1,3.1,0,0,0-1.293.788,3.474,3.474,0,0,0-1.267-.74,3.083,3.083,0,0,0-.653-3.612,3.633,3.633,0,0,0-1.49-.773,3.1,3.1,0,0,0-4-3.746,3.07,3.07,0,0,0-4.757-1.759,3.185,3.185,0,0,0-.406.343l-.525.526-.713-.094L7.83,21.153a3.979,3.979,0,0,0-1.856.195L4.486,19.124ZM27.889,35.963a1.281,1.281,0,0,1-1.809,0L24.4,34.286a1.3,1.3,0,0,1-.017-1.826,1.28,1.28,0,0,1,1.809,0h0l1.693,1.693A1.292,1.292,0,0,1,27.889,35.963ZM30.113,30.2A1.279,1.279,0,1,1,28.3,32.011l-2.048-2.048a1.281,1.281,0,0,1,0-1.809,1.306,1.306,0,0,1,1.873.064ZM29.8,27.328l-1.108-1.109a1.3,1.3,0,0,1-.033-1.817,1.242,1.242,0,0,1,1.822-.012l1.129,1.129Zm3.088-3.088L32.54,23.9a1.335,1.335,0,0,1-.021-1.87,1.274,1.274,0,0,1,1.789.019l.387.387C34.662,22.462,32.884,24.239,32.884,24.239Z" transform="translate(0 -4.079)"/>
        <path id="Trazado_1193194" data-name="Trazado 1193194" d="M43.676,418.669a6.537,6.537,0,0,0-1.866,1.613l-3.977,4.875a.9.9,0,0,0,.129,1.272.913.913,0,0,0,1.272-.129l3.967-4.863a5.136,5.136,0,0,1,1.36-1.191.9.9,0,1,0-.885-1.576Z" transform="translate(-34.228 -381.085)"/>
        <path id="Trazado_1193195" data-name="Trazado 1193195" d="M142.864,404.119a.9.9,0,1,0-.366,1.118A.911.911,0,0,0,142.864,404.119Z" transform="translate(-128.368 -367.459)"/>
      </g>
    </g>
  </g>
</svg>
