<svg xmlns="http://www.w3.org/2000/svg" xmlns:xlink="http://www.w3.org/1999/xlink" width="93.934" height="93.934" viewBox="0 0 93.934 93.934">
  <defs>
    <filter id="Trazado_978624" x="0" y="0" width="93.934" height="93.934" filterUnits="userSpaceOnUse">
      <feOffset dy="3" input="SourceAlpha"/>
      <feGaussianBlur stdDeviation="3" result="blur"/>
      <feFlood flood-opacity="0.161"/>
      <feComposite operator="in" in2="blur"/>
      <feComposite in="SourceGraphic"/>
    </filter>
  </defs>
  <g id="Grupo_1230186" data-name="Grupo 1230186" transform="translate(-189 -2222)">
    <g id="Grupo_1229388" data-name="Grupo 1229388" transform="translate(198 2228)">
      <g id="Grupo_1226961" data-name="Grupo 1226961">
        <g id="Grupo_1225961" data-name="Grupo 1225961">
          <g id="Grupo_1224945" data-name="Grupo 1224945">
            <g id="Grupo_1214679" data-name="Grupo 1214679">
              <g id="Grupo_1212848" data-name="Grupo 1212848">
                <g id="Grupo_1210963" data-name="Grupo 1210963">
                  <g id="Grupo_1208068" data-name="Grupo 1208068">
                    <g id="Grupo_1144123" data-name="Grupo 1144123">
                      <g transform="matrix(1, 0, 0, 1, -9, -6)" filter="url(#Trazado_978624)">
                        <g id="Trazado_978624-2" data-name="Trazado 978624" transform="translate(9 6)" fill="#e7f2f8">
                          <path d="M 37.966796875 74.43359375 C 33.04315185546875 74.43359375 28.26757431030273 73.46962738037109 23.77274131774902 71.56847381591797 C 19.43047523498535 69.73184967041016 15.53040790557861 67.10224914550781 12.18087482452393 63.75271987915039 C 8.831341743469238 60.4031867980957 6.201741218566895 56.50312042236328 4.365118980407715 52.16086196899414 C 2.463963508605957 47.66601943969727 1.499996900558472 42.89044189453125 1.499996900558472 37.966796875 C 1.499996900558472 33.04315185546875 2.463963508605957 28.26757431030273 4.365118980407715 23.77274131774902 C 6.201741218566895 19.43047523498535 8.831341743469238 15.53040790557861 12.18087482452393 12.18087482452393 C 15.53040790557861 8.831341743469238 19.43047523498535 6.201741218566895 23.77274131774902 4.365118980407715 C 28.26757431030273 2.463963508605957 33.04315185546875 1.499996900558472 37.966796875 1.499996900558472 C 42.89044189453125 1.499996900558472 47.66601943969727 2.463963508605957 52.16086196899414 4.365118980407715 C 56.50312042236328 6.201741218566895 60.4031867980957 8.831341743469238 63.75271987915039 12.18087482452393 C 67.10224914550781 15.53040790557861 69.73184967041016 19.43047523498535 71.56847381591797 23.77274131774902 C 73.46962738037109 28.26757431030273 74.43359375 33.04315185546875 74.43359375 37.966796875 C 74.43359375 42.89044189453125 73.46962738037109 47.66601943969727 71.56847381591797 52.16086196899414 C 69.73184967041016 56.50313186645508 67.10224914550781 60.4031867980957 63.75271987915039 63.75271987915039 C 60.4031867980957 67.10224914550781 56.50313186645508 69.73184967041016 52.16086196899414 71.56847381591797 C 47.66601943969727 73.46962738037109 42.89044189453125 74.43359375 37.966796875 74.43359375 Z" stroke="none"/>
                          <path d="M 37.966796875 3 C 33.2449836730957 3 28.66600799560547 3.924095153808594 24.35705947875977 5.746635437011719 C 20.19359588623047 7.507621765136719 16.45379638671875 10.02927398681641 13.24153518676758 13.24153518676758 C 10.02927398681641 16.45379638671875 7.507621765136719 20.19359588623047 5.746635437011719 24.35705947875977 C 3.924095153808594 28.66600799560547 3 33.2449836730957 3 37.966796875 C 3 42.6886100769043 3.924095153808594 47.26758575439453 5.746635437011719 51.57653427124023 C 7.507621765136719 55.73999786376953 10.02927398681641 59.47979736328125 13.24153518676758 62.69205856323242 C 16.45379638671875 65.90431976318359 20.19359588623047 68.42597198486328 24.35705947875977 70.18695831298828 C 28.66600799560547 72.00949859619141 33.2449836730957 72.93359375 37.966796875 72.93359375 C 42.6886100769043 72.93359375 47.26758575439453 72.00949859619141 51.57653427124023 70.18695831298828 C 55.73999786376953 68.42597198486328 59.47979736328125 65.90431976318359 62.69205856323242 62.69205856323242 C 65.90431976318359 59.47979736328125 68.42597198486328 55.73999786376953 70.18695831298828 51.57653427124023 C 72.00949859619141 47.26758575439453 72.93359375 42.6886100769043 72.93359375 37.966796875 C 72.93359375 33.2449836730957 72.00949859619141 28.66600799560547 70.18695831298828 24.35705947875977 C 68.42597198486328 20.19359588623047 65.90431976318359 16.45379638671875 62.69205856323242 13.24153518676758 C 59.47979736328125 10.02927398681641 55.73999786376953 7.507621765136719 51.57653427124023 5.746635437011719 C 47.26758575439453 3.924095153808594 42.6886100769043 3 37.966796875 3 M 37.966796875 0 C 58.93528366088867 0 75.93359375 16.99831008911133 75.93359375 37.966796875 C 75.93359375 58.93528366088867 58.93528366088867 75.93359375 37.966796875 75.93359375 C 16.99831008911133 75.93359375 0 58.93528366088867 0 37.966796875 C 0 16.99831008911133 16.99831008911133 0 37.966796875 0 Z" stroke="none" fill="#248abf"/>
                        </g>
                      </g>
                    </g>
                  </g>
                </g>
              </g>
            </g>
          </g>
        </g>
      </g>
    </g>
    <g id="arrestar_1_" data-name="arrestar (1)" transform="translate(212.476 2242.476)">
      <g id="Grupo_1230184" data-name="Grupo 1230184" transform="translate(0.688 0.688)">
        <path id="Trazado_1193196" data-name="Trazado 1193196" d="M227.567,303.561a2.547,2.547,0,0,1,0,3,5.714,5.714,0,0,1-5.528,0,3.088,3.088,0,0,1,0-3A5.714,5.714,0,0,0,227.567,303.561Z" transform="translate(-202 -276.394)" fill="#d2d2ff"/>
        <g id="Grupo_1230178" data-name="Grupo 1230178">
          <path id="Trazado_1193197" data-name="Trazado 1193197" d="M103.59,359.978c-1.183-.714-5.075-1.5-10.365.058a4.815,4.815,0,0,0,0,4.146,14.692,14.692,0,0,0,10.365,0Z" transform="translate(-84.933 -326.868)" fill="#ffcbbe"/>
          <path id="Trazado_1193198" data-name="Trazado 1193198" d="M37.621,363.325v4.2a5.991,5.991,0,0,0,5.528,0v-4.146A7.28,7.28,0,0,0,37.621,363.325Z" transform="translate(-34.857 -330.216)" fill="#ffddcf"/>
          <path id="Trazado_1193199" data-name="Trazado 1193199" d="M61.041,111.344c-1.761.154,1.115,10.913,2.879,10.778,2.229,2.755,9.1,2.676,10.365,0v-2.173a8.224,8.224,0,0,1,1.382-4.564,8.229,8.229,0,0,0,1.382-4.564v-3.382c-7.546-2.5-12.262-3-16.008,3.908Z" transform="translate(-55.628 -96.726)" fill="#ffcbbe"/>
          <path id="Trazado_1193200" data-name="Trazado 1193200" d="M56.661,35.453l.977-3.332L56.661,28.2A2.409,2.409,0,0,0,55.45,26.1c-1.354.189-1.43,1.2-1.43,2.093v7.255c.021.154.294.291.365.412C54.386,35.863,56.526,36.574,56.661,35.453Z" transform="translate(-49.751 -24.397)" fill="#ffddcf"/>
          <path id="Trazado_1193201" data-name="Trazado 1193201" d="M32.509,24.951a2.417,2.417,0,0,1,1.208-2.093,2.418,2.418,0,0,0-3.626,2.093v7.255c.164,1.178,1.947,1.371,2.561.412a1.1,1.1,0,0,1-.142-.412V24.951Z" transform="translate(-28.018 -21.15)" fill="#ffcbbe"/>
          <path id="Trazado_1193202" data-name="Trazado 1193202" d="M183.577,66.085V62.63a2.415,2.415,0,0,1,1.21-2.094,2.418,2.418,0,0,0-3.628,2.094l-.714,1.881.714,1.574a2.42,2.42,0,0,0,3.628,2.094,2.413,2.413,0,0,1-1.21-2.094Z" transform="translate(-164.574 -55.375)" fill="#ffcbbe"/>
          <path id="Trazado_1193203" data-name="Trazado 1193203" d="M160.87,35.107V28.2a2.417,2.417,0,0,0-1.208-2.093,1.929,1.929,0,0,0-1.556,2.093v6.91a1.98,1.98,0,0,0,1.555,2.094A2.417,2.417,0,0,0,160.87,35.107Z" transform="translate(-144.286 -24.397)" fill="#ffddcf"/>
          <path id="Trazado_1193204" data-name="Trazado 1193204" d="M130.712,31.891v-6.91a2.409,2.409,0,0,1,1.211-2.093,2.419,2.419,0,0,0-3.629,2.093l-.73,3.455.73,3.455a2.418,2.418,0,0,0,3.628,2.094A2.415,2.415,0,0,1,130.712,31.891Z" transform="translate(-116.547 -21.181)" fill="#ffcbbe"/>
          <path id="Trazado_1193205" data-name="Trazado 1193205" d="M97.312,21.423V13.131A2.416,2.416,0,0,0,96.1,11.037c-3.42.343-3.513,11.916-.377,12.657A2.42,2.42,0,0,0,97.312,21.423Z" transform="translate(-85.565 -10.712)" fill="#ffddcf"/>
          <path id="Trazado_1193206" data-name="Trazado 1193206" d="M84.969,17.986c0-.015,0-8.058,0-8.067a2.415,2.415,0,0,1,1.209-2.094,2.418,2.418,0,0,0-3.628,2.094V11.3c.008,7.229-.045,6.949,0,7.255-.226,1.86,1.1,2.23,2.072,2.048a2.427,2.427,0,0,0,1.179-.122c-.962-.448-.829-1.435-.833-2.5Z" transform="translate(-75.641 -7.5)" fill="#ffcbbe"/>
          <path id="Trazado_1193207" data-name="Trazado 1193207" d="M16.483,130.057a2.073,2.073,0,0,0-2.048-2.072c-.014,0,.234,0-5.013,0A1.922,1.922,0,0,0,7.5,129.906v2.085a6.309,6.309,0,0,0,1.382,3.94,6.308,6.308,0,0,1,1.382,3.94v2.453c.141,1.016,3.486.851,5.528,0V139.87a6.307,6.307,0,0,0-1.382-3.94,6.306,6.306,0,0,1-1.311-3.008.691.691,0,0,1,.684-.792h.627A2.073,2.073,0,0,0,16.483,130.057Z" transform="translate(-7.5 -116.928)" fill="#ffddcf"/>
          <path id="Trazado_1193208" data-name="Trazado 1193208" d="M212.973,69.3V65.845a2.417,2.417,0,0,0-1.209-2.094c-1.417.2-1.617,1.2-1.617,2.094V69.3c0,.849.522,2.094,1.617,2.094A2.417,2.417,0,0,0,212.973,69.3Z" transform="translate(-191.553 -58.589)" fill="#ffddcf"/>
          <path id="Trazado_1193209" data-name="Trazado 1193209" d="M61.215,420.378v-4.192a2.05,2.05,0,0,0-2.05-2.05H45.99c-1.132,0-2.933.918-2.933,2.05v4.192c0,1.132,1.8,2.05,2.933,2.05H59.165A2.05,2.05,0,0,0,61.215,420.378Z" transform="translate(-39.794 -376.822)" fill="#518394"/>
          <g id="Grupo_1230177" data-name="Grupo 1230177" transform="translate(0 37.314)">
            <g id="Grupo_1230176" data-name="Grupo 1230176">
              <g id="Grupo_1230175" data-name="Grupo 1230175">
                <path id="Trazado_1193210" data-name="Trazado 1193210" d="M11.646,420.378v-4.192a2.05,2.05,0,0,1,2.05-2.05H9.55a2.05,2.05,0,0,0-2.05,2.05v4.192a2.05,2.05,0,0,0,2.05,2.05H13.7a2.05,2.05,0,0,1-2.05-2.05Z" transform="translate(-7.5 -414.136)" fill="#3c6373"/>
              </g>
            </g>
          </g>
          <path id="Trazado_1193211" data-name="Trazado 1193211" d="M74.424,285.04v-4.607a1.842,1.842,0,0,0-1.843-1.843H61.756c-1.018,0-2.634.825-2.634,1.843v4.607c0,1.02,1.618,1.843,2.634,1.843H72.581A1.842,1.842,0,0,0,74.424,285.04Z" transform="translate(-54.385 -253.715)" fill="#efedff"/>
          <path id="Trazado_1193212" data-name="Trazado 1193212" d="M26.706,285.04v-4.607a1.842,1.842,0,0,1,1.843-1.843H24.4a1.842,1.842,0,0,0-1.843,1.843v4.607a1.842,1.842,0,0,0,1.843,1.843h4.146A1.842,1.842,0,0,1,26.706,285.04Z" transform="translate(-21.178 -253.715)" fill="#dedef9"/>
          <circle id="Elipse_14830" data-name="Elipse 14830" cx="1.382" cy="1.382" r="1.382" transform="translate(14.511 27.64)" fill="#518394"/>
        </g>
        <g id="Grupo_1230183" data-name="Grupo 1230183" transform="translate(24.185)">
          <path id="Trazado_1193213" data-name="Trazado 1193213" d="M301.182,359.978c1.183-.714,5.075-1.5,10.365.058a4.815,4.815,0,0,1,0,4.146,14.692,14.692,0,0,1-10.365,0Z" transform="translate(-298.418 -326.868)" fill="#ffcbbe"/>
          <path id="Trazado_1193214" data-name="Trazado 1193214" d="M419.665,363.325v4.2a5.991,5.991,0,0,1-5.528,0v-4.146A7.28,7.28,0,0,1,419.665,363.325Z" transform="translate(-401.008 -330.216)" fill="#ffddcf"/>
          <path id="Trazado_1193215" data-name="Trazado 1193215" d="M287.068,111.344c1.761.154-1.115,10.913-2.879,10.778-2.229,2.755-9.1,2.676-10.365,0v-2.173a8.224,8.224,0,0,0-1.382-4.564,8.229,8.229,0,0,1-1.382-4.564v-3.382c7.546-2.5,12.262-3,16.008,3.908Z" transform="translate(-271.06 -96.726)" fill="#ffcbbe"/>
          <path id="Trazado_1193216" data-name="Trazado 1193216" d="M455.767,35.453V28.2a2.409,2.409,0,0,0-1.211-2.093c-1.354.189-1.43,1.2-1.43,2.093v7.255c.021.154.294.291.365.412C453.492,35.863,455.632,36.574,455.767,35.453Z" transform="translate(-436.419 -24.397)" fill="#ffddcf"/>
          <path id="Trazado_1193217" data-name="Trazado 1193217" d="M419.9,24.951a2.417,2.417,0,0,1,1.208-2.093,2.418,2.418,0,0,0-3.626,2.093L416.3,28.406l1.184,3.8c.164,1.178,1.947,1.371,2.561.412a1.1,1.1,0,0,1-.142-.412Z" transform="translate(-402.968 -21.15)" fill="#ffcbbe"/>
          <path id="Trazado_1193218" data-name="Trazado 1193218" d="M391.272,21.423V13.131a2.416,2.416,0,0,0-1.209-2.094c-3.42.343-3.514,11.916-.376,12.657A2.42,2.42,0,0,0,391.272,21.423Z" transform="translate(-376.736 -10.712)" fill="#ffddcf"/>
          <path id="Trazado_1193219" data-name="Trazado 1193219" d="M349.128,35.107l1-3.263-1-3.647A2.417,2.417,0,0,0,347.92,26.1a1.929,1.929,0,0,0-1.556,2.093v6.91a1.98,1.98,0,0,0,1.555,2.094A2.417,2.417,0,0,0,349.128,35.107Z" transform="translate(-339.454 -24.397)" fill="#ffddcf"/>
          <path id="Trazado_1193220" data-name="Trazado 1193220" d="M295.807,69.3l.944-1.7-.944-1.759a2.417,2.417,0,0,0-1.209-2.094c-1.417.2-1.617,1.2-1.617,2.094V69.3c0,.849.522,2.094,1.617,2.094A2.417,2.417,0,0,0,295.807,69.3Z" transform="translate(-290.97 -58.589)" fill="#ffddcf"/>
          <g id="Grupo_1230179" data-name="Grupo 1230179" transform="translate(0)">
            <path id="Trazado_1193221" data-name="Trazado 1193221" d="M326.191,31.891v-6.91a2.409,2.409,0,0,1,1.211-2.093,2.419,2.419,0,0,0-3.629,2.093v6.91a2.418,2.418,0,0,0,3.628,2.094A2.415,2.415,0,0,1,326.191,31.891Z" transform="translate(-318.936 -21.181)" fill="#ffcbbe"/>
            <path id="Trazado_1193222" data-name="Trazado 1193222" d="M378.928,17.986c0-.015,0-8.058,0-8.067a2.415,2.415,0,0,1,1.209-2.094,2.418,2.418,0,0,0-3.628,2.094V11.3c.008,7.229-.045,6.949,0,7.255-.226,1.86,1.1,2.23,2.072,2.048a2.427,2.427,0,0,0,1.179-.122c-.962-.448-.829-1.435-.833-2.5Z" transform="translate(-366.811 -7.5)" fill="#ffcbbe"/>
            <path id="Trazado_1193223" data-name="Trazado 1193223" d="M273.479,66.085V62.63a2.415,2.415,0,0,1,1.21-2.094,2.418,2.418,0,0,0-3.628,2.094v3.455a2.42,2.42,0,0,0,3.628,2.094A2.413,2.413,0,0,1,273.479,66.085Z" transform="translate(-271.061 -55.375)" fill="#ffcbbe"/>
          </g>
          <path id="Trazado_1193224" data-name="Trazado 1193224" d="M406.606,130.057a2.073,2.073,0,0,1,2.048-2.072c.014,0-.234,0,5.013,0a1.922,1.922,0,0,1,1.922,1.922v2.085a6.309,6.309,0,0,1-1.382,3.94,6.307,6.307,0,0,0-1.382,3.94v2.453c-.141,1.016-3.486.851-5.528,0V139.87a6.307,6.307,0,0,1,1.382-3.94,6.306,6.306,0,0,0,1.311-3.008.691.691,0,0,0-.684-.792h-.627A2.073,2.073,0,0,1,406.606,130.057Z" transform="translate(-394.168 -116.928)" fill="#ffddcf"/>
          <path id="Trazado_1193225" data-name="Trazado 1193225" d="M324.776,420.378v-4.192a2.05,2.05,0,0,0-2.05-2.05H309.551c-1.132,0-2.933.918-2.933,2.05v4.192c0,1.132,1.8,2.05,2.933,2.05h13.175A2.05,2.05,0,0,0,324.776,420.378Z" transform="translate(-303.355 -376.822)" fill="#518394"/>
          <g id="Grupo_1230182" data-name="Grupo 1230182" transform="translate(0 37.314)">
            <g id="Grupo_1230181" data-name="Grupo 1230181">
              <g id="Grupo_1230180" data-name="Grupo 1230180">
                <path id="Trazado_1193226" data-name="Trazado 1193226" d="M275.206,420.378v-4.192a2.05,2.05,0,0,1,2.05-2.05H273.11a2.05,2.05,0,0,0-2.05,2.05v4.192a2.05,2.05,0,0,0,2.05,2.05h4.146A2.05,2.05,0,0,1,275.206,420.378Z" transform="translate(-271.06 -414.136)" fill="#3c6373"/>
              </g>
            </g>
          </g>
          <path id="Trazado_1193227" data-name="Trazado 1193227" d="M337.985,285.04v-4.607a1.842,1.842,0,0,0-1.843-1.843H325.317c-1.018,0-2.634.825-2.634,1.843v4.607c0,1.02,1.618,1.843,2.634,1.843h10.826A1.842,1.842,0,0,0,337.985,285.04Z" transform="translate(-317.946 -253.715)" fill="#efedff"/>
          <path id="Trazado_1193228" data-name="Trazado 1193228" d="M290.267,285.04v-4.607a1.842,1.842,0,0,1,1.843-1.843h-4.146a1.842,1.842,0,0,0-1.843,1.843v4.607a1.842,1.842,0,0,0,1.843,1.843h4.146A1.842,1.842,0,0,1,290.267,285.04Z" transform="translate(-284.739 -253.715)" fill="#dedef9"/>
          <circle id="Elipse_14831" data-name="Elipse 14831" cx="1.382" cy="1.382" r="1.382" transform="translate(4.146 27.64)" fill="#518394"/>
        </g>
      </g>
      <g id="Grupo_1230185" data-name="Grupo 1230185" transform="translate(0 0)">
        <path id="Trazado_1193229" data-name="Trazado 1193229" d="M160.206,301.212a2.07,2.07,0,1,0,2.07,2.07A2.073,2.073,0,0,0,160.206,301.212Zm0,2.764a.694.694,0,1,1,.694-.694A.695.695,0,0,1,160.206,303.976Z" transform="translate(-143.625 -273.572)"/>
        <path id="Trazado_1193230" data-name="Trazado 1193230" d="M45.449,20.121a7,7,0,0,0,1.533-4.37V13.666a2.614,2.614,0,0,0-2.073-2.554V4.489a3.106,3.106,0,0,0-5.023-2.445,3.108,3.108,0,0,0-5.841,0,3.1,3.1,0,0,0-5.023,2.442v.876a3.105,3.105,0,0,0-4.837,2.579v6.837a8.889,8.889,0,0,0,1.5,4.946,7.536,7.536,0,0,1,1.266,4.183v1.243a2.533,2.533,0,0,0-1.382,2.254v.024a5.015,5.015,0,0,1-4.151,0v-.024a2.533,2.533,0,0,0-1.382-2.254V23.909A7.536,7.536,0,0,1,21.3,19.727a8.888,8.888,0,0,0,1.5-4.946V7.944A3.105,3.105,0,0,0,17.96,5.365V4.489a3.1,3.1,0,0,0-5.023-2.442,3.108,3.108,0,0,0-5.841,0A3.106,3.106,0,0,0,2.073,4.489v6.623A2.614,2.614,0,0,0,0,13.666v2.085A7.016,7.016,0,0,0,1.533,20.12a5.639,5.639,0,0,1,1.231,3.51v1.523a2.533,2.533,0,0,0-1.382,2.254v4.607a2.529,2.529,0,0,0,1.382,2.254v3.047H2.738A2.741,2.741,0,0,0,0,40.052v4.192a2.741,2.741,0,0,0,2.738,2.738h9.053a.688.688,0,1,0,0-1.376H2.738a1.363,1.363,0,0,1-1.362-1.362V40.052A1.363,1.363,0,0,1,2.738,38.69H20.059a1.363,1.363,0,0,1,1.362,1.362v4.192a1.363,1.363,0,0,1-1.362,1.362H15a.688.688,0,1,0,0,1.376h5.056A2.741,2.741,0,0,0,22.8,44.244V40.052a2.741,2.741,0,0,0-2.738-2.738h-.026V34.267a2.533,2.533,0,0,0,1.382-2.254v-.107a6.367,6.367,0,0,0,4.151,0v.107a2.529,2.529,0,0,0,1.382,2.254v3.047h-.026a2.741,2.741,0,0,0-2.738,2.738v4.192a2.741,2.741,0,0,0,2.738,2.738H44.244a2.741,2.741,0,0,0,2.738-2.738V40.052a2.741,2.741,0,0,0-2.738-2.738h-.026V34.267A2.529,2.529,0,0,0,45.6,32.013V27.406a2.533,2.533,0,0,0-1.382-2.254V23.63a5.639,5.639,0,0,1,1.231-3.509ZM41.8,2.758a1.732,1.732,0,0,1,1.73,1.73v6.567H40.072V4.489a1.73,1.73,0,0,1,1.73-1.73Zm-6.567.348a1.73,1.73,0,0,1,3.461,0v8.035a2.733,2.733,0,0,0-1.982,1.967,1.726,1.726,0,0,1-1.478-1.71V3.107ZM30.4,4.489a1.73,1.73,0,1,1,3.46,0V11.4a1.73,1.73,0,1,1-3.46,0ZM25.561,7.944a1.73,1.73,0,1,1,3.461,0V11.4a1.73,1.73,0,1,1-3.461,0V7.944ZM19.69,6.213a1.732,1.732,0,0,1,1.73,1.73V11.4a1.73,1.73,0,1,1-3.461,0V7.944a1.732,1.732,0,0,1,1.73-1.73ZM14.854,2.758a1.732,1.732,0,0,1,1.73,1.73V11.4a1.73,1.73,0,1,1-3.46,0V4.489a1.732,1.732,0,0,1,1.73-1.73ZM10.017,1.376a1.732,1.732,0,0,1,1.73,1.73V11.4a1.728,1.728,0,0,1-1.48,1.711,2.771,2.771,0,0,0-1.981-1.966c0-5.183,0-6.848,0-8.036a1.73,1.73,0,0,1,1.73-1.73ZM5.18,2.758a1.73,1.73,0,0,1,1.73,1.73c0,.014,0,6.557,0,6.567H3.449V4.489a1.732,1.732,0,0,1,1.73-1.73ZM2.607,19.26a5.635,5.635,0,0,1-1.231-3.509V13.666A1.235,1.235,0,0,1,2.61,12.432H7.6a1.385,1.385,0,0,1,0,2.769H4.834a.688.688,0,0,0-.382,1.261l.348.232a3.18,3.18,0,0,1,1.418,2.65.688.688,0,0,0,1.376,0,4.553,4.553,0,0,0-.934-2.767H7.6a2.766,2.766,0,0,0,2.677-2.084,3.1,3.1,0,0,0,2.161-1.149,3.1,3.1,0,0,0,4.837,0,3.1,3.1,0,0,0,4.149.632v.8a7.516,7.516,0,0,1-1.266,4.183,8.912,8.912,0,0,0-1.5,4.946v.966H4.14V23.63a7.021,7.021,0,0,0-1.533-4.37ZM4.14,37.314v-2.77c1.092.014,4.143-.013,14.516,0v2.77H4.14Zm14.745-4.146H4.014a1.156,1.156,0,0,1-1.256-1.153V27.407a1.156,1.156,0,0,1,1.154-1.154H18.884a1.156,1.156,0,0,1,1.154,1.154c0-.009,0,.1,0,4.607a1.156,1.156,0,0,1-1.154,1.154Zm2.53-2.74V28.909a6.366,6.366,0,0,0,4.151,0v1.519a5.013,5.013,0,0,1-4.151,0Zm24.19,9.625v4.192a1.363,1.363,0,0,1-1.362,1.362H26.923a1.363,1.363,0,0,1-1.362-1.362V40.052a1.363,1.363,0,0,1,1.362-1.362H44.244a1.363,1.363,0,0,1,1.362,1.362Zm-17.28-2.738v-2.77H42.842v2.77H28.325Zm15.9-5.3a1.152,1.152,0,0,1-1.154,1.154H28.1a1.153,1.153,0,0,1-1.154-1.154c0-3.637,0-3.3,0-4.606A1.156,1.156,0,0,1,28.1,26.252h5.786a.688.688,0,0,0,0-1.376H28.325v-.966a8.913,8.913,0,0,0-1.5-4.946,7.517,7.517,0,0,1-1.266-4.182v-.8a3.1,3.1,0,0,0,4.149-.632,3.1,3.1,0,0,0,4.836,0,3.089,3.089,0,0,0,2.16,1.147,2.762,2.762,0,0,0,2.678,2.084h.937a4.554,4.554,0,0,0-.934,2.767.688.688,0,1,0,1.376,0,3.18,3.18,0,0,1,1.418-2.65l.348-.232a.688.688,0,0,0-.382-1.261H39.384a1.384,1.384,0,0,1-.017-2.769c.1,0,2.631,0,5.005,0a1.235,1.235,0,0,1,1.234,1.234v2.085a5.62,5.62,0,0,1-1.231,3.51,7.021,7.021,0,0,0-1.533,4.369v1.246H37.095a.688.688,0,1,0,0,1.376h5.975a1.156,1.156,0,0,1,1.154,1.154Z" transform="translate(0 0)"/>
        <path id="Trazado_1193231" data-name="Trazado 1193231" d="M310.812,301.212a2.07,2.07,0,1,0,2.07,2.07A2.073,2.073,0,0,0,310.812,301.212Zm0,2.764a.694.694,0,1,1,.694-.694A.695.695,0,0,1,310.812,303.976Z" transform="translate(-280.411 -273.572)"/>
      </g>
    </g>
  </g>
</svg>
