<svg xmlns="http://www.w3.org/2000/svg" xmlns:xlink="http://www.w3.org/1999/xlink" width="103" height="103" viewBox="0 0 103 103">
  <defs>
    <filter id="Trazado_978624" x="0" y="0" width="103" height="103" filterUnits="userSpaceOnUse">
      <feOffset dy="3" input="SourceAlpha"/>
      <feGaussianBlur stdDeviation="3" result="blur"/>
      <feFlood flood-opacity="0.161"/>
      <feComposite operator="in" in2="blur"/>
      <feComposite in="SourceGraphic"/>
    </filter>
  </defs>
  <g id="Grupo_1231338" data-name="Grupo 1231338" transform="translate(-171 -3511.34)">
    <g id="Grupo_1229690" data-name="Grupo 1229690" transform="translate(180 3517.34)">
      <g id="Grupo_1226917" data-name="Grupo 1226917">
        <g id="Grupo_1222970" data-name="Grupo 1222970">
          <g id="Grupo_1222589" data-name="Grupo 1222589">
            <g id="Grupo_1203109" data-name="Grupo 1203109">
              <g id="Grupo_1176881" data-name="Grupo 1176881">
                <g id="Grupo_1175148" data-name="Grupo 1175148">
                  <g id="Grupo_1173798" data-name="Grupo 1173798">
                    <g id="Grupo_1171925" data-name="Grupo 1171925">
                      <g id="Grupo_1164524" data-name="Grupo 1164524">
                        <g id="Grupo_1144123" data-name="Grupo 1144123">
                          <g transform="matrix(1, 0, 0, 1, -9, -6)" filter="url(#Trazado_978624)">
                            <g id="Trazado_978624-2" data-name="Trazado 978624" transform="translate(9 6)" fill="#e7f2f8">
                              <path d="M 42.5 83.5 C 36.96437835693359 83.5 31.59512901306152 82.41617584228516 26.54141235351562 80.27863311767578 C 21.65934181213379 78.21369171142578 17.27447128295898 75.25723266601562 13.50862312316895 71.49137878417969 C 9.742764472961426 67.72553253173828 6.786305904388428 63.34066009521484 4.721364498138428 58.45858764648438 C 2.583823442459106 53.40486907958984 1.5 48.03562164306641 1.5 42.5 C 1.5 36.96437835693359 2.583823442459106 31.59512901306152 4.721364498138428 26.54141235351562 C 6.786305904388428 21.65934181213379 9.742764472961426 17.27447128295898 13.50862312316895 13.50862312316895 C 17.27447128295898 9.742764472961426 21.65934181213379 6.786305904388428 26.54141235351562 4.721364498138428 C 31.59512901306152 2.583823442459106 36.96437835693359 1.5 42.5 1.5 C 48.03562164306641 1.5 53.40486907958984 2.583823442459106 58.45858764648438 4.721364498138428 C 63.34066009521484 6.786305904388428 67.72553253173828 9.742764472961426 71.49137878417969 13.50862312316895 C 75.25723266601562 17.27447128295898 78.21369171142578 21.65934181213379 80.27863311767578 26.54141235351562 C 82.41617584228516 31.59512901306152 83.5 36.96437835693359 83.5 42.5 C 83.5 48.03562164306641 82.41617584228516 53.40486907958984 80.27863311767578 58.45858764648438 C 78.21369171142578 63.34066009521484 75.25723266601562 67.72553253173828 71.49137878417969 71.49137878417969 C 67.72553253173828 75.25723266601562 63.34066009521484 78.21369171142578 58.45858764648438 80.27863311767578 C 53.40486907958984 82.41617584228516 48.03562164306641 83.5 42.5 83.5 Z" stroke="none"/>
                              <path d="M 42.5 3 C 37.16621398925781 3 31.99356079101562 4.043960571289062 27.125732421875 6.102882385253906 C 22.42246627807617 8.092185974121094 18.19785308837891 10.94070434570312 14.56928253173828 14.56928253173828 C 10.94070434570312 18.19785308837891 8.092185974121094 22.42246627807617 6.102882385253906 27.125732421875 C 4.043960571289062 31.99356079101562 3 37.16621398925781 3 42.5 C 3 47.83378601074219 4.043960571289062 53.00643920898438 6.102882385253906 57.87425231933594 C 8.092185974121094 62.57753372192383 10.94070434570312 66.80213165283203 14.56928253173828 70.43071746826172 C 18.19786834716797 74.05929565429688 22.42246627807617 76.90781402587891 27.125732421875 78.89711761474609 C 31.99356079101562 80.95603942871094 37.16621398925781 82 42.5 82 C 47.83378601074219 82 53.00642395019531 80.95603942871094 57.87425231933594 78.89711761474609 C 62.57753372192383 76.90781402587891 66.80213165283203 74.05929565429688 70.43071746826172 70.43071746826172 C 74.05929565429688 66.80213165283203 76.90781402587891 62.57753372192383 78.89711761474609 57.87425231933594 C 80.95603942871094 53.00642395019531 82 47.83378601074219 82 42.5 C 82 37.16621398925781 80.95603942871094 31.99356079101562 78.89711761474609 27.125732421875 C 76.90781402587891 22.42246627807617 74.05929565429688 18.19786834716797 70.43071746826172 14.56928253173828 C 66.80213165283203 10.94070434570312 62.57753372192383 8.092185974121094 57.87425231933594 6.102882385253906 C 53.00643920898438 4.043960571289062 47.83378601074219 3 42.5 3 M 42.5 0 C 65.97209167480469 0 85 19.02789306640625 85 42.5 C 85 65.97209167480469 65.97209167480469 85 42.5 85 C 19.02789306640625 85 0 65.97209167480469 0 42.5 C 0 19.02789306640625 19.02789306640625 0 42.5 0 Z" stroke="none" fill="#248abf"/>
                            </g>
                          </g>
                        </g>
                      </g>
                    </g>
                  </g>
                </g>
              </g>
            </g>
          </g>
        </g>
      </g>
    </g>
    <g id="delito" transform="translate(192.512 3523.728)">
      <g id="Grupo_1231336" data-name="Grupo 1231336" transform="translate(0.879 10.609)">
        <g id="Grupo_1231335" data-name="Grupo 1231335">
          <path id="Trazado_1193262" data-name="Trazado 1193262" d="M21.419,183.093a13.919,13.919,0,1,0,13.919,13.919A13.919,13.919,0,0,0,21.419,183.093Zm0,23.172a9.253,9.253,0,1,1,9.253-9.253A9.264,9.264,0,0,1,21.419,206.265Z" transform="translate(-7.5 -166.121)" fill="#cbc4cc"/>
          <path id="Trazado_1193263" data-name="Trazado 1193263" d="M15.016,145.045v3.771a1.163,1.163,0,0,1-.574,1.007,13.922,13.922,0,0,0,4.2,25.687,2.334,2.334,0,0,0,.906-4.578,9.268,9.268,0,0,1-7.383-9.154,9.4,9.4,0,0,1,9.371-9.162h3.072a3.212,3.212,0,0,0,3.213-3.213v-4.359a1.757,1.757,0,0,0-1.757-1.757H16.773a1.757,1.757,0,0,0-1.757,1.757Z" transform="translate(-7.5 -130.979)" fill="#e2dee2"/>
          <path id="Trazado_1193264" data-name="Trazado 1193264" d="M112.68,99.775a1.809,1.809,0,0,1-1.809-1.809V92.537a1.809,1.809,0,1,1,3.619,0v5.428A1.809,1.809,0,0,1,112.68,99.775Z" transform="translate(-98.762 -84.576)" fill="#cbc4cc"/>
          <path id="Trazado_1193265" data-name="Trazado 1193265" d="M112.769,90.757v5.482a1.809,1.809,0,0,1-1.809,1.809c-.022,0-.043,0-.065,0a1.808,1.808,0,0,0,3.616-.054V92.563A1.808,1.808,0,0,0,112.769,90.757Z" transform="translate(-98.783 -84.601)" fill="#b5adb6"/>
          <path id="Trazado_1193266" data-name="Trazado 1193266" d="M166.769,40.019a1.809,1.809,0,0,1,1.809-1.809h5.428a1.809,1.809,0,1,1,0,3.619h-5.428A1.809,1.809,0,0,1,166.769,40.019Z" transform="translate(-148.112 -38.21)" fill="#cbc4cc"/>
          <path id="Trazado_1193267" data-name="Trazado 1193267" d="M174.106,38.229c0,.047.007.094.007.143a1.809,1.809,0,0,1-1.809,1.809h-5.473a1.809,1.809,0,0,0,1.8,1.665h5.428a1.809,1.809,0,0,0,.045-3.617Z" transform="translate(-148.167 -38.227)" fill="#b5adb6"/>
          <g id="Grupo_1231334" data-name="Grupo 1231334" transform="translate(30.383 21.309)">
            <path id="Trazado_1193268" data-name="Trazado 1193268" d="M280.784,259.919A13.919,13.919,0,1,0,294.7,273.838,13.919,13.919,0,0,0,280.784,259.919Zm0,23.172a9.253,9.253,0,1,1,9.253-9.253A9.264,9.264,0,0,1,280.784,283.091Z" transform="translate(-266.865 -255.256)" fill="#cbc4cc"/>
            <path id="Trazado_1193269" data-name="Trazado 1193269" d="M274.381,221.872v3.771a1.163,1.163,0,0,1-.574,1.007,13.922,13.922,0,0,0,4.2,25.687,2.334,2.334,0,0,0,.906-4.578,9.268,9.268,0,0,1-7.383-9.154,9.4,9.4,0,0,1,9.371-9.162h3.072a3.213,3.213,0,0,0,3.213-3.213v-4.359a1.757,1.757,0,0,0-1.757-1.757h-9.291A1.757,1.757,0,0,0,274.381,221.872Z" transform="translate(-266.865 -220.115)" fill="#e2dee2"/>
          </g>
          <path id="Trazado_1193270" data-name="Trazado 1193270" d="M299.741,63.388a1.809,1.809,0,0,1,2.559,0l3.838,3.838a1.809,1.809,0,0,1-2.559,2.559l-3.838-3.838A1.809,1.809,0,0,1,299.741,63.388Z" transform="translate(-265.039 -59.971)" fill="#cbc4cc"/>
          <path id="Trazado_1193271" data-name="Trazado 1193271" d="M330.382,91.453,329.228,90.3a2.073,2.073,0,0,1-2.557,2.561l1.152,1.152a1.809,1.809,0,1,0,2.559-2.559Z" transform="translate(-289.282 -84.197)" fill="#b5adb6"/>
          <path id="Trazado_1193272" data-name="Trazado 1193272" d="M372.046,176.6a1.809,1.809,0,0,1-1.809-1.809v-5.428a1.809,1.809,0,1,1,3.619,0v5.428A1.809,1.809,0,0,1,372.046,176.6Z" transform="translate(-327.745 -152.402)" fill="#cbc4cc"/>
          <path id="Trazado_1193273" data-name="Trazado 1193273" d="M372.215,167.615v5.5a1.809,1.809,0,0,1-1.809,1.809c-.047,0-.092,0-.138-.007a1.808,1.808,0,0,0,3.615-.07v-5.428A1.808,1.808,0,0,0,372.215,167.615Z" transform="translate(-327.771 -152.456)" fill="#b5adb6"/>
        </g>
      </g>
      <g id="Grupo_1231337" data-name="Grupo 1231337" transform="translate(0 6.947)">
        <path id="Trazado_1193274" data-name="Trazado 1193274" d="M353.379,261.811h.111a.879.879,0,1,0,0-1.757h-.111a.879.879,0,1,0,0,1.757Z" transform="translate(-311.207 -230.404)"/>
        <path id="Trazado_1193275" data-name="Trazado 1193275" d="M403.793,261.811h.112a.879.879,0,0,0,0-1.757h-.112a.879.879,0,0,0,0,1.757Z" transform="translate(-355.716 -230.404)"/>
        <path id="Trazado_1193276" data-name="Trazado 1193276" d="M94.124,184.985a.879.879,0,0,0,0-1.757h-.112a.879.879,0,1,0,0,1.757Z" transform="translate(-82.224 -162.578)"/>
        <path id="Trazado_1193277" data-name="Trazado 1193277" d="M144.539,184.985a.879.879,0,0,0,0-1.757h-.111a.879.879,0,1,0,0,1.757Z" transform="translate(-126.733 -162.578)"/>
        <path id="Trazado_1193278" data-name="Trazado 1193278" d="M52.461,37.616v-3.94a2.639,2.639,0,0,0-2.636-2.636H47.868v-2.7a5.468,5.468,0,0,0,1.148-8.615L47.1,17.8a5.467,5.467,0,0,0-5.339-1.4L39.31,13.955a5.471,5.471,0,0,0-5.251-7.008H31.344a5.46,5.46,0,0,0-4.767,2.784H21.315a5.472,5.472,0,0,0-8.389-.784l-1.919,1.919a5.469,5.469,0,0,0,1.1,8.589V22.04H10.152a2.639,2.639,0,0,0-2.636,2.636v3.771a.284.284,0,0,1-.137.248,14.8,14.8,0,0,0-3.95,22.278.879.879,0,0,0,1.349-1.126A13.042,13.042,0,0,1,8.262,30.214a2.047,2.047,0,0,0,1.012-1.767V24.676a.879.879,0,0,1,.879-.879h1.957V24a2.688,2.688,0,1,0,5.376,0v-.2h1.957a.88.88,0,0,1,.879.879v4.359a2.337,2.337,0,0,1-2.334,2.334H14.915l-.062,0h0a10.242,10.242,0,0,0-7.1,2.938A9.985,9.985,0,0,0,4.666,41.4,10.152,10.152,0,0,0,12.75,51.424a1.458,1.458,0,0,1,.631,2.56,1.42,1.42,0,0,1-1.185.3,12.913,12.913,0,0,1-4.549-1.875.879.879,0,1,0-.965,1.468A14.662,14.662,0,0,0,11.846,56l.023,0A14.807,14.807,0,0,0,29.594,41.5a14.74,14.74,0,0,0-.943-5.2.879.879,0,1,0-1.645.618A13.045,13.045,0,0,1,15.2,54.533a3.212,3.212,0,0,0,.474-1.683,3.175,3.175,0,0,0-.254-1.238A10.125,10.125,0,0,0,19.8,32.7a4.115,4.115,0,0,0,2-2.2,13.2,13.2,0,0,1,3.334,3.053.879.879,0,1,0,1.392-1.072,14.963,14.963,0,0,0-4.453-3.867V24.676a2.639,2.639,0,0,0-2.636-2.636H17.485v-2.5a5.449,5.449,0,0,0,1.26-.941l1.92-1.919a5.494,5.494,0,0,0,1.1-1.579h4.814a5.46,5.46,0,0,0,4.767,2.784h2.714a5.45,5.45,0,0,0,1.4-.183l2.5,2.5a5.467,5.467,0,0,0,1.4,5.339l1.919,1.919a5.444,5.444,0,0,0,1.214.915V31.04H40.534A2.639,2.639,0,0,0,37.9,33.675v3.771a.284.284,0,0,1-.137.248A14.8,14.8,0,0,0,42.229,65l.032.006a14.8,14.8,0,0,0,10.2-27.392ZM23.172,41.5a8.375,8.375,0,1,1-16.749-.083,8.241,8.241,0,0,1,2.548-5.85,8.494,8.494,0,0,1,5.882-2.441A8.394,8.394,0,0,1,23.172,41.5ZM15.728,24a.931.931,0,0,1-1.862,0V18.571a.931.931,0,0,1,1.862,0Zm3.693-8.556L17.5,17.362c-.069.069-.142.135-.215.2a2.687,2.687,0,0,0-4.935-.1c-.034-.032-.07-.061-.1-.094a3.714,3.714,0,0,1,0-5.253l1.919-1.919a3.715,3.715,0,0,1,5.253,0c.061.061.119.125.176.189a2.684,2.684,0,0,0,.381,4.353A3.7,3.7,0,0,1,19.421,15.443Zm7.352-2.093H21.345a.931.931,0,1,1,0-1.862h5.428a.931.931,0,1,1,0,1.862Zm8.186.056a2.689,2.689,0,0,0-.657,2.719c-.081.005-.162.009-.244.009H31.344A3.707,3.707,0,0,1,28.339,14.6a2.684,2.684,0,0,0,0-4.366A3.706,3.706,0,0,1,31.344,8.7h2.714a3.719,3.719,0,0,1,3.714,3.714q0,.18-.017.357a2.688,2.688,0,0,0-2.8.63ZM36.2,15.964a.931.931,0,0,1,1.316-1.316l3.838,3.838A.931.931,0,1,1,40.04,19.8ZM40.6,24.3a3.71,3.71,0,0,1-1.085-2.745,2.685,2.685,0,0,0,3.595-3.594,3.71,3.71,0,0,1,2.744,1.085l1.919,1.919a3.719,3.719,0,0,1,0,5.253c-.058.058-.119.114-.181.168a2.687,2.687,0,0,0-4.845.041c-.078-.066-.154-.135-.227-.208Zm5.51,3.27V33a.931.931,0,0,1-1.862,0V27.57a.931.931,0,0,1,1.862,0ZM43.763,62.983a1.421,1.421,0,0,1-1.185.3,13.043,13.043,0,0,1-3.934-24.066,2.047,2.047,0,0,0,1.012-1.767V33.675a.88.88,0,0,1,.879-.879h1.957V33a2.688,2.688,0,1,0,5.376,0v-.2h1.957a.88.88,0,0,1,.879.879v4.359a2.337,2.337,0,0,1-2.334,2.334l-3.134,0h0a10.242,10.242,0,0,0-7.106,2.938A9.986,9.986,0,0,0,35.048,50.4a10.151,10.151,0,0,0,8.017,10.008h0l.063.014h0a1.458,1.458,0,0,1,.631,2.56Zm1.821.549a3.212,3.212,0,0,0,.474-1.683,3.173,3.173,0,0,0-.255-1.24,10.141,10.141,0,0,0,9.254-7.865.879.879,0,1,0-1.713-.389,8.374,8.374,0,0,1-16.539-1.938,8.241,8.241,0,0,1,2.548-5.85,8.494,8.494,0,0,1,5.882-2.441A8.271,8.271,0,0,1,50.455,44a8.424,8.424,0,0,1,2.889,4.641.879.879,0,1,0,1.713-.389,10.188,10.188,0,0,0-3.493-5.615,10.07,10.07,0,0,0-1.377-.942,4.116,4.116,0,0,0,2-2.2,13.04,13.04,0,0,1-6.6,24.031Z" transform="translate(0 -6.947)"/>
      </g>
    </g>
  </g>
</svg>
