<svg xmlns="http://www.w3.org/2000/svg" xmlns:xlink="http://www.w3.org/1999/xlink" width="295" height="281" viewBox="0 0 295 281">
  <defs>
    <clipPath id="clip-path">
      <rect id="Rectángulo_423074" data-name="Rectángulo 423074" width="295" height="281" transform="translate(1125 3054)" fill="#fff" stroke="#707070" stroke-width="1"/>
    </clipPath>
    <clipPath id="clip-path-2">
      <rect id="Rectángulo_423079" data-name="Rectángulo 423079" width="404" height="404" transform="translate(0 0)"/>
    </clipPath>
    <clipPath id="clip-path-3">
      <rect id="Rectángulo_423077" data-name="Rectángulo 423077" width="29.77" height="37.212"/>
    </clipPath>
    <clipPath id="clip-path-5">
      <path id="Trazado_1193765" data-name="Trazado 1193765" d="M157.933,308.129c-13.854,3.921-57.786-49.365-57.786-49.365l11.835-14.892,35.17,26.6s12.731-52.1,18.071-57.278c10.712-10.4,30.6-17.38,53.364-17.38,19.375,0,36.666,5.06,47.99,12.976,8.613,6.021,10.574,14.331,13.773,22.052,10.267,24.776,12.893,32.417,12.893,32.417l26.206-50.522,16.222,8.952s-20.882,79.014-46.386,77.951c-16.244-.677-33.46-52.027-33.46-52.027l-6.37,39.155,16.012,42.418-85.451,1.325s9.2-30.466,9.311-41.975-7.957-39.786-7.957-39.786S175.869,303.052,157.933,308.129Z" transform="translate(-100.147 -195.817)"/>
    </clipPath>
  </defs>
  <g id="Enmascarar_grupo_1225077" data-name="Enmascarar grupo 1225077" transform="translate(-1125 -3054)" clip-path="url(#clip-path)">
    <g id="OBJECTS" transform="translate(1074 3025)">
      <g id="Grupo_1231560" data-name="Grupo 1231560">
        <g id="Grupo_1231558" data-name="Grupo 1231558" clip-path="url(#clip-path-2)">
          <g id="Grupo_1231529" data-name="Grupo 1231529" transform="translate(177.884 35.869)">
            <g id="Grupo_1231528" data-name="Grupo 1231528" transform="translate(35.999)">
              <g id="Grupo_1231524" data-name="Grupo 1231524" transform="translate(0 34.697)">
                <g id="Grupo_1231522" data-name="Grupo 1231522">
                  <path id="Trazado_1193723" data-name="Trazado 1193723" d="M275.686,97c0,5.53-1.554,9.563-4.294,9.563s-6.367-7.07-6.367-12.6,2.961-6.975,5.7-6.975S275.686,91.471,275.686,97Z" transform="translate(-265.026 -86.988)" fill="#282849"/>
                  <path id="Trazado_1193724" data-name="Trazado 1193724" d="M267.539,97.058s2.877.45,3.723,5.85c0,0-1.184-10.125-3.384-10.35" transform="translate(-265.509 -88.058)" fill="#282849"/>
                </g>
                <g id="Grupo_1231523" data-name="Grupo 1231523" transform="translate(54.486)">
                  <path id="Trazado_1193725" data-name="Trazado 1193725" d="M332.472,97c0,5.53,1.554,9.563,4.294,9.563s6.367-7.07,6.367-12.6-2.961-6.975-5.7-6.975S332.472,91.471,332.472,97Z" transform="translate(-332.472 -86.988)" fill="#282849"/>
                  <path id="Trazado_1193726" data-name="Trazado 1193726" d="M342.27,97.058s-2.877.45-3.723,5.85c0,0,1.184-10.125,3.384-10.35" transform="translate(-333.639 -88.058)" fill="#282849"/>
                </g>
              </g>
              <g id="Grupo_1231526" data-name="Grupo 1231526" transform="translate(18.027 67.42)">
                <rect id="Rectángulo_423076" data-name="Rectángulo 423076" width="29.77" height="37.212" fill="#282849"/>
                <g id="Grupo_1231525" data-name="Grupo 1231525" transform="translate(0 0)" clip-path="url(#clip-path-3)">
                  <ellipse id="Elipse_14922" data-name="Elipse 14922" cx="26.288" cy="39.37" rx="26.288" ry="39.37" transform="translate(-8.526 -68.843)" fill="#282849"/>
                </g>
              </g>
              <path id="Trazado_1193727" data-name="Trazado 1193727" d="M326.531,85.326c0,13.59-4.7,26.268-12.268,32.177-4.539,3.545-11.239,7.235-15.677,7.235s-10.837-3.389-15.376-6.934c-7.566-5.909-12.271-18.889-12.271-32.478,0-21.743,12.445-30.943,27.8-30.943S326.531,63.583,326.531,85.326Z" transform="translate(-266.162 -46.026)" fill="#282849"/>
              <path id="Trazado_1193728" data-name="Trazado 1193728" d="M288.308,58.826s1.608,28.6,36.169,22.336c12.766-2.313,21.857-43.807-11.647-36.193,0,0-23.817,3.316-30.148,4.522-28.125,5.357-14.17,34.067-14.17,34.067S278.155,61.026,288.308,58.826Z" transform="translate(-265.031 -44.038)" fill="#282849"/>
              <g id="Grupo_1231527" data-name="Grupo 1231527" transform="translate(29.294 41.33)">
                <path id="Trazado_1193729" data-name="Trazado 1193729" d="M302.91,95.2a54.569,54.569,0,0,1-.267,5.471c-.09.906-.179,1.813-.3,2.716s-.243,1.806-.385,2.706l-.061-.233a8.443,8.443,0,0,0,1.288,1.474,3.394,3.394,0,0,0,1.73.922,3.162,3.162,0,0,1-1.985-.586,7.132,7.132,0,0,1-1.57-1.419l-.073-.086.011-.147c.072-.909.152-1.816.255-2.721s.217-1.809.341-2.711A54.517,54.517,0,0,1,302.91,95.2Z" transform="translate(-301.288 -95.198)" fill="#b3b9c9"/>
              </g>
            </g>
            <path id="Trazado_1193730" data-name="Trazado 1193730" d="M359.421,200.588c0-21.312-31.106-38.59-69.479-38.59s-69.478,17.277-69.478,38.59l31.341,109.437,82.605-.6Z" transform="translate(-220.465 -66.704)" fill="#282849"/>
            <path id="Trazado_1193731" data-name="Trazado 1193731" d="M258.027,337.023l-1.809,6.632s-11.456,33.766-12.662,56.076,6.632,77.782,6.632,77.782L353.9,475.7s-.6-63.311-2.412-80.8-12.662-51.854-12.662-51.854Z" transform="translate(-224.878 -100.334)" fill="#282849"/>
            <path id="Trazado_1193732" data-name="Trazado 1193732" d="M278.666,161.569l7.235-8.441,30.751-1.206,7.236,10.251-12.06,15.074Z" transform="translate(-231.648 -64.768)" fill="#282849"/>
          </g>
          <g id="Grupo_1231557" data-name="Grupo 1231557" transform="translate(51.814 60.555)">
            <g id="Grupo_1231530" data-name="Grupo 1231530" transform="translate(92.745 37.475)">
              <path id="Trazado_1193733" data-name="Trazado 1193733" d="M203.71,121.072c-.666,5.354-1.588,10.656-2.731,15.919a114.842,114.842,0,0,1-4.423,15.524,50.652,50.652,0,0,1-3.374,7.341,28.007,28.007,0,0,1-2.239,3.371,18.573,18.573,0,0,1-2.859,2.864c-2.1,1.693-4.486,3-6.377,4.9a8.37,8.37,0,0,0-2.087,3.378,10.428,10.428,0,0,0-.342,3.981,10.447,10.447,0,0,1,.294-4,8.447,8.447,0,0,1,2.062-3.433c1.884-1.948,4.265-3.284,6.322-4.992a18.353,18.353,0,0,0,2.787-2.863,27.823,27.823,0,0,0,2.173-3.365,50.229,50.229,0,0,0,3.259-7.332,114.5,114.5,0,0,0,4.209-15.511c1.073-5.253,1.926-10.562,2.521-15.88Z" transform="translate(-179.214 -120.984)" fill="#422c3f"/>
            </g>
            <path id="Trazado_1193734" data-name="Trazado 1193734" d="M203.774,120.859s-2.538,36.8-12.945,45.687S176.361,185.075,192.1,193.2s21.575,6.092,27.413-.762-6.6-72.339-6.6-72.339Z" transform="translate(-86.933 -83.338)" fill="#422c3f"/>
            <path id="Trazado_1193735" data-name="Trazado 1193735" d="M279.759,120.859s2.538,36.8,12.945,45.687,14.468,18.529-1.269,26.651-21.575,6.092-27.413-.762.277-72.339.277-72.339Z" transform="translate(-102.279 -83.338)" fill="#422c3f"/>
            <path id="Trazado_1193736" data-name="Trazado 1193736" d="M157.933,308.129c-13.854,3.921-57.786-49.365-57.786-49.365l11.835-14.892,35.17,26.6s15.4-54.336,20.741-59.518c10.712-10.4,27.929-15.14,50.693-15.14,19.375,0,33.272,3.316,44.6,11.232,8.613,6.021,10.328,15.726,13.527,23.446,10.267,24.775,16.533,32.765,16.533,32.765l26.206-50.522,16.222,8.952s-20.882,79.014-46.386,77.951c-16.244-.677-33.46-52.027-33.46-52.027s-4.566,33.143-4.366,39.695,13.827,39.378,13.827,39.378c-28.512,7.683-56.929,8.475-85.27,3.824,0,0,9.2-30.467,9.311-41.975s-7.957-39.786-7.957-39.786S175.869,303.052,157.933,308.129Z" transform="translate(-71.276 -97.888)" fill="#7171af"/>
            <g id="Grupo_1231543" data-name="Grupo 1231543" transform="translate(105.465 3.077)">
              <g id="Grupo_1231535" data-name="Grupo 1231535" transform="translate(8.065 40.112)">
                <g id="Grupo_1231532" data-name="Grupo 1231532">
                  <path id="Trazado_1193737" data-name="Trazado 1193737" d="M215.6,135.587c0,4.159-1.554,7.192-4.294,7.192s-6.367-5.317-6.367-9.476,2.961-5.245,5.7-5.245S215.6,131.428,215.6,135.587Z" transform="translate(-204.943 -128.057)" fill="#d69f9d"/>
                  <g id="Grupo_1231531" data-name="Grupo 1231531" transform="translate(2.03 3.383)">
                    <path id="Trazado_1193738" data-name="Trazado 1193738" d="M207.456,135.63a3.453,3.453,0,0,1,1.491.446,4.565,4.565,0,0,1,1.243,1,5.986,5.986,0,0,1,.861,1.356,8.126,8.126,0,0,1,.509,1.515l-.767.14c-.262-1.42-.57-2.852-.954-4.244a15.442,15.442,0,0,0-.695-2.041c-.29-.633-.621-1.344-1.349-1.558a1.48,1.48,0,0,1,1.023.458,4.213,4.213,0,0,1,.72.889,10.919,10.919,0,0,1,.961,2.04,23.362,23.362,0,0,1,1.066,4.336.39.39,0,0,1-.765.148l0-.009-.165-.712c-.077-.229-.136-.467-.226-.69a6.284,6.284,0,0,0-.658-1.285A4.541,4.541,0,0,0,207.456,135.63Z" transform="translate(-207.456 -132.245)" fill="#282849"/>
                  </g>
                </g>
                <g id="Grupo_1231534" data-name="Grupo 1231534" transform="translate(54.486)">
                  <path id="Trazado_1193739" data-name="Trazado 1193739" d="M272.389,135.587c0,4.159,1.554,7.192,4.294,7.192s6.367-5.317,6.367-9.476-2.961-5.245-5.7-5.245S272.389,131.428,272.389,135.587Z" transform="translate(-272.389 -128.057)" fill="#d69f9d"/>
                  <g id="Grupo_1231533" data-name="Grupo 1231533" transform="translate(4.518 3.383)">
                    <path id="Trazado_1193740" data-name="Trazado 1193740" d="M282.094,135.63a4.531,4.531,0,0,0-2.293,1.792,6.325,6.325,0,0,0-.658,1.285c-.09.223-.149.461-.226.69l-.165.712,0,.007a.39.39,0,0,1-.765-.147,23.36,23.36,0,0,1,1.066-4.336,10.891,10.891,0,0,1,.961-2.04,4.243,4.243,0,0,1,.72-.889,1.48,1.48,0,0,1,1.023-.458c-.729.214-1.059.926-1.349,1.558a15.443,15.443,0,0,0-.695,2.041c-.385,1.392-.692,2.823-.954,4.244l-.767-.14a8.107,8.107,0,0,1,.509-1.515,5.969,5.969,0,0,1,.861-1.356,4.565,4.565,0,0,1,1.243-1A3.446,3.446,0,0,1,282.094,135.63Z" transform="translate(-277.981 -132.245)" fill="#282849"/>
                  </g>
                </g>
              </g>
              <path id="Trazado_1193741" data-name="Trazado 1193741" d="M213.161,147.136a1.9,1.9,0,1,1-1.9-1.9A1.9,1.9,0,0,1,213.161,147.136Z" transform="translate(-197.725 -91.245)" fill="#fff"/>
              <path id="Trazado_1193742" data-name="Trazado 1193742" d="M280.241,147.136a1.9,1.9,0,1,1-1.9-1.9A1.9,1.9,0,0,1,280.241,147.136Z" transform="translate(-210.615 -91.245)" fill="#fff"/>
              <path id="Trazado_1193743" data-name="Trazado 1193743" d="M242.143,202.771h0a14.885,14.885,0,0,1-14.885-14.885V165.559h29.77v22.327A14.886,14.886,0,0,1,242.143,202.771Z" transform="translate(-201.166 -95.151)" fill="#e4b4b1"/>
              <g id="Grupo_1231537" data-name="Grupo 1231537" transform="translate(26.092 70.408)">
                <g id="Grupo_1231536" data-name="Grupo 1231536" transform="translate(0)" clip-path="url(#clip-path-3)">
                  <ellipse id="Elipse_14923" data-name="Elipse 14923" cx="26.288" cy="39.37" rx="26.288" ry="39.37" transform="translate(-8.526 -68.843)" fill="#282849"/>
                </g>
              </g>
              <path id="Trazado_1193744" data-name="Trazado 1193744" d="M266.449,123.391c0,21.743-15.962,35.389-27.8,35.389s-27.8-13.645-27.8-35.389,12.445-30.943,27.8-30.943S266.449,101.648,266.449,123.391Z" transform="translate(-198.014 -81.103)" fill="#e4b4b1"/>
              <path id="Trazado_1193745" data-name="Trazado 1193745" d="M226.3,96.18s1.608,28.6,36.169,22.336c12.766-2.313-1.311-41.965-34.816-34.351,0,0-12.08-11.055-23.352-2.538-22.844,17.26,3.384,37.058,3.384,37.058S216.149,98.38,226.3,96.18Z" transform="translate(-194.96 -78.404)" fill="#422c3f"/>
              <g id="Grupo_1231538" data-name="Grupo 1231538" transform="translate(68.503 28.285)">
                <path id="Trazado_1193746" data-name="Trazado 1193746" d="M279.756,113.425a1.414,1.414,0,0,1,.692.1,2.428,2.428,0,0,1,.519.263,4.113,4.113,0,0,1,.813.713,8.927,8.927,0,0,1,1.171,1.69,22.255,22.255,0,0,1,1.527,3.7,60.891,60.891,0,0,1,1.831,7.7c.856,5.2,1.487,10.4,2.411,15.568a67.107,67.107,0,0,0,4.193,15.11,28.8,28.8,0,0,0,4.025,6.717,25.381,25.381,0,0,0,5.865,5.19,25.429,25.429,0,0,1-5.943-5.127,28.941,28.941,0,0,1-4.131-6.7,67.437,67.437,0,0,1-4.405-15.119c-.991-5.161-1.694-10.381-2.61-15.533a60.225,60.225,0,0,0-1.906-7.587,21.523,21.523,0,0,0-1.517-3.553,8.2,8.2,0,0,0-1.083-1.526,3.321,3.321,0,0,0-.666-.575,1.653,1.653,0,0,0-.357-.178,1.062,1.062,0,0,0-.27-.061Z" transform="translate(-279.756 -113.417)" fill="#422c3f"/>
              </g>
              <g id="Grupo_1231541" data-name="Grupo 1231541" transform="translate(18.985 33.657)">
                <path id="Trazado_1193747" data-name="Trazado 1193747" d="M231.163,134.615a2.369,2.369,0,1,1-2.369-2.369A2.369,2.369,0,0,1,231.163,134.615Z" transform="translate(-219.99 -122.407)" fill="#282849"/>
                <g id="Grupo_1231539" data-name="Grupo 1231539">
                  <path id="Trazado_1193748" data-name="Trazado 1193748" d="M218.46,125.8a77.813,77.813,0,0,0,8.822-2.036c1.44-.443,2.832-1,4.216-1.529a12.162,12.162,0,0,0,3.856-2.172l.065.048a8.861,8.861,0,0,1-.707.926c-.291.252-.575.53-.886.764s-.646.43-.973.644l-1.031.531a23.409,23.409,0,0,1-4.368,1.412,62.474,62.474,0,0,1-8.983,1.493Z" transform="translate(-218.46 -120.067)" fill="#282849"/>
                </g>
                <path id="Trazado_1193749" data-name="Trazado 1193749" d="M256.588,134.615a2.369,2.369,0,1,0,2.369-2.369A2.368,2.368,0,0,0,256.588,134.615Z" transform="translate(-225.786 -122.407)" fill="#282849"/>
                <g id="Grupo_1231540" data-name="Grupo 1231540" transform="translate(25.016)">
                  <path id="Trazado_1193750" data-name="Trazado 1193750" d="M266.375,125.885a62.36,62.36,0,0,1-8.983-1.493,23.409,23.409,0,0,1-4.368-1.412l-1.031-.531c-.326-.214-.657-.42-.973-.644s-.6-.511-.886-.764a8.97,8.97,0,0,1-.707-.926l.065-.048a12.162,12.162,0,0,0,3.856,2.172c1.385.532,2.777,1.087,4.216,1.529a78.162,78.162,0,0,0,8.822,2.036Z" transform="translate(-249.426 -120.067)" fill="#282849"/>
                </g>
              </g>
              <g id="Grupo_1231542" data-name="Grupo 1231542" transform="translate(37.366 50.434)">
                <path id="Trazado_1193751" data-name="Trazado 1193751" d="M243.819,140.834a8.183,8.183,0,0,1,.053,2.54,5.688,5.688,0,0,1-.3,1.277,2.693,2.693,0,0,1-.8,1.191,1.159,1.159,0,0,1-.352.206l-.184.078-.105.04a.585.585,0,0,0-.146.072c0,.012.008-.018,0-.036a.594.594,0,0,0,.195.274,4,4,0,0,0,.438.343,7.261,7.261,0,0,0,2.222.952,4.392,4.392,0,0,1-2.529-.4,2.952,2.952,0,0,1-.591-.356,1.211,1.211,0,0,1-.494-.729.734.734,0,0,1,.208-.6,1.245,1.245,0,0,1,.385-.246l.184-.075.1-.052a.484.484,0,0,0,.179-.112,2.043,2.043,0,0,0,.589-.843,7.561,7.561,0,0,0,.394-1.112C243.476,142.471,243.637,141.66,243.819,140.834Z" transform="translate(-241.213 -140.834)" fill="#282849"/>
              </g>
            </g>
            <g id="Grupo_1231544" data-name="Grupo 1231544" transform="translate(117.836 16.774)">
              <path id="Trazado_1193752" data-name="Trazado 1193752" d="M210.888,110.4a13.366,13.366,0,0,1-.61-3.706,12.094,12.094,0,0,1,.452-3.764,10.464,10.464,0,0,1,1.762-3.393,10.958,10.958,0,0,1,2.886-2.529,10.247,10.247,0,0,1,7.436-1.482,11.426,11.426,0,0,1,3.614,1.343,14.2,14.2,0,0,1,3.084,2.31l1.057,1.061-1.441-.455a22.83,22.83,0,0,0-4.45-.911,16.384,16.384,0,0,0-4.534.057,9.482,9.482,0,0,0-4.156,1.687,8.506,8.506,0,0,0-2.694,3.64,8.271,8.271,0,0,1,2.5-3.883,9.311,9.311,0,0,1,4.257-1.953,16.791,16.791,0,0,1,4.694-.229,23.413,23.413,0,0,1,4.619.89l-.385.605a13.256,13.256,0,0,0-6.31-3.391,9.5,9.5,0,0,0-6.925,1.3,11.323,11.323,0,0,0-2.794,2.306,9.938,9.938,0,0,0-1.787,3.158A13.956,13.956,0,0,0,210.888,110.4Z" transform="translate(-210.273 -95.359)" fill="#282849"/>
            </g>
            <path id="Trazado_1193753" data-name="Trazado 1193753" d="M197.248,361.483s-8.432,38.022-7.32,65.834S209.4,520.763,209.4,520.763l38.936,1.112-4.45-105.683,53.954,100.12,43.942-1.112S320.3,451.81,302.484,405.43c-8.465-22.035-20.414-48.422-20.414-48.422C255.887,364.414,227.331,365.107,197.248,361.483Z" transform="translate(-88.508 -128.86)" fill="#fff"/>
            <g id="Grupo_1231549" data-name="Grupo 1231549" transform="translate(105.237 229.763)">
              <g id="Grupo_1231545" data-name="Grupo 1231545" transform="translate(35.546 47.124)">
                <path id="Trazado_1193754" data-name="Trazado 1193754" d="M238.677,419.765c1.262.585,2.5,1.213,3.748,1.823l3.7,1.9,3.672,1.961c1.218.664,2.453,1.3,3.656,1.989l-.4.01c2.839-1.709,5.646-3.469,8.51-5.137,2.85-1.69,5.712-3.361,8.612-4.971-2.739,1.871-5.515,3.681-8.3,5.472-2.774,1.813-5.606,3.534-8.4,5.306l-.188.12-.208-.109c-1.229-.645-2.425-1.348-3.639-2.021l-3.624-2.048-3.591-2.108C241.041,421.226,239.847,420.517,238.677,419.765Z" transform="translate(-238.677 -417.341)" fill="#664460"/>
              </g>
              <g id="Grupo_1231546" data-name="Grupo 1231546" transform="translate(0 2.155)">
                <path id="Trazado_1193755" data-name="Trazado 1193755" d="M194.677,377.293c.671-.522,1.334-1.045,1.961-1.611.642-.544,1.262-1.115,1.863-1.7a41.809,41.809,0,0,0,3.383-3.709,33.765,33.765,0,0,0,2.884-4.1c.212-.36.437-.717.642-1.083l.57-1.124c.427-.732.692-1.533,1.084-2.294a20.353,20.353,0,0,1-1.752,4.8,9.129,9.129,0,0,1-.609,1.132l-.666,1.1c-.494.7-.976,1.413-1.525,2.071a26.377,26.377,0,0,1-3.6,3.66A21.959,21.959,0,0,1,194.677,377.293Z" transform="translate(-194.677 -361.675)" fill="#664460"/>
              </g>
              <g id="Grupo_1231547" data-name="Grupo 1231547" transform="translate(75.938)">
                <path id="Trazado_1193756" data-name="Trazado 1193756" d="M288.677,359.008c.6.8,1.206,1.582,1.857,2.33.629.763,1.276,1.513,1.964,2.222a38.3,38.3,0,0,0,4.328,4,25.092,25.092,0,0,0,4.984,3.054,17.435,17.435,0,0,0,5.716,1.323,13.414,13.414,0,0,1-3-.037,15.533,15.533,0,0,1-2.945-.708,20.316,20.316,0,0,1-5.252-3,27.761,27.761,0,0,1-4.295-4.223A28.344,28.344,0,0,1,288.677,359.008Z" transform="translate(-288.677 -359.008)" fill="#664460"/>
              </g>
              <g id="Grupo_1231548" data-name="Grupo 1231548" transform="translate(44.701 0.539)">
                <path id="Trazado_1193757" data-name="Trazado 1193757" d="M250.01,359.675c.437,4.761.813,9.526,1.2,14.289l1.133,14.288c.343,4.765.758,9.524,1.19,14.279q.3,3.569.725,7.124c.158,1.181.249,2.377.463,3.548l.289,1.767.439,1.735L254.889,415l-.38-1.755c-.275-1.169-.426-2.355-.645-3.533q-.536-3.549-.951-7.114c-.561-4.751-.969-9.516-1.377-14.28-.347-4.769-.692-9.537-.946-14.31S250.115,364.456,250.01,359.675Z" transform="translate(-250.01 -359.675)" fill="#664460"/>
              </g>
            </g>
            <g id="Grupo_1231551" data-name="Grupo 1231551" transform="translate(0 121.502)">
              <path id="Trazado_1193758" data-name="Trazado 1193758" d="M101.787,259.475c-10.9,12.344-29.538-4.267-35-9.628a2.191,2.191,0,0,1-.358-2.661l.248-.428a2.194,2.194,0,0,1,2.867-.872l4.852,2.382-9.222-7.921a2.2,2.2,0,0,1-.591-2.52h0a2.2,2.2,0,0,1,3.121-1.045l7.36,4.256-8.9-8.175a2.195,2.195,0,0,1-.3-2.893l.65-.908a2.2,2.2,0,0,1,3.072-.5l10.328,7.471-6.468-7.181a2.2,2.2,0,0,1,.694-3.454h0a4.154,4.154,0,0,1,4.134.338l17.149,11.844-4.548-6.9a3.18,3.18,0,0,1,1.424-4.683h0a3.178,3.178,0,0,1,3.665.885c4.333,5.151,11.992,17.032,10.673,22.363A26.509,26.509,0,0,1,101.787,259.475Z" transform="translate(-64.409 -224.997)" fill="#e4b4b1"/>
              <g id="Grupo_1231550" data-name="Grupo 1231550" transform="translate(13.265 13.002)">
                <path id="Trazado_1193759" data-name="Trazado 1193759" d="M80.908,254.017c-.011.011-.039.045-.06.014a.151.151,0,0,1-.017-.068.94.94,0,0,1,0-.135c0-.089.015-.177.027-.265.028-.174.065-.347.1-.519.078-.344.168-.685.264-1.024a21.092,21.092,0,0,1,.715-1.987,23.234,23.234,0,0,1,1.965-3.748,15.97,15.97,0,0,1,2.752-3.247,7.815,7.815,0,0,1,3.744-1.946,10.255,10.255,0,0,0-3.309,2.4,22.154,22.154,0,0,0-2.511,3.232,40.591,40.591,0,0,0-2.071,3.572c-.315.615-.625,1.234-.916,1.863-.151.313-.3.629-.43.948q-.1.24-.188.485c-.031.081-.061.162-.085.246a.851.851,0,0,0-.029.125C80.849,254,80.861,254.063,80.908,254.017Z" transform="translate(-80.829 -241.091)" fill="#282849"/>
              </g>
            </g>
            <g id="Grupo_1231553" data-name="Grupo 1231553" transform="translate(246.322 93.62)">
              <path id="Trazado_1193760" data-name="Trazado 1193760" d="M374.318,224.961c10.9,12.344,29.538-4.267,35-9.628a2.192,2.192,0,0,0,.358-2.661l-.248-.428a2.2,2.2,0,0,0-2.867-.872l-4.852,2.382,9.222-7.922a2.2,2.2,0,0,0,.591-2.52h0a2.2,2.2,0,0,0-3.121-1.045l-7.36,4.256,8.9-8.175a2.195,2.195,0,0,0,.3-2.893l-.65-.908a2.2,2.2,0,0,0-3.072-.5l-10.328,7.471,6.468-7.181a2.2,2.2,0,0,0-.694-3.454h0a4.154,4.154,0,0,0-4.134.339l-17.149,11.844,4.548-6.9a3.18,3.18,0,0,0-1.424-4.683h0a3.178,3.178,0,0,0-3.665.885c-4.333,5.151-11.992,17.032-10.673,22.363A26.5,26.5,0,0,0,374.318,224.961Z" transform="translate(-369.318 -190.483)" fill="#e4b4b1"/>
              <g id="Grupo_1231552" data-name="Grupo 1231552" transform="translate(19.542 13.002)">
                <path id="Trazado_1193761" data-name="Trazado 1193761" d="M403,219.5c.046.046.059-.014.047-.053a.867.867,0,0,0-.029-.125c-.024-.082-.054-.164-.085-.246-.059-.163-.121-.325-.188-.485-.134-.32-.279-.636-.43-.948-.29-.629-.6-1.248-.916-1.863a41.036,41.036,0,0,0-2.07-3.572,22.153,22.153,0,0,0-2.511-3.232,10.266,10.266,0,0,0-3.309-2.4,7.812,7.812,0,0,1,3.744,1.946A16,16,0,0,1,400,211.771a23.2,23.2,0,0,1,1.965,3.748c.271.65.508,1.314.715,1.988.1.339.186.68.264,1.024.039.172.075.345.1.519.012.088.023.176.027.265a.939.939,0,0,1,0,.135.148.148,0,0,1-.017.068C403.038,219.55,403.009,219.516,403,219.5Z" transform="translate(-393.508 -206.578)" fill="#282849"/>
              </g>
            </g>
            <g id="Grupo_1231554" data-name="Grupo 1231554" transform="translate(115.245)">
              <path id="Trazado_1193762" data-name="Trazado 1193762" d="M229.653,83.669a25.641,25.641,0,0,0-4.463-4.66,19.718,19.718,0,0,0-5.581-3.254,13.9,13.9,0,0,0-6.39-.823,15.77,15.77,0,0,0-6.152,2.1,15.879,15.879,0,0,1,6.127-2.3,14.2,14.2,0,0,1,6.548.642,20.218,20.218,0,0,1,5.822,3.159A26.265,26.265,0,0,1,230.31,83.2Z" transform="translate(-207.066 -74.595)" fill="#422c3f"/>
            </g>
            <g id="Grupo_1231556" data-name="Grupo 1231556" transform="translate(28.871 97.929)">
              <g id="Grupo_1231555" data-name="Grupo 1231555" clip-path="url(#clip-path-5)">
                <path id="Trazado_1193763" data-name="Trazado 1193763" d="M183.448,207.86s6.763,21.192,14.428,46.893" transform="translate(-116.153 -198.131)" fill="none" stroke="#9191ce" stroke-miterlimit="10" stroke-width="1"/>
                <path id="Trazado_1193764" data-name="Trazado 1193764" d="M293.4,250.931s.9-32.014,9.92-44.188" transform="translate(-137.28 -197.916)" fill="none" stroke="#9191ce" stroke-miterlimit="10" stroke-width="1"/>
              </g>
            </g>
          </g>
          <path id="Trazado_1193766" data-name="Trazado 1193766" d="M209.7,176.142c7.71,14.553,34.688-.422,41.252-4.354a2.191,2.191,0,0,0,.971-2.5l-.141-.474a2.2,2.2,0,0,0-2.584-1.519l-5.274,1.179,10.82-5.543a2.194,2.194,0,0,0,1.165-2.311h0a2.195,2.195,0,0,0-2.79-1.747l-8.151,2.415,10.567-5.865a2.2,2.2,0,0,0,.969-2.743l-.418-1.035a2.2,2.2,0,0,0-2.87-1.207l-11.79,4.846,7.969-5.467a2.195,2.195,0,0,0,.134-3.521h0a4.154,4.154,0,0,0-4.1-.638l-19.445,7.5,6.037-5.643a3.181,3.181,0,0,0-.288-4.887h0a3.177,3.177,0,0,0-3.77,0c-5.418,3.993-20.557,15.643-20.523,21.134A38.831,38.831,0,0,0,209.7,176.142Z" transform="translate(-40.079 -26.994)" fill="#282849"/>
          <path id="Trazado_1193767" data-name="Trazado 1193767" d="M242.771,224.287c-1.134-7.4-5.143-17.817-6.971-22.318a3.28,3.28,0,0,0-6.211,2.064l2.235,8.132-12.989-16.927a4.306,4.306,0,0,0-3.941-1.642,2.239,2.239,0,0,0-1.793,3.127l4.025,9.014-7.714-10.521a2.28,2.28,0,0,0-3.172-.49l-.928.674a2.224,2.224,0,0,0-.637,2.9l6.088,10.751-5.841-6.463a2.281,2.281,0,0,0-3.395.022h0a2.22,2.22,0,0,0-.232,2.63l6.485,10.607L203.792,212a2.283,2.283,0,0,0-3.09-.066l-.381.337a2.218,2.218,0,0,0-.507,2.693c2.593,4.958,11.287,20.414,21.392,25.7,11.127,16.532,58.726,84.5,77.833,66.99C318.049,290.225,258,237.2,242.771,224.287Z" transform="translate(-38.565 -36.9)" fill="#282849"/>
        </g>
        <g id="Grupo_1231559" data-name="Grupo 1231559" clip-path="url(#clip-path-2)">
          <path id="Trazado_1193768" data-name="Trazado 1193768" d="M297.677,122.968a6.614,6.614,0,0,1,2.3-1.826,7.452,7.452,0,0,1,2.882-.786,7.54,7.54,0,0,1,2.959.392,8.2,8.2,0,0,1,1.357.588,11.552,11.552,0,0,1,1.21.824c-.475-.134-.912-.324-1.366-.46a13.711,13.711,0,0,0-1.364-.344,9.8,9.8,0,0,0-2.741-.195,9.55,9.55,0,0,0-2.69.557A12.53,12.53,0,0,0,297.677,122.968Z" transform="translate(-57.417 -22.831)" fill="#b3b9c9"/>
        </g>
      </g>
    </g>
  </g>
</svg>
