<svg xmlns="http://www.w3.org/2000/svg" xmlns:xlink="http://www.w3.org/1999/xlink" width="295" height="281" viewBox="0 0 295 281">
  <defs>
    <clipPath id="clip-path">
      <rect id="Rectángulo_422969" data-name="Rectángulo 422969" width="295" height="281" transform="translate(1125 5311)" fill="#fff" stroke="#707070" stroke-width="1"/>
    </clipPath>
    <clipPath id="clip-path-2">
      <rect id="Rectángulo_423041" data-name="Rectángulo 423041" width="295" height="295" transform="translate(0 0)"/>
    </clipPath>
  </defs>
  <g id="Enmascarar_grupo_1225073" data-name="Enmascarar grupo 1225073" transform="translate(-1125 -5311)" clip-path="url(#clip-path)">
    <g id="OBJECTS" transform="translate(1124.734 5295.734)">
      <g id="Grupo_1231396" data-name="Grupo 1231396" transform="translate(7.887 9.075)">
        <g id="Grupo_1231373" data-name="Grupo 1231373" transform="translate(235.426 220.108)">
          <path id="Trazado_1193335" data-name="Trazado 1193335" d="M454.582,397.246c-7.762-3.1-15.67-6.054-23.432-9.149a16.776,16.776,0,0,1-.27,13.147c-1.658,3.626-4.556,6.524-7.523,9.187s-6.1,5.215-8.434,8.446a14.525,14.525,0,0,0-2.623,11.33l21.968,8.572c-.623-4.392,1.1-8.807,3.836-12.3s6.188-6.351,9.133-9.668C452.006,411.441,455.525,404.365,454.582,397.246Z" transform="translate(-412.026 -388.097)" fill="#507daa"/>
          <path id="Trazado_1193336" data-name="Trazado 1193336" d="M448.959,407.986a8.363,8.363,0,0,0,4.117,4.922,30.807,30.807,0,0,1-4.707,6.935c-1.18,1.33-2.432,2.568-3.758,3.879a63.622,63.622,0,0,0-5.467,5.9,23.092,23.092,0,0,0-1.408,2,5.854,5.854,0,0,0-2.527-.309,7.938,7.938,0,0,0-5.022,2.755,12.658,12.658,0,0,0-2.059,3.322l-4.853-1.892a7.7,7.7,0,0,0-.563-6.723,7.511,7.511,0,0,0-3.807-3.034c.2-.35.429-.687.666-1.016a43.5,43.5,0,0,1,6.694-6.827c.474-.42.948-.84,1.416-1.26,3.109-2.79,6.237-5.925,8.068-9.93.2-.446.39-.9.557-1.358a8.465,8.465,0,0,0,4.587-1.252,8.568,8.568,0,0,0,3.612-4.938c.119.051.239.1.358.141,1.678.647,3.383,1.307,5.094,1.969A8.393,8.393,0,0,0,448.959,407.986Z" transform="translate(-414.842 -392.628)" fill="#315a94"/>
          <path id="Trazado_1193337" data-name="Trazado 1193337" d="M449.366,421.565c1.291,1.176-.124,4.831-3.16,8.162s-6.543,5.078-7.834,3.9.124-4.831,3.16-8.162S448.075,420.388,449.366,421.565Z" transform="translate(-422.618 -401.65)" fill="#507daa"/>
        </g>
        <g id="Grupo_1231374" data-name="Grupo 1231374" transform="translate(0 176.731)">
          <path id="Trazado_1193338" data-name="Trazado 1193338" d="M13.365,334.994c2.945-7.789,4.679-12.721,8.021-20.349,3.275,6.526,8.956,13.728,15.709,16.5,9.377,3.852,15.109,1.045,22.131-.954A152.728,152.728,0,0,0,49.6,350.924a31.326,31.326,0,0,1-20-1.058C23.265,347.255,16.817,340.911,13.365,334.994Z" transform="translate(-13.365 -314.645)" fill="#507daa"/>
          <path id="Trazado_1193339" data-name="Trazado 1193339" d="M47.21,352.393a7.338,7.338,0,0,0-3.514,4.753,27.822,27.822,0,0,1-10.43-2.04,32.4,32.4,0,0,1-10.81-8.06,6.766,6.766,0,0,0-2.05-10.123c.627-1.665,1.224-3.243,1.839-4.83a5.884,5.884,0,0,0,1.646,1.544,5.2,5.2,0,0,0,4.486.495,5.564,5.564,0,0,0,1.393-.787,27.769,27.769,0,0,0,9.424,6.851,25.356,25.356,0,0,0,9.687,2.065,5.039,5.039,0,0,0,0,1.17,5.33,5.33,0,0,0,5.447,4.76c-.534,1.166-1.049,2.347-1.569,3.582A7.351,7.351,0,0,0,47.21,352.393Z" transform="translate(-16.248 -321.789)" fill="#315a94"/>
          <path id="Trazado_1193340" data-name="Trazado 1193340" d="M47.039,355c-.831,1.36-4.409,2.11-7.919-.037s-5.623-6.375-4.792-7.736,4.588-.156,8.1,1.99S47.871,353.642,47.039,355Z" transform="translate(-21.874 -327.752)" fill="#507daa"/>
        </g>
        <g id="Grupo_1231375" data-name="Grupo 1231375" transform="translate(224.447 2.62)">
          <path id="Trazado_1193341" data-name="Trazado 1193341" d="M402.088,48.258c-3.362-4.75-5.542-7.682-8.654-12.6,5.06.653,11.452.175,15.7-2.653,5.9-3.927,6.509-8.345,8.095-13.194a106.777,106.777,0,0,0,8.249,13.675,21.891,21.891,0,0,1-8.429,11.175C413.059,47.313,406.865,48.57,402.088,48.258Z" transform="translate(-393.434 -19.813)" fill="#507daa"/>
          <path id="Trazado_1193342" data-name="Trazado 1193342" d="M423.718,40.4a5.13,5.13,0,0,0,1.38,3.893,19.458,19.458,0,0,1-5.257,5.246,22.647,22.647,0,0,1-8.893,3.113,4.728,4.728,0,0,0-6.665-2.768c-.72-1.013-1.4-1.976-2.079-2.953a4.12,4.12,0,0,0,1.538-.35,3.634,3.634,0,0,0,2.04-2.406,3.894,3.894,0,0,0,.089-1.114,19.394,19.394,0,0,0,7.651-2.783,17.708,17.708,0,0,0,4.981-4.805,3.515,3.515,0,0,0,.677.46,3.725,3.725,0,0,0,4.886-1.3c.467.765.95,1.525,1.462,2.308A5.133,5.133,0,0,0,423.718,40.4Z" transform="translate(-397.024 -25.882)" fill="#315a94"/>
          <path id="Trazado_1193343" data-name="Trazado 1193343" d="M424.9,47.418c.463,1.013-.5,3.378-3.115,4.574s-5.891.767-6.354-.247,1.7-2.719,4.317-3.914S424.438,46.4,424.9,47.418Z" transform="translate(-402.416 -30.854)" fill="#507daa"/>
        </g>
        <g id="Grupo_1231378" data-name="Grupo 1231378" transform="translate(248.473 140.202)">
          <circle id="Elipse_14904" data-name="Elipse 14904" cx="12.91" cy="12.91" r="12.91" transform="translate(0 25.39) rotate(-79.514)" fill="#ff952b"/>
          <circle id="Elipse_14905" data-name="Elipse 14905" cx="10.17" cy="10.17" r="10.17" transform="translate(1.831 20.706) rotate(-68.199)" fill="#ffd14b"/>
          <g id="Grupo_1231376" data-name="Grupo 1231376" transform="translate(3.408 3.424)">
            <rect id="Rectángulo_422972" data-name="Rectángulo 422972" width="0.39" height="1.642" transform="translate(6.508 0.298) rotate(-23.448)" fill="#af631f"/>
            <rect id="Rectángulo_422973" data-name="Rectángulo 422973" width="0.39" height="1.642" transform="translate(0 7.245) rotate(-68.456)" fill="#af631f"/>
            <rect id="Rectángulo_422974" data-name="Rectángulo 422974" width="1.642" height="0.39" transform="translate(0.17 16.385) rotate(-23.453)" fill="#af631f"/>
            <rect id="Rectángulo_422975" data-name="Rectángulo 422975" width="1.642" height="0.39" transform="translate(6.879 23.104) rotate(-68.456)" fill="#af631f"/>
            <rect id="Rectángulo_422976" data-name="Rectángulo 422976" width="0.39" height="1.642" transform="translate(15.751 21.599) rotate(-23.453)" fill="#af631f"/>
            <rect id="Rectángulo_422977" data-name="Rectángulo 422977" width="0.39" height="1.642" transform="translate(21.577 15.765) rotate(-68.456)" fill="#af631f"/>
            <rect id="Rectángulo_422978" data-name="Rectángulo 422978" width="1.642" height="0.39" transform="translate(21.451 7.163) rotate(-23.453)" fill="#af631f"/>
            <rect id="Rectángulo_422979" data-name="Rectángulo 422979" width="1.642" height="0.39" transform="translate(15.4 1.528) rotate(-68.456)" fill="#af631f"/>
          </g>
          <g id="Grupo_1231377" data-name="Grupo 1231377" transform="translate(8.377 8.241)">
            <path id="Trazado_1193344" data-name="Trazado 1193344" d="M458.677,278.584l-4.741,2.057a1.171,1.171,0,1,1-.932-2.148l4.741-2.057c.882-.383,1.434-1.231,1.18-1.815s-1.25-.761-2.132-.377l-3.2,1.389a3.471,3.471,0,1,1-2.729-6.29l5.035-2.184a1.171,1.171,0,1,1,.932,2.148l-5.035,2.184c-.9.392-1.3,1.189-1.1,1.661s1.061.724,1.963.332l3.2-1.389c2.1-.91,4.436-.195,5.213,1.594S460.775,277.674,458.677,278.584Z" transform="translate(-448.304 -266.873)" fill="#ff952b"/>
            <path id="Trazado_1193345" data-name="Trazado 1193345" d="M457.985,281.579a.781.781,0,0,1-1.027-.405l-5.031-11.6a.781.781,0,0,1,1.433-.621l5.03,11.595A.78.78,0,0,1,457.985,281.579Z" transform="translate(-449.761 -267.457)" fill="#ff952b"/>
            <path id="Trazado_1193346" data-name="Trazado 1193346" d="M462,279.836a.781.781,0,0,1-1.027-.406l-5.03-11.6a.781.781,0,1,1,1.432-.621l5.03,11.6A.78.78,0,0,1,462,279.836Z" transform="translate(-451.406 -266.743)" fill="#ff952b"/>
          </g>
        </g>
        <g id="Grupo_1231381" data-name="Grupo 1231381" transform="translate(3.33 224.084)">
          <path id="Trazado_1193347" data-name="Trazado 1193347" d="M35.2,399.677a8.512,8.512,0,1,1-11.373-3.945A8.512,8.512,0,0,1,35.2,399.677Z" transform="translate(-19.012 -394.85)" fill="#ff952b"/>
          <circle id="Elipse_14906" data-name="Elipse 14906" cx="6.706" cy="6.706" r="6.706" transform="translate(0 12.671) rotate(-70.871)" fill="#ffd14b"/>
          <g id="Grupo_1231379" data-name="Grupo 1231379" transform="translate(0.753 0.761)">
            <rect id="Rectángulo_422980" data-name="Rectángulo 422980" width="0.257" height="1.083" transform="translate(4.095 0.461) rotate(-25.868)" fill="#af631f"/>
            <rect id="Rectángulo_422981" data-name="Rectángulo 422981" width="0.257" height="1.083" transform="translate(0 5.212) rotate(-70.871)" fill="#af631f"/>
            <rect id="Rectángulo_422982" data-name="Rectángulo 422982" width="1.083" height="0.257" transform="translate(0.344 11.239) rotate(-25.868)" fill="#af631f"/>
            <rect id="Rectángulo_422983" data-name="Rectángulo 422983" width="1.083" height="0.257" transform="translate(4.965 15.473) rotate(-70.858)" fill="#af631f"/>
            <rect id="Rectángulo_422984" data-name="Rectángulo 422984" width="0.257" height="1.083" transform="translate(10.768 14.238) rotate(-25.86)" fill="#af631f"/>
            <rect id="Rectángulo_422985" data-name="Rectángulo 422985" width="0.257" height="1.083" transform="translate(14.451 10.225) rotate(-70.871)" fill="#af631f"/>
            <rect id="Rectángulo_422986" data-name="Rectángulo 422986" width="1.083" height="0.257" transform="translate(14.108 4.566) rotate(-25.868)" fill="#af631f"/>
            <rect id="Rectángulo_422987" data-name="Rectángulo 422987" width="1.083" height="0.257" transform="translate(9.985 1.023) rotate(-70.871)" fill="#af631f"/>
          </g>
          <g id="Grupo_1231380" data-name="Grupo 1231380" transform="translate(4.108 4.098)">
            <path id="Trazado_1193348" data-name="Trazado 1193348" d="M32.955,409.373l-3.067,1.487a.772.772,0,1,1-.674-1.39l3.067-1.487c.57-.277.911-.851.728-1.228s-.844-.466-1.415-.19l-2.071,1A2.288,2.288,0,1,1,27.55,403.5l3.256-1.579a.772.772,0,0,1,.674,1.39l-3.256,1.579c-.583.283-.825.82-.677,1.124s.719.448,1.3.165l2.07-1a2.362,2.362,0,1,1,2.036,4.2Z" transform="translate(-25.96 -401.8)" fill="#ff952b"/>
            <path id="Trazado_1193349" data-name="Trazado 1193349" d="M32.487,411.506a.515.515,0,0,1-.688-.239l-3.636-7.5a.515.515,0,0,1,.927-.449l3.636,7.5A.515.515,0,0,1,32.487,411.506Z" transform="translate(-26.841 -402.285)" fill="#ff952b"/>
            <path id="Trazado_1193350" data-name="Trazado 1193350" d="M35.084,410.246a.515.515,0,0,1-.688-.239l-3.636-7.5a.514.514,0,1,1,.926-.449l3.636,7.5A.514.514,0,0,1,35.084,410.246Z" transform="translate(-27.905 -401.769)" fill="#ff952b"/>
          </g>
        </g>
        <g id="Grupo_1231384" data-name="Grupo 1231384" transform="translate(49.821 62.1)">
          <path id="Trazado_1193351" data-name="Trazado 1193351" d="M100.88,129.51c-2.9,5.692-4,10.947-2.447,11.736l2.2,1.121c1.549.79,5.156-3.185,8.057-8.878s4-10.947,2.447-11.736l-2.2-1.121C107.387,119.844,103.78,123.818,100.88,129.51Z" transform="translate(-97.73 -120.533)" fill="#ff952b"/>
          <path id="Trazado_1193352" data-name="Trazado 1193352" d="M108.926,122.392c1.215.619.084,5.277-2.528,10.4s-5.715,8.779-6.93,8.16-.084-5.277,2.528-10.4S107.71,121.772,108.926,122.392Z" transform="translate(-98.242 -121.266)" fill="#ffd14b"/>
          <g id="Grupo_1231382" data-name="Grupo 1231382" transform="translate(3.156 2.523)">
            <rect id="Rectángulo_422988" data-name="Rectángulo 422988" width="0.39" height="1.25" transform="matrix(0.454, -0.891, 0.891, 0.454, 5.891, 9.681)" fill="#af631f"/>
            <rect id="Rectángulo_422989" data-name="Rectángulo 422989" width="0.39" height="1.25" transform="matrix(0.454, -0.891, 0.891, 0.454, 4.585, 11.989)" fill="#af631f"/>
            <rect id="Rectángulo_422990" data-name="Rectángulo 422990" width="0.39" height="1.25" transform="matrix(0.454, -0.891, 0.891, 0.454, 3.246, 13.869)" fill="#af631f"/>
            <rect id="Rectángulo_422991" data-name="Rectángulo 422991" width="0.39" height="1.25" transform="translate(1.746 15.777) rotate(-63.004)" fill="#af631f"/>
            <rect id="Rectángulo_422992" data-name="Rectángulo 422992" width="0.39" height="1.25" transform="matrix(0.454, -0.891, 0.891, 0.454, 0, 17.435)" fill="#af631f"/>
            <rect id="Rectángulo_422993" data-name="Rectángulo 422993" width="0.39" height="1.25" transform="matrix(0.454, -0.891, 0.891, 0.454, 6.997, 7.265)" fill="#af631f"/>
            <rect id="Rectángulo_422994" data-name="Rectángulo 422994" width="0.39" height="1.25" transform="translate(7.726 5.075) rotate(-63.004)" fill="#af631f"/>
            <rect id="Rectángulo_422995" data-name="Rectángulo 422995" width="0.39" height="1.25" transform="matrix(0.454, -0.891, 0.891, 0.454, 8.389, 2.741)" fill="#af631f"/>
            <rect id="Rectángulo_422996" data-name="Rectángulo 422996" width="0.39" height="1.25" transform="matrix(0.454, -0.891, 0.891, 0.454, 8.707, 0.348)" fill="#af631f"/>
          </g>
          <g id="Grupo_1231383" data-name="Grupo 1231383" transform="translate(2.37 5.564)">
            <path id="Trazado_1193353" data-name="Trazado 1193353" d="M107.207,134.092,104.86,138.7c-.294.576-.653.981-.8.9s-.034-.605.26-1.182l2.347-4.605c.436-.857.69-1.675.543-1.75s-.66.611-1.1,1.467l-1.584,3.11c-1,1.97-2.177,3.391-2.616,3.168s.022-2.008,1.026-3.978l2.492-4.89c.293-.576.653-.981.8-.9s.034.605-.26,1.182l-2.492,4.89c-.446.876-.625,1.554-.506,1.615s.563-.482,1.009-1.358l1.584-3.11c1.038-2.038,2.251-3.508,2.7-3.277S108.245,132.054,107.207,134.092Z" transform="translate(-101.744 -129.955)" fill="#ff952b"/>
            <path id="Trazado_1193354" data-name="Trazado 1193354" d="M106.84,140.068c-.2.384-.435.654-.536.6l-2.931-1.493c-.1-.051-.022-.4.174-.788s.435-.654.536-.6l2.931,1.493C107.113,139.332,107.035,139.684,106.84,140.068Z" transform="translate(-102.393 -133.159)" fill="#ff952b"/>
            <path id="Trazado_1193355" data-name="Trazado 1193355" d="M108.828,136.167c-.2.384-.435.654-.536.6l-2.931-1.494c-.1-.051-.022-.4.173-.788s.435-.654.536-.6L109,135.379C109.1,135.43,109.023,135.783,108.828,136.167Z" transform="translate(-103.207 -131.562)" fill="#ff952b"/>
          </g>
        </g>
        <g id="Grupo_1231387" data-name="Grupo 1231387" transform="translate(250.365 40.326)">
          <path id="Trazado_1193356" data-name="Trazado 1193356" d="M445.132,91.976c4.79,1.853,9.081,2.3,9.586.994l.716-1.852c.5-1.3-2.97-3.862-7.76-5.715s-9.081-2.3-9.586-.994l-.716,1.852C436.868,87.565,440.342,90.124,445.132,91.976Z" transform="translate(-437.324 -83.663)" fill="#ff952b"/>
          <path id="Trazado_1193357" data-name="Trazado 1193357" d="M438.844,88.266c.4-1.023,4.213-.5,8.526,1.169s7.489,3.85,7.093,4.873-4.213.5-8.526-1.169S438.448,89.289,438.844,88.266Z" transform="translate(-437.932 -85.333)" fill="#ffd14b"/>
          <g id="Grupo_1231385" data-name="Grupo 1231385" transform="translate(1.916 0.805)">
            <rect id="Rectángulo_422997" data-name="Rectángulo 422997" width="1.005" height="0.314" transform="translate(7.708 2.407) rotate(-68.852)" fill="#af631f"/>
            <rect id="Rectángulo_422998" data-name="Rectángulo 422998" width="1.005" height="0.314" transform="translate(9.641 3.256) rotate(-68.857)" fill="#af631f"/>
            <rect id="Rectángulo_422999" data-name="Rectángulo 422999" width="1.005" height="0.314" transform="translate(11.259 4.195) rotate(-68.85)" fill="#af631f"/>
            <rect id="Rectángulo_423000" data-name="Rectángulo 423000" width="1.005" height="0.314" transform="translate(12.9 5.233) rotate(-68.85)" fill="#af631f"/>
            <rect id="Rectángulo_423001" data-name="Rectángulo 423001" width="1.005" height="0.314" transform="translate(14.376 6.498) rotate(-68.85)" fill="#af631f"/>
            <rect id="Rectángulo_423002" data-name="Rectángulo 423002" width="1.005" height="0.314" transform="translate(5.681 1.729) rotate(-68.857)" fill="#af631f"/>
            <rect id="Rectángulo_423003" data-name="Rectángulo 423003" width="1.005" height="0.314" transform="translate(3.853 1.33) rotate(-68.85)" fill="#af631f"/>
            <rect id="Rectángulo_423004" data-name="Rectángulo 423004" width="1.005" height="0.314" transform="translate(1.938 0.993) rotate(-68.85)" fill="#af631f"/>
            <rect id="Rectángulo_423005" data-name="Rectángulo 423005" width="1.005" height="0.314" transform="translate(0 0.937) rotate(-68.85)" fill="#af631f"/>
          </g>
          <g id="Grupo_1231386" data-name="Grupo 1231386" transform="translate(4.614 3.814)">
            <path id="Trazado_1193358" data-name="Trazado 1193358" d="M448.526,90.816l3.875,1.5c.485.188.839.442.79.568s-.481.077-.966-.111l-3.875-1.5c-.721-.279-1.4-.415-1.444-.291s.543.478,1.263.757l2.617,1.012c1.658.641,2.891,1.463,2.748,1.832s-1.607.147-3.266-.494L446.152,92.5c-.485-.188-.839-.442-.79-.568s.481-.077.966.111l4.115,1.592c.737.285,1.294.372,1.333.272s-.432-.411-1.169-.7L447.991,92.2c-1.715-.663-2.99-1.512-2.842-1.893S446.811,90.153,448.526,90.816Z" transform="translate(-445.137 -90.12)" fill="#ff952b"/>
            <path id="Trazado_1193359" data-name="Trazado 1193359" d="M453.659,92.206c.323.125.559.295.526.379l-.954,2.467c-.033.084-.321.051-.644-.074s-.559-.295-.526-.379l.954-2.467C453.048,92.048,453.336,92.081,453.659,92.206Z" transform="translate(-447.971 -90.925)" fill="#ff952b"/>
            <path id="Trazado_1193360" data-name="Trazado 1193360" d="M450.377,90.937c.323.125.559.295.526.379l-.954,2.467c-.032.084-.321.051-.644-.074s-.559-.295-.526-.379l.954-2.467C449.765,90.778,450.053,90.812,450.377,90.937Z" transform="translate(-446.627 -90.405)" fill="#ff952b"/>
          </g>
        </g>
        <g id="Grupo_1231390" data-name="Grupo 1231390" transform="translate(236.457 196.553)">
          <path id="Trazado_1193361" data-name="Trazado 1193361" d="M423.164,353.168c-3.337-3.53-6.82-5.656-7.781-4.747l-1.365,1.29c-.961.908.965,4.506,4.3,8.035s6.82,5.656,7.781,4.747l1.365-1.29C428.427,360.3,426.5,356.7,423.164,353.168Z" transform="translate(-413.772 -348.211)" fill="#ff952b"/>
          <path id="Trazado_1193362" data-name="Trazado 1193362" d="M428.282,361.055c-.754.713-3.8-1.287-6.805-4.465s-4.829-6.333-4.075-7.046,3.8,1.287,6.805,4.465S429.036,360.342,428.282,361.055Z" transform="translate(-415.188 -348.698)" fill="#ffd14b"/>
          <g id="Grupo_1231388" data-name="Grupo 1231388" transform="translate(0.821 2.16)">
            <rect id="Rectángulo_423006" data-name="Rectángulo 423006" width="0.95" height="0.297" transform="matrix(0.727, -0.687, 0.687, 0.727, 4.056, 6.852)" fill="#af631f"/>
            <rect id="Rectángulo_423007" data-name="Rectángulo 423007" width="0.95" height="0.297" transform="matrix(0.727, -0.687, 0.687, 0.727, 2.73, 5.321)" fill="#af631f"/>
            <rect id="Rectángulo_423008" data-name="Rectángulo 423008" width="0.95" height="0.297" transform="matrix(0.727, -0.687, 0.687, 0.727, 1.725, 3.887)" fill="#af631f"/>
            <rect id="Rectángulo_423009" data-name="Rectángulo 423009" width="0.95" height="0.297" transform="matrix(0.727, -0.687, 0.687, 0.727, 0.745, 2.325)" fill="#af631f"/>
            <rect id="Rectángulo_423010" data-name="Rectángulo 423010" width="0.95" height="0.297" transform="matrix(0.727, -0.687, 0.687, 0.727, 0, 0.653)" fill="#af631f"/>
            <rect id="Rectángulo_423011" data-name="Rectángulo 423011" width="0.95" height="0.297" transform="matrix(0.727, -0.687, 0.687, 0.727, 5.503, 8.26)" fill="#af631f"/>
            <rect id="Rectángulo_423012" data-name="Rectángulo 423012" width="0.95" height="0.296" transform="matrix(0.727, -0.687, 0.687, 0.727, 6.883, 9.343)" fill="#af631f"/>
            <rect id="Rectángulo_423013" data-name="Rectángulo 423013" width="0.95" height="0.297" transform="matrix(0.727, -0.687, 0.687, 0.727, 8.383, 10.417)" fill="#af631f"/>
            <rect id="Rectángulo_423014" data-name="Rectángulo 423014" width="0.95" height="0.297" transform="matrix(0.727, -0.687, 0.687, 0.727, 10.016, 11.249)" fill="#af631f"/>
          </g>
          <g id="Grupo_1231389" data-name="Grupo 1231389" transform="translate(4.514 2.825)">
            <path id="Trazado_1193363" data-name="Trazado 1193363" d="M424.581,358.3l-2.7-2.856c-.338-.357-.536-.718-.443-.806s.442.131.78.488l2.7,2.856c.5.531,1.023.922,1.115.835s-.269-.629-.771-1.16l-1.823-1.929c-1.155-1.222-1.873-2.425-1.6-2.682s1.433.528,2.588,1.75l2.867,3.032c.338.357.536.718.443.806s-.442-.13-.78-.488l-2.866-3.032c-.513-.543-.954-.844-1.028-.774s.2.526.715,1.07l1.823,1.929c1.195,1.264,1.938,2.507,1.658,2.773S425.776,359.56,424.581,358.3Z" transform="translate(-421.415 -352.995)" fill="#ff952b"/>
            <path id="Trazado_1193364" data-name="Trazado 1193364" d="M423.638,357.969c-.225-.238-.357-.479-.3-.537l1.818-1.718c.062-.059.295.087.52.325s.357.479.3.537l-1.818,1.719C424.1,358.353,423.863,358.207,423.638,357.969Z" transform="translate(-422.198 -354.102)" fill="#ff952b"/>
            <path id="Trazado_1193365" data-name="Trazado 1193365" d="M424.5,358.324c-.225-.238-2.431-5.189-2.368-5.247l3.891,2.992c.062-.059.295.087.52.325s.357.479.3.537l-1.818,1.719C424.955,358.708,424.722,358.562,424.5,358.324Z" transform="translate(-421.707 -353.028)" fill="#ff952b"/>
          </g>
        </g>
        <g id="Grupo_1231392" data-name="Grupo 1231392" transform="translate(17.915 148.31)">
          <path id="Trazado_1193366" data-name="Trazado 1193366" d="M50.874,271.566c-3.164-3.071-5.962-5.32-6.251-5.022l-.9.924c-.288.3,2.042,3.028,5.206,6.1s5.962,5.32,6.251,5.022l.9-.924C56.369,277.367,54.038,274.636,50.874,271.566Z" transform="translate(-43.702 -266.517)" fill="#ff952b"/>
          <path id="Trazado_1193367" data-name="Trazado 1193367" d="M56.571,277.538c-.207.213-2.738-1.907-5.652-4.737s-5.11-5.3-4.9-5.509,2.738,1.907,5.653,4.737S56.779,277.324,56.571,277.538Z" transform="translate(-44.644 -266.828)" fill="#ffd14b"/>
          <g id="Grupo_1231391" data-name="Grupo 1231391" transform="translate(0.342 0.565)">
            <rect id="Rectángulo_423015" data-name="Rectángulo 423015" width="0.882" height="0.276" transform="translate(4.983 6.18) rotate(-45.859)" fill="#af631f"/>
            <rect id="Rectángulo_423016" data-name="Rectángulo 423016" width="0.882" height="0.276" transform="matrix(0.697, -0.717, 0.717, 0.697, 4.064, 5.285)" fill="#af631f"/>
            <rect id="Rectángulo_423017" data-name="Rectángulo 423017" width="0.882" height="0.276" transform="matrix(0.697, -0.717, 0.717, 0.697, 3.19, 4.346)" fill="#af631f"/>
            <rect id="Rectángulo_423018" data-name="Rectángulo 423018" width="0.882" height="0.276" transform="matrix(0.697, -0.717, 0.717, 0.697, 2.349, 3.455)" fill="#af631f"/>
            <rect id="Rectángulo_423019" data-name="Rectángulo 423019" width="0.882" height="0.276" transform="translate(1.527 2.564) rotate(-45.843)" fill="#af631f"/>
            <rect id="Rectángulo_423020" data-name="Rectángulo 423020" width="0.882" height="0.276" transform="matrix(0.697, -0.717, 0.717, 0.697, 0.649, 1.566)" fill="#af631f"/>
            <rect id="Rectángulo_423021" data-name="Rectángulo 423021" width="0.882" height="0.276" transform="translate(0 0.633) rotate(-45.843)" fill="#af631f"/>
            <rect id="Rectángulo_423022" data-name="Rectángulo 423022" width="0.882" height="0.276" transform="matrix(0.697, -0.717, 0.717, 0.697, 5.903, 7.071)" fill="#af631f"/>
            <rect id="Rectángulo_423023" data-name="Rectángulo 423023" width="0.882" height="0.276" transform="translate(6.869 7.915) rotate(-45.843)" fill="#af631f"/>
            <rect id="Rectángulo_423024" data-name="Rectángulo 423024" width="0.882" height="0.276" transform="translate(7.785 8.73) rotate(-45.843)" fill="#af631f"/>
            <rect id="Rectángulo_423025" data-name="Rectángulo 423025" width="0.882" height="0.276" transform="translate(8.698 9.525) rotate(-45.843)" fill="#af631f"/>
            <rect id="Rectángulo_423026" data-name="Rectángulo 423026" width="0.882" height="0.276" transform="translate(9.721 10.375) rotate(-45.859)" fill="#af631f"/>
            <rect id="Rectángulo_423027" data-name="Rectángulo 423027" width="0.882" height="0.276" transform="translate(10.672 10.997) rotate(-45.859)" fill="#af631f"/>
          </g>
        </g>
        <g id="Grupo_1231394" data-name="Grupo 1231394" transform="translate(256.643 272.846)">
          <path id="Trazado_1193368" data-name="Trazado 1193368" d="M453.013,479.01c-2.9,1.127-5.161,2.261-5.056,2.533l.329.847c.106.272,2.541-.421,5.439-1.548s5.161-2.261,5.056-2.533l-.33-.847C458.346,477.19,455.911,477.883,453.013,479.01Z" transform="translate(-447.954 -477.403)" fill="#ff952b"/>
          <path id="Trazado_1193369" data-name="Trazado 1193369" d="M458.326,477.752c.076.2-2.027,1.2-4.7,2.234s-4.9,1.721-4.972,1.527,2.027-1.2,4.7-2.234S458.25,477.556,458.326,477.752Z" transform="translate(-448.241 -477.532)" fill="#ffd14b"/>
          <g id="Grupo_1231393" data-name="Grupo 1231393" transform="translate(0.355 0.419)">
            <rect id="Rectángulo_423028" data-name="Rectángulo 423028" width="0.194" height="0.622" transform="translate(5.036 2.269) rotate(-21.235)" fill="#af631f"/>
            <rect id="Rectángulo_423029" data-name="Rectángulo 423029" width="0.194" height="0.622" transform="translate(4.186 2.627) rotate(-21.253)" fill="#af631f"/>
            <rect id="Rectángulo_423030" data-name="Rectángulo 423030" width="0.194" height="0.622" transform="matrix(0.932, -0.362, 0.362, 0.932, 3.316, 2.9)" fill="#af631f"/>
            <rect id="Rectángulo_423031" data-name="Rectángulo 423031" width="0.194" height="0.622" transform="matrix(0.932, -0.362, 0.362, 0.932, 2.526, 3.171)" fill="#af631f"/>
            <rect id="Rectángulo_423032" data-name="Rectángulo 423032" width="0.194" height="0.622" transform="translate(1.696 3.456) rotate(-21.253)" fill="#af631f"/>
            <rect id="Rectángulo_423033" data-name="Rectángulo 423033" width="0.194" height="0.622" transform="translate(0.796 3.729) rotate(-21.253)" fill="#af631f"/>
            <rect id="Rectángulo_423034" data-name="Rectángulo 423034" width="0.194" height="0.622" transform="matrix(0.932, -0.362, 0.362, 0.932, 0, 3.856)" fill="#af631f"/>
            <rect id="Rectángulo_423035" data-name="Rectángulo 423035" width="0.194" height="0.622" transform="matrix(0.932, -0.362, 0.362, 0.932, 5.86, 1.96)" fill="#af631f"/>
            <rect id="Rectángulo_423036" data-name="Rectángulo 423036" width="0.194" height="0.622" transform="translate(6.697 1.601) rotate(-21.253)" fill="#af631f"/>
            <rect id="Rectángulo_423037" data-name="Rectángulo 423037" width="0.194" height="0.622" transform="translate(7.487 1.253) rotate(-21.253)" fill="#af631f"/>
            <rect id="Rectángulo_423038" data-name="Rectángulo 423038" width="0.194" height="0.622" transform="translate(8.266 0.901) rotate(-21.253)" fill="#af631f"/>
            <rect id="Rectángulo_423039" data-name="Rectángulo 423039" width="0.194" height="0.622" transform="translate(9.108 0.497) rotate(-21.253)" fill="#af631f"/>
            <rect id="Rectángulo_423040" data-name="Rectángulo 423040" width="0.194" height="0.622" transform="translate(9.785 0.07) rotate(-21.253)" fill="#af631f"/>
          </g>
        </g>
        <g id="Grupo_1231395" data-name="Grupo 1231395" transform="translate(39.582)">
          <path id="Trazado_1193370" data-name="Trazado 1193370" d="M95.641,57.14a150.939,150.939,0,0,0-15.25-7.375C86.51,38.534,92.2,26.944,97.65,15.376c5.147,2.106,10.468,4.456,15.615,6.561C107.821,34.074,102.007,45.459,95.641,57.14Z" transform="translate(-80.391 -15.376)" fill="#416c9f"/>
          <path id="Trazado_1193371" data-name="Trazado 1193371" d="M108.094,23.147l-1.9-.808a3.993,3.993,0,0,1-.367,1.111,4.312,4.312,0,0,1-5.7,1.863,3.533,3.533,0,0,1-.428-.231c-2.6,5.434-5.028,10.359-7.345,14.929-1.3,2.565-2.567,5.018-3.82,7.4.124.044.247.093.369.148a4.286,4.286,0,0,1,1.863,5.7,4.16,4.16,0,0,1-.244.419q1.749.819,3.476,1.684a3.918,3.918,0,0,1,.277-.718,4.312,4.312,0,0,1,5.7-1.863,3.521,3.521,0,0,1,.656.387c1.838-3.452,3.554-6.752,5.19-9.977,2.131-4.2,4.118-8.267,6.011-12.292a4.7,4.7,0,0,1-.543-.206,4.286,4.286,0,0,1-1.863-5.7,4.15,4.15,0,0,1,.694-.986Q109.1,23.576,108.094,23.147Zm-4.153,18.059a4.239,4.239,0,1,1-1.863-5.7A4.312,4.312,0,0,1,103.941,41.207Z" transform="translate(-83.726 -18.227)" fill="#1b4681"/>
        </g>
      </g>
      <g id="Grupo_1231417" data-name="Grupo 1231417" transform="translate(0.266 0.266)">
        <g id="Grupo_1231411" data-name="Grupo 1231411" clip-path="url(#clip-path-2)">
          <path id="Trazado_1193372" data-name="Trazado 1193372" d="M185.089,288.9a93.616,93.616,0,1,1,66.2-27.419A93,93,0,0,1,185.089,288.9Zm0-172.488a78.872,78.872,0,1,0,55.771,23.1A78.355,78.355,0,0,0,185.088,116.408Z" transform="translate(-37.725 -41.898)" fill="#122a5b"/>
          <g id="Grupo_1231410" data-name="Grupo 1231410" transform="translate(77.997 72.539)">
            <g id="Grupo_1231401" data-name="Grupo 1231401" transform="translate(23.553 82.834)">
              <g id="Grupo_1231398" data-name="Grupo 1231398" transform="translate(23.122)">
                <path id="Trazado_1193373" data-name="Trazado 1193373" d="M227.964,283.091a3.779,3.779,0,0,0-.038,2.2,29.466,29.466,0,0,0-7.776,3.941,12.465,12.465,0,0,0-4.412,4.866c-.9,2.027-1,4.684.5,6.316a9.536,9.536,0,0,0-3.495,4.378,10.6,10.6,0,0,0-1.011,6.43,5.876,5.876,0,0,0,4.384,4.574,5.885,5.885,0,0,0-.693,5.51c.71,1.8,2.84,2.738,4.736,3.106a76.23,76.23,0,0,0-5.619,27.224c-.137,6.979.686,13.987-.068,20.927a92.016,92.016,0,0,1-2.64,12.127,33.073,33.073,0,0,0,17.525,11.056,35.042,35.042,0,0,0,21.255-1.956,120.913,120.913,0,0,1,22.087-50c2.711-3.6,5.634-7.07,7.89-10.973a15.074,15.074,0,0,0,2.3-6.552,18.582,18.582,0,0,0-.739-5.34q-4.067-16.964-8.526-33.831a9.449,9.449,0,0,0-6.4-7.981c-6.285-3.066-13.012-5.936-19.3-9a11.477,11.477,0,0,0-4.447-5.337,7.874,7.874,0,0,0-6.775-.754,6.025,6.025,0,0,0-3.888,5.385,27.053,27.053,0,0,0-4.763,1.766,8.12,8.12,0,0,0-3.411,3.293,7.078,7.078,0,0,0-.726,3.22,5.936,5.936,0,0,0,.921,3.335A4.569,4.569,0,0,0,227.964,283.091Z" transform="translate(-211.573 -263.561)" fill="#e7ac8d"/>
                <g id="Grupo_1231397" data-name="Grupo 1231397" transform="translate(6.425 7.795)">
                  <path id="Trazado_1193374" data-name="Trazado 1193374" d="M244.535,276.76q-1.3,4.116-2.793,8.165" transform="translate(-230.351 -276.76)" fill="none" stroke="#d3774f" stroke-linecap="round" stroke-linejoin="round" stroke-miterlimit="10" stroke-width="1.5"/>
                  <path id="Trazado_1193375" data-name="Trazado 1193375" d="M227.058,353.343a35.972,35.972,0,0,0-1.078,6.117" transform="translate(-223.897 -308.117)" fill="none" stroke="#d3774f" stroke-linecap="round" stroke-linejoin="round" stroke-miterlimit="10" stroke-width="1.5"/>
                  <path id="Trazado_1193376" data-name="Trazado 1193376" d="M270.284,306.04a8.654,8.654,0,0,0,7.323,2.6,25.862,25.862,0,0,0,5.494,10.737A126.674,126.674,0,0,0,268.948,334.5" transform="translate(-241.491 -288.749)" fill="none" stroke="#d3774f" stroke-linecap="round" stroke-linejoin="round" stroke-miterlimit="10" stroke-width="1.5"/>
                  <path id="Trazado_1193377" data-name="Trazado 1193377" d="M269.1,355.005c5.689-1.31,11.712-2.61,17.27-.825" transform="translate(-241.551 -308.103)" fill="none" stroke="#d3774f" stroke-linecap="round" stroke-linejoin="round" stroke-miterlimit="10" stroke-width="1.5"/>
                  <path id="Trazado_1193378" data-name="Trazado 1193378" d="M279.292,354.484a14.506,14.506,0,0,1,5.621,2.489" transform="translate(-245.726 -308.585)" fill="none" stroke="#d3774f" stroke-linecap="round" stroke-linejoin="round" stroke-miterlimit="10" stroke-width="1.5"/>
                  <path id="Trazado_1193379" data-name="Trazado 1193379" d="M223.646,323.378a23.151,23.151,0,0,1,6.215-1.889" transform="translate(-222.941 -295.075)" fill="none" stroke="#d3774f" stroke-linecap="round" stroke-linejoin="round" stroke-miterlimit="10" stroke-width="1.5"/>
                  <path id="Trazado_1193380" data-name="Trazado 1193380" d="M222.453,348.567a28.539,28.539,0,0,1,4.786-2.209" transform="translate(-222.453 -305.257)" fill="none" stroke="#d3774f" stroke-linecap="round" stroke-linejoin="round" stroke-miterlimit="10" stroke-width="1.5"/>
                </g>
              </g>
              <g id="Grupo_1231400" data-name="Grupo 1231400" transform="translate(0 112.838)">
                <path id="Trazado_1193381" data-name="Trazado 1193381" d="M251.831,466.342l-1.743,8.98s-29.4,6.857-44.245-12.085L208.8,455s24.669-3.379,41.92,10.45Z" transform="translate(-186.105 -454.636)" fill="#fff"/>
                <path id="Trazado_1193382" data-name="Trazado 1193382" d="M190.107,462.958s23.367-2.953,50.149,13.621L236.7,497.944,172.419,495.7Z" transform="translate(-172.419 -457.96)" fill="#1b4681"/>
                <g id="Grupo_1231399" data-name="Grupo 1231399" transform="translate(15.456 8.462)">
                  <path id="Trazado_1193383" data-name="Trazado 1193383" d="M206.958,468.979c-3.433.3-2.973,5.636.466,5.336S210.4,468.679,206.958,468.979Z" transform="translate(-201.053 -468.966)" fill="#ffb22b"/>
                  <path id="Trazado_1193384" data-name="Trazado 1193384" d="M200.947,482.207c-3.433.3-2.973,5.636.466,5.336S204.387,481.906,200.947,482.207Z" transform="translate(-198.591 -474.383)" fill="#ffb22b"/>
                </g>
              </g>
            </g>
            <g id="Grupo_1231407" data-name="Grupo 1231407">
              <path id="Trazado_1193385" data-name="Trazado 1193385" d="M132.536,199.256l27.973-30.976,69.436-7.822,33.069,27.411-29.238,45.9-73.785,6.44Z" transform="translate(-132.536 -138.51)" fill="#ff952b"/>
              <g id="Grupo_1231405" data-name="Grupo 1231405" transform="translate(4.078)">
                <g id="Grupo_1231402" data-name="Grupo 1231402">
                  <path id="Trazado_1193386" data-name="Trazado 1193386" d="M164.886,218.752a414.561,414.561,0,0,0-25.445-38.968c30.316-17.766,60.124-36.992,89.354-56.491,9.132,12.25,18.326,25.321,27.458,37.57C226.24,181.719,196.422,200.278,164.886,218.752Z" transform="translate(-139.441 -123.293)" fill="#507daa"/>
                  <path id="Trazado_1193387" data-name="Trazado 1193387" d="M248.61,154.875q-1.652-2.283-3.331-4.6a11.013,11.013,0,0,1-2.437,2.1c-5.533,3.466-12.463,1.51-16.052-3.687a9.806,9.806,0,0,1-.679-1.15c-13.83,9.1-26.515,17.26-38.444,24.732-6.7,4.195-13.154,8.174-19.474,12,.23.279.451.569.659.87,3.578,5.181,1.475,12.818-3.687,16.052a11.571,11.571,0,0,1-1.169.64q2.955,4.406,5.8,8.891a10.773,10.773,0,0,1,1.669-1.3c5.533-3.466,12.463-1.51,16.052,3.688a9.806,9.806,0,0,1,.994,1.84c9.217-5.52,17.934-10.855,26.354-16.129,10.968-6.87,21.407-13.624,31.565-20.416a12.948,12.948,0,0,1-.988-1.254c-3.578-5.181-1.475-12.818,3.688-16.052a11.4,11.4,0,0,1,3.031-1.336Q250.372,157.31,248.61,154.875ZM213.244,191.5c-5.533,3.466-12.463,1.51-16.052-3.687-3.578-5.181-1.475-12.818,3.688-16.052,5.533-3.466,12.463-1.51,16.052,3.688C220.51,180.627,218.408,188.265,213.244,191.5Z" transform="translate(-149.495 -133.219)" fill="#315a94"/>
                </g>
                <g id="Grupo_1231403" data-name="Grupo 1231403" transform="translate(4.754 21.063)">
                  <path id="Trazado_1193388" data-name="Trazado 1193388" d="M167.344,244.737a414.475,414.475,0,0,0-19.852-42.093c32.469-13.434,64.635-28.383,96.267-43.683,7.363,13.388,14.675,27.6,22.038,40.985C233.2,216.482,201.118,230.77,167.344,244.737Z" transform="translate(-147.492 -158.961)" fill="#416c9f"/>
                  <path id="Trazado_1193389" data-name="Trazado 1193389" d="M259.256,190.371q-1.323-2.488-2.667-5.011a10.983,10.983,0,0,1-2.7,1.741c-5.957,2.673-12.553-.216-15.394-5.858a9.683,9.683,0,0,1-.515-1.233c-14.948,7.114-28.635,13.455-41.477,19.217-7.209,3.235-14.152,6.29-20.938,9.213q.284.462.533.953c2.832,5.623-.3,12.9-5.858,15.394a11.658,11.658,0,0,1-1.246.474q2.322,4.771,4.519,9.6a10.8,10.8,0,0,1,1.831-1.055c5.957-2.673,12.553.216,15.394,5.858a9.758,9.758,0,0,1,.732,1.959c9.887-4.2,19.255-8.289,28.319-12.357,11.808-5.3,23.075-10.555,34.07-15.886a12.981,12.981,0,0,1-.807-1.378c-2.832-5.623.3-12.9,5.858-15.394a11.422,11.422,0,0,1,3.185-.907C261.143,193.918,260.194,192.136,259.256,190.371ZM219.2,221.791c-5.957,2.673-12.553-.216-15.394-5.858-2.832-5.623.3-12.9,5.858-15.394,5.957-2.673,12.553.216,15.394,5.858C227.885,212.02,224.753,219.3,219.2,221.791Z" transform="translate(-156.295 -167.58)" fill="#1b4681"/>
                </g>
                <g id="Grupo_1231404" data-name="Grupo 1231404" transform="translate(4.465 46.772)">
                  <path id="Trazado_1193390" data-name="Trazado 1193390" d="M158.174,271.54A414.553,414.553,0,0,0,147,226.361c34.478-6.775,68.959-15.1,102.985-23.867,4.582,14.576,8.952,29.948,13.534,44.523C228.308,256.809,194.038,264.5,158.174,271.54Z" transform="translate(-147.002 -202.494)" fill="#507daa"/>
                  <path id="Trazado_1193391" data-name="Trazado 1193391" d="M258.779,232.615c-.538-1.8-1.082-3.617-1.628-5.439a10.988,10.988,0,0,1-2.992,1.175c-6.367,1.447-12.264-2.685-13.938-8.775a9.719,9.719,0,0,1-.262-1.31c-16.057,4.03-30.724,7.551-44.45,10.672-7.705,1.752-15.113,3.379-22.343,4.909.125.34.238.686.335,1.039,1.669,6.071-2.834,12.588-8.774,13.938a11.631,11.631,0,0,1-1.315.219q1.337,5.134,2.539,10.3a10.772,10.772,0,0,1,2-.674c6.367-1.447,12.264,2.684,13.939,8.774a9.842,9.842,0,0,1,.332,2.065c10.522-2.172,20.51-4.334,30.2-6.537,12.62-2.869,24.7-5.8,36.532-8.865a13.023,13.023,0,0,1-.52-1.509c-1.669-6.071,2.834-12.588,8.774-13.938a11.405,11.405,0,0,1,3.3-.262C259.93,236.464,259.352,234.53,258.779,232.615Zm-45.464,22.914c-6.367,1.447-12.264-2.685-13.938-8.775-1.669-6.071,2.834-12.588,8.774-13.938,6.367-1.447,12.264,2.685,13.939,8.775C223.759,247.661,219.255,254.179,213.315,255.529Z" transform="translate(-153.721 -208.952)" fill="#315a94"/>
                </g>
              </g>
              <g id="Grupo_1231406" data-name="Grupo 1231406" transform="translate(0 49.358)">
                <path id="Trazado_1193392" data-name="Trazado 1193392" d="M263.013,206.873l1.029,77.992L152.451,296.242l-19.915-77.981,41.137,32.188,59.446-5.188Z" transform="translate(-132.536 -206.873)" fill="#ffb22b"/>
                <path id="Trazado_1193393" data-name="Trazado 1193393" d="M187.481,277.065l-21.222,45.793,111.592-11.377-30.924-39.6Z" transform="translate(-146.344 -233.489)" fill="#f4cdb3"/>
              </g>
            </g>
            <g id="Grupo_1231409" data-name="Grupo 1231409" transform="translate(55.262 82.834)">
              <path id="Trazado_1193394" data-name="Trazado 1193394" d="M251.315,325.29a53.342,53.342,0,0,0-1.188-19.239c-.631-2.8-1.411-5.664-.931-8.491.455-2.679,1.993-5.025,3.154-7.482,2.9-6.139,4.235-13.742,1.534-19.972a11.478,11.478,0,0,0-4.447-5.337,7.874,7.874,0,0,0-6.775-.754,6.025,6.025,0,0,0-3.888,5.385c0,9.355-5.442,17.739-7.192,26.929-.931,4.891-1.483,9.86-2.686,14.692-1.179,4.734-1.325,8.948-2.782,13.389C234.53,324.466,242.916,324.758,251.315,325.29Z" transform="translate(-226.114 -263.561)" fill="#e7ac8d"/>
              <g id="Grupo_1231408" data-name="Grupo 1231408" transform="translate(11.042 23.895)">
                <path id="Trazado_1193395" data-name="Trazado 1193395" d="M248.263,304.024c1.727.087,3.621.244,4.851,1.46" transform="translate(-246.225 -304.024)" fill="none" stroke="#d3774f" stroke-linecap="round" stroke-linejoin="round" stroke-miterlimit="10" stroke-width="1.5"/>
                <path id="Trazado_1193396" data-name="Trazado 1193396" d="M250.069,308.761a6.4,6.4,0,0,1,2.52.968" transform="translate(-246.965 -305.964)" fill="none" stroke="#d3774f" stroke-linecap="round" stroke-linejoin="round" stroke-miterlimit="10" stroke-width="1.5"/>
                <path id="Trazado_1193397" data-name="Trazado 1193397" d="M244.812,349.727a4.383,4.383,0,0,1,3.2.24" transform="translate(-244.812 -322.658)" fill="none" stroke="#d3774f" stroke-linecap="round" stroke-linejoin="round" stroke-miterlimit="10" stroke-width="1.5"/>
              </g>
              <path id="Trazado_1193398" data-name="Trazado 1193398" d="M252.183,272.489c.164-1.378.485-2.988,1.849-3.76a3.346,3.346,0,0,1,2.594-.228,4.847,4.847,0,0,1,2.021,1.339,14.777,14.777,0,0,1,2.725,4.609,5.821,5.821,0,0,1,.644,3.7c-.863,3.411-6.108,4.569-8.884,3.171C250.1,279.789,251.86,275.2,252.183,272.489Z" transform="translate(-236.46 -265.518)" fill="#efc6b4"/>
            </g>
          </g>
          <path id="Trazado_1193399" data-name="Trazado 1193399" d="M148.969,279.7l-10.8-10.722,119.5-119.5,10.8,10.722Z" transform="translate(-56.846 -61.48)" fill="#122a5b"/>
        </g>
        <g id="Grupo_1231416" data-name="Grupo 1231416" clip-path="url(#clip-path-2)">
          <g id="Grupo_1231412" data-name="Grupo 1231412" transform="translate(40.129 221.703)">
            <path id="Trazado_1193400" data-name="Trazado 1193400" d="M141.624,420.809c-.249,2.981-.534,6.076-2.039,8.663a8.165,8.165,0,0,1-3.638,3.319,1.682,1.682,0,0,1-2.1-2.4c2.963-5.016,5.09-10.59,5.007-16.374-.094-6.863-3.914-14.044-10.36-16.412a15.875,15.875,0,0,1-.553,12.333c-.759,1.566-2.292,3.216-3.989,2.536a2.515,2.515,0,0,1-1.476-1.931c-.3-1.763.591-3.263,1.228-4.8a15.686,15.686,0,0,0-11.536-21.568,9.015,9.015,0,0,1-.811,7.346,4.326,4.326,0,0,1-3.127,2.334,2.341,2.341,0,0,1-2.034-.783c-1.275-1.528.164-3.68.464-5.621.4-2.569-1.42-5.053-3.684-6.333s-4.913-1.641-7.463-2.142-5.213-1.284-7.088-3.084c.956,1.866.506,4.158-.342,6.08s-2.058,3.689-2.658,5.7-.45,4.458,1.116,5.855a25.687,25.687,0,0,0,3.122,1.814c1.191.792,2.109,2.489.8,3.624a2.325,2.325,0,0,1-1.369.52c-4.861.338-9.9-4.163-11.865-8.63a17.956,17.956,0,0,0-6.08,8.8,11.877,11.877,0,0,0,1.739,10.332c2.255,2.916,5.892,4.336,9.347,5.63q6.061,2.264,12.127,4.528c1.191.441,2.62,1.2,2.245,2.625a2.057,2.057,0,0,1-1.786,1.467,26.778,26.778,0,0,1-24.7-10.955A20,20,0,0,0,81.293,440.11c5.217,1.978,10.983,1.7,16.561,1.463a5.343,5.343,0,0,1,3.427.624,2.042,2.042,0,0,1,.924,1.716c-.047,1.172-1.172,1.767-2.184,2.17a36.34,36.34,0,0,1-22.454,1.463,28.963,28.963,0,0,0,42.578,7.565c8.189,1.055,17.949-3.717,22.219-10.786A22.146,22.146,0,0,0,141.624,420.809Zm-42.053,2.358a1.885,1.885,0,0,1,1.149-1.767,2.784,2.784,0,0,1,1.626.028,9.09,9.09,0,0,1,2.878,1.284,1.453,1.453,0,0,1,.619.661c.2.553-.249,1.134-.736,1.467C103.415,425.993,99.59,425.928,99.571,423.167Zm11.072,17.747c-.511,1.43-3.436,3.82-5.007,2.639a1.5,1.5,0,0,1-.5-1.645,2.711,2.711,0,0,1,1.317-1.3,16.156,16.156,0,0,1,2.63-1.228,1.484,1.484,0,0,1,1.266-.047A1.32,1.32,0,0,1,110.643,440.914Zm5.461-18.441a1.3,1.3,0,0,1-1.626-1.762,4.426,4.426,0,0,1,.788-1.27q1.132-1.427,2.259-2.85a8.085,8.085,0,0,1,1.388-1.472,2.678,2.678,0,0,1,1.88-.6,2.074,2.074,0,0,1,1.749,2.2,3.6,3.6,0,0,1-1.022,1.87C120.187,420.091,118.12,421.985,116.1,422.473Zm14.142,12.816a2.783,2.783,0,0,1-.656,1.251c-1.42,1.739-4.655,3.282-6.947,2.625a2.219,2.219,0,0,1-1.636-2.578,2.317,2.317,0,0,1,1.181-1.294,7.152,7.152,0,0,1,1.706-.534l4.139-.914a2.146,2.146,0,0,1,1.8.145A1.355,1.355,0,0,1,130.247,435.289Z" transform="translate(-68.412 -375.882)" fill="#7ba8cb"/>
            <path id="Trazado_1193401" data-name="Trazado 1193401" d="M147.313,438.9c-4.6,7.949-14.906,8.22-22.992,8.2a.307.307,0,0,0-.034.007q-1.88-5.424-3.838-10.821a27.251,27.251,0,0,0,17.686-14.726,25.612,25.612,0,0,0,2.055-6.425c.1-.59-.8-.843-.9-.249a26.35,26.35,0,0,1-13.11,18.137,24.67,24.67,0,0,1-6.046,2.378q-1.582-4.34-3.213-8.661-2.185-5.769-4.476-11.5a.491.491,0,0,0,.077-.022,22.727,22.727,0,0,0,11.1-13.706,21.787,21.787,0,0,0,.834-5.092c.027-.6-.911-.6-.938,0A21.73,21.73,0,0,1,112.1,414.386q-3.262-8.167-6.71-16.259-3.439-8.054-7.068-16.024c-.25-.549-1.058-.073-.81.473q6.207,13.641,11.858,27.525a28.562,28.562,0,0,1-18.813-1.971,28.214,28.214,0,0,1-4.716-2.84c-.485-.36-.953.454-.473.81a29.482,29.482,0,0,0,18.8,5.69,28.881,28.881,0,0,0,5.565-.81l.011.026q4.232,10.434,8.144,20.995a39.825,39.825,0,0,1-24.143.358,38.507,38.507,0,0,1-6.512-2.641c-.536-.276-1.01.533-.473.81a40.787,40.787,0,0,0,24.6,4.023,39.186,39.186,0,0,0,6.856-1.67q1.28,3.466,2.526,6.945c.656,1.832,1.293,3.67,1.934,5.506a.482.482,0,0,0-.134.141,21.925,21.925,0,0,1-15.2,9.815,20.754,20.754,0,0,1-5.265.1c-.6-.063-.595.875,0,.938a22.838,22.838,0,0,0,17.779-6.123,21.557,21.557,0,0,0,3.193-3.811q1.712,4.93,3.364,9.881c.189.57,1.095.325.9-.249q-1.328-4-2.707-7.983c6.937.013,14.412-.168,20.084-4.7a14.205,14.205,0,0,0,3.43-3.961A.469.469,0,0,0,147.313,438.9Z" transform="translate(-75.272 -378.33)" fill="#416c9f"/>
          </g>
          <g id="Grupo_1231413" data-name="Grupo 1231413" transform="translate(184.073 216.271)">
            <path id="Trazado_1193402" data-name="Trazado 1193402" d="M314.611,455.238l-2.45-1.568c3.562-6.061,2.879-14.285,2.081-21.27s-2.207-14.064-.942-20.979a6.9,6.9,0,0,1,2.184-4.445,3.042,3.042,0,0,1,3.025-.513c1.575.668,1.871,2.521,1.976,4.127a80.986,80.986,0,0,1-.145,12.421,252.867,252.867,0,0,1,1.561-26.165c.174-1.746.391-3.566,1.58-4.943a3.25,3.25,0,0,1,2.923-1.2c2.119.341,2.837,2.8,3.079,4.851a55.67,55.67,0,0,1,.115,11.953,60.938,60.938,0,0,1,6.89-22.524c.941-1.843,2.046-3.715,4.058-4.547a3.645,3.645,0,0,1,3.164.107c2,1.123,1.955,3.716,1.577,5.839a42.62,42.62,0,0,1-4.315,12.5c3.155-6.386,6.762-12.518,9.918-18.9,1.581-3.2,3.2-6.453,5.632-9.066a13.577,13.577,0,0,1,7.048-4.177,2.95,2.95,0,0,1,3.488,2.216c.54,2.358-.123,5.1-.967,7.469-3.709,10.426-9.8,19.811-15.836,29.086a42.6,42.6,0,0,1,8.44-11.164c1.567-1.491,3.9-2.946,5.724-1.486a2.988,2.988,0,0,1,1.044,1.88c.274,1.753-.531,3.3-1.359,4.747a83.33,83.33,0,0,1-14.275,18.433c2.9-1.332,5.242-3.922,8.3-4.873a4.043,4.043,0,0,1,4.516,1.44c1.612,2.307-.283,5.069-2.144,6.948-6.048,6.1-13.078,11.133-20.07,16.129,2.444-1.749,4.464-2.694,6.214-3.909a9.416,9.416,0,0,1,5.392-1.766,4.6,4.6,0,0,1,3.9,1.519c1.805,2.125.535,4.755-1.375,6.055a14.557,14.557,0,0,1-4.92,1.786A128.941,128.941,0,0,0,314.611,455.238Z" transform="translate(-312.161 -366.684)" fill="#7ba8cb"/>
            <path id="Trazado_1193403" data-name="Trazado 1193403" d="M351.976,438.858a106,106,0,0,1-23.2,8.2c-2.049.464-4.112.856-6.184,1.2q2.9-4.273,5.71-8.6a.517.517,0,0,0,.324-.015,88.749,88.749,0,0,0,21.671-11.5q2.859-2.069,5.545-4.365c.492-.42-.18-1.164-.67-.746a87.783,87.783,0,0,1-20.569,13.1q-2.695,1.227-5.468,2.265,1.9-2.941,3.759-5.907c.009,0,.017,0,.027-.008,10.092-5.254,17.673-14.018,24.172-23.155,2-2.815,3.925-5.685,5.848-8.555.359-.536-.485-1.077-.844-.54-6.351,9.481-12.845,19.152-21.884,26.311a49.453,49.453,0,0,1-6.235,4.211q1.628-2.62,3.229-5.258,9.408-15.553,17.707-31.742,4.656-9.083,8.95-18.345c.271-.582-.689-.875-.958-.3q-7.651,16.482-16.45,32.4-5.386,9.742-11.19,19.246A125.054,125.054,0,0,1,338.024,400q.844-3.927,1.939-7.793c.175-.619-.782-.92-.958-.3a126.248,126.248,0,0,0-4.6,27.975q-.2,4.068-.142,8.142a.507.507,0,0,0,.063.242Q331.9,432.2,329.4,436.1a108.871,108.871,0,0,1-1.716-22.8q.1-3.4.422-6.782c.06-.643-.943-.683-1-.041A110.093,110.093,0,0,0,327.5,430.4q.432,3.427,1.081,6.822a.493.493,0,0,0,.04.1c-.245.38-.485.764-.731,1.143q-2.148,3.316-4.353,6.6a71.875,71.875,0,0,1-4.395-26.389.5.5,0,0,0-1-.041,72.856,72.856,0,0,0,2.732,21.482c.564,1.987,1.217,3.947,1.945,5.88a.525.525,0,0,0,.041.083q-3.15,4.678-6.4,9.289c-.372.527.473,1.067.844.54q2.3-3.263,4.545-6.566a.51.51,0,0,0,.244.022,107.089,107.089,0,0,0,23.834-6.68q3.3-1.353,6.5-2.925A.5.5,0,0,0,351.976,438.858Z" transform="translate(-313.885 -370.001)" fill="#416c9f"/>
          </g>
          <g id="Grupo_1231414" data-name="Grupo 1231414" transform="translate(-13.029 18.624)">
            <path id="Trazado_1193404" data-name="Trazado 1193404" d="M-12.4,33.155-9.731,32C-6.689,38.334.517,42.357,6.759,45.591s12.9,6.016,17.935,10.924a7.725,7.725,0,0,1,2.366,3.594,3.24,3.24,0,0,1-1.551,3.706c-1.344.58-2.868-.138-4.134-.875A80.938,80.938,0,0,1,11.148,55.89,252.8,252.8,0,0,1,31.991,71.784a10.092,10.092,0,0,1,2.925,3.269,3.54,3.54,0,0,1-.544,4.088c-1.48,1.3-3.789.555-5.543-.347a55.687,55.687,0,0,1-9.983-6.575A60.949,60.949,0,0,1,33.693,90.5a10.41,10.41,0,0,1,1.616,4.7,4.01,4.01,0,0,1-2.459,3.977c-1.892.593-3.8-.775-5.227-2.153a42.612,42.612,0,0,1-7.969-10.558c3.539,6.182,6.615,12.6,10.154,18.778,1.775,3.1,3.571,6.254,4.381,9.732s.506,7.389-1.64,10.243c-3.428.251-6.225-2.611-8.269-5.375-6.583-8.9-10.972-19.187-15.3-29.371a42.615,42.615,0,0,1,4.555,13.233c.336,1.976.279,4.482-1.505,5.393a3.4,3.4,0,0,1-3.591-.628,9.255,9.255,0,0,1-2.187-3.146A83.315,83.315,0,0,1-1.083,83.2c-.4,2.476.03,5.1-.21,7.592s-2.1,5.24-4.59,4.935c-2.465-.3-3.584-3.2-4.073-5.631-1.692-8.425-1.942-17.065-2.186-25.655.088,3-.255,5.208-.223,7.338a9.207,9.207,0,0,1-1.42,5.24c-1.028,1.866-3.357,3.19-5.328,2.385A4.588,4.588,0,0,1-21.6,75.1a14.561,14.561,0,0,1,1.264-5.08A128.923,128.923,0,0,0-12.4,33.155Z" transform="translate(21.603 -31.997)" fill="#7ba8cb"/>
            <path id="Trazado_1193405" data-name="Trazado 1193405" d="M-12.708,75.63A106.005,106.005,0,0,1-6.564,51.8c.758-1.959,1.584-3.89,2.455-5.8q1.93,4.787,3.951,9.537a.52.52,0,0,0-.169.277,88.748,88.748,0,0,0-2.546,24.4q.122,3.527.529,7.036a.5.5,0,0,0,.993-.141A87.775,87.775,0,0,1-.74,62.739c.324-1.947.719-3.881,1.172-5.8q1.381,3.217,2.8,6.416c0,.01-.007.016-.008.026C1.957,74.685,5,85.867,8.956,96.358c1.219,3.232,2.528,6.43,3.837,9.626a.5.5,0,0,0,.919-.4C9.389,95.025,4.987,84.239,4.089,72.744a49.53,49.53,0,0,1-.015-7.523q1.266,2.813,2.561,5.613,7.657,16.485,16.461,32.4,4.94,8.932,10.231,17.663c.332.549,1.111-.084.781-.63Q24.7,104.727,16.4,88.543q-5.08-9.906-9.729-20.025A125.051,125.051,0,0,1,27.325,85.731q2.788,2.891,5.385,5.957c.416.491,1.2-.135.781-.629A126.261,126.261,0,0,0,12.843,71.632q-3.262-2.439-6.678-4.661a.5.5,0,0,0-.236-.082q-1.916-4.208-3.752-8.453a108.864,108.864,0,0,1,19.878,11.3q2.761,1.982,5.393,4.134c.5.408,1.093-.4.593-.808A110.156,110.156,0,0,0,7.969,60.041q-3.085-1.554-6.264-2.909a.452.452,0,0,0-.1-.021c-.179-.415-.363-.829-.541-1.244q-1.553-3.634-3.044-7.293A71.881,71.881,0,0,1,22.368,59.651c.526.371,1.122-.436.593-.808A72.846,72.846,0,0,0,3.61,49.123q-2.945-.961-5.964-1.667a.528.528,0,0,0-.092-.012q-2.126-5.223-4.14-10.491c-.23-.6-1.149-.2-.919.4q1.424,3.731,2.913,7.436a.5.5,0,0,0-.155.19A107.088,107.088,0,0,0-12.5,68.483q-.718,3.492-1.2,7.027A.5.5,0,0,0-12.708,75.63Z" transform="translate(18.371 -33.904)" fill="#416c9f"/>
          </g>
          <g id="Grupo_1231415" data-name="Grupo 1231415" transform="translate(235.846 65.243)">
            <path id="Trazado_1193406" data-name="Trazado 1193406" d="M462.866,166.537l-1.9,2.371c-3.2-2.892-8.764-3.322-12.991-2.448s-8.122,2.873-12.171,4.369-8.516,2.494-12.66,1.286a7.691,7.691,0,0,1-5.174-4.108,4.782,4.782,0,0,1-.265-3.064c.826-3.159,4.532-4.027,7.587-3.709,3.253.339,6.53,1.559,9.7.26a2.758,2.758,0,0,0,1.745-2.306c.154-2.19-2.595-3.087-4.719-3.125-9.251-.167-19.053,3.6-27.321-1.067a6.607,6.607,0,0,1-2.913-3.178c-1.434-3.485,1.355-5.89,4.173-6.334a15.575,15.575,0,0,1,5.933.609l12.8,3.013a1.275,1.275,0,0,0,1.134-2.2,36.309,36.309,0,0,0-8.152-5.056c-4.169-2.014-8.531-3.8-12.085-6.766-4.088-3.413-7.028-8.826-5.211-14.118a8,8,0,0,1,6.63-5.5c3.73-.378,6.105,2.192,8.26,4.617l16.044,18.053a6.241,6.241,0,0,0,3.3,2.37,2.321,2.321,0,0,0,2.37-.846c.989-1.411-.262-3.207-1.434-4.422l-6.829-7.077c-2.343-2.428-4.767-4.994-5.7-8.238-1.138-3.98.835-9.253,5.778-8.98a7.1,7.1,0,0,1,3.5,1.209c2.459,1.627,3.878,4.251,5.158,6.838a140.169,140.169,0,0,1,9.342,24.37,3.368,3.368,0,0,0,1.974,2.269c2.18.843,3.423-1.274,3.2-3.007a9.558,9.558,0,0,0-1.633-3.615,36.746,36.746,0,0,1-4.777-12.684c-.4-2.293-.582-4.71.553-6.853a5.065,5.065,0,0,1,1.692-1.891c2.741-1.775,5.733.007,7.592,2.193,5.212,6.131,4.928,15.08,4.2,23.094S458.168,160,462.866,166.537Z" transform="translate(-399.831 -110.939)" fill="#7ba8cb"/>
            <path id="Trazado_1193407" data-name="Trazado 1193407" d="M453.6,130.84a38.562,38.562,0,0,1,3.706,25.823,36.942,36.942,0,0,1-2.182,6.975q-5.215-3.963-10.4-7.965a.45.45,0,0,0,.009-.051,42.689,42.689,0,0,0-7.288-27.07,41.442,41.442,0,0,0-5.212-6.221c-.455-.448-1.053.348-.6.792a41.611,41.611,0,0,1,11.945,24.525,40.068,40.068,0,0,1,.2,7.293c-.546-.422-1.092-.842-1.638-1.265q-10.785-8.367-21.427-16.916-6-4.818-11.95-9.693c-.5-.406-1.1.387-.6.792q10.561,8.649,21.265,17.12,5.145,4.07,10.323,8.1a37.2,37.2,0,0,1-22.072,2.987,35.935,35.935,0,0,1-6.344-1.7c-.6-.221-.973.7-.37.924a38.183,38.183,0,0,0,23.23.923,36.758,36.758,0,0,0,6.352-2.4.474.474,0,0,0,.071-.054q5.165,4.014,10.363,7.986l.892.679a27.712,27.712,0,0,1-18.522,8.539,26.453,26.453,0,0,1-5.973-.351c-.631-.109-.751.879-.12.988a28.71,28.71,0,0,0,20.794-4.606,27.593,27.593,0,0,0,4.613-3.967q5.279,4.022,10.587,8a.5.5,0,0,0,.6-.792q-3.962-2.968-7.9-5.967l0,0a39.516,39.516,0,0,0,1.528-26.583,37.638,37.638,0,0,0-2.957-7.212C454.217,129.9,453.295,130.276,453.6,130.84Z" transform="translate(-403.163 -115.549)" fill="#416c9f"/>
          </g>
        </g>
      </g>
    </g>
  </g>
</svg>
