<svg xmlns="http://www.w3.org/2000/svg" xmlns:xlink="http://www.w3.org/1999/xlink" width="103" height="103" viewBox="0 0 103 103">
  <defs>
    <filter id="Trazado_978624" x="0" y="0" width="103" height="103" filterUnits="userSpaceOnUse">
      <feOffset dy="3" input="SourceAlpha"/>
      <feGaussianBlur stdDeviation="3" result="blur"/>
      <feFlood flood-opacity="0.161"/>
      <feComposite operator="in" in2="blur"/>
      <feComposite in="SourceGraphic"/>
    </filter>
  </defs>
  <g id="Grupo_1231489" data-name="Grupo 1231489" transform="translate(-203 -7424)">
    <g id="Grupo_1230210" data-name="Grupo 1230210" transform="translate(0 -618.017)">
      <g id="Grupo_1229456" data-name="Grupo 1229456" transform="translate(212 8048.017)">
        <g id="Grupo_1226902" data-name="Grupo 1226902" transform="translate(0)">
          <g id="Grupo_1226078" data-name="Grupo 1226078">
            <g id="Grupo_1224953" data-name="Grupo 1224953">
              <g id="Grupo_1222589" data-name="Grupo 1222589">
                <g id="Grupo_1203109" data-name="Grupo 1203109">
                  <g id="Grupo_1176881" data-name="Grupo 1176881">
                    <g id="Grupo_1175148" data-name="Grupo 1175148">
                      <g id="Grupo_1173798" data-name="Grupo 1173798">
                        <g id="Grupo_1171925" data-name="Grupo 1171925">
                          <g id="Grupo_1164524" data-name="Grupo 1164524">
                            <g id="Grupo_1144123" data-name="Grupo 1144123">
                              <g transform="matrix(1, 0, 0, 1, -9, -6)" filter="url(#Trazado_978624)">
                                <g id="Trazado_978624-2" data-name="Trazado 978624" transform="translate(9 6)" fill="#fcf5f0">
                                  <path d="M 42.5 83.50006866455078 C 36.96437835693359 83.50006866455078 31.59512901306152 82.41624450683594 26.54141235351562 80.27870178222656 C 21.65934181213379 78.2137451171875 17.27447128295898 75.25728607177734 13.50862312316895 71.49143218994141 C 9.742764472961426 67.72557067871094 6.786305904388428 63.34071350097656 4.721364498138428 58.4586296081543 C 2.583823442459106 53.40491104125977 1.5 48.03566741943359 1.5 42.50003051757812 C 1.5 36.96439361572266 2.583823442459106 31.59514808654785 4.721364498138428 26.54143142700195 C 6.786305904388428 21.65935897827148 9.742764472961426 17.27448844909668 13.50862312316895 13.50863075256348 C 17.27447128295898 9.742783546447754 21.65934181213379 6.786324501037598 26.54141235351562 4.721371650695801 C 31.59512901306152 2.583830595016479 36.96437835693359 1.500007033348083 42.5 1.500007033348083 C 48.03562164306641 1.500007033348083 53.40486907958984 2.583830595016479 58.45858764648438 4.721371650695801 C 63.34066009521484 6.786324501037598 67.72553253173828 9.742783546447754 71.49137878417969 13.50863075256348 C 75.25723266601562 17.27448844909668 78.21369171142578 21.65935897827148 80.27863311767578 26.54143142700195 C 82.41617584228516 31.59514808654785 83.5 36.96439361572266 83.5 42.50003051757812 C 83.5 48.03566741943359 82.41617584228516 53.40491104125977 80.27863311767578 58.4586296081543 C 78.21369171142578 63.34071350097656 75.25723266601562 67.72557067871094 71.49137878417969 71.49143218994141 C 67.72553253173828 75.25728607177734 63.34066009521484 78.2137451171875 58.45858764648438 80.27870178222656 C 53.40486907958984 82.41624450683594 48.03562164306641 83.50006866455078 42.5 83.50006866455078 Z" stroke="none"/>
                                  <path d="M 42.5 3.000007629394531 C 37.16621398925781 3.000007629394531 31.99356079101562 4.043960571289062 27.125732421875 6.102882385253906 C 22.42246627807617 8.092201232910156 18.19786834716797 10.94071197509766 14.56928253173828 14.56929779052734 C 10.94070434570312 18.19786834716797 8.092185974121094 22.4224853515625 6.102882385253906 27.12575149536133 C 4.043960571289062 31.99359130859375 3 37.16624450683594 3 42.50003051757812 C 3 47.83381652832031 4.043960571289062 53.0064697265625 6.102882385253906 57.87431335449219 C 8.092185974121094 62.57757568359375 10.94070434570312 66.80219268798828 14.56928253173828 70.43076324462891 C 18.19786834716797 74.05934906005859 22.42246627807617 76.90785980224609 27.125732421875 78.89717864990234 C 31.99356079101562 80.95610046386719 37.16621398925781 82.00006103515625 42.5 82.00006103515625 C 47.83378601074219 82.00006103515625 53.00642395019531 80.95610046386719 57.87425231933594 78.89717864990234 C 62.57753372192383 76.90785980224609 66.80213165283203 74.05934906005859 70.43071746826172 70.43076324462891 C 74.05929565429688 66.80219268798828 76.90781402587891 62.57757568359375 78.89711761474609 57.87431335449219 C 80.95603942871094 53.0064697265625 82 47.83381652832031 82 42.50003051757812 C 82 37.16624450683594 80.95603942871094 31.99359130859375 78.89711761474609 27.12575149536133 C 76.90781402587891 22.4224853515625 74.05929565429688 18.19786834716797 70.43071746826172 14.56929779052734 C 66.80213165283203 10.94071197509766 62.57753372192383 8.092201232910156 57.87425231933594 6.102882385253906 C 53.00642395019531 4.043960571289062 47.83378601074219 3.000007629394531 42.5 3.000007629394531 M 42.5 7.62939453125e-06 C 65.97209167480469 7.62939453125e-06 85 19.02790832519531 85 42.50003051757812 C 85 65.97215270996094 65.97209167480469 85.00005340576172 42.5 85.00005340576172 C 19.02789306640625 85.00005340576172 0 65.97215270996094 0 42.50003051757812 C 0 19.02790832519531 19.02789306640625 7.62939453125e-06 42.5 7.62939453125e-06 Z" stroke="none" fill="#eca675"/>
                                </g>
                              </g>
                            </g>
                          </g>
                        </g>
                      </g>
                    </g>
                  </g>
                </g>
              </g>
            </g>
          </g>
        </g>
      </g>
    </g>
    <g id="inmuebles" transform="translate(227.229 7441)">
      <g id="Grupo_1231487" data-name="Grupo 1231487" transform="translate(0.88 0.88)">
        <g id="Grupo_1231463" data-name="Grupo 1231463" transform="translate(0 35.253)">
          <path id="Trazado_1193504" data-name="Trazado 1193504" d="M44.948,340.031c-1.676.259-3.442.466-5.278.6-1.706.129-3.471.2-5.278.2s-3.573-.069-5.278-.2c-1.836-.137-3.6-.344-5.278-.6-1.885-.294-3.654-.655-5.278-1.068a38.793,38.793,0,0,1-5.278-1.714C9.964,335.873,8,334.3,8,332.915s1.964-2.958,5.278-4.335v1.7H33.512v1.759H49.347v-1.759h6.158v-1.7c3.314,1.377,5.278,2.948,5.278,4.335s-1.964,2.958-5.278,4.334a38.793,38.793,0,0,1-5.278,1.714C48.6,339.375,46.833,339.737,44.948,340.031Z" transform="translate(-8 -328.58)" fill="#ffeaa7"/>
        </g>
        <g id="Grupo_1231464" data-name="Grupo 1231464" transform="translate(3.519 15.835)">
          <path id="Trazado_1193505" data-name="Trazado 1193505" d="M80.467,152l5.278,10.557H77.4l-4.78-4.249a4.072,4.072,0,0,0-5.412,0l-4.78,4.249H40L45.278,152h9.677v1.759H70.79V152Z" transform="translate(-40 -152)" fill="#ff826e"/>
        </g>
        <g id="Grupo_1231465" data-name="Grupo 1231465" transform="translate(15.835)">
          <path id="Trazado_1193506" data-name="Trazado 1193506" d="M170.476,18.32a1.764,1.764,0,0,1-.289-.208L168.708,16.8l-5.781-5.139a.556.556,0,0,0-.737,0L156.409,16.8l-1.479,1.315a1.76,1.76,0,0,1-2.484-.146,1.761,1.761,0,0,1,.146-2.484l7.26-6.453a4.074,4.074,0,0,1,5.413,0l7.26,6.453a1.759,1.759,0,0,1-2.049,2.838Z" transform="translate(-152.002 -8)" fill="#fc6e51"/>
        </g>
        <g id="Grupo_1231466" data-name="Grupo 1231466" transform="translate(20.242 3.519)">
          <path id="Trazado_1193507" data-name="Trazado 1193507" d="M204.379,45.278h-12.3l5.781-5.139a.556.556,0,0,1,.737,0Z" transform="translate(-192.08 -40)" fill="#ff826e"/>
        </g>
        <g id="Grupo_1231467" data-name="Grupo 1231467" transform="translate(18.474 8.797)">
          <path id="Trazado_1193508" data-name="Trazado 1193508" d="M191.546,89.315,190.067,88h-12.3l-1.479,1.315a1.763,1.763,0,0,1-.289.208V96.8h15.835V89.523A1.763,1.763,0,0,1,191.546,89.315Z" transform="translate(-176 -88)" fill="#e6e9ed"/>
        </g>
        <g id="Grupo_1231468" data-name="Grupo 1231468" transform="translate(23.753 12.316)">
          <path id="Trazado_1193509" data-name="Trazado 1193509" d="M224,120h5.278v5.278H224Z" transform="translate(-224 -120)" fill="#aab2bd"/>
        </g>
        <g id="Grupo_1231469" data-name="Grupo 1231469" transform="translate(40.916 26.392)">
          <path id="Trazado_1193510" data-name="Trazado 1193510" d="M386.669,256.861v1.7h-6.158v-5.515a1.759,1.759,0,0,0,2.049-2.838l-2.48-2.2h6.589Z" transform="translate(-380.08 -248)" fill="#ccd1d9"/>
        </g>
        <g id="Grupo_1231470" data-name="Grupo 1231470" transform="translate(5.278 26.392)">
          <path id="Trazado_1193511" data-name="Trazado 1193511" d="M74.039,252.688a1.761,1.761,0,0,1,.146-2.484l2.48-2.2H56v10.557H76.234v-5.515a1.758,1.758,0,0,1-2.195-.354Z" transform="translate(-56 -248)" fill="#ccd1d9"/>
        </g>
        <g id="Grupo_1231471" data-name="Grupo 1231471" transform="translate(15.835 29.911)">
          <path id="Trazado_1193512" data-name="Trazado 1193512" d="M152,280h3.519v7.038H152Z" transform="translate(-152 -280)" fill="#69d6f4"/>
        </g>
        <g id="Grupo_1231472" data-name="Grupo 1231472" transform="translate(8.797 29.911)">
          <path id="Trazado_1193513" data-name="Trazado 1193513" d="M88,280h3.519v7.038H88Z" transform="translate(-88 -280)" fill="#69d6f4"/>
        </g>
        <g id="Grupo_1231473" data-name="Grupo 1231473" transform="translate(22.873 21.113)">
          <path id="Trazado_1193514" data-name="Trazado 1193514" d="M218.641,210.32a1.759,1.759,0,0,1-2.049-2.838l2.48-2.2,4.78-4.249a4.074,4.074,0,0,1,5.413,0l4.78,4.249,2.48,2.2a1.76,1.76,0,0,1-2.338,2.63l-1.479-1.315-5.781-5.139a.556.556,0,0,0-.737,0l-5.781,5.139-1.479,1.315A1.764,1.764,0,0,1,218.641,210.32Z" transform="translate(-216.002 -200)" fill="#fc6e51"/>
        </g>
        <g id="Grupo_1231474" data-name="Grupo 1231474" transform="translate(27.28 24.632)">
          <path id="Trazado_1193515" data-name="Trazado 1193515" d="M268.379,237.278h-12.3l5.781-5.139a.556.556,0,0,1,.737,0Z" transform="translate(-256.08 -232)" fill="#ff826e"/>
        </g>
        <g id="Grupo_1231475" data-name="Grupo 1231475" transform="translate(25.512 29.911)">
          <path id="Trazado_1193516" data-name="Trazado 1193516" d="M255.546,281.315,254.067,280h-12.3l-1.479,1.315a1.763,1.763,0,0,1-.289.208V288.8h15.835v-7.274A1.764,1.764,0,0,1,255.546,281.315Z" transform="translate(-240 -280)" fill="#e6e9ed"/>
        </g>
        <g id="Grupo_1231476" data-name="Grupo 1231476" transform="translate(30.79 33.43)">
          <path id="Trazado_1193517" data-name="Trazado 1193517" d="M288,312h5.278v5.278H288Z" transform="translate(-288 -312)" fill="#aab2bd"/>
        </g>
        <g id="Grupo_1231477" data-name="Grupo 1231477" transform="translate(47.505 39.588)">
          <path id="Trazado_1193518" data-name="Trazado 1193518" d="M445.278,368v5.278c0,1.387-1.964,2.958-5.278,4.334v-5.278C443.314,370.958,445.278,369.387,445.278,368Z" transform="translate(-440 -368)" fill="#ffc729"/>
        </g>
        <g id="Grupo_1231478" data-name="Grupo 1231478" transform="translate(36.948 45.636)">
          <path id="Trazado_1193519" data-name="Trazado 1193519" d="M349.278,423v5.278c-1.624.412-3.394.774-5.278,1.068h0v-5.277C345.885,423.774,347.654,423.412,349.278,423Z" transform="translate(-344 -423)" fill="#ffc729"/>
        </g>
        <g id="Grupo_1231479" data-name="Grupo 1231479" transform="translate(26.392 47.307)">
          <path id="Trazado_1193520" data-name="Trazado 1193520" d="M253.278,438.2v5.278c-1.706.129-3.471.2-5.278.2V438.4C249.808,438.4,251.573,438.329,253.278,438.2Z" transform="translate(-248 -438.2)" fill="#ffc729"/>
        </g>
        <g id="Grupo_1231480" data-name="Grupo 1231480" transform="translate(15.835 46.704)">
          <path id="Trazado_1193521" data-name="Trazado 1193521" d="M157.278,433.314v5.278c-1.836-.137-3.6-.344-5.278-.6h0V432.71C153.676,432.97,155.442,433.176,157.278,433.314Z" transform="translate(-152 -432.71)" fill="#ffc729"/>
        </g>
        <g id="Grupo_1231481" data-name="Grupo 1231481" transform="translate(5.278 43.921)">
          <path id="Trazado_1193522" data-name="Trazado 1193522" d="M61.278,409.124V414.4A38.8,38.8,0,0,1,56,412.688v-5.277h0A38.789,38.789,0,0,0,61.278,409.124Z" transform="translate(-56 -407.41)" fill="#ffc729"/>
        </g>
        <g id="Grupo_1231482" data-name="Grupo 1231482" transform="translate(42.227 43.921)">
          <path id="Trazado_1193523" data-name="Trazado 1193523" d="M397.278,407.41v5.278A38.794,38.794,0,0,1,392,414.4v-5.278A38.794,38.794,0,0,0,397.278,407.41Z" transform="translate(-392 -407.41)" fill="#fcd770"/>
        </g>
        <g id="Grupo_1231483" data-name="Grupo 1231483" transform="translate(31.67 46.704)">
          <path id="Trazado_1193524" data-name="Trazado 1193524" d="M301.278,437.987h0c-1.676.259-3.442.466-5.278.6v-5.278c1.836-.137,3.6-.344,5.278-.6Z" transform="translate(-296 -432.71)" fill="#fcd770"/>
        </g>
        <g id="Grupo_1231484" data-name="Grupo 1231484" transform="translate(21.113 47.307)">
          <path id="Trazado_1193525" data-name="Trazado 1193525" d="M205.278,438.4v5.278c-1.808,0-3.573-.069-5.278-.2V438.2C201.706,438.329,203.471,438.4,205.278,438.4Z" transform="translate(-200 -438.2)" fill="#fcd770"/>
        </g>
        <g id="Grupo_1231485" data-name="Grupo 1231485" transform="translate(10.557 45.636)">
          <path id="Trazado_1193526" data-name="Trazado 1193526" d="M109.278,429.345h0c-1.885-.294-3.654-.655-5.278-1.068V423c1.624.412,3.394.774,5.278,1.068Z" transform="translate(-104 -423)" fill="#fcd770"/>
        </g>
        <g id="Grupo_1231486" data-name="Grupo 1231486" transform="translate(0 39.588)">
          <path id="Trazado_1193527" data-name="Trazado 1193527" d="M13.278,372.335v5.277C9.964,376.236,8,374.665,8,373.278V368c0,1.387,1.964,2.958,5.278,4.334Z" transform="translate(-8 -368)" fill="#fcd770"/>
        </g>
      </g>
      <g id="Grupo_1231488" data-name="Grupo 1231488" transform="translate(0 0)">
        <path id="Trazado_1193528" data-name="Trazado 1193528" d="M49.265,35.553v-7.4h2.3L45.41,15.835H36.069V12.316A2.639,2.639,0,0,0,37.822,7.7l-7.26-6.453a4.953,4.953,0,0,0-6.582,0L16.721,7.7a2.639,2.639,0,0,0,1.753,4.612v3.519H9.133L2.975,28.151h2.3v7.4C2.753,36.666,0,38.363,0,40.467v5.278c0,2.921,5.224,5.057,8.337,6.071a63.1,63.1,0,0,0,18.934,2.727,63.1,63.1,0,0,0,18.934-2.727c3.114-1.013,8.337-3.15,8.337-6.071V40.467c0-2.1-2.753-3.8-5.278-4.915Zm-13.2,3.155H32.55V35.189h3.519ZM30.79,33.43v5.278H27.271v-5.95l1.223-1.087H40.124l1.223,1.087v5.951H37.828V33.43Zm-6.157-2.691a.873.873,0,0,1,.294-.606l7.26-6.453a3.194,3.194,0,0,1,4.244,0l7.26,6.453a.874.874,0,0,1,.294.606.863.863,0,0,1-.221.636.88.88,0,0,1-1.242.073l-7.26-6.454a1.434,1.434,0,0,0-1.905,0L26.1,31.448a.88.88,0,0,1-1.242-.073.863.863,0,0,1-.221-.636Zm13.511-.828h-7.67L34.309,26.5Zm4.962,3.519a2.639,2.639,0,0,0,1.753-4.612l-.75-.667h3.4v8.8h-4.4ZM29.031,17.595H25.512V14.076h3.519Zm-5.278-5.278v5.278H20.234v-5.95l1.223-1.087H33.086l1.223,1.087v5.951H30.79V12.316ZM23.436,8.8l3.835-3.409L31.107,8.8Zm-5.62,1.464a.862.862,0,0,1-.221-.636.873.873,0,0,1,.294-.606l7.26-6.453a3.194,3.194,0,0,1,4.244,0l7.26,6.453a.874.874,0,0,1,.294.606.863.863,0,0,1-.221.636.88.88,0,0,1-1.242.073l-7.26-6.454a1.434,1.434,0,0,0-1.905,0l-7.26,6.454a.879.879,0,0,1-1.242-.073Zm-7.6,7.333h8.253v1.759H36.069V17.595h8.254l4.4,8.8h-6.59L37.6,22.365a4.953,4.953,0,0,0-6.582,0l-4.531,4.027H5.822ZM24.509,28.151l-.75.667a2.639,2.639,0,0,0,1.753,4.612v3.519h-4.4V29.911H15.835v7.038H14.076V29.911H8.8v7.038H7.038v-8.8H24.509Zm-5.155,8.8H17.594V31.67h1.759Zm-7.038,0H10.557V31.67h1.759Zm-7.038.543v1.217H25.512v1.759H43.107V38.708h6.158V37.491c2.419,1.173,3.519,2.305,3.519,2.976,0,.5-.63,1.23-1.687,1.943a22.519,22.519,0,0,1-5.436,2.455,61.3,61.3,0,0,1-18.39,2.64,61.3,61.3,0,0,1-18.39-2.64A22.524,22.524,0,0,1,3.446,42.41C2.39,41.7,1.759,40.971,1.759,40.467c0-.671,1.1-1.8,3.519-2.976ZM15.835,48.335v3.5c-1.208-.209-2.384-.45-3.519-.723V47.636c1.138.264,2.314.5,3.519.7Zm1.759.269c1.154.16,2.329.293,3.519.4v3.513c-1.192-.105-2.367-.241-3.519-.406Zm5.278.525c1.165.071,2.34.114,3.519.129v3.519c-1.18-.015-2.355-.059-3.519-.132Zm5.278.129c1.179-.014,2.354-.057,3.519-.129v3.516c-1.164.073-2.339.117-3.519.132ZM33.43,49c1.19-.1,2.365-.235,3.519-.4v3.5c-1.152.165-2.327.3-3.519.406Zm5.278-.665c1.205-.2,2.381-.435,3.519-.7v3.471c-1.135.273-2.311.515-3.519.723ZM1.759,45.746V43.358a16.013,16.013,0,0,0,3.519,2.024v3.34a14.855,14.855,0,0,1-1.832-1.034C2.39,46.976,1.759,46.249,1.759,45.746Zm5.278,3.739v-3.4c.458.168.9.318,1.3.449q1.076.35,2.219.658v3.454q-.857-.241-1.675-.506Q7.909,49.827,7.038,49.485Zm38.623.658q-.817.266-1.675.506V47.2q1.141-.308,2.219-.658c.4-.131.842-.281,1.3-.449v3.4Q46.635,49.825,45.661,50.143ZM51.1,47.688a14.864,14.864,0,0,1-1.832,1.034v-3.34a16.013,16.013,0,0,0,3.519-2.024v2.387C52.783,46.249,52.153,46.976,51.1,47.688Z" transform="translate(0 0)"/>
        <path id="Trazado_1193529" data-name="Trazado 1193529" d="M66.556,367.173a62.25,62.25,0,0,0,16.215-2.063,25.428,25.428,0,0,0,6.2-2.461l-.906-1.509a23.83,23.83,0,0,1-5.77,2.275,63.014,63.014,0,0,1-31.485,0,23.831,23.831,0,0,1-5.77-2.275l-.906,1.509a25.43,25.43,0,0,0,6.2,2.461,62.254,62.254,0,0,0,16.215,2.063Z" transform="translate(-39.284 -321.427)"/>
      </g>
    </g>
  </g>
</svg>
