<svg xmlns="http://www.w3.org/2000/svg" xmlns:xlink="http://www.w3.org/1999/xlink" width="108" height="108" viewBox="0 0 108 108">
  <defs>
    <filter id="Trazado_904820" x="0" y="0" width="108" height="108" filterUnits="userSpaceOnUse">
      <feOffset dy="3" input="SourceAlpha"/>
      <feGaussianBlur stdDeviation="3" result="blur"/>
      <feFlood flood-opacity="0.161"/>
      <feComposite operator="in" in2="blur"/>
      <feComposite in="SourceGraphic"/>
    </filter>
  </defs>
  <g id="Grupo_1231503" data-name="Grupo 1231503" transform="translate(-200.087 -518)">
    <g id="Grupo_1230212" data-name="Grupo 1230212" transform="translate(209.087 524)">
      <g id="Grupo_1223797" data-name="Grupo 1223797" transform="translate(0 0)">
        <g id="Grupo_1223164" data-name="Grupo 1223164">
          <g id="Grupo_1203639" data-name="Grupo 1203639">
            <g id="Grupo_1202437" data-name="Grupo 1202437">
              <g id="Grupo_1177315" data-name="Grupo 1177315">
                <g id="Grupo_1173585" data-name="Grupo 1173585" transform="translate(0)">
                  <g id="Grupo_1173428" data-name="Grupo 1173428">
                    <g id="Grupo_1171958" data-name="Grupo 1171958">
                      <g id="Grupo_1167341" data-name="Grupo 1167341">
                        <g id="Grupo_1166792" data-name="Grupo 1166792">
                          <g transform="matrix(1, 0, 0, 1, -9, -6)" filter="url(#Trazado_904820)">
                            <g id="Trazado_904820-2" data-name="Trazado 904820" transform="translate(9 6)" fill="#f7f5f3">
                              <path d="M 44.99999618530273 88.49999237060547 C 39.12687301635742 88.49999237060547 33.43022155761719 87.35006713867188 28.06829643249512 85.08216857910156 C 22.88852119445801 82.89130401611328 18.23629570007324 79.75457763671875 14.24084663391113 75.75914001464844 C 10.24540901184082 71.76369476318359 7.108683586120605 67.11146545410156 4.917821407318115 61.93169403076172 C 2.649921178817749 56.56976699829102 1.499996185302734 50.87311553955078 1.499996185302734 44.99999237060547 C 1.499996185302734 39.12686920166016 2.649921178817749 33.43021774291992 4.917821407318115 28.06829261779785 C 7.108683586120605 22.88851737976074 10.24540901184082 18.23630523681641 14.24084663391113 14.24085521697998 C 18.23629570007324 10.24540519714355 22.88852119445801 7.108692169189453 28.06829643249512 4.917829990386963 C 33.43022155761719 2.649929761886597 39.12687301635742 1.500004887580872 44.99999618530273 1.500004887580872 C 50.87311935424805 1.500004887580872 56.56977081298828 2.649929761886597 61.93169784545898 4.917829990386963 C 67.11147308349609 7.108692169189453 71.76369476318359 10.24540519714355 75.75914764404297 14.24085521697998 C 79.75458526611328 18.23630523681641 82.89131164550781 22.88851737976074 85.08216857910156 28.06829261779785 C 87.35007476806641 33.43021774291992 88.5 39.12686920166016 88.5 44.99999237060547 C 88.5 50.87311553955078 87.35007476806641 56.56976699829102 85.08216857910156 61.93169403076172 C 82.89131164550781 67.11146545410156 79.75458526611328 71.76369476318359 75.75914764404297 75.75914001464844 C 71.76369476318359 79.75457763671875 67.11147308349609 82.89130401611328 61.93169784545898 85.08216857910156 C 56.56977081298828 87.35006713867188 50.87311935424805 88.49999237060547 44.99999618530273 88.49999237060547 Z" stroke="none"/>
                              <path d="M 44.99999618530273 2.999992370605469 C 39.32870864868164 2.999992370605469 33.82865142822266 4.11004638671875 28.65262603759766 6.299331665039062 C 23.65165710449219 8.414566040039062 19.15968322753906 11.44333648681641 15.301513671875 15.30150604248047 C 11.44333648681641 19.15967559814453 8.414566040039062 23.65164947509766 6.299339294433594 28.65262222290039 C 4.110054016113281 33.82864761352539 2.999992370605469 39.32870483398438 2.999992370605469 44.99999237060547 C 2.999992370605469 50.67127990722656 4.110054016113281 56.17132186889648 6.299339294433594 61.34736633300781 C 8.414566040039062 66.34833526611328 11.44333648681641 70.84029388427734 15.301513671875 74.69846343994141 C 19.15968322753906 78.55663299560547 23.65165710449219 81.58540344238281 28.65262603759766 83.70063781738281 C 33.82865142822266 85.88992309570312 39.32870864868164 86.99997711181641 44.99999618530273 86.99997711181641 C 50.67128372192383 86.99997711181641 56.17134094238281 85.88992309570312 61.34736633300781 83.70063781738281 C 66.34834289550781 81.58540344238281 70.84030914306641 78.55663299560547 74.69847869873047 74.69846343994141 C 78.55665588378906 70.84029388427734 81.58542633056641 66.34833526611328 83.70065307617188 61.34736633300781 C 85.88993835449219 56.17132186889648 87 50.67127990722656 87 44.99999237060547 C 87 39.32870483398438 85.88993835449219 33.82864761352539 83.70065307617188 28.65262222290039 C 81.58542633056641 23.65164947509766 78.55665588378906 19.15967559814453 74.69847869873047 15.30150604248047 C 70.84030914306641 11.44333648681641 66.34834289550781 8.414566040039062 61.34736633300781 6.299331665039062 C 56.17134094238281 4.11004638671875 50.67128372192383 2.999992370605469 44.99999618530273 2.999992370605469 M 44.99999618530273 -7.62939453125e-06 C 69.85281372070312 -7.62939453125e-06 90 20.14717864990234 90 44.99999237060547 C 90 69.85279083251953 69.85281372070312 89.99997711181641 44.99999618530273 89.99997711181641 C 20.14717864990234 89.99997711181641 -7.62939453125e-06 69.85279083251953 -7.62939453125e-06 44.99999237060547 C -7.62939453125e-06 20.14717864990234 20.14717864990234 -7.62939453125e-06 44.99999618530273 -7.62939453125e-06 Z" stroke="none" fill="#665b4e"/>
                            </g>
                          </g>
                        </g>
                      </g>
                    </g>
                  </g>
                </g>
              </g>
            </g>
          </g>
        </g>
      </g>
    </g>
    <g id="extorsion" transform="translate(184.415 538.848)">
      <g id="Grupo_1231498" data-name="Grupo 1231498" transform="translate(68.463 22.492)">
        <path id="Trazado_1193638" data-name="Trazado 1193638" d="M307.888,423.69h13.871V428.6H307.888Z" transform="translate(-301.275 -394.75)" fill="#dff6fd"/>
        <path id="Trazado_1193639" data-name="Trazado 1193639" d="M299.012,464.1h13.871V469h-15.1v-3.678A1.226,1.226,0,0,1,299.012,464.1Z" transform="translate(-292.399 -430.251)" fill="#528fd8"/>
        <path id="Trazado_1193640" data-name="Trazado 1193640" d="M389.827,464.1h3.924V469h-3.924Z" transform="translate(-373.267 -430.251)" fill="#0573ce"/>
        <path id="Trazado_1193641" data-name="Trazado 1193641" d="M389.827,423.69h3.924V428.6h-3.924Z" transform="translate(-373.267 -394.75)" fill="#c8effe"/>
        <path id="Trazado_1193642" data-name="Trazado 1193642" d="M272.026,190.2a1.962,1.962,0,0,0-2.057,1.96v-2.4a2,2,0,0,0-1.867-2.015,1.962,1.962,0,0,0-2.057,1.96v-2.4a2,2,0,0,0-1.867-2.015,1.962,1.962,0,0,0-2.057,1.96V189.7a1.962,1.962,0,0,0-2.057-1.96,2,2,0,0,0-1.867,2.015v12.212l-1.156-1.874a1.962,1.962,0,1,0-3.339,2.061l5.882,9.532a2.943,2.943,0,0,1,.438,1.546v.992h13.871V192.212A2,2,0,0,0,272.026,190.2Z" transform="translate(-253.409 -185.29)" fill="#fed2a4"/>
        <path id="Trazado_1193643" data-name="Trazado 1193643" d="M391.884,225.7a1.962,1.962,0,0,0-2.057,1.96v22.072h3.924V227.715A2,2,0,0,0,391.884,225.7Z" transform="translate(-373.267 -220.792)" fill="#ffbd86"/>
      </g>
      <g id="Grupo_1231499" data-name="Grupo 1231499" transform="translate(43.82 0.91)">
        <path id="Trazado_1193644" data-name="Trazado 1193644" d="M50.41,47.9H64.281v4.905H50.41Z" transform="translate(-50.41 -42.999)" fill="#dff6fd"/>
        <path id="Trazado_1193645" data-name="Trazado 1193645" d="M64.281,12.4H50.41V7.5h15.1v3.678A1.226,1.226,0,0,1,64.281,12.4Z" transform="translate(-50.41 -7.5)" fill="#99e6fc"/>
        <path id="Trazado_1193646" data-name="Trazado 1193646" d="M133.574,7.5v3.678a1.226,1.226,0,0,1-1.226,1.226h3.924a1.226,1.226,0,0,0,1.226-1.226V7.5Z" transform="translate(-122.401 -7.5)" fill="#62dbfb"/>
        <path id="Trazado_1193647" data-name="Trazado 1193647" d="M132.349,47.9h3.924v4.905h-3.924Z" transform="translate(-122.402 -42.999)" fill="#c8effe"/>
        <path id="Trazado_1193648" data-name="Trazado 1193648" d="M52.277,112.342a1.962,1.962,0,0,0,2.057-1.96v2.4a2,2,0,0,0,1.867,2.015,1.962,1.962,0,0,0,2.057-1.96v2.4a2,2,0,0,0,1.867,2.015,1.962,1.962,0,0,0,2.057-1.96v-2.452a1.962,1.962,0,0,0,2.057,1.96,2,2,0,0,0,1.867-2.015V100.568l1.156,1.874A1.962,1.962,0,1,0,70.6,100.38l-5.882-9.532A2.942,2.942,0,0,1,64.28,89.3V88.31H50.41v22.017a2,2,0,0,0,1.867,2.015Z" transform="translate(-50.41 -78.5)" fill="#fed2a4"/>
        <path id="Trazado_1193649" data-name="Trazado 1193649" d="M142.594,100.38l-5.882-9.532a2.943,2.943,0,0,1-.438-1.546V88.31h-3.924V89.3a2.944,2.944,0,0,0,.438,1.546l5.882,9.532a1.956,1.956,0,0,1,.236,1.5l.349.565a1.962,1.962,0,1,0,3.339-2.061Z" transform="translate(-122.402 -78.5)" fill="#ffbd86"/>
      </g>
      <path id="Trazado_1193650" data-name="Trazado 1193650" d="M246.131,186H221.606a2.452,2.452,0,0,1-2.452-2.452V172.753a2.452,2.452,0,0,1,2.452-2.452h24.525a2.452,2.452,0,0,1,2.452,2.452v10.791A2.453,2.453,0,0,1,246.131,186Z" transform="translate(-154.85 -149.628)" fill="#bbec6c"/>
      <path id="Trazado_1193651" data-name="Trazado 1193651" d="M414.764,170.3h-3.679a2.452,2.452,0,0,1,2.452,2.452v10.791A2.452,2.452,0,0,1,411.085,186h3.679a2.452,2.452,0,0,0,2.452-2.452V172.752A2.453,2.453,0,0,0,414.764,170.3Z" transform="translate(-323.482 -149.627)" fill="#a2e62e"/>
      <g id="Grupo_1231500" data-name="Grupo 1231500" transform="translate(61.634 0.91)">
        <path id="Trazado_1193652" data-name="Trazado 1193652" d="M208.077,7.5a7.848,7.848,0,0,0-7.494,4.973l-2.864,1.842a1.226,1.226,0,0,0,0,2.063l2.864,1.841A7.848,7.848,0,1,0,208.077,7.5Z" transform="translate(-197.155 -7.5)" fill="#fd8087"/>
        <path id="Trazado_1193653" data-name="Trazado 1193653" d="M253.8,33.717a7.8,7.8,0,0,0-2.028-4.885c0,.077,0,.154,0,.231A10.669,10.669,0,0,1,241.1,39.732c-.207,0-.412-.007-.616-.018a7.845,7.845,0,0,0,13.31-6Z" transform="translate(-235.226 -26.243)" fill="#fe646f"/>
      </g>
      <g id="Grupo_1231501" data-name="Grupo 1231501" transform="translate(52.663 45.546)">
        <path id="Trazado_1193654" data-name="Trazado 1193654" d="M141.273,382.015l-2.864-1.841a7.848,7.848,0,1,0,0,5.746l2.864-1.842A1.226,1.226,0,0,0,141.273,382.015Z" transform="translate(-123.258 -375.198)" fill="#ffe177"/>
        <path id="Trazado_1193655" data-name="Trazado 1193655" d="M163.571,395.925l-2.864-1.841a7.87,7.87,0,0,0-2.161-3.053,10.672,10.672,0,0,1-9.909,12.16,7.847,7.847,0,0,0,12.07-3.36l2.864-1.841A1.226,1.226,0,0,0,163.571,395.925Z" transform="translate(-145.555 -389.108)" fill="#ffd15b"/>
      </g>
      <g id="Grupo_1231502" data-name="Grupo 1231502" transform="translate(42.91 0)">
        <path id="Trazado_1193656" data-name="Trazado 1193656" d="M321.785,204.794a.91.91,0,0,0,.91-.91v-.148a2.607,2.607,0,0,0,1.655-2.012,2.347,2.347,0,0,0-1.592-2.658l-.063-.023v-.75a.91.91,0,0,0,.931-1.534,4.039,4.039,0,0,0-.876-.557l-.055-.024v-.143a.91.91,0,1,0-1.821,0v.012a2.029,2.029,0,0,0-.268.12,2.344,2.344,0,0,0-1.277,1.9,2,2,0,0,0,.871,1.779,5.439,5.439,0,0,0,.674.4v1.672c-.062-.034-.128-.076-.2-.125a.91.91,0,0,0-1,1.524,3.2,3.2,0,0,0,1.2.519v.045A.911.911,0,0,0,321.785,204.794Z" transform="translate(-285.715 -171.439)"/>
        <path id="Trazado_1193657" data-name="Trazado 1193657" d="M388.955,243.613a.91.91,0,0,0-.91.91v1.052H384.3a.91.91,0,0,0,0,1.821h4.66a.91.91,0,0,0,.91-.91v-1.962A.91.91,0,0,0,388.955,243.613Z" transform="translate(-342.054 -214.041)"/>
        <path id="Trazado_1193658" data-name="Trazado 1193658" d="M389.866,196.033a.91.91,0,0,0-.91-.91H384.3a.91.91,0,0,0,0,1.821h3.749V198a.91.91,0,1,0,1.821,0Z" transform="translate(-342.054 -171.437)"/>
        <path id="Trazado_1193659" data-name="Trazado 1193659" d="M244.247,243.613a.91.91,0,0,0-.91.91v1.962a.91.91,0,0,0,.91.91h4.66a.91.91,0,1,0,0-1.821h-3.749v-1.052A.91.91,0,0,0,244.247,243.613Z" transform="translate(-219.007 -214.041)"/>
        <path id="Trazado_1193660" data-name="Trazado 1193660" d="M248.908,195.123h-4.66a.91.91,0,0,0-.91.91V198a.91.91,0,1,0,1.821,0v-1.052h3.749a.91.91,0,1,0,0-1.821Z" transform="translate(-219.008 -171.437)"/>
        <path id="Trazado_1193661" data-name="Trazado 1193661" d="M93.734,27.364a.91.91,0,0,0,.91-.91V23.125a3.367,3.367,0,0,0-3.363-3.363H66.757a3.36,3.36,0,0,0-2.7,1.363L58.9,12.78a2.031,2.031,0,0,1-.3-1.068V6.519a2.137,2.137,0,0,0,1.226-1.93V.91a.91.91,0,0,0-1.821,0V4.589a.316.316,0,0,1-.316.316H44.731V.91a.91.91,0,1,0-1.821,0V15.345a.91.91,0,1,0,1.821,0V11.631H56.78v.082a3.85,3.85,0,0,0,.575,2.024l5.881,9.53a1.051,1.051,0,1,1-1.789,1.105L60.292,22.5a.91.91,0,0,0-1.685.478V35.19a1.093,1.093,0,0,1-1,1.105,1.051,1.051,0,0,1-1.1-1.05s0,0,0-.007V26.393a.91.91,0,1,0-1.821,0V37.7a1.053,1.053,0,0,1-1.1,1.05,1.092,1.092,0,0,1-1-1.105V26.393a.91.91,0,1,0-1.821,0v8.852s0,0,0,0a1.052,1.052,0,0,1-1.1,1.047,1.092,1.092,0,0,1-1-1.105v-8.8a.91.91,0,1,0-1.821,0v6.4a.035.035,0,0,0,0,0,1.052,1.052,0,0,1-1.1,1.047,1.092,1.092,0,0,1-1-1.105v-13.1a.91.91,0,0,0-1.821,0v13.1a2.9,2.9,0,0,0,2.734,2.924,2.865,2.865,0,0,0,1.2-.2,2.872,2.872,0,0,0,3.924,2.452,2.89,2.89,0,0,0,2.722,2.652q.07,0,.139,0a2.849,2.849,0,0,0,1.982-.795,2.887,2.887,0,0,0,.881-1.858,2.877,2.877,0,0,0,3.932-2.727V25.96a2.9,2.9,0,0,0,2.966.533v7.423a3.367,3.367,0,0,0,3.363,3.363h1a2.926,2.926,0,0,0-.12.368,2.852,2.852,0,0,0,.345,2.193l5.882,9.532a2.032,2.032,0,0,1,.3,1.068v5.193a2.137,2.137,0,0,0-1.227,1.93v3.679a.91.91,0,0,0,1.821,0V57.563a.316.316,0,0,1,.314-.316h3.453a.91.91,0,0,0,0-1.821h-2.54V52.343h12.05v3.084H82.818a.91.91,0,0,0,0,1.821h5.218v3.995a.91.91,0,0,0,1.821,0V37.279h1.425a3.367,3.367,0,0,0,3.363-3.363V30.745a.91.91,0,0,0-1.821,0v3.171a1.544,1.544,0,0,1-1.542,1.542H66.757a1.544,1.544,0,0,1-1.542-1.542V23.125a1.544,1.544,0,0,1,1.542-1.542H91.282a1.544,1.544,0,0,1,1.542,1.542v3.328a.91.91,0,0,0,.91.91Zm-49-17.554V6.726h12.05V9.81ZM88.036,50.522H75.986V50.44a3.851,3.851,0,0,0-.574-2.024L69.53,38.884a1.052,1.052,0,0,1,.357-1.456,1.056,1.056,0,0,1,1.432.352l2.008,3.254a3.1,3.1,0,0,0,1.484,1.253l2.163.875a3,3,0,0,1,1.774,2.023.91.91,0,1,0,1.763-.456,4.832,4.832,0,0,0-2.853-3.255L75.494,40.6a1.289,1.289,0,0,1-.617-.521l-.716-1.16V37.279H88.036V50.522Z" transform="translate(-42.91 0)"/>
        <path id="Trazado_1193662" data-name="Trazado 1193662" d="M190.636,10.557l2.625,1.687A8.758,8.758,0,1,0,201.509,0a8.8,8.8,0,0,0-8.248,5.271l-2.625,1.687a2.137,2.137,0,0,0,0,3.595Zm.985-2.063,2.864-1.841a.91.91,0,0,0,.355-.432,6.967,6.967,0,0,1,6.461-4.4l.164,0a6.937,6.937,0,0,1,4.849,11.725A6.937,6.937,0,0,1,194.84,11.3a.911.911,0,0,0-.355-.432l-2.865-1.842a.316.316,0,0,1,0-.531Z" transform="translate(-171.842 -0.001)"/>
        <path id="Trazado_1193663" data-name="Trazado 1193663" d="M252.795,81.438a4.83,4.83,0,0,0,4.453-2.953.91.91,0,0,0-1.677-.71,3.014,3.014,0,0,1-5.554,0,.91.91,0,0,0-1.677.71A4.83,4.83,0,0,0,252.795,81.438Z" transform="translate(-223.34 -67.845)"/>
        <path id="Trazado_1193664" data-name="Trazado 1193664" d="M293.139,38.888a.907.907,0,0,0,.583-.212l1.08-.9a.91.91,0,1,0-1.167-1.4l-1.08.9a.91.91,0,0,0,.584,1.609Z" transform="translate(-261.963 -31.774)"/>
        <path id="Trazado_1193665" data-name="Trazado 1193665" d="M255.3,37.775l1.081.9a.91.91,0,0,0,1.168-1.4l-1.081-.9a.91.91,0,0,0-1.168,1.4Z" transform="translate(-229.231 -31.776)"/>
        <path id="Trazado_1193666" data-name="Trazado 1193666" d="M135.174,374.661l-2.625-1.687a8.758,8.758,0,0,0-16.784,3.069,8.759,8.759,0,0,0,16.784,3.9l2.625-1.687a2.137,2.137,0,0,0,0-3.595Zm-.985,2.063-2.864,1.842a.911.911,0,0,0-.355.432,6.938,6.938,0,1,1-6.626-9.475l.164,0a6.967,6.967,0,0,1,6.461,4.4.91.91,0,0,0,.355.432l2.864,1.842a.316.316,0,0,1,0,.531Z" transform="translate(-106.913 -323.064)"/>
        <path id="Trazado_1193667" data-name="Trazado 1193667" d="M163.083,444.92a3.641,3.641,0,0,0-3.358,2.226.91.91,0,0,0,1.677.71,1.824,1.824,0,0,1,3.362,0,.91.91,0,0,0,1.677-.71,3.641,3.641,0,0,0-3.358-2.226Z" transform="translate(-145.481 -390.911)"/>
        <path id="Trazado_1193668" data-name="Trazado 1193668" d="M158.24,406.588a.907.907,0,0,0,.583-.212l1.08-.9a.91.91,0,1,0-1.167-1.4l-1.081.9a.91.91,0,0,0,.584,1.609Z" transform="translate(-143.44 -354.839)"/>
        <path id="Trazado_1193669" data-name="Trazado 1193669" d="M197.16,404.978l-1.08-.9a.91.91,0,0,0-1.167,1.4l1.081.9a.91.91,0,1,0,1.167-1.4Z" transform="translate(-176.173 -354.839)"/>
      </g>
    </g>
  </g>
</svg>
