<svg xmlns="http://www.w3.org/2000/svg" xmlns:xlink="http://www.w3.org/1999/xlink" width="295" height="343" viewBox="0 0 295 343">
  <defs>
    <clipPath id="clip-path">
      <rect id="Rectángulo_423061" data-name="Rectángulo 423061" width="295" height="343" transform="translate(1125 8052)" fill="#fff" stroke="#707070" stroke-width="1"/>
    </clipPath>
    <linearGradient id="linear-gradient" x1="0.925" y1="2.08" x2="0.032" y2="1.947" gradientUnits="objectBoundingBox">
      <stop offset="0" stop-color="#202633"/>
      <stop offset="1" stop-color="#38404e"/>
    </linearGradient>
  </defs>
  <g id="Enmascarar_grupo_1225076" data-name="Enmascarar grupo 1225076" transform="translate(-1125 -8052)" clip-path="url(#clip-path)">
    <g id="_370340001_85bccf2b-1638-4df1-8b55-64734ef969ba" data-name="370340001_85bccf2b-1638-4df1-8b55-64734ef969ba" transform="translate(1119.013 8011.46)">
      <g id="background" transform="translate(-1.085 195.215)">
        <rect id="Rectángulo_423062" data-name="Rectángulo 423062" width="301.686" height="188.325" transform="translate(0 0)" fill="#92706a"/>
        <rect id="Rectángulo_423063" data-name="Rectángulo 423063" width="301.686" height="18.833" transform="translate(0 165.042)" fill="#815956"/>
        <rect id="Rectángulo_423064" data-name="Rectángulo 423064" width="301.686" height="3.695" transform="translate(0 172.379)" fill="#794c4d"/>
        <rect id="Rectángulo_423065" data-name="Rectángulo 423065" width="302.072" height="0.583" transform="translate(0 176.396)" fill="#6e3638"/>
        <path id="Trazado_1193530" data-name="Trazado 1193530" d="M300.606,1513.819H-1.08v-2.966H300.606Z" transform="translate(1.081 -1507.796)" fill="#815956"/>
        <rect id="Rectángulo_423066" data-name="Rectángulo 423066" width="301.686" height="7.461" transform="translate(0 13.301)" fill="#794c4d"/>
        <rect id="Rectángulo_423067" data-name="Rectángulo 423067" width="301.686" height="3.586" transform="translate(0 17.226)" fill="#815956"/>
        <rect id="Rectángulo_423068" data-name="Rectángulo 423068" width="294.128" height="128.235" transform="translate(2.583 30.743)" fill="#815956"/>
        <rect id="Rectángulo_423069" data-name="Rectángulo 423069" width="286.01" height="124.292" transform="translate(6.333 34.687)" fill="#a68b87"/>
        <path id="Trazado_1193531" data-name="Trazado 1193531" d="M357.093,1921.992H78.053q-.027-60.771-.054-121.542l279.317.561Q357.2,1861.5,357.093,1921.992Z" transform="translate(-68.61 -1763.014)" fill="#815956"/>
        <rect id="Rectángulo_423070" data-name="Rectángulo 423070" width="263.034" height="112.898" transform="translate(17.959 46.081)" fill="#92706a"/>
      </g>
      <g id="judge" transform="translate(-19.763 45.147)">
        <path id="chair_1_" d="M737.3,1404.613s.352-60.778,4.476-76.485a29.972,29.972,0,0,1,5.346-11.108c6.036-7.678,16-12.571,47.144-14.988,4.208-.327,12.8-.919,46.731-.689,0,0,20.164.137,48.958,3,12.365,1.231,24.819,2.84,31.348,12.074a23.492,23.492,0,0,1,3.546,8.184c7.6,29.279,7.2,64.556,6.916,79.654-.063,3.35-.174,8.566-.37,15l-194.1-1.015v-13.634Z" transform="translate(-661.651 -1173.044)" fill="#495c6e"/>
        <g id="neck_1_" transform="translate(142.379 105.701)">
          <path id="Trazado_1193532" data-name="Trazado 1193532" d="M1346.964,1111.37a37.362,37.362,0,0,0-1.7,8.266c-.247,2.791-1.2,13.587,4.727,20.035a25.4,25.4,0,0,0,4.06,3.43,22.9,22.9,0,0,0,5.846,2.772l-6.241,14.051a73,73,0,0,1-48.057-.33l-6.169-14.01a16.9,16.9,0,0,0,9.04-5.2c1.951-2.25,2.375-4.9,2.569-13.9.081-3.764.115-8.318.015-13.508a25.566,25.566,0,0,0,16.811,6.86C1338.994,1119.994,1345.923,1112.531,1346.964,1111.37Z" transform="translate(-1299.432 -1111.37)" fill="#e6b08c"/>
          <path id="Trazado_1193533" data-name="Trazado 1193533" d="M1414.584,1119.464a26.625,26.625,0,0,0,18.554-8.09,41.794,41.794,0,0,0-1.8,15.471,29.091,29.091,0,0,1-34.128-.359l.015-13.507A26.4,26.4,0,0,0,1414.584,1119.464Z" transform="translate(-1385.606 -1111.374)" fill="#d88e6f"/>
          <path id="Trazado_1193534" data-name="Trazado 1193534" d="M1433.252,1111.37c-.648.918-6.873,9.417-18.069,9.666-10.582.235-17.015-7.089-17.84-8.061a25.566,25.566,0,0,0,16.81,6.86C1425.282,1119.994,1432.211,1112.531,1433.252,1111.37Z" transform="translate(-1385.72 -1111.37)" fill="#ca675a"/>
        </g>
        <g id="hair_1_" transform="translate(123.993)">
          <path id="Trazado_1193535" data-name="Trazado 1193535" d="M1708.186,863.475q-.012,8.008-.023,16.015c.02,5.479.087,12.12-.455,18.641a54.49,54.49,0,0,1-4.111,17.923,51.071,51.071,0,0,1-6.3,10.924,20.281,20.281,0,0,1-7.6-4.722c-10.393-10.375-4.437-28.608-4.182-29.353a30.682,30.682,0,0,0,9.646-15.6c.429-1.891.605-4.357,1.6-6.025Z" transform="translate(-1619.597 -787.202)" fill="#252b37"/>
          <path id="Trazado_1193536" data-name="Trazado 1193536" d="M1751.345,865.187l2.225-3.039q-.022,8.086-.044,16.173c.02,5.479.087,12.12-.455,18.641a54.49,54.49,0,0,1-4.111,17.923,51.079,51.079,0,0,1-6.3,10.924l-7.6-4.722a18.47,18.47,0,0,0,2.4-2.334c7.22-7.584,9.74-15.947,11.4-21.66A82.47,82.47,0,0,0,1751.345,865.187Z" transform="translate(-1664.961 -786.033)" fill="#303947"/>
          <path id="Trazado_1193537" data-name="Trazado 1193537" d="M1162.827,861.756a15.06,15.06,0,0,0,6.708,6.291,14.457,14.457,0,0,0,5.071,1.29c2.113,6.906,3.138,13.237,8.367,18.708,1.5,1.565,3.49,2.788,4.9,4.355.06,3.729.089,8.517,0,14.1-.141,8.449-.424,10.523-1.7,12.648-.9,1.5-3.757,5.477-11.976,6.951a70.723,70.723,0,0,1-11.286-21.622A73.3,73.3,0,0,1,1162.827,861.756Z" transform="translate(-1157.876 -785.687)" fill="url(#linear-gradient)"/>
          <path id="Trazado_1193538" data-name="Trazado 1193538" d="M1208.706,1174.3a45.671,45.671,0,0,1-7.028-8.484,43.1,43.1,0,0,1-6.6-17.671c-.019-.21-.282-3.184-.283-3.191h0a54.3,54.3,0,0,0,5.789,16.284,66.069,66.069,0,0,0,5.293,7.623c1.578,2.019,3,3.649,4.079,4.827Z" transform="translate(-1188.828 -1035.27)" fill="#252b37"/>
          <path id="Trazado_1193539" data-name="Trazado 1193539" d="M1147.618,285.195a46.606,46.606,0,0,1-3.057-15.071c-.139-9.971,5.234-21.06,11.166-28.918a89.671,89.671,0,0,1,7.65-8.58c3.857-3.931,13.724-12.135,26.977-11.625a33.525,33.525,0,0,1,19.23,7.44,26.771,26.771,0,0,1,12.559,5.245c8.422,6.616,10.041,17.021,11.546,26.7a77.311,77.311,0,0,1,.121,22.7,6.574,6.574,0,0,0-4.94-.333c-2.917,1.2-3.671,5.1-4.336,4.928s.279-4.138.124-6.971c-.323-5.911-1.313-11.07-5-15.893-5.007-6.551-10.9-9.415-13.3-18.252a76.846,76.846,0,0,1-50.143,36.249c-.178,1.848-.758,2.445-1.212,2.667-1.319.647-2.887-1.213-5.516-.885A5.5,5.5,0,0,0,1147.618,285.195Z" transform="translate(-1144.559 -220.978)" fill="#303947"/>
          <path id="Trazado_1193540" data-name="Trazado 1193540" d="M1608.635,309.53c.155-.226,1.824.33,3.091,1.529,2.39,2.26,2.436,5.94,2.143,6.028-.219.066-.521-1.921-2.395-4.4C1609.952,310.668,1608.478,309.759,1608.635,309.53Z" transform="translate(-1553.533 -298.974)" fill="#252b37"/>
          <path id="Trazado_1193541" data-name="Trazado 1193541" d="M1694.69,347.866c4.328.833,7.277,3.946,7.128,4.19-.134.218-2.692-1.971-6.991-2.826-5.209-1.037-9.147.646-9.213.364C1685.543,349.3,1689.846,346.934,1694.69,347.866Z" transform="translate(-1621.382 -332.612)" fill="#252b37"/>
          <path id="Trazado_1193542" data-name="Trazado 1193542" d="M1684.848,424.864c.261-.239,4.305,3.512,7.883,7.772,2.519,3,5.007,6.488,4.774,6.683-.267.223-4.058-3.878-6.1-6.178C1688.7,430.09,1684.565,425.123,1684.848,424.864Z" transform="translate(-1620.696 -400.65)" fill="#252b37"/>
          <path id="Trazado_1193543" data-name="Trazado 1193543" d="M1489.692,415.206a14.125,14.125,0,0,1-.535,2.525c-2.09,6.751-8.923,10.4-12.933,12.54-2.283,1.219-4.619,2.2-4.713,2.032-.128-.236,4.081-2.386,7.85-5.305A42.394,42.394,0,0,0,1489.692,415.206Z" transform="translate(-1432.696 -392.149)" fill="#252b37"/>
        </g>
        <g id="mantle_1_" transform="translate(59.959 139.914)">
          <path id="Trazado_1193544" data-name="Trazado 1193544" d="M687.578,1399.57l6.169,14.01,24,53.937,30.3-67.657c9.27,2.775,16.489,4.833,21.056,6.118,0,0,2.257.635,6.353,2.123,10.382,3.773,14.048,5.239,17.388,7.248a22.791,22.791,0,0,1,4.739,3.511,23.974,23.974,0,0,1,4.75,7.513c10.1,26.174,24.448,121.069,24.448,121.069.929,6.144,2.46,15.679,4.744,27.394l-226.363-.255,4.075-27.822,13.84-75.459,5.2-24.539c1.292-6.214,2.337-12.632,4.6-18.585a27.268,27.268,0,0,1,2.671-5.271,31.32,31.32,0,0,1,5.2-5.876c4.1-3.5,9.656-5.131,19.245-8.242,3.4-1.1,10.4-3.453,24.405-8.151Z" transform="translate(-605.159 -1399.57)" fill="#303947"/>
          <path id="Trazado_1193545" data-name="Trazado 1193545" d="M1804.566,2808.3c.034,0,.068-.008.1-.008a32.775,32.775,0,0,1,20.634,7.6l-4.36.022-.915-.953a25.442,25.442,0,0,0-16.328-5.839c-1.755-.045-3.5.1-5.257-.007l-.176-.222C1800.083,2808.268,1802.626,2808.418,1804.566,2808.3Z" transform="translate(-1656.63 -2641.063)" fill="#252b37"/>
          <path id="Trazado_1193546" data-name="Trazado 1193546" d="M2210.36,1688.08c.721,1.186.564,5.18.68,6.747.948,12.736,2.975,25.365,3.752,38.116a120.025,120.025,0,0,1,.151,14.876l-.03.008-.182-.215c-.3-5.865-1.563-11.763-2.142-17.621-.712-7.2-1.62-14.458-2-21.676-.154-2.949,0-5.919-.024-8.873C2210.539,1695.654,2210.356,1691.867,2210.36,1688.08Z" transform="translate(-2019.802 -1653.83)" fill="#252b37"/>
          <path id="Trazado_1193547" data-name="Trazado 1193547" d="M2128.989,1925.57q1.732,42.069,3.463,84.138l-5.344.154Q2128.048,1967.717,2128.989,1925.57Z" transform="translate(-1946.433 -1863.127)" fill="#252b37"/>
          <path id="Trazado_1193548" data-name="Trazado 1193548" d="M1638.038,1626.424l10.73-36.1a195.5,195.5,0,0,1-4.125,23.077c-1.288,5.333-2.729,10.316-4.24,14.932l-4.775-.363q-.113,38.781-.226,77.562l-1.814.173q.088-38.777.177-77.553l-15.943.273q-.394,48.874-.788,97.749a132.7,132.7,0,0,1,22.369-8.032c9.1-2.363,13.753-2.474,18.213-1.547a33.863,33.863,0,0,1,7.878,2.805c2.328,1.074,8.387,4.221,9.3,6.7a54.267,54.267,0,0,0-6.659-3.468,52.68,52.68,0,0,0-11.275-3.516c-3.636-.638-7.977-.634-23.278,4.122-5.066,1.575-11.607,3.756-19.168,6.676.371-11.878.3-23.793.386-35.677l.1-21.267c.018-2.59.2-5.182.183-7.77-.025-4.789-.265-9.577-.294-14.366-.047-7.721.228-15.452.176-23.18-6.169.027-12.37.243-18.535.014l.052,72.3.14,22.092c0,2.734.388,8.629-.443,10.976l-.829-.387c-.657-1.508-.321-17.353-.314-20.429q0-42.28,0-84.561l-11.983.113.551-1.191q14.594.062,29.189.014Q1625.413,1626.546,1638.038,1626.424Z" transform="translate(-1466.961 -1567.68)" fill="#252b37"/>
          <path id="Trazado_1193549" data-name="Trazado 1193549" d="M963.525,1608.043l-8.312-40.157q3.459,11.87,6.749,24.248,1.8,6.784,3.476,13.461l56.667,1.077.727,1.387-12.908-.058q.06,25.595.12,51.189-.074,15.86-.147,31.72l-1.7-1.091q-.014-40.884-.028-81.767l-35.555-.129q-.091,45.1-.182,90.2l-2,.182q-.376-38.6-.374-77.213,0-6.509.011-13.017Z" transform="translate(-913.657 -1547.905)" fill="#252b37"/>
          <path id="Trazado_1193550" data-name="Trazado 1193550" d="M927.544,1912.86q1.732,42.069,3.464,84.138l-5.344.154Q926.6,1955.007,927.544,1912.86Z" transform="translate(-887.615 -1851.926)" fill="#252b37"/>
          <path id="Trazado_1193551" data-name="Trazado 1193551" d="M1033.777,2812.061a21.9,21.9,0,0,1,3.578.446c-.462.015-1.3.049-2.341.142-3.307.3-9.289.9-15,4.662a25.345,25.345,0,0,0-2.916,2.247h-3.546a40.985,40.985,0,0,1,7.711-4.526C1024.468,2813.6,1028.512,2811.841,1033.777,2812.061Z" transform="translate(-965.071 -2644.364)" fill="#252b37"/>
          <path id="Trazado_1193552" data-name="Trazado 1193552" d="M860.449,1767.64c.7,1.694-2.744,21.337-3.412,24.528a33.419,33.419,0,0,1-1.05,3.738C854.774,1792.19,859.171,1772.036,860.449,1767.64Z" transform="translate(-826.026 -1723.945)" fill="#252b37"/>
          <path id="Trazado_1193553" data-name="Trazado 1193553" d="M887.644,1702.96c.143.109.173.114.234.385a30.412,30.412,0,0,1-.2,4.675c-.168,4.15-.135,8.326-.407,12.469-.246,3.745-.714,7.48-1.106,11.212-.664,6.326-1.357,12.587-2.216,18.892-.259,1.9-.265,5.1-.948,6.73A56.045,56.045,0,0,1,883,1746.65c.627-12.028,2.318-24.1,4-36.017C887.354,1708.1,887.289,1705.5,887.644,1702.96Z" transform="translate(-849.782 -1666.944)" fill="#252b37"/>
          <path id="Trazado_1193554" data-name="Trazado 1193554" d="M828.371,2688.611a43.756,43.756,0,0,0-13.364-10.147,45.963,45.963,0,0,0-19.276-4.442A48.159,48.159,0,0,0,775,2678.491c-.1-.292,17.961-11.529,33.906-6.331a37.826,37.826,0,0,1,13.985,8.728A32.964,32.964,0,0,1,828.371,2688.611Z" transform="translate(-754.834 -2519.879)" fill="#252b37"/>
        </g>
        <g id="hammer_1_" transform="translate(90.845 218.156)">
          <path id="Trazado_1193555" data-name="Trazado 1193555" d="M871.03,2183.458a3.191,3.191,0,0,1,2.343.443l2.459-.635A35.885,35.885,0,0,1,885,2201.442a1.652,1.652,0,0,0-.874.372,1.853,1.853,0,0,0-.524,1.822,4.039,4.039,0,0,1-.8,1.614,2.442,2.442,0,0,1-.794.7c-.771.36-1.883-.063-2.833-.938-.387,1.154-1.072,2.544-2.27,2.883-3.014.85-6.989-5.605-7.718-6.789a27.124,27.124,0,0,1-3.853-12.3,2.161,2.161,0,0,1,.705-1.6,2.191,2.191,0,0,1,2.537-.113A3.59,3.59,0,0,1,871.03,2183.458Z" transform="translate(-865.337 -2168.473)" fill="#794c4d"/>
          <path id="Trazado_1193556" data-name="Trazado 1193556" d="M865.9,2213.171a2.046,2.046,0,0,1,1.3-.581,2.216,2.216,0,0,1,1.37.343c.981,1.134,1.99,2.4,2.987,3.818a49.129,49.129,0,0,1,4.311,7.411q-.644.267-1.3.552-.617.268-1.213.538c-1.1-1.874-2.106-3.428-2.915-4.62a28.723,28.723,0,0,0-3.95-4.942c-.471-.453-.879-.808-1.16-1.044A2.07,2.07,0,0,1,865.9,2213.171Z" transform="translate(-865.332 -2194.31)" fill="#815956"/>
          <path id="Trazado_1193557" data-name="Trazado 1193557" d="M899.069,2183.394a2.944,2.944,0,0,1,1.579.512l2.459-.636a35.885,35.885,0,0,1,9.172,18.176c-.536.19-.877.227-1.2.748a2.944,2.944,0,0,0-.213.677,2.631,2.631,0,0,1,.012.77,3.072,3.072,0,0,1-.8,1.614,3.943,3.943,0,0,1-.794.7l-.379.047c-.13-2.755-.909-11.884-8-17.88a20.463,20.463,0,0,0-4.622-2.938,3.075,3.075,0,0,1,.639-.912A3.035,3.035,0,0,1,899.069,2183.394Z" transform="translate(-892.612 -2168.478)" fill="#815956"/>
          <path id="Trazado_1193558" data-name="Trazado 1193558" d="M935.485,2183.27a48.856,48.856,0,0,1,9.172,18.176c-.536.19-.877.227-1.2.748a2.944,2.944,0,0,0-.213.677c-1.3-2.98-2.227-6.118-3.595-9.076a50.648,50.648,0,0,0-6.627-9.889Z" transform="translate(-924.99 -2168.477)" fill="#6e3638"/>
          <path id="Trazado_1193559" data-name="Trazado 1193559" d="M975.088,2060.75c.747-.968.9-1.522,1.522-1.838a2.585,2.585,0,0,1,2.056.032c2.775,1.077,4.652,4.019,6.12,6.452a33.068,33.068,0,0,1,2.362,4.7c.565,1.39,3.182,7.831,1.264,9.34-.465.365-.856.174-2.456.876a13.848,13.848,0,0,0-1.888,1.009,2.027,2.027,0,0,1-.522,2.07c-.736.521-2.276.162-3.053-1.3l-1.159-.737a5.682,5.682,0,0,1-2.059,2.813,3.34,3.34,0,0,1,1.27,1.729,7.491,7.491,0,0,1-.023,2.129,4.941,4.941,0,0,0,1.069,2.85l-5.206,3.41a4.946,4.946,0,0,0-1.887-2.114c-1-.591-1.722-.448-2.432-1.091a3.4,3.4,0,0,1-.944-2.389l-6.214,2.981a48.851,48.851,0,0,0-9.172-18.176l15.783-7.882.3-.134a2.6,2.6,0,0,1,3.838-3.217A10.3,10.3,0,0,0,975.088,2060.75Z" transform="translate(-943.242 -2058.702)" fill="#794c4d"/>
          <path id="Trazado_1193560" data-name="Trazado 1193560" d="M1153.052,2198.35a12.374,12.374,0,0,1,.854,4.321,12.226,12.226,0,0,1-.219,2.484l-1.159-.737-2.27-4.753Z" transform="translate(-1116.434 -2181.767)" fill="#6e3638"/>
          <path id="Trazado_1193561" data-name="Trazado 1193561" d="M1102.042,2280.281c-.762-.464-.812-1.893-.62-2.792.456-2.127,2.808-3.762,5.924-4.325a2.67,2.67,0,0,1,1.27,1.729,9.043,9.043,0,0,1,.018,1.432c-.011.29-.028.53-.041.7a20.611,20.611,0,0,1-1.866,1.4C1104.887,2279.649,1103.032,2280.884,1102.042,2280.281Z" transform="translate(-1073.312 -2247.7)" fill="#815956"/>
          <path id="Trazado_1193562" data-name="Trazado 1193562" d="M1097.09,2086.872a5.7,5.7,0,0,1,2.9.079,40.488,40.488,0,0,1,8.086,11.783l-1.884,1.241Q1101.643,2093.423,1097.09,2086.872Z" transform="translate(-1069.577 -2083.391)" fill="#815956"/>
          <path id="Trazado_1193563" data-name="Trazado 1193563" d="M1122.965,2060.706a3.927,3.927,0,0,1,.924-1.444,2.768,2.768,0,0,1,.6-.394,2.478,2.478,0,0,1,2.056.032c2.775,1.077,4.652,4.02,6.12,6.452a52.358,52.358,0,0,1,2.362,4.7c2.463,5.592,1.984,7.32,1.677,8.144a2.728,2.728,0,0,1-1.355,1.579c-.517.23-.8.247-1.513.493a6.948,6.948,0,0,0-1.888,1.009q-.268-1.148-.615-2.363a47.85,47.85,0,0,0-1.71-4.917,40.477,40.477,0,0,0-8.086-11.783A4.033,4.033,0,0,0,1122.965,2060.706Z" transform="translate(-1091.12 -2058.658)" fill="#794c4d"/>
          <path id="Trazado_1193564" data-name="Trazado 1193564" d="M1189.65,2180.249l2.827-1.031,1.386,7.3a7.01,7.01,0,0,0-1.888,1.009Z" transform="translate(-1151.149 -2164.906)" fill="#6e3638"/>
          <path id="Trazado_1193565" data-name="Trazado 1193565" d="M1133.59,2061.573a2.69,2.69,0,0,1,.924-1.444,3.286,3.286,0,0,1,2.654-.361c3.633.758,6.043,5.892,7.835,9.71.294.627.517,1.141.647,1.445a3.5,3.5,0,0,1-.618,1.568,3.6,3.6,0,0,1-1.959,1.346,29.365,29.365,0,0,0-9.482-12.264Z" transform="translate(-1101.744 -2059.525)" fill="#815956"/>
          <path id="Trazado_1193566" data-name="Trazado 1193566" d="M969.824,2115.74l7.247,11.123c-2.633,1.047-5.4,2.246-8.272,3.62-3,1.437-5.783,2.906-8.345,4.364a49.158,49.158,0,0,0-6.711-11.09c.577-.324,1.434-.8,2.475-1.381a107.88,107.88,0,0,1,10.838-5.556C967.73,2116.538,968.675,2116.157,969.824,2115.74Z" transform="translate(-943.247 -2108.964)" fill="#815956"/>
          <path id="Trazado_1193567" data-name="Trazado 1193567" d="M1130.531,2327.649a2.144,2.144,0,0,1,1.359.649,3.075,3.075,0,0,1,.1,3.612,2.125,2.125,0,0,0,.432.978,2.214,2.214,0,0,0,1.394.78l-4.192,2.723a4.595,4.595,0,0,0-1.082-2.765c-1.834.025-3.107-.885-3.19-1.806a1.633,1.633,0,0,1,.552-1.259c.861-.6,1.534-1.093,1.956-1.408C1129.364,2328.031,1129.8,2327.608,1130.531,2327.649Z" transform="translate(-1094.482 -2295.714)" fill="#815956"/>
          <path id="Trazado_1193568" data-name="Trazado 1193568" d="M1162.283,2377.212c1.291-.321,1.689-.045,1.82.064.325.273.588.861.33,1.178a.911.911,0,0,1-1.088.066q2.736,3.845,5.655,7.748,6.8,9.092,13.6,17.181c-.879.256-1.817.564-2.8.936-1,.38-1.923.779-2.764,1.178l-2.01,1.028c-2-3.53-3.726-6.381-4.956-8.363-3.04-4.9-4.993-7.648-8.007-12.948-.971-1.708-1.74-3.131-2.245-4.081a1.077,1.077,0,0,1-.684,1c-.546.146-1.091-.445-1.217-.954a1.652,1.652,0,0,1,.383-1.309A6.706,6.706,0,0,1,1162.283,2377.212Z" transform="translate(-1123.161 -2339.263)" fill="#815956"/>
          <path id="Trazado_1193569" data-name="Trazado 1193569" d="M1181.38,2425.32c.545.625,1.346,1.559,2.286,2.715,3,3.687,4.843,6.476,6.865,9.457,1.608,2.371,3.988,5.835,7.065,10.157l-1.866,1.473c-2.015-3.612-3.755-6.455-4.956-8.363-1.893-3.006-3.393-5.184-5.871-9.311-.93-1.548-1.669-2.824-2.136-3.638Q1182.073,2426.566,1181.38,2425.32Z" transform="translate(-1143.861 -2381.792)" fill="#794c4d"/>
        </g>
        <path id="Trazado_1193570" data-name="Trazado 1193570" d="M1351.4,1517.59a101.29,101.29,0,0,0,15.565,2.542,102.625,102.625,0,0,0,32.58-2.524l-24.148,53.918Q1363.4,1544.557,1351.4,1517.59Z" transform="translate(-1202.852 -1363.666)" fill="#dceaeb"/>
        <g id="hands_1_" transform="translate(130.083 279.584)">
          <path id="Trazado_1193571" data-name="Trazado 1193571" d="M1221.628,2577.139a7.422,7.422,0,0,1,.762,2.381,8.252,8.252,0,0,1-1.489,5.727c1.858.745,3.474,1.4,4.292,3.384.255.621.176,1.009.618,2.556.525,1.838.788,2.758,1.3,3.081,1.222.764,2.881-1.088,5.355-1.694,2.548-.624,4.728.377,7.887,1.89,5.005,2.4,9.828,4.813,14.589,7.318.911.309,2.16.76,3.617,1.375a34.347,34.347,0,0,1,6.331,3.226,23.445,23.445,0,0,1,5.486,5.259l-74.524-.046a8.63,8.63,0,0,0,2.658-3.217,8.428,8.428,0,0,0,.756-3.214c.273-5.12.26-10.2.494-12.153.337-2.816,2.093-6.71,8.724-11.006a37.315,37.315,0,0,1,4.774-2.206c.972-.369,1.909-.677,2.8-.936a3.226,3.226,0,0,1,5.566-1.724Z" transform="translate(-1195.856 -2576.101)" fill="#e6b08c"/>
          <path id="Trazado_1193572" data-name="Trazado 1193572" d="M1476.83,2810.814a23.578,23.578,0,0,1,7.774-6.133c5.5-2.691,11.081-2.733,11.158-2.409.032.133-.837.476-1.376.642a6.809,6.809,0,0,1-2.061.3,22.547,22.547,0,0,0-12.867,5.789,19.179,19.179,0,0,0-1.7,1.809Z" transform="translate(-1443.475 -2775.3)" fill="#ce7662"/>
          <path id="Trazado_1193573" data-name="Trazado 1193573" d="M1276.528,2642.01c-.1.22-.225.454-.366.7-.132.227-.266.435-.4.623-5.865-.185-10.036,6.393-15.365,8.959-.541.26-1.627,1.175-2.1.829a.518.518,0,0,1-.183-.325c-.169-.919,2.438-2.212,3.9-3.068,4.078-2.39,3.74-4.018,6.932-5.853A14.932,14.932,0,0,1,1276.528,2642.01Z" transform="translate(-1250.721 -2634.186)" fill="#ce7662"/>
          <path id="Trazado_1193574" data-name="Trazado 1193574" d="M1314.253,2701c.374-.023,1,0,2.253.056,1.269.053,2.309.133,3.007.194l.323,1.115c-.41-.074-1-.165-1.7-.225a11.811,11.811,0,0,0-4.258.2c-1.534.5-2.214,1.681-3.258,3.016-3.532,4.517-8.276,7-8.43,6.825-.06-.068.485-.639,1.1-1.279a49.518,49.518,0,0,1,4.213-3.88C1311.607,2703.463,1311.95,2701.14,1314.253,2701Z" transform="translate(-1289.559 -2686.165)" fill="#ce7662"/>
          <path id="Trazado_1193575" data-name="Trazado 1193575" d="M1342.311,2739.062c3.192-2.433,8.016-3.745,11.98-4.023-5.884,2.623-14.06,3.3-17.228,9.679l-.78.375c.518-1.727,2.113-2.882,2.443-4.685l-.182-.205c-2.075.535-7.788,6.843-12.321,8.433q3.566-3.307,7.549-6.681,2.418-2.042,4.791-3.929c1.433-1.347,3.057-1.451,3.637-.819C1342.716,2737.771,1342.37,2738.879,1342.311,2739.062Z" transform="translate(-1310.746 -2716.171)" fill="#ce7662"/>
          <path id="Trazado_1193576" data-name="Trazado 1193576" d="M1396.379,2767.995a1.471,1.471,0,0,0,.595.8c.874.523,2.214-.323,4.012-1.33a35.856,35.856,0,0,1,4.06-2.12c2.917-1.173,10.631-4.4,13.522-3.83l-.038.2a20.6,20.6,0,0,1-4.146,1.562c-9.343,3.093-12.177,3.748-14.228,6.567a9.8,9.8,0,0,0-1.762,5.107l-4.865,0a7.75,7.75,0,0,0,1.17-1.6,8.351,8.351,0,0,0,.9-4.982Z" transform="translate(-1370.062 -2739.448)" fill="#ce7662"/>
        </g>
        <g id="scales_3_" transform="translate(25.75 61.562)">
          <path id="Trazado_1193577" data-name="Trazado 1193577" d="M149.681,753.177a6.779,6.779,0,0,1-1.83-1.011,7.3,7.3,0,0,1-2.773-6.5c.379-2.978,2.857-5.985,6.274-6.107,3.7-.132,6.447,3.193,6.781,6.291.375,3.483-2.379,6.016-2.6,6.212a7.459,7.459,0,0,1-1.866,1.214l19.771.035c.981.032,1.761.022,2.277.009a3.786,3.786,0,0,1,2.4.335,1.413,1.413,0,0,1,.508.529,2.148,2.148,0,0,1-.492,2.152c-.741.833-1.938.695-4.411.616-1.214-.039-2.979-.071-5.159-.021q-3.657-.068-7.447-.063c-2.487.006-4.974.038-7.447.088l-.1,55.808c1.9-.1,4.18-.265,5.679,1.154,1.46,1.382,1.272,3.541,1.259,5.376q-.011,2.194-.052,4.387l-17.965.066c.005-.474.01-1.2,0-2.077-.018-1.253-.057-1.978-.067-2.369-.039-1.445-.1-3.71.884-5.042,1.593-2.157,5.649-1.491,6.093-1.413l.157-55.933-9.963-.02-10.543.041c-.608-.045-1.488-.094-2.552-.1-1.833-.006-2.371.129-2.788-.272a2.271,2.271,0,0,1,.045-2.819c.7-.775,1.776-.43,5.248-.444,1.4-.005.384-.058,3.027-.1C136.995,753.121,149.011,753.174,149.681,753.177Z" transform="translate(-120.492 -739.554)" fill="#495c6e"/>
          <circle id="Elipse_14913" data-name="Elipse 14913" cx="3.849" cy="3.849" r="3.849" transform="translate(26.438 10.04) rotate(-76.714)" fill="#dceaeb"/>
          <rect id="Rectángulo_423072" data-name="Rectángulo 423072" width="29.357" height="4.453" transform="translate(16.461 84.191)" fill="#4a5e6f"/>
          <g id="Grupo_1231490" data-name="Grupo 1231490" transform="translate(40.547 16.979)">
            <path id="Trazado_1193578" data-name="Trazado 1193578" d="M456.316,883.076l2.084.009-6.72,18.163-1.972-.02Z" transform="translate(-448.75 -883.017)" fill="#4a5e6f"/>
            <path id="Trazado_1193579" data-name="Trazado 1193579" d="M460.819,1034.071c.51-.036,1.46-.026,1.823.533.438.674-.212,1.785-.9,2.97a10.132,10.132,0,0,1-1.523,2.062,10.337,10.337,0,0,1-4.719,2.775,12.6,12.6,0,0,1-9.274-.846,10.348,10.348,0,0,1-4.526-5.9,1.252,1.252,0,0,1,.1-1.065c.344-.478,1.134-.452,1.787-.422,2.429.111,3.644.166,3.774.189a49.272,49.272,0,0,0,5.458.057C455.01,1034.4,457.71,1034.3,460.819,1034.071Z" transform="translate(-441.638 -1016.076)" fill="#495c6e"/>
            <path id="Trazado_1193580" data-name="Trazado 1193580" d="M539.4,900.731l-1.972.02-6.719-18.163,2.084-.009Z" transform="translate(-520.133 -882.579)" fill="#4a5e6f"/>
          </g>
          <g id="Grupo_1231491" data-name="Grupo 1231491" transform="translate(0 16.969)">
            <path id="Trazado_1193581" data-name="Trazado 1193581" d="M114.758,883l2.084.009-6.72,18.163-1.972-.02Z" transform="translate(-107.192 -882.941)" fill="#4a5e6f"/>
            <path id="Trazado_1193582" data-name="Trazado 1193582" d="M119.261,1033.991c.51-.036,1.46-.026,1.823.533.438.674-.212,1.785-.9,2.971a10.143,10.143,0,0,1-1.523,2.062,10.338,10.338,0,0,1-4.719,2.775,12.6,12.6,0,0,1-9.274-.846,10.348,10.348,0,0,1-4.526-5.9,1.251,1.251,0,0,1,.1-1.065c.344-.478,1.134-.452,1.787-.423,2.429.111,3.644.167,3.774.189a49.253,49.253,0,0,0,5.458.057C113.452,1034.315,116.152,1034.225,119.261,1033.991Z" transform="translate(-100.079 -1015.997)" fill="#495c6e"/>
            <path id="Trazado_1193583" data-name="Trazado 1193583" d="M197.841,900.652l-1.972.02-6.719-18.163,2.084-.009Z" transform="translate(-178.575 -882.499)" fill="#4a5e6f"/>
          </g>
        </g>
        <g id="scales_2_" transform="translate(259.055 62.563)">
          <path id="Trazado_1193584" data-name="Trazado 1193584" d="M2489.213,761.61a6.783,6.783,0,0,1-1.83-1.011,7.3,7.3,0,0,1-2.773-6.5c.379-2.978,2.857-5.985,6.274-6.107,3.7-.132,6.447,3.193,6.781,6.291.375,3.483-2.379,6.016-2.6,6.212a7.457,7.457,0,0,1-1.866,1.214l19.771.035c.981.032,1.761.022,2.277.009a3.786,3.786,0,0,1,2.4.335,1.41,1.41,0,0,1,.509.529,2.148,2.148,0,0,1-.492,2.152c-.742.833-1.938.695-4.411.616-1.214-.039-2.979-.071-5.159-.021q-3.658-.068-7.447-.063c-2.487.006-4.974.037-7.447.088q-.049,27.9-.1,55.808c1.9-.1,4.179-.265,5.679,1.154,1.46,1.382,1.272,3.541,1.259,5.376q-.011,2.193-.052,4.387l-17.965.066c.006-.474.01-1.2,0-2.077-.018-1.253-.057-1.978-.067-2.369-.039-1.445-.1-3.71.884-5.042,1.593-2.157,5.649-1.491,6.094-1.413l.157-55.933-9.963-.02-10.543.041c-.608-.045-1.488-.094-2.552-.1-1.833-.006-2.371.129-2.788-.272a2.271,2.271,0,0,1,.045-2.819c.7-.775,1.776-.43,5.248-.444,1.4-.005.384-.058,3.027-.1C2476.526,761.553,2488.542,761.607,2489.213,761.61Z" transform="translate(-2460.023 -747.986)" fill="#495c6e"/>
          <ellipse id="Elipse_14914" data-name="Elipse 14914" cx="3.849" cy="3.849" rx="3.849" ry="3.849" transform="translate(26.051 5.085) rotate(-22.5)" fill="#dceaeb"/>
          <rect id="Rectángulo_423073" data-name="Rectángulo 423073" width="29.357" height="4.453" transform="translate(16.461 84.192)" fill="#4a5e6f"/>
          <g id="Grupo_1231492" data-name="Grupo 1231492" transform="translate(40.548 16.979)">
            <path id="Trazado_1193585" data-name="Trazado 1193585" d="M2795.843,891.507l2.084.009-6.72,18.163-1.972-.02Q2792.539,900.583,2795.843,891.507Z" transform="translate(-2788.277 -891.448)" fill="#4a5e6f"/>
            <path id="Trazado_1193586" data-name="Trazado 1193586" d="M2800.351,1042.5c.51-.036,1.46-.026,1.823.533.438.674-.212,1.785-.9,2.97a10.136,10.136,0,0,1-1.523,2.062,10.341,10.341,0,0,1-4.719,2.775,12.6,12.6,0,0,1-9.274-.847,10.347,10.347,0,0,1-4.526-5.9,1.252,1.252,0,0,1,.1-1.065c.344-.478,1.134-.452,1.787-.422,2.429.111,3.644.166,3.774.189a49.274,49.274,0,0,0,5.458.057C2794.541,1042.825,2797.241,1042.735,2800.351,1042.5Z" transform="translate(-2781.169 -1024.506)" fill="#495c6e"/>
            <path id="Trazado_1193587" data-name="Trazado 1193587" d="M2878.924,909.162l-1.972.02-6.719-18.163,2.083-.009Q2875.62,900.086,2878.924,909.162Z" transform="translate(-2859.659 -891.009)" fill="#4a5e6f"/>
          </g>
          <g id="Grupo_1231493" data-name="Grupo 1231493" transform="translate(0 16.969)">
            <path id="Trazado_1193588" data-name="Trazado 1193588" d="M2454.283,891.431l2.083.009-6.719,18.163-1.973-.02Q2450.979,900.507,2454.283,891.431Z" transform="translate(-2446.717 -891.371)" fill="#4a5e6f"/>
            <path id="Trazado_1193589" data-name="Trazado 1193589" d="M2458.791,1042.421c.51-.036,1.46-.026,1.823.533.438.674-.212,1.785-.9,2.971a10.143,10.143,0,0,1-1.523,2.062,10.339,10.339,0,0,1-4.719,2.775,12.6,12.6,0,0,1-9.274-.847,10.347,10.347,0,0,1-4.526-5.9,1.251,1.251,0,0,1,.1-1.065c.344-.478,1.134-.452,1.787-.422,2.429.111,3.644.166,3.774.189a49.234,49.234,0,0,0,5.458.057C2452.981,1042.745,2455.682,1042.655,2458.791,1042.421Z" transform="translate(-2439.609 -1024.427)" fill="#495c6e"/>
            <path id="Trazado_1193590" data-name="Trazado 1193590" d="M2537.364,909.081l-1.972.02-6.719-18.163,2.084-.009Z" transform="translate(-2518.099 -890.929)" fill="#4a5e6f"/>
          </g>
        </g>
        <g id="face_1_" transform="translate(125.313 25.591)">
          <path id="Trazado_1193591" data-name="Trazado 1193591" d="M1216.162,436.548c2.4,8.836,8.291,11.7,13.3,18.252,3.687,4.823,4.677,9.982,5,15.893a36.828,36.828,0,0,1-.124,6.971,6.165,6.165,0,0,1,9.64-4.625c3.4,2.513,1.5,9.115.849,11.4-.6,2.083-2.5,8.7-8.173,10.437a10.2,10.2,0,0,1-5.126.156c-1,1.667-1.172,4.133-1.6,6.024a30.682,30.682,0,0,1-9.646,15.6c-1.709,1.744-8.73,8.5-19.1,8.465-11.648-.036-18.985-8.609-21.723-11.808a37.006,37.006,0,0,1-8.367-18.708,7.745,7.745,0,0,1-4.707,1.347c-4.619-.342-7.209-5.641-8.244-7.759-2.7-5.522-3.611-13.746-.485-15.4.653-.345,2.486-.934,6.668,2.061l.993-2.543,25.513-11.3C1201.735,455.646,1210.071,446.941,1216.162,436.548Z" transform="translate(-1155.68 -436.548)" fill="#e6b08c"/>
          <g id="mouth_1_" transform="translate(34.899 68.596)">
            <path id="Trazado_1193592" data-name="Trazado 1193592" d="M1451.492,1015.459a20.915,20.915,0,0,1,6.175-.981,16.122,16.122,0,0,0,2.448.377c1.325-.119,2.58-.624,3.93-.435,1.529.214,2.908,1.079,4.475,1.054.566-.5,1.1-.795,1.29-.646.217.168.029.926-.415,1.388-.508.529-1.2.515-2.081.591-1.156.1-.118.138-3.774.759a27.556,27.556,0,0,1-3.574.51,24.535,24.535,0,0,1-3.9-.7,26.752,26.752,0,0,0-4.369-.389,9.155,9.155,0,0,0-.856-.522c-.639-.344-.936-.407-1.092-.725a.749.749,0,0,1,.035-.791C1450.046,1014.7,1450.743,1014.87,1451.492,1015.459Z" transform="translate(-1449.659 -1014.378)" fill="#d88e6f"/>
            <path id="Trazado_1193593" data-name="Trazado 1193593" d="M1465.43,1030.41a36.135,36.135,0,0,0,3.66.411,16.459,16.459,0,0,0,2.358-.183c1.494-.206,3.644-.473,6.76-.78a1.94,1.94,0,0,1-1.242.526c-1.952.329-3.531.619-4.613.824a16.528,16.528,0,0,1-3.574.51,20.163,20.163,0,0,1-3.9-.7,26.726,26.726,0,0,0-4.369-.389l-.856-.522c.306.033.761.078,1.313.122C1463.352,1030.416,1463.74,1030.27,1465.43,1030.41Z" transform="translate(-1458.472 -1028.02)" fill="#ca675a"/>
            <path id="Trazado_1193594" data-name="Trazado 1193594" d="M1482.478,1034.358l.839-.065c-1.3,2.491-2.682,4.537-5.508,5.468a9.435,9.435,0,0,1-7.15-.654,8.924,8.924,0,0,1-3.793-4.571,26.714,26.714,0,0,1,4.369.389,24.531,24.531,0,0,0,3.9.7A66.211,66.211,0,0,0,1482.478,1034.358Z" transform="translate(-1464.823 -1031.929)" fill="#d88e6f"/>
          </g>
          <g id="eye_4_" transform="translate(54.035 33.619)">
            <path id="Trazado_1193595" data-name="Trazado 1193595" d="M1623.236,726.7a19.545,19.545,0,0,1-4.179.538,24.134,24.134,0,0,1-8.2-1.135,9.9,9.9,0,0,1,3.9-4.918,10.233,10.233,0,0,1,5.642-1.444c3.356.011,4.474,1.445,8.644,1.624a19.088,19.088,0,0,0,3.039-.113A18.342,18.342,0,0,1,1623.236,726.7Z" transform="translate(-1610.857 -719.745)" fill="#252b37"/>
            <path id="Trazado_1193596" data-name="Trazado 1193596" d="M1615.07,752.657a24.186,24.186,0,0,1-3.012-.735q.845-.751,1.8-1.523.938-.756,1.837-1.413a3.708,3.708,0,0,0,.869,2.9,3.609,3.609,0,0,0,2.2,1.136A24.169,24.169,0,0,1,1615.07,752.657Z" transform="translate(-1611.916 -745.515)" fill="#fefefe"/>
            <path id="Trazado_1193597" data-name="Trazado 1193597" d="M1695.718,748.465q-1.134.826-2.223,1.647c-.374.084-.774.161-1.2.227-.46.071-.9.12-1.308.153a5.828,5.828,0,0,0,2.089-1.991,5.667,5.667,0,0,0,.8-2.278,13.943,13.943,0,0,1,4.057.658Q1696.834,747.653,1695.718,748.465Z" transform="translate(-1681.475 -743.067)" fill="#fefefe"/>
          </g>
          <path id="Trazado_1193598" data-name="Trazado 1193598" d="M1300.7,628.6a4.006,4.006,0,0,1,1.057,3.32,2.442,2.442,0,0,1-.518.99c-1.221,1.227-4.434-.8-9.622-2.4h0c-3.4-.681-7.343-1.836-11.042-.435a10.23,10.23,0,0,0-1.882.948,9.017,9.017,0,0,1,2.7-3.674,9.466,9.466,0,0,1,4.346-1.89,11.136,11.136,0,0,1,3.274-.113C1292.266,625.612,1298.367,625.981,1300.7,628.6Z" transform="translate(-1264.088 -602.872)" fill="#303947"/>
          <path id="Trazado_1193599" data-name="Trazado 1193599" d="M1502.234,791.983c-1.154-.982-.84-2.808.039-8.382,1.778-11.277,2.047-13.655,2.336-13.623.414.046.2,4.947.171,5.517-.375,8.457-2.361,13.309-.364,14.67a6.264,6.264,0,0,0,2.364.667,14.662,14.662,0,0,0,2.97,0C1509.8,791.067,1504.4,793.824,1502.234,791.983Z" transform="translate(-1460.434 -730.395)" fill="#d88e6f"/>
          <path id="Trazado_1193600" data-name="Trazado 1193600" d="M1175.365,770c2.98-.5,7.239,6.813,6.547,11.033-.029.178-.226,1.38-.5,1.38-.312,0-.475-1.613-.838-3.2a21.2,21.2,0,0,0-2.061-5.4,4.122,4.122,0,0,0-2.607-2.061c-1.3-.208-2.361.63-2.546.364C1173.157,771.825,1174.1,770.214,1175.365,770Z" transform="translate(-1171.24 -730.395)" fill="#ce7662"/>
          <path id="Trazado_1193601" data-name="Trazado 1193601" d="M1610.4,625.344a11.135,11.135,0,0,1,3.274.113,9.465,9.465,0,0,1,4.346,1.89,9.015,9.015,0,0,1,2.7,3.674,10.228,10.228,0,0,0-1.882-.948c-3.7-1.4-7.639-.246-11.042.435h0c-5.188,1.607-8.4,3.63-9.621,2.4a2.437,2.437,0,0,1-.518-.99,4.006,4.006,0,0,1,1.057-3.32C1601.043,625.981,1607.145,625.612,1610.4,625.344Z" transform="translate(-1545.115 -602.871)" fill="#303947"/>
          <g id="eye_3_" transform="translate(15.023 33.335)">
            <path id="Trazado_1193602" data-name="Trazado 1193602" d="M1282.23,718.86a19.079,19.079,0,0,0,3.039.113c4.169-.179,5.288-1.613,8.644-1.624a10.234,10.234,0,0,1,5.641,1.444,9.9,9.9,0,0,1,3.9,4.918,24.136,24.136,0,0,1-8.2,1.135,19.541,19.541,0,0,1-4.179-.538A18.339,18.339,0,0,1,1282.23,718.86Z" transform="translate(-1282.23 -717.348)" fill="#252b37"/>
            <path id="Trazado_1193603" data-name="Trazado 1193603" d="M1403.31,750.624a3.61,3.61,0,0,0,2.2-1.136,3.707,3.707,0,0,0,.869-2.9q.9.657,1.837,1.413t1.8,1.523a24.2,24.2,0,0,1-6.706,1.1Z" transform="translate(-1388.936 -743.117)" fill="#fefefe"/>
            <path id="Trazado_1193604" data-name="Trazado 1193604" d="M1322.39,744.483a13.944,13.944,0,0,1,4.057-.658,5.666,5.666,0,0,0,.8,2.278,5.83,5.83,0,0,0,2.089,1.991c-.41-.033-.847-.082-1.307-.153-.425-.066-.825-.143-1.2-.227q-1.089-.821-2.223-1.647Q1323.486,745.256,1322.39,744.483Z" transform="translate(-1317.623 -740.67)" fill="#fefefe"/>
          </g>
          <ellipse id="Elipse_14915" data-name="Elipse 14915" cx="2.895" cy="4.442" rx="2.895" ry="4.442" transform="translate(7.852 55.8)" fill="#dceaeb"/>
          <path id="Trazado_1193605" data-name="Trazado 1193605" d="M1828.15,768.13c-.185.266-1.246-.572-2.546-.364a4.123,4.123,0,0,0-2.607,2.061,21.189,21.189,0,0,0-2.061,5.4c-.363,1.586-.526,3.2-.838,3.2-.269,0-.467-1.2-.5-1.38-.692-4.22,3.567-11.53,6.547-11.033C1827.419,766.22,1828.358,767.832,1828.15,768.13Z" transform="translate(-1740.721 -726.876)" fill="#ce7662"/>
          <ellipse id="Elipse_14916" data-name="Elipse 14916" cx="2.895" cy="4.442" rx="2.895" ry="4.442" transform="translate(77.343 54.698)" fill="#dceaeb"/>
        </g>
        <g id="microphone_1_" transform="translate(265.047 178.56)">
          <path id="Trazado_1193606" data-name="Trazado 1193606" d="M2341.183,1739.39a5.717,5.717,0,0,1-2.65-2.365c-1.731-2.348-.616-.428-5.031-6.729a3.324,3.324,0,0,1-.754-2.023,3.369,3.369,0,0,1,1.1-2.215,3.11,3.11,0,0,1,1.824-.951c1.882-.025,3.563,2.648,4.839,3.792a34.9,34.9,0,0,1,3.885,5.362,4.922,4.922,0,0,1,.922,3.613,3.348,3.348,0,0,1-.388.945q5.935,9.4,11.908,18.769c.812,1.274,1.744,2.736,2.558,4.009,4.612,7.12,6.336,11.835,7.69,20.221a55.217,55.217,0,0,1,.25,8.618l-.03,15.03q.034,24.273.068,48.546l-2.643-.005q.114-27.211.227-54.421a109.8,109.8,0,0,0-.121-13.882,54.919,54.919,0,0,0-1.347-10.211,40.037,40.037,0,0,0-6.863-14.177l-2.477-3.728-11.379-17.952A4.362,4.362,0,0,1,2341.183,1739.39Z" transform="translate(-2332.747 -1725.108)" fill="#252b37"/>
          <path id="Trazado_1193607" data-name="Trazado 1193607" d="M2355.88,2807.278l56.665.337a8.614,8.614,0,0,0-1.744-5.518c-1.895-2.316-4.781-2.769-6.425-3-8.365-1.165-15.792-.878-21.49-.912-3.587-.021-9.452-.188-17.276.455-2.669.219-5.858.556-7.911,3A8.728,8.728,0,0,0,2355.88,2807.278Z" transform="translate(-2353.134 -2670.769)" fill="#252b37"/>
        </g>
      </g>
    </g>
  </g>
</svg>
