<svg xmlns="http://www.w3.org/2000/svg" xmlns:xlink="http://www.w3.org/1999/xlink" width="103" height="103" viewBox="0 0 103 103">
  <defs>
    <filter id="Trazado_978624" x="0" y="0" width="103" height="103" filterUnits="userSpaceOnUse">
      <feOffset dy="3" input="SourceAlpha"/>
      <feGaussianBlur stdDeviation="3" result="blur"/>
      <feFlood flood-opacity="0.161"/>
      <feComposite operator="in" in2="blur"/>
      <feComposite in="SourceGraphic"/>
    </filter>
  </defs>
  <g id="Grupo_1231342" data-name="Grupo 1231342" transform="translate(-196 -791.145)">
    <g id="Grupo_1229692" data-name="Grupo 1229692" transform="translate(-420 -35.855)">
      <g id="Grupo_1224934" data-name="Grupo 1224934" transform="translate(445 -6)">
        <g id="Grupo_1222589" data-name="Grupo 1222589">
          <g id="Grupo_1203109" data-name="Grupo 1203109" transform="translate(180 839)">
            <g id="Grupo_1176881" data-name="Grupo 1176881">
              <g id="Grupo_1175148" data-name="Grupo 1175148">
                <g id="Grupo_1173798" data-name="Grupo 1173798">
                  <g id="Grupo_1171925" data-name="Grupo 1171925">
                    <g id="Grupo_1164524" data-name="Grupo 1164524">
                      <g id="Grupo_1144123" data-name="Grupo 1144123">
                        <g transform="matrix(1, 0, 0, 1, -9, -6)" filter="url(#Trazado_978624)">
                          <g id="Trazado_978624-2" data-name="Trazado 978624" transform="translate(9 6)" fill="#e7f2f8">
                            <path d="M 42.5 83.5 C 36.96437835693359 83.5 31.59512901306152 82.41617584228516 26.54141235351562 80.27863311767578 C 21.65934181213379 78.21369171142578 17.27447128295898 75.25723266601562 13.50862312316895 71.49137878417969 C 9.742764472961426 67.72553253173828 6.786305904388428 63.34066009521484 4.721364498138428 58.45858764648438 C 2.583823442459106 53.40486907958984 1.5 48.03562164306641 1.5 42.5 C 1.5 36.96437835693359 2.583823442459106 31.59512901306152 4.721364498138428 26.54141235351562 C 6.786305904388428 21.65934181213379 9.742764472961426 17.27447128295898 13.50862312316895 13.50862312316895 C 17.27447128295898 9.742764472961426 21.65934181213379 6.786305904388428 26.54141235351562 4.721364498138428 C 31.59512901306152 2.583823442459106 36.96437835693359 1.5 42.5 1.5 C 48.03562164306641 1.5 53.40486907958984 2.583823442459106 58.45858764648438 4.721364498138428 C 63.34066009521484 6.786305904388428 67.72553253173828 9.742764472961426 71.49137878417969 13.50862312316895 C 75.25723266601562 17.27447128295898 78.21369171142578 21.65934181213379 80.27863311767578 26.54141235351562 C 82.41617584228516 31.59512901306152 83.5 36.96437835693359 83.5 42.5 C 83.5 48.03562164306641 82.41617584228516 53.40486907958984 80.27863311767578 58.45858764648438 C 78.21369171142578 63.34066009521484 75.25723266601562 67.72553253173828 71.49137878417969 71.49137878417969 C 67.72553253173828 75.25723266601562 63.34066009521484 78.21369171142578 58.45858764648438 80.27863311767578 C 53.40486907958984 82.41617584228516 48.03562164306641 83.5 42.5 83.5 Z" stroke="none"/>
                            <path d="M 42.5 3 C 37.16621398925781 3 31.99356079101562 4.043960571289062 27.125732421875 6.102882385253906 C 22.42246627807617 8.092185974121094 18.19785308837891 10.94070434570312 14.56928253173828 14.56928253173828 C 10.94070434570312 18.19785308837891 8.092185974121094 22.42246627807617 6.102882385253906 27.125732421875 C 4.043960571289062 31.99356079101562 3 37.16621398925781 3 42.5 C 3 47.83378601074219 4.043960571289062 53.00643920898438 6.102882385253906 57.87425231933594 C 8.092185974121094 62.57753372192383 10.94070434570312 66.80213165283203 14.56928253173828 70.43071746826172 C 18.19786834716797 74.05929565429688 22.42246627807617 76.90781402587891 27.125732421875 78.89711761474609 C 31.99356079101562 80.95603942871094 37.16621398925781 82 42.5 82 C 47.83378601074219 82 53.00642395019531 80.95603942871094 57.87425231933594 78.89711761474609 C 62.57753372192383 76.90781402587891 66.80213165283203 74.05929565429688 70.43071746826172 70.43071746826172 C 74.05929565429688 66.80213165283203 76.90781402587891 62.57753372192383 78.89711761474609 57.87425231933594 C 80.95603942871094 53.00642395019531 82 47.83378601074219 82 42.5 C 82 37.16621398925781 80.95603942871094 31.99356079101562 78.89711761474609 27.125732421875 C 76.90781402587891 22.42246627807617 74.05929565429688 18.19786834716797 70.43071746826172 14.56928253173828 C 66.80213165283203 10.94070434570312 62.57753372192383 8.092185974121094 57.87425231933594 6.102882385253906 C 53.00643920898438 4.043960571289062 47.83378601074219 3 42.5 3 M 42.5 0 C 65.97209167480469 0 85 19.02789306640625 85 42.5 C 85 65.97209167480469 65.97209167480469 85 42.5 85 C 19.02789306640625 85 0 65.97209167480469 0 42.5 C 0 19.02789306640625 19.02789306640625 0 42.5 0 Z" stroke="none" fill="#248abf"/>
                          </g>
                        </g>
                      </g>
                    </g>
                  </g>
                </g>
              </g>
            </g>
          </g>
        </g>
      </g>
    </g>
    <g id="delito-cibernetico" transform="translate(221.846 800.359)">
      <path id="Trazado_1193279" data-name="Trazado 1193279" d="M7.5,22.652H57.3V53.83H7.5Z" transform="translate(-6.748 -6.75)" fill="#62dbfb"/>
      <g id="Grupo_1231339" data-name="Grupo 1231339" transform="translate(10.535 19.835)">
        <path id="Trazado_1193280" data-name="Trazado 1193280" d="M105.546,81.564l12.781-18.646a2.333,2.333,0,0,1,3.848,0l12.781,18.646a2.333,2.333,0,0,1-1.924,3.652H107.47a2.333,2.333,0,0,1-1.924-3.652Z" transform="translate(-105.134 -61.904)" fill="#fe646f"/>
        <path id="Trazado_1193281" data-name="Trazado 1193281" d="M266.826,153.48l-7.986-11.65c0,.015,0,.03,0,.044a19.81,19.81,0,0,1-7.152,15.258H264.9A2.333,2.333,0,0,0,266.826,153.48Z" transform="translate(-237.002 -133.821)" fill="#fd4755"/>
      </g>
      <path id="Trazado_1193282" data-name="Trazado 1193282" d="M474.2,22.652h3.037V53.83H474.2Z" transform="translate(-426.676 -6.75)" fill="#01d0fb"/>
      <path id="Trazado_1193283" data-name="Trazado 1193283" d="M7.5,333.783H57.3v3.239H7.5Z" transform="translate(-6.748 -286.703)" fill="#d9e7ec"/>
      <path id="Trazado_1193284" data-name="Trazado 1193284" d="M474.2,333.783h3.037v3.239H474.2Z" transform="translate(-426.676 -286.703)" fill="#c5d3dd"/>
      <path id="Trazado_1193285" data-name="Trazado 1193285" d="M185.289,366.108h14.172v9.111H185.289Z" transform="translate(-166.721 -315.789)" fill="#8d9ca8"/>
      <path id="Trazado_1193286" data-name="Trazado 1193286" d="M134.78,457.022h24.295v3.239H134.78Z" transform="translate(-121.274 -397.592)" fill="#d9e7ec"/>
      <path id="Trazado_1193287" data-name="Trazado 1193287" d="M346.915,457.022h3.037v3.239h-3.037Z" transform="translate(-312.151 -397.592)" fill="#c5d3dd"/>
      <g id="Grupo_1231340" data-name="Grupo 1231340" transform="translate(20.795 27.889)">
        <path id="Trazado_1193288" data-name="Trazado 1193288" d="M217.23,147.131a4.859,4.859,0,1,0-8.1,3.621V152.9h6.479v-2.149A4.846,4.846,0,0,0,217.23,147.131Z" transform="translate(-207.512 -142.272)" fill="#dff6fd"/>
      </g>
      <g id="Grupo_1231341" data-name="Grupo 1231341" transform="translate(0 15.15)">
        <path id="Trazado_1193289" data-name="Trazado 1193289" d="M100.747,79.218H126.31a3.084,3.084,0,0,0,2.544-4.828L116.072,55.743a3.083,3.083,0,0,0-2.544-1.34h0a3.083,3.083,0,0,0-2.544,1.34L98.2,74.389a3.084,3.084,0,0,0,2.544,4.828Zm-1.3-3.978,12.781-18.646a1.581,1.581,0,0,1,2.608,0l12.781,18.646a1.581,1.581,0,0,1-1.3,2.475H100.747a1.581,1.581,0,0,1-1.3-2.475Z" transform="translate(-87.875 -50.469)"/>
        <path id="Trazado_1193290" data-name="Trazado 1193290" d="M50.556,15.15H.752A.752.752,0,0,0,0,15.9V39.285a.752.752,0,0,0,1.5,0V16.653H49.8v5.3a.752.752,0,1,0,1.5,0V15.9A.752.752,0,0,0,50.556,15.15Z" transform="translate(0 -15.15)"/>
        <path id="Trazado_1193291" data-name="Trazado 1193291" d="M50.556,110.56a.751.751,0,0,0-.752.752v20.866H1.5v-3.536a.752.752,0,1,0-1.5,0v7.527a.752.752,0,0,0,.752.752H17.816v7.607h-4.31a.752.752,0,0,0-.752.752v3.24a.752.752,0,0,0,.752.752H37.8a.751.751,0,0,0,.752-.752v-3.24a.751.751,0,0,0-.752-.752h-4.31V136.92H50.556a.751.751,0,0,0,.752-.752V111.312a.751.751,0,0,0-.752-.752ZM31.988,144.527H27.407a.752.752,0,1,0,0,1.5h9.642v1.737H14.258V146.03H23.9a.752.752,0,1,0,0-1.5H19.319V136.92H31.988ZM1.5,135.417V133.68H49.8v1.736Z" transform="translate(0 -100.999)"/>
        <path id="Trazado_1193292" data-name="Trazado 1193292" d="M201.632,146.153a.752.752,0,0,0,.752.752h6.479a.751.751,0,0,0,.752-.752v-1.828a5.611,5.611,0,1,0-7.982,0Zm-.117-5.77a4.107,4.107,0,1,1,6.845,3.061.752.752,0,0,0-.25.56v1.4h-1.736v-.326a.752.752,0,0,0-1.5,0v.326h-1.736V144a.752.752,0,0,0-.25-.56A4.114,4.114,0,0,1,201.515,140.383Z" transform="translate(-179.969 -122.786)"/>
        <path id="Trazado_1193293" data-name="Trazado 1193293" d="M262.374,175.326a.75.75,0,0,0,.287-.057l.712-.295a.752.752,0,1,0-.574-1.389l-.712.295a.752.752,0,0,0,.288,1.446Z" transform="translate(-235.405 -157.657)"/>
        <path id="Trazado_1193294" data-name="Trazado 1193294" d="M228.728,174.973l.713.295a.752.752,0,0,0,.574-1.389l-.713-.295a.752.752,0,0,0-.574,1.389Z" transform="translate(-205.389 -157.656)"/>
        <circle id="Elipse_14902" data-name="Elipse 14902" cx="0.752" cy="0.752" r="0.752" transform="translate(24.902 18.835)"/>
      </g>
    </g>
  </g>
</svg>
