<svg xmlns="http://www.w3.org/2000/svg" xmlns:xlink="http://www.w3.org/1999/xlink" width="1240" height="389.771" viewBox="0 0 1240 389.771">
  <defs>
    <clipPath id="clip-path">
      <path id="path1947" d="M0-682.665H78.268V-604.4H0Z" transform="translate(0 682.665)"/>
    </clipPath>
  </defs>
  <g id="Grupo_1230279" data-name="Grupo 1230279" transform="translate(-180 -1290.229)">
    <g id="Grupo_1230276" data-name="Grupo 1230276">
      <g id="Grupo_1230273" data-name="Grupo 1230273">
        <g id="Grupo_1219567" data-name="Grupo 1219567" transform="translate(-2421.306 -843.042)">
          <path id="Trazado_1092052" data-name="Trazado 1092052" d="M250.677,96.131,155.1,176.5a13.579,13.579,0,0,0-5.1,10.36V412.712h217.78V186.856a13.586,13.586,0,0,0-5.1-10.36L267.106,96.131A13.226,13.226,0,0,0,250.677,96.131Z" transform="translate(3067.833 2040)" fill="#248abf"/>
          <path id="Trazado_1092054" data-name="Trazado 1092054" d="M180.092,120.638,85.073,201A13.608,13.608,0,0,0,80,211.363V377.381H296.518V211.363A13.615,13.615,0,0,0,291.445,201l-95.019-80.365A13.089,13.089,0,0,0,180.092,120.638Z" transform="translate(2933.524 2075.331)" fill="#eca675"/>
          <path id="Trazado_1092055" data-name="Trazado 1092055" d="M110.677,144.519,15.1,224.884a13.579,13.579,0,0,0-5.1,10.36V342.955H227.782V235.242a13.586,13.586,0,0,0-5.1-10.36l-95.574-80.365A13.223,13.223,0,0,0,110.677,144.519Z" transform="translate(2806.344 2109.756)" fill="#899e78"/>
          <g id="Grupo_1219555" data-name="Grupo 1219555" transform="translate(2900.164 2426.439)">
            <circle id="Elipse_12054" data-name="Elipse 12054" cx="22.873" cy="22.873" r="22.873" transform="translate(2.197 2.198)" fill="#899e78"/>
            <path id="Trazado_1092075" data-name="Trazado 1092075" d="M62.3,217.735a20.676,20.676,0,1,1-20.676,20.676A20.675,20.675,0,0,1,62.3,217.735m0-4.395a25.071,25.071,0,1,0,25.071,25.071A25.1,25.1,0,0,0,62.3,213.34Z" transform="translate(-37.232 -213.34)" fill="#fff"/>
          </g>
          <g id="Grupo_1219556" data-name="Grupo 1219556" transform="translate(3093.399 2421.63)">
            <circle id="Elipse_12055" data-name="Elipse 12055" cx="22.873" cy="22.873" r="22.873" transform="translate(0 17.507) rotate(-22.5)" fill="#eca675"/>
            <path id="Trazado_1092076" data-name="Trazado 1092076" d="M134.72,217.735a20.676,20.676,0,1,1-20.676,20.676,20.675,20.675,0,0,1,20.676-20.676m0-4.395a25.071,25.071,0,1,0,25.071,25.071A25.1,25.1,0,0,0,134.72,213.34Z" transform="translate(-104.848 -208.531)" fill="#fff"/>
          </g>
          <g id="Grupo_1219560" data-name="Grupo 1219560" transform="translate(2921.42 2443.189)">
            <path id="Trazado_1092080" data-name="Trazado 1092080" d="M49.8,223.657h-.051l-3.174,1.509-.64-2.918,4.4-2.049h3.225v16.645H49.8Z" transform="translate(-45.938 -220.2)" fill="#fff"/>
          </g>
          <g id="Grupo_1219561" data-name="Grupo 1219561" transform="translate(3138.477 2443.05)">
            <path id="Trazado_1092081" data-name="Trazado 1092081" d="M117.5,237.066V234.71l2.151-1.946c3.636-3.252,5.4-5.123,5.455-7.066,0-1.358-.82-2.432-2.74-2.432a6.034,6.034,0,0,0-3.56,1.384l-1.1-2.791a9.217,9.217,0,0,1,5.455-1.716c3.763,0,5.838,2.2,5.838,5.225,0,2.791-2.022,5.018-4.429,7.169l-1.536,1.279v.051h6.273v3.2H117.5Z" transform="translate(-138.607 -220.143)" fill="#fff"/>
          </g>
          <path id="Trazado_1092085" data-name="Trazado 1092085" d="M250.677,95.6,155.1,160.906c-3.267,2.232-5.1,5.26-5.1,8.419V352.874h217.78V169.325c0-3.157-1.835-6.185-5.1-8.419L267.106,95.6A15.677,15.677,0,0,0,250.677,95.6Z" transform="translate(3263.524 2099.838)" fill="#bca78f"/>
          <g id="Grupo_1219565" data-name="Grupo 1219565" transform="translate(3501.305 2426.439)">
            <path id="Trazado_1192365" data-name="Trazado 1192365" d="M22.873,0A22.873,22.873,0,1,1,0,22.873,22.873,22.873,0,0,1,22.873,0Z" transform="translate(2.198 2.198)" fill="#bca78f"/>
            <path id="Trazado_1092077" data-name="Trazado 1092077" d="M202.3,217.735a20.676,20.676,0,1,1-20.676,20.676A20.675,20.675,0,0,1,202.3,217.735m0-4.395a25.071,25.071,0,1,0,25.071,25.071A25.1,25.1,0,0,0,202.3,213.34Z" transform="translate(-177.232 -213.34)" fill="#fff"/>
          </g>
          <g id="Grupo_1219566" data-name="Grupo 1219566" transform="translate(3520.499 2442.908)">
            <path id="Trazado_1092082" data-name="Trazado 1092082" d="M185.887,233.194a9.16,9.16,0,0,0,3.865,1.026c2.024,0,3.047-.974,3.047-2.227,0-1.638-1.638-2.381-3.355-2.381h-1.587v-2.793h1.511c1.306-.024,2.971-.513,2.971-1.919,0-1-.82-1.741-2.459-1.741a7.586,7.586,0,0,0-3.482,1l-.794-2.818a10.437,10.437,0,0,1,5.147-1.255c3.56,0,5.53,1.87,5.53,4.148a3.99,3.99,0,0,1-3.047,3.868v.051a4.136,4.136,0,0,1,3.611,4.046c0,2.945-2.586,5.1-6.812,5.1a9.847,9.847,0,0,1-4.942-1.177Z" transform="translate(-185.093 -220.085)" fill="#fff"/>
          </g>
        </g>
        <path id="Trazado_1193783" data-name="Trazado 1193783" d="M36.149,19H28.59V6.4h7.269V8.708h-4.43v2.8h4.122v2.3H31.429V16.7h4.72Zm4.528,0H37.9V5.676h2.777ZM53.855,7.8a2.806,2.806,0,0,0-1.028-.211q-1.336,0-1.336,1.45V10h2.057v2.048H51.491V19H48.723V12.048H47.211V10h1.512V8.884a3.24,3.24,0,0,1,1-2.479,3.821,3.821,0,0,1,2.725-.94,4.785,4.785,0,0,1,1.406.176Zm6.9,4.7a2.409,2.409,0,0,0-1.169-.272,1.684,1.684,0,0,0-1.415.664,2.9,2.9,0,0,0-.51,1.806V19H54.886V10h2.777v1.67H57.7a2.4,2.4,0,0,1,2.373-1.828,1.788,1.788,0,0,1,.686.105ZM69.539,19H66.911V17.708h-.035a2.933,2.933,0,0,1-2.681,1.512,2.8,2.8,0,0,1-2.061-.743,2.661,2.661,0,0,1-.751-1.982q0-2.619,3.1-3.023l2.443-.325q0-1.477-1.6-1.477a5.46,5.46,0,0,0-3.059.958V10.536a6.881,6.881,0,0,1,1.586-.527,8.339,8.339,0,0,1,1.833-.229q3.85,0,3.85,3.841Zm-2.61-3.656v-.606l-1.635.211q-1.354.176-1.354,1.222a1.01,1.01,0,0,0,.33.778,1.266,1.266,0,0,0,.892.3,1.644,1.644,0,0,0,1.274-.541A1.952,1.952,0,0,0,66.928,15.344ZM80.29,19H77.521V17.629h-.044a3.141,3.141,0,0,1-2.751,1.591q-3.129,0-3.129-3.788V10h2.769v5.186q0,1.907,1.512,1.907a1.5,1.5,0,0,0,1.2-.523,2.109,2.109,0,0,0,.448-1.419V10H80.29Zm11.146,0H88.659V17.761h-.035a3.114,3.114,0,0,1-2.786,1.459,3.412,3.412,0,0,1-2.716-1.191A4.93,4.93,0,0,1,82.093,14.7a5.366,5.366,0,0,1,1.134-3.577A3.7,3.7,0,0,1,86.2,9.78a2.527,2.527,0,0,1,2.426,1.248h.035V5.676h2.777Zm-2.725-4.377v-.677a2.13,2.13,0,0,0-.51-1.459,1.8,1.8,0,0,0-2.769.145,3.367,3.367,0,0,0-.519,1.991,2.914,2.914,0,0,0,.5,1.828,1.779,1.779,0,0,0,2.764-.035A2.821,2.821,0,0,0,88.711,14.623Zm13.15.668H95.99q.141,1.96,2.47,1.96a4.822,4.822,0,0,0,2.61-.7v2a6.858,6.858,0,0,1-3.243.668,4.565,4.565,0,0,1-3.384-1.208,4.566,4.566,0,0,1-1.2-3.371,4.816,4.816,0,0,1,1.3-3.551,4.334,4.334,0,0,1,3.2-1.31,3.933,3.933,0,0,1,3.045,1.169,4.5,4.5,0,0,1,1.077,3.173Zm-2.575-1.705q0-1.934-1.564-1.934a1.494,1.494,0,0,0-1.156.554,2.513,2.513,0,0,0-.593,1.38ZM115.3,18.675a5.492,5.492,0,0,1-2.716.545,4.593,4.593,0,0,1-3.357-1.257,4.341,4.341,0,0,1-1.283-3.243,4.782,4.782,0,0,1,1.375-3.617A5.083,5.083,0,0,1,113,9.78a4.72,4.72,0,0,1,2.3.422v2.355a3.166,3.166,0,0,0-1.942-.65,2.559,2.559,0,0,0-1.894.7,2.607,2.607,0,0,0-.7,1.929,2.565,2.565,0,0,0,.668,1.876,2.455,2.455,0,0,0,1.837.681,3.666,3.666,0,0,0,2.03-.65Zm6.11.545a4.838,4.838,0,0,1-3.538-1.261,4.573,4.573,0,0,1-1.288-3.423,4.573,4.573,0,0,1,1.336-3.494,5.048,5.048,0,0,1,3.612-1.261,4.78,4.78,0,0,1,3.516,1.261,4.483,4.483,0,0,1,1.274,3.335,4.759,4.759,0,0,1-1.314,3.542A4.892,4.892,0,0,1,121.414,19.22Zm.07-7.312a1.852,1.852,0,0,0-1.529.677,2.984,2.984,0,0,0-.545,1.916q0,2.593,2.092,2.593,2,0,2-2.663Q123.5,11.907,121.484,11.907ZM136.823,19h-2.769V14q0-2.092-1.494-2.092a1.483,1.483,0,0,0-1.187.554,2.109,2.109,0,0,0-.466,1.406V19H128.13V10h2.777v1.424h.035a3.183,3.183,0,0,1,2.892-1.644q2.988,0,2.988,3.709ZM59.991,40.675a5.492,5.492,0,0,1-2.716.545,4.593,4.593,0,0,1-3.357-1.257,4.341,4.341,0,0,1-1.283-3.243A4.782,4.782,0,0,1,54.01,33.1a5.083,5.083,0,0,1,3.678-1.323,4.72,4.72,0,0,1,2.3.422v2.355a3.166,3.166,0,0,0-1.942-.65,2.559,2.559,0,0,0-1.894.7,2.607,2.607,0,0,0-.7,1.929,2.565,2.565,0,0,0,.668,1.876,2.455,2.455,0,0,0,1.837.681,3.666,3.666,0,0,0,2.03-.65ZM70.452,41H67.683V35.885q0-1.978-1.441-1.978a1.476,1.476,0,0,0-1.2.554,2.136,2.136,0,0,0-.457,1.406V41H61.812V27.676H64.59v5.66h.035a3.156,3.156,0,0,1,2.769-1.556q3.059,0,3.059,3.691Zm10.285-3.709H74.866q.141,1.96,2.47,1.96a4.822,4.822,0,0,0,2.61-.7v2a6.858,6.858,0,0,1-3.243.668,4.189,4.189,0,0,1-4.588-4.579,4.816,4.816,0,0,1,1.3-3.551,4.334,4.334,0,0,1,3.2-1.31,3.933,3.933,0,0,1,3.045,1.169,4.5,4.5,0,0,1,1.077,3.173Zm-2.575-1.705q0-1.934-1.564-1.934a1.494,1.494,0,0,0-1.156.554,2.513,2.513,0,0,0-.593,1.38ZM91.2,45.14H88.42V39.761h-.035a3.085,3.085,0,0,1-2.769,1.459,3.446,3.446,0,0,1-2.729-1.182,4.881,4.881,0,0,1-1.033-3.318,5.394,5.394,0,0,1,1.134-3.595,3.679,3.679,0,0,1,2.953-1.345,2.678,2.678,0,0,1,2.443,1.266h.035V32H91.2ZM88.473,36.7v-.721a2.2,2.2,0,0,0-.51-1.477,1.643,1.643,0,0,0-1.31-.6,1.7,1.7,0,0,0-1.45.725,3.359,3.359,0,0,0-.527,2.008,2.835,2.835,0,0,0,.514,1.8,1.629,1.629,0,0,0,1.34.65,1.722,1.722,0,0,0,1.411-.659A2.673,2.673,0,0,0,88.473,36.7ZM102.089,41H99.321V39.629h-.044a3.141,3.141,0,0,1-2.751,1.591q-3.129,0-3.129-3.788V32h2.769v5.186q0,1.907,1.512,1.907a1.5,1.5,0,0,0,1.2-.523,2.109,2.109,0,0,0,.448-1.419V32h2.769Zm10.426-3.709h-5.871q.141,1.96,2.47,1.96a4.822,4.822,0,0,0,2.61-.7v2a6.858,6.858,0,0,1-3.243.668,4.189,4.189,0,0,1-4.588-4.579,4.816,4.816,0,0,1,1.3-3.551,4.334,4.334,0,0,1,3.2-1.31,3.933,3.933,0,0,1,3.045,1.169,4.5,4.5,0,0,1,1.077,3.173Zm-2.575-1.705q0-1.934-1.564-1.934a1.494,1.494,0,0,0-1.156.554,2.513,2.513,0,0,0-.593,1.38Z" transform="translate(420 1530.232)" fill="#0b0a0a"/>
        <path id="Trazado_1193784" data-name="Trazado 1193784" d="M32.406,19H24.847V6.4h7.269V8.708h-4.43v2.8h4.122v2.3H27.686V16.7h4.72Zm4.528,0H34.157V5.676h2.777Zm14.8,0H49.1V17.708h-.035a2.933,2.933,0,0,1-2.681,1.512,2.8,2.8,0,0,1-2.061-.743,2.661,2.661,0,0,1-.751-1.982q0-2.619,3.1-3.023l2.443-.325q0-1.477-1.6-1.477a5.46,5.46,0,0,0-3.059.958V10.536a6.881,6.881,0,0,1,1.586-.527A8.339,8.339,0,0,1,47.88,9.78q3.85,0,3.85,3.841Zm-2.61-3.656v-.606l-1.635.211q-1.354.176-1.354,1.222a1.01,1.01,0,0,0,.33.778,1.266,1.266,0,0,0,.892.3,1.644,1.644,0,0,0,1.274-.541A1.952,1.952,0,0,0,49.119,15.344Zm7.622,2.61h-.035V19H53.929V5.676h2.777v5.678h.035A3.3,3.3,0,0,1,59.668,9.78a3.211,3.211,0,0,1,2.681,1.2,5.155,5.155,0,0,1,.94,3.27,5.582,5.582,0,0,1-1.1,3.612,3.579,3.579,0,0,1-2.936,1.362A2.836,2.836,0,0,1,56.741,17.954Zm-.079-3.8v.923a2.107,2.107,0,0,0,.5,1.441,1.63,1.63,0,0,0,1.283.571,1.7,1.7,0,0,0,1.472-.734,3.543,3.543,0,0,0,.523-2.079,2.819,2.819,0,0,0-.479-1.745,1.616,1.616,0,0,0-1.367-.628,1.766,1.766,0,0,0-1.384.624A2.37,2.37,0,0,0,56.662,14.157ZM73.645,19H70.876V17.629h-.044a3.141,3.141,0,0,1-2.751,1.591q-3.129,0-3.129-3.788V10h2.769v5.186q0,1.907,1.512,1.907a1.5,1.5,0,0,0,1.2-.523,2.109,2.109,0,0,0,.448-1.419V10h2.769Zm1.751-.237v-2.25a5.913,5.913,0,0,0,1.367.615,4.531,4.531,0,0,0,1.288.2,2.762,2.762,0,0,0,1.165-.2.653.653,0,0,0,.426-.615.569.569,0,0,0-.193-.439,1.8,1.8,0,0,0-.5-.308,5.635,5.635,0,0,0-.664-.237q-.36-.105-.694-.237a6.653,6.653,0,0,1-.945-.435,2.731,2.731,0,0,1-.686-.541,2.125,2.125,0,0,1-.422-.712,2.841,2.841,0,0,1-.145-.958,2.466,2.466,0,0,1,.33-1.3,2.692,2.692,0,0,1,.879-.892,4.016,4.016,0,0,1,1.257-.51,6.553,6.553,0,0,1,1.472-.163,8.168,8.168,0,0,1,1.213.092,9.053,9.053,0,0,1,1.213.268v2.145a4.383,4.383,0,0,0-1.129-.461,4.764,4.764,0,0,0-1.182-.154,2.619,2.619,0,0,0-.514.048,1.693,1.693,0,0,0-.426.141.783.783,0,0,0-.29.237.546.546,0,0,0-.105.33.609.609,0,0,0,.158.422,1.374,1.374,0,0,0,.413.3,4.078,4.078,0,0,0,.567.229q.312.1.62.207a8.056,8.056,0,0,1,1,.422,3.2,3.2,0,0,1,.769.536,2.105,2.105,0,0,1,.492.721,2.884,2.884,0,0,1-.176,2.351,2.78,2.78,0,0,1-.923.923,4.185,4.185,0,0,1-1.327.519,7.357,7.357,0,0,1-1.56.163A8.042,8.042,0,0,1,75.4,18.763Zm12.8.457a4.838,4.838,0,0,1-3.538-1.261,4.573,4.573,0,0,1-1.288-3.423A4.573,4.573,0,0,1,84.7,11.042,5.048,5.048,0,0,1,88.317,9.78a4.78,4.78,0,0,1,3.516,1.261,4.483,4.483,0,0,1,1.274,3.335,4.759,4.759,0,0,1-1.314,3.542A4.892,4.892,0,0,1,88.194,19.22Zm.07-7.312a1.852,1.852,0,0,0-1.529.677A2.984,2.984,0,0,0,86.19,14.5q0,2.593,2.092,2.593,2,0,2-2.663Q90.277,11.907,88.264,11.907ZM108.685,19h-2.777V17.761h-.035a3.114,3.114,0,0,1-2.786,1.459,3.412,3.412,0,0,1-2.716-1.191A4.93,4.93,0,0,1,99.342,14.7a5.366,5.366,0,0,1,1.134-3.577,3.7,3.7,0,0,1,2.971-1.345,2.527,2.527,0,0,1,2.426,1.248h.035V5.676h2.777Zm-2.725-4.377v-.677a2.13,2.13,0,0,0-.51-1.459,1.8,1.8,0,0,0-2.769.145,3.367,3.367,0,0,0-.519,1.991,2.914,2.914,0,0,0,.5,1.828,1.779,1.779,0,0,0,2.764-.035A2.821,2.821,0,0,0,105.96,14.623Zm13.15.668h-5.871q.141,1.96,2.47,1.96a4.822,4.822,0,0,0,2.61-.7v2a6.858,6.858,0,0,1-3.243.668,4.565,4.565,0,0,1-3.384-1.208,4.566,4.566,0,0,1-1.2-3.371,4.816,4.816,0,0,1,1.3-3.551,4.334,4.334,0,0,1,3.2-1.31,3.933,3.933,0,0,1,3.045,1.169,4.5,4.5,0,0,1,1.077,3.173Zm-2.575-1.705q0-1.934-1.564-1.934a1.494,1.494,0,0,0-1.156.554,2.513,2.513,0,0,0-.593,1.38ZM38.767,40.675a5.492,5.492,0,0,1-2.716.545,4.593,4.593,0,0,1-3.357-1.257A4.341,4.341,0,0,1,31.41,36.72,4.782,4.782,0,0,1,32.786,33.1a5.083,5.083,0,0,1,3.678-1.323,4.72,4.72,0,0,1,2.3.422v2.355a3.166,3.166,0,0,0-1.942-.65,2.559,2.559,0,0,0-1.894.7,2.607,2.607,0,0,0-.7,1.929,2.565,2.565,0,0,0,.668,1.876,2.455,2.455,0,0,0,1.837.681,3.666,3.666,0,0,0,2.03-.65Zm6.11.545a4.838,4.838,0,0,1-3.538-1.261,4.573,4.573,0,0,1-1.288-3.423,4.573,4.573,0,0,1,1.336-3.494A5.048,5.048,0,0,1,45,31.78a4.78,4.78,0,0,1,3.516,1.261,4.483,4.483,0,0,1,1.274,3.335,4.759,4.759,0,0,1-1.314,3.542A4.892,4.892,0,0,1,44.877,41.22Zm.07-7.312a1.852,1.852,0,0,0-1.529.677,2.984,2.984,0,0,0-.545,1.916q0,2.593,2.092,2.593,2,0,2-2.663Q46.96,33.907,44.947,33.907ZM60.286,41H57.517V36q0-2.092-1.494-2.092a1.483,1.483,0,0,0-1.187.554,2.109,2.109,0,0,0-.466,1.406V41H51.594V32h2.777v1.424h.035A3.183,3.183,0,0,1,57.3,31.78q2.988,0,2.988,3.709Zm8.07-11.2a2.806,2.806,0,0,0-1.028-.211q-1.336,0-1.336,1.45V32h2.057v2.048H65.992V41H63.223V34.048H61.712V32h1.512V30.884a3.24,3.24,0,0,1,1-2.479,3.821,3.821,0,0,1,2.725-.94,4.785,4.785,0,0,1,1.406.176Zm2.436.773a1.622,1.622,0,0,1-1.151-.417,1.345,1.345,0,0,1-.448-1.024,1.3,1.3,0,0,1,.448-1.02,1.88,1.88,0,0,1,2.307,0,1.3,1.3,0,0,1,.444,1.02,1.34,1.34,0,0,1-.444,1.037A1.65,1.65,0,0,1,70.792,30.576ZM72.164,41H69.386V32h2.777Zm9.828,0H79.364V39.708h-.035a2.933,2.933,0,0,1-2.681,1.512,2.8,2.8,0,0,1-2.061-.743,2.661,2.661,0,0,1-.751-1.982q0-2.619,3.1-3.023l2.443-.325q0-1.477-1.6-1.477a5.46,5.46,0,0,0-3.059.958V32.536a6.881,6.881,0,0,1,1.586-.527,8.339,8.339,0,0,1,1.833-.229q3.85,0,3.85,3.841Zm-2.61-3.656v-.606l-1.635.211q-1.354.176-1.354,1.222a1.01,1.01,0,0,0,.33.778,1.266,1.266,0,0,0,.892.3,1.644,1.644,0,0,0,1.274-.541A1.952,1.952,0,0,0,79.381,37.344ZM92.883,41H90.114V36q0-2.092-1.494-2.092a1.483,1.483,0,0,0-1.187.554,2.109,2.109,0,0,0-.466,1.406V41H84.191V32h2.777v1.424H87a3.183,3.183,0,0,1,2.892-1.644q2.988,0,2.988,3.709Zm9.327,0H94.133V39.849l4.518-5.8H94.581V32h7.594v1.371l-4.28,5.581h4.315Zm8.984,0h-2.628V39.708h-.035a2.933,2.933,0,0,1-2.681,1.512,2.8,2.8,0,0,1-2.061-.743,2.661,2.661,0,0,1-.751-1.982q0-2.619,3.1-3.023l2.443-.325q0-1.477-1.6-1.477a5.46,5.46,0,0,0-3.059.958V32.536a6.881,6.881,0,0,1,1.586-.527,8.339,8.339,0,0,1,1.833-.229q3.85,0,3.85,3.841Zm-2.61-3.656v-.606l-1.635.211q-1.354.176-1.354,1.222a1.01,1.01,0,0,0,.33.778,1.266,1.266,0,0,0,.892.3,1.644,1.644,0,0,0,1.274-.541A1.952,1.952,0,0,0,108.584,37.344Z" transform="translate(635.672 1525.232)" fill="#212429"/>
        <path id="Trazado_1193785" data-name="Trazado 1193785" d="M21.923,19H14.417V6.4h2.839V16.7h4.667Zm8.914,0H28.209V17.708h-.035a2.933,2.933,0,0,1-2.681,1.512,2.8,2.8,0,0,1-2.061-.743,2.661,2.661,0,0,1-.751-1.982q0-2.619,3.1-3.023l2.443-.325q0-1.477-1.6-1.477a5.46,5.46,0,0,0-3.059.958V10.536a6.881,6.881,0,0,1,1.586-.527,8.339,8.339,0,0,1,1.833-.229q3.85,0,3.85,3.841Zm-2.61-3.656v-.606l-1.635.211q-1.354.176-1.354,1.222a1.01,1.01,0,0,0,.33.778,1.266,1.266,0,0,0,.892.3,1.644,1.644,0,0,0,1.274-.541A1.952,1.952,0,0,0,28.227,15.344ZM46.556,19H43.787V17.629h-.044a3.141,3.141,0,0,1-2.751,1.591q-3.129,0-3.129-3.788V10h2.769v5.186q0,1.907,1.512,1.907a1.5,1.5,0,0,0,1.2-.523,2.109,2.109,0,0,0,.448-1.419V10h2.769Zm1.751-.237v-2.25a5.913,5.913,0,0,0,1.367.615,4.531,4.531,0,0,0,1.288.2,2.762,2.762,0,0,0,1.165-.2.653.653,0,0,0,.426-.615.569.569,0,0,0-.193-.439,1.8,1.8,0,0,0-.5-.308,5.635,5.635,0,0,0-.664-.237q-.36-.105-.694-.237a6.653,6.653,0,0,1-.945-.435,2.731,2.731,0,0,1-.686-.541,2.125,2.125,0,0,1-.422-.712,2.841,2.841,0,0,1-.145-.958,2.466,2.466,0,0,1,.33-1.3,2.692,2.692,0,0,1,.879-.892,4.016,4.016,0,0,1,1.257-.51,6.553,6.553,0,0,1,1.472-.163,8.168,8.168,0,0,1,1.213.092,9.053,9.053,0,0,1,1.213.268v2.145a4.383,4.383,0,0,0-1.129-.461,4.764,4.764,0,0,0-1.182-.154,2.619,2.619,0,0,0-.514.048,1.693,1.693,0,0,0-.426.141.783.783,0,0,0-.29.237.546.546,0,0,0-.105.33.609.609,0,0,0,.158.422,1.374,1.374,0,0,0,.413.3,4.078,4.078,0,0,0,.567.229q.312.1.62.207a8.056,8.056,0,0,1,1,.422,3.2,3.2,0,0,1,.769.536,2.105,2.105,0,0,1,.492.721,2.884,2.884,0,0,1-.176,2.351,2.78,2.78,0,0,1-.923.923,4.185,4.185,0,0,1-1.327.519,7.357,7.357,0,0,1-1.56.163A8.042,8.042,0,0,1,48.306,18.763ZM65.368,19H62.6V17.629h-.044A3.141,3.141,0,0,1,59.8,19.22q-3.129,0-3.129-3.788V10h2.769v5.186q0,1.907,1.512,1.907a1.5,1.5,0,0,0,1.2-.523A2.109,2.109,0,0,0,62.6,15.15V10h2.769Zm8.211-6.5a2.409,2.409,0,0,0-1.169-.272,1.684,1.684,0,0,0-1.415.664,2.9,2.9,0,0,0-.51,1.806V19H67.708V10h2.777v1.67h.035a2.4,2.4,0,0,1,2.373-1.828,1.788,1.788,0,0,1,.686.105Zm4.106,5.449H77.65V23.14H74.872V10H77.65v1.354h.035a3.534,3.534,0,0,1,5.594-.374,5.108,5.108,0,0,1,.954,3.265,5.537,5.537,0,0,1-1.112,3.612,3.625,3.625,0,0,1-2.958,1.362A2.8,2.8,0,0,1,77.685,17.954Zm-.079-3.691v.721A2.291,2.291,0,0,0,78.1,16.5a1.6,1.6,0,0,0,1.292.589,1.7,1.7,0,0,0,1.472-.734,3.543,3.543,0,0,0,.523-2.079q0-2.373-1.846-2.373a1.733,1.733,0,0,0-1.393.646A2.576,2.576,0,0,0,77.606,14.263ZM93.349,19H90.721V17.708h-.035a2.933,2.933,0,0,1-2.681,1.512,2.8,2.8,0,0,1-2.061-.743,2.661,2.661,0,0,1-.751-1.982q0-2.619,3.1-3.023l2.443-.325q0-1.477-1.6-1.477a5.46,5.46,0,0,0-3.059.958V10.536a6.881,6.881,0,0,1,1.586-.527A8.339,8.339,0,0,1,89.5,9.78q3.85,0,3.85,3.841Zm-2.61-3.656v-.606l-1.635.211q-1.354.176-1.354,1.222a1.01,1.01,0,0,0,.33.778,1.266,1.266,0,0,0,.892.3,1.644,1.644,0,0,0,1.274-.541A1.952,1.952,0,0,0,90.738,15.344Zm11.63,3.331a5.492,5.492,0,0,1-2.716.545,4.593,4.593,0,0,1-3.357-1.257,4.341,4.341,0,0,1-1.283-3.243A4.782,4.782,0,0,1,96.387,11.1a5.083,5.083,0,0,1,3.678-1.323,4.72,4.72,0,0,1,2.3.422v2.355a3.166,3.166,0,0,0-1.942-.65,2.559,2.559,0,0,0-1.894.7,2.607,2.607,0,0,0-.7,1.929,2.565,2.565,0,0,0,.668,1.876,2.455,2.455,0,0,0,1.837.681,3.666,3.666,0,0,0,2.03-.65Zm3.227-10.1a1.622,1.622,0,0,1-1.151-.417A1.345,1.345,0,0,1,104,7.135a1.3,1.3,0,0,1,.448-1.02,1.88,1.88,0,0,1,2.307,0,1.3,1.3,0,0,1,.444,1.02,1.34,1.34,0,0,1-.444,1.037A1.65,1.65,0,0,1,105.6,8.576ZM106.967,19h-2.777V10h2.777Zm6.629.22a4.838,4.838,0,0,1-3.538-1.261,4.573,4.573,0,0,1-1.288-3.423,4.573,4.573,0,0,1,1.336-3.494,5.048,5.048,0,0,1,3.612-1.261,4.78,4.78,0,0,1,3.516,1.261,4.483,4.483,0,0,1,1.274,3.335,4.759,4.759,0,0,1-1.314,3.542A4.892,4.892,0,0,1,113.6,19.22Zm.07-7.312a1.852,1.852,0,0,0-1.529.677,2.984,2.984,0,0,0-.545,1.916q0,2.593,2.092,2.593,2,0,2-2.663Q115.678,11.907,113.666,11.907Zm2.979-6.17-2.751,2.839h-2l2.285-2.839ZM129,19h-2.769V14q0-2.092-1.494-2.092a1.483,1.483,0,0,0-1.187.554,2.109,2.109,0,0,0-.466,1.406V19H120.3V10h2.777v1.424h.035a3.183,3.183,0,0,1,2.892-1.644Q129,9.78,129,13.489Z" transform="translate(1034 1536.232)" fill="#0b0a0a"/>
        <g id="Grupo_1230270" data-name="Grupo 1230270" transform="translate(-3998.658 -527.581)">
          <path id="Trazado_1192367" data-name="Trazado 1192367" d="M1203.94,1166.822c1.6,4.387,2.011,9.014,2.39,13.59a48.629,48.629,0,0,1-4.215,25.378c-7.481,15.631-19.817,24.372-37.311,25.477-.73.046-2.005-.632-2.11.963a27.234,27.234,0,0,0-6.248-1.229c-1.161-.04-2.262-.287-3.244.588-.448.4-1.021.37-1.2-.254-.535-1.819-2.148-2.161-3.587-2.751-1.2-.491-2.367-1.031-3.508-1.635-.824-.436-1.372-.38-1.429.711a4.612,4.612,0,0,1-.194,1.272c-.12.349-.293.715-.705.687-.273-.019-.451-.318-.584-.581a1.883,1.883,0,0,1-.292-.8c.044-3.009-1.946-4.734-3.954-6.519-1.125-1-2.495-1.676-3.474-2.866a43.472,43.472,0,0,0-3.184-3.514c-.166,3.329-.055,6.167-.089,9a29,29,0,0,1-.062,3.009c-.073.627-.089,1.422-.889,1.535-.864.123-1.031-.687-1.139-1.288a37.711,37.711,0,0,1-.769-7.675c.123-4.654,0-9.151-2.339-13.524a51.456,51.456,0,0,1-5.482-18.878.973.973,0,0,1,.187-.6,1.915,1.915,0,0,1,1.635-.265c4.973,1.2,9.99,2.2,14.96,3.4,1.489.807,2.328,2.3,3.553,3.4a13,13,0,0,0,11.971,3.119,12.852,12.852,0,0,0,5.163-2.639c5.154-4.26,6.66-9.774,5.641-16.193-.265-1.67-.981-2.026-2.491-1.287-.855.418-1.813,1-2.806.192a42.124,42.124,0,0,1-1.021-6.125c-.91-5.306-2.453-10.465-3.611-15.713a5.448,5.448,0,0,0-.8-1.984,2.27,2.27,0,0,0-4.031.182,6.42,6.42,0,0,0-.723,4.17,35.377,35.377,0,0,1,.272,6.221c-.018,4.26-1.727,6.245-5.971,7a5.271,5.271,0,0,1-1.891-.313c-.882-.3-1.934-.508-2.177-1.528-.23-.966.841-1.19,1.4-1.684.439-.39,1.054-.883.933-1.37-.63-2.531,1.038-5.031.013-7.551a3.381,3.381,0,0,1-.182-2.726c1-2.012.635-4.023.341-6.084-.516-3.613.477-4.851,4.049-4.816,2.006.019,3.653-.316,4.725-2.211.464-.819,1.454-1.12,2.5-1.974-1.558.45-2.675,1.108-3.949,1-.829-.071-1.971.171-2.2-.86-.24-1.1.9-1.309,1.689-1.551a8.7,8.7,0,0,0,3.01-1.591c1.909-1.554,1.921-1.638-.009-3.19a1.778,1.778,0,0,1,.6-1.321c1.2-1.493,1.847-3.055.762-4.909a1,1,0,0,1,.017-1.025c6.094-2.787,12.548-4.646,18.675-7.4,3.528-1.588,7.355-2.756,10.864-4.361,3.288-1.5,6.95-2.259,9.9-4.455a10.812,10.812,0,0,1,3.573-1.367c2.591-.79,4.805-2.482,7.5-2.959a2.89,2.89,0,0,0,1.558-.687c2.333-2.293,5.4-2.942,8.378-3.8a9.891,9.891,0,0,0,2.976-1.212c2.941-2.055,6.344-2.922,9.708-3.874,1.891-.535,2.594.15,2.661,2.31-2.029,6.373-4,12.764-6.1,19.115-3.66,11.083-7.545,22.095-11.027,33.233-1.364,4.361-4.349,6.271-8.3,7.416-1,1.483-2.709,1.821-4.182,2.458-9.054,3.913-18.242,7.5-27.371,11.238-.926.379-1.782.914-2.722,1.271a1.84,1.84,0,0,0-1.236,1.836,29.259,29.259,0,0,0,.214,6.422,7.4,7.4,0,0,0,7.141,6.3c2.332.2,4.347,1.578,6.858,1.374,3.773-.307,6.976-1.99,10.294-3.455a3.218,3.218,0,0,0,1.528-1.478c1.545-3.207,4.458-5.373,6.276-8.369a5.66,5.66,0,0,0,.949-2.365c.223-2.3,2.144-4.019,2.122-6.456C1202.113,1166.617,1203.051,1166.194,1203.94,1166.822Z" transform="translate(3804.482 955.421)" fill="#18212e"/>
          <path id="Trazado_1192368" data-name="Trazado 1192368" d="M681.383,1218.744c1.17-8.943,2.293-17.894,3.553-26.824a18.788,18.788,0,0,1,.889-5.02,2.808,2.808,0,0,0,.711-1.765c1.1-10.321,2.563-20.6,3.321-30.964a261.675,261.675,0,0,0,.249-26.863c-.217-7.361-1.418-14.686-2.559-21.98a17.924,17.924,0,0,1,.472-6.986,57.6,57.6,0,0,0,1.3-11.939,87,87,0,0,0-.335-13.745,14.526,14.526,0,0,1-.028-2.793c.122-2.251.608-2.793,2.853-2.85q5.483-.14,10.968-.011c4.3.108,8.6-.13,12.9,0,1.325.039,2.651.117,2.974,1.811a4.436,4.436,0,0,1-.489,2.9c-.868,2.2-1.57,4.464-2.3,6.715-.675,2.095-.489,2.568,1.623,3.446,3.574,1.486,7.308,2.552,10.881,4.047.331.138.678.236,1,.384,1.623.738,1.739,1.252.467,2.45a4.032,4.032,0,0,0-1.431,1.821c-.832.675-1.79.165-2.682.293-3.32-.385-6.51-1.739-10.006-1.338.693.311,1.452.482,1.434,1.412-.217,1.288-1.169,2.455-.632,3.871,3.632,14.976,7.3,29.939,10.6,44.99.46,2.094,1.07,4.161,1.578,6.248.209.86.971,1.977-.075,2.515-1.131.582-1.391-.843-2.109-1.6.062,2.083.33,4.008.391,5.945.2,6.385-.579,12.736-.5,19.119.078,6,.561,12,.1,18.022a63.053,63.053,0,0,0,.281,11.161c.536,5.293-.406,10.583-.4,15.884a8.958,8.958,0,0,1-.972,2.853,6.475,6.475,0,0,1-2.745.384q-17.816.014-35.632,0a19.247,19.247,0,0,1-4.044-.463C682.329,1219.723,681.523,1219.687,681.383,1218.744Z" transform="translate(4146.676 978.385)" fill="#28303d"/>
          <path id="Trazado_1192369" data-name="Trazado 1192369" d="M530.963,986.686c-.273-1.272-.911-1.774-2.352-1.757q-12.139.137-24.279,0c-1.81-.022-2.227.652-2.1,2.255.411,5.209.456,10.429.478,15.653.017,4.016-.034,8.242-1.156,11.868-1.724,5.572.042,10.549.579,15.775.494,4.817,1.2,9.632,1.343,14.462.228,7.452.326,14.929-.017,22.372q-.461,10.009-1.887,19.981c-.732,5.062-.928,10.207-1.921,15.245-.136.69.333,1.944-1.208,1.65a4.158,4.158,0,0,1,.4-2.677c-3.327.667-6.218,1.843-9.3,2.327a40.415,40.415,0,0,1-41.588-20.025c-6.078-10.526-7.858-21.754-6.5-33.688,1.37-12.015,3.727-23.781,8.245-35.042a40.149,40.149,0,0,1,6.089-10.791c2.7.14,3.047,2.209,3.476,4.219a29.83,29.83,0,0,1,.134,4.725c-.04,1.432.115,2.871,0,4.3-.581,7.069,5.464,11.065,11.779,11.009,3.988-.035,7.83-.992,10.569-4.394a6.589,6.589,0,0,0,1.729-4.069c.064-5.012.181-10.026-.039-15.038a46.524,46.524,0,0,1-.287-9.84c.3-1.283.888-1.647,1.81-.493.8,1.007,1.6,2.588,2.871,2.223,1.15-.329,1.269-2.138,1.565-3.342.637-2.6,1.938-4.933,2.682-7.48.281-.961.71-2.062,2.081-1.517,1.293.515,1.322,1.57.823,2.689a84.881,84.881,0,0,0-3.635,10.786,2.863,2.863,0,0,0,.341,2.826,52.15,52.15,0,0,1,7.139,11.973A50.522,50.522,0,0,0,499.876,999a125.525,125.525,0,0,0-1.669-17.507c-1.062-5.409-2.1-10.829-3.62-16.138-.25-.87-.691-1.772-.08-2.684.789-.516,1.188-1.492,2.139-1.817a43.708,43.708,0,0,1,2.759,9.613c.595,3.168,1.608,6.226,2.215,9.382.292,1.518,1.288,1.89,2.653,1.867,9.21-.154,18.425.331,27.631-.27a.884.884,0,0,1,.577.222A5.365,5.365,0,0,1,530.963,986.686Z" transform="translate(4334.06 1061.091)" fill="#18212e"/>
          <path id="Trazado_1192370" data-name="Trazado 1192370" d="M829.05,379.039a58.461,58.461,0,0,1,5.689,20.885c.643,6.41.418,12.864,1.218,19.257.916,7.32,3.3,14.233,5.79,21.123,2.207,6.108,4.12,12.316,3.64,18.9-.551,7.57-2.648,14.527-9.009,19.455a10.334,10.334,0,0,1-5.995,2.381c14.342-9.838,14.156-27.47,8.222-40.034-.292,2.8.571,5.133.964,7.447,2.747,16.2-4.6,29.969-20.289,35.221A73.554,73.554,0,0,1,804,486.649a2.991,2.991,0,0,0-1.994.56c-.032.032-.043.148-.024.159.123.072.256.126.385.186-1.152,1.717-2.507.356-3.781.253-2.068-2.155-2.324-5.136-3.5-7.7-.442-3.56-.05-7.139-.244-10.978-4.014,3.817-8.475,6.554-14,6.65-5.622.1-10.084-2.731-14.25-6.593-.541,3.854.328,7.519-.58,11.071-1.214,2.793-1.791,5.843-3.409,8.474-1.347.25-2.71.534-3.262-1.268-.324-.768-.325-.746-1.433-.82-7.369-.492-14.524-1.839-21.218-5.15-9.18-4.541-15.23-11.609-17.57-21.66a28.33,28.33,0,0,1-.608-9.344c.857-.15,1.08.538,1.384,1.08.537.956,1.256.955,1.9.24a9.055,9.055,0,0,0,2.51-7.587c-.226-1.5-.031-2.579,1.337-3.213,1.759-.815,1.936-2.167,1.4-3.751a9.866,9.866,0,0,1-.453-4.649c.06-.422.17-.979.638-1.012.649-.045.7.6.782,1.069a10.98,10.98,0,0,0,.344,2.324c1.093,5.744,6.441,10.933,12.753,10.092,3.5-.467,4.989,1.022,6.438,3.957,4.76,9.64,13.105,15.036,23.1,17.892,13.144,3.754,24.922.509,35.461-7.868a29.325,29.325,0,0,0,9.086-12.054,2.6,2.6,0,0,1,2.946-1.91,29.318,29.318,0,0,0,4.3.03c8.154-.4,13.389-9.833,9.429-16.973a7.7,7.7,0,0,0-9.968-3.391,4.862,4.862,0,0,1-3.072.73,65.584,65.584,0,0,1-23.778-9.615,5.969,5.969,0,0,0-2.585-.973c-9.365-1.234-16.794-5.877-22.738-13.058a48.883,48.883,0,0,1-4.021-5.585,4.684,4.684,0,0,1-1.09-2.965c.489-1.171,1.758-1.376,2.624-2.084.607-.5,1.036.039,1.4.508A33.8,33.8,0,0,0,785,408.663c-4.69-2.343-8.076-6.185-11.592-9.873-.485-.509-1.047-1.015-.871-1.852,1.118-.178,1.118-.178.7-1.543a5.729,5.729,0,0,1-.164-2.768,26.73,26.73,0,0,0,.344-4.711c.013-.994-.075-2.155,1.122-2.55,1.111-.367,1.646.619,2.242,1.31a24.739,24.739,0,0,0,9.434,7.3,5.915,5.915,0,0,0,7.152-2.773,3.179,3.179,0,0,0-.286-2.893,9.537,9.537,0,0,1-1.04-3.483,1.423,1.423,0,0,1,.543-1.531c.71-.4,1.269.06,1.681.556,1.423,1.716,3.087,3.2,4.584,4.84a19.929,19.929,0,0,0,5.3,3.977c4.381,2.394,6.535,1.345,9.876-1.171,2.04-1.536,4.06-3.365,3.987-6.478-.035-1.507,1.594-2.784.93-4.559-.15-.4.316-.922.854-1.1,1.844.943,2.283,2.988,3.48,4.44.523.635.831,1.671,1.871,1.494,1.023-.175,1.071-1.2,1.29-2.012.106-.333.218-.76.573-.807,1.3-.174,1.518-.936,1.339-2.074C828.27,379.856,828.028,379.076,829.05,379.039Z" transform="translate(4117.843 1514.676)" fill="#18212e"/>
          <path id="Trazado_1192371" data-name="Trazado 1192371" d="M885.091,837.238l3.027,7.372c1.363,1.487,1.722,3.445,2.341,5.247,5.56,16.186,10.628,32.54,16.646,48.569,1.107,2.947.73,3.906-2.2,5.2-3.93,1.739-7.967,3.218-11.979,4.759a4.3,4.3,0,0,0-1.371.7c2.694.772,5.3,1.3,7.834,2.079a54.423,54.423,0,0,1,11.183,4.366c1.078.614,2.409,1.078,2.618,2.607a5.039,5.039,0,0,0-2.762,1.405c-1.766.413-3.089-.79-4.559-1.343-2.469-.929-4.995-1.685-7.517-2.4a40.771,40.771,0,0,0-4.87-1.264c7.511,2.2,15.5,3.555,21.672,9.269l.073.066c.048.684-.368.955-.956,1.076a8.881,8.881,0,0,1-1.634-.274,62.856,62.856,0,0,0-14.05-3.628c-5.18-.607-10.2-2-15.347-2.779a59.146,59.146,0,0,0-8.117-.3A92.588,92.588,0,0,1,864,915.68c-4.878-1.129-9.792-2.092-14.651-3.3-.89-.222-1.86-.283-2.476-1.118-.02-.38-1.4-.31-.327-1.074.792-.563,1.512-1.228,2.5-2.04-3.952-1.43-7.688-2.819-11.45-4.135-5.063-1.772-5.066-1.746-3.3-6.761.823-2.336,1.621-4.681,2.431-7.022l1.446-4.656a9.423,9.423,0,0,1,.549-3.107q5.992-16.957,11.644-34.031c.309-.93.457-1.976,1.422-2.552,1.2-2.89,1.983-5.947,3.433-8.74,1.159-.154,1.8.754,2.6,1.306a32.829,32.829,0,0,0,10.308,5.188,7.278,7.278,0,0,0,4.418-.114,46.272,46.272,0,0,0,10.3-5.284C883.522,837.784,884.079,836.976,885.091,837.238Z" transform="translate(4028.298 1157.551)" fill="#fdfdfd"/>
          <path id="Trazado_1192372" data-name="Trazado 1192372" d="M829.562,276.241c-.515.385-.32.84-.193,1.343.383,1.52.462,2.871-1.812,2.518a3.134,3.134,0,0,0-.2.572c-.94-.145-1.124-.989-1.474-1.647a15.45,15.45,0,0,0-2.341-3.506c-.479-.5-.952-1.135-1.752-1.021-.95.135-.835.99-.972,1.657a.831.831,0,0,1-.333.516c-.164.23-.511.509-.464.683.654,2.461-1.381,4.413-1.24,6.8a3.351,3.351,0,0,1-1.7,2.955c-1.617,1.2-2.851,2.8-4.781,3.762a7.143,7.143,0,0,1-5.957.415c-4.968-1.808-8.261-5.709-11.637-9.49-.407-.456-.67-1.332-1.426-.936-.526.275-.277,1.035-.151,1.59a2.826,2.826,0,0,0,.306,1.02c2.788,3.846.531,6.264-2.34,8.578a2.912,2.912,0,0,1-3.016.25c-4.766-1.463-8.351-4.55-11.432-8.323-.4-.489-.669-1.268-1.431-1.066-.908.242-.7,1.129-.715,1.819a23.974,23.974,0,0,1-.39,5.33c-.475,1.939.607,3.543,1.647,5.16-1.14.066-1.538-1.2-2.552-.994-1.516-.1-1.907-1.433-2.6-2.412-.613-.865-.878-1.963-1.767-2.648-.3-.1-.524-.776-.768-.416-.677,1-1.9,1.07-2.7,1.814a1.429,1.429,0,0,1-1.316-.952,38.244,38.244,0,0,1-3.664-11.187c-.037-.266-.068-.585.233-.74-3.671,8.839-8.043,17.369-12.287,25.961a34.862,34.862,0,0,1-3.381,5.975,12.971,12.971,0,0,0-2.613,9.449c.083,1.056.4,2.355-.957,3.035a4.641,4.641,0,0,1-1.88-.375c-5.626-1.573-10.026,1.58-10.45,7.458-.074,1.028.3,2.186-.7,3.009-.721-.865-.131-1.949-.646-3.363-.131,2.079-.316,3.633.344,5.228,1,2.413.543,3.417-1.82,4.666-.907.479-1.531,1.113-.927,2.229a3.575,3.575,0,0,1-.144,3.56c-.582,1.288-.585,2.7-1.622,4.033A3.8,3.8,0,0,1,721,350.359c-1.215.089-1.008-1.3-1.362-2.1-.1-.235-.4-.383-.615-.571-.013-6.208,1.733-12.063,3.65-17.87a108.977,108.977,0,0,0,4.971-26.942c.729-10.658,2.322-21.136,8.352-30.4,4.507-6.926,10.376-12.053,18.521-13.924a11.774,11.774,0,0,0,6.127-3.623,25.945,25.945,0,0,1,16.265-7.414c20.3-2.075,36.449,5.543,48.756,21.6A29.33,29.33,0,0,1,829.562,276.241Z" transform="translate(4117.331 1617.474)" fill="#27303d"/>
          <path id="Trazado_1192373" data-name="Trazado 1192373" d="M1107.366,944.3c-3.952-3.434-8.865-4.826-13.7-6.327-3.168-.984-6.428-1.669-10.212-2.632,3.087-1.2,5.738-2.214,8.38-3.255,2.324-.915,4.646-1.839,6.955-2.793,2.9-1.2,3.02-1.5,1.943-4.4-3.438-9.249-6.593-18.6-9.724-27.951-2.83-8.456-5.7-16.9-8.553-25.348a6.647,6.647,0,0,1-.17-.824c1.274-.442,2.514.984,3.8.07,14.72,4.224,29.154,9.224,42.269,17.289,9.3,5.716,15.631,14.327,21.354,23.4a96.951,96.951,0,0,1,4.805,8.849c.672,1.359.654,2.029-1.056,2.5a119.9,119.9,0,0,0-20.2,7.635c-6.813,3.3-13.17,7.265-17.352,13.887-.532.843-.916,1.778-1.394,2.657-1,1.841-2,1.986-3.494.526A20.137,20.137,0,0,0,1107.366,944.3Z" transform="translate(3834.127 1131.381)" fill="#26303b"/>
          <path id="Trazado_1192374" data-name="Trazado 1192374" d="M742.77,871.916q-6.667,19.687-13.34,39.372c-.042.123-.181.213-.275.318a16.409,16.409,0,0,1-3.231.38c-8.525-.036-17.052-.071-25.576.025-1.747.02-2.3-.641-2.672-2.217-1.3-5.472-2.247-11.031-3.951-16.4a10.447,10.447,0,0,1-.332-2.963c8.282-5.994,17.684-9.72,27.1-13.435,5.893-2.325,11.916-4.268,17.917-6.276a2,2,0,0,1,1.464-.092C740.5,871.826,741.963,871.128,742.77,871.916Z" transform="translate(4137.314 1131.515)" fill="#28303d"/>
          <path id="Trazado_1192375" data-name="Trazado 1192375" d="M1112.535,1505.415c1.428,2.359.792,5.153,1.665,7.668,1.649,4.756,2.773,9.7,5.5,14.035a5.937,5.937,0,0,1,.951,3.468c-.185,2.77.471,5.479.179,8.291a24.39,24.39,0,0,0,.941,8.062c.986-.338.636-1.1.641-1.628.038-3.653.009-7.307.035-10.961,0-.533-.3-1.306.353-1.545.736-.268,1.158.5,1.472.99,2.04,3.176,5.227,5.16,7.934,7.625a4.531,4.531,0,0,1,1.875,3.386,20.35,20.35,0,0,0,.47,2.8c.192-.167.327-.228.33-.3.17-3.731.157-3.708,3.421-2.083a37.1,37.1,0,0,0,4.3,1.876c1.307.455,2.139,1.093,1.751,2.741,2.092-1.829,8.482-1.269,10.393.754a53.3,53.3,0,0,1,1.35,9.042c.433,1.588-.589,1.9-1.762,1.837-4.527-.225-9.057-.255-13.587-.328-8.632-.07-17.263,0-25.894-.035a7.424,7.424,0,0,1-3.166-.315c-1.389-1.013-1.147-2.534-1.151-3.931-.03-10.018.038-20.036-.035-30.053-.044-6.147.338-12.3-.317-18.445-.133-1.25-.17-2.621,1.127-3.48C1111.856,1504.749,1112.436,1504.529,1112.535,1505.415Z" transform="translate(3812.426 637.059)" fill="#272f3b"/>
          <path id="Trazado_1192376" data-name="Trazado 1192376" d="M492.2,1020.215a5.145,5.145,0,0,0-3.006-3.985c-.778-.84-1.581-1.658-2.328-2.524a10.8,10.8,0,0,1-2.908-7.4c.067-7.668.133-15.341-.085-23a4.25,4.25,0,0,1,5.2-4.38c1.189.24,2.375.494,3.562.741,1.764-.637,2.919.513,4.161,1.414a1.217,1.217,0,0,1,.33.89c-.822,1.47-2.109,2.652-2.428,4.451-.2,1.13-1.334,1.118-2.277,1.141-1.185.029-2.338-.449-4.023-.3,3.037.74,5.729.781,8.2,1.818,1.088.544,2.318.918,2.74,2.264-.3,1.688-1.248,3.148-1.674,4.806-.282,1.1-1.317,1.13-2.3,1.01-2.115-.259-4.2-.763-6.346-.833,3.337,1.18,7.015,1.058,10.239,2.662a2.518,2.518,0,0,1,1.287,1.9c-.331,1.175-1.058,2.174-1.483,3.319-.565,1.522-1.954,1.5-3.263,1.44-2.091-.089-4.1-.831-6.248-.809,2.773.538,5.55.855,8.245,1.592a5.4,5.4,0,0,1,2.444,1.293.966.966,0,0,1,.26.576c-.461,1.276-1.239,2.408-1.653,3.715a2.364,2.364,0,0,1-3.053,1.654c-1.788-.35-3.585-.65-5.526-.924a46.468,46.468,0,0,0,5.8,1.876,4.139,4.139,0,0,1,2.857,1.313c.8,1.939.684,4.091,1.42,6.042a4.367,4.367,0,0,0,7.443,1.54,4.625,4.625,0,0,0,.976-3.2c.061-4.912-1.3-9.621-2.054-14.416-1.418-9.05-3.456-17.974-5.451-26.908-.192-.861-.705-1.779.043-2.647,2.708-.721,4.066.834,5.373,2.9a111.336,111.336,0,0,1,7.113,12.541c2.711,4.408,4.129,9.1,3.193,14.325a1.32,1.32,0,0,0,.109.822,97.715,97.715,0,0,0,.393,10.172c-.563,5.062-3.4,8.517-7.834,10.679-2.649,1.293-5.467,2.18-8.464.989a18.688,18.688,0,0,1-7.422-5.315A9.4,9.4,0,0,1,492.2,1020.215Z" transform="translate(4300.661 1049.157)" fill="#f2a18e"/>
          <path id="Trazado_1192377" data-name="Trazado 1192377" d="M1365.872,1387.01c-.654.009-1.46-.016-1.524.818a20.761,20.761,0,0,1-4.8,11.574c-1.64,2.016-2.873,4.448-4.763,6.1-4.293,3.761-9.633,5.6-15.215,4.491a24.765,24.765,0,0,1-6.63-1.763,8.119,8.119,0,0,1-4.6-5.792c-.572-2.564-.189-5.129-.3-7.691-.036-.869.638-1.223,1.317-1.505q3.6-1.5,7.214-2.973c3.953-1.624,7.855-3.389,11.872-4.835,5.363-1.929,10.445-4.5,15.725-6.609-.1,2.448,1.119,4.605,1.521,6.942C1365.773,1386.182,1365.817,1386.6,1365.872,1387.01Z" transform="translate(3642.55 735.234)" fill="#272f3b"/>
          <path id="Trazado_1192378" data-name="Trazado 1192378" d="M524.137,734.966a23.72,23.72,0,0,1,1.146-14.254c3.531-8.688,14.19-10.283,20.108-3,4.922,6.055,5.921,16.14,2.181,23-3,5.509-9.905,9.674-17.572,4.624-3.046-1.685-4.279-4.674-5.52-7.66C524.245,736.786,523.759,735.93,524.137,734.966Z" transform="translate(4269.73 1254.241)" fill="#1a202e"/>
          <path id="Trazado_1192379" data-name="Trazado 1192379" d="M622.674,1001.43c-.528-1.508-.207-3.092-.409-4.625a23.255,23.255,0,0,0-2.232-8.133,3.241,3.241,0,0,1-.662-2.388A77.964,77.964,0,0,1,631.9,970.442c.5-.474.823-1.181,1.6-1.339a156.383,156.383,0,0,1,4.536,20.165,57,57,0,0,1,1.132,10.615c-.107,3.55.412,7.117.379,10.7-.029,3.083-.848,6.068-.915,9.136-.005.239-.174.617-.356.681-.53.187-.775-.272-.92-.657-.481-1.274-1.268-2.408-1.785-3.638-1.405-3.345-3.687-6.073-5.861-8.884a2.029,2.029,0,0,1-.244-2.184c1.449-4,2.19-8.25,4.246-12.044.462-.853-.093-1.344-.836-1.641-.816-.326-.927.25-1.108.846-1.189,3.924-2.991,7.646-3.876,11.67-.209.949-.73,1.055-1.355.52-1.031-.882-2.686-1.141-2.928-2.836C623.283,1001.606,623.192,999.843,622.674,1001.43Z" transform="translate(4195.068 1054.659)" fill="#28303d"/>
          <path id="Trazado_1192380" data-name="Trazado 1192380" d="M515.361,894.575l-.39-.473c-.807-5.868-1.4-11.765-2.549-17.587-.319-1.609-.354-3.054-2.611-2.37-.359.109-.625-.264-.731-.641-1.319-1.278-2.085-2.534-.917-4.47.661-1.1-.744-2.386-.436-3.694a12.743,12.743,0,0,1,7.673-.866c.481,1.676.086,3.677,1.827,4.9a.649.649,0,0,1,.141.6c-1.493,3.672.511,7.044.929,10.541.344,2.877.981,5.718,1.488,8.576,2.76,12.111,5.307,24.262,7.277,36.532a56.978,56.978,0,0,1,.954,7.42,5.039,5.039,0,0,1-9.989,1.3c-.437-1.874-.684-3.793-1.017-5.693.011-1.04.923-.9,1.523-1.135,2.382-.927,2.951-2.8,1.434-4.876a6.479,6.479,0,0,1-1.147-1.771h0c-.2-.71.422-.987.755-1.4,1.625-2.029,1.624-2.8-.089-4.794a5.425,5.425,0,0,1-.687-1.069l-1.243-1.338c-.247-.71.3-1,.716-1.366,2.132-1.851,2.23-3.38.331-5.516-.373-.419-.852-.75-.991-1.338a6.7,6.7,0,0,0-2.589-1.7c-.6-.625-.028-1.007.31-1.421,2.045-2.509,2.059-2.667.383-5.566A6.6,6.6,0,0,0,515.361,894.575Z" transform="translate(4282.168 1136.413)" fill="#1b212e"/>
          <path id="Trazado_1192381" data-name="Trazado 1192381" d="M421.23,755.608c-1.506.417-2.726,1.448-4.279,1.834-5.04,1.252-8.8-.711-11.727-4.6-4.316-5.739-4.654-12.175-3.034-18.909.919-3.82,2.717-7.016,6.226-9.021a9.514,9.514,0,0,1,10.772.769c-4.872,3.414-4.96,8.62-4.97,13.748a15.665,15.665,0,0,0,.754,5.48,5.029,5.029,0,0,1,1.142,2.123,15.577,15.577,0,0,0,3.867,6.326C420.588,753.962,421.54,754.459,421.23,755.608Z" transform="translate(4365.035 1246.058)" fill="#1a222f"/>
          <path id="Trazado_1192382" data-name="Trazado 1192382" d="M754.58,1754.667c4.649.071,9.3.118,13.946.234.937.023,1.1-.378,1-1.137.51,1.771,1.889,1.256,3.187.975-.377,1.934-1.3,2.54-3.131,2.514-7.741-.109-15.5.211-23.223-.146-4.864-.225-9.719.7-14.516.024-4.845-.679-9.632.329-14.5-.108-3.445-.309-7.129.287-10.677.094a117.67,117.67,0,0,0-12.949-.262c-4.111.23-8.22.137-12.327.3a46.18,46.18,0,0,1-6.622-.557c-1.407-.151-2.767.481-4.031.482-3.691,0-7.408-.012-11.087.032s-7.353-.933-11.027-.039a9.182,9.182,0,0,1-2.137.126c-6.991.01-13.983.09-20.973-.027-3.228-.054-6.446-.489-9.68-.019a1.308,1.308,0,0,1-1.563-1.155c-.055-1.013.884-.908,1.589-.948a105.439,105.439,0,0,1,11.136-.425,3.17,3.17,0,0,0,2.064-.426c1.079,1.187,2.558.663,3.783.67,13.291.075,26.584.022,39.875,0a2.79,2.79,0,0,0,.619-.145,2.362,2.362,0,0,1,.773-.241c4.182-.061,8.364-.247,12.549-.053.276-.007.551-.005.827,0,10.874-.3,21.778-.507,32.616-.059,10.723.444,21.43.234,32.14.472A5.643,5.643,0,0,0,754.58,1754.667Z" transform="translate(4198.998 442.931)" fill="#dbe1e1"/>
          <path id="Trazado_1192383" data-name="Trazado 1192383" d="M1335.226,1089.132c-.374-1.7-1.039-2.264-3.02-1.7-2.232.631-4.745,1.171-6.454,2.343a27.4,27.4,0,0,1-9.215,3.909c-3.14.727-4.833,3.551-8.179,3.872-1.771.17-4.053,1.984-6,2.5-3.048.8-5.285,3.282-8.414,3.5a3.891,3.891,0,0,0-2.679,1.292,4.2,4.2,0,0,1-2.37,1.233c-2.653.582-4.925,2.174-7.439,2.844-4.092,1.091-7.548,3.572-11.667,4.613a24.177,24.177,0,0,0-7.578,3.132c-.864.579-1.794.326-2.7.4-.753.444-1.057.026-1.232-.64.147-1.665,1.55-2.1,2.726-2.708,7.624-3.913,15.54-7.184,23.427-10.511,3.268-1.378,6.446-3.017,9.958-3.759,8.357-3.049,16.442-6.755,24.627-10.22,3.8-1.611,7.609-3.223,11.389-4.89a3.485,3.485,0,0,1,4.159.541A3.306,3.306,0,0,1,1335.226,1089.132Z" transform="translate(3696.93 965.169)" fill="#343b46"/>
          <path id="Trazado_1192384" data-name="Trazado 1192384" d="M1269.588,1153.774q-9.284,4.034-18.567,8.072c-5.075,2.221-10.21,4.312-15.088,6.958a4.743,4.743,0,0,0-2.165,1.668,1.2,1.2,0,0,1-1.409.788c-1.878-.854-4.084-.568-5.892-1.673,2.471-.947,3.553-3.32,5.134-5.142a20.682,20.682,0,0,1,6.538-4.915c-1.963,2.106-4.438,3.644-6.294,5.846-.656.778-2.17,1.624-1.463,2.514.827,1.043,1.877-.467,2.65-.941,5.489-3.367,11.1-6.486,17.3-8.3,5.525-1.62,10.877-3.8,16.537-5C1267.866,1153.441,1268.684,1153.831,1269.588,1153.774Z" transform="translate(3721.726 910.833)" fill="#dbe2e8"/>
          <path id="Trazado_1192385" data-name="Trazado 1192385" d="M472.008,834c-1.75-2.252-4.089-4.07-5.073-6.884-.183-.525-.339-1.059-.507-1.589.253-.654.662-1.257,1.419-.9a7.973,7.973,0,0,0,6.34.175c1.887-.631,4.084-.34,6.127-.65a29.154,29.154,0,0,0,5.158,7.757c-.242,1.225-1.693.461-2.161,1.314a49.987,49.987,0,0,1-7.673.866Z" transform="translate(4314.255 1167.661)" fill="#bdc6cd"/>
          <path id="Trazado_1192386" data-name="Trazado 1192386" d="M1200.571,1226.161a10.515,10.515,0,0,1,6.04,1.359c2.4,1.3,2.771,3.255,1,5.151-2.959,3.164-11.875,3.761-14.216-1.544a2.437,2.437,0,0,1,1.547-3.211l.968-.757C1197.457,1226.8,1198.936,1226.113,1200.571,1226.161Z" transform="translate(3747.622 854.256)" fill="#1b212f"/>
          <path id="Trazado_1192387" data-name="Trazado 1192387" d="M514.359,906.283c.192.092.4.289.573.262,2.8-.44,2.59-.4,3.238,2.4,1.07,4.62,1.369,9.345,2.228,13.987a6.991,6.991,0,0,1-.148,3.95,11.523,11.523,0,0,0-3.851-1.689Q515.379,915.737,514.359,906.283Z" transform="translate(4276.889 1103.634)" fill="#2d3542"/>
          <path id="Trazado_1192388" data-name="Trazado 1192388" d="M1454.831,1758.092a87.026,87.026,0,0,0,9.806-.4,3.494,3.494,0,0,1,1.482.1c.605.214,1.211.617,1.039,1.407a1.272,1.272,0,0,1-1.409,1.044c-3.356-.021-6.736.237-10.063-.077a66.8,66.8,0,0,0-9.826-.007c-.434.023-1.086-.366-.951-.442.742-.414.448-1.751,1.791-1.671C1449.2,1758.2,1451.713,1758.092,1454.831,1758.092Z" transform="translate(3551.44 439.894)" fill="#dfe6de"/>
          <path id="Trazado_1192389" data-name="Trazado 1192389" d="M477.913,814.926c-.325,1.107-1.356.579-2.006.746-2.116.544-4.4.013-6.522,1.213a4.038,4.038,0,0,1-3.934-1.091c-.477-.633-.889.458-1.425.508l-.679-2.227c.93.1,1.646-.327,2.843.381a6.328,6.328,0,0,0,7.024-.665c1.22-.928,2.827-.56,4-1.475Z" transform="translate(4316.659 1176.89)" fill="#dee3e6"/>
          <path id="Trazado_1192390" data-name="Trazado 1192390" d="M1341.955,1760.188c-1.551,0-2.7.018-3.84-.009-.465-.01-1.179.17-1.212-.512-.028-.581.055-1.434.844-1.536,1.126-.146,2.2-.708,3.37-.489a17.583,17.583,0,0,0,6.029.03,1.938,1.938,0,0,1,1.056.022c.628.3,1.817.045,1.672,1.215-.114.922-1.009.818-1.722.863C1345.95,1759.908,1343.775,1760.448,1341.955,1760.188Z" transform="translate(3635.632 439.948)" fill="#dbe1e1"/>
          <path id="Trazado_1192391" data-name="Trazado 1192391" d="M1125.892,1197.212c-1.538-.148-2.3-1.539-3.52-2.237-5.749-3.294-12.136-4.764-18.338-6.772a.86.86,0,0,1-.5-.376,58.706,58.706,0,0,1,17.632,5.125l2.174,1.614c.457-.126.7.1.83.507Q1125.031,1196.142,1125.892,1197.212Z" transform="translate(3817.565 884.14)" fill="#d3d8dd"/>
          <path id="Trazado_1192392" data-name="Trazado 1192392" d="M1194.224,1215.306l-.83-.507c.242-1,1.212-1.271,1.692-.779C1195.663,1214.61,1194.667,1214.947,1194.224,1215.306Z" transform="translate(3747.509 863.906)" fill="#fdfdfd"/>
          <path id="Trazado_1192393" data-name="Trazado 1192393" d="M1055.12,1380.167a.8.8,0,0,0-.876-.344c-1.716.37-3.211-.29-4.7-1a12.99,12.99,0,0,1-1.712-1.48c-4.4-4.287-7.565-9.459-10.506-14.781-.943-1.708-1.346-3.487.106-5.185a1.813,1.813,0,0,0,.327-1.812,3.278,3.278,0,0,1,1.433-4.09c1.549-.987,2.863-.182,4.139.677.237.16.432.374.914.689a2.617,2.617,0,0,1,2.165-2.763,4.257,4.257,0,0,1,3.958,1.1,10.02,10.02,0,0,1,2.272,2.813c.729.948,1.284,2.019,2.055,2.938a8.8,8.8,0,0,0,2.009,2.5c2.515,3.611,5.16,7.1,7.972,8.842-3.156-1.713-5.441-5.85-8.437-9.3-.727-.564-1.01-1.46-1.595-2.131-.77-.952-1.333-2.047-2.08-3.018a2.177,2.177,0,0,1,.447-3.056,3.326,3.326,0,0,1,3.49-1.019,7.933,7.933,0,0,1,3.466,2.395c2.277,2.781,4.371,5.733,7.317,7.9a10.316,10.316,0,0,0,1.56.933c2.517,1.054,4.978,2.32,7.844,2,3.51-.333,6.134-2.693,5.711-6.655-.21-1.966.006-3.942-.526-5.918-.658-2.445.877-5.685,2.615-6.141,1.862-.489,3.349.125,3.808,2.033,1.875,7.793,4.472,15.45,4.712,23.572a11.4,11.4,0,0,1-4.823,10.655,29.764,29.764,0,0,1-6.125,3.606c-3.382.084-6.788.723-10.113-.443Z" transform="translate(3869.841 762.307)" fill="#f3a18e"/>
          <path id="Trazado_1192394" data-name="Trazado 1192394" d="M921.139,1229.5c-3.066.909-5.727-.127-8.271-1.722a17.24,17.24,0,0,0,.406-8.054c-.36-2,.372-3.973.35-5.99-.053-4.729-.107-9.461.066-14.19.026-.711-.106-1.542.605-1.955.859-.5,1.227.445,1.772.821a5.193,5.193,0,0,0,2.743,1,4.952,4.952,0,0,1-4.212-2.844c-1.41-3.4-4.509-3.9-7.4-4.138-6.149-.5-12.238-1.037-18.048-3.322-1.767-.7-3.7-.4-5.544-.469-3.517-.127-6.7-1.451-10-2.35a82.333,82.333,0,0,0-11.179-2.658,20.391,20.391,0,0,1-7.205-2.489c-.248-.138-.461-.441-.732-.426-3.3.191-6.005-2.1-9.129-2.256-2.1-.1-4.223.348-6.355-.206a2.5,2.5,0,0,1-1.834-1.278c-.75-1.4.649-2.275.855-3.442,1.394-1.1,2.909-.525,4.288-.122,2.317.678,4.644,1.3,7,1.806,1.307,2,3.394,1.08,5.16,1.363,4.894.958,9.715,2.277,14.6,3.2,3.933.746,7.838,1.641,11.676,2.672,4.2,1.129,8.486,1.772,12.674,2.907a84.237,84.237,0,0,0,9.335,2.156,27.468,27.468,0,0,1,7.35,2.266,5.8,5.8,0,0,0,3.549.377c.132.053.322.114.345.225.663,3.152,3.607,3.9,5.785,5.415a3.954,3.954,0,0,0,4.054.416,16.122,16.122,0,0,1,2.861-.8c.824-.211,1.481-.5,1.517-1.479.315-.629.7-1.093,1.473-.611a2.25,2.25,0,0,0,.722.389c.646.072,1.352.016,1.552.832a1.706,1.706,0,0,1-.863,1.822c-1.495,1.037-2.73,2.558-4.781,2.619a1.454,1.454,0,0,0-1.253.944,5.992,5.992,0,0,0,4.959-.525c.666-.388,1.591-.915,1.994.15.387,1.02-.743.983-1.335,1.235a3.4,3.4,0,0,0-1.975,1.573c-.848,2.107-2.5,2.3-4.387,2.152-.5-.04-1-.013-1.5,0-1.821.035-2.842.823-2.6,2.784a16.254,16.254,0,0,1,.256,2.109c-.018,1.745,1.086,3.6-.5,5.215a.9.9,0,0,0-.157.81c1.4,2.8.005,5.743.489,8.58.387,2.267-1.241,3.1-3,3.976A6.546,6.546,0,0,0,921.139,1229.5Z" transform="translate(4025.392 895.779)" fill="#222733"/>
          <path id="Trazado_1192395" data-name="Trazado 1192395" d="M1266.76,1465.453c3.533-2.543,4.4-6.418,5.165-10.344a17.093,17.093,0,0,0,3.142-1.229c1.6-1.014,2.133-.117,2.349,1.183,1.161,6.964.105,13.222-5.9,17.828a3.972,3.972,0,0,1-3.7-2.039c-.578-.875-1.052-1.926.358-2.8-.858-.1-1.076,1.266-1.811.748s-.236-1.3-.074-1.958A2.654,2.654,0,0,1,1266.76,1465.453Z" transform="translate(3690.925 677.065)" fill="#fbfbfb"/>
          <path id="Trazado_1192396" data-name="Trazado 1192396" d="M1197.42,1523.414l10.689-.084c1.333,1.241,2.621,2.494,2.776,4.484.093,1.194,1.49,1.167,2.009,1.986a13.318,13.318,0,0,1-14.149-4.743C1198.319,1524.5,1197.863,1523.96,1197.42,1523.414Z" transform="translate(3744.371 622.58)" fill="#bac2c8"/>
          <path id="Trazado_1192397" data-name="Trazado 1192397" d="M1250.7,1517.8c-1.706-.07-2.863-.708-2.683-2.663.161-1.754-2.159-2.121-2.1-3.807,1.492-1.5,3.576-2.1,5.206-3.391.688,1.068-.227,1.958-.557,3.534l1.778-1.969c.866,1.153.869,1.158-.086,1.721-.45.265-.236.624-.093.9.725,1.388,1.4,2.865,3.418,2.576.066-.01.2.441.3.677A9.932,9.932,0,0,1,1250.7,1517.8Z" transform="translate(3706.564 634.579)" fill="#dbdfe0"/>
          <path id="Trazado_1192398" data-name="Trazado 1192398" d="M1203.03,1237.992a1.423,1.423,0,0,0-1.32.844,1.537,1.537,0,0,1-1.253,1.031c-3.807.946-7.513.858-10.843-1.459a4.652,4.652,0,0,1-1.977-4.843c.935-1.021,1.1.186,1.568.542,2.991,4.351,8.3,4.076,11.684,2.587,3.335-1.465,3.708-3.368,1.283-6.029a1.065,1.065,0,0,0,1.261-.474.877.877,0,0,0,.941.92C1206.078,1234.393,1205.829,1235.665,1203.03,1237.992Z" transform="translate(3752.062 851.114)" fill="#464d5b"/>
          <path id="Trazado_1192399" data-name="Trazado 1192399" d="M837.943,1191.4c2.386.546,4.7,2.071,7.243.568.06-.035.16-.083.2-.059,1.913,1.2,4.38.61,6.242,1.941.22.157.409.668.508.64,2.3-.64,4.051.467,6,1.43.584.289,1.633.428,2.45.755a6.413,6.413,0,0,0,4.209.71c.989-.229,2.7.461,3.984,1.061.446.209.876.633,1.32.641,3.923.074,7.261,2.267,11.011,3.008a20.612,20.612,0,0,0,4.562.364c3.07-.1,5.668,1.173,8.473,1.885a41.074,41.074,0,0,0,6,.989c2.068.206,4.2,1,6.265.874a12.571,12.571,0,0,1,5.164.878c1.728.61,3.518.859,4.04,3.171.465,2.057,2.2,2.751,4.2,2.954.514.052,1.6-.1,1.462.826-.145.985-1.167.568-1.811.571a4.737,4.737,0,0,1-3.134-1.675c-.3-.274-.465-.829-.987-.622-.5.2-.339.723-.34,1.131-.011,5.364.338,10.76-.15,16.079-.309,3.373.409,6.653.062,10a3.68,3.68,0,0,1-1.27,2.688,1.334,1.334,0,0,1-1.307-.777c-.228-.29.125-.7-.206-.973a84.294,84.294,0,0,1-6.512-6.622c-.137-.14-.389-.153-.583-.239-1.129-.82-1.973-2.012-3.419-2.424-1.511-.431-2.37.465-3.312,1.362a1.468,1.468,0,0,0-.1,2.212c.228.606-.063.681-.559.546-.755-.843-1.5-1.693-2.268-2.526-1.094-1.191-2.37-1.875-4.009-1.215-1.61.648-1.471,2.077-1.375,3.71a12.881,12.881,0,0,0-2.691-2.348,2.606,2.606,0,0,0-3.01.083,2.428,2.428,0,0,0-.874,2.858c.351,1.175.747,2.107-.641,3.263-1.33,1.108-.454,2.942.337,4.326a76.61,76.61,0,0,0,10.333,14.692c-.461,1.349-1.471.717-2.318.634-4.674-.461-8.988-2.343-13.5-3.437-2.576-.624-2.909-.43-2.8,2.2.606,14.6.331,29.2.391,43.8a6.9,6.9,0,0,1-.536,3.362c-.162.309-.338.672-.743.684-.558.017-.66-.472-.774-.866a10.636,10.636,0,0,1-.2-2.992q-.008-21.823,0-43.645c0-3.818-.161-4.032-3.869-4.894-1.466-.341-2.939-.648-4.394-1.035-1.018-.271-1.5.135-1.517,1.158-.01.43,0,.86,0,1.29q.015,27.3,0,54.61c0,1.863,0,3.724.166,5.585.1,1.128-.168,2.06-1.661,1.749l-.547-.006c-.68-.208-.544-.774-.493-1.243.533-4.935.226-9.885.241-14.827.047-15.271.022-30.543.014-45.815,0-3.461-.2-3.679-3.59-4.441-.35-.078-.7-.146-1.051-.227-3.394-.783-3.4-.783-3.4,2.839q0,28.93,0,57.86c0,.573.017,1.148-.008,1.721-.216,5.1-.405,4.283-4.492,4.112l-.638-.012c-.038-.308-1.129.026-.467-.515a1.529,1.529,0,0,0,.58-1.464c-.173-5.149.9-10.279.391-15.413a74.832,74.832,0,0,1-.332-11.982c.475-7.64-.368-15.263-.032-22.89.233-5.282.513-10.558.425-15.849-.034-2.037-.942-4.046-.174-6.313,1.437.828.934,2.888,2.77,3.763-.552-2.082-1.011-3.9-1.492-5.627-1.378-4.938-2.323-9.969-3.566-14.933-1.78-7.113-3.385-14.27-4.99-21.426C839.912,1199.554,838.406,1195.6,837.943,1191.4Z" transform="translate(4024.621 881.354)" fill="#18212e"/>
          <path id="Trazado_1192400" data-name="Trazado 1192400" d="M846.134,1169.44c-2.739,0-5.177-1.295-7.79-1.849a17.4,17.4,0,0,0-3.4-.292c-.084-.443-.206-.953-.771-.493-.5.409-.923.524-1.123-.151a1.156,1.156,0,0,1,.447-1.283,2.5,2.5,0,0,1,2.214-.378c2.78.516,5.524,1.223,8.281,1.86,9.68,1.879,19.251,4.252,28.868,6.413,5.023,1.129,10.008,2.533,15.073,3.338,5.74.912,11.117,3.09,16.784,4.132a23.163,23.163,0,0,1,5.341,1.5c.783.35,1.7.782.627,1.829-2.107,1.9-3.9-.07-5.667-.646a39.963,39.963,0,0,0-8.6-2.016c-2-.193-3.8-1.337-5.883-1.484-2.479-.175-4.672-1.7-7.3-1.559-2.212.117-4.09-1.376-6.274-1.788-4.732-.893-9.356-2.388-14.1-3.186-3.651-.614-7.126-2-10.837-2.266-.251-.018-.486-.252-.728-.386C849.545,1170.421,847.74,1170.326,846.134,1169.44Z" transform="translate(4028.478 902.014)" fill="#353d48"/>
          <path id="Trazado_1192401" data-name="Trazado 1192401" d="M949.57,1190.191c.339-.654.157-1.015-.552-1.286a46.593,46.593,0,0,0-9.448-2.46,29.494,29.494,0,0,1-5.728-1.563c-3.432-1.284-7.065-1.268-10.5-2.272-1.9-.554-4.137-.037-5.65-1.793-8.3-.46-16.055-3.535-24.125-5.111-3.6-.7-7.375-.862-10.688-2.73.887-.657,1.811.38,2.7-.06q13.251,2.947,26.5,5.889c.551.122,1.118.169,1.678.251,11.68,1.931,23.1,4.967,34.516,8.039a5.575,5.575,0,0,1,1.2.475,1.709,1.709,0,0,1,.917,1.039c.159,3.493,2.095,5.738,5.807,6.22a14.16,14.16,0,0,0,7.981-.772c.381.117.987.151.514.764-1.334,1.73-7.979,2.468-9.78,1.142a8.634,8.634,0,0,0-2.9-1.651C950.037,1193.775,949.982,1191.815,949.57,1190.191Z" transform="translate(3989.591 895.893)" fill="#18212e"/>
          <path id="Trazado_1192402" data-name="Trazado 1192402" d="M530.568,1173.239c5.334,1.205,11.716-1.99,14.445-6.866.811-1.45.578-3.232,1.813-4.437.091,4.643.247,9.283.209,13.933a8.95,8.95,0,0,1-4.144,7.525c-4.3,3.147-12.16,3.409-16.6.475-3.1-2.049-4.947-4.873-4.762-8.771.078-1.642.056-3.288.079-4.932,1.33-.387,1.711,1.162,2.853,1.358C526.542,1171.879,528.507,1172.749,530.568,1173.239Z" transform="translate(4271.309 904.325)" fill="#fcfcfc"/>
          <path id="Trazado_1192403" data-name="Trazado 1192403" d="M530.68,1184.245c-2.745.071-5.237-.915-7.775-1.776-.747-.253-.34-1.3-1.183-1.3q-.03-2.559-.06-5.118A20.266,20.266,0,0,0,530.68,1184.245Z" transform="translate(4271.196 893.318)" fill="#d1ccd2"/>
          <path id="Trazado_1192404" data-name="Trazado 1192404" d="M761.186,461.529a13.935,13.935,0,0,1,.758-6.077c2.027-5.24,7.049-6.977,12.225-4.189,1.455-.423,1.391-1.888,1.733-2.891,2.938-8.642,7.029-16.784,10.665-25.124,1.261-2.892,2.438-5.819,3.876-8.63.349-.683.635-1.555,1.607-1.537,1.088.02,1.315.957,1.609,1.762a46.531,46.531,0,0,0,18.365,22.944,41.685,41.685,0,0,0,12.438,5.26c5.518,1.511,10.455,4.323,15.739,6.333a64.006,64.006,0,0,0,9.787,3.232c.932.192,1.909.384,2.1-1.008a9.444,9.444,0,0,0,2.293-.433c5.99-2.768,12.145.677,12.775,7.195.763,7.9-5.239,14.5-13.147,13.9-3.3-.249-4.6.678-6.033,3.66-4.261,8.854-11.9,13.948-20.892,17.408-17.644,6.79-40.534-2.4-47.826-19.519-.552-1.3-1.092-1.85-2.812-1.621C768.543,473.243,762.689,469.031,761.186,461.529Z" transform="translate(4084.5 1488.138)" fill="#f5a38f"/>
          <path id="Trazado_1192405" data-name="Trazado 1192405" d="M962.874,793.2a39.331,39.331,0,0,1-13.516,7.187c-2.875.818-5.5-.64-7.983-1.791A32.644,32.644,0,0,1,933,793.1c0-4.046,0-8.091,0-12.466,10.879,10.9,20.8,9.141,29.872.121C962.874,785.119,962.874,789.161,962.874,793.2Z" transform="translate(3950.514 1201.587)" fill="#e36861"/>
          <path id="Trazado_1192406" data-name="Trazado 1192406" d="M898.181,426.992c.164.547,1.215.537.946,1.251-.236.625-.969.513-1.53.481-3.924-.218-7.433-1.879-11.036-3.21-5.538-2.045-10.668-5.045-16.448-6.577a43.815,43.815,0,0,1-20.591-12.015,45.963,45.963,0,0,1-10.31-16.587c-.215-.6-.239-1.4-.987-1.5-.9-.118-.863.871-1.09,1.362-2.335,5.038-4.513,10.15-6.891,15.166-3.114,6.566-5.693,13.346-8.385,20.085-.2.512-.127,2.089-1.6,1.2,1.14-1.685.567-3.585.525-5.362a9.9,9.9,0,0,1,1.663-5.827c6-9.463,10.293-19.8,15.128-29.864.587-1.221,1.112-2.473,1.834-4.088.672,2.635,1.164,4.934,1.854,7.172a24.244,24.244,0,0,0,3.028,6.6c5.635,10.614,13.634,18.41,25.852,20.593,3.142.561,5.514,2.135,8.088,3.569a65.439,65.439,0,0,0,19.193,7.2A3.525,3.525,0,0,1,898.181,426.992Z" transform="translate(4038.406 1512.748)" fill="#e17f73"/>
          <path id="Trazado_1192407" data-name="Trazado 1192407" d="M1178.619,370.388c-.312-1.062-.455-2.124.708-2.761,1.224-.67,2,.208,2.7,1a29.23,29.23,0,0,1,3.459,5.762,2.042,2.042,0,0,1-1.466,2.485c-1.25.35-1.771-.608-2.3-1.436C1180.669,373.771,1179.653,372.074,1178.619,370.388Z" transform="translate(3759.2 1523.758)" fill="#f5f8f9"/>
          <path id="Trazado_1192408" data-name="Trazado 1192408" d="M945.042,437.2c.72-.425.714.288.941.611a27.523,27.523,0,0,0,3.426,4.449,59.206,59.206,0,0,0,13.383,12.262A30.291,30.291,0,0,1,945.042,437.2Z" transform="translate(3941.126 1469.436)" fill="#d28a87"/>
          <path id="Trazado_1192409" data-name="Trazado 1192409" d="M973.915,1062.775c1.523,5.07,2.344,10.3,3.413,15.467.69,3.332.6,3.322-2.742,2.976-4.486-.466-8.99-.678-13.5-.7-1.44-.007-2.019-.255-1.621-1.941,1.445-6.123,2.724-12.286,4.065-18.433a1.294,1.294,0,0,1,.5,1.819,5.746,5.746,0,0,1,2.34-.155c1.608.224,2.135,1.319,2.12,2.749-.035,3.362.17,6.725-.13,10.088a21.654,21.654,0,0,0-.011,4.364c-.327-.766-.114-2.206,0-3.566.253-3.007.142-6.01.169-9.014C968.559,1062.019,969.751,1061.2,973.915,1062.775Z" transform="translate(3929.977 983.682)" fill="#282e3d"/>
          <path id="Trazado_1192410" data-name="Trazado 1192410" d="M988.729,977.228c-.273,1.2-1.025.474-1.465.27-2.24-1.041-3.375-.42-3.257,2.088.241,5.106-.6,10.156-.415,15.78a4.494,4.494,0,0,1-.905-3.2c0-4.442-.024-8.884.011-13.325.01-1.29-.372-2.267-1.8-1.968-2.043.43-2.311-.843-2.557-2.277.9-4.436,1.735-8.885,2.709-13.3a105.29,105.29,0,0,1,2.44-10.879c.649,3.2,1.258,5.853,1.712,8.531.945,5.568,2.236,11.061,3.435,16.576A10.471,10.471,0,0,1,988.729,977.228Z" transform="translate(3915.163 1069.229)" fill="#1b2231"/>
          <path id="Trazado_1192411" data-name="Trazado 1192411" d="M1058.792,1209.929c-11.573-3.344-23.367-5.792-35.064-8.636a3.322,3.322,0,0,1-.717-.375c6.256-.587,12.234,1.069,18.3,2.156,4.95.887,9.933,1.538,14.8,2.885,1.695.469,3.168,1.421,4.865,1.814C1060.949,1209.2,1060.963,1210.672,1058.792,1209.929Z" transform="translate(3880.341 874.03)" fill="#d6dfe7"/>
          <path id="Trazado_1192412" data-name="Trazado 1192412" d="M1185.36,1234.609c1.789.356,1.352-1.544,2.185-2.157l1.244.371c-.469,1-1.606,1.714-1.3,3.045l-1.282-.719C1185.926,1234.971,1185.644,1234.79,1185.36,1234.609Z" transform="translate(3753.773 849.35)" fill="#a8b1b8"/>
          <path id="Trazado_1192413" data-name="Trazado 1192413" d="M801.962,370.625c1.262-2.967,2.847-6.185,5.786-8.533a1.326,1.326,0,0,1,1.767.151c.542.437,1.062,1.034.64,1.833a43.725,43.725,0,0,1-5.263,8.489,1.341,1.341,0,0,1-1.862.463C802.224,372.58,802,371.915,801.962,370.625Z" transform="translate(4052.672 1528.105)" fill="#f1f6f6"/>
          <path id="Trazado_1192414" data-name="Trazado 1192414" d="M1115.116,355.7a2.024,2.024,0,0,1-1.049,1.89,1.722,1.722,0,0,1-2.169-.2,17.352,17.352,0,0,1-4.292-5.265,1.653,1.653,0,0,1,1.785-2.472C1111.069,349.836,1115.125,354.218,1115.116,355.7Z" transform="translate(3814.577 1537.591)" fill="#f5f8f9"/>
          <path id="Trazado_1192415" data-name="Trazado 1192415" d="M1000.937,364.2a1.859,1.859,0,0,1-2.922,1.466,11.589,11.589,0,0,1-3.742-4.591,1.736,1.736,0,0,1,1.856-2.478C997.666,358.773,1000.992,362.65,1000.937,364.2Z" transform="translate(3902.895 1530.627)" fill="#f4f8f8"/>
          <path id="Trazado_1192416" data-name="Trazado 1192416" d="M945.638,1527.342c.859-.2,1.528-.567,1.089-1.606a7.83,7.83,0,0,1-.294-3.182q-.014-28.7-.008-57.4c0-3.5-.006-3.492,3.375-2.594,2.13.565,4.3.911,6.417,1.613,1.47.488,1.407,1.293,1.406,2.38q-.013,20.207-.008,40.414c0,3,0,6.007,0,9.22a3.878,3.878,0,0,0,.862-2.964c0-9.029.261-18.068-.115-27.081-.182-4.364.391-8.673.158-13.017-.111-2.067-.655-4.084-.494-6.182.165-2.148.359-2.329,2.479-1.692a110.435,110.435,0,0,0,10.991,3.131c1.91.363,3.834,1.425,5.907.757l1.345,1.092c1.564,1.117,1.918,2.75,1.924,4.528q.064,22.768-.005,45.537a16.886,16.886,0,0,1-.188,1.923c-.409,3.456-.322,3.6,2.839,4.878q12.867.054,25.733.109c1.287.006,2.573.029,3.861.043a9.713,9.713,0,0,1-1.461.219q-32.057.028-64.115.025C946.771,1527.5,946.2,1527.4,945.638,1527.342Z" transform="translate(3940.662 670.347)" fill="#28303d"/>
          <path id="Trazado_1192417" data-name="Trazado 1192417" d="M1100.446,1556.018c-3.826.2-3.964.19-3.723-3.5.891-13.657.149-27.325.394-40.985.047-2.649-.016-5.3.017-7.949a7.643,7.643,0,0,0-1.257-4.427l4.674,1.549c-1.161,1.158-1.009,2.669-.741,4a22.331,22.331,0,0,1,.318,4.478q.015,22.046.009,44.091A6.333,6.333,0,0,0,1100.446,1556.018Z" transform="translate(3823.534 641.429)" fill="#191f2a"/>
          <path id="Trazado_1192418" data-name="Trazado 1192418" d="M511.167,1044.8a4.813,4.813,0,0,1,2.916,4.92c-.143,1.817-2.055,2.129-2.971,3.3-3.306-1.474-6.971-1.473-10.38-2.523-.566-.174-1.56,0-1.39-.9.151-.8,1.1-.5,1.666-.437,2.2.243,4.4.487,6.564.93,1.193.244,1.805.117,1.832-1.2C509.436,1047.288,510.508,1046.131,511.167,1044.8Z" transform="translate(4288.613 995.645)" fill="#dd6863"/>
          <path id="Trazado_1192419" data-name="Trazado 1192419" d="M519.007,1121.14a4.746,4.746,0,0,1,2.219,2.216,3.35,3.35,0,0,1-2.284,5c-.6.135-1.328-.125-1.745.57-3.227-1.023-6.766-1.267-9.372-3.992,2.2.4,4.414.733,6.6,1.208,1.429.311,2.314.042,2.68-1.516A6.057,6.057,0,0,1,519.007,1121.14Z" transform="translate(4281.983 936.129)" fill="#dc6661"/>
          <path id="Trazado_1192420" data-name="Trazado 1192420" d="M514.207,1088.17c3.5,2.012,3.508,4.339.021,7.266-3.575-1.7-7.44-2.142-11.3-2.589-.528-.061-1.31.082-1.219-.768.068-.633.75-.517,1.234-.544a22.385,22.385,0,0,1,5.275.654c3.21.591,3.451.522,4.727-2.342A4.637,4.637,0,0,1,514.207,1088.17Z" transform="translate(4286.759 961.833)" fill="#dc6661"/>
          <path id="Trazado_1192421" data-name="Trazado 1192421" d="M508.708,1001.89c2.968,2.388,2.987,4.416.043,6.87-.3.251-.5.48-.382.883q-4.172-.856-8.345-1.712c-.5-.1-1.075-.221-.953-.885.1-.558.682-.444,1.071-.415,1.488.111,2.97.3,4.459.408.7.049,1.554.142,1.548-.948C506.138,1004.147,507.446,1003.04,508.708,1001.89Z" transform="translate(4288.821 1029.098)" fill="#df6b61"/>
          <path id="Trazado_1192422" data-name="Trazado 1192422" d="M562.65,740.7c-.357-4.244-.275-7.882,2.5-10.9.489-.532,1.18-1.347,1.892-.78.648.516.056,1.355-.387,1.886a13.465,13.465,0,0,0-2.961,7.595A3.314,3.314,0,0,1,562.65,740.7Z" transform="translate(4239.359 1241.975)" fill="#c4ced9"/>
          <path id="Trazado_1192423" data-name="Trazado 1192423" d="M543.552,731.214c.451.5.033.979-.16,1.364a21.508,21.508,0,0,0-2.5,9.822c0,.373.1.94-.458,1.062-.59.129-.767-.472-.787-.8-.235-3.888.281-7.613,2.654-10.864C542.575,731.421,542.929,730.985,543.552,731.214Z" transform="translate(4257.215 1240.168)" fill="#d8e4ee"/>
          <path id="Trazado_1192424" data-name="Trazado 1192424" d="M418.379,749.84a10.862,10.862,0,0,1,2.4-6.86c.35-.456.815-1.257,1.525-.66.547.46-.059,1.025-.33,1.469a15.645,15.645,0,0,0-2.44,7.763C418.027,751.742,418.89,750.326,418.379,749.84Z" transform="translate(4351.716 1231.626)" fill="#e0e8f1"/>
          <path id="Trazado_1192425" data-name="Trazado 1192425" d="M416.93,777.195c1.171.039-.009,1.671,1.159,1.712.113,1.255.368,2.529-.477,3.811C416.141,780.935,416.418,779.08,416.93,777.195Z" transform="translate(4353.166 1204.271)" fill="#8e96a1"/>
          <path id="Trazado_1192426" data-name="Trazado 1192426" d="M885.18,1516.321c3.784-.384,3.785-.384,3.785-4.319q0-30.875,0-61.75c0-2.663.017-2.693,2.4-1.679a22.375,22.375,0,0,0,4.151.959c1.859.408,3.024,1.069,3,3.5-.148,14.342-.074,28.686-.075,43.03,0,4.733-.026,9.467.013,14.2a25.23,25.23,0,0,1-.492,6.076A89.227,89.227,0,0,1,885.18,1516.321Z" transform="translate(3987.795 681.341)" fill="#28303d"/>
          <path id="Trazado_1192427" data-name="Trazado 1192427" d="M1075.58,1393.38c6.186,6.219,9.72,14.855,17.846,19.284C1084.532,1408.971,1080.523,1400.732,1075.58,1393.38Z" transform="translate(3839.358 723.89)" fill="#c05c54"/>
          <path id="Trazado_1192428" data-name="Trazado 1192428" d="M1126.216,1410.33c1.386.747,2.117,2.132,2.961,3.323a35.261,35.261,0,0,0,7.49,7.578,23.966,23.966,0,0,1-10.409-9.949A.877.877,0,0,1,1126.216,1410.33Z" transform="translate(3799.978 710.675)" fill="#cc5a4f"/>
          <path id="Trazado_1192429" data-name="Trazado 1192429" d="M1142.34,1382.731c2.066-.323,2.473,1.759,3.61,2.686,1.331,1.085,2.3,2.7,3.761,3.7,1.032.7.158.987-.07,1.452C1146.6,1388.516,1144.515,1385.582,1142.34,1382.731Z" transform="translate(3787.312 732.218)" fill="#222733"/>
          <path id="Trazado_1192430" data-name="Trazado 1192430" d="M1082.633,1447.14l5.044,5.959a17.247,17.247,0,0,1-5.433-5.543A.67.67,0,0,1,1082.633,1447.14Z" transform="translate(3834.163 681.978)" fill="#c76258"/>
          <path id="Trazado_1192431" data-name="Trazado 1192431" d="M1075.137,1435.686l-.39.416c-.659-1.073-2.046-1.688-2.119-3.654C1073.639,1433.749,1074.388,1434.716,1075.137,1435.686Z" transform="translate(3841.658 693.432)" fill="#b55249"/>
          <path id="Trazado_1192432" data-name="Trazado 1192432" d="M1108.83,1388.622l.559-.545,1.83,3.013q.066.328-.254.23Z" transform="translate(3813.436 728.024)" fill="#8a3430"/>
          <path id="Trazado_1192433" data-name="Trazado 1192433" d="M1120.313,1403.638q.021.476.043.952a6.684,6.684,0,0,1-1.834-2.615q.128-.111.252-.229Q1119.546,1402.693,1120.313,1403.638Z" transform="translate(3805.88 717.367)" fill="#8a3430"/>
          <path id="Trazado_1192434" data-name="Trazado 1192434" d="M892.6,1185.472c1.854-.1,3.46.783,5.16,1.3C895.961,1186.67,893.817,1187.925,892.6,1185.472Z" transform="translate(3982.006 885.982)" fill="#28303d"/>
          <path id="Trazado_1192435" data-name="Trazado 1192435" d="M1226.287,1293.713c0,.437-.285.6-.654.653a.544.544,0,0,1-.654-.38.538.538,0,0,1,.477-.757A.723.723,0,0,1,1226.287,1293.713Z" transform="translate(3722.915 801.975)" fill="#18212e"/>
          <path id="Trazado_1192436" data-name="Trazado 1192436" d="M1150.317,1374.193c-.853.052-1.16-.144-1.1-.409.177-.823,1-1.086,1.576-1.529.358-.274.781.229.645.473A9.617,9.617,0,0,1,1150.317,1374.193Z" transform="translate(3781.957 740.421)" fill="#222733"/>
          <path id="Trazado_1192437" data-name="Trazado 1192437" d="M892.639,586.262a7.7,7.7,0,0,1,.784-4.536,3.436,3.436,0,0,1,3.67-2,3.592,3.592,0,0,1,3.222,3.021,13.583,13.583,0,0,1,.157,5.123c-.513,2.555-1.811,3.784-4.16,3.71-2.144-.068-3.527-1.647-3.67-4.209C892.615,586.869,892.639,586.367,892.639,586.262Z" transform="translate(3982.002 1358.255)" fill="#1b212e"/>
          <path id="Trazado_1192438" data-name="Trazado 1192438" d="M1083.382,586.256c-.032,1.588.022,3.138-1.225,4.419-2.289,2.352-5.392,1.726-6.345-1.453a10.52,10.52,0,0,1,.043-6.317c.586-1.817,1.738-2.925,3.76-2.817a3.439,3.439,0,0,1,3.429,3.2C1083.216,584.264,1083.274,585.265,1083.382,586.256Z" transform="translate(3839.539 1357.943)" fill="#1c222e"/>
          <path id="Trazado_1192439" data-name="Trazado 1192439" d="M886.363,531.621c-1.076,0-2.152,0-3.227,0-2.442,0-3.937-1.037-3.9-2.69.037-1.55,1.846-3.069,3.807-3.1,2.145-.035,4.292,0,6.438.028a4.125,4.125,0,0,1,3.555,1.659,2.6,2.6,0,0,1-1.948,4.01c-1.561.156-3.151.031-4.728.031C886.363,531.579,886.363,531.6,886.363,531.621Z" transform="translate(3992.428 1400.249)" fill="#1e2330"/>
          <path id="Trazado_1192440" data-name="Trazado 1192440" d="M1105.339,632a4.883,4.883,0,0,1,4.512-4.811c2.155-.026,4.589,2.73,4.55,5.151a4.762,4.762,0,0,1-4.783,4.276C1107.056,636.589,1105.366,634.766,1105.339,632Z" transform="translate(3816.157 1321.22)" fill="#ee5e5c"/>
          <path id="Trazado_1192441" data-name="Trazado 1192441" d="M857.468,631.911a4.955,4.955,0,0,1,4.594-4.753c2.484.047,4.474,2.459,4.436,5.375a4.428,4.428,0,0,1-4.209,4.034A4.663,4.663,0,0,1,857.468,631.911Z" transform="translate(4009.399 1321.242)" fill="#ee5d5b"/>
          <path id="Trazado_1192442" data-name="Trazado 1192442" d="M1185.125,603.694c-2.109.388-4.04.5-5.693,1.539.172.883.937.92,1.436,1.26a4.118,4.118,0,0,1,1.51,5.1,4.755,4.755,0,0,1-5.213,2.367,1.683,1.683,0,0,1-1.363-2.245,62.606,62.606,0,0,1,1.648-6.178A4.664,4.664,0,0,1,1185.125,603.694Z" transform="translate(3761.288 1340.58)" fill="#e25b53"/>
          <path id="Trazado_1192443" data-name="Trazado 1192443" d="M963.819,690.691a12.287,12.287,0,0,1-10.034-4.775c-.434-.525-.856-1.025-.3-1.682.616-.734,1.2-.167,1.679.177.923.661,1.7,1.547,2.672,2.112,4.907,2.857,10.155,2.189,14.793-1.821.515-.445.882-1.334,1.7-.554s.1,1.369-.389,1.994C971.433,689.377,968.092,690.762,963.819,690.691Z" transform="translate(3934.753 1277.053)" fill="#e55b55"/>
          <path id="Trazado_1192444" data-name="Trazado 1192444" d="M786.422,603.2a3.518,3.518,0,0,1,5.627-.448c2.336,2.458,2.969,5.586,3.153,8.836.058,1.028-.485,1.534-1.539,1.638a4.927,4.927,0,0,1-4.7-2.654c-.756-1.8-.241-3.422,1.772-4.631,1.253-.753.534-1.175-.03-1.715a4.184,4.184,0,0,0-2.153-.854A15.623,15.623,0,0,0,786.422,603.2Z" transform="translate(4064.788 1341.202)" fill="#dc5d55"/>
          <path id="Trazado_1192445" data-name="Trazado 1192445" d="M986.95,644.93c-2.465,0-4.62-1.79-4.783-3.6-.095-1.05.284-1.6,1.288-1.052,1.661.906,3.418.779,5.187.788.595,0,1.375-.255,1.655.564a1.9,1.9,0,0,1-.626,2.107A5.092,5.092,0,0,1,986.95,644.93Z" transform="translate(3912.195 1311.184)" fill="#e36155"/>
        </g>
        <g id="Layer_x0020_1" transform="translate(464.848 1478.359)">
          <path id="Trazado_1192446" data-name="Trazado 1192446" d="M3.064,1.657H72.24A3.071,3.071,0,0,1,75.3,4.721V38.8a3.071,3.071,0,0,1-3.064,3.064H3.064A3.071,3.071,0,0,1,0,38.8V4.721A3.071,3.071,0,0,1,3.064,1.657ZM72.24,3.4H3.064A1.328,1.328,0,0,0,1.742,4.721V38.8a1.328,1.328,0,0,0,1.322,1.322H72.24A1.328,1.328,0,0,0,73.562,38.8V4.721A1.328,1.328,0,0,0,72.24,3.4Z" transform="translate(0 0)" fill="#0b0a0a"/>
          <path id="Trazado_1192447" data-name="Trazado 1192447" d="M1.213,1.961H67.529a.871.871,0,0,1,.871.871V34.869a.871.871,0,0,1-.871.871H1.213a.871.871,0,0,1-.871-.871V2.832a.871.871,0,0,1,.871-.871ZM66.658,3.7H2.084V34H66.658Z" transform="translate(3.281 2.912)" fill="#0b0a0a"/>
          <path id="Trazado_1192448" data-name="Trazado 1192448" d="M1.567,2.935a.871.871,0,1,0,0,1.742H60.394a.871.871,0,1,0,0-1.742Z" transform="translate(6.672 12.255)" fill="#0b0a0a"/>
          <path id="Trazado_1192449" data-name="Trazado 1192449" d="M1.567,2.372a.871.871,0,0,0,0,1.742H39.6a.871.871,0,0,0,0-1.742Z" transform="translate(6.672 6.855)" fill="#0b0a0a"/>
          <path id="Trazado_1192450" data-name="Trazado 1192450" d="M2.242,4.057H23.355a1.513,1.513,0,0,1,1.068.445h0l0,0h0l0,0a.884.884,0,0,1,.068.077,1.509,1.509,0,0,1,.376.994V9.763a1.518,1.518,0,0,1-1.516,1.516H2.242a1.513,1.513,0,0,1-1.068-.445h0l0,0h0l0,0a.889.889,0,0,1-.068-.077,1.509,1.509,0,0,1-.376-.994V5.573a1.513,1.513,0,0,1,.445-1.068h0l0,0h0l0,0a.884.884,0,0,1,.077-.068,1.509,1.509,0,0,1,.994-.376ZM23.129,5.8H2.468V9.537H23.129Z" transform="translate(6.964 23.019)" fill="#0b0a0a"/>
          <path id="Trazado_1192451" data-name="Trazado 1192451" d="M3.526,4.928a.871.871,0,1,0-1.742,0v5.48a.871.871,0,1,0,1.742,0Z" transform="translate(17.107 23.019)" fill="#0b0a0a"/>
          <path id="Trazado_1192452" data-name="Trazado 1192452" d="M4.212,14.391a.87.87,0,0,0,1.694.395c.007-.03,2.418-10.43,4.345-9.645l.015.008h0l.008,0c.77.474-.259,2.553-1,4.053a7.622,7.622,0,0,0-.8,2,4.478,4.478,0,0,0,.047,1.614,1.373,1.373,0,0,0,.66.884,1.316,1.316,0,0,0,1.269-.031,6.572,6.572,0,0,0,1.927-1.843,11.115,11.115,0,0,0,.661-1.03c.5-.832,1.151-1.923,1.447-1.987.079-.017-.086.244.045.846,1.109,5.091,5.516,3.247,5.529,3.242a.87.87,0,1,0-.653-1.613c-.007,0-2.51,1.052-3.174-2-.4-1.856-1.181-2.383-2.114-2.179-1.029.224-1.9,1.683-2.569,2.8a9.9,9.9,0,0,1-.538.846,11.143,11.143,0,0,1-.838.968c.008-.108.019-.215.031-.313a8.345,8.345,0,0,1,.634-1.432c1.063-2.146,2.536-5.121.266-6.35a.871.871,0,0,0-.123-.067l0,0C7.1,1.84,4.22,14.355,4.212,14.391Z" transform="translate(40.168 16.703)" fill="#0b0a0a"/>
          <path id="Trazado_1192453" data-name="Trazado 1192453" d="M5.2,4.575a.871.871,0,0,0,0,1.742H24.827a.871.871,0,1,0,0-1.742Z" transform="translate(41.554 27.981)" fill="#0b0a0a"/>
          <path id="Trazado_1192454" data-name="Trazado 1192454" d="M6.7,4.135a.871.871,0,0,0,0,1.742H9.919a.871.871,0,0,0,0-1.742Z" transform="translate(55.856 23.766)" fill="#0b0a0a"/>
        </g>
        <g id="_x34_2_Trust" transform="translate(666.329 1420.176)">
          <g id="Grupo_1230272" data-name="Grupo 1230272" transform="translate(4.707 31.788)">
            <g id="Grupo_1230271" data-name="Grupo 1230271" transform="translate(0 0)">
              <path id="Trazado_1192455" data-name="Trazado 1192455" d="M76.781,212.709a1.13,1.13,0,0,0-1.569-.3c-2.73,1.865-5.463,3.85-8.125,5.9-.383.3-1.075.523-1.31.192l-9.2-14.028a1.613,1.613,0,0,1,.6-.6c1.97-1.2,3.932-2.447,5.832-3.708a1.129,1.129,0,1,0-1.248-1.881c-1.876,1.244-3.813,2.476-5.756,3.659a3.852,3.852,0,0,0-1.471,1.576H27.153a3.845,3.845,0,0,0-1.469-1.575c-1.945-1.184-3.882-2.416-5.758-3.661a1.129,1.129,0,1,0-1.248,1.881c1.9,1.261,3.862,2.509,5.834,3.71a2.581,2.581,0,0,1,.566.553l-8.893,13.677c-.113.046-.365,1.151-1.587.207-2.66-2.049-5.393-4.034-8.123-5.9A1.129,1.129,0,1,0,5.2,214.278c2.695,1.841,5.392,3.8,8.018,5.822,1.5,1.164,3.563,1.127,4.555-.319l.478-.7a6.092,6.092,0,0,1,1.82,2.534,3.868,3.868,0,0,0-.75.745,3.918,3.918,0,0,0,.819,5.482l.141.1a3.73,3.73,0,0,0,2.687.725,3.98,3.98,0,0,0,1.592,2.918h0a3.867,3.867,0,0,0,3.043.709,3.987,3.987,0,0,0,1.581,2.714,3.885,3.885,0,0,0,3.206.684,3.6,3.6,0,0,0,6.181,1.819,4.135,4.135,0,0,0,6.1-3.089l.521.372a4.145,4.145,0,0,0,6.453-2.89,4.145,4.145,0,0,0,6.218-3.051l.039.026a4.141,4.141,0,0,0,4.713-6.81l-.193-.148,2.3-1.394a3.364,3.364,0,0,0,3.743-.434c2.626-2.023,5.324-3.982,8.019-5.823a1.129,1.129,0,0,0,.3-1.569Zm-52.64,12.716-.463.641a1.658,1.658,0,0,1-2.055.068h0l-.139-.1a1.66,1.66,0,1,1,1.976-2.667l.139.1A1.658,1.658,0,0,1,24.141,225.424Zm4.205,3.988a1.744,1.744,0,0,1-2.859-1.995c.18-.2,1.013-1.376,1.312-1.789a1.747,1.747,0,0,1,2.809,2.078Zm4.624,3.423a1.747,1.747,0,0,1-2.443.365h0a1.746,1.746,0,0,1-.365-2.444l2.385-3.221a1.747,1.747,0,0,1,2.809,2.079ZM37.4,235.4l-.328.443a1.384,1.384,0,0,1-1.935.289h0a1.386,1.386,0,0,1-.289-1.936l.328-.443A1.384,1.384,0,1,1,37.4,235.4Zm24.4-8.864a1.885,1.885,0,0,1-2.623.482L47.448,219a1.129,1.129,0,1,0-1.278,1.861l8.648,5.938a1.882,1.882,0,0,1-2.131,3.1l-8.648-5.938a1.128,1.128,0,0,0-1.418.112l-.09.086a1.13,1.13,0,0,0,.155,1.76l5.915,3.917a1.882,1.882,0,0,1-2.114,3.114l-5.567-3.969a1.129,1.129,0,0,0-1.338,1.82l2.046,1.549a1.886,1.886,0,0,1-1.864,3.264,3.619,3.619,0,0,0-2.651-4.578l.057-.078a4,4,0,0,0-5.28-5.816,3.984,3.984,0,0,0-5.715-1.926,3.884,3.884,0,0,0-1.237-1.567l-.139-.1a3.881,3.881,0,0,0-2.618-.74,8.539,8.539,0,0,0-2.621-3.58l7.461-10.917a2.562,2.562,0,0,0,.274-.531h5.112a7.8,7.8,0,0,0-3.915,6.752v1.407a2.692,2.692,0,0,0,3.5,2.568,5.237,5.237,0,0,0,3.036-2.678A4.193,4.193,0,0,1,42,213.251a6.387,6.387,0,0,0,5.482,2.532,5.881,5.881,0,0,1,3.308,1.014l8.875,6.009.017.012,1.623,1.1,0,0A1.884,1.884,0,0,1,61.8,226.538Zm-1.447-6-8.293-5.615a8.133,8.133,0,0,0-4.574-1.4,4.233,4.233,0,0,1-3.655-1.6,6.451,6.451,0,0,0-10.795.847,3,3,0,0,1-1.712,1.579.435.435,0,0,1-.57-.412V212.53a5.54,5.54,0,0,1,2.837-4.833l3.438-1.919H54.39a2.571,2.571,0,0,0,.274.531L63.236,218.8Z" transform="translate(-4.707 -174.18)"/>
              <path id="Trazado_1192456" data-name="Trazado 1192456" d="M184.018,55.953A12.083,12.083,0,1,0,171.935,43.87,12.1,12.1,0,0,0,184.018,55.953Zm0-21.907a9.824,9.824,0,1,1-9.824,9.824A9.841,9.841,0,0,1,184.018,34.046Z" transform="translate(-147.888 -31.788)"/>
              <path id="Trazado_1192457" data-name="Trazado 1192457" d="M224.984,96.667a1.129,1.129,0,0,0,1.6,0l5.337-5.337a1.129,1.129,0,1,0-1.6-1.6l-4.538,4.538-1.195-1.195a1.129,1.129,0,1,0-1.6,1.6Z" transform="translate(-191.319 -81.118)"/>
            </g>
          </g>
        </g>
        <g id="g1941" transform="translate(1075.09 2129.629)">
          <g id="g1943" transform="translate(0 -682.665)">
            <g id="g1945" clip-path="url(#clip-path)">
              <g id="g1951" transform="translate(6.047 4.168)">
                <path id="path1953" d="M-184.681,0H-206.3A2.293,2.293,0,0,0-208.6,2.293V23.916a2.293,2.293,0,0,0,2.293,2.293h6.28l3.191,5.822a1.529,1.529,0,0,0,2.681,0l3.191-5.822h6.28a2.293,2.293,0,0,0,2.293-2.293V2.293A2.293,2.293,0,0,0-184.681,0Z" transform="translate(208.597)" fill="none" stroke="#000" stroke-linecap="round" stroke-linejoin="round" stroke-miterlimit="10" stroke-width="2"/>
              </g>
              <g id="g1955" transform="translate(19.885 34.954)">
                <path id="path1957" d="M-331.38-97.658h-3.339a3.028,3.028,0,0,0-2.142.887l-3.212,3.212a10.08,10.08,0,0,1-7.128,2.952h-4.606a4,4,0,0,1-4.034-3.889,3.939,3.939,0,0,1,1.155-2.848A3.934,3.934,0,0,1-351.9-98.5h-5.736a2.057,2.057,0,0,0-1.44.589l-9.754,9.57a3.2,3.2,0,0,1-4.528,0,3.2,3.2,0,0,1,0-4.528l16.179-16a4.976,4.976,0,0,1,3.5-1.438h22.3" transform="translate(374.294 110.305)" fill="none" stroke="#000" stroke-linecap="round" stroke-linejoin="round" stroke-miterlimit="10" stroke-width="2"/>
              </g>
              <g id="g1959" transform="translate(42.282 46.761)">
                <path id="path1961" d="M0,0H6.8" fill="none" stroke="#000" stroke-linecap="round" stroke-linejoin="round" stroke-miterlimit="10" stroke-width="2"/>
              </g>
              <g id="g1963" transform="translate(17.07 22.35)">
                <path id="path1965" d="M-16.076,0a2.082,2.082,0,0,0-2.082,2.082,2.082,2.082,0,0,0,2.082,2.082,2.082,2.082,0,0,0,2.082-2.082A2.082,2.082,0,0,0-16.076,0Z" transform="translate(18.157)" fill="none" stroke="#000" stroke-linecap="round" stroke-linejoin="round" stroke-miterlimit="10" stroke-width="2"/>
              </g>
              <g id="g1967" transform="translate(16.227 8.032)">
                <path id="path1969" d="M-.128-24.96l.771,7.274a.585.585,0,0,0,.581.523H4.336a.584.584,0,0,0,.581-.523l.771-7.274A2.924,2.924,0,0,0,2.78-28.192,2.924,2.924,0,0,0-.128-24.96Z" transform="translate(0.145 28.192)" fill="none" stroke="#000" stroke-linecap="round" stroke-linejoin="round" stroke-miterlimit="10" stroke-width="2"/>
              </g>
              <g id="g1971" transform="translate(1.146 61.454)">
                <path id="path1973" d="M-37.846-75.679a4.9,4.9,0,0,1-4.9-4.9,4.9,4.9,0,0,1,4.9-4.9,4.9,4.9,0,0,1,4.731,3.626" transform="translate(42.747 85.48)" fill="none" stroke="#000" stroke-linecap="round" stroke-linejoin="round" stroke-miterlimit="10" stroke-width="2"/>
              </g>
              <g id="g1975" transform="translate(7.643 65.081)">
                <path id="path1977" d="M-104.938,0h-12.978a.612.612,0,0,0-.611.611V3.567" transform="translate(118.528)" fill="none" stroke="#000" stroke-linecap="round" stroke-linejoin="round" stroke-miterlimit="10" stroke-width="2"/>
              </g>
              <g id="g1979" transform="translate(25.819 65.081)">
                <path id="path1981" d="M-169.7-27.544V-30.5a.612.612,0,0,0-.611-.611h-21.365" transform="translate(191.678 31.111)" fill="none" stroke="#000" stroke-linecap="round" stroke-linejoin="round" stroke-miterlimit="10" stroke-width="2"/>
              </g>
              <g id="g1983" transform="translate(62.799 34.954)">
                <path id="path1985" d="M-40.591,0h-5.257V16.367h5.257" transform="translate(45.848)" fill="none" stroke="#000" stroke-linecap="round" stroke-linejoin="round" stroke-miterlimit="10" stroke-width="2"/>
              </g>
              <g id="g1987" transform="translate(68.055 34.954)">
                <path id="path1989" d="M-70.016-61.477v10.3a.764.764,0,0,1-.764.764h-7.538a.765.765,0,0,1-.764-.764V-69.438h9.067v3.375" transform="translate(79.082 69.438)" fill="none" stroke="#000" stroke-linecap="round" stroke-linejoin="round" stroke-miterlimit="10" stroke-width="2"/>
              </g>
              <g id="g1991" transform="translate(6.047 68.648)">
                <path id="path1993" d="M0-11.8V-9.41A1.529,1.529,0,0,0,1.529-7.881h43.6A1.529,1.529,0,0,0,46.658-9.41V-11.8a1.529,1.529,0,0,0-1.529-1.529H1.529A1.529,1.529,0,0,0,0-11.8Z" transform="translate(0 13.333)" fill="none" stroke="#000" stroke-linecap="round" stroke-linejoin="round" stroke-miterlimit="10" stroke-width="2"/>
              </g>
            </g>
          </g>
        </g>
      </g>
    </g>
    <path id="Trazado_1192458" data-name="Trazado 1192458" d="M0,0H1240V11H0Z" transform="translate(180 1669)" fill="#248abf"/>
  </g>
</svg>
