<svg xmlns="http://www.w3.org/2000/svg" xmlns:xlink="http://www.w3.org/1999/xlink" width="103" height="103" viewBox="0 0 103 103">
  <defs>
    <filter id="Trazado_904820" x="0" y="0" width="103" height="103" filterUnits="userSpaceOnUse">
      <feOffset dy="3" input="SourceAlpha"/>
      <feGaussianBlur stdDeviation="3" result="blur"/>
      <feFlood flood-opacity="0.161"/>
      <feComposite operator="in" in2="blur"/>
      <feComposite in="SourceGraphic"/>
    </filter>
  </defs>
  <g id="Grupo_1230291" data-name="Grupo 1230291" transform="translate(-171 -1248.075)">
    <g id="Grupo_1229249" data-name="Grupo 1229249" transform="translate(0 140.473)">
      <g id="Grupo_1223798" data-name="Grupo 1223798" transform="translate(-448.97 456.602)">
        <g id="Grupo_1223164" data-name="Grupo 1223164" transform="translate(628.97 657)">
          <g id="Grupo_1203639" data-name="Grupo 1203639">
            <g id="Grupo_1202437" data-name="Grupo 1202437" transform="translate(0 0)">
              <g id="Grupo_1177315" data-name="Grupo 1177315">
                <g id="Grupo_1173585" data-name="Grupo 1173585" transform="translate(0)">
                  <g id="Grupo_1173428" data-name="Grupo 1173428" transform="translate(0 0)">
                    <g id="Grupo_1171958" data-name="Grupo 1171958">
                      <g id="Grupo_1167341" data-name="Grupo 1167341">
                        <g id="Grupo_1166792" data-name="Grupo 1166792">
                          <g transform="matrix(1, 0, 0, 1, -9, -6)" filter="url(#Trazado_904820)">
                            <g id="Trazado_904820-2" data-name="Trazado 904820" transform="translate(9 6)" fill="#e7f2f8">
                              <path d="M 42.49993515014648 83.49986267089844 C 36.96432495117188 83.49986267089844 31.59508895874023 82.41603851318359 26.5413703918457 80.27849578857422 C 21.65931129455566 78.21355438232422 17.27445220947266 75.25711059570312 13.50860595703125 71.49126434326172 C 9.742758750915527 67.72541046142578 6.786311626434326 63.34055328369141 4.721370220184326 58.45849609375 C 2.583829164505005 53.40477752685547 1.500005722045898 48.03554153442383 1.500005722045898 42.49993133544922 C 1.500005722045898 36.96430969238281 2.583829164505005 31.59507179260254 4.721370220184326 26.54136657714844 C 6.786311626434326 21.6593074798584 9.742758750915527 17.27444839477539 13.50860595703125 13.50860214233398 C 17.27445220947266 9.742754936218262 21.65931129455566 6.786295890808105 26.5413703918457 4.721366405487061 C 31.59508895874023 2.583825349807739 36.96432495117188 1.500001907348633 42.49993515014648 1.500001907348633 C 48.03555679321289 1.500001907348633 53.40479278564453 2.583825349807739 58.45849990844727 4.721366405487061 C 63.34056854248047 6.786295890808105 67.72542572021484 9.742754936218262 71.49127960205078 13.50860214233398 C 75.25712585449219 17.27444839477539 78.21356964111328 21.6593074798584 80.27851104736328 26.54136657714844 C 82.41605377197266 31.59507179260254 83.4998779296875 36.96430969238281 83.4998779296875 42.49993133544922 C 83.4998779296875 48.03554153442383 82.41605377197266 53.40477752685547 80.27851104736328 58.45849609375 C 78.21356964111328 63.34055328369141 75.25712585449219 67.72541046142578 71.49127960205078 71.49126434326172 C 67.72542572021484 75.25711059570312 63.34056854248047 78.21355438232422 58.45849990844727 80.27849578857422 C 53.40479278564453 82.41603851318359 48.03555679321289 83.49986267089844 42.49993515014648 83.49986267089844 Z" stroke="none"/>
                              <path d="M 42.49993515014648 3 C 37.16616058349609 3 31.99352264404297 4.043960571289062 27.12569427490234 6.102867126464844 C 22.42242813110352 8.092185974121094 18.19784545898438 10.94068908691406 14.56926727294922 14.56926727294922 C 10.94069671630859 18.19783782958984 8.092185974121094 22.42242431640625 6.102867126464844 27.12569046020508 C 4.043960571289062 31.9935188293457 3 37.16615676879883 3 42.49993133544922 C 3 47.83370590209961 4.043960571289062 53.00634384155273 6.102867126464844 57.87417221069336 C 8.092185974121094 62.57743835449219 10.94069671630859 66.80202484130859 14.56926727294922 70.43059539794922 C 18.19784545898438 74.05917358398438 22.42242813110352 76.90767669677734 27.12569427490234 78.89699554443359 C 31.99352264404297 80.95590209960938 37.16616058349609 81.99986267089844 42.49993515014648 81.99986267089844 C 47.83370971679688 81.99986267089844 53.00634765625 80.95590209960938 57.87417602539062 78.89699554443359 C 62.57744216918945 76.90767669677734 66.80203247070312 74.05917358398438 70.43060302734375 70.43059539794922 C 74.05917358398438 66.80202484130859 76.90768432617188 62.57743835449219 78.89700317382812 57.87417221069336 C 80.95590972900391 53.00634384155273 81.99987030029297 47.83370590209961 81.99987030029297 42.49993133544922 C 81.99987030029297 37.16615676879883 80.95590972900391 31.9935188293457 78.89700317382812 27.12569046020508 C 76.90768432617188 22.42242431640625 74.05917358398438 18.19783782958984 70.43060302734375 14.56926727294922 C 66.80203247070312 10.94068908691406 62.57744216918945 8.092185974121094 57.87417602539062 6.102867126464844 C 53.00634765625 4.043960571289062 47.83370971679688 3 42.49993515014648 3 M 42.49993515014648 0 C 65.97200012207031 0 84.99987030029297 19.02786254882812 84.99987030029297 42.49993133544922 C 84.99987030029297 65.97200012207031 65.97200012207031 84.99986267089844 42.49993515014648 84.99986267089844 C 19.02787017822266 84.99986267089844 0 65.97200012207031 0 42.49993133544922 C 0 19.02786254882812 19.02787017822266 0 42.49993515014648 0 Z" stroke="none" fill="#248abf"/>
                            </g>
                          </g>
                        </g>
                      </g>
                    </g>
                  </g>
                </g>
              </g>
            </g>
          </g>
        </g>
      </g>
    </g>
    <g id="abogado_6_" data-name="abogado (6)" transform="translate(194.95 1260.521)">
      <g id="Grupo_1230289" data-name="Grupo 1230289" transform="translate(0.807 10.339)">
        <path id="Trazado_1192472" data-name="Trazado 1192472" d="M105.017,271.613h8.029v6.36h-8.029Z" transform="translate(-94.522 -244.218)" fill="#fed2a4"/>
        <path id="Trazado_1192473" data-name="Trazado 1192473" d="M151.46,271.613h3.03v6.36h-3.03Z" transform="translate(-135.967 -244.218)" fill="#ffbd86"/>
        <path id="Trazado_1192474" data-name="Trazado 1192474" d="M41.953,348.383H9.515A2.015,2.015,0,0,1,7.5,346.368V332.72A2.015,2.015,0,0,1,9.515,330.7H34.047a4.379,4.379,0,0,1,4.244,3.3Z" transform="translate(-7.5 -296.95)" fill="#cb97e7"/>
        <path id="Trazado_1192475" data-name="Trazado 1192475" d="M223.977,334a4.379,4.379,0,0,0-4.244-3.3H215.58a4.379,4.379,0,0,1,4.244,3.3l3.663,14.38h4.153Z" transform="translate(-193.187 -296.95)" fill="#bd80e1"/>
        <path id="Trazado_1192476" data-name="Trazado 1192476" d="M90,310.5,85.99,308.06,83.695,310.5l3.262,3.958Z" transform="translate(-75.495 -276.742)" fill="#a8d3d8"/>
        <path id="Trazado_1192477" data-name="Trazado 1192477" d="M142.317,310.5l4.014-2.437,2.295,2.437-3.262,3.958Z" transform="translate(-127.808 -276.742)" fill="#8ebac5"/>
        <path id="Trazado_1192478" data-name="Trazado 1192478" d="M117.049,330.708,114,334.665l3.047,3.7,3.047-3.7Z" transform="translate(-102.54 -296.953)" fill="#f2fbff"/>
        <path id="Trazado_1192479" data-name="Trazado 1192479" d="M63.937,330.7l6.309,7.654v4.381l-7.013-3.859a3.241,3.241,0,0,1-1.679-2.84V330.7Z" transform="translate(-55.737 -296.95)" fill="#a274bf"/>
        <path id="Trazado_1192480" data-name="Trazado 1192480" d="M148.627,330.7l-6.309,7.654v4.381l7.013-3.859a3.241,3.241,0,0,0,1.679-2.84V330.7Z" transform="translate(-127.809 -296.95)" fill="#a274bf"/>
        <path id="Trazado_1192481" data-name="Trazado 1192481" d="M148.627,330.7l-.979,1.188v4.147a3.241,3.241,0,0,1-1.679,2.84l-3.651,2.009v1.85l7.013-3.859a3.241,3.241,0,0,0,1.679-2.84V330.7Z" transform="translate(-127.809 -296.95)" fill="#925cb4"/>
        <path id="Trazado_1192482" data-name="Trazado 1192482" d="M29.579,45.121H14.439A6.939,6.939,0,0,1,7.5,38.182V27.229a6.53,6.53,0,0,1,6.53-6.53,16.33,16.33,0,0,1,12.544-3.5,11.422,11.422,0,0,1,9.944,11.356v9.625a6.939,6.939,0,0,1-6.939,6.939Z" transform="translate(-7.5 -17.054)" fill="#7ca1b1"/>
        <path id="Trazado_1192483" data-name="Trazado 1192483" d="M148.879,17.206a17.331,17.331,0,0,0-4.324-.02l.17.02c5.7.717,9.541,6.016,9.541,11.759V38.59a6.271,6.271,0,0,1-6.536,6.536h4.153a6.939,6.939,0,0,0,6.939-6.939V28.562a11.421,11.421,0,0,0-9.944-11.356Z" transform="translate(-129.805 -17.06)" fill="#678d98"/>
        <path id="Trazado_1192484" data-name="Trazado 1192484" d="M62.954,99.335H57.639A7.235,7.235,0,0,1,50.4,92.1V84.581a13.012,13.012,0,0,0,4.8-6.775h.678a18.481,18.481,0,0,1,14.3,6.775V92.1A7.234,7.234,0,0,1,62.954,99.335Z" transform="translate(-45.788 -71.268)" fill="#ffe5c2"/>
        <path id="Trazado_1192485" data-name="Trazado 1192485" d="M177.26,116.381V123.9a7.233,7.233,0,0,1-6.87,7.224,7.229,7.229,0,0,0,3.84-6.388v-11.3A18.412,18.412,0,0,1,177.26,116.381Z" transform="translate(-152.86 -103.068)" fill="#fed2a4"/>
        <path id="Trazado_1192486" data-name="Trazado 1192486" d="M12.118,147.275H9.1a1.6,1.6,0,0,1-1.6-1.6v-3.315a1.6,1.6,0,0,1,1.6-1.6h3.016Z" transform="translate(-7.5 -127.445)" fill="#fed2a4"/>
        <path id="Trazado_1192487" data-name="Trazado 1192487" d="M234.229,147.275h3.016a1.6,1.6,0,0,0,1.6-1.6v-3.315a1.6,1.6,0,0,0-1.6-1.6h-3.016Z" transform="translate(-209.829 -127.445)" fill="#ffbd86"/>
        <g id="Grupo_1230287" data-name="Grupo 1230287" transform="translate(28.405 6.43)">
          <path id="Trazado_1192488" data-name="Trazado 1192488" d="M292.932,97.688A12.24,12.24,0,1,0,273.883,95.5L271.56,100.2a1.16,1.16,0,0,0,1.555,1.555l4.695-2.323A12.244,12.244,0,0,0,292.932,97.688Z" transform="translate(-271.435 -76.806)" fill="#fff8bf"/>
          <path id="Trazado_1192489" data-name="Trazado 1192489" d="M382.148,97.7a12.221,12.221,0,0,1-10.729,3.408,12.231,12.231,0,0,0-.01-24.114A12.232,12.232,0,0,1,382.148,97.7Z" transform="translate(-360.651 -76.815)" fill="#fcf2a9"/>
          <g id="Grupo_1230286" data-name="Grupo 1230286" transform="translate(9.889 14.835)">
            <g id="Grupo_1230285" data-name="Grupo 1230285">
              <g id="Grupo_1230284" data-name="Grupo 1230284">
                <path id="Trazado_1192490" data-name="Trazado 1192490" d="M368.159,218.149h-4.138a.7.7,0,0,1-.467-1.219l2.536-2.276,2.536,2.276a.7.7,0,0,1-.467,1.219Z" transform="translate(-363.323 -214.654)" fill="#e19974"/>
              </g>
            </g>
          </g>
        </g>
        <path id="Trazado_1192491" data-name="Trazado 1192491" d="M265.841,390.54H249V379.256a1.31,1.31,0,0,1,1.31-1.31h16.337a1.31,1.31,0,0,1,1.31,1.31v9.169A2.115,2.115,0,0,1,265.841,390.54Z" transform="translate(-223.01 -339.107)" fill="#e19974"/>
        <path id="Trazado_1192492" data-name="Trazado 1192492" d="M371.856,377.947H367.7a1.31,1.31,0,0,1,1.31,1.31v9.169a2.115,2.115,0,0,1-2.115,2.115h4.153a2.115,2.115,0,0,0,2.115-2.115v-9.169A1.31,1.31,0,0,0,371.856,377.947Z" transform="translate(-328.219 -339.108)" fill="#d77f4a"/>
        <path id="Trazado_1192493" data-name="Trazado 1192493" d="M302.232,351.943h-5.99a1.568,1.568,0,0,1,0-3.136h5.99a1.568,1.568,0,1,1,0,3.136Z" transform="translate(-263.768 -313.104)" fill="#8ebac5"/>
        <path id="Trazado_1192494" data-name="Trazado 1192494" d="M340.593,348.807h-2.931a1.568,1.568,0,0,1,0,3.136h2.931a1.568,1.568,0,0,0,0-3.136Z" transform="translate(-302.13 -313.104)" fill="#7ca1b1"/>
        <circle id="Elipse_14832" data-name="Elipse 14832" cx="4.032" cy="4.032" r="4.032" transform="translate(16.34 13.201)" fill="#f2fbff"/>
        <circle id="Elipse_14833" data-name="Elipse 14833" cx="4.032" cy="4.032" r="4.032" transform="translate(4.618 13.201)" fill="#f2fbff"/>
        <g id="Grupo_1230288" data-name="Grupo 1230288" transform="translate(7.134 13.201)">
          <path id="Trazado_1192495" data-name="Trazado 1192495" d="M184.23,139.721a4.018,4.018,0,0,0-1.515.3,4.032,4.032,0,0,1,0,7.473,4.032,4.032,0,1,0,1.515-7.769Z" transform="translate(-170.993 -139.721)" fill="#dff6fd"/>
          <path id="Trazado_1192496" data-name="Trazado 1192496" d="M75.308,139.721a4.019,4.019,0,0,0-1.515.3,4.032,4.032,0,0,1,0,7.473,4.032,4.032,0,1,0,1.515-7.769Z" transform="translate(-73.793 -139.721)" fill="#dff6fd"/>
        </g>
      </g>
      <g id="Grupo_1230290" data-name="Grupo 1230290" transform="translate(0 9.529)">
        <path id="Trazado_1192497" data-name="Trazado 1192497" d="M124.33,219.783h-3.1a.807.807,0,0,0,0,1.614h3.1a.807.807,0,0,0,0-1.614Z" transform="translate(-107.465 -197.156)"/>
        <path id="Trazado_1192498" data-name="Trazado 1192498" d="M28.613,39.8a1.974,1.974,0,0,0,1.755,2.845,1.986,1.986,0,0,0,.882-.209l4.3-2.128a13.053,13.053,0,0,0,15.73-2.087,13.033,13.033,0,0,0-7.425-22.136.807.807,0,1,0-.221,1.6,11.427,11.427,0,0,1-.34,22.677,11.478,11.478,0,0,1-7.28-1.656.807.807,0,0,0-.785-.039l-4.695,2.323a.353.353,0,0,1-.473-.473l2.323-4.695a.807.807,0,0,0-.039-.785,11.447,11.447,0,0,1,7.75-17.3.807.807,0,1,0-.272-1.591A12.974,12.974,0,0,0,30.632,22.7,12.325,12.325,0,0,0,19.982,9.684a17.277,17.277,0,0,0-12.926,3.5A7.345,7.345,0,0,0,0,20.513V31.466a7.755,7.755,0,0,0,7.746,7.746H10.5v2.123l-1.836,1.95H2.822A2.826,2.826,0,0,0,0,46.109V59.757a2.825,2.825,0,0,0,2.822,2.822h20.2a.807.807,0,0,0,0-1.614h-6.9v-4.36l6.6-3.629a4.048,4.048,0,0,0,2.1-3.547V44.9h2.539a3.811,3.811,0,0,1,3.661,3.47H28.107a2.119,2.119,0,0,0-2.117,2.117V61.772h0a.807.807,0,0,0,.807.807H43.638a2.926,2.926,0,0,0,2.922-2.922V50.488a2.119,2.119,0,0,0-2.117-2.117H41.52a2.374,2.374,0,0,0-2.249-3.136h-5.99a2.363,2.363,0,0,0-1.5.535,5.184,5.184,0,0,0-4.427-2.484h-5.38l-1.836-1.95V39.213h2.748a7.758,7.758,0,0,0,7.226-4.961,12.965,12.965,0,0,0,.629,1.25ZM44.947,50.488v9.169a1.31,1.31,0,0,1-1.308,1.308H27.6V50.488a.5.5,0,0,1,.5-.5H44.444a.5.5,0,0,1,.5.5ZM33.281,46.849h5.99a.761.761,0,1,1,0,1.522h-5.99a.761.761,0,1,1,0-1.522ZM18.523,41.2,15.316,43.15,12.109,41.2V39.192c.182.012,6.232.012,6.414,0ZM13.3,48.034l2.015-2.617,2.015,2.617-2.015,2.444Zm-1.86-5.348,2.685,1.63-1.879,2.44-2.165-2.627ZM7.432,44.9H8.627l5.882,7.136v2.725l-5.817-3.2a2.434,2.434,0,0,1-1.261-2.133Zm10.953,1.855-1.879-2.44,2.685-1.63,1.359,1.443ZM17.973,37.6H12.659a6.434,6.434,0,0,1-6.427-6.422,4.835,4.835,0,0,0,8.026-3.007,4.035,4.035,0,0,1,2.111-.068A4.835,4.835,0,0,0,24.4,31.18,6.435,6.435,0,0,1,17.973,37.6ZM1.614,25.253a.8.8,0,0,1,.794-.794H4.618v4.9H2.408a.8.8,0,0,1-.794-.794Zm9.2-7.569A17.663,17.663,0,0,1,24.4,23.944v.022a4.835,4.835,0,0,0-7.93,2.494,5.152,5.152,0,0,0-1.824-.018c-.164.025-.32.055-.465.087a4.836,4.836,0,0,0-7.223-3.1,13.654,13.654,0,0,0,3.859-5.745ZM24.4,27.709a3.225,3.225,0,1,1-3.222-3.362A3.262,3.262,0,0,1,24.4,27.709ZM9.457,24.347a3.225,3.225,0,1,1-3.225,3.225A3.229,3.229,0,0,1,9.457,24.347Zm16.558.112h2.209a.8.8,0,0,1,.793.784v3.336a.794.794,0,0,1-.793.784H26.015ZM7.336,14.791a.807.807,0,0,0,.5-.17A15.544,15.544,0,0,1,19.78,11.286,10.747,10.747,0,0,1,29.017,22.98a2.4,2.4,0,0,0-.793-.135H25.583a19.2,19.2,0,0,0-12.3-6.627c.222-.078.456-.153.7-.222a11.8,11.8,0,0,1,8.128.657.807.807,0,1,0,.649-1.478,13.505,13.505,0,0,0-9.29-.711,11.869,11.869,0,0,0-3.745,1.778.818.818,0,0,0-.277.407,12.059,12.059,0,0,1-4.309,6.2H2.408a2.4,2.4,0,0,0-.794.135V20.513a5.729,5.729,0,0,1,5.722-5.722ZM1.614,31.466v-.625a2.4,2.4,0,0,0,.794.135H4.618A8.126,8.126,0,0,0,7.832,37.6H7.746a6.139,6.139,0,0,1-6.132-6.132Zm1.207,29.5a1.209,1.209,0,0,1-1.207-1.207V46.109A1.209,1.209,0,0,1,2.822,44.9h3v4.529a4.049,4.049,0,0,0,2.1,3.547l6.6,3.629v4.36ZM23.2,49.429a2.434,2.434,0,0,1-1.261,2.132l-5.817,3.2V52.037L22.006,44.9H23.2ZM22.885,37.6H22.8a8.124,8.124,0,0,0,3.214-6.622h2.209a2.4,2.4,0,0,0,.793-.135A6.21,6.21,0,0,1,22.885,37.6Z" transform="translate(0 -9.529)"/>
        <path id="Trazado_1192499" data-name="Trazado 1192499" d="M327.889,130.294a.819.819,0,0,0-.2.529v1.52h-.1a.807.807,0,0,0,0,1.614H329.4a.807.807,0,0,0,0-1.614h-.1v-1.2a5.389,5.389,0,0,1,3.375-1.574v6.271l-2.268,2.036a1.506,1.506,0,0,0,1.006,2.627h4.138a1.506,1.506,0,0,0,1.006-2.626l-2.268-2.036v-6.271a5.39,5.39,0,0,1,3.375,1.573v1.2h-.1a.807.807,0,0,0,0,1.614h1.805a.807.807,0,0,0,0-1.614h-.1v-1.52a.818.818,0,0,0-.2-.529,7.053,7.053,0,0,0-4.792-2.35v-.4a.807.807,0,1,0-1.614,0v.4A7.052,7.052,0,0,0,327.889,130.294Zm3.814,8.59,1.786-1.6,1.786,1.6Z" transform="translate(-291.62 -114.12)"/>
      </g>
    </g>
  </g>
</svg>
