<svg xmlns="http://www.w3.org/2000/svg" xmlns:xlink="http://www.w3.org/1999/xlink" width="103" height="103" viewBox="0 0 103 103">
  <defs>
    <filter id="Trazado_978624" x="0" y="0" width="103" height="103" filterUnits="userSpaceOnUse">
      <feOffset dy="3" input="SourceAlpha"/>
      <feGaussianBlur stdDeviation="3" result="blur"/>
      <feFlood flood-opacity="0.161"/>
      <feComposite operator="in" in2="blur"/>
      <feComposite in="SourceGraphic"/>
    </filter>
  </defs>
  <g id="Grupo_1230393" data-name="Grupo 1230393" transform="translate(-616 -1482)">
    <g id="Grupo_1229689" data-name="Grupo 1229689" transform="translate(625 1488)">
      <g id="Grupo_1229382" data-name="Grupo 1229382" transform="translate(0 0)">
        <g id="Grupo_1226922" data-name="Grupo 1226922">
          <g id="Grupo_1224934" data-name="Grupo 1224934">
            <g id="Grupo_1222589" data-name="Grupo 1222589">
              <g id="Grupo_1203109" data-name="Grupo 1203109">
                <g id="Grupo_1176881" data-name="Grupo 1176881">
                  <g id="Grupo_1175148" data-name="Grupo 1175148">
                    <g id="Grupo_1173798" data-name="Grupo 1173798">
                      <g id="Grupo_1171925" data-name="Grupo 1171925">
                        <g id="Grupo_1164524" data-name="Grupo 1164524">
                          <g id="Grupo_1144123" data-name="Grupo 1144123">
                            <g transform="matrix(1, 0, 0, 1, -9, -6)" filter="url(#Trazado_978624)">
                              <g id="Trazado_978624-2" data-name="Trazado 978624" transform="translate(9 6)" fill="#e7f2f8">
                                <path d="M 42.5 83.49997711181641 C 36.96437835693359 83.49997711181641 31.59512901306152 82.41616058349609 26.54141235351562 80.27861785888672 C 21.65934181213379 78.21367645263672 17.27447128295898 75.25721740722656 13.50862312316895 71.49137115478516 C 9.742764472961426 67.72550964355469 6.786305904388428 63.34065246582031 4.721364498138428 58.45858001708984 C 2.583823442459106 53.40486145019531 1.5 48.03561401367188 1.5 42.49999237060547 C 1.5 36.96437072753906 2.583823442459106 31.59512138366699 4.721364498138428 26.54140472412109 C 6.786305904388428 21.65933418273926 9.742764472961426 17.27447509765625 13.50862312316895 13.50862789154053 C 17.27447128295898 9.742769241333008 21.65934181213379 6.786310195922852 26.54141235351562 4.721368789672852 C 31.59512901306152 2.58382773399353 36.96437835693359 1.500004172325134 42.5 1.500004172325134 C 48.03562164306641 1.500004172325134 53.40486907958984 2.58382773399353 58.45858764648438 4.721368789672852 C 63.34066009521484 6.786310195922852 67.72553253173828 9.742769241333008 71.49137878417969 13.50862789154053 C 75.25723266601562 17.27447509765625 78.21369171142578 21.65933418273926 80.27863311767578 26.54140472412109 C 82.41617584228516 31.59512138366699 83.5 36.96437072753906 83.5 42.49999237060547 C 83.5 48.03561401367188 82.41617584228516 53.40486145019531 80.27863311767578 58.45858001708984 C 78.21369171142578 63.34065246582031 75.25723266601562 67.72550964355469 71.49137878417969 71.49137115478516 C 67.72553253173828 75.25721740722656 63.34066009521484 78.21367645263672 58.45858764648438 80.27861785888672 C 53.40486907958984 82.41616058349609 48.03562164306641 83.49997711181641 42.5 83.49997711181641 Z" stroke="none"/>
                                <path d="M 42.5 2.999992370605469 C 37.16621398925781 2.999992370605469 31.99356079101562 4.043952941894531 27.125732421875 6.102874755859375 C 22.42246627807617 8.092178344726562 18.19785308837891 10.94069671630859 14.56928253173828 14.56927490234375 C 10.94070434570312 18.19784545898438 8.092185974121094 22.42245864868164 6.102882385253906 27.12572479248047 C 4.043960571289062 31.99355316162109 3 37.16620635986328 3 42.49999237060547 C 3 47.83377838134766 4.043960571289062 53.00641632080078 6.102867126464844 57.87424468994141 C 8.092185974121094 62.5775260925293 10.94070434570312 66.8021240234375 14.56928253173828 70.43070220947266 C 18.19785308837891 74.05927276611328 22.42246627807617 76.90779113769531 27.125732421875 78.89710998535156 C 31.99356079101562 80.95601654052734 37.16621398925781 81.99997711181641 42.5 81.99997711181641 C 47.83378601074219 81.99997711181641 53.00643920898438 80.95601654052734 57.87425231933594 78.89710998535156 C 62.57753372192383 76.90779113769531 66.80213165283203 74.05927276611328 70.43071746826172 70.43070220947266 C 74.05929565429688 66.8021240234375 76.90781402587891 62.5775260925293 78.89711761474609 57.87424468994141 C 80.95603942871094 53.00641632080078 82 47.83377838134766 82 42.49999237060547 C 82 37.16620635986328 80.95603942871094 31.99355316162109 78.89711761474609 27.12572479248047 C 76.90781402587891 22.42245864868164 74.05929565429688 18.19786071777344 70.43071746826172 14.56927490234375 C 66.80213165283203 10.94069671630859 62.57753372192383 8.092178344726562 57.87425231933594 6.102874755859375 C 53.00643920898438 4.043952941894531 47.83378601074219 2.999992370605469 42.5 2.999992370605469 M 42.5 -7.62939453125e-06 C 65.97209167480469 -7.62939453125e-06 85 19.02788543701172 85 42.49999237060547 C 85 65.97208404541016 65.97209167480469 84.99997711181641 42.5 84.99997711181641 C 19.02789306640625 84.99997711181641 0 65.97208404541016 0 42.49999237060547 C 0 19.02788543701172 19.02789306640625 -7.62939453125e-06 42.5 -7.62939453125e-06 Z" stroke="none" fill="#248abf"/>
                              </g>
                            </g>
                          </g>
                        </g>
                      </g>
                    </g>
                  </g>
                </g>
              </g>
            </g>
          </g>
        </g>
      </g>
    </g>
    <g id="ley_8_" data-name="ley (8)" transform="translate(635.716 1485.014)">
      <g id="Grupo_1230384" data-name="Grupo 1230384" transform="translate(12.944 48.401)">
        <g id="Grupo_1230379" data-name="Grupo 1230379" transform="translate(0 3.173)">
          <path id="Trazado_1192749" data-name="Trazado 1192749" d="M148.047,357.238a10.1,10.1,0,0,0,2.425,6.653H113.916a1.157,1.157,0,0,1-.944-.483,11.777,11.777,0,0,1,0-12.34,1.157,1.157,0,0,1,.944-.483h36.557A10.1,10.1,0,0,0,148.047,357.238Z" transform="translate(-111.226 -350.585)" fill="#fb3a82"/>
          <path id="Trazado_1192750" data-name="Trazado 1192750" d="M122.382,350.587l-10.309,11.166a11.682,11.682,0,0,1-.844-4.513,10.558,10.558,0,0,1,1.746-6.17,1.155,1.155,0,0,1,.944-.483Z" transform="translate(-111.23 -350.587)" fill="#fb1466"/>
          <path id="Trazado_1192751" data-name="Trazado 1192751" d="M182.612,357.238a10.1,10.1,0,0,0,2.425,6.653H147.924s-2.133-2.16-2.133-6.653,2.133-6.653,2.133-6.653h37.113A10.1,10.1,0,0,0,182.612,357.238Z" transform="translate(-141.768 -350.585)" fill="#e0d3ce"/>
          <g id="Grupo_1230378" data-name="Grupo 1230378" transform="translate(4.022 0)">
            <path id="Trazado_1192752" data-name="Trazado 1192752" d="M152.92,350.587l-7.092,7.682c-.024-.328-.038-.672-.038-1.029,0-4.493,2.133-6.653,2.133-6.653Z" transform="translate(-145.79 -350.587)" fill="#cdbfbb"/>
            <path id="Trazado_1192753" data-name="Trazado 1192753" d="M428.8,357.245a10.1,10.1,0,0,0,2.425,6.653h-4.4a10.337,10.337,0,0,1,0-13.305h4.4A10.1,10.1,0,0,0,428.8,357.245Z" transform="translate(-391.975 -350.591)" fill="#cdbfbb"/>
          </g>
        </g>
        <g id="Grupo_1230383" data-name="Grupo 1230383" transform="translate(5.008)">
          <g id="Grupo_1230381" data-name="Grupo 1230381" transform="translate(0)">
            <path id="Trazado_1192754" data-name="Trazado 1192754" d="M195.019,325.249a1.931,1.931,0,0,1-1.931,1.931h-36.9a1.931,1.931,0,0,1,0-3.863h36.9A1.931,1.931,0,0,1,195.019,325.249Z" transform="translate(-154.26 -323.317)" fill="#fb3a82"/>
            <g id="Grupo_1230380" data-name="Grupo 1230380">
              <path id="Trazado_1192755" data-name="Trazado 1192755" d="M163.334,323.317l-3.565,3.863h-3.579a1.931,1.931,0,0,1,0-3.863Z" transform="translate(-154.26 -323.317)" fill="#fb1466"/>
              <path id="Trazado_1192756" data-name="Trazado 1192756" d="M461.391,325.252a1.933,1.933,0,0,1-1.932,1.932h-3.746a1.931,1.931,0,0,0,0-3.863h3.746A1.932,1.932,0,0,1,461.391,325.252Z" transform="translate(-420.631 -323.321)" fill="#fb1466"/>
            </g>
          </g>
          <g id="Grupo_1230382" data-name="Grupo 1230382" transform="translate(0 15.79)">
            <path id="Trazado_1192757" data-name="Trazado 1192757" d="M193.086,462.858h-36.9a1.931,1.931,0,1,1,0-3.862h36.9a1.931,1.931,0,1,1,0,3.862Z" transform="translate(-154.257 -458.996)" fill="#fb3a82"/>
            <path id="Trazado_1192758" data-name="Trazado 1192758" d="M461.391,460.931a1.93,1.93,0,0,1-1.932,1.931h-3.746a1.931,1.931,0,1,0,0-3.861h3.746A1.932,1.932,0,0,1,461.391,460.931Z" transform="translate(-420.63 -459)" fill="#fb1466"/>
          </g>
        </g>
      </g>
      <g id="Grupo_1230392" data-name="Grupo 1230392" transform="translate(-0.001 12.193)">
        <g id="Grupo_1230387" data-name="Grupo 1230387" transform="translate(0.873 23.065)">
          <g id="Grupo_1230385" data-name="Grupo 1230385" transform="translate(0 7.387)">
            <path id="Trazado_1192759" data-name="Trazado 1192759" d="M32.922,276.975,29.8,273.857,8.581,293.449A3.361,3.361,0,1,0,13.33,298.2Z" transform="translate(-7.5 -273.857)" fill="#873f30"/>
            <path id="Trazado_1192760" data-name="Trazado 1192760" d="M14.489,305.576a3.362,3.362,0,0,1-4.752,0,3.328,3.328,0,0,1-.82-1.339,3.356,3.356,0,0,0,3.41-.817c.032-.032.064-.066.1-.1L32.016,282.1l2.159,2.159L14.583,305.478C14.552,305.511,14.52,305.545,14.489,305.576Z" transform="translate(-8.753 -281.137)" fill="#6c3328"/>
          </g>
          <path id="Trazado_1192761" data-name="Trazado 1192761" d="M197.815,210.382l-7.179,8.564,2.933,2.933,8.563-7.179Z" transform="translate(-169.323 -210.382)" fill="#873f30"/>
          <path id="Trazado_1192762" data-name="Trazado 1192762" d="M206.586,210.382l-2.32,2.767.7.7a1.312,1.312,0,0,1,0,1.855l-4.4,4.4,1.778,1.777L210.9,214.7Z" transform="translate(-178.094 -210.382)" fill="#6c3328"/>
          <g id="Grupo_1230386" data-name="Grupo 1230386" transform="translate(18.937 6.81)">
            <path id="Trazado_1192763" data-name="Trazado 1192763" d="M173.686,275.344l-2.847-2.847a2.107,2.107,0,0,1,2.98-2.98l2.847,2.847a2.107,2.107,0,1,1-2.98,2.98Z" transform="translate(-170.222 -268.899)" fill="#ba5d4f"/>
            <path id="Trazado_1192764" data-name="Trazado 1192764" d="M186.579,285.261a2.107,2.107,0,0,1-2.98,0l-2.158-2.158a2.107,2.107,0,0,0,2.98-2.98l2.158,2.158A2.107,2.107,0,0,1,186.579,285.261Z" transform="translate(-180.135 -278.817)" fill="#a34f41"/>
          </g>
        </g>
        <g id="Grupo_1230388" data-name="Grupo 1230388" transform="translate(23.161 3.492)">
          <path id="Trazado_1192765" data-name="Trazado 1192765" d="M0,0H8.941V14.037H0Z" transform="translate(9.924 0) rotate(45)" fill="#ba5d4f"/>
          <path id="Trazado_1192766" data-name="Trazado 1192766" d="M0,0H8.941V14.037H0Z" transform="translate(20.167 30.1) rotate(-135)" fill="#a34f41"/>
        </g>
        <g id="Grupo_1230391" data-name="Grupo 1230391" transform="translate(0)">
          <path id="Trazado_1192767" data-name="Trazado 1192767" d="M177.324,34.415l-.22-.22a2.132,2.132,0,0,1,0-3.015l10.862-10.862a2.132,2.132,0,0,1,3.015,0l.22.22a2.132,2.132,0,0,1,0,3.015L180.339,34.415A2.132,2.132,0,0,1,177.324,34.415Z" transform="translate(-155.941 -18.821)" fill="#873f30"/>
          <path id="Trazado_1192768" data-name="Trazado 1192768" d="M348.868,205.959l.22.22a2.132,2.132,0,0,0,3.015,0l10.862-10.862a2.132,2.132,0,0,0,0-3.015l-.22-.22a2.132,2.132,0,0,0-3.015,0l-10.862,10.862A2.132,2.132,0,0,0,348.868,205.959Z" transform="translate(-307.716 -170.594)" fill="#6c3328"/>
          <g id="Grupo_1230390" data-name="Grupo 1230390">
            <path id="Trazado_1192769" data-name="Trazado 1192769" d="M0,0H10.04V21.2H0Z" transform="translate(42.149 7.491) rotate(45)" fill="#fcc16d"/>
            <path id="Trazado_1192770" data-name="Trazado 1192770" d="M0,0H21.2V5.082H0Z" transform="translate(30.662 25.993) rotate(-45)" fill="#fca62f"/>
            <path id="Trazado_1192771" data-name="Trazado 1192771" d="M239.807,67.7l-1.739-.711a1.6,1.6,0,0,0-1.736.349L224.12,79.546a1.6,1.6,0,0,0-.349,1.736l.711,1.739a1.066,1.066,0,0,0,1.741.35l13.935-13.935A1.066,1.066,0,0,0,239.807,67.7Z" transform="translate(-197.624 -60.503)" fill="#873f30"/>
            <path id="Trazado_1192772" data-name="Trazado 1192772" d="M304.409,132.3l.711,1.739a1.6,1.6,0,0,1-.349,1.736l-12.212,12.212a1.6,1.6,0,0,1-1.736.349l-1.739-.711a1.066,1.066,0,0,1-.35-1.741l13.935-13.935A1.066,1.066,0,0,1,304.409,132.3Z" transform="translate(-254.855 -117.735)" fill="#6c3328"/>
            <g id="Grupo_1230389" data-name="Grupo 1230389">
              <path id="Trazado_1192773" data-name="Trazado 1192773" d="M56.78,63.318h-.649a9.027,9.027,0,0,1-.752-1.433.873.873,0,1,0-1.613.668c.108.261.229.515.356.765H19.883a2.792,2.792,0,0,0-.761.106,10.146,10.146,0,0,1-1.283-5.2c0-.381.017-.756.05-1.123H34.612a.873.873,0,1,0,0-1.746H18.624l2.051-2.222H54.117a10.9,10.9,0,0,0-.84,2.222H41.8a.873.873,0,1,0,0,1.746H52.971c-.034.355-.054.713-.056,1.074a.873.873,0,0,0,.869.877h0a.873.873,0,0,0,.873-.869,9.34,9.34,0,0,1,1.468-5.049h.651a2.8,2.8,0,1,0,0-5.608H45.869l10-10a3,3,0,0,0,0-4.249l-.22-.22a3,3,0,0,0-4.1-.143l-1.545-1.545.526-.526a2.466,2.466,0,0,0,.54-2.683l-.711-1.739a1.935,1.935,0,0,0-1.4-1.165l-1.214-1.214a.873.873,0,0,0-1.234,1.234l.6.6L33.35,39.634l-4.045-4.045L43.061,21.833l.535.535a.873.873,0,1,0,1.234-1.234l-1.152-1.152a1.935,1.935,0,0,0-1.165-1.4h0l-1.739-.711a2.467,2.467,0,0,0-2.683.54l-.526.526L36.02,17.388a3,3,0,0,0-.143-4.095l-.22-.22a3,3,0,0,0-4.25,0L20.545,23.935a3,3,0,0,0,0,4.25l.219.22a3,3,0,0,0,4.1.143L26.4,30.093l-.526.526a2.466,2.466,0,0,0-.54,2.683l.711,1.739A1.934,1.934,0,0,0,27.434,36.2l-4.377,5.221A2.982,2.982,0,0,0,19.118,45.2l-1.985,1.832a.873.873,0,0,0,1.184,1.283l1.834-1.693,2.162,2.162L6.061,66.394a2.488,2.488,0,1,1-3.516-3.516L15.294,51.109a.873.873,0,1,0-1.184-1.283L1.361,61.6A4.233,4.233,0,0,0,4.23,68.94h.088a4.2,4.2,0,0,0,3.026-1.361l5.231-5.667a10.06,10.06,0,0,0,1.4,2.992,2.033,2.033,0,0,0,1.655.85H17.1a2.8,2.8,0,0,0,2.779,3.173h36.9a2.8,2.8,0,1,0,0-5.608Zm1.058-12.985a1.06,1.06,0,0,1-1.058,1.058H22.286l1.451-1.572a2.983,2.983,0,0,0,2.977-.545H56.78A1.06,1.06,0,0,1,57.838,50.333ZM31.507,40.259,26.453,44.5l-2.009-2.009,4.237-5.054ZM27.7,47.529a3,3,0,0,0-.182-1.647l5.22-4.377A1.935,1.935,0,0,0,33.9,42.89l1.739.711a2.467,2.467,0,0,0,2.683-.54l.526-.526,1.545,1.545a3.011,3.011,0,0,0-.347,3.449H27.7Zm25.823-13.6a1.251,1.251,0,0,1,.89.369l.22.22a1.259,1.259,0,0,1,0,1.781L43.769,47.16a1.259,1.259,0,0,1-1.781,0l-.22-.22a1.261,1.261,0,0,1,0-1.781L52.631,34.3a1.25,1.25,0,0,1,.89-.369Zm-3.211.22L41.62,42.839,40.081,41.3l8.691-8.691ZM34.5,40.958,48.43,27.023a.184.184,0,0,1,.133-.057.213.213,0,0,1,.041,0,.186.186,0,0,1,.141.116l.711,1.739a.724.724,0,0,1-.159.788L37.086,41.826a.724.724,0,0,1-.788.159l-1.739-.711a.193.193,0,0,1-.064-.316ZM22.89,27.539A1.25,1.25,0,0,1,22,27.17l-.22-.22a1.259,1.259,0,0,1,0-1.781L32.642,14.308a1.259,1.259,0,0,1,1.781,0l.22.22a1.259,1.259,0,0,1,0,1.781L23.78,27.171a1.252,1.252,0,0,1-.89.369Zm3.21-.22,8.691-8.691,1.539,1.539-8.691,8.691Zm1.013,4.534L39.325,19.641a.724.724,0,0,1,.788-.159l1.739.711a.193.193,0,0,1,.063.315L27.981,34.444a.193.193,0,0,1-.315-.064l-.711-1.739A.725.725,0,0,1,27.113,31.853ZM20.682,44.175A1.235,1.235,0,0,1,22.79,43.3l2.847,2.847A1.235,1.235,0,1,1,23.891,47.9l-2.847-2.847a1.227,1.227,0,0,1-.362-.873ZM15.4,63.891A8.806,8.806,0,0,1,14,60.364L16.1,58.1c0,.043,0,.086,0,.13a12.11,12.11,0,0,0,1.354,5.78H15.633A.284.284,0,0,1,15.4,63.891ZM56.78,67.18h-36.9a1.058,1.058,0,1,1,0-2.117h36.9a1.058,1.058,0,1,1,0,2.117Z" transform="translate(0.001 -12.193)"/>
              <path id="Trazado_1192774" data-name="Trazado 1192774" d="M203.2,417.166a.873.873,0,1,0,0,1.746h20.334a.873.873,0,1,0,0-1.746Z" transform="translate(-178.781 -370.036)"/>
            </g>
          </g>
        </g>
      </g>
    </g>
  </g>
</svg>
