<svg xmlns="http://www.w3.org/2000/svg" xmlns:xlink="http://www.w3.org/1999/xlink" width="190" height="228" viewBox="0 0 190 228">
  <defs>
    <clipPath id="clip-path">
      <rect id="Rectángulo_422945" data-name="Rectángulo 422945" width="190" height="228" transform="translate(180 2021)" fill="#fff" stroke="#707070" stroke-width="1"/>
    </clipPath>
  </defs>
  <g id="Enmascarar_grupo_1225071" data-name="Enmascarar grupo 1225071" transform="translate(-180 -2021)" clip-path="url(#clip-path)">
    <g id="Grupo_1230458" data-name="Grupo 1230458" transform="translate(-2223.744 1767.983)">
      <g id="Grupo_1230394" data-name="Grupo 1230394" transform="translate(2527.311 390.503)">
        <path id="Trazado_1192775" data-name="Trazado 1192775" d="M3001.6,1055.829H2983.2l-19.162-78.416a8.933,8.933,0,1,1,17.356-4.241Z" transform="translate(-2963.783 -966.356)" fill="#f9c4b8"/>
      </g>
      <path id="Trazado_1192776" data-name="Trazado 1192776" d="M2569.735,1012.28c-8.374-11.273-3.577-27.532-3.577-27.532l11.056,10.65Z" transform="translate(-125.513 -590.187)" fill="#fcd105"/>
      <path id="Trazado_1192777" data-name="Trazado 1192777" d="M2728.132,1013.178l-76.092-.163,3.252-90.075,42.111-10.406,36.582,9.593Z" transform="translate(-193.512 -533.906)" fill="#fc9705"/>
      <path id="Trazado_1192778" data-name="Trazado 1192778" d="M2698.47,498.56a47.151,47.151,0,0,1,19.511-16.584c11.95-5.366,22.681-8.048,36.339,1.463s12.777,7.623,18.047,10.487c11.219,6.1,8.048,10.731,11.219,21.218s10.731,5.609,12.438,13.658,1.951,21.462,1.951,21.462-12.682,9.024-21.95,11.95c-7.5,2.368-29.022,7.8-29.022,7.8Z" transform="translate(-229.697 -194.562)" fill="#433fab"/>
      <path id="Trazado_1192779" data-name="Trazado 1192779" d="M2584.711,567.663c-11.706,3.658-13.17,7.317-15.365,15.853s-7.317,8.536-10.731,13.414,2.927,12.682.975,17.56-3.658,2.439-8.78,9.512,5.121,30.242,5.121,30.242,20.242-2.439,36.095-6.1c12.675-2.925,38.046-11.463,38.046-11.463l-21.706-68.532Z" transform="translate(-113.5 -265.127)" fill="#433fab"/>
      <g id="Grupo_1230395" data-name="Grupo 1230395" transform="translate(2493.491 361.644)">
        <path id="Trazado_1192780" data-name="Trazado 1192780" d="M2819.442,868.55a8.94,8.94,0,0,1-8.583-11.427l4.39-15.121a8.933,8.933,0,0,1,17.158,4.981l-4.39,15.121A8.935,8.935,0,0,1,2819.442,868.55Z" transform="translate(-2810.502 -835.557)" fill="#efb4ad"/>
      </g>
      <g id="Grupo_1230396" data-name="Grupo 1230396" transform="translate(2414.491 478.81)">
        <path id="Trazado_1192781" data-name="Trazado 1192781" d="M2623.31,1368.918H2453.618a1.165,1.165,0,1,1,0-2.33H2623.31a1.165,1.165,0,0,1,0,2.33Z" transform="translate(-2452.453 -1366.588)" fill="#0d0845"/>
      </g>
      <circle id="Elipse_14834" data-name="Elipse 14834" cx="37.071" cy="37.071" r="37.071" transform="translate(2461.703 338.391) rotate(-45)" fill="#efb4ad"/>
      <ellipse id="Elipse_14835" data-name="Elipse 14835" cx="9.268" cy="9.918" rx="9.268" ry="9.918" transform="translate(2465.947 357.536) rotate(-48.953)" fill="#efb4ad"/>
      <ellipse id="Elipse_14836" data-name="Elipse 14836" cx="3.458" cy="5.713" rx="3.458" ry="5.713" transform="translate(2522.42 323.819) rotate(-21.945)" fill="#2c2c2d"/>
      <ellipse id="Elipse_14837" data-name="Elipse 14837" cx="3.365" cy="5.56" rx="3.365" ry="5.56" transform="translate(2503.702 334.003) rotate(-21.945)" fill="#2c2c2d"/>
      <g id="Grupo_1230397" data-name="Grupo 1230397" transform="translate(2518.395 333.868)">
        <path id="Trazado_1192782" data-name="Trazado 1192782" d="M2930.168,722.608a.292.292,0,0,1-.24-.456c.977-1.42,3.456-5.436,3.2-6.941-.088-.527-.619-.633-1.813-.824a11.817,11.817,0,0,1-7.874-4.234.291.291,0,0,1,.437-.385,11.3,11.3,0,0,0,7.529,4.044c1.193.19,2.135.341,2.3,1.3.341,2.044-3.15,7.151-3.3,7.367A.289.289,0,0,1,2930.168,722.608Z" transform="translate(-2923.373 -709.669)" fill="#2c2c2d"/>
      </g>
      <g id="Grupo_1230398" data-name="Grupo 1230398" transform="translate(2513.713 326.576)">
        <path id="Trazado_1192783" data-name="Trazado 1192783" d="M2903,681.108l-.845-.478c2.58-4.559,5.823-4,5.959-3.977l-.18.954C2907.823,677.589,2905.212,677.189,2903,681.108Z" transform="translate(-2902.15 -676.618)" fill="#36334c"/>
      </g>
      <g id="Grupo_1230399" data-name="Grupo 1230399" transform="translate(2477.067 345.218)">
        <path id="Trazado_1192784" data-name="Trazado 1192784" d="M2736.547,764.034a.486.486,0,0,1-.06-.967l15.609-1.951a.485.485,0,1,1,.121.963l-15.609,1.951A.474.474,0,0,1,2736.547,764.034Z" transform="translate(-2736.062 -761.111)" fill="#36334c"/>
      </g>
      <g id="Grupo_1230400" data-name="Grupo 1230400" transform="translate(2472.628 353.963)">
        <path id="Trazado_1192785" data-name="Trazado 1192785" d="M2726.883,808.061a.29.29,0,0,1-.253-.146c-.036-.062-3.6-6.2-7.193-6.569a3.443,3.443,0,0,0-2.986,1.333.291.291,0,0,1-.435-.387,3.991,3.991,0,0,1,3.482-1.525c3.894.4,7.487,6.595,7.638,6.858a.291.291,0,0,1-.253.436Z" transform="translate(-2715.942 -800.745)" fill="#36334c"/>
      </g>
      <g id="Grupo_1230401" data-name="Grupo 1230401" transform="translate(2475.716 355.98)">
        <path id="Trazado_1192786" data-name="Trazado 1192786" d="M2730.231,812.342a.291.291,0,0,1-.222-.48,6.3,6.3,0,0,1,3.767-1.971.291.291,0,0,1,.065.579,5.811,5.811,0,0,0-3.387,1.769A.294.294,0,0,1,2730.231,812.342Z" transform="translate(-2729.94 -809.889)" fill="#36334c"/>
      </g>
      <g id="Grupo_1230402" data-name="Grupo 1230402" transform="translate(2520.673 352.241)">
        <path id="Trazado_1192787" data-name="Trazado 1192787" d="M2937.147,794.774a6.931,6.931,0,0,1-3.3-.8.291.291,0,0,1,.274-.514c3.467,1.849,7.479-.458,7.52-.482a.291.291,0,0,1,.3.5A10.4,10.4,0,0,1,2937.147,794.774Z" transform="translate(-2933.695 -792.94)" fill="#2c2c2d"/>
      </g>
      <g id="Grupo_1230403" data-name="Grupo 1230403" transform="translate(2522.298 356.387)">
        <path id="Trazado_1192788" data-name="Trazado 1192788" d="M2943.331,812.856a4.054,4.054,0,0,1-2.128-.583.291.291,0,1,1,.3-.5,3.694,3.694,0,0,0,2.769.377.291.291,0,0,1,.175.556A4.039,4.039,0,0,1,2943.331,812.856Z" transform="translate(-2941.063 -811.732)" fill="#2c2c2d"/>
      </g>
      <path id="Trazado_1192789" data-name="Trazado 1192789" d="M2732.382,721.243c1.034,5.2.44,9.87-2.36,10.695s-5.952-2.736-7.778-7.71c-2.817-7.671-.44-9.871,2.359-10.695S2729.343,705.989,2732.382,721.243Z" transform="translate(-247.24 -377.114)" fill="#433fab"/>
      <path id="Trazado_1192790" data-name="Trazado 1192790" d="M2754.7,553.531s7.839.482,13.027,2.382c4.466-2.69,7.46-4.333,7.46-4.333s-8.351-4.614-23.576-4.552c-3.952.016-10.1,2.463-13.6,4.307-5.149,2.718-12.392,7.573-16.483,14.878a31.6,31.6,0,0,0-3.089,23.576s18.21-9.918,31.868-20.161a82.543,82.543,0,0,0,11.895-10.3Z" transform="translate(-244.465 -249.045)" fill="#433fab"/>
      <g id="Grupo_1230404" data-name="Grupo 1230404" transform="translate(2509.398 304.033)">
        <path id="Trazado_1192791" data-name="Trazado 1192791" d="M2893.618,578.825a.289.289,0,0,1-.145-.039c-.029-.017-3-1.69-10.662-3.765a.291.291,0,1,1,.152-.562c7.751,2.1,10.679,3.753,10.8,3.822a.291.291,0,0,1-.146.544Z" transform="translate(-2882.596 -574.449)" fill="#433fab"/>
      </g>
      <g id="Grupo_1230405" data-name="Grupo 1230405" transform="translate(2432.249 302.623)">
        <path id="Trazado_1192792" data-name="Trazado 1192792" d="M2542.7,653.521c-.373-.71-9.137-17.452-9.679-22.651-.515-4.945,1.349-6.752,5.433-10.709q.5-.486,1.048-1.019c.722-.706,1.361-1.3,1.924-1.826,3.114-2.9,3.762-3.506,2.871-8.319a35.058,35.058,0,0,0-1.27-4.672c-.974-2.98-1.743-5.334.115-8.43,1.538-2.562,4.25-4.7,6.643-6.593a23.462,23.462,0,0,0,4.1-3.726,5.873,5.873,0,0,0,.833-4,9.984,9.984,0,0,1,1.321-6.059c3.523-5.872,7.957-8.121,14.378-7.293l-.074.578c-6.243-.806-10.371,1.292-13.8,7.015a9.493,9.493,0,0,0-1.238,5.744,6.4,6.4,0,0,1-.945,4.359,23.738,23.738,0,0,1-4.212,3.84c-2.354,1.858-5.021,3.965-6.5,6.436-1.721,2.868-1.024,5-.06,7.949a35.508,35.508,0,0,1,1.289,4.747c.949,5.127.1,5.916-3.047,8.851-.561.523-1.2,1.115-1.914,1.816q-.548.535-1.05,1.021c-4.063,3.937-5.744,5.567-5.259,10.23.53,5.088,9.524,22.268,9.615,22.441Z" transform="translate(-2532.933 -568.059)" fill="#433fab"/>
      </g>
      <g id="Grupo_1230406" data-name="Grupo 1230406" transform="translate(2552.665 318.724)">
        <path id="Trazado_1192793" data-name="Trazado 1192793" d="M3094.162,677.855l-.582-.015c0-.062.168-6.313.651-15.237.488-9.024-.832-10.722-4.192-12.686a18.187,18.187,0,0,0-3.348-1.479c-2.5-.891-4.663-1.659-8-7.1l.5-.3c3.229,5.268,5.2,5.969,7.7,6.858a18.673,18.673,0,0,1,3.447,1.524c3.778,2.209,4.955,4.429,4.48,13.22C3094.33,671.55,3094.162,677.793,3094.162,677.855Z" transform="translate(-3078.691 -641.031)" fill="#433fab"/>
      </g>
      <ellipse id="Elipse_14838" data-name="Elipse 14838" cx="5.447" cy="5.078" rx="5.447" ry="5.078" transform="translate(2504.054 347.129)" fill="#f26375"/>
      <ellipse id="Elipse_14839" data-name="Elipse 14839" cx="4.796" cy="4.471" rx="4.796" ry="4.471" transform="translate(2530.23 332.452)" fill="#f26375"/>
      <g id="Grupo_1230407" data-name="Grupo 1230407" transform="translate(2518.608 311.074)">
        <path id="Trazado_1192794" data-name="Trazado 1192794" d="M2936.774,631.232a12.436,12.436,0,1,1,12.436-12.436A12.45,12.45,0,0,1,2936.774,631.232Zm0-23.9a11.465,11.465,0,1,0,11.465,11.465A11.478,11.478,0,0,0,2936.774,607.331Z" transform="translate(-2924.338 -606.36)" fill="#36334c"/>
      </g>
      <g id="Grupo_1230408" data-name="Grupo 1230408" transform="translate(2490.967 325.951)">
        <path id="Trazado_1192795" data-name="Trazado 1192795" d="M2812.229,700.122a13.168,13.168,0,1,1,13.167-13.168A13.183,13.183,0,0,1,2812.229,700.122Zm0-25.364a12.2,12.2,0,1,0,12.2,12.2A12.21,12.21,0,0,0,2812.229,674.758Z" transform="translate(-2799.061 -673.787)" fill="#36334c"/>
      </g>
      <g id="Grupo_1230409" data-name="Grupo 1230409" transform="translate(2497.014 371.426)">
        <path id="Trazado_1192796" data-name="Trazado 1192796" d="M2843.262,884.269c-2.648,0-11.073-.295-16.658-3.837a.291.291,0,1,1,.312-.492c6.51,4.129,17.042,3.74,17.148,3.735a.291.291,0,1,1,.024.582C2844.071,884.258,2843.776,884.269,2843.262,884.269Z" transform="translate(-2826.468 -879.895)" fill="#2c2c2d"/>
      </g>
      <g id="Grupo_1230410" data-name="Grupo 1230410" transform="translate(2403.744 342.703)">
        <path id="Trazado_1192797" data-name="Trazado 1192797" d="M2412.679,830.341a8.934,8.934,0,0,1-7.161-14.276l46.826-62.76a8.933,8.933,0,1,1,14.32,10.684l-29.737,39.856L2457.312,797A8.933,8.933,0,0,1,2463,813.943l-47.476,15.934A8.885,8.885,0,0,1,2412.679,830.341Z" transform="translate(-2403.744 -749.713)" fill="#f9c4b8"/>
      </g>
      <g id="Grupo_1230412" data-name="Grupo 1230412" transform="translate(2469.775 307.038)">
        <g id="Grupo_1230411" data-name="Grupo 1230411" transform="translate(0 6.395)">
          <rect id="Rectángulo_422932" data-name="Rectángulo 422932" width="49.546" height="3.884" transform="translate(0 49.15) rotate(-82.727)" fill="#0d0845"/>
        </g>
        <path id="Trazado_1192798" data-name="Trazado 1192798" d="M2733.488,595.431l-1.657-.256a1.175,1.175,0,0,1-.979-1.336l.736-4.779a1.175,1.175,0,0,1,1.336-.979l1.657.255a1.175,1.175,0,0,1,.979,1.336l-.736,4.779A1.175,1.175,0,0,1,2733.488,595.431Z" transform="translate(-2724.698 -588.067)" fill="#fdfcfb"/>
        <rect id="Rectángulo_422933" data-name="Rectángulo 422933" width="4.393" height="5.447" transform="matrix(0.994, 0.108, -0.108, 0.994, 6.003, 5.723)" fill="#e8edfd"/>
      </g>
      <path id="Trazado_1192799" data-name="Trazado 1192799" d="M2649.105,701.253c0,7.543-10.993,12.357-18.535,12.357s-16.1-2.927-12.194-14.47c3.688-10.91,7.9-14.308,15.446-14.308S2649.105,693.71,2649.105,701.253Z" transform="translate(-166.514 -356.444)" fill="#f9c4b8"/>
      <g id="Grupo_1230413" data-name="Grupo 1230413" transform="translate(2457.537 325.282)">
        <path id="Trazado_1192800" data-name="Trazado 1192800" d="M2651.145,682.5a3.593,3.593,0,0,1-1.895-6.648c7.563-4.682,19.18-5.075,19.67-5.089a3.593,3.593,0,1,1,.211,7.182c-.1,0-10.191.359-16.1,4.016A3.577,3.577,0,0,1,2651.145,682.5Z" transform="translate(-2647.548 -670.757)" fill="#f9c4b8"/>
      </g>
      <g id="Grupo_1230414" data-name="Grupo 1230414" transform="translate(2463.716 330.484)">
        <path id="Trazado_1192801" data-name="Trazado 1192801" d="M2679.14,704.123a3.593,3.593,0,0,1-.684-7.12l13.332-2.6a3.593,3.593,0,1,1,1.376,7.053l-13.333,2.6A3.61,3.61,0,0,1,2679.14,704.123Z" transform="translate(-2675.551 -694.334)" fill="#f9c4b8"/>
      </g>
      <g id="Grupo_1230415" data-name="Grupo 1230415" transform="translate(2467.129 337.476)">
        <path id="Trazado_1192802" data-name="Trazado 1192802" d="M2694.613,735.973a3.593,3.593,0,0,1-.934-7.062l10.243-2.764a3.593,3.593,0,1,1,1.872,6.938l-10.243,2.764A3.608,3.608,0,0,1,2694.613,735.973Z" transform="translate(-2691.022 -726.022)" fill="#f9c4b8"/>
      </g>
      <g id="Grupo_1230416" data-name="Grupo 1230416" transform="translate(2469.731 343.492)">
        <path id="Trazado_1192803" data-name="Trazado 1192803" d="M2706.4,762.426a3.593,3.593,0,0,1-.9-7.07l7.479-1.951a3.593,3.593,0,0,1,1.814,6.953l-7.479,1.951A3.6,3.6,0,0,1,2706.4,762.426Z" transform="translate(-2702.814 -753.287)" fill="#f9c4b8"/>
      </g>
      <g id="Grupo_1230417" data-name="Grupo 1230417" transform="translate(2456.4 316.339)">
        <path id="Trazado_1192804" data-name="Trazado 1192804" d="M2645.988,652.206a3.593,3.593,0,0,1-2.116-6.5,33.763,33.763,0,0,0,9.841-13.244,3.593,3.593,0,1,1,6.656,2.707,40.5,40.5,0,0,1-12.271,16.348A3.579,3.579,0,0,1,2645.988,652.206Z" transform="translate(-2642.392 -630.224)" fill="#f9c4b8"/>
      </g>
      <g id="Grupo_1230418" data-name="Grupo 1230418" transform="translate(2432.061 395.084)">
        <path id="Trazado_1192805" data-name="Trazado 1192805" d="M2532.372,995.991a.291.291,0,0,1-.242-.453l5.528-8.292a.291.291,0,1,1,.485.323l-5.528,8.292A.291.291,0,0,1,2532.372,995.991Z" transform="translate(-2532.081 -987.116)" fill="#36334c"/>
      </g>
      <path id="Trazado_1192806" data-name="Trazado 1192806" d="M2574.564,983.179c1.7-10-.025-18.745-3.577-27.532,0,0,2.061-.744,7.929-2.4.184-.051.371-.1.563-.157,2.107-.59,4.673-1.29,7.766-2.105l1.041-.241.567-.13,13.892-3.206,13.767,24.173Z" transform="translate(-130.342 -561.086)" fill="#fc9705"/>
      <path id="Trazado_1192807" data-name="Trazado 1192807" d="M3017.495,987.634l-17.642,9.673,5.2-41.3c2.612,2.8,6.319,12.788,9.007,20.8.062.184.122.369.185.552.81,2.431,1.519,4.657,2.066,6.409.06.19.118.377.175.555C3017.122,986.363,3017.495,987.634,3017.495,987.634Z" transform="translate(-464.583 -567.789)" fill="#fc9705"/>
      <g id="Grupo_1230419" data-name="Grupo 1230419" transform="translate(2536.282 411.994)">
        <path id="Trazado_1192808" data-name="Trazado 1192808" d="M3004.731,1099.948h-.014a.291.291,0,0,1-.277-.3l1.707-35.607a.291.291,0,1,1,.582.028l-1.707,35.607A.294.294,0,0,1,3004.731,1099.948Z" transform="translate(-3004.44 -1063.758)" fill="#2c2c2d"/>
      </g>
      <g id="Grupo_1230420" data-name="Grupo 1230420" transform="translate(2443.929 416.057)">
        <path id="Trazado_1192809" data-name="Trazado 1192809" d="M2586.161,1088.5a.291.291,0,0,1-.075-.573l21.462-5.745a.291.291,0,1,1,.151.563l-21.462,5.745A.249.249,0,0,1,2586.161,1088.5Z" transform="translate(-2585.87 -1082.174)" fill="#2c2c2d"/>
      </g>
      <g id="Grupo_1230421" data-name="Grupo 1230421" transform="translate(2464.254 325.087)">
        <path id="Trazado_1192810" data-name="Trazado 1192810" d="M2678.28,673.3a.291.291,0,0,1-.1-.564,57.045,57.045,0,0,1,8.508-2.454c3.7-.644,4.75-.35,4.857-.314a.291.291,0,1,1-.184.553c-.005,0-1.016-.283-4.573.336a56.442,56.442,0,0,0-8.4,2.424A.3.3,0,0,1,2678.28,673.3Z" transform="translate(-2677.989 -669.87)" fill="#36334c"/>
      </g>
      <g id="Grupo_1230422" data-name="Grupo 1230422" transform="translate(2436.455 460.154)">
        <path id="Trazado_1192811" data-name="Trazado 1192811" d="M2607.524,1294.728a1.26,1.26,0,0,1-.9-.375c-2.476-2.506-9.751-9.119-13.635-9.622-6.988-.907-11.5,1.874-15.865,4.563a29.092,29.092,0,0,1-8.277,3.974c-.323.079-.648.166-.976.253-3.815,1.017-8.564,2.282-15.566-5.767a1.262,1.262,0,0,1,1.9-1.657c5.969,6.861,9.39,5.95,13.012,4.985.344-.092.684-.182,1.023-.265a27.236,27.236,0,0,0,7.556-3.672c4.517-2.784,9.638-5.938,17.513-4.917,5.443.706,14.134,9.367,15.106,10.352a1.263,1.263,0,0,1-.9,2.15Z" transform="translate(-2551.997 -1282.03)" fill="#e8edfd"/>
      </g>
      <rect id="Rectángulo_422934" data-name="Rectángulo 422934" width="58.37" height="2.927" transform="translate(2432.433 475.861)" fill="#fb7682"/>
      <rect id="Rectángulo_422935" data-name="Rectángulo 422935" width="60.931" height="5.04" transform="translate(2433.245 470.819)" fill="#e8edfd"/>
      <g id="Grupo_1230423" data-name="Grupo 1230423" transform="translate(2433.768 472.64)">
        <path id="Trazado_1192812" data-name="Trazado 1192812" d="M2562.629,1339.2H2540.11a.291.291,0,0,1,0-.583h22.519a.291.291,0,0,1,0,.583Z" transform="translate(-2539.819 -1338.62)" fill="#93a5f4"/>
      </g>
      <g id="Grupo_1230424" data-name="Grupo 1230424" transform="translate(2442.06 474.427)">
        <path id="Trazado_1192813" data-name="Trazado 1192813" d="M2599.318,1347.3h-21.625a.291.291,0,0,1,0-.583h21.625a.291.291,0,0,1,0,.583Z" transform="translate(-2577.402 -1346.72)" fill="#93a5f4"/>
      </g>
      <g id="Grupo_1230425" data-name="Grupo 1230425" transform="translate(2494.704 460.153)">
        <path id="Trazado_1192814" data-name="Trazado 1192814" d="M2817.261,1294.645a1.262,1.262,0,0,1-.9-2.149c.965-.977,9.582-9.565,15.025-10.271,7.878-1.022,13,2.134,17.513,4.917a27.244,27.244,0,0,0,7.556,3.672c.339.083.679.174,1.023.265,3.621.965,7.042,1.876,13.011-4.985a1.262,1.262,0,0,1,1.9,1.657c-7,8.048-11.751,6.783-15.566,5.767-.328-.087-.653-.174-.976-.253a29.088,29.088,0,0,1-8.277-3.974c-4.364-2.688-8.876-5.469-15.864-4.562-3.888.5-11.1,7.058-13.553,9.541A1.263,1.263,0,0,1,2817.261,1294.645Z" transform="translate(-2815.999 -1282.028)" fill="#e8edfd"/>
      </g>
      <rect id="Rectángulo_422936" data-name="Rectángulo 422936" width="58.167" height="2.927" transform="translate(2555.432 478.787) rotate(180)" fill="#fb7682"/>
      <rect id="Rectángulo_422937" data-name="Rectángulo 422937" width="60.538" height="5.04" transform="translate(2554.619 475.861) rotate(180)" fill="#e8edfd"/>
      <g id="Grupo_1230426" data-name="Grupo 1230426" transform="translate(2530.997 472.64)">
        <path id="Trazado_1192815" data-name="Trazado 1192815" d="M3003.3,1339.2h-22.519a.291.291,0,0,1,0-.583H3003.3a.291.291,0,0,1,0,.583Z" transform="translate(-2980.488 -1338.62)" fill="#93a5f4"/>
      </g>
      <g id="Grupo_1230427" data-name="Grupo 1230427" transform="translate(2523.598 474.427)">
        <path id="Trazado_1192816" data-name="Trazado 1192816" d="M2968.868,1347.3h-21.625a.291.291,0,0,1,0-.583h21.625a.291.291,0,1,1,0,.583Z" transform="translate(-2946.952 -1346.72)" fill="#93a5f4"/>
      </g>
      <path id="Trazado_1192817" data-name="Trazado 1192817" d="M2798.32,1356.142c3.414-5.694,6.463,0,6.463,0v-2.927h-6.463Z" transform="translate(-307.517 -877.356)" fill="#fb7682"/>
      <rect id="Rectángulo_422938" data-name="Rectángulo 422938" width="7.398" height="0.894" transform="translate(2490.356 477.913)" fill="#fb7682"/>
      <path id="Trazado_1192818" data-name="Trazado 1192818" d="M2866.9,1306.919h-.309a4.536,4.536,0,0,0-4.539,4.536v4.1a4.537,4.537,0,0,0,4.539,4.536h61.555v-13.169H2866.9Z" transform="translate(-357.186 -841.274)" fill="#433fab"/>
      <g id="Grupo_1230428" data-name="Grupo 1230428" transform="translate(2568.908 465.654)">
        <path id="Trazado_1192819" data-name="Trazado 1192819" d="M3153.183,1308.727a.874.874,0,0,1,0-1.748l12.4-.019a.874.874,0,0,1,0,1.748l-12.4.019Z" transform="translate(-3152.309 -1306.96)" fill="#433fab"/>
      </g>
      <g id="Grupo_1230429" data-name="Grupo 1230429" transform="translate(2568.704 477.078)">
        <path id="Trazado_1192820" data-name="Trazado 1192820" d="M3165.1,1360.486h-12.844a.874.874,0,0,1,0-1.748H3165.1a.874.874,0,0,1,0,1.748Z" transform="translate(-3151.384 -1358.738)" fill="#433fab"/>
      </g>
      <path id="Trazado_1192821" data-name="Trazado 1192821" d="M2903.247,1320.093h-5.459a21.741,21.741,0,0,1-.008-13.169h5.457A16.63,16.63,0,0,0,2903.247,1320.093Z" transform="translate(-384.239 -841.278)" fill="#fcd105"/>
      <path id="Trazado_1192822" data-name="Trazado 1192822" d="M2880.927,1320.093a16.631,16.631,0,0,1-.01-13.169H2879.6a17.847,17.847,0,0,0,.01,13.169Z" transform="translate(-369.884 -841.278)" fill="#fcd105"/>
      <path id="Trazado_1192823" data-name="Trazado 1192823" d="M3095.827,1320.093h-5.459a21.743,21.743,0,0,1-.008-13.169h5.457A16.631,16.631,0,0,0,3095.827,1320.093Z" transform="translate(-534.328 -841.278)" fill="#fcd105"/>
      <path id="Trazado_1192824" data-name="Trazado 1192824" d="M3073.5,1320.093a16.631,16.631,0,0,1-.01-13.169h-1.319a17.845,17.845,0,0,0,.01,13.169Z" transform="translate(-519.966 -841.278)" fill="#fcd105"/>
      <path id="Trazado_1192825" data-name="Trazado 1192825" d="M3165.7,1324.559H3153.56a1.159,1.159,0,0,1-1.159-1.159v-7.356a1.159,1.159,0,0,1,1.159-1.159H3165.7Z" transform="translate(-583.473 -847.483)" fill="#e8edfd"/>
      <g id="Grupo_1230430" data-name="Grupo 1230430" transform="translate(2571.942 469.712)">
        <path id="Trazado_1192826" data-name="Trazado 1192826" d="M3175.674,1325.932h-9.322a.291.291,0,1,1,0-.582h9.322a.291.291,0,1,1,0,.582Z" transform="translate(-3166.061 -1325.35)" fill="#433fab"/>
      </g>
      <g id="Grupo_1230431" data-name="Grupo 1230431" transform="translate(2576.603 472.097)">
        <path id="Trazado_1192827" data-name="Trazado 1192827" d="M3192.03,1336.743h-4.552a.291.291,0,1,1,0-.582h4.552a.291.291,0,1,1,0,.582Z" transform="translate(-3187.187 -1336.16)" fill="#433fab"/>
      </g>
      <rect id="Rectángulo_422939" data-name="Rectángulo 422939" width="62.679" height="9.512" transform="translate(2512.59 455.335)" fill="#e8edfd"/>
      <g id="Grupo_1230432" data-name="Grupo 1230432" transform="translate(2510.985 453.616)">
        <path id="Trazado_1192828" data-name="Trazado 1192828" d="M2955.331,1264.5h-64.667a.874.874,0,1,1,0-1.748h63.769a7.034,7.034,0,0,0,0-8.609h-63.771a.874.874,0,0,1,0-1.748h64.666l.262.356c2.768,3.764,2.768,7.6,0,11.389Z" transform="translate(-2889.79 -1252.4)" fill="#36334c"/>
      </g>
      <g id="Grupo_1230433" data-name="Grupo 1230433" transform="translate(2543.219 455.391)">
        <path id="Trazado_1192829" data-name="Trazado 1192829" d="M3036.171,1268.942a.291.291,0,0,1-.292-.291v-7.913a.291.291,0,1,1,.583,0v7.913A.291.291,0,0,1,3036.171,1268.942Z" transform="translate(-3035.88 -1260.447)" fill="#433fab"/>
      </g>
      <g id="Grupo_1230434" data-name="Grupo 1230434" transform="translate(2513.031 456.381)">
        <path id="Trazado_1192830" data-name="Trazado 1192830" d="M2911.547,1265.512h-12.194a.291.291,0,1,1,0-.582h12.194a.291.291,0,1,1,0,.582Z" transform="translate(-2899.062 -1264.93)" fill="#433fab"/>
      </g>
      <g id="Grupo_1230435" data-name="Grupo 1230435" transform="translate(2515.794 457.843)">
        <path id="Trazado_1192831" data-name="Trazado 1192831" d="M2923.746,1272.143h-11.869a.291.291,0,0,1,0-.583h11.869a.291.291,0,0,1,0,.583Z" transform="translate(-2911.585 -1271.56)" fill="#433fab"/>
      </g>
      <path id="Trazado_1192832" data-name="Trazado 1192832" d="M3118.859,1160.365c-.871,6.464-5.426,13.1-10.52,10.714-4.769,2.6-9.723-4.627-10.691-10.957s1.8-14.082,10.691-9.963C3118.2,1146.149,3119.731,1153.9,3118.859,1160.365Z" transform="translate(-540.658 -718.202)" fill="#fb7682"/>
      <path id="Trazado_1192833" data-name="Trazado 1192833" d="M3168.892,1162.249c.581,1.826.08,3.614-1.117,4s-2.64-.79-3.221-2.615-.081-3.614,1.117-4S3168.312,1160.424,3168.892,1162.249Z" transform="translate(-592.756 -726.43)" fill="#fdfcfb"/>
      <path id="Trazado_1192834" data-name="Trazado 1192834" d="M3181.128,1194.43a.987.987,0,1,1-.976-1.138A1.066,1.066,0,0,1,3181.128,1194.43Z" transform="translate(-604.341 -752.718)" fill="#fdfcfb"/>
      <g id="Grupo_1230436" data-name="Grupo 1230436" transform="translate(2566.683 421.978)">
        <path id="Trazado_1192835" data-name="Trazado 1192835" d="M3143.223,1119.863a.874.874,0,0,1-.86-.724c-.455-2.6-.022-8.052,4.864-10.064a.874.874,0,1,1,.665,1.616c-4.823,1.986-3.818,8.085-3.808,8.146a.876.876,0,0,1-.862,1.025Z" transform="translate(-3142.225 -1109.01)" fill="#36334c"/>
      </g>
      <path id="Trazado_1192836" data-name="Trazado 1192836" d="M3117.146,1097.376c2.082,2.295,1.541,6.176,1.541,6.176s-3.915.161-6-2.134-1.541-6.176-1.541-6.176S3115.063,1095.081,3117.146,1097.376Z" transform="translate(-551.274 -676.3)" fill="#36334c"/>
      <g id="Grupo_1230437" data-name="Grupo 1230437" transform="translate(2499.763 328.096)">
        <path id="Trazado_1192837" data-name="Trazado 1192837" d="M2839.315,689.539a.291.291,0,0,1-.283-.224c-.01-.044-.989-4.422,3.2-5.791a.291.291,0,1,1,.181.554c-3.676,1.2-2.852,4.945-2.815,5.1a.292.292,0,0,1-.217.35A.3.3,0,0,1,2839.315,689.539Z" transform="translate(-2838.926 -683.51)" fill="#2c2c2d"/>
      </g>
      <g id="Grupo_1230438" data-name="Grupo 1230438" transform="translate(2522.297 317.009)">
        <path id="Trazado_1192838" data-name="Trazado 1192838" d="M2941.35,634.524a.291.291,0,0,1-.18-.52c1.215-.955,3.99-.722,4.108-.711a.291.291,0,1,1-.051.581c-.026,0-2.663-.223-3.7.589A.286.286,0,0,1,2941.35,634.524Z" transform="translate(-2941.059 -633.26)" fill="#2c2c2d"/>
      </g>
      <g id="Grupo_1230440" data-name="Grupo 1230440" transform="translate(2527.311 271.37)">
        <g id="Grupo_1230439" data-name="Grupo 1230439" transform="translate(0)">
          <path id="Trazado_1192839" data-name="Trazado 1192839" d="M2681.919,361.294a1.4,1.4,0,0,1-.34-.042c-1.951-.488-5.491-2.518-4.919-6.709a15.116,15.116,0,0,1,1.5-4.324c1.229-2.638,1.795-4.093.173-5.773-2.136-2.212-6.177-2.482-9.008-.6-2.693,1.789-3.352,4.884-1.806,8.492a1.4,1.4,0,1,1-2.566,1.1,10.576,10.576,0,0,1-.725-7.14,8.479,8.479,0,0,1,3.552-4.776c3.966-2.634,9.483-2.2,12.561.987,3.03,3.138,1.543,6.328.349,8.891a12.881,12.881,0,0,0-1.262,3.523c-.369,2.705,2.509,3.539,2.838,3.626a1.4,1.4,0,0,1-.344,2.748Z" transform="translate(-2663.893 -339.798)" fill="#fd6107"/>
        </g>
        <circle id="Elipse_14840" data-name="Elipse 14840" cx="2.03" cy="2.03" r="2.03" transform="translate(21.107 22.131) rotate(-22.5)" fill="#fd6107"/>
      </g>
      <g id="Grupo_1230442" data-name="Grupo 1230442" transform="translate(2565.124 297.251)">
        <g id="Grupo_1230441" data-name="Grupo 1230441" transform="translate(2.429)">
          <path id="Trazado_1192840" data-name="Trazado 1192840" d="M2956.309,358.519a1.017,1.017,0,0,1,.012-.25c.247-1.447,1.529-4.136,4.612-3.951a11.038,11.038,0,0,1,3.23.851c1.988.749,3.078,1.08,4.211-.193a5.362,5.362,0,0,0-.061-6.589c-1.451-1.862-3.74-2.17-6.28-.845a1.019,1.019,0,0,1-.942-1.807,7.72,7.72,0,0,1,5.157-.922,6.19,6.19,0,0,1,3.673,2.321,7.377,7.377,0,0,1-.024,9.2c-2.116,2.378-4.52,1.473-6.452.745a9.391,9.391,0,0,0-2.634-.724c-1.989-.119-2.438,2.021-2.482,2.266a1.019,1.019,0,0,1-2.02-.1Z" transform="translate(-2956.306 -344.685)" fill="#fd6107"/>
        </g>
        <path id="Trazado_1192841" data-name="Trazado 1192841" d="M2946.89,422.927a1.482,1.482,0,1,1,1.365-1.589A1.481,1.481,0,0,1,2946.89,422.927Z" transform="translate(-2945.296 -403.358)" fill="#fd6107"/>
      </g>
      <g id="Grupo_1230444" data-name="Grupo 1230444" transform="translate(2552.971 268.566)">
        <g id="Grupo_1230443" data-name="Grupo 1230443" transform="translate(0 0)">
          <path id="Trazado_1192842" data-name="Trazado 1192842" d="M2829.823,258.994a1.851,1.851,0,0,1-.239-.385c-1.115-2.414-1.958-7.74,2.831-10.626a19.984,19.984,0,0,1,5.694-2.042c3.735-.921,5.7-1.544,6.088-4.606.508-4.032-2.564-8.417-6.847-9.773-4.075-1.291-7.807.6-10.24,5.178a1.845,1.845,0,0,1-3.259-1.731,13.979,13.979,0,0,1,6.751-6.664,11.207,11.207,0,0,1,7.861-.3c6,1.9,10.125,7.94,9.394,13.751-.72,5.719-5.236,6.833-8.865,7.728a17.014,17.014,0,0,0-4.673,1.62c-3.091,1.862-1.566,5.516-1.381,5.927a1.845,1.845,0,0,1-3.115,1.924Z" transform="translate(-2823.635 -227.477)" fill="#fd6107"/>
        </g>
        <circle id="Elipse_14841" data-name="Elipse 14841" cx="2.683" cy="2.683" r="2.683" transform="translate(5.474 39.857) rotate(-60.389)" fill="#fd6107"/>
      </g>
      <g id="Grupo_1230445" data-name="Grupo 1230445" transform="translate(2498.722 422.479)">
        <path id="Trazado_1192843" data-name="Trazado 1192843" d="M2838.159,1119.178a3.95,3.95,0,1,1,3.949-3.949A3.954,3.954,0,0,1,2838.159,1119.178Zm0-7.316a3.367,3.367,0,1,0,3.367,3.367A3.371,3.371,0,0,0,2838.159,1111.862Z" transform="translate(-2834.209 -1111.279)" fill="#e8edfd"/>
      </g>
      <g id="Grupo_1230446" data-name="Grupo 1230446" transform="translate(2516.769 396.871)">
        <path id="Trazado_1192844" data-name="Trazado 1192844" d="M2921.172,1005.554a5.169,5.169,0,1,1,5.169-5.169A5.175,5.175,0,0,1,2921.172,1005.554Zm0-9.754a4.586,4.586,0,1,0,4.586,4.586A4.592,4.592,0,0,0,2921.172,995.8Z" transform="translate(-2916.003 -995.216)" fill="#e8edfd"/>
      </g>
      <g id="Grupo_1230447" data-name="Grupo 1230447" transform="translate(2448.573 389.529)">
        <path id="Trazado_1192845" data-name="Trazado 1192845" d="M2616.858,961.942l-.567.13a4.867,4.867,0,0,1,.049.676,4.585,4.585,0,0,1-8.856,1.67c-.192.052-.379.107-.563.157a5.168,5.168,0,0,0,10-1.828A4.905,4.905,0,0,0,2616.858,961.942Z" transform="translate(-2606.921 -961.942)" fill="#e8edfd"/>
      </g>
      <g id="Grupo_1230448" data-name="Grupo 1230448" transform="translate(2465.065 436.139)">
        <path id="Trazado_1192846" data-name="Trazado 1192846" d="M2686.106,1182.063a4.437,4.437,0,1,1,4.437-4.437A4.443,4.443,0,0,1,2686.106,1182.063Zm0-8.294a3.855,3.855,0,1,0,3.855,3.855A3.859,3.859,0,0,0,2686.106,1173.769Z" transform="translate(-2681.668 -1173.188)" fill="#e8edfd"/>
      </g>
      <g id="Grupo_1230449" data-name="Grupo 1230449" transform="translate(2519.696 434.43)">
        <path id="Trazado_1192847" data-name="Trazado 1192847" d="M2935.168,1177.244a5.9,5.9,0,1,1,5.9-5.9A5.907,5.907,0,0,1,2935.168,1177.244Zm0-11.22a5.318,5.318,0,1,0,5.318,5.318A5.324,5.324,0,0,0,2935.168,1166.025Z" transform="translate(-2929.267 -1165.443)" fill="#e8edfd"/>
      </g>
      <g id="Grupo_1230450" data-name="Grupo 1230450" transform="translate(2465.798 390.043)">
        <path id="Trazado_1192848" data-name="Trazado 1192848" d="M2688.939,972.169a3.949,3.949,0,1,1,3.949-3.949A3.954,3.954,0,0,1,2688.939,972.169Zm0-7.316a3.367,3.367,0,1,0,3.367,3.367A3.371,3.371,0,0,0,2688.939,964.853Z" transform="translate(-2684.989 -964.27)" fill="#e8edfd"/>
      </g>
      <g id="Grupo_1230451" data-name="Grupo 1230451" transform="translate(2450.434 403.701)">
        <path id="Trazado_1192849" data-name="Trazado 1192849" d="M2618.574,1032.607a3.218,3.218,0,1,1,3.218-3.218A3.221,3.221,0,0,1,2618.574,1032.607Zm0-5.854a2.635,2.635,0,1,0,2.635,2.635A2.638,2.638,0,0,0,2618.574,1026.753Z" transform="translate(-2615.356 -1026.171)" fill="#e8edfd"/>
      </g>
      <g id="Grupo_1230452" data-name="Grupo 1230452" transform="translate(2475.31 408.579)">
        <path id="Trazado_1192850" data-name="Trazado 1192850" d="M2732.049,1056.178a3.95,3.95,0,1,1,3.95-3.95A3.954,3.954,0,0,1,2732.049,1056.178Zm0-7.316a3.367,3.367,0,1,0,3.367,3.367A3.371,3.371,0,0,0,2732.049,1048.862Z" transform="translate(-2728.099 -1048.279)" fill="#e8edfd"/>
      </g>
      <g id="Grupo_1230453" data-name="Grupo 1230453" transform="translate(2546.767 409.021)">
        <path id="Trazado_1192851" data-name="Trazado 1192851" d="M3056.927,1057.244a3.3,3.3,0,0,1-1.014.157,3.367,3.367,0,0,1-1.053-6.566c-.062-.182-.122-.367-.184-.552a3.949,3.949,0,0,0,1.237,7.7,3.889,3.889,0,0,0,1.189-.184C3057.046,1057.621,3056.989,1057.433,3056.927,1057.244Z" transform="translate(-3051.963 -1050.283)" fill="#e8edfd"/>
      </g>
      <g id="Grupo_1230454" data-name="Grupo 1230454" transform="translate(2487.259 451.747)">
        <path id="Trazado_1192852" data-name="Trazado 1192852" d="M2786.448,1252.315a4.193,4.193,0,1,1,4.193-4.193A4.2,4.2,0,0,1,2786.448,1252.315Zm0-7.8a3.611,3.611,0,1,0,3.611,3.611A3.615,3.615,0,0,0,2786.448,1244.511Z" transform="translate(-2782.254 -1243.928)" fill="#e8edfd"/>
      </g>
      <g id="Grupo_1230455" data-name="Grupo 1230455" transform="translate(2534.818 388.824)">
        <path id="Trazado_1192853" data-name="Trazado 1192853" d="M3000.536,964.2a2.73,2.73,0,1,1,2.73-2.73A2.733,2.733,0,0,1,3000.536,964.2Zm0-4.878a2.148,2.148,0,1,0,2.148,2.147A2.15,2.15,0,0,0,3000.536,959.327Z" transform="translate(-2997.806 -958.744)" fill="#e8edfd"/>
      </g>
      <g id="Grupo_1230456" data-name="Grupo 1230456" transform="translate(2525.061 417.845)">
        <path id="Trazado_1192854" data-name="Trazado 1192854" d="M2957.778,1098.664a4.194,4.194,0,1,1,4.194-4.193A4.2,4.2,0,0,1,2957.778,1098.664Zm0-7.8a3.611,3.611,0,1,0,3.611,3.611A3.615,3.615,0,0,0,2957.778,1090.86Z" transform="translate(-2953.584 -1090.277)" fill="#e8edfd"/>
      </g>
      <g id="Grupo_1230457" data-name="Grupo 1230457" transform="translate(2494.576 397.602)">
        <path id="Trazado_1192855" data-name="Trazado 1192855" d="M2818.634,1004.967a3.218,3.218,0,1,1,3.218-3.218A3.221,3.221,0,0,1,2818.634,1004.967Zm0-5.851a2.635,2.635,0,1,0,2.635,2.636A2.638,2.638,0,0,0,2818.634,999.115Z" transform="translate(-2815.416 -998.531)" fill="#e8edfd"/>
      </g>
    </g>
  </g>
</svg>
