<svg xmlns="http://www.w3.org/2000/svg" xmlns:xlink="http://www.w3.org/1999/xlink" width="113" height="113" viewBox="0 0 113 113">
  <defs>
    <filter id="Trazado_982547" x="0" y="0" width="113" height="113" filterUnits="userSpaceOnUse">
      <feOffset dy="3" input="SourceAlpha"/>
      <feGaussianBlur stdDeviation="3" result="blur"/>
      <feFlood flood-opacity="0.161"/>
      <feComposite operator="in" in2="blur"/>
      <feComposite in="SourceGraphic"/>
    </filter>
  </defs>
  <g id="Grupo_1231508" data-name="Grupo 1231508" transform="translate(-324 -2110.817)">
    <g id="Grupo_1230245" data-name="Grupo 1230245" transform="translate(0 646.858)">
      <g id="Grupo_1230095" data-name="Grupo 1230095" transform="translate(-0.25 -13219.084)">
        <g id="Grupo_1224255" data-name="Grupo 1224255" transform="translate(0.25 13230)">
          <g id="Grupo_1223775" data-name="Grupo 1223775" transform="translate(0 -4451.031)">
            <g id="Grupo_1206275" data-name="Grupo 1206275" transform="translate(0 -3448.335)">
              <g id="Grupo_1203802" data-name="Grupo 1203802" transform="translate(0.5 6552.41)">
                <g id="Grupo_1202424" data-name="Grupo 1202424" transform="translate(0 1464)">
                  <g id="Grupo_1178325" data-name="Grupo 1178325" transform="translate(0 424)">
                    <g id="Grupo_1177679" data-name="Grupo 1177679" transform="translate(332.5 918)">
                      <g id="Grupo_1172010" data-name="Grupo 1172010">
                        <g id="Grupo_1171046" data-name="Grupo 1171046">
                          <g id="Grupo_1148525" data-name="Grupo 1148525">
                            <g transform="matrix(1, 0, 0, 1, -9, -6)" filter="url(#Trazado_982547)">
                              <g id="Trazado_982547-2" data-name="Trazado 982547" transform="translate(9 6)" fill="#f9e3d4">
                                <path d="M 47.5 93.5 C 41.28937149047852 93.5 35.26533508300781 92.28397369384766 29.59518623352051 89.88570404052734 C 24.11771965026855 87.56893157958984 19.19813346862793 84.25196075439453 14.97309303283691 80.02691650390625 C 10.74804019927979 75.80186462402344 7.431066513061523 70.88229370117188 5.114293098449707 65.40481567382812 C 2.716026782989502 59.73468017578125 1.5 53.71062850952148 1.5 47.5 C 1.5 41.28937149047852 2.716026782989502 35.26533508300781 5.114293098449707 29.59518623352051 C 7.431066513061523 24.11771965026855 10.74804019927979 19.19813346862793 14.97309303283691 14.97309303283691 C 19.19813346862793 10.74804019927979 24.11771965026855 7.431066513061523 29.59518623352051 5.114293098449707 C 35.26533508300781 2.716026782989502 41.28937149047852 1.5 47.5 1.5 C 53.71062850952148 1.5 59.73468017578125 2.716026782989502 65.40481567382812 5.114293098449707 C 70.88229370117188 7.431066513061523 75.80186462402344 10.74804019927979 80.02691650390625 14.97309303283691 C 84.25196075439453 19.19813346862793 87.56893157958984 24.11771965026855 89.88570404052734 29.59518623352051 C 92.28397369384766 35.26533508300781 93.5 41.28937149047852 93.5 47.5 C 93.5 53.71062850952148 92.28397369384766 59.73468017578125 89.88570404052734 65.40481567382812 C 87.56893157958984 70.88229370117188 84.25196075439453 75.80186462402344 80.02691650390625 80.02691650390625 C 75.80186462402344 84.25196075439453 70.88229370117188 87.56893157958984 65.40481567382812 89.88570404052734 C 59.73468017578125 92.28397369384766 53.71062850952148 93.5 47.5 93.5 Z" stroke="none"/>
                                <path d="M 47.5 3 C 41.49121475219727 3 35.66376876831055 4.176155090332031 30.17950439453125 6.495796203613281 C 24.88084411621094 8.736953735351562 20.12152099609375 11.94598388671875 16.03375244140625 16.03375244140625 C 11.94598388671875 20.12152099609375 8.736953735351562 24.88084411621094 6.495796203613281 30.17950439453125 C 4.176155090332031 35.66376876831055 3 41.49121475219727 3 47.5 C 3 53.50878524780273 4.176155090332031 59.33623123168945 6.495796203613281 64.82049560546875 C 8.736953735351562 70.11915588378906 11.94598388671875 74.87847900390625 16.03375244140625 78.96624755859375 C 20.12152099609375 83.05401611328125 24.88084411621094 86.26304626464844 30.17950439453125 88.50419616699219 C 35.66376876831055 90.82384490966797 41.49121475219727 92 47.5 92 C 53.50878524780273 92 59.33623123168945 90.82384490966797 64.82049560546875 88.50419616699219 C 70.11915588378906 86.26304626464844 74.87847900390625 83.05401611328125 78.96624755859375 78.96624755859375 C 83.05401611328125 74.87847900390625 86.26304626464844 70.11915588378906 88.50419616699219 64.82049560546875 C 90.82384490966797 59.33623123168945 92 53.50878524780273 92 47.5 C 92 41.49121475219727 90.82384490966797 35.66376876831055 88.50419616699219 30.17950439453125 C 86.26304626464844 24.88084411621094 83.05401611328125 20.12152099609375 78.96624755859375 16.03375244140625 C 74.87847900390625 11.94598388671875 70.11915588378906 8.736953735351562 64.82049560546875 6.495796203613281 C 59.33623123168945 4.176155090332031 53.50878524780273 3 47.5 3 M 47.5 0 C 73.7335205078125 0 95 21.2664794921875 95 47.5 C 95 73.7335205078125 73.7335205078125 95 47.5 95 C 21.2664794921875 95 0 73.7335205078125 0 47.5 C 0 21.2664794921875 21.2664794921875 0 47.5 0 Z" stroke="none" fill="#eca675"/>
                              </g>
                            </g>
                          </g>
                        </g>
                      </g>
                    </g>
                  </g>
                </g>
              </g>
            </g>
          </g>
        </g>
      </g>
    </g>
    <g id="objetivo_6_" data-name="objetivo (6)" transform="translate(321.813 2131.88)">
      <g id="Grupo_1231507" data-name="Grupo 1231507" transform="translate(31.005 0.95)">
        <g id="Grupo_1231506" data-name="Grupo 1231506" transform="translate(0)">
          <path id="Trazado_1193670" data-name="Trazado 1193670" d="M173.582,316.3V299.017a3.8,3.8,0,0,0-2.8-3.668l-5.2-1.413-2.336.123a2.713,2.713,0,0,1-1.476-1.789l-.358-2.911h-3.578l-.626,3.179c0,.572-.745,1.192-1.3,1.342l-2.3.056-5.2,1.413a3.8,3.8,0,0,0-2.8,3.668V316.3a1.267,1.267,0,0,0,1.267,1.267h25.436A1.267,1.267,0,0,0,173.582,316.3Z" transform="translate(-131.916 -253.645)" fill="#42eaa5"/>
          <g id="Grupo_1231504" data-name="Grupo 1231504" transform="translate(26.768 35.714)">
            <path id="Trazado_1193671" data-name="Trazado 1193671" d="M260.879,295.35l-5.2-1.413-2.183-.328c-.552-.15-1.628-.767-1.628-1.338l.227-2.809-3.311-.1v4.668a1.267,1.267,0,0,0,.935,1.223l7.357,2a3.8,3.8,0,0,1,2.8,3.668V317.57h2.534a1.267,1.267,0,0,0,1.267-1.267V299.018A3.8,3.8,0,0,0,260.879,295.35Z" transform="translate(-248.786 -289.36)" fill="#1ec186"/>
          </g>
          <path id="Trazado_1193672" data-name="Trazado 1193672" d="M214.746,297.858a6.526,6.526,0,0,0,5.984-3.921l-2.336.123a2.713,2.713,0,0,1-1.476-1.789l-.046-2.911h-5.015v2.768a1.267,1.267,0,0,1-.935,1.223l-2.16.587a6.526,6.526,0,0,0,5.983,3.921Z" transform="translate(-187.067 -253.645)" fill="#ffdfcf"/>
          <path id="Trazado_1193673" data-name="Trazado 1193673" d="M249.722,295.251l4.123,1.12a6.548,6.548,0,0,0,1.839-2.434l-2.16-.587a1.267,1.267,0,0,1-.935-1.223V289.36h-3.8v4.668A1.267,1.267,0,0,0,249.722,295.251Z" transform="translate(-222.019 -253.646)" fill="#ffcebf"/>
          <path id="Trazado_1193674" data-name="Trazado 1193674" d="M85.811,11.526l-1.944,1.936a1.015,1.015,0,0,1-1.351.07,27.84,27.84,0,0,0-34.61,0,1.015,1.015,0,0,1-1.351-.07l-1.944-1.936a2.142,2.142,0,0,0-3.023,3.036l1.925,1.917a1.016,1.016,0,0,1,.07,1.358,27.535,27.535,0,0,0,0,34.449,1.016,1.016,0,0,1-.07,1.358l-1.925,1.917A2.142,2.142,0,0,0,44.611,58.6l1.944-1.936a1.015,1.015,0,0,1,1.351-.07,27.84,27.84,0,0,0,34.61,0,1.015,1.015,0,0,1,1.351.07L85.811,58.6a2.142,2.142,0,0,0,3.023-3.036l-1.925-1.917a1.016,1.016,0,0,1-.07-1.358,27.535,27.535,0,0,0,0-34.449,1.016,1.016,0,0,1,.07-1.358l1.925-1.917a2.142,2.142,0,0,0-3.023-3.036Zm-4.943,36.1L79.329,46.1a2.142,2.142,0,0,0-3.023,3.036l1.518,1.512a1.012,1.012,0,0,1-.114,1.535,21.342,21.342,0,0,1-25,0,1.012,1.012,0,0,1-.114-1.535l1.518-1.512A2.142,2.142,0,0,0,51.092,46.1l-1.538,1.532a1.013,1.013,0,0,1-1.53-.114,21.1,21.1,0,0,1,0-24.906,1.013,1.013,0,0,1,1.53-.114l1.538,1.532a2.142,2.142,0,0,0,3.023-3.036L52.6,19.478a1.012,1.012,0,0,1,.114-1.535,21.342,21.342,0,0,1,25,0,1.012,1.012,0,0,1,.114,1.535L76.306,20.99a2.142,2.142,0,0,0,3.023,3.036l1.538-1.532a1.013,1.013,0,0,1,1.53.114,21.1,21.1,0,0,1,0,24.906A1.013,1.013,0,0,1,80.868,47.628Z" transform="translate(-37.531 -7.5)" fill="#fb4a59"/>
          <g id="Grupo_1231505" data-name="Grupo 1231505" transform="translate(46.159 3.402)">
            <path id="Trazado_1193675" data-name="Trazado 1193675" d="M405.044,77.09a1.016,1.016,0,0,1-.07-1.358,27.535,27.535,0,0,0,0-34.449,1.016,1.016,0,0,1,.07-1.358l1.886-1.878a2.187,2.187,0,0,0,.016-3.1,2.142,2.142,0,0,0-3,.023l-.441.439a2.141,2.141,0,0,1-.337,2.6l-.221.22a3.79,3.79,0,0,0-.472,4.813,27.556,27.556,0,0,1,0,30.932,3.79,3.79,0,0,0,.472,4.813l.221.22a2.141,2.141,0,0,1,.337,2.6l.4.4a2.188,2.188,0,0,0,3.1.005,2.142,2.142,0,0,0-.034-3Z" transform="translate(-401.825 -34.348)" fill="#f82f40"/>
          </g>
          <path id="Trazado_1193676" data-name="Trazado 1193676" d="M201.558,141.281a.367.367,0,0,1-.367-.367v-.9a7.389,7.389,0,0,0-14.777,0v.9a.367.367,0,0,1-.367.367,1.267,1.267,0,0,0-1.267,1.267v1.346a1.267,1.267,0,0,0,1.267,1.267.367.367,0,0,1,.367.367v.9a6.3,6.3,0,0,0,7.389,6.924l.26.166a6.066,6.066,0,0,0,2.616-.311,7.359,7.359,0,0,0,4.513-6.779v-.9a.367.367,0,0,1,.367-.367,1.267,1.267,0,0,0,1.267-1.267v-1.346A1.267,1.267,0,0,0,201.558,141.281Z" transform="translate(-166.122 -116.802)" fill="#ffdfcf"/>
          <path id="Trazado_1193677" data-name="Trazado 1193677" d="M243.829,141.281a.367.367,0,0,1-.367-.367v-.9a7.394,7.394,0,0,0-9.289-7.11,7.365,7.365,0,0,1,5.488,7.11v.9a.367.367,0,0,0,.367.367,1.267,1.267,0,0,1,1.267,1.267v1.346a1.267,1.267,0,0,1-1.267,1.267.367.367,0,0,0-.367.367v.9a6.641,6.641,0,0,1-1.559,4.52,6.741,6.741,0,0,1-4.917,2.253,7.435,7.435,0,0,0,2.889.584,7.373,7.373,0,0,0,7.389-7.357v-.9a.367.367,0,0,1,.367-.367,1.267,1.267,0,0,0,1.267-1.267v-1.346A1.267,1.267,0,0,0,243.829,141.281Z" transform="translate(-208.394 -116.802)" fill="#ffcebf"/>
        </g>
        <circle id="Elipse_14917" data-name="Elipse 14917" cx="1.901" cy="1.901" r="1.901" transform="translate(25.779 21.158)" fill="#fb4a59"/>
      </g>
      <path id="Trazado_1193678" data-name="Trazado 1193678" d="M72.67,56.271a.95.95,0,0,0-.95.95v6.7a.95.95,0,1,0,1.9,0v-6.7A.95.95,0,0,0,72.67,56.271Zm-5.685,3.282a.95.95,0,0,0-.95.95v3.421a.95.95,0,0,0,1.9,0V60.5A.95.95,0,0,0,66.985,59.552Zm-16.6,0a.95.95,0,0,0-.95.95v3.421a.95.95,0,1,0,1.9,0V60.5A.95.95,0,0,0,50.386,59.552ZM81.054,46.42a.066.066,0,0,1,0-.089,28.486,28.486,0,0,0,0-35.64.066.066,0,0,1,0-.089l1.925-1.917A3.092,3.092,0,1,0,78.615,4.3L76.671,6.239a.066.066,0,0,1-.088,0,28.79,28.79,0,0,0-35.8,0,.065.065,0,0,1-.088,0L38.755,4.3a3.092,3.092,0,1,0-4.364,4.383L36.317,10.6a.066.066,0,0,1,0,.089,28.306,28.306,0,0,0-3.968,6.6.95.95,0,1,0,1.747.748,26.4,26.4,0,0,1,3.7-6.16,1.963,1.963,0,0,0-.14-2.627L35.733,7.339A1.192,1.192,0,0,1,37.414,5.65l1.944,1.936a1.966,1.966,0,0,0,2.615.139,26.89,26.89,0,0,1,33.424,0,1.966,1.966,0,0,0,2.615-.139L79.956,5.65a1.192,1.192,0,0,1,1.682,1.689L79.713,9.256a1.963,1.963,0,0,0-.14,2.627,26.585,26.585,0,0,1,0,33.257,1.963,1.963,0,0,0,.14,2.627l1.926,1.917a1.192,1.192,0,0,1-1.682,1.689l-1.944-1.936A1.966,1.966,0,0,0,75.4,49.3a26.889,26.889,0,0,1-33.424,0,1.966,1.966,0,0,0-2.615.139l-1.944,1.936a1.192,1.192,0,0,1-1.682-1.689l1.925-1.917a1.963,1.963,0,0,0,.14-2.627A26.566,26.566,0,0,1,32.54,34.072a26.85,26.85,0,0,1,.2-12.005.95.95,0,0,0-1.844-.459,28.478,28.478,0,0,0,5.417,24.724.066.066,0,0,1,0,.089l-1.925,1.917a3.092,3.092,0,0,0,4.364,4.383L40.7,50.785a.065.065,0,0,1,.088,0,28.16,28.16,0,0,0,2.963,2.067V63.924a.95.95,0,1,0,1.9,0V53.906a28.8,28.8,0,0,0,30.932-3.122.066.066,0,0,1,.088,0l1.944,1.936a3.092,3.092,0,0,0,4.364-4.383ZM58.685,26.859a2.851,2.851,0,1,0-2.851-2.851A2.854,2.854,0,0,0,58.685,26.859Zm0-3.8a.95.95,0,1,1-.95.95A.951.951,0,0,1,58.685,23.058Zm1.332,9.059a2.215,2.215,0,0,1-2.663,0,.95.95,0,1,0-1.139,1.522,4.164,4.164,0,0,0,2.388.823,4.368,4.368,0,0,0,2.552-.823.95.95,0,0,0-1.138-1.522ZM45.237,16.8,43.7,15.271a1.963,1.963,0,0,0-2.967.226,22.054,22.054,0,0,0,0,26.029,1.963,1.963,0,0,0,2.967.226l1.538-1.532a1.192,1.192,0,1,1,1.682,1.689L45.4,43.421a1.963,1.963,0,0,0,.227,2.978,22.293,22.293,0,0,0,26.116,0,1.963,1.963,0,0,0,.227-2.978l-1.518-1.512a1.192,1.192,0,0,1,1.682-1.689l1.538,1.532a1.963,1.963,0,0,0,2.967-.226,22.054,22.054,0,0,0,0-26.029,1.963,1.963,0,0,0-2.967-.226L72.133,16.8a1.192,1.192,0,1,1-1.682-1.689L71.97,13.6a1.963,1.963,0,0,0-.227-2.978,22.293,22.293,0,0,0-26.116,0A1.963,1.963,0,0,0,45.4,13.6l1.518,1.512A1.192,1.192,0,1,1,45.237,16.8ZM70.629,44.768a.074.074,0,0,1,0,.093,20.392,20.392,0,0,1-23.883,0,.073.073,0,0,1,0-.093L48.016,43.5,52.2,42.361a7.476,7.476,0,0,0,12.964,0L69.355,43.5ZM50.93,28.358a.317.317,0,0,1-.317-.317V26.7a.317.317,0,0,1,.317-.317,1.318,1.318,0,0,0,1.317-1.317v-.9a6.438,6.438,0,0,1,12.877,0v.9a1.318,1.318,0,0,0,1.317,1.317.317.317,0,0,1,.317.317v1.346a.317.317,0,0,1-.317.317,1.318,1.318,0,0,0-1.317,1.317v.9a6.438,6.438,0,0,1-12.877,0v-.9A1.318,1.318,0,0,0,50.93,28.358Zm5.817,11.073V38.65a8.317,8.317,0,0,0,3.877,0v.782a2.22,2.22,0,0,0,1.636,2.14l.988.268a5.573,5.573,0,0,1-9.125,0l.987-.268a2.221,2.221,0,0,0,1.637-2.14ZM48.26,13.767l-1.518-1.512a.064.064,0,0,1-.019-.053.048.048,0,0,1,.021-.04,20.392,20.392,0,0,1,23.883,0,.048.048,0,0,1,.021.04.063.063,0,0,1-.019.053l-1.518,1.512a3.092,3.092,0,0,0,4.364,4.383l1.538-1.532a.063.063,0,0,1,.052-.019.049.049,0,0,1,.04.021,20.154,20.154,0,0,1,0,23.783.073.073,0,0,1-.093,0l-1.538-1.532A3.093,3.093,0,0,0,68.2,41.217l-5.446-1.48a.317.317,0,0,1-.233-.305V37.942a8.31,8.31,0,0,0,4.5-7.371v-.39a2.221,2.221,0,0,0,1.634-2.139V26.7a2.221,2.221,0,0,0-1.634-2.139v-.39a8.339,8.339,0,0,0-16.678,0v.39A2.221,2.221,0,0,0,48.713,26.7v1.346a2.221,2.221,0,0,0,1.634,2.139v.39a8.31,8.31,0,0,0,4.5,7.371v1.489a.317.317,0,0,1-.234.306l-5.445,1.48A3.094,3.094,0,0,0,43.9,38.873l-1.538,1.532a.073.073,0,0,1-.093,0,20.154,20.154,0,0,1,0-23.783.05.05,0,0,1,.04-.021.064.064,0,0,1,.052.019L43.9,18.15a3.092,3.092,0,1,0,4.364-4.383Z"/>
    </g>
  </g>
</svg>
