<svg xmlns="http://www.w3.org/2000/svg" xmlns:xlink="http://www.w3.org/1999/xlink" width="113" height="113" viewBox="0 0 113 113">
  <defs>
    <filter id="Trazado_982547" x="0" y="0" width="113" height="113" filterUnits="userSpaceOnUse">
      <feOffset dy="3" input="SourceAlpha"/>
      <feGaussianBlur stdDeviation="3" result="blur"/>
      <feFlood flood-opacity="0.161"/>
      <feComposite operator="in" in2="blur"/>
      <feComposite in="SourceGraphic"/>
    </filter>
  </defs>
  <g id="Grupo_1231517" data-name="Grupo 1231517" transform="translate(-744 -2110.817)">
    <g id="Grupo_1231510" data-name="Grupo 1231510">
      <g id="Grupo_1230246" data-name="Grupo 1230246" transform="translate(-0.196 646.858)">
        <g id="Grupo_1230113" data-name="Grupo 1230113" transform="translate(0.946 -13219.084)">
          <g id="Grupo_1230104" data-name="Grupo 1230104">
            <g id="Grupo_1224257" data-name="Grupo 1224257" transform="translate(0.25 13230)">
              <g id="Grupo_1223773" data-name="Grupo 1223773" transform="translate(0 -4451.031)">
                <g id="Grupo_1206282" data-name="Grupo 1206282" transform="translate(0 -3448.335)">
                  <g id="Grupo_1203803" data-name="Grupo 1203803" transform="translate(0 6552.41)">
                    <g id="Grupo_1202425" data-name="Grupo 1202425" transform="translate(-0.25 1464)">
                      <g id="Grupo_1178324" data-name="Grupo 1178324" transform="translate(0 424)">
                        <g id="Grupo_1177680" data-name="Grupo 1177680" transform="translate(752.25 918)">
                          <g id="Grupo_1172010" data-name="Grupo 1172010">
                            <g id="Grupo_1171046" data-name="Grupo 1171046">
                              <g id="Grupo_1148525" data-name="Grupo 1148525">
                                <g transform="matrix(1, 0, 0, 1, -9, -6)" filter="url(#Trazado_982547)">
                                  <g id="Trazado_982547-2" data-name="Trazado 982547" transform="translate(9 6)" fill="#f9e3d4">
                                    <path d="M 47.5 93.5 C 41.28937149047852 93.5 35.26533508300781 92.28397369384766 29.59518623352051 89.88570404052734 C 24.11771965026855 87.56893157958984 19.19813346862793 84.25196075439453 14.97309303283691 80.02691650390625 C 10.74804019927979 75.80186462402344 7.431066513061523 70.88229370117188 5.114293098449707 65.40481567382812 C 2.716026782989502 59.73468017578125 1.5 53.71062850952148 1.5 47.5 C 1.5 41.28937149047852 2.716026782989502 35.26533508300781 5.114293098449707 29.59518623352051 C 7.431066513061523 24.11771965026855 10.74804019927979 19.19813346862793 14.97309303283691 14.97309303283691 C 19.19813346862793 10.74804019927979 24.11771965026855 7.431066513061523 29.59518623352051 5.114293098449707 C 35.26533508300781 2.716026782989502 41.28937149047852 1.5 47.5 1.5 C 53.71062850952148 1.5 59.73468017578125 2.716026782989502 65.40481567382812 5.114293098449707 C 70.88229370117188 7.431066513061523 75.80186462402344 10.74804019927979 80.02691650390625 14.97309303283691 C 84.25196075439453 19.19813346862793 87.56893157958984 24.11771965026855 89.88570404052734 29.59518623352051 C 92.28397369384766 35.26533508300781 93.5 41.28937149047852 93.5 47.5 C 93.5 53.71062850952148 92.28397369384766 59.73468017578125 89.88570404052734 65.40481567382812 C 87.56893157958984 70.88229370117188 84.25196075439453 75.80186462402344 80.02691650390625 80.02691650390625 C 75.80186462402344 84.25196075439453 70.88229370117188 87.56893157958984 65.40481567382812 89.88570404052734 C 59.73468017578125 92.28397369384766 53.71062850952148 93.5 47.5 93.5 Z" stroke="none"/>
                                    <path d="M 47.5 3 C 41.49121475219727 3 35.66376876831055 4.176155090332031 30.17950439453125 6.495796203613281 C 24.88084411621094 8.736953735351562 20.12152099609375 11.94598388671875 16.03375244140625 16.03375244140625 C 11.94598388671875 20.12152099609375 8.736953735351562 24.88084411621094 6.495796203613281 30.17950439453125 C 4.176155090332031 35.66376876831055 3 41.49121475219727 3 47.5 C 3 53.50878524780273 4.176155090332031 59.33623123168945 6.495796203613281 64.82049560546875 C 8.736953735351562 70.11915588378906 11.94598388671875 74.87847900390625 16.03375244140625 78.96624755859375 C 20.12152099609375 83.05401611328125 24.88084411621094 86.26304626464844 30.17950439453125 88.50419616699219 C 35.66376876831055 90.82384490966797 41.49121475219727 92 47.5 92 C 53.50878524780273 92 59.33623123168945 90.82384490966797 64.82049560546875 88.50419616699219 C 70.11915588378906 86.26304626464844 74.87847900390625 83.05401611328125 78.96624755859375 78.96624755859375 C 83.05401611328125 74.87847900390625 86.26304626464844 70.11915588378906 88.50419616699219 64.82049560546875 C 90.82384490966797 59.33623123168945 92 53.50878524780273 92 47.5 C 92 41.49121475219727 90.82384490966797 35.66376876831055 88.50419616699219 30.17950439453125 C 86.26304626464844 24.88084411621094 83.05401611328125 20.12152099609375 78.96624755859375 16.03375244140625 C 74.87847900390625 11.94598388671875 70.11915588378906 8.736953735351562 64.82049560546875 6.495796203613281 C 59.33623123168945 4.176155090332031 53.50878524780273 3 47.5 3 M 47.5 0 C 73.7335205078125 0 95 21.2664794921875 95 47.5 C 95 73.7335205078125 73.7335205078125 95 47.5 95 C 21.2664794921875 95 0 73.7335205078125 0 47.5 C 0 21.2664794921875 21.2664794921875 0 47.5 0 Z" stroke="none" fill="#eca675"/>
                                  </g>
                                </g>
                              </g>
                            </g>
                          </g>
                        </g>
                      </g>
                    </g>
                  </g>
                </g>
              </g>
            </g>
          </g>
        </g>
      </g>
    </g>
    <g id="estafa" transform="translate(743.022 2133.15)">
      <g id="Grupo_1231515" data-name="Grupo 1231515" transform="translate(34.602 0.913)">
        <g id="Grupo_1231511" data-name="Grupo 1231511">
          <path id="Trazado_1193679" data-name="Trazado 1193679" d="M39.67,12.065A4.565,4.565,0,0,1,44.235,7.5H74.793a4.565,4.565,0,0,1,4.565,4.565V60.52a4.565,4.565,0,0,1-4.565,4.565H44.235A4.565,4.565,0,0,1,39.67,60.52Z" transform="translate(-39.67 -7.5)" fill="#f5f8f9"/>
          <path id="Trazado_1193680" data-name="Trazado 1193680" d="M309.9,12.065V60.52a4.566,4.566,0,0,1-4.565,4.565H302.17a4.566,4.566,0,0,0,4.565-4.565V12.065A4.566,4.566,0,0,0,302.17,7.5h3.165A4.566,4.566,0,0,1,309.9,12.065Z" transform="translate(-270.212 -7.5)" fill="#e8edf2"/>
        </g>
        <path id="Trazado_1193681" data-name="Trazado 1193681" d="M84.382,83.807v9.567a3.7,3.7,0,0,0,3.716,3.7l22.009-.1,2.137-.188a.37.37,0,0,0,.3-.589l-1.816-2.324a2.467,2.467,0,0,1-.476-1.457l.206-8.342a3.7,3.7,0,0,0-3.7-3.7l-2.716-.27H88.083a3.7,3.7,0,0,0-3.7,3.7Z" transform="translate(-78.939 -71.267)" fill="#a9f099"/>
        <path id="Trazado_1193682" data-name="Trazado 1193682" d="M251.252,96.968l-2.708.012-2.311-2.927a2.432,2.432,0,0,1-.525-1.508V83.81a3.7,3.7,0,0,0-3.7-3.7h3.652a3.7,3.7,0,0,1,3.7,3.7v8.774a2.469,2.469,0,0,0,.476,1.457l1.712,2.339A.37.37,0,0,1,251.252,96.968Z" transform="translate(-217.375 -71.27)" fill="#8cdca3"/>
        <g id="Grupo_1231512" data-name="Grupo 1231512" transform="translate(5.443 30.228)">
          <path id="Trazado_1193683" data-name="Trazado 1193683" d="M84.629,277.3h21.7l3.116-.452a3.087,3.087,0,0,0,3.393-3.249l-.226-13.778a3.7,3.7,0,0,0-3.7-3.7l-2.65-.332H90.46a3.7,3.7,0,0,0-3.7,3.7v13.429a2.467,2.467,0,0,1-.476,1.457l-1.853,2.532a.247.247,0,0,0,.2.392Z" transform="translate(-84.382 -255.788)" fill="#fb6572"/>
        </g>
        <g id="Grupo_1231513" data-name="Grupo 1231513" transform="translate(26.77 30.228)">
          <path id="Trazado_1193684" data-name="Trazado 1193684" d="M267.034,259.491V273.6a3.7,3.7,0,0,1-3.7,3.7h-3.774a3.7,3.7,0,0,0,3.7-3.7V259.491a3.7,3.7,0,0,0-3.7-3.7h3.774A3.7,3.7,0,0,1,267.034,259.491Z" transform="translate(-259.559 -255.79)" fill="#fb4a59"/>
        </g>
        <ellipse id="Elipse_14918" data-name="Elipse 14918" cx="7.293" cy="7.293" rx="7.293" ry="7.293" transform="translate(13.74 33.508)" fill="#ffda8f"/>
        <g id="Grupo_1231514" data-name="Grupo 1231514" transform="translate(26.614 37.741)">
          <path id="Trazado_1193685" data-name="Trazado 1193685" d="M272.438,322l10.9,19.342a1.434,1.434,0,0,1-1.242,2.151l-1.933.086H259.708a1.434,1.434,0,0,1-1.242-2.151l11.324-19.614.175.165A1.424,1.424,0,0,1,272.438,322Z" transform="translate(-258.272 -320.811)" fill="#ffda8f"/>
          <path id="Trazado_1193686" data-name="Trazado 1193686" d="M365.779,340.267h-2.811a1.435,1.435,0,0,0,1.243-2.152L352.885,318.5l.164-.284a1.434,1.434,0,0,1,2.484,0l11.489,19.9A1.435,1.435,0,0,1,365.779,340.267Z" transform="translate(-341.366 -317.502)" fill="#fbc96d"/>
        </g>
      </g>
      <g id="Grupo_1231516" data-name="Grupo 1231516" transform="translate(33.899)">
        <path id="Trazado_1193687" data-name="Trazado 1193687" d="M160.753,31.31a.913.913,0,0,0-.913-.913h-6.968a.913.913,0,1,0,0,1.826h6.968A.913.913,0,0,0,160.753,31.31Z" transform="translate(-137.586 -26.696)"/>
        <path id="Trazado_1193688" data-name="Trazado 1193688" d="M76.879,77.223v9.568A4.614,4.614,0,0,0,81.493,91.4h.02l24.716-.11a1.283,1.283,0,0,0,1.03-2.04l-1.712-2.339a1.564,1.564,0,0,1-.3-.918V77.223a4.618,4.618,0,0,0-4.613-4.613H90.35a.913.913,0,0,0,0,1.826h10.285a2.79,2.79,0,0,1,2.787,2.787V86a3.4,3.4,0,0,0,.652,2l1.083,1.479-23.651.1h-.012a2.788,2.788,0,0,1-2.788-2.787V77.223a2.791,2.791,0,0,1,2.788-2.787h4.6a.913.913,0,0,0,0-1.826h-4.6A4.619,4.619,0,0,0,76.879,77.223Z" transform="translate(-71.646 -63.77)"/>
        <path id="Trazado_1193689" data-name="Trazado 1193689" d="M155.2,101.914a.913.913,0,0,0-.913.913v.536a2.466,2.466,0,0,0-1.611,1.656,2.6,2.6,0,0,0,.558,2.426,5.24,5.24,0,0,0,2.4,1.214.762.762,0,0,1,.563.9,1.051,1.051,0,0,1-1.044.887,1.869,1.869,0,0,1-1.368-.355.913.913,0,1,0-1,1.528,3.451,3.451,0,0,0,1.506.61v.428a.913.913,0,1,0,1.826,0v-.547a2.925,2.925,0,0,0,1.88-2.248,2.586,2.586,0,0,0-1.755-2.927,5.485,5.485,0,0,1-1.625-.689.768.768,0,0,1-.183-.721.632.632,0,0,1,.445-.436,1.032,1.032,0,0,1,1.061.237.913.913,0,0,0,1.327-1.255,2.82,2.82,0,0,0-1.15-.715v-.531A.913.913,0,0,0,155.2,101.914Z" transform="translate(-137.946 -89.507)"/>
        <path id="Trazado_1193690" data-name="Trazado 1193690" d="M215.977,110.448a1.87,1.87,0,0,1-1.368-.355.913.913,0,1,0-1,1.528,3.452,3.452,0,0,0,1.506.61v.428a.913.913,0,1,0,1.826,0v-.547a2.925,2.925,0,0,0,1.88-2.248,2.586,2.586,0,0,0-1.755-2.927,5.485,5.485,0,0,1-1.625-.689.768.768,0,0,1-.183-.721.632.632,0,0,1,.445-.436,1.032,1.032,0,0,1,1.061.237.913.913,0,0,0,1.327-1.255,2.819,2.819,0,0,0-1.15-.715v-.531a.913.913,0,1,0-1.826,0v.536a2.466,2.466,0,0,0-1.611,1.656,2.6,2.6,0,0,0,.558,2.426,5.24,5.24,0,0,0,2.4,1.214.762.762,0,0,1,.563.9,1.052,1.052,0,0,1-1.044.887Z" transform="translate(-191.368 -89.506)"/>
        <path id="Trazado_1193691" data-name="Trazado 1193691" d="M108.341,142.295a.913.913,0,1,0,0,1.826H110.7a.913.913,0,1,0,0-1.826Z" transform="translate(-98.476 -124.971)"/>
        <path id="Trazado_1193692" data-name="Trazado 1193692" d="M153.234,275.23a8.214,8.214,0,0,0-3.874.971.913.913,0,1,0,.864,1.609,6.376,6.376,0,1,1-2.637,2.654.913.913,0,0,0-1.615-.853,8.207,8.207,0,1,0,7.261-4.381Z" transform="translate(-131.499 -241.722)"/>
        <path id="Trazado_1193693" data-name="Trazado 1193693" d="M219.374,323.646a.909.909,0,0,0,.395-.09l1.641-.789a.913.913,0,1,0-.791-1.646l-1.641.789a.913.913,0,0,0,.4,1.736Z" transform="translate(-195.991 -281.947)"/>
        <path id="Trazado_1193694" data-name="Trazado 1193694" d="M180.871,321.91l-1.641-.789a.913.913,0,1,0-.791,1.646l1.641.789a.913.913,0,0,0,.791-1.646Z" transform="translate(-160.387 -281.947)"/>
        <path id="Trazado_1193695" data-name="Trazado 1193695" d="M187.45,354.106a.913.913,0,1,0-1.073,1.478,4.495,4.495,0,0,0,5.683,0,.913.913,0,1,0-1.073-1.478A2.682,2.682,0,0,1,187.45,354.106Z" transform="translate(-167.483 -310.842)"/>
        <path id="Trazado_1193696" data-name="Trazado 1193696" d="M87.66,58.812l-4.26-7.38a.913.913,0,1,0-1.582.913l4.26,7.381a.521.521,0,0,1-.451.781H62.651a.521.521,0,0,1-.451-.782l11.488-19.9a.512.512,0,0,1,.451-.26h0a.513.513,0,0,1,.452.26l5.057,8.759a.913.913,0,1,0,1.581-.913l-5.058-8.76a2.328,2.328,0,0,0-1.18-1.014V28a.913.913,0,1,0-1.826,0v9.951a2.328,2.328,0,0,0-1.06.965L69.76,42.979V34.842a4.619,4.619,0,0,0-4.614-4.614H46.123a4.619,4.619,0,0,0-4.614,4.614V48.27a1.544,1.544,0,0,1-.3.918L39.357,51.72a1.16,1.16,0,0,0,.936,1.845H63.649l-2.334,4.043H39.438A3.717,3.717,0,0,1,35.725,53.9V5.539a3.717,3.717,0,0,1,3.713-3.713H69.453a3.718,3.718,0,0,1,3.713,3.713v18.2a.913.913,0,1,0,1.826,0V5.539A5.546,5.546,0,0,0,69.453,0H39.438A5.546,5.546,0,0,0,33.9,5.539V53.895a5.546,5.546,0,0,0,5.539,5.539h20.93a2.349,2.349,0,0,0,2.282,2.9H85.627a2.347,2.347,0,0,0,2.033-3.521ZM41.606,51.739l1.077-1.472a3.359,3.359,0,0,0,.652-2V34.842a2.791,2.791,0,0,1,2.788-2.788H65.146a2.791,2.791,0,0,1,2.788,2.788v11.3l-3.231,5.6h-23.1Z" transform="translate(-33.899)"/>
        <path id="Trazado_1193697" data-name="Trazado 1193697" d="M358.757,380.776a.913.913,0,0,0-1.826,0v6.616a.913.913,0,1,0,1.826,0Z" transform="translate(-317.604 -333.617)"/>
        <circle id="Elipse_14919" data-name="Elipse 14919" cx="0.913" cy="0.913" r="0.913" transform="translate(24.894 3.701)"/>
        <circle id="Elipse_14920" data-name="Elipse 14920" cx="0.913" cy="0.913" r="0.913" transform="translate(39.327 56.392)"/>
      </g>
    </g>
  </g>
</svg>
