<svg xmlns="http://www.w3.org/2000/svg" xmlns:xlink="http://www.w3.org/1999/xlink" width="113" height="113" viewBox="0 0 113 113">
  <defs>
    <filter id="Trazado_982547" x="0" y="0" width="113" height="113" filterUnits="userSpaceOnUse">
      <feOffset dy="3" input="SourceAlpha"/>
      <feGaussianBlur stdDeviation="3" result="blur"/>
      <feFlood flood-opacity="0.161"/>
      <feComposite operator="in" in2="blur"/>
      <feComposite in="SourceGraphic"/>
    </filter>
  </defs>
  <g id="Grupo_1231521" data-name="Grupo 1231521" transform="translate(-1164 -2110.407)">
    <g id="Grupo_1230247" data-name="Grupo 1230247" transform="translate(0 646.858)">
      <g id="Grupo_1230106" data-name="Grupo 1230106" transform="translate(0.75 -13219.084)">
        <g id="Grupo_1224275" data-name="Grupo 1224275" transform="translate(0.25 13230)">
          <g id="Grupo_1224268" data-name="Grupo 1224268">
            <g id="Grupo_1223779" data-name="Grupo 1223779" transform="translate(0 -4451.031)">
              <g id="Grupo_1206283" data-name="Grupo 1206283" transform="translate(0 -3448.335)">
                <g id="Grupo_1203804" data-name="Grupo 1203804" transform="translate(-1 6552)">
                  <g id="Grupo_1202426" data-name="Grupo 1202426" transform="translate(0.5 1464)">
                    <g id="Grupo_1178323" data-name="Grupo 1178323" transform="translate(0 424)">
                      <g id="Grupo_1177681" data-name="Grupo 1177681" transform="translate(1172.5 918)">
                        <g id="Grupo_1172010" data-name="Grupo 1172010">
                          <g id="Grupo_1171046" data-name="Grupo 1171046">
                            <g id="Grupo_1148525" data-name="Grupo 1148525">
                              <g transform="matrix(1, 0, 0, 1, -9, -6)" filter="url(#Trazado_982547)">
                                <g id="Trazado_982547-2" data-name="Trazado 982547" transform="translate(9 6)" fill="#f9e3d4">
                                  <path d="M 47.5 93.5 C 41.28937149047852 93.5 35.26533508300781 92.28397369384766 29.59518623352051 89.88570404052734 C 24.11771965026855 87.56893157958984 19.19813346862793 84.25196075439453 14.97309303283691 80.02691650390625 C 10.74804019927979 75.80186462402344 7.431066513061523 70.88229370117188 5.114293098449707 65.40481567382812 C 2.716026782989502 59.73468017578125 1.5 53.71062850952148 1.5 47.5 C 1.5 41.28937149047852 2.716026782989502 35.26533508300781 5.114293098449707 29.59518623352051 C 7.431066513061523 24.11771965026855 10.74804019927979 19.19813346862793 14.97309303283691 14.97309303283691 C 19.19813346862793 10.74804019927979 24.11771965026855 7.431066513061523 29.59518623352051 5.114293098449707 C 35.26533508300781 2.716026782989502 41.28937149047852 1.5 47.5 1.5 C 53.71062850952148 1.5 59.73468017578125 2.716026782989502 65.40481567382812 5.114293098449707 C 70.88229370117188 7.431066513061523 75.80186462402344 10.74804019927979 80.02691650390625 14.97309303283691 C 84.25196075439453 19.19813346862793 87.56893157958984 24.11771965026855 89.88570404052734 29.59518623352051 C 92.28397369384766 35.26533508300781 93.5 41.28937149047852 93.5 47.5 C 93.5 53.71062850952148 92.28397369384766 59.73468017578125 89.88570404052734 65.40481567382812 C 87.56893157958984 70.88229370117188 84.25196075439453 75.80186462402344 80.02691650390625 80.02691650390625 C 75.80186462402344 84.25196075439453 70.88229370117188 87.56893157958984 65.40481567382812 89.88570404052734 C 59.73468017578125 92.28397369384766 53.71062850952148 93.5 47.5 93.5 Z" stroke="none"/>
                                  <path d="M 47.5 3 C 41.49121475219727 3 35.66376876831055 4.176155090332031 30.17950439453125 6.495796203613281 C 24.88084411621094 8.736953735351562 20.12152099609375 11.94598388671875 16.03375244140625 16.03375244140625 C 11.94598388671875 20.12152099609375 8.736953735351562 24.88084411621094 6.495796203613281 30.17950439453125 C 4.176155090332031 35.66376876831055 3 41.49121475219727 3 47.5 C 3 53.50878524780273 4.176155090332031 59.33623123168945 6.495796203613281 64.82049560546875 C 8.736953735351562 70.11915588378906 11.94598388671875 74.87847900390625 16.03375244140625 78.96624755859375 C 20.12152099609375 83.05401611328125 24.88084411621094 86.26304626464844 30.17950439453125 88.50419616699219 C 35.66376876831055 90.82384490966797 41.49121475219727 92 47.5 92 C 53.50878524780273 92 59.33623123168945 90.82384490966797 64.82049560546875 88.50419616699219 C 70.11915588378906 86.26304626464844 74.87847900390625 83.05401611328125 78.96624755859375 78.96624755859375 C 83.05401611328125 74.87847900390625 86.26304626464844 70.11915588378906 88.50419616699219 64.82049560546875 C 90.82384490966797 59.33623123168945 92 53.50878524780273 92 47.5 C 92 41.49121475219727 90.82384490966797 35.66376876831055 88.50419616699219 30.17950439453125 C 86.26304626464844 24.88084411621094 83.05401611328125 20.12152099609375 78.96624755859375 16.03375244140625 C 74.87847900390625 11.94598388671875 70.11915588378906 8.736953735351562 64.82049560546875 6.495796203613281 C 59.33623123168945 4.176155090332031 53.50878524780273 3 47.5 3 M 47.5 0 C 73.7335205078125 0 95 21.2664794921875 95 47.5 C 95 73.7335205078125 73.7335205078125 95 47.5 95 C 21.2664794921875 95 0 73.7335205078125 0 47.5 C 0 21.2664794921875 21.2664794921875 0 47.5 0 Z" stroke="none" fill="#eca675"/>
                                </g>
                              </g>
                            </g>
                          </g>
                        </g>
                      </g>
                    </g>
                  </g>
                </g>
              </g>
            </g>
          </g>
        </g>
      </g>
    </g>
    <g id="ladron" transform="translate(1187.388 2126.341)">
      <ellipse id="Elipse_14921" data-name="Elipse 14921" cx="2.009" cy="2.009" rx="2.009" ry="2.009" transform="matrix(0.16, -0.987, 0.987, 0.16, 19.46, 4.642)" fill="#685e68"/>
      <g id="Grupo_1231520" data-name="Grupo 1231520" transform="translate(0 0)">
        <g id="Grupo_1231518" data-name="Grupo 1231518" transform="translate(0.972 4.988)">
          <path id="Trazado_1193698" data-name="Trazado 1193698" d="M14.394,263.458l7.229-1.038a1.94,1.94,0,0,0,1.664-1.92V254.41H33.338V260.5A1.94,1.94,0,0,0,35,262.42l7.229,1.038A8.019,8.019,0,0,1,49.11,271.4v11.34H7.515V271.4a8.019,8.019,0,0,1,6.879-7.937Z" transform="translate(-7.515 -226.491)" fill="#685e68"/>
          <path id="Trazado_1193699" data-name="Trazado 1193699" d="M208.809,317.359l-7.229-1.038-.012,0,.012,0a14.563,14.563,0,0,1-2.74,1.457l6.088.874a8.019,8.019,0,0,1,6.879,7.937v10.047h3.88V325.3A8.019,8.019,0,0,0,208.809,317.359Z" transform="translate(-174.093 -280.392)" fill="#554e56"/>
          <path id="Trazado_1193700" data-name="Trazado 1193700" d="M99.225,46.6H75.119v-.062a7.973,7.973,0,0,1,7.973-7.973h8.161a7.973,7.973,0,0,1,7.973,7.973V46.6Z" transform="translate(-66.375 -38.562)" fill="#7a6d79"/>
          <path id="Trazado_1193701" data-name="Trazado 1193701" d="M173.247,38.562h-3.88A8.035,8.035,0,0,1,177.4,46.6h3.88A8.035,8.035,0,0,0,173.247,38.562Z" transform="translate(-148.432 -38.562)" fill="#685e68"/>
          <path id="Trazado_1193702" data-name="Trazado 1193702" d="M80.955,271.509H93.387a5.837,5.837,0,0,1,1.846,11.374l-8.062,2.687-8.062-2.687a5.837,5.837,0,0,1-3.991-5.537h0A5.837,5.837,0,0,1,80.955,271.509Z" transform="translate(-66.374 -241.378)" fill="#7a6d79"/>
          <path id="Trazado_1193703" data-name="Trazado 1193703" d="M161.458,271.509h-3.88a5.837,5.837,0,0,1,1.846,11.374l-6.122,2.041,1.94.647,8.062-2.687a5.837,5.837,0,0,0-1.846-11.374Z" transform="translate(-134.445 -241.378)" fill="#685e68"/>
          <path id="Trazado_1193704" data-name="Trazado 1193704" d="M129.965,262.42a1.94,1.94,0,0,1-1.664-1.92V254.41H118.25V260.5a1.94,1.94,0,0,1-1.664,1.92Q123.276,266.894,129.965,262.42Z" transform="translate(-102.478 -226.491)" fill="#fed2a4"/>
          <path id="Trazado_1193705" data-name="Trazado 1193705" d="M182.7,262.42l-.012,0a1.94,1.94,0,0,1-1.652-1.919V254.41l-3.88,1.293v6.089a1.94,1.94,0,0,0,1.664,1.92l1.14.164A14.567,14.567,0,0,0,182.7,262.42Z" transform="translate(-155.214 -226.491)" fill="#ffbd86"/>
          <path id="Trazado_1193706" data-name="Trazado 1193706" d="M93.058,116.2v12.448a9.733,9.733,0,0,0,19.466,0V116.2c-5.715,0-13.751,0-19.466,0Z" transform="translate(-81.993 -106.159)" fill="#7a6d79"/>
          <path id="Trazado_1193707" data-name="Trazado 1193707" d="M93.058,150.494h19.466v4.9c-2.914,3.024-5.578,3.493-8.006,1.568a2.549,2.549,0,0,0-3.117-.062c-2.667,2.011-5.447,1.528-8.343-1.506Z" transform="translate(-81.993 -136.016)" fill="#fed2a4"/>
          <path id="Trazado_1193708" data-name="Trazado 1193708" d="M217.431,116.2h-3.88v4.434h3.88Z" transform="translate(-186.901 -106.159)" fill="#3f3f3f"/>
          <path id="Trazado_1193709" data-name="Trazado 1193709" d="M161.1,190.943v.542a9.736,9.736,0,0,1-7.793,9.539,9.742,9.742,0,0,0,11.673-9.539v-3.113a8.678,8.678,0,0,1-3.88,2.571Z" transform="translate(-134.447 -168.994)" fill="#685e68"/>
          <path id="Trazado_1193710" data-name="Trazado 1193710" d="M213.551,150.494v7.47a8.678,8.678,0,0,0,3.88-2.571v-4.9h-3.88Z" transform="translate(-186.901 -136.016)" fill="#ffbd86"/>
          <path id="Trazado_1193711" data-name="Trazado 1193711" d="M63.917,150.494H62.1a2.516,2.516,0,0,0-2.516,2.516v1.885a2.516,2.516,0,0,0,2.516,2.516h1.813v-6.917Z" transform="translate(-52.852 -136.016)" fill="#ffbd86"/>
          <path id="Trazado_1193712" data-name="Trazado 1193712" d="M243.55,150.494h1.813a2.516,2.516,0,0,1,2.516,2.516v1.885a2.516,2.516,0,0,1-2.516,2.516H243.55Z" transform="translate(-213.019 -136.016)" fill="#fed2a4"/>
          <path id="Trazado_1193713" data-name="Trazado 1193713" d="M85.773,107.122H61.529a1.94,1.94,0,0,1-1.94-1.94v-2.563a1.94,1.94,0,0,1,1.94-1.94H85.773a1.94,1.94,0,0,1,1.94,1.94v2.563A1.94,1.94,0,0,1,85.773,107.122Z" transform="translate(-52.853 -92.644)" fill="#685e68"/>
          <path id="Trazado_1193714" data-name="Trazado 1193714" d="M235.9,100.679h-3.88a1.94,1.94,0,0,1,1.94,1.94v2.563a1.94,1.94,0,0,1-1.94,1.94h3.88a1.94,1.94,0,0,0,1.94-1.94v-2.563a1.94,1.94,0,0,0-1.94-1.94Z" transform="translate(-202.981 -92.644)" fill="#554e56"/>
          <path id="Trazado_1193715" data-name="Trazado 1193715" d="M296.689,204.857V201.19a4.4,4.4,0,0,1,2.41-3.233,2.17,2.17,0,0,0,1.237-1.95,2.145,2.145,0,0,0-2.118-2.151H287.749a2.145,2.145,0,0,0-2.118,2.151,2.171,2.171,0,0,0,1.237,1.95,4.4,4.4,0,0,1,2.41,3.233v3.667a19.875,19.875,0,0,0-10.92,17.766c0,6.3,2.892,11.414,9.162,11.414h12.053c6.27,0,8.035-5.11,8.035-11.414a19.875,19.875,0,0,0-10.92-17.766Z" transform="translate(-243.325 -173.77)" fill="#ccf59e"/>
          <path id="Trazado_1193716" data-name="Trazado 1193716" d="M393.953,204.857V201.19a4.4,4.4,0,0,1,2.41-3.233,2.17,2.17,0,0,0,1.237-1.95,2.145,2.145,0,0,0-2.118-2.151H391.6a2.145,2.145,0,0,1,2.118,2.151,2.17,2.17,0,0,1-1.237,1.95,4.4,4.4,0,0,0-2.41,3.233v3.667a19.875,19.875,0,0,1,10.92,17.766c0,6.3-1.766,11.414-8.035,11.414h3.88c6.27,0,8.035-5.11,8.035-11.414A19.875,19.875,0,0,0,393.953,204.857Z" transform="translate(-340.59 -173.77)" fill="#b3e69e"/>
          <path id="Trazado_1193717" data-name="Trazado 1193717" d="M343.37,259.959H331.306a2,2,0,0,1-2-2v-.031a2,2,0,0,1,2-2H343.37a2,2,0,0,1,2,2v.031A2,2,0,0,1,343.37,259.959Z" transform="translate(-287.683 -227.813)" fill="#efedef"/>
          <path id="Trazado_1193718" data-name="Trazado 1193718" d="M411.794,255.929h-3.88a2.015,2.015,0,1,1,0,4.03h3.88a2.015,2.015,0,1,0,0-4.03Z" transform="translate(-356.123 -227.813)" fill="#d7d0d6"/>
        </g>
        <g id="Grupo_1231519" data-name="Grupo 1231519">
          <path id="Trazado_1193719" data-name="Trazado 1193719" d="M130.362,167.725v-1.273a.97.97,0,1,0-1.94,0v1.273a.97.97,0,0,0,1.94,0Z" transform="translate(-111.811 -144.077)"/>
          <path id="Trazado_1193720" data-name="Trazado 1193720" d="M194.008,168.7a.97.97,0,0,0,.97-.97v-1.273a.97.97,0,0,0-1.94,0v1.273A.97.97,0,0,0,194.008,168.7Z" transform="translate(-168.069 -144.077)"/>
          <path id="Trazado_1193721" data-name="Trazado 1193721" d="M63.132,42.891A20.948,20.948,0,0,0,58.4,37.537a2.969,2.969,0,0,0,1.227-2.4V35.1a2.974,2.974,0,0,0-2.971-2.971H55.411a3.267,3.267,0,0,1,1.757-2.085,3.133,3.133,0,0,0-1.3-5.944H52.74a.97.97,0,1,0,0,1.94h3.113a1.188,1.188,0,0,1,.469,2.258,5.335,5.335,0,0,0-2.92,3.831H47.857A5.335,5.335,0,0,0,44.937,28.3a1.189,1.189,0,0,1,.459-2.257h3.116a.97.97,0,0,0,0-1.94H45.387c-3.224-.055-4.231,4.648-1.294,5.945a3.266,3.266,0,0,1,1.756,2.085H44.6A2.974,2.974,0,0,0,41.625,35.1v.028a2.969,2.969,0,0,0,1.231,2.407,20.988,20.988,0,0,0-4.108,4.4,10.691,10.691,0,0,0-3.956-1.1,6.82,6.82,0,0,0-4.88-6.421,10.636,10.636,0,0,0,2.561-7.074,3.656,3.656,0,0,0,4.33-3.486V21.982a3.472,3.472,0,0,0-.909-2.345,2.9,2.9,0,0,0,.909-2.111V14.963a2.915,2.915,0,0,0-2.048-2.78,9.017,9.017,0,0,0-8.966-8.165H24.561a2.979,2.979,0,1,0-5.584,0H17.751a8.98,8.98,0,0,0-4.665,1.3.97.97,0,1,0,1.007,1.658,7.041,7.041,0,0,1,3.657-1.019h8.036a7.075,7.075,0,0,1,7,6.094H10.753a7.037,7.037,0,0,1,.776-2.379.97.97,0,0,0-1.707-.923,8.994,8.994,0,0,0-1.037,3.432,2.916,2.916,0,0,0-2.048,2.78v2.563a2.9,2.9,0,0,0,.909,2.111,3.473,3.473,0,0,0-.909,2.345v1.885a3.656,3.656,0,0,0,4.329,3.486,10.672,10.672,0,0,0,2.564,7.07,6.842,6.842,0,0,0-4.884,6.424A9.169,9.169,0,0,0,0,49.893v11.34a.97.97,0,0,0,.97.97H13.629a.97.97,0,1,0,0-1.94H1.941V49.893a7.239,7.239,0,0,1,7.05-7.121c.666,2.71,3.114,4.465,5.781,5.1v7.336a.97.97,0,1,0,1.94,0V48.517L21.462,50.1a.971.971,0,0,0,.614,0l4.75-1.584v6.69a.97.97,0,1,0,1.94,0V47.87c2.633-.622,5.105-2.365,5.781-5.1a9.143,9.143,0,0,1,3.168.822c-2.775,4.824-3.609,11.6-1.508,16.67H17.857a.97.97,0,1,0,0,1.94h19.4a9.136,9.136,0,0,0,7.914,4.022H57.22c7.034-.1,9-5.614,9.006-12.384a20.9,20.9,0,0,0-3.094-10.951ZM21.769,1.94A1.039,1.039,0,1,1,20.73,2.979,1.04,1.04,0,0,1,21.769,1.94Zm4.789,38.981a10.307,10.307,0,0,1-4.789,1.263,10.307,10.307,0,0,1-4.789-1.263A2.907,2.907,0,0,0,17.714,39V37.383a10.741,10.741,0,0,0,8.111.006V39a2.906,2.906,0,0,0,.734,1.925ZM30.532,18.5H28.051v-4.5h2.482Zm-7.793,0v-4.5H26.11v4.5Zm-5.311,0v-4.5H20.8v4.5Zm-1.94-4.5v4.5H13.007v-4.5Zm-2.481,6.443H30.532v3.531c-3.171,3.125-5.184,2.2-6.433,1.205a3.519,3.519,0,0,0-4.3-.076c-1.389,1.047-3.589,2.048-6.788-1.127V20.436Zm21.855,3.431a1.547,1.547,0,0,1-1.546,1.546h-.843V20.436h.843a1.548,1.548,0,0,1,1.546,1.546Zm0-6.341a.971.971,0,0,1-.97.97H32.473v-4.5h1.419a.971.971,0,0,1,.97.97ZM8.677,14.963a.971.971,0,0,1,.97-.97h1.419v4.5H9.647a.971.971,0,0,1-.97-.97V14.963Zm2.389,10.45h-.843a1.547,1.547,0,0,1-1.546-1.546V21.982a1.547,1.547,0,0,1,1.546-1.546h.843v4.976Zm1.94,1.117c3.331,2.468,6.112,1.508,7.957.116a1.579,1.579,0,0,1,1.93.048c2.217,1.8,5.012,1.853,7.638-.167a8.809,8.809,0,1,1-17.525,0ZM31.933,43.8a4.832,4.832,0,0,1-2.409,1.771l-7.755,2.585-7.754-2.585c-5.118-1.7-3.955-9.353,1.407-9.482q.173.128.352.249V39a.975.975,0,0,1-.831.96.976.976,0,0,0-.4,1.767c4.776,3.2,9.682,3.2,14.458,0a.976.976,0,0,0-.4-1.767.975.975,0,0,1-.832-.96V36.348q.183-.125.362-.257A4.9,4.9,0,0,1,31.933,43.8Zm11.631-8.7A1.032,1.032,0,0,1,44.6,34.074H56.657A1.032,1.032,0,0,1,57.688,35.1v.028a1.032,1.032,0,0,1-1.031,1.031H44.6a1.032,1.032,0,0,1-1.031-1.031ZM57.22,64.286H45.167c-5.831.037-8.232-4.994-8.193-10.444A18.988,18.988,0,0,1,45.364,38.1H55.9a18.988,18.988,0,0,1,8.39,15.737C64.286,63.2,60.253,64.286,57.22,64.286Z" transform="translate(0 0)"/>
          <path id="Trazado_1193722" data-name="Trazado 1193722" d="M368.289,347.2h-1.1a1.026,1.026,0,1,1,0-2.052h.98a.829.829,0,0,1,.8.594.97.97,0,0,0,1.858-.558,2.754,2.754,0,0,0-2.118-1.925v-1.186a.97.97,0,1,0-1.94,0v1.165a2.966,2.966,0,0,0,.422,5.9h1.1a1.026,1.026,0,1,1,0,2.052h-1.237a.829.829,0,0,1-.8-.594.97.97,0,0,0-1.858.558,2.754,2.754,0,0,0,2.375,1.963v1.149a.97.97,0,1,0,1.94,0v-1.165a2.966,2.966,0,0,0-.422-5.9Z" transform="translate(-317.114 -296.985)"/>
        </g>
      </g>
    </g>
  </g>
</svg>
